<svg width="25" height="24" viewBox="0 0 25 24" fill="none" xmlns="http://www.w3.org/2000/svg">
<path d="M9.02062 13.8458C7.98059 13.8458 7.13159 12.9014 7.13159 11.7446C7.13159 10.5879 7.95936 9.64331 9.02062 9.64331C10.0712 9.64331 10.9308 10.5879 10.9096 11.7446C10.9096 12.9014 10.0712 13.8458 9.02062 13.8458ZM15.9941 13.8458C14.954 13.8458 14.104 12.9014 14.104 11.7446C14.104 10.5879 14.9328 9.64331 15.9941 9.64331C17.0447 9.64331 17.9043 10.5879 17.8831 11.7446C17.8831 12.9014 17.0553 13.8458 15.9941 13.8458ZM10.6253 4.32296L10.3166 3.76001L9.68323 3.86556C8.21915 4.10958 6.82658 4.54677 5.52544 5.14604L5.29651 5.25148L5.15507 5.46009C2.5418 9.31441 1.8258 13.1087 2.18032 16.8362L2.21897 17.2425L2.54912 17.4824C4.28851 18.7465 5.97417 19.5189 7.62727 20.0257L8.41657 20.2676L9.53013 17.5506C11.4397 18.0226 13.5592 18.0228 15.469 17.5511L16.5757 20.2683L17.3668 20.0256C19.0173 19.5193 20.7137 18.7472 22.4466 17.4811L22.7726 17.243L22.8131 16.8414C23.2491 12.5213 22.116 8.75773 19.8547 5.45652L19.7128 5.24944L19.4846 5.14504C18.1767 4.54685 16.7852 4.10981 15.3309 3.86573L14.7132 3.76207L14.3987 4.30369C14.3112 4.45445 14.2215 4.62464 14.1364 4.79687C13.0441 4.6847 11.956 4.68446 10.8726 4.79652C10.7882 4.62736 10.7025 4.4638 10.6253 4.32296ZM7.21436 16.6102C7.41235 16.7243 7.61973 16.8358 7.82557 16.9381L7.3764 18.034C6.25585 17.6259 5.11837 17.0637 3.9476 16.2557C3.72313 13.1178 4.36092 9.951 6.51196 6.68626C7.40962 6.29123 8.3535 5.98279 9.33606 5.77295C9.39631 5.89831 9.45235 6.02066 9.49839 6.12917L9.77128 6.77238L10.4626 6.67098C11.8152 6.4726 13.1772 6.47234 14.5523 6.67124L15.2424 6.77106L15.5147 6.12917C15.5621 6.01743 15.6167 5.89547 15.6743 5.77322C16.6525 5.98326 17.598 6.29212 18.5029 6.68812C20.3781 9.50857 21.3241 12.6544 21.0486 16.2552C19.8837 17.0625 18.7422 17.6249 17.6193 18.0335L17.1735 16.939C17.3799 16.8365 17.5879 16.7246 17.7865 16.6102C18.2763 16.328 18.8039 15.976 19.1402 15.6397L17.8606 14.3602C17.6969 14.5239 17.337 14.7808 16.8831 15.0423C16.4388 15.2983 15.998 15.5052 15.7164 15.5983C13.7126 16.2608 11.2883 16.2608 9.28443 15.5983C9.00285 15.5052 8.56205 15.2983 8.11772 15.0423C7.66383 14.7808 7.30392 14.5239 7.14017 14.3602L5.86065 15.6397C6.1969 15.976 6.7245 16.328 7.21436 16.6102Z" fill="white"/>
</svg>
