<svg width="25" height="24" viewBox="0 0 25 24" fill="none" xmlns="http://www.w3.org/2000/svg">
<path d="M13.501 19.9383C17.4473 19.4462 20.501 16.0798 20.501 12.0002C20.501 7.58196 16.9193 4.00024 12.501 4.00024C8.0827 4.00024 4.50098 7.58196 4.50098 12.0002C4.50098 16.0798 7.55467 19.4462 11.501 19.9383V14.0002H9.50098V12.0002H11.501V10.346C11.501 9.00879 11.6402 8.52386 11.9017 8.03497C12.1631 7.54608 12.5468 7.1624 13.0357 6.90094C13.4184 6.69628 13.8931 6.57276 14.7227 6.51978C15.0519 6.49875 15.4781 6.52557 16.001 6.60024V8.50024H15.501C14.5837 8.50024 14.2052 8.54356 13.9789 8.66457C13.8386 8.73963 13.7404 8.83782 13.6653 8.97817C13.5443 9.20442 13.501 9.42877 13.501 10.346V12.0002H16.001L15.501 14.0002H13.501V19.9383ZM12.501 22.0002C6.97813 22.0002 2.50098 17.523 2.50098 12.0002C2.50098 6.47739 6.97813 2.00024 12.501 2.00024C18.0238 2.00024 22.501 6.47739 22.501 12.0002C22.501 17.523 18.0238 22.0002 12.501 22.0002Z" fill="white"/>
</svg>
