<svg width="24" height="24" fill="none" xmlns="http://www.w3.org/2000/svg"><path d="M12 24c6.627 0 12-5.373 12-12S18.627 0 12 0 0 5.373 0 12s5.373 12 12 12Z" fill="#101010"/><path d="M12 24c6.627 0 12-5.373 12-12S18.627 0 12 0 0 5.373 0 12s5.373 12 12 12Z" fill="#101010"/><path d="M15.75 5.625a.375.375 0 0 0-.375-.375H13.5a3.577 3.577 0 0 0-3.75 3.375v2.025H7.875a.375.375 0 0 0-.375.375v1.95a.375.375 0 0 0 .375.375H9.75v5.025a.375.375 0 0 0 .375.375h2.25a.375.375 0 0 0 .375-.375V13.35h1.965a.376.376 0 0 0 .367-.278l.54-1.95a.377.377 0 0 0-.36-.472H12.75V8.625a.75.75 0 0 1 .75-.675h1.875a.375.375 0 0 0 .375-.375v-1.95Z" fill="#fff"/></svg>