<svg width="24" height="24" fill="none" xmlns="http://www.w3.org/2000/svg"><path d="M0 12C0 5.373 5.373 0 12 0s12 5.373 12 12-5.373 12-12 12S0 18.627 0 12Z" fill="#101010"/><mask id="a" style="mask-type:alpha" maskUnits="userSpaceOnUse" x="0" y="0" width="24" height="24"><path fill-rule="evenodd" clip-rule="evenodd" d="M0 12C0 5.373 5.373 0 12 0s12 5.373 12 12-5.373 12-12 12S0 18.627 0 12Z" fill="#fff"/></mask><g mask="url(#a)"><path fill-rule="evenodd" clip-rule="evenodd" d="M12 5.6c-1.738 0-1.956.007-2.639.038-.681.031-1.146.14-1.553.298-.421.163-.778.382-1.134.738a3.142 3.142 0 0 0-.739 1.133c-.158.407-.266.873-.297 1.554-.03.682-.038.9-.038 2.639 0 1.738.007 1.955.038 2.638.032.681.14 1.146.298 1.553.163.421.382.778.738 1.134.355.356.712.575 1.133.739.407.158.873.266 1.554.297.682.031.9.039 2.638.039 1.739 0 1.956-.008 2.639-.039.681-.031 1.147-.139 1.554-.297a3.13 3.13 0 0 0 1.133-.739c.356-.356.575-.713.739-1.133.157-.408.265-.873.297-1.554.03-.683.039-.9.039-2.638 0-1.739-.008-1.957-.04-2.64-.031-.68-.14-1.146-.296-1.553a3.141 3.141 0 0 0-.74-1.133 3.128 3.128 0 0 0-1.132-.738c-.408-.159-.874-.267-1.555-.298-.683-.03-.9-.038-2.639-.038H12Zm-.213 1.153h.214c1.708 0 1.911.007 2.586.037.624.029.963.133 1.188.22.299.117.512.255.736.48.224.223.362.437.479.735.087.226.192.564.22 1.188.03.675.037.878.037 2.586 0 1.708-.006 1.91-.037 2.585-.029.624-.133.963-.22 1.188a1.979 1.979 0 0 1-.48.735 1.979 1.979 0 0 1-.735.48c-.225.087-.564.191-1.188.22-.675.03-.878.037-2.586.037-1.71 0-1.912-.007-2.587-.037-.624-.03-.962-.134-1.188-.221a1.982 1.982 0 0 1-.736-.479 1.983 1.983 0 0 1-.479-.735c-.087-.226-.192-.564-.22-1.188-.031-.675-.037-.878-.037-2.587s.006-1.91.037-2.585c.028-.624.133-.963.22-1.188.116-.3.255-.512.479-.736.224-.224.437-.363.736-.48.226-.087.564-.191 1.188-.22.59-.027.82-.035 2.013-.036v.002h.36Zm2.861 1.83a.768.768 0 1 1 0 0ZM12 8.713a3.287 3.287 0 1 0 0 6.573 3.287 3.287 0 0 0 0-6.573ZM14.134 12a2.133 2.133 0 1 0-4.267 0 2.133 2.133 0 0 0 4.267 0Z" fill="#fff"/></g></svg>