<svg width="21" height="20" viewBox="0 0 21 20" fill="none" xmlns="http://www.w3.org/2000/svg">
<path d="M10.5 7.00024C8.84262 7.00024 7.5 8.34334 7.5 10.0002C7.5 11.6575 8.84312 13.0002 10.5 13.0002C12.1573 13.0002 13.5 11.6571 13.5 10.0002C13.5 8.34294 12.1569 7.00024 10.5 7.00024ZM10.5 5.00024C13.2604 5.00024 15.5 7.23734 15.5 10.0002C15.5 12.7607 13.2629 15.0002 10.5 15.0002C7.73953 15.0002 5.5 12.7631 5.5 10.0002C5.5 7.23977 7.7371 5.00024 10.5 5.00024ZM17 4.74939C17 5.4395 16.4392 5.99941 15.75 5.99941C15.0599 5.99941 14.5 5.43864 14.5 4.74939C14.5 4.06014 15.0607 3.50024 15.75 3.50024C16.4383 3.49937 17 4.06014 17 4.74939ZM10.5 2.00024C8.02552 2.00024 7.6222 2.00679 6.47129 2.05804C5.68717 2.09485 5.16155 2.20031 4.67318 2.38991C4.23918 2.55823 3.92611 2.75922 3.59254 3.09279C3.25769 3.42764 3.05706 3.73987 2.88942 4.17407C2.69938 4.66356 2.59395 5.18835 2.5578 5.97139C2.50605 7.07544 2.5 7.46129 2.5 10.0002C2.5 12.4747 2.50655 12.878 2.55779 14.0288C2.59462 14.8126 2.70022 15.339 2.88936 15.8262C3.05812 16.2608 3.25952 16.5746 3.59148 16.9066C3.92765 17.2423 4.24081 17.4436 4.67089 17.6096C5.16521 17.8007 5.6905 17.9063 6.47114 17.9424C7.5752 17.9941 7.96105 18.0002 10.5 18.0002C12.9745 18.0002 13.3778 17.9936 14.5286 17.9424C15.3107 17.9057 15.8375 17.7998 16.326 17.6108C16.7594 17.4425 17.0742 17.2404 17.4064 16.9087C17.7426 16.572 17.9435 16.2596 18.1097 15.8285C18.3003 15.336 18.4061 14.81 18.4422 14.0291C18.4939 12.925 18.5 12.5391 18.5 10.0002C18.5 7.52576 18.4934 7.12245 18.4422 5.97161C18.4054 5.1893 18.2995 4.66173 18.1103 4.17342C17.9424 3.74062 17.7407 3.42659 17.4074 3.09279C17.072 2.75739 16.7606 2.55717 16.3261 2.38966C15.837 2.19978 15.3114 2.0942 14.5288 2.05805C13.4248 2.00629 13.0389 2.00024 10.5 2.00024ZM10.5 0.000244141C13.2166 0.000244141 13.5558 0.0102441 14.6225 0.0602441C15.6866 0.109414 16.4125 0.277744 17.05 0.525244C17.7091 0.779414 18.2658 1.12274 18.8216 1.67857C19.3766 2.23441 19.72 2.79274 19.975 3.45024C20.2216 4.08691 20.39 4.81357 20.44 5.87774C20.4875 6.94441 20.5 7.28357 20.5 10.0002C20.5 12.7169 20.49 13.056 20.44 14.1227C20.3908 15.1869 20.2216 15.9127 19.975 16.5502C19.7208 17.2094 19.3766 17.766 18.8216 18.3219C18.2658 18.8769 17.7066 19.2202 17.05 19.4752C16.4125 19.7219 15.6866 19.8902 14.6225 19.9402C13.5558 19.9877 13.2166 20.0002 10.5 20.0002C7.78333 20.0002 7.44416 19.9902 6.3775 19.9402C5.31333 19.891 4.58833 19.7219 3.95 19.4752C3.29166 19.221 2.73416 18.8769 2.17833 18.3219C1.6225 17.766 1.28 17.2069 1.025 16.5502C0.7775 15.9127 0.61 15.1869 0.56 14.1227C0.5125 13.056 0.5 12.7169 0.5 10.0002C0.5 7.28357 0.51 6.94441 0.56 5.87774C0.60916 4.81274 0.7775 4.08774 1.025 3.45024C1.27916 2.79191 1.6225 2.23441 2.17833 1.67857C2.73416 1.12274 3.2925 0.780244 3.95 0.525244C4.5875 0.277744 5.3125 0.110244 6.3775 0.0602441C7.44416 0.0127441 7.78333 0.000244141 10.5 0.000244141Z" fill="white"/>
</svg>
