<svg width="24" height="24" fill="none" xmlns="http://www.w3.org/2000/svg"><circle cx="12" cy="12" r="12" fill="#101010"/><path d="M14.1 9.6a3.887 3.887 0 0 0-3.9 3.88v3.92a.6.6 0 0 0 .6.6h1.4a.6.6 0 0 0 .6-.6v-3.92a1.295 1.295 0 0 1 1.433-1.287 1.334 1.334 0 0 1 1.167 1.333V17.4a.6.6 0 0 0 .6.6h1.4a.6.6 0 0 0 .6-.6v-3.92a3.888 3.888 0 0 0-3.9-3.88ZM8.4 10.2H6.6a.6.6 0 0 0-.6.6v6.6a.6.6 0 0 0 .6.6h1.8a.6.6 0 0 0 .6-.6v-6.6a.6.6 0 0 0-.6-.6ZM7.5 9a1.5 1.5 0 1 0 0-3 1.5 1.5 0 0 0 0 3Z" fill="#fff"/></svg>