<svg width="25" height="24" viewBox="0 0 25 24" fill="none" xmlns="http://www.w3.org/2000/svg">
<path d="M12.501 9.55029C13.4181 8.61351 14.6121 8.00024 16.001 8.00024C19.0385 8.00024 21.501 10.4626 21.501 13.5002V21.0002H19.501V13.5002C19.501 11.5672 17.934 10.0002 16.001 10.0002C14.068 10.0002 12.501 11.5672 12.501 13.5002V21.0002H10.501V8.50024H12.501V9.55029ZM5.50099 6.50024C4.67256 6.50024 4.00099 5.82867 4.00099 5.00024C4.00099 4.17181 4.67256 3.50024 5.50099 3.50024C6.32941 3.50024 7.00099 4.17181 7.00099 5.00024C7.00099 5.82867 6.32941 6.50024 5.50099 6.50024ZM4.50099 8.50024H6.50099V21.0002H4.50099V8.50024Z" fill="white"/>
</svg>
