<svg width="24" height="24" viewBox="0 0 24 24" fill="none" xmlns="http://www.w3.org/2000/svg">
<path d="M12 24C18.6274 24 24 18.6274 24 12C24 5.37258 18.6274 0 12 0C5.37258 0 0 5.37258 0 12C0 18.6274 5.37258 24 12 24Z" fill="#292929"/>
<path d="M12 24C18.6274 24 24 18.6274 24 12C24 5.37258 18.6274 0 12 0C5.37258 0 0 5.37258 0 12C0 18.6274 5.37258 24 12 24Z" fill="#292929"/>
<g clip-path="url(#clip0_49_2913)">
<path fill-rule="evenodd" clip-rule="evenodd" d="M11.9732 3C7.01125 3 3 7.125 3 12.2282C3 16.3074 5.57014 19.7604 9.13561 20.9826C9.58139 21.0744 9.74467 20.784 9.74467 20.5397C9.74467 20.3258 9.72998 19.5924 9.72998 18.8284C7.23386 19.3785 6.71406 17.7283 6.71406 17.7283C6.31292 16.6588 5.71855 16.3839 5.71855 16.3839C4.90157 15.8186 5.77806 15.8186 5.77806 15.8186C6.68431 15.8797 7.15984 16.7659 7.15984 16.7659C7.96194 18.1714 9.25445 17.7742 9.77443 17.5297C9.84863 16.9339 10.0865 16.5214 10.339 16.2922C8.3482 16.0783 6.25359 15.2839 6.25359 11.7392C6.25359 10.7308 6.60992 9.90581 7.17453 9.26419C7.08545 9.03506 6.77339 8.08763 7.2638 6.81956C7.2638 6.81956 8.02145 6.57506 9.7298 7.76681C10.4612 7.56481 11.2155 7.46205 11.9732 7.46119C12.7308 7.46119 13.5032 7.56825 14.2164 7.76681C15.9249 6.57506 16.6826 6.81956 16.6826 6.81956C17.173 8.08763 16.8607 9.03506 16.7717 9.26419C17.3511 9.90581 17.6928 10.7308 17.6928 11.7392C17.6928 15.2839 15.5982 16.0629 13.5924 16.2922C13.9194 16.5825 14.2015 17.1324 14.2015 18.0034C14.2015 19.2409 14.1868 20.2341 14.1868 20.5395C14.1868 20.784 14.3503 21.0744 14.7959 20.9827C18.3613 19.7603 20.9315 16.3074 20.9315 12.2282C20.9462 7.125 16.9202 3 11.9732 3Z" fill="white"/>
</g>
<defs>
<clipPath id="clip0_49_2913">
<rect width="18" height="18" fill="white" transform="translate(3 3)"/>
</clipPath>
</defs>
</svg>
