<svg width="24" height="24" viewBox="0 0 24 24" fill="none" xmlns="http://www.w3.org/2000/svg">
<path d="M12 24C18.6274 24 24 18.6274 24 12C24 5.37258 18.6274 0 12 0C5.37258 0 0 5.37258 0 12C0 18.6274 5.37258 24 12 24Z" fill="#292929"/>
<path d="M12 24C18.6274 24 24 18.6274 24 12C24 5.37258 18.6274 0 12 0C5.37258 0 0 5.37258 0 12C0 18.6274 5.37258 24 12 24Z" fill="#292929"/>
<g clip-path="url(#clip0_50_2931)">
<path d="M10.265 11.0955C10.265 11.0955 11.9681 10.9691 11.9681 8.97198C11.9681 6.97471 10.5748 6 8.80979 6H3.00195V17.161H8.80979C8.80979 17.161 12.3553 17.273 12.3553 13.8668C12.3553 13.8668 12.5098 11.0955 10.265 11.0955ZM8.39175 7.98375H8.80979C8.80979 7.98375 9.59925 7.98375 9.59925 9.14501C9.59925 10.3061 9.13496 10.4745 8.60834 10.4745H5.56096V7.98375H8.39175ZM8.64567 15.1774H5.56096V12.1947H8.80979C8.80979 12.1947 9.98644 12.1793 9.98644 13.7275C9.98644 15.033 9.1076 15.1675 8.64567 15.1774ZM17.0838 8.8397C12.7916 8.8397 12.7954 13.1281 12.7954 13.1281C12.7954 13.1281 12.5009 17.3945 17.0838 17.3945C17.0838 17.3945 20.9028 17.6127 20.9028 14.4266H18.9387C18.9387 14.4266 19.0042 15.6264 17.1493 15.6264C17.1493 15.6264 15.1849 15.7581 15.1849 13.6847H20.9683C20.9683 13.6846 21.6011 8.8397 17.0838 8.8397ZM15.1633 12.1947C15.1633 12.1947 15.4031 10.4744 17.1274 10.4744C18.8513 10.4744 18.8297 12.1947 18.8297 12.1947H15.1633ZM19.2872 8.03193H14.6825V6.65753H19.2872V8.03193Z" fill="white"/>
</g>
<defs>
<clipPath id="clip0_50_2931">
<rect width="18" height="11.3976" fill="white" transform="translate(3 6)"/>
</clipPath>
</defs>
</svg>
