<svg width="25" height="24" viewBox="0 0 25 24" fill="none" xmlns="http://www.w3.org/2000/svg">
<path d="M12.501 20.0002C16.9193 20.0002 20.501 16.4185 20.501 12.0002C20.501 7.58196 16.9193 4.00024 12.501 4.00024C8.0827 4.00024 4.50098 7.58196 4.50098 12.0002C4.50098 16.4185 8.0827 20.0002 12.501 20.0002ZM12.501 22.0002C6.97813 22.0002 2.50098 17.523 2.50098 12.0002C2.50098 6.47739 6.97813 2.00024 12.501 2.00024C18.0238 2.00024 22.501 6.47739 22.501 12.0002C22.501 17.523 18.0238 22.0002 12.501 22.0002ZM9.39113 13.171L6.89308 12.3913C6.35317 12.2257 6.34996 11.8542 7.01397 11.5873L16.747 7.82778C17.3115 7.59668 17.6325 7.88866 17.4495 8.61665L15.7917 16.4379C15.6763 16.9943 15.3407 17.1268 14.8759 16.87L12.325 14.9825L11.1361 16.1299C11.0139 16.2478 10.9145 16.3491 10.7273 16.3745C10.54 16.3998 10.3856 16.3444 10.2734 16.0339L9.40378 13.163L9.39113 13.171Z" fill="white"/>
</svg>
