<svg width="24" height="24" fill="none" xmlns="http://www.w3.org/2000/svg"><path d="M12 24c6.627 0 12-5.373 12-12S18.627 0 12 0 0 5.373 0 12s5.373 12 12 12Z" fill="#101010"/><path d="M9.8 17.5c-.39 0-.323-.147-.458-.517L8.2 13.221 17 8" fill="#C8DAEA"/><path d="M9.8 17.5c.3 0 .433-.137.6-.3l1.6-1.556-1.995-1.204" fill="#A9C9DD"/><path d="m10.005 14.44 4.836 3.574c.552.304.95.146 1.087-.513l1.969-9.276c.201-.808-.308-1.174-.836-.935L5.5 11.747c-.788.317-.784.757-.143.953l2.966.926 6.868-4.333c.324-.196.621-.09.377.126" fill="url(#a)"/><defs><linearGradient id="a" x1="10.498" y1="12.737" x2="11.781" y2="16.884" gradientUnits="userSpaceOnUse"><stop stop-color="#EFF7FC"/><stop offset="1" stop-color="#fff"/></linearGradient></defs></svg>