<svg width="25" height="24" viewBox="0 0 25 24" fill="none" xmlns="http://www.w3.org/2000/svg">
<path d="M15.8499 5.55103C14.2681 5.55103 12.9786 6.81907 12.9504 8.39756L12.9223 9.9726C12.9164 10.3039 12.643 10.5677 12.3117 10.5618C12.2881 10.5614 12.2646 10.5596 12.2413 10.5564L10.6805 10.3436C8.62699 10.0635 6.65883 9.11834 4.77072 7.54509C4.17275 10.8548 5.34 13.1482 8.15342 14.917L9.90041 16.0152C10.181 16.1916 10.2654 16.562 10.089 16.8425C10.0486 16.9068 9.99636 16.9629 9.93504 17.0077L8.34338 18.1706C9.28973 18.23 10.1894 18.1885 10.935 18.0397C15.6526 17.0983 18.7897 13.548 18.7897 7.69207C18.7897 7.21398 17.7774 5.55103 15.8499 5.55103ZM10.9507 8.36188C10.9983 5.69682 13.1735 3.55103 15.8499 3.55103C17.2132 3.55103 18.4465 4.10781 19.3348 5.00638C20.0462 5.00103 20.6514 5.18089 22.0035 4.36065C21.6693 6.00103 21.5034 6.71299 20.7897 7.69207C20.7897 15.3336 16.0926 19.0499 11.3264 20.001C8.0587 20.6532 3.30646 19.5825 1.94531 18.1597C2.63874 18.1064 5.45928 17.803 7.08895 16.6102C5.70994 15.6997 0.221372 12.4691 3.82772 3.7874C5.52119 5.76405 7.23797 7.10953 8.97807 7.82384C10.1355 8.29896 10.4198 8.28948 10.9507 8.36188Z" fill="white"/>
</svg>
