<svg width="25" height="24" viewBox="0 0 25 24" fill="none" xmlns="http://www.w3.org/2000/svg">
<path d="M20.1069 6.99506C20.0307 6.69719 19.8152 6.47245 19.5684 6.40312C19.1299 6.28086 17.001 6.00024 12.501 6.00024C8.00098 6.00024 5.87252 6.28097 5.43225 6.40347C5.18776 6.47147 4.9723 6.69617 4.8951 6.99506C4.7863 7.41947 4.50098 9.19619 4.50098 12.0002C4.50098 14.8042 4.7863 16.581 4.8954 17.0066C4.97126 17.3033 5.18676 17.528 5.43251 17.597C5.87252 17.7195 8.00098 18.0002 12.501 18.0002C17.001 18.0002 19.1299 17.7196 19.5697 17.597C19.8142 17.529 20.0297 17.3043 20.1069 17.0054C20.2157 16.581 20.501 14.8002 20.501 12.0002C20.501 9.20024 20.2157 7.41947 20.1069 6.99506ZM22.0442 6.49842C22.501 8.28024 22.501 12.0002 22.501 12.0002C22.501 12.0002 22.501 15.7202 22.0442 17.502C21.7897 18.4875 21.047 19.262 20.1056 19.5238C18.3971 20.0002 12.501 20.0002 12.501 20.0002C12.501 20.0002 6.60837 20.0002 4.89637 19.5238C3.95146 19.2584 3.20879 18.4838 2.95774 17.502C2.50098 15.7202 2.50098 12.0002 2.50098 12.0002C2.50098 12.0002 2.50098 8.28024 2.95774 6.49842C3.21227 5.51297 3.95495 4.73842 4.89637 4.4766C6.60837 4.00024 12.501 4.00024 12.501 4.00024C12.501 4.00024 18.3971 4.00024 20.1056 4.4766C21.0505 4.74206 21.7932 5.5166 22.0442 6.49842ZM10.501 15.5002V8.50024L16.501 12.0002L10.501 15.5002Z" fill="white"/>
</svg>
