<svg width="419" height="574" viewBox="0 0 419 574" fill="none" xmlns="http://www.w3.org/2000/svg">
<rect width="419" height="574" rx="10" fill="#FF5C3E"/>
<path d="M155.537 192.31C155.537 193.951 155.537 195.593 155.537 197.234C155.443 197.29 155.452 197.382 155.446 197.472C155.432 197.784 155.424 198.097 155.395 198.409C155.269 199.767 155.104 201.119 154.873 202.465C154.206 206.371 153.02 210.116 151.346 213.702C150.305 215.934 149.086 218.071 147.679 220.099C145.965 222.575 144.046 224.878 141.865 226.959C141.181 227.614 140.487 228.256 139.768 228.871C138.533 229.93 137.241 230.916 135.893 231.827C134.026 233.09 132.079 234.216 130.04 235.188C128.449 235.945 126.821 236.611 125.152 237.179C123.11 237.874 121.023 238.414 118.899 238.801C117.798 239.002 116.692 239.163 115.58 239.277C114.861 239.351 114.144 239.426 113.421 239.448C113.344 239.45 113.272 239.461 113.228 239.537C111.587 239.537 109.944 239.537 108.303 239.537C108.259 239.461 108.187 239.448 108.11 239.448C107.887 239.452 107.664 239.422 107.441 239.41C106.093 239.327 104.755 239.161 103.425 238.938C100.964 238.526 98.5508 237.924 96.1891 237.107C93.9215 236.321 91.7331 235.361 89.6185 234.229C87.9795 233.351 86.4014 232.376 84.8878 231.299C82.622 229.688 80.5147 227.896 78.5937 225.885C77.9503 225.212 77.3198 224.528 76.7114 223.822C75.5941 222.527 74.5654 221.165 73.6104 219.749C72.4711 218.058 71.4589 216.296 70.5574 214.465C69.6872 212.695 68.9387 210.875 68.3082 209.01C67.6998 207.205 67.2149 205.367 66.8517 203.497C66.5992 202.201 66.3945 200.899 66.2618 199.585C66.1899 198.866 66.1069 198.149 66.0885 197.426C66.0866 197.349 66.0756 197.277 66 197.232C66 195.592 66 193.949 66 192.308C66.0756 192.264 66.0885 192.192 66.0885 192.114C66.0903 191.696 66.1438 191.283 66.1733 190.866C66.2526 189.788 66.3908 188.717 66.5623 187.649C66.9845 185.037 67.6205 182.478 68.4999 179.98C69.147 178.141 69.9103 176.353 70.786 174.613C71.7189 172.756 72.7863 170.983 73.9644 169.273C75.4319 167.144 77.0967 165.179 78.8924 163.322C79.4215 162.776 79.9875 162.269 80.5442 161.751C81.5048 160.857 82.5132 160.018 83.5549 159.22C85.5478 157.694 87.6514 156.337 89.8729 155.166C92.0023 154.045 94.2036 153.09 96.4841 152.323C98.2964 151.715 100.14 151.222 102.017 150.857C103.32 150.603 104.629 150.396 105.951 150.262C106.67 150.19 107.387 150.107 108.11 150.088C108.187 150.087 108.259 150.076 108.303 150C109.944 150 111.587 150 113.228 150C113.278 150.085 113.359 150.087 113.443 150.088C114.242 150.107 115.035 150.19 115.825 150.28C117.516 150.474 119.19 150.761 120.849 151.139C124.247 151.916 127.505 153.084 130.624 154.629C132.578 155.597 134.448 156.709 136.242 157.952C138.391 159.441 140.392 161.112 142.255 162.942C143.148 163.818 143.99 164.747 144.805 165.697C145.922 167 146.958 168.365 147.921 169.786C149.281 171.799 150.454 173.916 151.473 176.121C152.163 177.612 152.762 179.139 153.278 180.697C153.852 182.426 154.316 184.185 154.667 185.973C154.923 187.291 155.137 188.615 155.271 189.952C155.343 190.671 155.424 191.388 155.445 192.111C155.45 192.196 155.461 192.267 155.537 192.31ZM126.907 213.232C126.996 213.189 127.042 213.167 127.088 213.143C128.34 212.466 129.588 211.781 130.847 211.117C131.505 210.77 131.804 210.249 131.804 209.509C131.798 200.684 131.8 191.856 131.802 183.031C131.802 181.462 131.133 180.289 129.769 179.502C126.511 177.618 123.259 175.723 120.005 173.831C116.769 171.952 113.536 170.07 110.298 168.193C108.893 167.378 107.369 168.256 107.369 169.876C107.369 173.398 107.371 176.919 107.363 180.44C107.363 180.63 107.426 180.726 107.584 180.822C113.384 184.296 119.183 187.773 124.981 191.252C125.25 191.414 125.508 191.591 125.733 191.812C126.548 192.605 126.911 193.576 126.909 194.708C126.904 200.774 126.906 206.84 126.907 212.905C126.907 212.999 126.907 213.095 126.907 213.232ZM123.156 205.451C123.156 202.505 123.157 199.557 123.154 196.611C123.154 196.359 123.145 196.102 123.102 195.853C122.892 194.602 122.197 193.704 121.104 193.068C116.458 190.369 111.819 187.657 107.179 184.948C105.324 183.866 103.47 182.787 101.619 181.703C101.18 181.447 100.715 181.353 100.221 181.458C99.3196 181.648 98.7296 182.398 98.7278 183.348C98.7259 187.063 98.7296 190.778 98.7204 194.493C98.7204 194.747 98.8089 194.873 99.0135 194.994C104.651 198.361 110.285 201.733 115.921 205.101C117.238 205.888 117.894 207.037 117.892 208.575C117.887 211.819 117.89 215.064 117.89 218.309C117.89 218.368 117.892 218.429 117.89 218.488C117.885 218.604 117.942 218.613 118.029 218.571C118.089 218.541 118.148 218.508 118.206 218.477C119.537 217.728 120.862 216.967 122.202 216.235C122.864 215.874 123.163 215.355 123.161 214.605C123.148 211.554 123.156 208.503 123.156 205.451ZM114.137 214.797C114.137 213.327 114.142 211.858 114.135 210.389C114.127 208.906 113.471 207.784 112.194 207.039C105.674 203.234 99.1518 199.432 92.631 195.628C91.2575 194.828 89.7162 195.689 89.7088 197.279C89.6978 200.144 89.6978 203.007 89.7088 205.872C89.7162 207.608 90.485 208.936 91.9617 209.841C96.5173 212.634 101.078 215.42 105.636 218.209C107.301 219.229 108.967 220.247 110.632 221.27C111.143 221.583 111.688 221.718 112.278 221.609C113.396 221.404 114.129 220.512 114.133 219.34C114.142 217.826 114.137 216.312 114.137 214.797Z" fill="white"/>
<path d="M126.902 213.231C126.902 213.095 126.902 212.999 126.902 212.905C126.902 206.839 126.898 200.774 126.903 194.708C126.905 193.576 126.542 192.604 125.727 191.812C125.5 191.592 125.244 191.413 124.975 191.251C119.177 187.774 113.379 184.295 107.579 180.822C107.418 180.726 107.356 180.63 107.357 180.44C107.363 176.919 107.361 173.397 107.363 169.876C107.363 168.257 108.886 167.378 110.292 168.193C113.53 170.069 116.764 171.95 119.999 173.83C123.253 175.722 126.505 177.617 129.763 179.502C131.127 180.291 131.796 181.461 131.796 183.03C131.795 191.856 131.795 200.683 131.798 209.509C131.798 210.248 131.5 210.77 130.841 211.116C129.582 211.78 128.334 212.466 127.082 213.143C127.038 213.167 126.99 213.189 126.902 213.231Z" fill="#FF5C3E"/>
<path d="M123.16 205.451C123.16 208.502 123.152 211.553 123.165 214.604C123.169 215.353 122.869 215.873 122.207 216.234C120.866 216.966 119.541 217.727 118.21 218.476C118.151 218.509 118.092 218.54 118.033 218.57C117.946 218.612 117.889 218.603 117.894 218.487C117.898 218.428 117.894 218.367 117.894 218.308C117.894 215.063 117.891 211.819 117.896 208.574C117.898 207.036 117.242 205.888 115.925 205.1C110.29 201.732 104.656 198.36 99.0177 194.993C98.8131 194.872 98.7246 194.746 98.7246 194.492C98.7357 190.777 98.7301 187.062 98.732 183.347C98.732 182.398 99.3219 181.647 100.225 181.457C100.719 181.352 101.184 181.446 101.623 181.703C103.476 182.787 105.33 183.867 107.183 184.947C111.823 187.656 116.462 190.368 121.108 193.067C122.201 193.701 122.894 194.601 123.106 195.853C123.149 196.101 123.156 196.358 123.158 196.61C123.162 199.556 123.16 202.504 123.16 205.451Z" fill="#FF5C3E"/>
<path d="M114.13 214.796C114.13 216.309 114.136 217.825 114.128 219.338C114.123 220.509 113.391 221.403 112.274 221.608C111.684 221.715 111.138 221.582 110.627 221.269C108.965 220.245 107.298 219.228 105.631 218.208C101.072 215.419 96.5128 212.633 91.9572 209.84C90.4805 208.935 89.7117 207.607 89.7043 205.87C89.6914 203.005 89.6933 200.142 89.7043 197.277C89.7098 195.688 91.2529 194.825 92.6264 195.627C99.1473 199.431 105.67 203.23 112.189 207.038C113.467 207.782 114.123 208.905 114.13 210.387C114.138 211.857 114.13 213.326 114.13 214.796Z" fill="#FF5C3E"/>
<ellipse cx="304.982" cy="93.0047" rx="43.9824" ry="43.849" fill="#FF5C3E"/>
<path d="M275.191 60.568C272.433 56.0717 269.684 51.5916 266.935 47.1132C266.986 47.0755 267.036 47.0377 267.085 47C267.494 47.478 267.918 47.9453 268.312 48.4359C271.254 52.075 274.117 55.7788 277.147 59.3424C280.272 63.0175 283.56 66.5577 286.778 70.1555C288.984 72.6229 291.196 75.0831 293.395 77.5559C294.334 78.6126 294.294 79.725 293.323 80.7907C292.198 82.0235 290.704 82.3973 289.134 82.5518C287.246 82.7369 286.064 83.7774 285.763 85.6554C285.646 86.3886 285.583 87.1326 285.541 87.8748C285.446 89.5749 284.881 91.1257 284.135 92.6353C283.713 93.4871 283.288 94.3515 283.003 95.2555C282.143 97.987 283.064 100.46 285.554 102.282C286.203 102.757 286.893 103.179 287.531 103.669C289.397 105.104 289.505 107.292 287.767 108.888C286.003 110.509 283.807 111.262 281.55 111.907C280.802 112.121 280.458 111.977 280.124 111.266C279.712 110.382 279.11 109.587 278.599 108.748C277.184 106.423 276.422 103.905 277.184 101.249C277.563 99.9279 278.425 98.6861 279.283 97.5719C281.033 95.3022 282.918 93.1205 283.823 90.353C284.236 89.0932 284.413 87.7508 284.631 86.4353C284.892 84.8521 285.314 83.3857 286.509 82.1906C287.302 81.3981 287.367 80.3827 286.817 79.3854C284.687 75.527 282.605 71.6417 280.382 67.8391C279.596 66.4948 278.459 65.3537 277.302 64.2143C277.397 64.4264 277.478 64.6456 277.592 64.8487C280.305 69.744 283.019 74.6392 285.734 79.5327C286.32 80.5876 286.278 80.9326 285.455 81.8168C284.189 83.1736 283.701 84.8701 283.58 86.6366C283.337 90.1769 281.599 92.9911 279.486 95.676C278.459 96.9825 277.323 98.2746 276.62 99.7536C275.158 102.83 275.874 105.858 277.413 108.734C278.044 109.913 278.778 111.037 279.434 112.206C279.62 112.534 279.695 112.924 279.838 113.334C282.621 113.958 285.401 114.29 288.012 112.587C288.194 112.468 288.467 112.418 288.688 112.436C291.618 112.678 294.208 113.636 296.191 115.927C296.793 116.623 297.44 117.302 298.164 117.861C299.679 119.027 301.642 119.044 303.093 118.008C304.594 116.936 304.87 114.693 303.54 113.415C303.659 113.848 303.77 114.161 303.828 114.484C304.151 116.296 302.55 117.791 300.76 117.36C299.232 116.993 298.224 115.665 298.271 114.082C298.31 112.689 299.304 111.622 300.881 111.354C302.619 111.059 304.156 111.661 305.225 112.939C306.22 114.127 306.918 115.57 307.687 116.934C308.183 117.813 308.506 118.79 309.025 119.653C310.997 122.923 314.243 123.655 317.455 121.554C319.417 120.271 321.578 119.256 323.144 117.424C323.272 117.275 323.492 117.198 323.676 117.103C329.021 114.296 331.4 108.119 329.284 102.482C328.525 100.46 327.135 98.891 325.358 97.73C323.463 96.4936 321.489 95.3705 319.499 94.2868C318.072 93.5105 316.79 92.6605 316.372 90.9532C316.356 90.9658 316.412 90.9011 316.435 90.9119C319.757 92.3873 323.121 93.78 326.383 95.3795C328.384 96.3607 329.952 97.8828 330.412 100.224C330.491 100.623 330.524 101.031 330.61 101.669C331.386 100.74 331.744 99.8219 331.968 98.8622C332.97 94.5869 332.209 90.7484 328.948 87.6286C326.996 85.7614 324.557 84.7658 321.942 84.2501C319.397 83.7487 316.826 83.3803 314.27 82.9292C313.715 82.8322 313.169 82.6632 312.634 82.4781C310.714 81.8186 309.054 80.9003 309.018 78.5389C309.548 78.8624 310.135 79.2757 310.77 79.5974C313.218 80.832 315.867 81.2184 318.564 81.4017C320.141 81.5095 321.724 81.5886 323.294 81.7737C325.271 82.0073 326.832 82.967 327.878 84.694C327.939 84.7946 328.018 84.8844 328.092 84.9743C328.107 84.9923 328.145 84.9905 328.435 85.0731C328.155 84.0416 328.029 83.0838 327.647 82.2409C324.675 75.6654 319.633 71.6669 312.444 70.6659C310.263 70.3622 307.988 70.6479 305.762 70.7629C305.072 70.7989 304.612 70.7162 304.151 70.1627C302.108 67.7169 299.715 65.7095 296.564 64.881C295.284 64.545 293.916 64.5252 292.586 64.3886C292.162 64.3455 291.798 64.4479 291.879 65.0248C291.895 65.1434 291.803 65.2836 291.738 65.404C291.567 65.7257 291.246 66.033 291.226 66.36C291.046 69.3217 291.89 72.0011 293.59 74.4236C293.741 74.6374 293.885 74.8567 294.125 75.2071C292.964 74.8207 291.992 74.4541 291.243 73.6185C287.56 69.5157 283.861 65.4256 280.162 61.3354C279.344 60.4314 278.508 59.5437 277.678 58.6469C291.093 47.2139 315.359 44.2235 333.347 59.3137C351.963 74.9304 354.458 102.489 339.023 120.997C323.308 139.847 295.776 142.19 277.291 127.107C266.951 118.67 261.446 107.641 261.025 94.312C260.605 81.0117 265.58 69.8194 275.191 60.568Z" fill="white"/>
<path d="M330.801 97.2144C327.937 93.6885 323.852 92.5168 320.06 90.8185C317.97 89.884 315.91 88.8543 313.944 87.688C312.399 86.7733 311.321 85.3661 310.883 83.5619C310.946 83.5241 311.007 83.4612 311.038 83.4738C313.871 84.6006 316.894 84.827 319.861 85.3212C322.286 85.7238 324.645 86.315 326.724 87.7311C329.822 89.8427 331.253 93.0487 330.801 97.2144Z" fill="white"/>
<path d="M305.572 72.4024C311.18 69.8452 323.05 74.8698 325.029 80.5163C321.64 80.1515 318.232 79.8621 314.848 79.3985C312.081 79.0193 309.819 77.6176 308.047 75.4575C307.22 74.4529 306.409 73.4375 305.572 72.4024Z" fill="white"/>
<path d="M325.908 113.51C325.794 112.633 325.748 111.807 325.575 111.009C324.96 108.175 323.296 105.865 321.713 103.518C320.432 101.619 319.064 99.7588 318.453 97.5035C318.271 96.8314 318.227 96.1215 318.119 95.4296C318.189 95.3775 318.26 95.3236 318.33 95.2715C319.952 96.188 321.594 97.0704 323.192 98.03C325.268 99.2772 327.143 100.763 327.963 103.157C329.216 106.818 328.563 110.186 326.218 113.244C326.153 113.33 326.05 113.39 325.908 113.51Z" fill="white"/>
<path d="M297.476 115.849C295.6 113.61 293.496 112.174 290.555 111.671C291.169 111.229 291.597 110.893 292.051 110.598C294.809 108.812 297.776 107.656 301.118 107.699C304.844 107.746 307.546 109.507 308.654 112.645C308.95 113.481 309.107 114.368 309.267 115.244C309.498 116.496 309.673 117.76 309.797 119.068C309.381 118.139 308.943 117.219 308.55 116.281C307.711 114.275 306.689 112.41 304.766 111.215C303.73 110.571 302.612 110.226 301.372 110.269C298.416 110.373 296.755 112.6 297.476 115.849Z" fill="white"/>
<path d="M291.844 66.0899C294.879 66.0342 297.507 68.1674 298.387 71.3554C298.6 72.1282 298.807 72.9045 298.982 73.6862C299.348 75.3252 300.193 76.7089 301.233 77.9957C301.374 78.17 301.496 78.3605 301.651 78.5761C296.963 78.9948 290.957 72.5325 291.844 66.0899Z" fill="white"/>
<path d="M298.619 104.35C300.33 103.232 302.031 102.665 303.812 102.321C305.216 102.05 306.639 101.867 308.047 101.611C308.631 101.505 309.215 101.354 309.773 101.155C313.546 99.8216 315.168 96.6227 314.184 92.4912C314.145 92.3223 314.099 92.1552 314.04 91.918C315.565 93.3233 316.043 96.4359 315.085 98.6013C313.822 101.462 311.405 102.736 308.476 103.135C306.41 103.416 304.31 103.439 302.235 103.662C301.094 103.784 299.971 104.086 298.619 104.35Z" fill="white"/>
<path d="M296.258 88.9926C294.63 88.9997 293.911 88.1317 294.221 86.5359C294.507 85.0587 295.607 84.0002 296.966 83.8924C298.415 83.7774 299.753 84.6562 300.234 86.0094C300.51 86.7857 300.368 87.5225 299.675 87.8819C298.619 88.4301 297.462 88.7859 296.348 89.2244C296.317 89.1471 296.287 89.0698 296.258 88.9926ZM297.044 86.7749C297.574 86.6923 298.313 86.721 298.437 85.8566C298.511 85.3409 297.826 84.7514 297.226 84.7981C296.55 84.8503 296.133 85.242 296.072 85.9285C296.02 86.5323 296.35 86.7947 297.044 86.7749Z" fill="white"/>
<circle cx="335.768" cy="354.768" r="44.7684" fill="white"/>
<path fill-rule="evenodd" clip-rule="evenodd" d="M335.068 328.187C345.505 328.187 353.955 336.647 353.955 347.097V371.504H316.182V347.097C316.182 336.647 324.632 328.187 335.068 328.187ZM327.514 342.028C325.333 342.028 323.581 343.782 323.581 345.966C323.581 348.149 325.333 349.904 327.514 349.904C329.694 349.904 331.447 348.149 331.447 345.966C331.447 343.782 329.694 342.028 327.514 342.028ZM341.455 342.028C339.274 342.028 337.522 343.782 337.522 345.966C337.522 348.149 339.274 349.904 341.455 349.904C343.635 349.904 345.388 348.149 345.388 345.966C345.388 343.782 343.635 342.028 341.455 342.028Z" fill="#FF5C3E"/>
<path fill-rule="evenodd" clip-rule="evenodd" d="M335.068 330.723C345.505 330.723 353.955 337.234 353.955 353.648V372.909H316.182V346.747C316.182 336.766 324.632 330.723 335.068 330.723ZM327.514 342.03C325.333 342.03 323.581 343.784 323.581 345.967C323.581 348.151 325.333 349.905 327.514 349.905C329.694 349.905 331.447 348.151 331.447 345.967C331.447 343.784 329.694 342.03 327.514 342.03ZM341.455 342.03C339.274 342.03 337.522 343.784 337.522 345.967C337.522 348.151 339.274 349.905 341.455 349.905C343.635 349.905 345.388 348.151 345.388 345.967C345.388 343.784 343.635 342.03 341.455 342.03Z" fill="#FF5C3E"/>
<path fill-rule="evenodd" clip-rule="evenodd" d="M335.067 332.553C345.503 332.553 353.954 338.83 353.954 354.66V381.368C353.954 382.576 352.98 383.512 351.812 383.512C350.605 383.512 349.67 382.537 349.67 381.368V375.363C349.67 374.272 348.735 373.414 347.567 373.375H347.528C346.36 373.375 345.386 374.233 345.386 375.324V378.015C345.386 379.145 344.491 380.042 343.362 380.042C342.232 380.042 341.337 379.145 341.337 378.015V375.363C341.337 374.272 340.402 373.414 339.234 373.375H339.195C338.027 373.375 337.053 374.233 337.053 375.324V375.87C337.053 377.001 336.157 377.898 335.028 377.898C333.899 377.898 333.003 377.001 333.003 375.87V375.363C333.003 374.272 332.068 373.414 330.9 373.375H330.861C329.693 373.375 328.72 374.233 328.72 375.324V378.015C328.72 379.145 327.824 380.042 326.695 380.042C325.565 380.042 324.67 379.145 324.67 378.015V375.363C324.67 374.272 323.735 373.414 322.567 373.375H322.528C321.36 373.375 320.386 374.233 320.386 375.324V375.363V381.485C320.386 382.615 319.49 383.512 318.361 383.512C317.232 383.512 316.336 382.615 316.336 381.485V348.032C316.18 338.401 324.631 332.553 335.067 332.553ZM327.512 342.027C325.332 342.027 323.579 343.782 323.579 345.965C323.579 348.149 325.332 349.903 327.512 349.903C329.693 349.903 331.445 348.149 331.445 345.965C331.445 343.782 329.693 342.027 327.512 342.027ZM341.453 342.027C339.273 342.027 337.52 343.782 337.52 345.965C337.52 348.149 339.273 349.903 341.453 349.903C343.634 349.903 345.386 348.149 345.386 345.965C345.386 343.782 343.634 342.027 341.453 342.027Z" fill="#FF5C3E"/>
<path opacity="0.2563" fill-rule="evenodd" clip-rule="evenodd" d="M318.2 351.461C318.745 351.461 319.212 351.929 319.212 352.475V357.037C319.212 357.583 318.745 358.051 318.2 358.051C317.655 358.051 317.188 357.583 317.188 357.037V352.475C317.188 351.929 317.616 351.461 318.2 351.461Z" fill="#FF5C3E"/>
<path opacity="0.2563" fill-rule="evenodd" clip-rule="evenodd" d="M352.671 358.052C353.216 358.052 353.683 358.52 353.683 359.065V367.604C353.683 368.15 353.216 368.618 352.671 368.618C352.126 368.618 351.658 368.15 351.658 367.604V359.065C351.658 358.52 352.126 358.052 352.671 358.052Z" fill="#FF5C3E"/>
<path opacity="0.2563" fill-rule="evenodd" clip-rule="evenodd" d="M352.671 353.647C353.216 353.647 353.683 354.115 353.683 354.661V355.597C353.683 356.142 353.216 356.61 352.671 356.61C352.126 356.61 351.658 356.142 351.658 355.597V354.661C351.658 354.076 352.126 353.647 352.671 353.647Z" fill="#FF5C3E"/>
<path fill-rule="evenodd" clip-rule="evenodd" d="M335.141 356.064C336.854 356.064 338.139 354.66 338.139 353.685C338.139 353.296 337.906 352.945 337.555 352.906C337.01 352.828 336.192 353.14 335.141 353.14C334.167 353.14 333.544 352.867 332.804 352.867C332.026 352.867 332.065 353.763 332.181 354.114C332.454 355.089 333.389 356.064 335.141 356.064Z" fill="#FF5C3E"/>
<path fill-rule="evenodd" clip-rule="evenodd" d="M335.18 355.244C336.932 355.244 338.217 353.958 338.217 353.022C338.217 352.671 337.984 352.359 337.633 352.32C337.088 352.242 336.231 352.554 335.18 352.554C334.167 352.554 333.583 352.281 332.804 352.281C332.026 352.281 332.065 353.139 332.181 353.451C332.454 354.348 333.427 355.244 335.18 355.244Z" fill="#FF5C3E"/>
<path fill-rule="evenodd" clip-rule="evenodd" d="M328.098 341.365C330.084 341.365 331.72 343.354 331.72 345.81C331.72 348.266 330.084 350.255 328.098 350.255C326.112 350.255 324.477 348.266 324.477 345.81C324.477 343.354 326.073 341.365 328.098 341.365ZM328.098 341.833C326.307 341.833 324.866 343.627 324.866 345.81C324.866 347.994 326.307 349.787 328.098 349.787C329.889 349.787 331.33 347.994 331.33 345.81C331.33 343.627 329.85 341.833 328.098 341.833Z" fill="#FF5C3E"/>
<path fill-rule="evenodd" clip-rule="evenodd" d="M342.079 341.365C344.065 341.365 345.7 343.354 345.7 345.81C345.7 348.266 344.065 350.255 342.079 350.255C340.093 350.255 338.457 348.266 338.457 345.81C338.457 343.354 340.093 341.365 342.079 341.365ZM342.079 341.833C340.287 341.833 338.846 343.627 338.846 345.81C338.846 347.994 340.287 349.787 342.079 349.787C343.87 349.787 345.311 347.994 345.311 345.81C345.311 343.627 343.87 341.833 342.079 341.833Z" fill="#FF5C3E"/>
<path fill-rule="evenodd" clip-rule="evenodd" d="M328.092 341.832C329.883 341.832 331.324 343.626 331.324 345.809C331.324 345.887 331.324 345.965 331.324 346.043V346.277C331.324 344.054 329.922 342.222 328.169 342.222C326.417 342.222 325.015 344.015 325.015 346.277C325.015 346.706 325.054 347.135 325.171 347.525C324.976 347.018 324.859 346.433 324.859 345.848C324.859 343.626 326.3 341.832 328.092 341.832Z" fill="#FF5C3E"/>
<path fill-rule="evenodd" clip-rule="evenodd" d="M342.082 341.832C343.873 341.832 345.314 343.626 345.314 345.809C345.314 345.887 345.314 345.965 345.314 346.043V346.277C345.314 344.054 343.912 342.222 342.16 342.222C340.407 342.222 339.005 344.015 339.005 346.277C339.005 346.706 339.044 347.135 339.161 347.525C338.966 347.018 338.85 346.433 338.85 345.848C338.85 343.626 340.29 341.832 342.082 341.832Z" fill="#FF5C3E"/>
<path d="M31.523 384V363.7H40.078C41.5667 363.7 42.9297 363.951 44.167 364.454C45.4043 364.937 46.4677 365.633 47.357 366.542C48.2463 367.431 48.9327 368.504 49.416 369.761C49.8993 370.998 50.141 372.361 50.141 373.85C50.141 375.358 49.8993 376.731 49.416 377.968C48.9327 379.205 48.2463 380.278 47.357 381.187C46.4677 382.076 45.4043 382.772 44.167 383.275C42.949 383.758 41.586 384 40.078 384H31.523ZM36.482 380.578L35.844 379.621H39.933C40.7257 379.621 41.441 379.486 42.079 379.215C42.717 378.944 43.2583 378.558 43.703 378.055C44.167 377.533 44.515 376.924 44.747 376.228C44.9983 375.513 45.124 374.72 45.124 373.85C45.124 372.98 44.9983 372.197 44.747 371.501C44.515 370.786 44.167 370.177 43.703 369.674C43.2583 369.152 42.717 368.756 42.079 368.485C41.441 368.214 40.7257 368.079 39.933 368.079H35.757L36.482 367.18V380.578ZM60.7974 384.29C59.096 384.29 57.6074 383.952 56.3314 383.275C55.0747 382.598 54.0984 381.67 53.4024 380.491C52.7257 379.292 52.3874 377.929 52.3874 376.402C52.3874 375.203 52.5807 374.111 52.9674 373.125C53.354 372.12 53.8954 371.259 54.5914 370.544C55.3067 369.829 56.138 369.278 57.0854 368.891C58.052 368.485 59.1057 368.282 60.2464 368.282C61.329 368.282 62.315 368.475 63.2044 368.862C64.0937 369.249 64.867 369.79 65.5244 370.486C66.1817 371.182 66.6844 372.004 67.0324 372.951C67.3804 373.898 67.5447 374.933 67.5254 376.054L67.4964 377.33H55.2584L54.5624 374.691H63.6974L63.2044 375.213V374.633C63.1657 374.15 63.011 373.734 62.7404 373.386C62.489 373.019 62.1507 372.729 61.7254 372.516C61.3194 372.303 60.8554 372.197 60.3334 372.197C59.56 372.197 58.9027 372.352 58.3614 372.661C57.8394 372.951 57.443 373.376 57.1724 373.937C56.9017 374.498 56.7664 375.194 56.7664 376.025C56.7664 376.856 56.9404 377.591 57.2884 378.229C57.6557 378.867 58.1777 379.36 58.8544 379.708C59.5504 380.056 60.372 380.23 61.3194 380.23C61.9574 380.23 62.5374 380.133 63.0594 379.94C63.5814 379.747 64.142 379.418 64.7414 378.954L66.9164 382.028C66.317 382.531 65.679 382.956 65.0024 383.304C64.3257 383.633 63.6297 383.874 62.9144 384.029C62.2184 384.203 61.5127 384.29 60.7974 384.29ZM70.9449 384V363.7H75.9039V384H70.9449ZM73.2649 376.228V372.081H83.8209V376.228H73.2649ZM73.2649 368.079V363.7H84.9809V368.079H73.2649ZM88.6686 384V368.601H93.3376V384H88.6686ZM91.0176 365.556C90.1283 365.556 89.4323 365.353 88.9296 364.947C88.4463 364.522 88.2046 363.922 88.2046 363.149C88.2046 362.434 88.456 361.854 88.9586 361.409C89.4613 360.964 90.1476 360.742 91.0176 360.742C91.8683 360.742 92.5353 360.955 93.0186 361.38C93.5213 361.786 93.7726 362.376 93.7726 363.149C93.7726 363.864 93.5213 364.444 93.0186 364.889C92.5353 365.334 91.8683 365.556 91.0176 365.556ZM31.523 420V399.7H35.96L43.326 411.677L40.194 411.648L47.647 399.7H51.939V420H47.125V413.852C47.125 412.073 47.1637 410.478 47.241 409.067C47.3377 407.636 47.4923 406.235 47.705 404.862L48.256 406.37L42.659 415.041H40.687L35.206 406.428L35.757 404.862C35.989 406.157 36.1437 407.501 36.221 408.893C36.3177 410.266 36.366 411.919 36.366 413.852V420H31.523ZM61.768 420.29C60.6466 420.29 59.68 420.048 58.868 419.565C58.056 419.062 57.4276 418.357 56.983 417.448C56.5576 416.52 56.345 415.408 56.345 414.113V404.601H61.014V413.417C61.014 414.364 61.2363 415.109 61.681 415.65C62.145 416.172 62.783 416.433 63.595 416.433C64.001 416.433 64.3683 416.375 64.697 416.259C65.0256 416.124 65.306 415.94 65.538 415.708C65.7893 415.457 65.9826 415.167 66.118 414.838C66.2533 414.509 66.321 414.152 66.321 413.765V404.601H70.99V420H66.611L66.437 416.839L67.278 416.491C67.0653 417.206 66.6786 417.854 66.118 418.434C65.5766 419.014 64.929 419.468 64.175 419.797C63.421 420.126 62.6186 420.29 61.768 420.29ZM75.1537 420V398.54H79.8227V420H75.1537ZM85.1524 420V400.715H89.8214V420H85.1524ZM82.4264 408.69V404.601H92.7794V408.69H82.4264ZM95.7204 420V404.601H100.389V420H95.7204ZM98.0694 401.556C97.1801 401.556 96.4841 401.353 95.9814 400.947C95.4981 400.522 95.2564 399.922 95.2564 399.149C95.2564 398.434 95.5077 397.854 96.0104 397.409C96.5131 396.964 97.1994 396.742 98.0694 396.742C98.9201 396.742 99.5871 396.955 100.07 397.38C100.573 397.786 100.824 398.376 100.824 399.149C100.824 399.864 100.573 400.444 100.07 400.889C99.5871 401.334 98.9201 401.556 98.0694 401.556ZM111.534 420.29C110.045 420.29 108.701 419.942 107.503 419.246C106.323 418.55 105.395 417.603 104.719 416.404C104.042 415.186 103.704 413.823 103.704 412.315C103.704 410.768 104.042 409.396 104.719 408.197C105.395 406.979 106.323 406.022 107.503 405.326C108.701 404.63 110.045 404.282 111.534 404.282C112.906 404.282 114.163 404.533 115.304 405.036C116.464 405.519 117.372 406.186 118.03 407.037L115.507 410.111C115.255 409.782 114.946 409.483 114.579 409.212C114.211 408.941 113.805 408.729 113.361 408.574C112.916 408.419 112.452 408.342 111.969 408.342C111.234 408.342 110.586 408.516 110.026 408.864C109.465 409.193 109.03 409.657 108.721 410.256C108.411 410.855 108.257 411.532 108.257 412.286C108.257 413.021 108.411 413.688 108.721 414.287C109.049 414.867 109.494 415.331 110.055 415.679C110.615 416.027 111.244 416.201 111.94 416.201C112.442 416.201 112.906 416.133 113.332 415.998C113.757 415.863 114.144 415.669 114.492 415.418C114.859 415.167 115.197 414.867 115.507 414.519L118.03 417.593C117.372 418.405 116.454 419.062 115.275 419.565C114.095 420.048 112.848 420.29 111.534 420.29ZM120.58 420V398.54H125.191V407.733L124.234 408.081C124.446 407.385 124.823 406.757 125.365 406.196C125.925 405.616 126.592 405.152 127.366 404.804C128.139 404.456 128.951 404.282 129.802 404.282C130.962 404.282 131.938 404.524 132.731 405.007C133.523 405.471 134.113 406.177 134.5 407.124C134.906 408.052 135.109 409.202 135.109 410.575V420H130.44V410.923C130.44 410.304 130.353 409.792 130.179 409.386C130.005 408.98 129.744 408.68 129.396 408.487C129.048 408.294 128.613 408.207 128.091 408.226C127.685 408.226 127.308 408.294 126.96 408.429C126.612 408.545 126.302 408.729 126.032 408.98C125.78 409.212 125.587 409.483 125.452 409.792C125.316 410.101 125.249 410.449 125.249 410.836V420H122.9C122.397 420 121.943 420 121.537 420C121.15 420 120.831 420 120.58 420ZM147.223 420V410.546C147.223 409.753 147.001 409.173 146.556 408.806C146.131 408.419 145.531 408.226 144.758 408.226C144.004 408.226 143.327 408.371 142.728 408.661C142.148 408.932 141.587 409.386 141.046 410.024L138.262 407.327C139.19 406.38 140.253 405.635 141.452 405.094C142.651 404.553 143.956 404.282 145.367 404.282C146.662 404.282 147.784 404.475 148.731 404.862C149.678 405.249 150.413 405.838 150.935 406.631C151.457 407.424 151.718 408.429 151.718 409.647V420H147.223ZM143.221 420.29C142.254 420.29 141.375 420.097 140.582 419.71C139.809 419.323 139.19 418.792 138.726 418.115C138.281 417.419 138.059 416.607 138.059 415.679C138.059 414.886 138.204 414.19 138.494 413.591C138.784 412.992 139.209 412.499 139.77 412.112C140.35 411.706 141.065 411.406 141.916 411.213C142.786 411 143.791 410.894 144.932 410.894H149.601L149.34 413.823H145.048C144.642 413.823 144.284 413.862 143.975 413.939C143.666 413.997 143.405 414.103 143.192 414.258C142.979 414.393 142.815 414.558 142.699 414.751C142.602 414.944 142.554 415.176 142.554 415.447C142.554 415.737 142.631 415.988 142.786 416.201C142.941 416.414 143.144 416.578 143.395 416.694C143.666 416.81 143.975 416.868 144.323 416.868C144.826 416.868 145.299 416.791 145.744 416.636C146.208 416.462 146.614 416.22 146.962 415.911C147.329 415.602 147.619 415.244 147.832 414.838L148.644 416.926C148.238 417.583 147.745 418.163 147.165 418.666C146.604 419.169 145.986 419.565 145.309 419.855C144.652 420.145 143.956 420.29 143.221 420.29ZM155.703 420V404.601H160.372V420H155.703ZM158.052 401.556C157.162 401.556 156.466 401.353 155.964 400.947C155.48 400.522 155.239 399.922 155.239 399.149C155.239 398.434 155.49 397.854 155.993 397.409C156.495 396.964 157.182 396.742 158.052 396.742C158.902 396.742 159.569 396.955 160.053 397.38C160.555 397.786 160.807 398.376 160.807 399.149C160.807 399.864 160.555 400.444 160.053 400.889C159.569 401.334 158.902 401.556 158.052 401.556ZM164.759 420V404.601H169.196L169.37 407.733L168.413 408.081C168.626 407.385 169.003 406.757 169.544 406.196C170.105 405.616 170.772 405.152 171.545 404.804C172.319 404.456 173.131 404.282 173.981 404.282C175.141 404.282 176.118 404.524 176.91 405.007C177.703 405.471 178.293 406.177 178.679 407.124C179.085 408.052 179.288 409.202 179.288 410.575V420H174.619V410.923C174.619 410.304 174.532 409.792 174.358 409.386C174.184 408.98 173.923 408.68 173.575 408.487C173.227 408.294 172.792 408.207 172.27 408.226C171.864 408.226 171.487 408.294 171.139 408.429C170.791 408.545 170.482 408.729 170.211 408.98C169.96 409.212 169.767 409.483 169.631 409.792C169.496 410.101 169.428 410.449 169.428 410.836V420H167.079C166.577 420 166.122 420 165.716 420C165.33 420 165.011 420 164.759 420ZM190.397 420L198.43 399.7H202.635L210.61 420H205.622L201.765 409.705C201.63 409.299 201.475 408.864 201.301 408.4C201.147 407.936 200.992 407.453 200.837 406.95C200.683 406.447 200.538 405.964 200.402 405.5C200.267 405.036 200.151 404.601 200.054 404.195L200.895 404.166C200.779 404.649 200.654 405.123 200.518 405.587C200.383 406.051 200.238 406.515 200.083 406.979C199.929 407.443 199.764 407.907 199.59 408.371C199.436 408.816 199.271 409.28 199.097 409.763L195.269 420H190.397ZM194.225 416.114L195.791 412.344H205.071L206.637 416.114H194.225ZM212.677 426.38V404.601H217.114L217.317 407.994L216.418 407.733C216.534 407.114 216.853 406.554 217.375 406.051C217.916 405.529 218.583 405.113 219.376 404.804C220.169 404.475 221.01 404.311 221.899 404.311C223.214 404.311 224.383 404.649 225.408 405.326C226.433 406.003 227.235 406.95 227.815 408.168C228.414 409.367 228.714 410.749 228.714 412.315C228.714 413.842 228.414 415.205 227.815 416.404C227.235 417.603 226.423 418.55 225.379 419.246C224.354 419.923 223.185 420.261 221.87 420.261C220.981 420.261 220.14 420.097 219.347 419.768C218.554 419.42 217.887 418.975 217.346 418.434C216.805 417.893 216.457 417.303 216.302 416.665L217.375 416.23V426.38H212.677ZM220.739 416.317C221.435 416.317 222.034 416.153 222.537 415.824C223.059 415.495 223.455 415.031 223.726 414.432C224.016 413.813 224.161 413.108 224.161 412.315C224.161 411.503 224.016 410.797 223.726 410.198C223.455 409.579 223.059 409.106 222.537 408.777C222.034 408.429 221.435 408.255 220.739 408.255C220.024 408.255 219.405 408.429 218.883 408.777C218.361 409.106 217.955 409.57 217.665 410.169C217.375 410.768 217.23 411.484 217.23 412.315C217.23 413.108 217.375 413.813 217.665 414.432C217.955 415.031 218.361 415.495 218.883 415.824C219.405 416.153 220.024 416.317 220.739 416.317ZM231.765 426.38V404.601H236.202L236.405 407.994L235.506 407.733C235.622 407.114 235.941 406.554 236.463 406.051C237.004 405.529 237.671 405.113 238.464 404.804C239.257 404.475 240.098 404.311 240.987 404.311C242.302 404.311 243.471 404.649 244.496 405.326C245.521 406.003 246.323 406.95 246.903 408.168C247.502 409.367 247.802 410.749 247.802 412.315C247.802 413.842 247.502 415.205 246.903 416.404C246.323 417.603 245.511 418.55 244.467 419.246C243.442 419.923 242.273 420.261 240.958 420.261C240.069 420.261 239.228 420.097 238.435 419.768C237.642 419.42 236.975 418.975 236.434 418.434C235.893 417.893 235.545 417.303 235.39 416.665L236.463 416.23V426.38H231.765ZM239.827 416.317C240.523 416.317 241.122 416.153 241.625 415.824C242.147 415.495 242.543 415.031 242.814 414.432C243.104 413.813 243.249 413.108 243.249 412.315C243.249 411.503 243.104 410.797 242.814 410.198C242.543 409.579 242.147 409.106 241.625 408.777C241.122 408.429 240.523 408.255 239.827 408.255C239.112 408.255 238.493 408.429 237.971 408.777C237.449 409.106 237.043 409.57 236.753 410.169C236.463 410.768 236.318 411.484 236.318 412.315C236.318 413.108 236.463 413.813 236.753 414.432C237.043 415.031 237.449 415.495 237.971 415.824C238.493 416.153 239.112 416.317 239.827 416.317Z" fill="white"/>
<rect x="29" y="34" width="100" height="38" rx="4" fill="#FD8069"/>
<path d="M62.568 59V47.8H66.952C67.752 47.8 68.472 47.9333 69.112 48.2C69.7627 48.4667 70.3173 48.8507 70.776 49.352C71.2347 49.8533 71.5867 50.4453 71.832 51.128C72.0773 51.8107 72.2 52.568 72.2 53.4C72.2 54.232 72.0773 54.9947 71.832 55.688C71.5867 56.3707 71.2347 56.9627 70.776 57.464C70.328 57.9547 69.7787 58.3333 69.128 58.6C68.4773 58.8667 67.752 59 66.952 59H62.568ZM64.296 57.512L64.248 57.336H66.872C67.4373 57.336 67.9387 57.2453 68.376 57.064C68.824 56.8827 69.1973 56.6267 69.496 56.296C69.8053 55.9547 70.04 55.5387 70.2 55.048C70.36 54.5573 70.44 54.008 70.44 53.4C70.44 52.792 70.36 52.248 70.2 51.768C70.04 51.2773 69.8053 50.8613 69.496 50.52C69.1867 50.1787 68.8133 49.9173 68.376 49.736C67.9387 49.5547 67.4373 49.464 66.872 49.464H64.2L64.296 49.32V57.512ZM78.0408 59.16C77.1768 59.16 76.4088 58.9787 75.7368 58.616C75.0754 58.2427 74.5528 57.736 74.1688 57.096C73.7954 56.456 73.6088 55.72 73.6088 54.888C73.6088 54.2267 73.7154 53.624 73.9288 53.08C74.1421 52.536 74.4354 52.0667 74.8088 51.672C75.1928 51.2667 75.6461 50.9573 76.1688 50.744C76.7021 50.52 77.2781 50.408 77.8968 50.408C78.4408 50.408 78.9474 50.5147 79.4168 50.728C79.8861 50.9307 80.2914 51.2133 80.6328 51.576C80.9848 51.9387 81.2514 52.3707 81.4328 52.872C81.6248 53.3627 81.7154 53.9013 81.7048 54.488L81.6888 55.192H74.8248L74.4568 53.88H80.2648L80.0248 54.152V53.768C79.9928 53.416 79.8754 53.1013 79.6728 52.824C79.4701 52.5467 79.2141 52.328 78.9048 52.168C78.5954 52.008 78.2594 51.928 77.8968 51.928C77.3208 51.928 76.8354 52.04 76.4408 52.264C76.0461 52.4773 75.7474 52.7973 75.5448 53.224C75.3421 53.64 75.2408 54.1573 75.2408 54.776C75.2408 55.3627 75.3634 55.8747 75.6088 56.312C75.8541 56.7387 76.2008 57.0693 76.6488 57.304C77.0968 57.5387 77.6141 57.656 78.2008 57.656C78.6168 57.656 79.0008 57.5867 79.3528 57.448C79.7154 57.3093 80.1048 57.0587 80.5208 56.696L81.3528 57.864C81.0968 58.12 80.7821 58.344 80.4088 58.536C80.0461 58.728 79.6568 58.8827 79.2408 59C78.8354 59.1067 78.4354 59.16 78.0408 59.16ZM83.9118 59V47.8H85.6398V59H83.9118ZM84.6798 54.232V52.568H90.4558V54.232H84.6798ZM84.6798 49.464V47.8H91.1758V49.464H84.6798ZM93.3928 59V50.6H95.0408V59H93.3928ZM94.1928 48.744C93.8408 48.744 93.5688 48.6533 93.3768 48.472C93.1848 48.2907 93.0888 48.0347 93.0888 47.704C93.0888 47.3947 93.1848 47.144 93.3768 46.952C93.5794 46.76 93.8514 46.664 94.1928 46.664C94.5448 46.664 94.8168 46.7547 95.0088 46.936C95.2008 47.1173 95.2968 47.3733 95.2968 47.704C95.2968 48.0133 95.1954 48.264 94.9928 48.456C94.8008 48.648 94.5341 48.744 94.1928 48.744Z" fill="white"/>
</svg>
