<svg width="419" height="574" fill="none" xmlns="http://www.w3.org/2000/svg"><rect width="419" height="574" rx="10" fill="#FF5C3E"/><path d="M155.537 192.31v4.924c-.094.056-.085.148-.091.238-.014.312-.022.625-.051.937a52.773 52.773 0 0 1-.522 4.056 43.957 43.957 0 0 1-3.527 11.237 43.333 43.333 0 0 1-3.667 6.397c-1.714 2.476-3.633 4.779-5.814 6.86a50.526 50.526 0 0 1-2.097 1.912 42.557 42.557 0 0 1-3.875 2.956 44.988 44.988 0 0 1-5.853 3.361 45.453 45.453 0 0 1-4.888 1.991 43.704 43.704 0 0 1-6.253 1.622 42.756 42.756 0 0 1-3.319.476c-.719.074-1.436.149-2.159.171-.077.002-.149.013-.193.089h-4.925c-.044-.076-.116-.089-.193-.089-.223.004-.446-.026-.669-.038a38.642 38.642 0 0 1-4.016-.472 44.613 44.613 0 0 1-7.236-1.831 45.408 45.408 0 0 1-6.57-2.878 43.926 43.926 0 0 1-4.731-2.93 43.606 43.606 0 0 1-6.294-5.414 54.059 54.059 0 0 1-1.883-2.063 43.19 43.19 0 0 1-3.1-4.073 45.039 45.039 0 0 1-3.054-5.284 45.062 45.062 0 0 1-2.249-5.455 42.773 42.773 0 0 1-1.456-5.513 43.089 43.089 0 0 1-.59-3.912c-.072-.719-.155-1.436-.174-2.159-.001-.077-.012-.149-.088-.194v-4.924c.076-.044.088-.116.088-.194.002-.418.056-.831.085-1.248.08-1.078.218-2.149.39-3.217a44.35 44.35 0 0 1 1.937-7.669 45.583 45.583 0 0 1 2.286-5.367c.933-1.857 2-3.63 3.178-5.34 1.468-2.129 3.133-4.094 4.928-5.951.53-.546 1.096-1.053 1.652-1.571a41.057 41.057 0 0 1 3.01-2.531 44.566 44.566 0 0 1 6.319-4.054 44.924 44.924 0 0 1 6.611-2.843 43.475 43.475 0 0 1 5.533-1.466 43.456 43.456 0 0 1 3.934-.595c.719-.072 1.436-.155 2.159-.174.077-.001.149-.012.193-.088h4.925c.05.085.131.087.215.088.799.019 1.592.102 2.382.192 1.691.194 3.365.481 5.024.859a44.102 44.102 0 0 1 9.775 3.49 44.697 44.697 0 0 1 5.618 3.323 45.813 45.813 0 0 1 6.013 4.99 43.714 43.714 0 0 1 2.55 2.755 45.445 45.445 0 0 1 3.116 4.089 45.004 45.004 0 0 1 3.552 6.335 43.296 43.296 0 0 1 1.805 4.576 43.056 43.056 0 0 1 1.389 5.276c.256 1.318.47 2.642.604 3.979.072.719.153 1.436.174 2.159.005.085.016.156.092.199Zm-28.63 20.922c.089-.043.135-.065.181-.089 1.252-.677 2.5-1.362 3.759-2.026.658-.347.957-.868.957-1.608-.006-8.825-.004-17.653-.002-26.478 0-1.569-.669-2.742-2.033-3.529-3.258-1.884-6.51-3.779-9.764-5.671-3.236-1.879-6.469-3.761-9.707-5.638-1.405-.815-2.929.063-2.929 1.683 0 3.522.002 7.043-.006 10.564 0 .19.063.286.221.382 5.8 3.474 11.599 6.951 17.397 10.43.269.162.527.339.752.56.815.793 1.178 1.764 1.176 2.896-.005 6.066-.003 12.132-.002 18.197v.327Zm-3.751-7.781c0-2.946.001-5.894-.002-8.84 0-.252-.009-.509-.052-.758-.21-1.251-.905-2.149-1.998-2.785-4.646-2.699-9.285-5.411-13.925-8.12-1.855-1.082-3.709-2.161-5.56-3.245-.439-.256-.904-.35-1.398-.245-.901.19-1.491.94-1.493 1.89-.002 3.715.002 7.43-.008 11.145 0 .254.089.38.293.501 5.638 3.367 11.272 6.739 16.908 10.107 1.317.787 1.973 1.936 1.971 3.474-.005 3.244-.002 6.489-.002 9.734 0 .059.002.12 0 .179-.005.116.052.125.139.083.06-.03.119-.063.177-.094 1.331-.749 2.656-1.51 3.996-2.242.662-.361.961-.88.959-1.63-.013-3.051-.005-6.102-.005-9.154Zm-9.019 9.346c0-1.47.005-2.939-.002-4.408-.008-1.483-.664-2.605-1.941-3.35-6.52-3.805-13.042-7.607-19.563-11.411-1.374-.8-2.915.061-2.922 1.651-.011 2.865-.011 5.728 0 8.593.007 1.736.776 3.064 2.253 3.969 4.555 2.793 9.116 5.579 13.674 8.368 1.665 1.02 3.331 2.038 4.996 3.061.511.313 1.056.448 1.646.339 1.118-.205 1.851-1.097 1.855-2.269.009-1.514.004-3.028.004-4.543Z" fill="#fff"/><path d="M126.902 213.231v-.326c0-6.066-.004-12.131.001-18.197.002-1.132-.361-2.104-1.176-2.896a4.111 4.111 0 0 0-.752-.561c-5.798-3.477-11.596-6.956-17.396-10.429-.161-.096-.223-.192-.222-.382.006-3.521.004-7.043.006-10.564 0-1.619 1.523-2.498 2.929-1.683 3.238 1.876 6.472 3.757 9.707 5.637 3.254 1.892 6.506 3.787 9.764 5.672 1.364.789 2.033 1.959 2.033 3.528-.001 8.826-.001 17.653.002 26.479 0 .739-.298 1.261-.957 1.607-1.259.664-2.507 1.35-3.759 2.027-.044.024-.092.046-.18.088Z" fill="#FF5C3E"/><path d="M123.16 205.451c0 3.051-.008 6.102.005 9.153.004.749-.296 1.269-.958 1.63-1.341.732-2.666 1.493-3.997 2.242a5.053 5.053 0 0 1-.177.094c-.087.042-.144.033-.139-.083.004-.059 0-.12 0-.179 0-3.245-.003-6.489.002-9.734.002-1.538-.654-2.686-1.971-3.474-5.635-3.368-11.269-6.74-16.907-10.107-.205-.121-.293-.247-.293-.501.01-3.715.005-7.43.007-11.145 0-.949.59-1.7 1.493-1.89.494-.105.959-.011 1.398.246 1.853 1.084 3.707 2.164 5.56 3.244 4.64 2.709 9.279 5.421 13.925 8.12 1.093.634 1.786 1.534 1.998 2.786.043.248.05.505.052.757.004 2.946.002 5.894.002 8.841Z" fill="#FF5C3E"/><path d="M114.13 214.796c0 1.513.006 3.029-.002 4.542-.005 1.171-.737 2.065-1.854 2.27-.59.107-1.136-.026-1.647-.339-1.662-1.024-3.329-2.041-4.996-3.061-4.559-2.789-9.118-5.575-13.674-8.368-1.476-.905-2.245-2.233-2.253-3.97-.013-2.865-.01-5.728 0-8.593.006-1.589 1.549-2.452 2.922-1.65 6.521 3.804 13.044 7.603 19.563 11.411 1.278.744 1.934 1.867 1.941 3.349.008 1.47 0 2.939 0 4.409Z" fill="#FF5C3E"/><ellipse cx="304.982" cy="93.005" rx="43.982" ry="43.849" fill="#FF5C3E"/><path d="M275.191 60.568a49130.03 49130.03 0 0 0-8.256-13.455 9.77 9.77 0 0 0 .15-.113c.409.478.833.945 1.227 1.436 2.942 3.639 5.805 7.343 8.835 10.906 3.125 3.675 6.413 7.216 9.631 10.814 2.206 2.467 4.418 4.927 6.617 7.4.939 1.057.899 2.169-.072 3.235-1.125 1.233-2.619 1.606-4.189 1.76-1.888.186-3.07 1.226-3.371 3.104-.117.734-.18 1.478-.222 2.22-.095 1.7-.66 3.25-1.406 4.76-.422.852-.847 1.716-1.132 2.62-.86 2.732.061 5.205 2.551 7.027.649.475 1.339.897 1.977 1.387 1.866 1.435 1.974 3.623.236 5.219-1.764 1.621-3.96 2.374-6.217 3.019-.748.214-1.092.07-1.426-.641-.412-.884-1.014-1.679-1.525-2.518-1.415-2.325-2.177-4.843-1.415-7.499.379-1.321 1.241-2.563 2.099-3.677 1.75-2.27 3.635-4.451 4.54-7.219.413-1.26.59-2.602.808-3.918.261-1.583.683-3.05 1.878-4.244.793-.793.858-1.808.308-2.806-2.13-3.858-4.212-7.743-6.435-11.546-.786-1.344-1.923-2.485-3.08-3.625.095.212.176.432.29.635 2.713 4.895 5.427 9.79 8.142 14.684.586 1.055.544 1.4-.279 2.284-1.266 1.357-1.754 3.053-1.875 4.82-.243 3.54-1.981 6.354-4.094 9.039-1.027 1.306-2.163 2.599-2.866 4.078-1.462 3.076-.746 6.104.793 8.98.631 1.179 1.365 2.303 2.021 3.472.186.328.261.718.404 1.128 2.783.624 5.563.956 8.174-.747.182-.119.455-.169.676-.151 2.93.242 5.52 1.2 7.503 3.491.602.696 1.249 1.375 1.973 1.934 1.515 1.166 3.478 1.183 4.929.147 1.501-1.072 1.777-3.315.447-4.593.119.433.23.746.288 1.069a2.49 2.49 0 0 1-3.068 2.876c-1.528-.367-2.536-1.695-2.489-3.278.039-1.393 1.033-2.46 2.61-2.728 1.738-.295 3.275.307 4.344 1.585.995 1.188 1.693 2.631 2.462 3.995.496.879.819 1.856 1.338 2.719 1.972 3.27 5.218 4.002 8.43 1.901 1.962-1.283 4.123-2.298 5.689-4.13.128-.149.348-.226.532-.321 5.345-2.807 7.724-8.984 5.608-14.621-.759-2.022-2.149-3.591-3.926-4.752-1.895-1.236-3.869-2.36-5.859-3.443-1.427-.777-2.709-1.627-3.127-3.334-.016.013.04-.052.063-.041 3.322 1.475 6.686 2.868 9.948 4.467 2.001.982 3.569 2.504 4.029 4.845.079.399.112.807.198 1.445.776-.929 1.134-1.847 1.358-2.807 1.002-4.275.241-8.114-3.02-11.233-1.952-1.868-4.391-2.863-7.006-3.379-2.545-.501-5.116-.87-7.672-1.32-.555-.098-1.101-.267-1.636-.452-1.92-.66-3.58-1.578-3.616-3.94.53.324 1.117.738 1.752 1.06 2.448 1.234 5.097 1.62 7.794 1.804 1.577.108 3.16.187 4.73.372 1.977.233 3.538 1.193 4.584 2.92.061.1.14.19.214.28.015.018.053.016.343.1-.28-1.032-.406-1.99-.788-2.833-2.972-6.576-8.014-10.574-15.203-11.575-2.181-.304-4.456-.018-6.682.097-.69.036-1.15-.047-1.611-.6-2.043-2.446-4.436-4.453-7.587-5.282-1.28-.336-2.648-.356-3.978-.492-.424-.043-.788.059-.707.636.016.118-.076.259-.141.379-.171.322-.492.629-.512.956-.18 2.962.664 5.641 2.364 8.064.151.213.295.433.535.783-1.161-.386-2.133-.753-2.882-1.588-3.683-4.103-7.382-8.193-11.081-12.284-.818-.904-1.654-1.791-2.484-2.688 13.415-11.433 37.681-14.423 55.669.667 18.616 15.616 21.111 43.175 5.676 61.683-15.715 18.85-43.247 21.193-61.732 6.11-10.34-8.437-15.845-19.466-16.266-32.795-.42-13.3 4.555-24.493 14.166-33.744Z" fill="#fff"/><path d="M330.801 97.214c-2.864-3.525-6.949-4.697-10.741-6.395-2.09-.935-4.15-1.965-6.116-3.131-1.545-.915-2.623-2.322-3.061-4.126.063-.038.124-.1.155-.088 2.833 1.127 5.856 1.353 8.823 1.847 2.425.403 4.784.994 6.863 2.41 3.098 2.112 4.529 5.318 4.077 9.483ZM305.572 72.402c5.608-2.557 17.478 2.468 19.457 8.114-3.389-.365-6.797-.654-10.181-1.118-2.767-.379-5.029-1.78-6.801-3.94-.827-1.005-1.638-2.02-2.475-3.056ZM325.908 113.51c-.114-.877-.16-1.703-.333-2.501-.615-2.834-2.279-5.144-3.862-7.491-1.281-1.899-2.649-3.76-3.26-6.014-.182-.673-.226-1.383-.334-2.074l.211-.159c1.622.917 3.264 1.8 4.862 2.759 2.076 1.247 3.951 2.733 4.771 5.127 1.253 3.661.6 7.029-1.745 10.087-.065.086-.168.146-.31.266ZM297.476 115.849c-1.876-2.239-3.98-3.675-6.921-4.178.614-.442 1.042-.778 1.496-1.073 2.758-1.786 5.725-2.942 9.067-2.899 3.726.047 6.428 1.808 7.536 4.946.296.836.453 1.723.613 2.599.231 1.252.406 2.516.53 3.824-.416-.929-.854-1.849-1.247-2.787-.839-2.006-1.861-3.871-3.784-5.066-1.036-.644-2.154-.989-3.394-.946-2.956.104-4.617 2.331-3.896 5.58ZM291.844 66.09c3.035-.056 5.663 2.077 6.543 5.265.213.773.42 1.55.595 2.331.366 1.64 1.211 3.023 2.251 4.31.141.174.263.365.418.58-4.688.419-10.694-6.043-9.807-12.486ZM298.619 104.35c1.711-1.118 3.412-1.685 5.193-2.029 1.404-.271 2.827-.454 4.235-.71a11.02 11.02 0 0 0 1.726-.456c3.773-1.333 5.395-4.532 4.411-8.664-.039-.169-.085-.336-.144-.573 1.525 1.405 2.003 4.518 1.045 6.683-1.263 2.861-3.68 4.135-6.609 4.534-2.066.281-4.166.304-6.241.527-1.141.122-2.264.424-3.616.688ZM296.258 88.993c-1.628.007-2.347-.861-2.037-2.457.286-1.477 1.386-2.536 2.745-2.644a3.204 3.204 0 0 1 3.268 2.117c.276.777.134 1.513-.559 1.873-1.056.548-2.213.904-3.327 1.342a11.274 11.274 0 0 1-.09-.231Zm.786-2.218c.53-.083 1.269-.054 1.393-.918.074-.516-.611-1.106-1.211-1.059-.676.052-1.093.444-1.154 1.13-.052.604.278.867.972.847Z" fill="#fff"/><circle cx="335.768" cy="354.768" r="44.768" fill="#fff"/><path fill-rule="evenodd" clip-rule="evenodd" d="M335.068 328.187c10.437 0 18.887 8.46 18.887 18.91v24.407h-37.773v-24.407c0-10.45 8.45-18.91 18.886-18.91Zm-7.554 13.841a3.924 3.924 0 0 0-3.933 3.938 3.925 3.925 0 0 0 3.933 3.938 3.925 3.925 0 0 0 3.933-3.938 3.925 3.925 0 0 0-3.933-3.938Zm13.941 0a3.924 3.924 0 0 0-3.933 3.938 3.925 3.925 0 0 0 3.933 3.938 3.925 3.925 0 0 0 3.933-3.938 3.925 3.925 0 0 0-3.933-3.938Z" fill="#FF5C3E"/><path fill-rule="evenodd" clip-rule="evenodd" d="M335.068 330.723c10.437 0 18.887 6.511 18.887 22.925v19.261h-37.773v-26.162c0-9.981 8.45-16.024 18.886-16.024Zm-7.554 11.307a3.924 3.924 0 0 0-3.933 3.937 3.924 3.924 0 0 0 3.933 3.938 3.925 3.925 0 0 0 3.933-3.938 3.924 3.924 0 0 0-3.933-3.937Zm13.941 0a3.924 3.924 0 0 0-3.933 3.937 3.924 3.924 0 0 0 3.933 3.938 3.925 3.925 0 0 0 3.933-3.938 3.924 3.924 0 0 0-3.933-3.937Z" fill="#FF5C3E"/><path fill-rule="evenodd" clip-rule="evenodd" d="M335.067 332.553c10.436 0 18.887 6.277 18.887 22.107v26.708a2.137 2.137 0 0 1-2.142 2.144 2.137 2.137 0 0 1-2.142-2.144v-6.005c0-1.091-.935-1.949-2.103-1.988h-.039c-1.168 0-2.142.858-2.142 1.949v2.691c0 1.13-.895 2.027-2.024 2.027a2.012 2.012 0 0 1-2.025-2.027v-2.652c0-1.091-.935-1.949-2.103-1.988h-.039c-1.168 0-2.142.858-2.142 1.949v.546a2.013 2.013 0 0 1-2.025 2.028 2.013 2.013 0 0 1-2.025-2.028v-.507c0-1.091-.935-1.949-2.103-1.988h-.039c-1.168 0-2.141.858-2.141 1.949v2.691c0 1.13-.896 2.027-2.025 2.027a2.012 2.012 0 0 1-2.025-2.027v-2.652c0-1.091-.935-1.949-2.103-1.988h-.039c-1.168 0-2.142.858-2.142 1.949v6.161c0 1.13-.896 2.027-2.025 2.027a2.013 2.013 0 0 1-2.025-2.027v-33.453c-.156-9.631 8.295-15.479 18.731-15.479Zm-7.555 9.474a3.925 3.925 0 0 0-3.933 3.938 3.925 3.925 0 0 0 3.933 3.938 3.924 3.924 0 0 0 3.933-3.938 3.925 3.925 0 0 0-3.933-3.938Zm13.941 0a3.925 3.925 0 0 0-3.933 3.938 3.925 3.925 0 0 0 3.933 3.938 3.924 3.924 0 0 0 3.933-3.938 3.925 3.925 0 0 0-3.933-3.938Z" fill="#FF5C3E"/><path opacity=".256" fill-rule="evenodd" clip-rule="evenodd" d="M318.2 351.461c.545 0 1.012.468 1.012 1.014v4.562c0 .546-.467 1.014-1.012 1.014a1.031 1.031 0 0 1-1.012-1.014v-4.562c0-.546.428-1.014 1.012-1.014ZM352.671 358.052c.545 0 1.012.468 1.012 1.013v8.539c0 .546-.467 1.014-1.012 1.014a1.032 1.032 0 0 1-1.013-1.014v-8.539c0-.545.468-1.013 1.013-1.013ZM352.671 353.647c.545 0 1.012.468 1.012 1.014v.936c0 .545-.467 1.013-1.012 1.013a1.032 1.032 0 0 1-1.013-1.013v-.936c0-.585.468-1.014 1.013-1.014Z" fill="#FF5C3E"/><path fill-rule="evenodd" clip-rule="evenodd" d="M335.141 356.064c1.713 0 2.998-1.404 2.998-2.379 0-.389-.233-.74-.584-.779-.545-.078-1.363.234-2.414.234-.974 0-1.597-.273-2.337-.273-.778 0-.739.896-.623 1.247.273.975 1.208 1.95 2.96 1.95Z" fill="#FF5C3E"/><path fill-rule="evenodd" clip-rule="evenodd" d="M335.18 355.244c1.752 0 3.037-1.286 3.037-2.222 0-.351-.233-.663-.584-.702-.545-.078-1.402.234-2.453.234-1.013 0-1.597-.273-2.376-.273-.778 0-.739.858-.623 1.17.273.897 1.246 1.793 2.999 1.793ZM328.098 341.365c1.986 0 3.622 1.989 3.622 4.445 0 2.456-1.636 4.445-3.622 4.445s-3.621-1.989-3.621-4.445c0-2.456 1.596-4.445 3.621-4.445Zm0 .468c-1.791 0-3.232 1.794-3.232 3.977 0 2.184 1.441 3.977 3.232 3.977 1.791 0 3.232-1.793 3.232-3.977 0-2.183-1.48-3.977-3.232-3.977ZM342.079 341.365c1.986 0 3.621 1.989 3.621 4.445 0 2.456-1.635 4.445-3.621 4.445s-3.622-1.989-3.622-4.445c0-2.456 1.636-4.445 3.622-4.445Zm0 .468c-1.792 0-3.232 1.794-3.232 3.977 0 2.184 1.44 3.977 3.232 3.977 1.791 0 3.232-1.793 3.232-3.977 0-2.183-1.441-3.977-3.232-3.977Z" fill="#FF5C3E"/><path fill-rule="evenodd" clip-rule="evenodd" d="M328.092 341.832c1.791 0 3.232 1.794 3.232 3.977v.468c0-2.223-1.402-4.055-3.155-4.055-1.752 0-3.154 1.793-3.154 4.055 0 .429.039.858.156 1.248a4.746 4.746 0 0 1-.312-1.677c0-2.222 1.441-4.016 3.233-4.016ZM342.082 341.832c1.791 0 3.232 1.794 3.232 3.977v.468c0-2.223-1.402-4.055-3.154-4.055-1.753 0-3.155 1.793-3.155 4.055 0 .429.039.858.156 1.248a4.745 4.745 0 0 1-.311-1.677c0-2.222 1.44-4.016 3.232-4.016Z" fill="#FF5C3E"/><path d="M31.523 384v-20.3h8.555c1.489 0 2.852.251 4.089.754a8.959 8.959 0 0 1 3.19 2.088c.89.889 1.576 1.962 2.059 3.219.483 1.237.725 2.6.725 4.089 0 1.508-.242 2.881-.725 4.118a9.478 9.478 0 0 1-2.059 3.219c-.89.889-1.953 1.585-3.19 2.088-1.218.483-2.581.725-4.089.725h-8.555Zm4.959-3.422-.638-.957h4.089c.793 0 1.508-.135 2.146-.406a4.465 4.465 0 0 0 1.624-1.16 5.182 5.182 0 0 0 1.044-1.827c.251-.715.377-1.508.377-2.378 0-.87-.126-1.653-.377-2.349a4.868 4.868 0 0 0-1.044-1.827 4.323 4.323 0 0 0-1.624-1.189c-.638-.271-1.353-.406-2.146-.406h-4.176l.725-.899v13.398Zm24.315 3.712c-1.701 0-3.19-.338-4.466-1.015-1.256-.677-2.233-1.605-2.929-2.784-.676-1.199-1.015-2.562-1.015-4.089 0-1.199.194-2.291.58-3.277.387-1.005.928-1.866 1.624-2.581a7.505 7.505 0 0 1 2.494-1.653c.967-.406 2.02-.609 3.161-.609 1.083 0 2.069.193 2.958.58a6.996 6.996 0 0 1 3.828 4.089c.348.947.513 1.982.493 3.103l-.029 1.276H55.258l-.696-2.639h9.135l-.493.522v-.58a2.28 2.28 0 0 0-.464-1.247 2.631 2.631 0 0 0-1.015-.87c-.406-.213-.87-.319-1.392-.319-.773 0-1.43.155-1.972.464a2.82 2.82 0 0 0-1.189 1.276c-.27.561-.406 1.257-.406 2.088 0 .831.174 1.566.522 2.204.368.638.89 1.131 1.566 1.479.696.348 1.518.522 2.465.522.638 0 1.218-.097 1.74-.29.522-.193 1.083-.522 1.682-.986l2.175 3.074a10.3 10.3 0 0 1-1.914 1.276 9.231 9.231 0 0 1-2.088.725 8.696 8.696 0 0 1-2.117.261Zm10.148-.29v-20.3h4.959V384h-4.96Zm2.32-7.772v-4.147H83.82v4.147H73.265Zm0-8.149V363.7H84.98v4.379H73.265ZM88.669 384v-15.399h4.669V384h-4.67Zm2.349-18.444c-.89 0-1.586-.203-2.088-.609-.484-.425-.725-1.025-.725-1.798 0-.715.251-1.295.754-1.74.502-.445 1.189-.667 2.059-.667.85 0 1.517.213 2 .638.503.406.755.996.755 1.769 0 .715-.252 1.295-.754 1.74-.484.445-1.15.667-2.001.667ZM31.523 420v-20.3h4.437l7.366 11.977-3.132-.029 7.453-11.948h4.292V420h-4.814v-6.148c0-1.779.039-3.374.116-4.785.097-1.431.251-2.832.464-4.205l.551 1.508-5.597 8.671h-1.972l-5.481-8.613.551-1.566a33.33 33.33 0 0 1 .464 4.031c.097 1.373.145 3.026.145 4.959V420h-4.843Zm30.245.29c-1.121 0-2.088-.242-2.9-.725-.812-.503-1.44-1.208-1.885-2.117-.425-.928-.638-2.04-.638-3.335v-9.512h4.669v8.816c0 .947.222 1.692.667 2.233.464.522 1.102.783 1.914.783.406 0 .773-.058 1.102-.174.329-.135.609-.319.841-.551.251-.251.445-.541.58-.87.135-.329.203-.686.203-1.073v-9.164h4.669V420h-4.379l-.174-3.161.841-.348a4.707 4.707 0 0 1-1.16 1.943 5.793 5.793 0 0 1-1.943 1.363 5.953 5.953 0 0 1-2.407.493Zm13.386-.29v-21.46h4.669V420h-4.67Zm9.998 0v-19.285h4.67V420h-4.67Zm-2.726-11.31v-4.089H92.78v4.089H82.426ZM95.72 420v-15.399h4.669V420H95.72Zm2.35-18.444c-.89 0-1.586-.203-2.089-.609-.483-.425-.725-1.025-.725-1.798 0-.715.252-1.295.754-1.74.503-.445 1.19-.667 2.06-.667.85 0 1.517.213 2 .638.503.406.754.996.754 1.769 0 .715-.251 1.295-.754 1.74-.483.445-1.15.667-2 .667Zm13.464 18.734c-1.489 0-2.833-.348-4.031-1.044a7.543 7.543 0 0 1-2.784-2.842c-.677-1.218-1.015-2.581-1.015-4.089 0-1.547.338-2.919 1.015-4.118a7.487 7.487 0 0 1 2.784-2.871c1.198-.696 2.542-1.044 4.031-1.044 1.372 0 2.629.251 3.77.754 1.16.483 2.068 1.15 2.726 2.001l-2.523 3.074a4.593 4.593 0 0 0-.928-.899 4.592 4.592 0 0 0-1.218-.638 4.201 4.201 0 0 0-1.392-.232c-.735 0-1.383.174-1.943.522a3.362 3.362 0 0 0-1.305 1.392c-.31.599-.464 1.276-.464 2.03 0 .735.154 1.402.464 2.001a3.83 3.83 0 0 0 1.334 1.392 3.5 3.5 0 0 0 1.885.522c.502 0 .966-.068 1.392-.203a4.083 4.083 0 0 0 1.16-.58 5.57 5.57 0 0 0 1.015-.899l2.523 3.074c-.658.812-1.576 1.469-2.755 1.972a9.78 9.78 0 0 1-3.741.725Zm9.046-.29v-21.46h4.611v9.193l-.957.348a4.635 4.635 0 0 1 1.131-1.885 6.392 6.392 0 0 1 2.001-1.392 5.868 5.868 0 0 1 2.436-.522c1.16 0 2.136.242 2.929.725.792.464 1.382 1.17 1.769 2.117.406.928.609 2.078.609 3.451V420h-4.669v-9.077c0-.619-.087-1.131-.261-1.537-.174-.406-.435-.706-.783-.899-.348-.193-.783-.28-1.305-.261a3.1 3.1 0 0 0-1.131.203 2.52 2.52 0 0 0-.928.551 2.398 2.398 0 0 0-.58.812 2.566 2.566 0 0 0-.203 1.044V420H120.58Zm26.643 0v-9.454c0-.793-.222-1.373-.667-1.74-.425-.387-1.025-.58-1.798-.58-.754 0-1.431.145-2.03.435-.58.271-1.141.725-1.682 1.363l-2.784-2.697a10.448 10.448 0 0 1 3.19-2.233c1.199-.541 2.504-.812 3.915-.812 1.295 0 2.417.193 3.364.58.947.387 1.682.976 2.204 1.769.522.793.783 1.798.783 3.016V420h-4.495Zm-4.002.29c-.967 0-1.846-.193-2.639-.58a4.816 4.816 0 0 1-1.856-1.595c-.445-.696-.667-1.508-.667-2.436 0-.793.145-1.489.435-2.088a3.765 3.765 0 0 1 1.276-1.479c.58-.406 1.295-.706 2.146-.899.87-.213 1.875-.319 3.016-.319h4.669l-.261 2.929h-4.292c-.406 0-.764.039-1.073.116a1.91 1.91 0 0 0-.783.319c-.213.135-.377.3-.493.493a1.535 1.535 0 0 0-.145.696c0 .29.077.541.232.754.155.213.358.377.609.493.271.116.58.174.928.174.503 0 .976-.077 1.421-.232.464-.174.87-.416 1.218-.725.367-.309.657-.667.87-1.073l.812 2.088a7.526 7.526 0 0 1-1.479 1.74 6.74 6.74 0 0 1-1.856 1.189 5.114 5.114 0 0 1-2.088.435Zm12.482-.29v-15.399h4.669V420h-4.669Zm2.349-18.444c-.89 0-1.586-.203-2.088-.609-.484-.425-.725-1.025-.725-1.798 0-.715.251-1.295.754-1.74.502-.445 1.189-.667 2.059-.667.85 0 1.517.213 2.001.638.502.406.754.996.754 1.769 0 .715-.252 1.295-.754 1.74-.484.445-1.151.667-2.001.667ZM164.759 420v-15.399h4.437l.174 3.132-.957.348a4.657 4.657 0 0 1 1.131-1.885 6.415 6.415 0 0 1 2.001-1.392 5.875 5.875 0 0 1 2.436-.522c1.16 0 2.137.242 2.929.725.793.464 1.383 1.17 1.769 2.117.406.928.609 2.078.609 3.451V420h-4.669v-9.077c0-.619-.087-1.131-.261-1.537-.174-.406-.435-.706-.783-.899-.348-.193-.783-.28-1.305-.261a3.1 3.1 0 0 0-1.131.203 2.528 2.528 0 0 0-1.508 1.363 2.582 2.582 0 0 0-.203 1.044V420H164.759Zm25.638 0 8.033-20.3h4.205l7.975 20.3h-4.988l-3.857-10.295c-.135-.406-.29-.841-.464-1.305a70.64 70.64 0 0 1-.464-1.45 126.54 126.54 0 0 1-.435-1.45 27.894 27.894 0 0 1-.348-1.305l.841-.029a29.77 29.77 0 0 1-.377 1.421 38.56 38.56 0 0 1-.928 2.784c-.154.445-.319.909-.493 1.392L195.269 420h-4.872Zm3.828-3.886 1.566-3.77h9.28l1.566 3.77h-12.412Zm18.452 10.266v-21.779h4.437l.203 3.393-.899-.261c.116-.619.435-1.179.957-1.682.541-.522 1.208-.938 2.001-1.247a6.518 6.518 0 0 1 2.523-.493c1.315 0 2.484.338 3.509 1.015 1.025.677 1.827 1.624 2.407 2.842.599 1.199.899 2.581.899 4.147 0 1.527-.3 2.89-.899 4.089-.58 1.199-1.392 2.146-2.436 2.842-1.025.677-2.194 1.015-3.509 1.015-.889 0-1.73-.164-2.523-.493-.793-.348-1.46-.793-2.001-1.334-.541-.541-.889-1.131-1.044-1.769l1.073-.435v10.15h-4.698Zm8.062-10.063c.696 0 1.295-.164 1.798-.493a3.118 3.118 0 0 0 1.189-1.392c.29-.619.435-1.324.435-2.117 0-.812-.145-1.518-.435-2.117-.271-.619-.667-1.092-1.189-1.421-.503-.348-1.102-.522-1.798-.522-.715 0-1.334.174-1.856.522a3.3 3.3 0 0 0-1.218 1.392c-.29.599-.435 1.315-.435 2.146 0 .793.145 1.498.435 2.117a3.3 3.3 0 0 0 1.218 1.392c.522.329 1.141.493 1.856.493Zm11.026 10.063v-21.779h4.437l.203 3.393-.899-.261c.116-.619.435-1.179.957-1.682.541-.522 1.208-.938 2.001-1.247a6.518 6.518 0 0 1 2.523-.493c1.315 0 2.484.338 3.509 1.015 1.025.677 1.827 1.624 2.407 2.842.599 1.199.899 2.581.899 4.147 0 1.527-.3 2.89-.899 4.089-.58 1.199-1.392 2.146-2.436 2.842-1.025.677-2.194 1.015-3.509 1.015-.889 0-1.73-.164-2.523-.493-.793-.348-1.46-.793-2.001-1.334-.541-.541-.889-1.131-1.044-1.769l1.073-.435v10.15h-4.698Zm8.062-10.063c.696 0 1.295-.164 1.798-.493a3.118 3.118 0 0 0 1.189-1.392c.29-.619.435-1.324.435-2.117 0-.812-.145-1.518-.435-2.117-.271-.619-.667-1.092-1.189-1.421-.503-.348-1.102-.522-1.798-.522-.715 0-1.334.174-1.856.522a3.3 3.3 0 0 0-1.218 1.392c-.29.599-.435 1.315-.435 2.146 0 .793.145 1.498.435 2.117a3.3 3.3 0 0 0 1.218 1.392c.522.329 1.141.493 1.856.493ZM335 490.211h47v3.5h-47v-3.5Z" fill="#fff"/><path d="m360.305 480 21.471 9.626-1.432 3.194-21.471-9.626 1.432-3.194Z" fill="#fff"/><rect x="29" y="34" width="100" height="38" rx="4" fill="#FD8069"/><path d="M62.568 59V47.8h4.384c.8 0 1.52.133 2.16.4.65.267 1.205.65 1.664 1.152.459.501.81 1.093 1.056 1.776.245.683.368 1.44.368 2.272 0 .832-.123 1.595-.368 2.288a5.204 5.204 0 0 1-1.056 1.776c-.448.49-.997.87-1.648 1.136-.65.267-1.376.4-2.176.4h-4.384Zm1.728-1.488-.048-.176h2.624c.565 0 1.067-.09 1.504-.272a2.998 2.998 0 0 0 1.12-.768 3.4 3.4 0 0 0 .704-1.248 5.3 5.3 0 0 0 .24-1.648c0-.608-.08-1.152-.24-1.632a3.4 3.4 0 0 0-.704-1.248 3.085 3.085 0 0 0-1.12-.784c-.437-.181-.939-.272-1.504-.272H64.2l.096-.144v8.192Zm13.745 1.648c-.864 0-1.632-.181-2.304-.544a4.206 4.206 0 0 1-1.568-1.52c-.374-.64-.56-1.376-.56-2.208 0-.661.106-1.264.32-1.808a4.315 4.315 0 0 1 .88-1.408 3.86 3.86 0 0 1 1.36-.928 4.417 4.417 0 0 1 1.728-.336c.544 0 1.05.107 1.52.32.47.203.874.485 1.216.848.352.363.618.795.8 1.296.192.49.282 1.03.272 1.616l-.016.704h-6.864l-.368-1.312h5.808l-.24.272v-.384a1.854 1.854 0 0 0-.352-.944 2.176 2.176 0 0 0-1.776-.896c-.576 0-1.062.112-1.456.336a2.063 2.063 0 0 0-.896.96c-.203.416-.304.933-.304 1.552 0 .587.122 1.099.368 1.536.245.427.592.757 1.04.992.448.235.965.352 1.552.352.416 0 .8-.07 1.152-.208.362-.139.752-.39 1.168-.752l.832 1.168c-.256.256-.57.48-.944.672A5.925 5.925 0 0 1 79.24 59a4.7 4.7 0 0 1-1.2.16Zm5.87-.16V47.8h1.729V59h-1.728Zm.769-4.768v-1.664h5.776v1.664H84.68Zm0-4.768V47.8h6.496v1.664H84.68ZM93.393 59v-8.4h1.648V59h-1.648Zm.8-10.256c-.352 0-.624-.09-.816-.272-.192-.181-.288-.437-.288-.768 0-.31.096-.56.288-.752.202-.192.474-.288.816-.288.352 0 .624.09.816.272.192.181.288.437.288.768 0 .31-.102.56-.304.752-.192.192-.459.288-.8.288Z" fill="#fff"/><path d="M29.704 337.552c0-2.048.384-3.877 1.152-5.488.779-1.611 1.803-2.907 3.072-3.888h1.424v.144c-2.827 2.293-4.24 5.371-4.24 9.232 0 3.872 1.413 6.955 4.24 9.248v.144h-1.424c-1.27-.992-2.293-2.288-3.072-3.888-.768-1.6-1.152-3.435-1.152-5.504Zm11.581-4.944c1.376 0 2.512.341 3.408 1.024.896.672 1.515 1.595 1.856 2.768h-1.536a3.712 3.712 0 0 0-1.392-1.776c-.64-.448-1.424-.672-2.352-.672-.736 0-1.397.181-1.984.544-.576.352-1.035.864-1.376 1.536-.33.661-.496 1.44-.496 2.336 0 .885.165 1.659.496 2.32.341.661.8 1.173 1.376 1.536.587.352 1.248.528 1.984.528.928 0 1.712-.219 2.352-.656a3.806 3.806 0 0 0 1.392-1.792h1.536c-.341 1.173-.96 2.101-1.856 2.784-.896.672-2.032 1.008-3.408 1.008-1.056 0-1.99-.24-2.8-.72a5.145 5.145 0 0 1-1.904-2.032c-.448-.875-.672-1.867-.672-2.976 0-1.12.224-2.117.672-2.992.459-.875 1.093-1.552 1.904-2.032.81-.491 1.744-.736 2.8-.736Zm11.195 2.496c.843 0 1.595.181 2.256.544a3.829 3.829 0 0 1 1.568 1.568c.384.683.576 1.483.576 2.4 0 .917-.192 1.717-.576 2.4a3.856 3.856 0 0 1-1.568 1.552c-.661.363-1.413.544-2.256.544-.842 0-1.6-.181-2.272-.544a3.99 3.99 0 0 1-1.568-1.552c-.384-.683-.576-1.483-.576-2.4 0-.917.192-1.717.576-2.4a3.96 3.96 0 0 1 1.568-1.568c.672-.363 1.43-.544 2.272-.544Zm0 1.28c-.522 0-1.008.117-1.456.352-.437.235-.794.597-1.072 1.088-.267.48-.4 1.077-.4 1.792 0 .704.133 1.301.4 1.792.278.48.635.837 1.072 1.072.448.235.934.352 1.456.352.523 0 1.003-.117 1.44-.352a2.596 2.596 0 0 0 1.072-1.072c.278-.491.416-1.088.416-1.792 0-.715-.139-1.312-.416-1.792-.267-.491-.624-.853-1.072-1.088a2.993 2.993 0 0 0-1.44-.352Zm10.921-1.312c1.024 0 1.851.331 2.48.992.63.651.944 1.595.944 2.832V344H65.37v-4.976c0-.875-.224-1.547-.672-2.016-.448-.469-1.056-.704-1.824-.704-.8 0-1.44.261-1.92.784-.48.512-.72 1.264-.72 2.256V344h-1.456v-8.784h1.456v2.08c.224-.715.619-1.264 1.184-1.648.576-.384 1.238-.576 1.984-.576Zm9.546-1.936c-.779-.011-1.323.123-1.632.4-.299.277-.448.757-.448 1.44v.24h2.08v1.28h-2.08V344H69.41v-7.504h-1.264v-1.28h1.264v-.352c0-2.101 1.178-3.104 3.536-3.008v1.28Zm1.324-.496c0-.267.091-.48.272-.64.182-.171.422-.256.72-.256.299 0 .539.085.72.256a.81.81 0 0 1 .272.64c0 .267-.09.485-.272.656-.181.16-.421.24-.72.24-.298 0-.538-.08-.72-.24a.86.86 0 0 1-.272-.656Zm1.712 2.576V344h-1.456v-8.784h1.456Zm5.941-.112c.854 0 1.574.213 2.16.64a3.32 3.32 0 0 1 1.248 1.712v-5.296h1.456V344h-1.456v-2.24a3.32 3.32 0 0 1-1.248 1.712c-.586.427-1.306.64-2.16.64-.778 0-1.472-.181-2.08-.544-.608-.363-1.088-.88-1.44-1.552-.341-.683-.512-1.483-.512-2.4 0-.917.17-1.717.512-2.4.352-.683.832-1.205 1.44-1.568s1.302-.544 2.08-.544Zm.416 1.296c-.896 0-1.616.288-2.16.864-.533.565-.8 1.349-.8 2.352s.267 1.792.8 2.368c.544.565 1.264.848 2.16.848.576 0 1.088-.133 1.536-.4.459-.267.816-.64 1.072-1.12.256-.491.384-1.056.384-1.696 0-.64-.128-1.205-.384-1.696a2.651 2.651 0 0 0-1.072-1.12c-.448-.267-.96-.4-1.536-.4Zm14.846 2.72c0 .309-.022.576-.065.8h-7.023c.031 1.003.314 1.755.847 2.256.545.501 1.206.752 1.985.752.703 0 1.29-.176 1.76-.528.48-.363.773-.843.88-1.44h1.552a3.644 3.644 0 0 1-.72 1.632c-.363.48-.838.853-1.424 1.12-.587.267-1.248.4-1.984.4-.843 0-1.59-.181-2.24-.544a3.912 3.912 0 0 1-1.537-1.552c-.362-.683-.543-1.483-.543-2.4 0-.917.18-1.717.543-2.4a3.883 3.883 0 0 1 1.537-1.568c.65-.363 1.397-.544 2.24-.544.853 0 1.594.181 2.224.544.64.363 1.125.848 1.456 1.456.34.608.511 1.28.511 2.016Zm-1.473.096c.033-.651-.074-1.195-.32-1.632a2.339 2.339 0 0 0-1.008-.976 3.073 3.073 0 0 0-1.392-.32c-.8 0-1.471.251-2.015.752-.544.491-.838 1.216-.88 2.176h5.615Zm8.001-4.144c1.024 0 1.851.331 2.48.992.629.651.944 1.595.944 2.832V344h-1.456v-4.976c0-.875-.224-1.547-.672-2.016-.448-.469-1.056-.704-1.824-.704-.8 0-1.44.261-1.92.784-.48.512-.72 1.264-.72 2.256V344H99.09v-8.784h1.456v2.08c.224-.715.619-1.264 1.184-1.648.576-.384 1.237-.576 1.984-.576Zm9.849 7.648V344h-1.088c-.896 0-1.568-.213-2.016-.64-.437-.427-.656-1.141-.656-2.144v-4.736h-1.312v-1.264h1.312v-2.192h1.472v2.192h2.272v1.264h-2.272v4.768c0 .565.101.955.304 1.168.213.203.576.304 1.088.304h.896Zm1.521-10.08c0-.267.091-.48.272-.64.181-.171.421-.256.72-.256s.539.085.72.256c.181.16.272.373.272.64a.862.862 0 0 1-.272.656c-.181.16-.421.24-.72.24s-.539-.08-.72-.24a.862.862 0 0 1-.272-.656Zm1.712 2.576V344h-1.456v-8.784h1.456Zm5.941-.112c.853 0 1.573.213 2.16.64a3.324 3.324 0 0 1 1.248 1.712v-2.24h1.456V344h-1.456v-2.24a3.324 3.324 0 0 1-1.248 1.712c-.587.427-1.307.64-2.16.64-.779 0-1.472-.181-2.08-.544-.608-.363-1.088-.88-1.44-1.552-.342-.683-.512-1.483-.512-2.4 0-.917.17-1.717.512-2.4.352-.683.832-1.205 1.44-1.568s1.301-.544 2.08-.544Zm.416 1.296c-.896 0-1.616.288-2.16.864-.534.565-.8 1.349-.8 2.352s.266 1.792.8 2.368c.544.565 1.264.848 2.16.848.576 0 1.088-.133 1.536-.4.458-.267.816-.64 1.072-1.12.256-.491.384-1.056.384-1.696 0-.64-.128-1.205-.384-1.696a2.655 2.655 0 0 0-1.072-1.12c-.448-.267-.96-.4-1.536-.4Zm8.221-4.24V344h-1.456v-11.84h1.456Zm6.613 5.392c0 2.059-.389 3.893-1.168 5.504-.768 1.6-1.787 2.896-3.056 3.888h-1.424v-.144c2.816-2.304 4.224-5.387 4.224-9.248 0-1.888-.352-3.605-1.056-5.152-.693-1.557-1.749-2.917-3.168-4.08v-.144h1.424c1.269.981 2.288 2.277 3.056 3.888.779 1.611 1.168 3.44 1.168 5.488Z" fill="#fff" fill-opacity=".41"/><path d="M31.001 494v-16.1h3.933v12.627h7.176V494H31.001Zm19.04.23c-1.35 0-2.53-.268-3.542-.805-.997-.537-1.771-1.273-2.323-2.208-.537-.951-.805-2.032-.805-3.243 0-.951.153-1.817.46-2.599a5.964 5.964 0 0 1 1.288-2.047 5.954 5.954 0 0 1 1.978-1.311 6.409 6.409 0 0 1 2.507-.483c.858 0 1.64.153 2.346.46a5.55 5.55 0 0 1 3.036 3.243c.276.751.406 1.572.39 2.461l-.022 1.012h-9.706l-.552-2.093h7.245l-.391.414v-.46a1.809 1.809 0 0 0-.368-.989 2.088 2.088 0 0 0-.805-.69 2.34 2.34 0 0 0-1.104-.253c-.614 0-1.135.123-1.564.368-.414.23-.729.567-.943 1.012-.215.445-.322.997-.322 1.656 0 .659.138 1.242.414 1.748a2.96 2.96 0 0 0 1.242 1.173c.552.276 1.203.414 1.955.414.506 0 .966-.077 1.38-.23.414-.153.858-.414 1.334-.782l1.725 2.438a8.166 8.166 0 0 1-1.518 1.012 7.322 7.322 0 0 1-1.656.575 6.897 6.897 0 0 1-1.68.207ZM64.23 494v-7.498c0-.629-.176-1.089-.53-1.38-.336-.307-.812-.46-1.425-.46-.598 0-1.135.115-1.61.345-.46.215-.905.575-1.334 1.081l-2.208-2.139a8.29 8.29 0 0 1 2.53-1.771c.95-.429 1.986-.644 3.105-.644 1.027 0 1.917.153 2.668.46.751.307 1.334.774 1.748 1.403.414.629.62 1.426.62 2.392V494H64.23Zm-3.174.23c-.767 0-1.464-.153-2.093-.46a3.818 3.818 0 0 1-1.472-1.265c-.353-.552-.53-1.196-.53-1.932 0-.629.116-1.181.346-1.656.23-.475.567-.866 1.012-1.173.46-.322 1.027-.56 1.702-.713.69-.169 1.487-.253 2.392-.253h3.703l-.207 2.323h-3.404c-.322 0-.606.031-.851.092-.245.046-.452.13-.621.253a1.19 1.19 0 0 0-.391.391 1.22 1.22 0 0 0-.115.552c0 .23.061.429.184.598.123.169.284.299.483.391.215.092.46.138.736.138.399 0 .774-.061 1.127-.184.368-.138.69-.33.966-.575a2.81 2.81 0 0 0 .69-.851l.644 1.656a5.972 5.972 0 0 1-1.173 1.38 5.343 5.343 0 0 1-1.472.943 4.057 4.057 0 0 1-1.656.345Zm9.692-.23v-12.213h3.52l.16 3.979-.69-.782c.2-.644.506-1.227.92-1.748a4.76 4.76 0 0 1 1.472-1.242 3.849 3.849 0 0 1 1.817-.46c.276 0 .53.023.76.069.245.031.46.084.643.161l-.989 4.071a2.566 2.566 0 0 0-.69-.23 3.238 3.238 0 0 0-.874-.115 2.4 2.4 0 0 0-.943.184 2.108 2.108 0 0 0-.736.483c-.2.215-.36.468-.483.759a2.846 2.846 0 0 0-.16.989V494h-3.727Zm10.49 0v-12.213h3.519l.137 2.484-.759.276c.17-.552.468-1.05.897-1.495.445-.46.974-.828 1.588-1.104a4.656 4.656 0 0 1 1.931-.414c.92 0 1.695.192 2.323.575.63.368 1.097.928 1.404 1.679.322.736.482 1.648.482 2.737V494h-3.703v-7.199c0-.491-.069-.897-.207-1.219a1.425 1.425 0 0 0-.62-.713c-.276-.153-.621-.222-1.035-.207a2.46 2.46 0 0 0-.897.161 2.004 2.004 0 0 0-1.197 1.081 2.044 2.044 0 0 0-.16.828V494H81.237Zm21.943 0v-12.213h3.519l.115 2.208-.506.046c.169-.399.399-.751.69-1.058.292-.307.614-.56.966-.759a4.685 4.685 0 0 1 1.15-.483 4.042 4.042 0 0 1 1.196-.184c.614 0 1.158.092 1.633.276a3.04 3.04 0 0 1 1.265.897c.368.414.66.966.874 1.656l-.552-.092.161-.322a4.47 4.47 0 0 1 .782-.989 5.254 5.254 0 0 1 2.231-1.265 4.779 4.779 0 0 1 1.196-.161c.966 0 1.771.192 2.415.575.644.383 1.127.951 1.449 1.702.322.736.483 1.648.483 2.737V494h-3.703v-7.153c0-.721-.153-1.257-.46-1.61-.291-.368-.736-.552-1.334-.552a2.46 2.46 0 0 0-.897.161c-.26.092-.49.238-.69.437a2.097 2.097 0 0 0-.437.644 2.049 2.049 0 0 0-.161.828V494h-3.703v-7.176c0-.69-.161-1.219-.483-1.587-.306-.368-.743-.552-1.311-.552a2.4 2.4 0 0 0-.874.161c-.26.092-.49.238-.69.437a2.097 2.097 0 0 0-.437.644 2.049 2.049 0 0 0-.161.828V494h-3.726Zm27.874.23c-1.257 0-2.384-.268-3.381-.805a6.148 6.148 0 0 1-2.346-2.254c-.567-.966-.851-2.055-.851-3.266 0-1.242.284-2.338.851-3.289a5.937 5.937 0 0 1 2.346-2.254c.997-.552 2.124-.828 3.381-.828 1.273 0 2.4.276 3.381.828a5.924 5.924 0 0 1 2.346 2.254c.568.951.851 2.047.851 3.289 0 1.211-.283 2.3-.851 3.266a6.134 6.134 0 0 1-2.346 2.254c-.981.537-2.108.805-3.381.805Zm0-3.174c.552 0 1.035-.138 1.449-.414.43-.276.767-.652 1.012-1.127.246-.475.361-1.012.345-1.61.016-.629-.099-1.181-.345-1.656a2.678 2.678 0 0 0-1.012-1.127c-.414-.276-.897-.414-1.449-.414-.536 0-1.019.138-1.449.414a2.892 2.892 0 0 0-1.012 1.127c-.245.475-.368 1.027-.368 1.656 0 .598.123 1.135.368 1.61.246.475.583.851 1.012 1.127.43.276.913.414 1.449.414ZM140.04 494v-12.213h3.519l.161 3.979-.69-.782a5.32 5.32 0 0 1 .92-1.748 4.764 4.764 0 0 1 1.472-1.242 3.851 3.851 0 0 1 1.817-.46c.276 0 .529.023.759.069.246.031.46.084.644.161l-.989 4.071a2.551 2.551 0 0 0-.69-.23 3.236 3.236 0 0 0-.874-.115c-.337 0-.651.061-.943.184a2.11 2.11 0 0 0-.736.483 2.59 2.59 0 0 0-.483.759 2.853 2.853 0 0 0-.161.989V494h-3.726Zm15.792.23c-1.349 0-2.53-.268-3.542-.805-.997-.537-1.771-1.273-2.323-2.208-.537-.951-.805-2.032-.805-3.243 0-.951.153-1.817.46-2.599a5.97 5.97 0 0 1 1.288-2.047 5.955 5.955 0 0 1 1.978-1.311 6.409 6.409 0 0 1 2.507-.483c.859 0 1.641.153 2.346.46a5.548 5.548 0 0 1 3.036 3.243c.276.751.406 1.572.391 2.461l-.023 1.012h-9.706l-.552-2.093h7.245l-.391.414v-.46a1.808 1.808 0 0 0-.368-.989 2.087 2.087 0 0 0-.805-.69 2.34 2.34 0 0 0-1.104-.253c-.613 0-1.135.123-1.564.368-.414.23-.728.567-.943 1.012-.215.445-.322.997-.322 1.656 0 .659.138 1.242.414 1.748.291.506.705.897 1.242 1.173.552.276 1.204.414 1.955.414.506 0 .966-.077 1.38-.23.414-.153.859-.414 1.334-.782l1.725 2.438a8.14 8.14 0 0 1-1.518 1.012 7.332 7.332 0 0 1-1.656.575 6.899 6.899 0 0 1-1.679.207Z" fill="#fff"/></svg>