<svg width="526" height="511" viewBox="0 0 526 511" fill="none" xmlns="http://www.w3.org/2000/svg">
<path d="M13.4541 451.18C12.4941 451.18 11.6661 450.916 10.9701 450.388C10.2861 449.86 9.75812 449.116 9.38612 448.156C9.01412 447.184 8.82812 446.032 8.82812 444.7C8.82812 443.368 9.01412 442.222 9.38612 441.262C9.75812 440.29 10.2861 439.54 10.9701 439.012C11.6661 438.484 12.4941 438.22 13.4541 438.22C14.4141 438.22 15.2421 438.484 15.9381 439.012C16.6341 439.54 17.1681 440.29 17.5401 441.262C17.9121 442.222 18.0981 443.368 18.0981 444.7C18.0981 446.032 17.9121 447.184 17.5401 448.156C17.1681 449.116 16.6341 449.86 15.9381 450.388C15.2421 450.916 14.4141 451.18 13.4541 451.18ZM13.4541 449.416C14.3301 449.416 15.0081 449.008 15.4881 448.192C15.9681 447.364 16.2081 446.2 16.2081 444.7C16.2081 443.2 15.9681 442.042 15.4881 441.226C15.0081 440.398 14.3301 439.984 13.4541 439.984C12.5781 439.984 11.9001 440.398 11.4201 441.226C10.9401 442.042 10.7001 443.2 10.7001 444.7C10.7001 446.2 10.9401 447.364 11.4201 448.192C11.9001 449.008 12.5781 449.416 13.4541 449.416Z" fill="white" fill-opacity="0.36"/>
<path d="M63.4541 507.18C62.4941 507.18 61.6661 506.916 60.9701 506.388C60.2861 505.86 59.7581 505.116 59.3861 504.156C59.0141 503.184 58.8281 502.032 58.8281 500.7C58.8281 499.368 59.0141 498.222 59.3861 497.262C59.7581 496.29 60.2861 495.54 60.9701 495.012C61.6661 494.484 62.4941 494.22 63.4541 494.22C64.4141 494.22 65.2421 494.484 65.9381 495.012C66.6341 495.54 67.1681 496.29 67.5401 497.262C67.9121 498.222 68.0981 499.368 68.0981 500.7C68.0981 502.032 67.9121 503.184 67.5401 504.156C67.1681 505.116 66.6341 505.86 65.9381 506.388C65.2421 506.916 64.4141 507.18 63.4541 507.18ZM63.4541 505.416C64.3301 505.416 65.0081 505.008 65.4881 504.192C65.9681 503.364 66.2081 502.2 66.2081 500.7C66.2081 499.2 65.9681 498.042 65.4881 497.226C65.0081 496.398 64.3301 495.984 63.4541 495.984C62.5781 495.984 61.9001 496.398 61.4201 497.226C60.9401 498.042 60.7001 499.2 60.7001 500.7C60.7001 502.2 60.9401 503.364 61.4201 504.192C61.9001 505.008 62.5781 505.416 63.4541 505.416ZM72.5877 507L72.5157 506.82L76.2597 498.864L76.3137 500.358C76.0377 500.826 75.7137 501.234 75.3417 501.582C74.9697 501.918 74.5677 502.176 74.1357 502.356C73.7037 502.536 73.2657 502.626 72.8217 502.626C72.1377 502.626 71.5077 502.446 70.9317 502.086C70.3557 501.726 69.8937 501.246 69.5457 500.646C69.1977 500.046 69.0237 499.392 69.0237 498.684C69.0237 497.832 69.2157 497.07 69.5997 496.398C69.9837 495.714 70.5057 495.174 71.1657 494.778C71.8377 494.382 72.5877 494.184 73.4157 494.184C74.0157 494.184 74.5797 494.292 75.1077 494.508C75.6357 494.724 76.0977 495.03 76.4937 495.426C76.8897 495.81 77.2017 496.26 77.4297 496.776C77.6577 497.28 77.7717 497.82 77.7717 498.396C77.7717 498.696 77.7417 499.02 77.6817 499.368C77.6217 499.704 77.5197 500.088 77.3757 500.52C77.2437 500.94 77.0637 501.426 76.8357 501.978C76.6077 502.518 76.3257 503.148 75.9897 503.868L74.4957 507H72.5877ZM73.2357 500.826C73.7037 500.826 74.1237 500.724 74.4957 500.52C74.8677 500.304 75.1557 500.022 75.3597 499.674C75.5757 499.314 75.6837 498.912 75.6837 498.468C75.6837 498 75.5817 497.58 75.3777 497.208C75.1737 496.824 74.8857 496.524 74.5137 496.308C74.1537 496.092 73.7397 495.984 73.2717 495.984C72.8397 495.984 72.4557 496.092 72.1197 496.308C71.7837 496.512 71.5137 496.8 71.3097 497.172C71.1177 497.532 71.0217 497.958 71.0217 498.45C71.0217 498.87 71.1177 499.26 71.3097 499.62C71.5137 499.98 71.7837 500.274 72.1197 500.502C72.4557 500.718 72.8277 500.826 73.2357 500.826ZM77.3753 509.376L84.7913 494.4H86.5733L79.1753 509.376H77.3753ZM91.1783 507.18C90.2183 507.18 89.3903 506.916 88.6943 506.388C88.0103 505.86 87.4823 505.116 87.1103 504.156C86.7383 503.184 86.5523 502.032 86.5523 500.7C86.5523 499.368 86.7383 498.222 87.1103 497.262C87.4823 496.29 88.0103 495.54 88.6943 495.012C89.3903 494.484 90.2183 494.22 91.1783 494.22C92.1383 494.22 92.9663 494.484 93.6623 495.012C94.3583 495.54 94.8923 496.29 95.2643 497.262C95.6363 498.222 95.8223 499.368 95.8223 500.7C95.8223 502.032 95.6363 503.184 95.2643 504.156C94.8923 505.116 94.3583 505.86 93.6623 506.388C92.9663 506.916 92.1383 507.18 91.1783 507.18ZM91.1783 505.416C92.0543 505.416 92.7323 505.008 93.2123 504.192C93.6923 503.364 93.9323 502.2 93.9323 500.7C93.9323 499.2 93.6923 498.042 93.2123 497.226C92.7323 496.398 92.0543 495.984 91.1783 495.984C90.3023 495.984 89.6243 496.398 89.1443 497.226C88.6643 498.042 88.4243 499.2 88.4243 500.7C88.4243 502.2 88.6643 503.364 89.1443 504.192C89.6243 505.008 90.3023 505.416 91.1783 505.416ZM100.312 507L100.24 506.82L103.984 498.864L104.038 500.358C103.762 500.826 103.438 501.234 103.066 501.582C102.694 501.918 102.292 502.176 101.86 502.356C101.428 502.536 100.99 502.626 100.546 502.626C99.8619 502.626 99.2319 502.446 98.6559 502.086C98.0799 501.726 97.6179 501.246 97.2699 500.646C96.9219 500.046 96.7479 499.392 96.7479 498.684C96.7479 497.832 96.9399 497.07 97.3239 496.398C97.7079 495.714 98.2299 495.174 98.8899 494.778C99.5619 494.382 100.312 494.184 101.14 494.184C101.74 494.184 102.304 494.292 102.832 494.508C103.36 494.724 103.822 495.03 104.218 495.426C104.614 495.81 104.926 496.26 105.154 496.776C105.382 497.28 105.496 497.82 105.496 498.396C105.496 498.696 105.466 499.02 105.406 499.368C105.346 499.704 105.244 500.088 105.1 500.52C104.968 500.94 104.788 501.426 104.56 501.978C104.332 502.518 104.05 503.148 103.714 503.868L102.22 507H100.312ZM100.96 500.826C101.428 500.826 101.848 500.724 102.22 500.52C102.592 500.304 102.88 500.022 103.084 499.674C103.3 499.314 103.408 498.912 103.408 498.468C103.408 498 103.306 497.58 103.102 497.208C102.898 496.824 102.61 496.524 102.238 496.308C101.878 496.092 101.464 495.984 100.996 495.984C100.564 495.984 100.18 496.092 99.8439 496.308C99.5079 496.512 99.2379 496.8 99.0339 497.172C98.8419 497.532 98.7459 497.958 98.7459 498.45C98.7459 498.87 98.8419 499.26 99.0339 499.62C99.2379 499.98 99.5079 500.274 99.8439 500.502C100.18 500.718 100.552 500.826 100.96 500.826ZM105.099 509.376L112.515 494.4H114.297L106.899 509.376H105.099ZM115.474 507L114.88 505.524L118.732 501.186C118.936 500.97 119.146 500.724 119.362 500.448C119.59 500.16 119.806 499.866 120.01 499.566C120.214 499.266 120.376 498.972 120.496 498.684C120.628 498.384 120.694 498.102 120.694 497.838C120.694 497.454 120.616 497.13 120.46 496.866C120.316 496.59 120.1 496.38 119.812 496.236C119.536 496.092 119.2 496.02 118.804 496.02C118.456 496.02 118.114 496.122 117.778 496.326C117.442 496.53 117.136 496.818 116.86 497.19C116.584 497.562 116.368 497.994 116.212 498.486L114.718 497.55C114.922 496.854 115.228 496.26 115.636 495.768C116.056 495.264 116.554 494.88 117.13 494.616C117.718 494.352 118.354 494.22 119.038 494.22C119.746 494.22 120.376 494.37 120.928 494.67C121.48 494.958 121.912 495.366 122.224 495.894C122.536 496.41 122.692 497.01 122.692 497.694C122.692 498.042 122.644 498.402 122.548 498.774C122.452 499.134 122.296 499.512 122.08 499.908C121.876 500.304 121.612 500.724 121.288 501.168C120.964 501.6 120.574 502.062 120.118 502.554L117.256 505.668L116.896 505.128H123.088V507H115.474ZM128.665 507.18C127.705 507.18 126.877 506.916 126.181 506.388C125.497 505.86 124.969 505.116 124.597 504.156C124.225 503.184 124.039 502.032 124.039 500.7C124.039 499.368 124.225 498.222 124.597 497.262C124.969 496.29 125.497 495.54 126.181 495.012C126.877 494.484 127.705 494.22 128.665 494.22C129.625 494.22 130.453 494.484 131.149 495.012C131.845 495.54 132.379 496.29 132.751 497.262C133.123 498.222 133.309 499.368 133.309 500.7C133.309 502.032 133.123 503.184 132.751 504.156C132.379 505.116 131.845 505.86 131.149 506.388C130.453 506.916 129.625 507.18 128.665 507.18ZM128.665 505.416C129.541 505.416 130.219 505.008 130.699 504.192C131.179 503.364 131.419 502.2 131.419 500.7C131.419 499.2 131.179 498.042 130.699 497.226C130.219 496.398 129.541 495.984 128.665 495.984C127.789 495.984 127.111 496.398 126.631 497.226C126.151 498.042 125.911 499.2 125.911 500.7C125.911 502.2 126.151 503.364 126.631 504.192C127.111 505.008 127.789 505.416 128.665 505.416ZM135.369 507L134.775 505.524L138.627 501.186C138.831 500.97 139.041 500.724 139.257 500.448C139.485 500.16 139.701 499.866 139.905 499.566C140.109 499.266 140.271 498.972 140.391 498.684C140.523 498.384 140.589 498.102 140.589 497.838C140.589 497.454 140.511 497.13 140.355 496.866C140.211 496.59 139.995 496.38 139.707 496.236C139.431 496.092 139.095 496.02 138.699 496.02C138.351 496.02 138.009 496.122 137.673 496.326C137.337 496.53 137.031 496.818 136.755 497.19C136.479 497.562 136.263 497.994 136.107 498.486L134.613 497.55C134.817 496.854 135.123 496.26 135.531 495.768C135.951 495.264 136.449 494.88 137.025 494.616C137.613 494.352 138.249 494.22 138.933 494.22C139.641 494.22 140.271 494.37 140.823 494.67C141.375 494.958 141.807 495.366 142.119 495.894C142.431 496.41 142.587 497.01 142.587 497.694C142.587 498.042 142.539 498.402 142.443 498.774C142.347 499.134 142.191 499.512 141.975 499.908C141.771 500.304 141.507 500.724 141.183 501.168C140.859 501.6 140.469 502.062 140.013 502.554L137.151 505.668L136.791 505.128H142.983V507H135.369ZM148.56 507.18C147.6 507.18 146.772 506.916 146.076 506.388C145.392 505.86 144.864 505.116 144.492 504.156C144.12 503.184 143.934 502.032 143.934 500.7C143.934 499.368 144.12 498.222 144.492 497.262C144.864 496.29 145.392 495.54 146.076 495.012C146.772 494.484 147.6 494.22 148.56 494.22C149.52 494.22 150.348 494.484 151.044 495.012C151.74 495.54 152.274 496.29 152.646 497.262C153.018 498.222 153.204 499.368 153.204 500.7C153.204 502.032 153.018 503.184 152.646 504.156C152.274 505.116 151.74 505.86 151.044 506.388C150.348 506.916 149.52 507.18 148.56 507.18ZM148.56 505.416C149.436 505.416 150.114 505.008 150.594 504.192C151.074 503.364 151.314 502.2 151.314 500.7C151.314 499.2 151.074 498.042 150.594 497.226C150.114 496.398 149.436 495.984 148.56 495.984C147.684 495.984 147.006 496.398 146.526 497.226C146.046 498.042 145.806 499.2 145.806 500.7C145.806 502.2 146.046 503.364 146.526 504.192C147.006 505.008 147.684 505.416 148.56 505.416Z" fill="white" fill-opacity="0.36"/>
<path d="M434.454 507.18C433.494 507.18 432.666 506.916 431.97 506.388C431.286 505.86 430.758 505.116 430.386 504.156C430.014 503.184 429.828 502.032 429.828 500.7C429.828 499.368 430.014 498.222 430.386 497.262C430.758 496.29 431.286 495.54 431.97 495.012C432.666 494.484 433.494 494.22 434.454 494.22C435.414 494.22 436.242 494.484 436.938 495.012C437.634 495.54 438.168 496.29 438.54 497.262C438.912 498.222 439.098 499.368 439.098 500.7C439.098 502.032 438.912 503.184 438.54 504.156C438.168 505.116 437.634 505.86 436.938 506.388C436.242 506.916 435.414 507.18 434.454 507.18ZM434.454 505.416C435.33 505.416 436.008 505.008 436.488 504.192C436.968 503.364 437.208 502.2 437.208 500.7C437.208 499.2 436.968 498.042 436.488 497.226C436.008 496.398 435.33 495.984 434.454 495.984C433.578 495.984 432.9 496.398 432.42 497.226C431.94 498.042 431.7 499.2 431.7 500.7C431.7 502.2 431.94 503.364 432.42 504.192C432.9 505.008 433.578 505.416 434.454 505.416ZM443.588 507L443.516 506.82L447.26 498.864L447.314 500.358C447.038 500.826 446.714 501.234 446.342 501.582C445.97 501.918 445.568 502.176 445.136 502.356C444.704 502.536 444.266 502.626 443.822 502.626C443.138 502.626 442.508 502.446 441.932 502.086C441.356 501.726 440.894 501.246 440.546 500.646C440.198 500.046 440.024 499.392 440.024 498.684C440.024 497.832 440.216 497.07 440.6 496.398C440.984 495.714 441.506 495.174 442.166 494.778C442.838 494.382 443.588 494.184 444.416 494.184C445.016 494.184 445.58 494.292 446.108 494.508C446.636 494.724 447.098 495.03 447.494 495.426C447.89 495.81 448.202 496.26 448.43 496.776C448.658 497.28 448.772 497.82 448.772 498.396C448.772 498.696 448.742 499.02 448.682 499.368C448.622 499.704 448.52 500.088 448.376 500.52C448.244 500.94 448.064 501.426 447.836 501.978C447.608 502.518 447.326 503.148 446.99 503.868L445.496 507H443.588ZM444.236 500.826C444.704 500.826 445.124 500.724 445.496 500.52C445.868 500.304 446.156 500.022 446.36 499.674C446.576 499.314 446.684 498.912 446.684 498.468C446.684 498 446.582 497.58 446.378 497.208C446.174 496.824 445.886 496.524 445.514 496.308C445.154 496.092 444.74 495.984 444.272 495.984C443.84 495.984 443.456 496.092 443.12 496.308C442.784 496.512 442.514 496.8 442.31 497.172C442.118 497.532 442.022 497.958 442.022 498.45C442.022 498.87 442.118 499.26 442.31 499.62C442.514 499.98 442.784 500.274 443.12 500.502C443.456 500.718 443.828 500.826 444.236 500.826ZM448.375 509.376L455.791 494.4H457.573L450.175 509.376H448.375ZM462.178 507.18C461.218 507.18 460.39 506.916 459.694 506.388C459.01 505.86 458.482 505.116 458.11 504.156C457.738 503.184 457.552 502.032 457.552 500.7C457.552 499.368 457.738 498.222 458.11 497.262C458.482 496.29 459.01 495.54 459.694 495.012C460.39 494.484 461.218 494.22 462.178 494.22C463.138 494.22 463.966 494.484 464.662 495.012C465.358 495.54 465.892 496.29 466.264 497.262C466.636 498.222 466.822 499.368 466.822 500.7C466.822 502.032 466.636 503.184 466.264 504.156C465.892 505.116 465.358 505.86 464.662 506.388C463.966 506.916 463.138 507.18 462.178 507.18ZM462.178 505.416C463.054 505.416 463.732 505.008 464.212 504.192C464.692 503.364 464.932 502.2 464.932 500.7C464.932 499.2 464.692 498.042 464.212 497.226C463.732 496.398 463.054 495.984 462.178 495.984C461.302 495.984 460.624 496.398 460.144 497.226C459.664 498.042 459.424 499.2 459.424 500.7C459.424 502.2 459.664 503.364 460.144 504.192C460.624 505.008 461.302 505.416 462.178 505.416ZM471.312 507L471.24 506.82L474.984 498.864L475.038 500.358C474.762 500.826 474.438 501.234 474.066 501.582C473.694 501.918 473.292 502.176 472.86 502.356C472.428 502.536 471.99 502.626 471.546 502.626C470.862 502.626 470.232 502.446 469.656 502.086C469.08 501.726 468.618 501.246 468.27 500.646C467.922 500.046 467.748 499.392 467.748 498.684C467.748 497.832 467.94 497.07 468.324 496.398C468.708 495.714 469.23 495.174 469.89 494.778C470.562 494.382 471.312 494.184 472.14 494.184C472.74 494.184 473.304 494.292 473.832 494.508C474.36 494.724 474.822 495.03 475.218 495.426C475.614 495.81 475.926 496.26 476.154 496.776C476.382 497.28 476.496 497.82 476.496 498.396C476.496 498.696 476.466 499.02 476.406 499.368C476.346 499.704 476.244 500.088 476.1 500.52C475.968 500.94 475.788 501.426 475.56 501.978C475.332 502.518 475.05 503.148 474.714 503.868L473.22 507H471.312ZM471.96 500.826C472.428 500.826 472.848 500.724 473.22 500.52C473.592 500.304 473.88 500.022 474.084 499.674C474.3 499.314 474.408 498.912 474.408 498.468C474.408 498 474.306 497.58 474.102 497.208C473.898 496.824 473.61 496.524 473.238 496.308C472.878 496.092 472.464 495.984 471.996 495.984C471.564 495.984 471.18 496.092 470.844 496.308C470.508 496.512 470.238 496.8 470.034 497.172C469.842 497.532 469.746 497.958 469.746 498.45C469.746 498.87 469.842 499.26 470.034 499.62C470.238 499.98 470.508 500.274 470.844 500.502C471.18 500.718 471.552 500.826 471.96 500.826ZM476.099 509.376L483.515 494.4H485.297L477.899 509.376H476.099ZM486.474 507L485.88 505.524L489.732 501.186C489.936 500.97 490.146 500.724 490.362 500.448C490.59 500.16 490.806 499.866 491.01 499.566C491.214 499.266 491.376 498.972 491.496 498.684C491.628 498.384 491.694 498.102 491.694 497.838C491.694 497.454 491.616 497.13 491.46 496.866C491.316 496.59 491.1 496.38 490.812 496.236C490.536 496.092 490.2 496.02 489.804 496.02C489.456 496.02 489.114 496.122 488.778 496.326C488.442 496.53 488.136 496.818 487.86 497.19C487.584 497.562 487.368 497.994 487.212 498.486L485.718 497.55C485.922 496.854 486.228 496.26 486.636 495.768C487.056 495.264 487.554 494.88 488.13 494.616C488.718 494.352 489.354 494.22 490.038 494.22C490.746 494.22 491.376 494.37 491.928 494.67C492.48 494.958 492.912 495.366 493.224 495.894C493.536 496.41 493.692 497.01 493.692 497.694C493.692 498.042 493.644 498.402 493.548 498.774C493.452 499.134 493.296 499.512 493.08 499.908C492.876 500.304 492.612 500.724 492.288 501.168C491.964 501.6 491.574 502.062 491.118 502.554L488.256 505.668L487.896 505.128H494.088V507H486.474ZM499.665 507.18C498.705 507.18 497.877 506.916 497.181 506.388C496.497 505.86 495.969 505.116 495.597 504.156C495.225 503.184 495.039 502.032 495.039 500.7C495.039 499.368 495.225 498.222 495.597 497.262C495.969 496.29 496.497 495.54 497.181 495.012C497.877 494.484 498.705 494.22 499.665 494.22C500.625 494.22 501.453 494.484 502.149 495.012C502.845 495.54 503.379 496.29 503.751 497.262C504.123 498.222 504.309 499.368 504.309 500.7C504.309 502.032 504.123 503.184 503.751 504.156C503.379 505.116 502.845 505.86 502.149 506.388C501.453 506.916 500.625 507.18 499.665 507.18ZM499.665 505.416C500.541 505.416 501.219 505.008 501.699 504.192C502.179 503.364 502.419 502.2 502.419 500.7C502.419 499.2 502.179 498.042 501.699 497.226C501.219 496.398 500.541 495.984 499.665 495.984C498.789 495.984 498.111 496.398 497.631 497.226C497.151 498.042 496.911 499.2 496.911 500.7C496.911 502.2 497.151 503.364 497.631 504.192C498.111 505.008 498.789 505.416 499.665 505.416ZM506.369 507L505.775 505.524L509.627 501.186C509.831 500.97 510.041 500.724 510.257 500.448C510.485 500.16 510.701 499.866 510.905 499.566C511.109 499.266 511.271 498.972 511.391 498.684C511.523 498.384 511.589 498.102 511.589 497.838C511.589 497.454 511.511 497.13 511.355 496.866C511.211 496.59 510.995 496.38 510.707 496.236C510.431 496.092 510.095 496.02 509.699 496.02C509.351 496.02 509.009 496.122 508.673 496.326C508.337 496.53 508.031 496.818 507.755 497.19C507.479 497.562 507.263 497.994 507.107 498.486L505.613 497.55C505.817 496.854 506.123 496.26 506.531 495.768C506.951 495.264 507.449 494.88 508.025 494.616C508.613 494.352 509.249 494.22 509.933 494.22C510.641 494.22 511.271 494.37 511.823 494.67C512.375 494.958 512.807 495.366 513.119 495.894C513.431 496.41 513.587 497.01 513.587 497.694C513.587 498.042 513.539 498.402 513.443 498.774C513.347 499.134 513.191 499.512 512.975 499.908C512.771 500.304 512.507 500.724 512.183 501.168C511.859 501.6 511.469 502.062 511.013 502.554L508.151 505.668L507.791 505.128H513.983V507H506.369ZM519.56 507.18C518.6 507.18 517.772 506.916 517.076 506.388C516.392 505.86 515.864 505.116 515.492 504.156C515.12 503.184 514.934 502.032 514.934 500.7C514.934 499.368 515.12 498.222 515.492 497.262C515.864 496.29 516.392 495.54 517.076 495.012C517.772 494.484 518.6 494.22 519.56 494.22C520.52 494.22 521.348 494.484 522.044 495.012C522.74 495.54 523.274 496.29 523.646 497.262C524.018 498.222 524.204 499.368 524.204 500.7C524.204 502.032 524.018 503.184 523.646 504.156C523.274 505.116 522.74 505.86 522.044 506.388C521.348 506.916 520.52 507.18 519.56 507.18ZM519.56 505.416C520.436 505.416 521.114 505.008 521.594 504.192C522.074 503.364 522.314 502.2 522.314 500.7C522.314 499.2 522.074 498.042 521.594 497.226C521.114 496.398 520.436 495.984 519.56 495.984C518.684 495.984 518.006 496.398 517.526 497.226C517.046 498.042 516.806 499.2 516.806 500.7C516.806 502.2 517.046 503.364 517.526 504.192C518.006 505.008 518.684 505.416 519.56 505.416Z" fill="white" fill-opacity="0.36"/>
<path d="M248.454 507.18C247.494 507.18 246.666 506.916 245.97 506.388C245.286 505.86 244.758 505.116 244.386 504.156C244.014 503.184 243.828 502.032 243.828 500.7C243.828 499.368 244.014 498.222 244.386 497.262C244.758 496.29 245.286 495.54 245.97 495.012C246.666 494.484 247.494 494.22 248.454 494.22C249.414 494.22 250.242 494.484 250.938 495.012C251.634 495.54 252.168 496.29 252.54 497.262C252.912 498.222 253.098 499.368 253.098 500.7C253.098 502.032 252.912 503.184 252.54 504.156C252.168 505.116 251.634 505.86 250.938 506.388C250.242 506.916 249.414 507.18 248.454 507.18ZM248.454 505.416C249.33 505.416 250.008 505.008 250.488 504.192C250.968 503.364 251.208 502.2 251.208 500.7C251.208 499.2 250.968 498.042 250.488 497.226C250.008 496.398 249.33 495.984 248.454 495.984C247.578 495.984 246.9 496.398 246.42 497.226C245.94 498.042 245.7 499.2 245.7 500.7C245.7 502.2 245.94 503.364 246.42 504.192C246.9 505.008 247.578 505.416 248.454 505.416ZM257.588 507L257.516 506.82L261.26 498.864L261.314 500.358C261.038 500.826 260.714 501.234 260.342 501.582C259.97 501.918 259.568 502.176 259.136 502.356C258.704 502.536 258.266 502.626 257.822 502.626C257.138 502.626 256.508 502.446 255.932 502.086C255.356 501.726 254.894 501.246 254.546 500.646C254.198 500.046 254.024 499.392 254.024 498.684C254.024 497.832 254.216 497.07 254.6 496.398C254.984 495.714 255.506 495.174 256.166 494.778C256.838 494.382 257.588 494.184 258.416 494.184C259.016 494.184 259.58 494.292 260.108 494.508C260.636 494.724 261.098 495.03 261.494 495.426C261.89 495.81 262.202 496.26 262.43 496.776C262.658 497.28 262.772 497.82 262.772 498.396C262.772 498.696 262.742 499.02 262.682 499.368C262.622 499.704 262.52 500.088 262.376 500.52C262.244 500.94 262.064 501.426 261.836 501.978C261.608 502.518 261.326 503.148 260.99 503.868L259.496 507H257.588ZM258.236 500.826C258.704 500.826 259.124 500.724 259.496 500.52C259.868 500.304 260.156 500.022 260.36 499.674C260.576 499.314 260.684 498.912 260.684 498.468C260.684 498 260.582 497.58 260.378 497.208C260.174 496.824 259.886 496.524 259.514 496.308C259.154 496.092 258.74 495.984 258.272 495.984C257.84 495.984 257.456 496.092 257.12 496.308C256.784 496.512 256.514 496.8 256.31 497.172C256.118 497.532 256.022 497.958 256.022 498.45C256.022 498.87 256.118 499.26 256.31 499.62C256.514 499.98 256.784 500.274 257.12 500.502C257.456 500.718 257.828 500.826 258.236 500.826ZM262.375 509.376L269.791 494.4H271.573L264.175 509.376H262.375ZM276.178 507.18C275.218 507.18 274.39 506.916 273.694 506.388C273.01 505.86 272.482 505.116 272.11 504.156C271.738 503.184 271.552 502.032 271.552 500.7C271.552 499.368 271.738 498.222 272.11 497.262C272.482 496.29 273.01 495.54 273.694 495.012C274.39 494.484 275.218 494.22 276.178 494.22C277.138 494.22 277.966 494.484 278.662 495.012C279.358 495.54 279.892 496.29 280.264 497.262C280.636 498.222 280.822 499.368 280.822 500.7C280.822 502.032 280.636 503.184 280.264 504.156C279.892 505.116 279.358 505.86 278.662 506.388C277.966 506.916 277.138 507.18 276.178 507.18ZM276.178 505.416C277.054 505.416 277.732 505.008 278.212 504.192C278.692 503.364 278.932 502.2 278.932 500.7C278.932 499.2 278.692 498.042 278.212 497.226C277.732 496.398 277.054 495.984 276.178 495.984C275.302 495.984 274.624 496.398 274.144 497.226C273.664 498.042 273.424 499.2 273.424 500.7C273.424 502.2 273.664 503.364 274.144 504.192C274.624 505.008 275.302 505.416 276.178 505.416ZM285.312 507L285.24 506.82L288.984 498.864L289.038 500.358C288.762 500.826 288.438 501.234 288.066 501.582C287.694 501.918 287.292 502.176 286.86 502.356C286.428 502.536 285.99 502.626 285.546 502.626C284.862 502.626 284.232 502.446 283.656 502.086C283.08 501.726 282.618 501.246 282.27 500.646C281.922 500.046 281.748 499.392 281.748 498.684C281.748 497.832 281.94 497.07 282.324 496.398C282.708 495.714 283.23 495.174 283.89 494.778C284.562 494.382 285.312 494.184 286.14 494.184C286.74 494.184 287.304 494.292 287.832 494.508C288.36 494.724 288.822 495.03 289.218 495.426C289.614 495.81 289.926 496.26 290.154 496.776C290.382 497.28 290.496 497.82 290.496 498.396C290.496 498.696 290.466 499.02 290.406 499.368C290.346 499.704 290.244 500.088 290.1 500.52C289.968 500.94 289.788 501.426 289.56 501.978C289.332 502.518 289.05 503.148 288.714 503.868L287.22 507H285.312ZM285.96 500.826C286.428 500.826 286.848 500.724 287.22 500.52C287.592 500.304 287.88 500.022 288.084 499.674C288.3 499.314 288.408 498.912 288.408 498.468C288.408 498 288.306 497.58 288.102 497.208C287.898 496.824 287.61 496.524 287.238 496.308C286.878 496.092 286.464 495.984 285.996 495.984C285.564 495.984 285.18 496.092 284.844 496.308C284.508 496.512 284.238 496.8 284.034 497.172C283.842 497.532 283.746 497.958 283.746 498.45C283.746 498.87 283.842 499.26 284.034 499.62C284.238 499.98 284.508 500.274 284.844 500.502C285.18 500.718 285.552 500.826 285.96 500.826ZM290.099 509.376L297.515 494.4H299.297L291.899 509.376H290.099ZM300.474 507L299.88 505.524L303.732 501.186C303.936 500.97 304.146 500.724 304.362 500.448C304.59 500.16 304.806 499.866 305.01 499.566C305.214 499.266 305.376 498.972 305.496 498.684C305.628 498.384 305.694 498.102 305.694 497.838C305.694 497.454 305.616 497.13 305.46 496.866C305.316 496.59 305.1 496.38 304.812 496.236C304.536 496.092 304.2 496.02 303.804 496.02C303.456 496.02 303.114 496.122 302.778 496.326C302.442 496.53 302.136 496.818 301.86 497.19C301.584 497.562 301.368 497.994 301.212 498.486L299.718 497.55C299.922 496.854 300.228 496.26 300.636 495.768C301.056 495.264 301.554 494.88 302.13 494.616C302.718 494.352 303.354 494.22 304.038 494.22C304.746 494.22 305.376 494.37 305.928 494.67C306.48 494.958 306.912 495.366 307.224 495.894C307.536 496.41 307.692 497.01 307.692 497.694C307.692 498.042 307.644 498.402 307.548 498.774C307.452 499.134 307.296 499.512 307.08 499.908C306.876 500.304 306.612 500.724 306.288 501.168C305.964 501.6 305.574 502.062 305.118 502.554L302.256 505.668L301.896 505.128H308.088V507H300.474ZM313.665 507.18C312.705 507.18 311.877 506.916 311.181 506.388C310.497 505.86 309.969 505.116 309.597 504.156C309.225 503.184 309.039 502.032 309.039 500.7C309.039 499.368 309.225 498.222 309.597 497.262C309.969 496.29 310.497 495.54 311.181 495.012C311.877 494.484 312.705 494.22 313.665 494.22C314.625 494.22 315.453 494.484 316.149 495.012C316.845 495.54 317.379 496.29 317.751 497.262C318.123 498.222 318.309 499.368 318.309 500.7C318.309 502.032 318.123 503.184 317.751 504.156C317.379 505.116 316.845 505.86 316.149 506.388C315.453 506.916 314.625 507.18 313.665 507.18ZM313.665 505.416C314.541 505.416 315.219 505.008 315.699 504.192C316.179 503.364 316.419 502.2 316.419 500.7C316.419 499.2 316.179 498.042 315.699 497.226C315.219 496.398 314.541 495.984 313.665 495.984C312.789 495.984 312.111 496.398 311.631 497.226C311.151 498.042 310.911 499.2 310.911 500.7C310.911 502.2 311.151 503.364 311.631 504.192C312.111 505.008 312.789 505.416 313.665 505.416ZM320.369 507L319.775 505.524L323.627 501.186C323.831 500.97 324.041 500.724 324.257 500.448C324.485 500.16 324.701 499.866 324.905 499.566C325.109 499.266 325.271 498.972 325.391 498.684C325.523 498.384 325.589 498.102 325.589 497.838C325.589 497.454 325.511 497.13 325.355 496.866C325.211 496.59 324.995 496.38 324.707 496.236C324.431 496.092 324.095 496.02 323.699 496.02C323.351 496.02 323.009 496.122 322.673 496.326C322.337 496.53 322.031 496.818 321.755 497.19C321.479 497.562 321.263 497.994 321.107 498.486L319.613 497.55C319.817 496.854 320.123 496.26 320.531 495.768C320.951 495.264 321.449 494.88 322.025 494.616C322.613 494.352 323.249 494.22 323.933 494.22C324.641 494.22 325.271 494.37 325.823 494.67C326.375 494.958 326.807 495.366 327.119 495.894C327.431 496.41 327.587 497.01 327.587 497.694C327.587 498.042 327.539 498.402 327.443 498.774C327.347 499.134 327.191 499.512 326.975 499.908C326.771 500.304 326.507 500.724 326.183 501.168C325.859 501.6 325.469 502.062 325.013 502.554L322.151 505.668L321.791 505.128H327.983V507H320.369ZM333.56 507.18C332.6 507.18 331.772 506.916 331.076 506.388C330.392 505.86 329.864 505.116 329.492 504.156C329.12 503.184 328.934 502.032 328.934 500.7C328.934 499.368 329.12 498.222 329.492 497.262C329.864 496.29 330.392 495.54 331.076 495.012C331.772 494.484 332.6 494.22 333.56 494.22C334.52 494.22 335.348 494.484 336.044 495.012C336.74 495.54 337.274 496.29 337.646 497.262C338.018 498.222 338.204 499.368 338.204 500.7C338.204 502.032 338.018 503.184 337.646 504.156C337.274 505.116 336.74 505.86 336.044 506.388C335.348 506.916 334.52 507.18 333.56 507.18ZM333.56 505.416C334.436 505.416 335.114 505.008 335.594 504.192C336.074 503.364 336.314 502.2 336.314 500.7C336.314 499.2 336.074 498.042 335.594 497.226C335.114 496.398 334.436 495.984 333.56 495.984C332.684 495.984 332.006 496.398 331.526 497.226C331.046 498.042 330.806 499.2 330.806 500.7C330.806 502.2 331.046 503.364 331.526 504.192C332.006 505.008 332.684 505.416 333.56 505.416Z" fill="white" fill-opacity="0.36"/>
<path d="M4.90592 403.118V392.894L5.57192 393.398L3.08792 394.712L2.56592 393.02L5.93192 391.22H6.86792V403.118H4.90592ZM2.90792 404V402.128H8.91992V404H2.90792ZM15.0039 404.18C14.0439 404.18 13.2159 403.916 12.5199 403.388C11.8359 402.86 11.3079 402.116 10.9359 401.156C10.5639 400.184 10.3779 399.032 10.3779 397.7C10.3779 396.368 10.5639 395.222 10.9359 394.262C11.3079 393.29 11.8359 392.54 12.5199 392.012C13.2159 391.484 14.0439 391.22 15.0039 391.22C15.9639 391.22 16.7919 391.484 17.4879 392.012C18.1839 392.54 18.7179 393.29 19.0899 394.262C19.4619 395.222 19.6479 396.368 19.6479 397.7C19.6479 399.032 19.4619 400.184 19.0899 401.156C18.7179 402.116 18.1839 402.86 17.4879 403.388C16.7919 403.916 15.9639 404.18 15.0039 404.18ZM15.0039 402.416C15.8799 402.416 16.5579 402.008 17.0379 401.192C17.5179 400.364 17.7579 399.2 17.7579 397.7C17.7579 396.2 17.5179 395.042 17.0379 394.226C16.5579 393.398 15.8799 392.984 15.0039 392.984C14.1279 392.984 13.4499 393.398 12.9699 394.226C12.4899 395.042 12.2499 396.2 12.2499 397.7C12.2499 399.2 12.4899 400.364 12.9699 401.192C13.4499 402.008 14.1279 402.416 15.0039 402.416Z" fill="white" fill-opacity="0.36"/>
<path d="M2.67397 357L2.07997 355.524L5.93197 351.186C6.13597 350.97 6.34597 350.724 6.56197 350.448C6.78997 350.16 7.00597 349.866 7.20997 349.566C7.41397 349.266 7.57597 348.972 7.69597 348.684C7.82797 348.384 7.89397 348.102 7.89397 347.838C7.89397 347.454 7.81597 347.13 7.65997 346.866C7.51597 346.59 7.29997 346.38 7.01197 346.236C6.73597 346.092 6.39997 346.02 6.00397 346.02C5.65597 346.02 5.31397 346.122 4.97797 346.326C4.64197 346.53 4.33597 346.818 4.05997 347.19C3.78397 347.562 3.56797 347.994 3.41197 348.486L1.91797 347.55C2.12197 346.854 2.42797 346.26 2.83597 345.768C3.25597 345.264 3.75397 344.88 4.32997 344.616C4.91797 344.352 5.55397 344.22 6.23797 344.22C6.94597 344.22 7.57597 344.37 8.12797 344.67C8.67997 344.958 9.11197 345.366 9.42397 345.894C9.73597 346.41 9.89197 347.01 9.89197 347.694C9.89197 348.042 9.84397 348.402 9.74797 348.774C9.65197 349.134 9.49597 349.512 9.27997 349.908C9.07597 350.304 8.81197 350.724 8.48797 351.168C8.16397 351.6 7.77397 352.062 7.31797 352.554L4.45597 355.668L4.09597 355.128H10.288V357H2.67397ZM15.8653 357.18C14.9053 357.18 14.0773 356.916 13.3813 356.388C12.6973 355.86 12.1693 355.116 11.7973 354.156C11.4253 353.184 11.2393 352.032 11.2393 350.7C11.2393 349.368 11.4253 348.222 11.7973 347.262C12.1693 346.29 12.6973 345.54 13.3813 345.012C14.0773 344.484 14.9053 344.22 15.8653 344.22C16.8253 344.22 17.6533 344.484 18.3493 345.012C19.0453 345.54 19.5793 346.29 19.9513 347.262C20.3233 348.222 20.5093 349.368 20.5093 350.7C20.5093 352.032 20.3233 353.184 19.9513 354.156C19.5793 355.116 19.0453 355.86 18.3493 356.388C17.6533 356.916 16.8253 357.18 15.8653 357.18ZM15.8653 355.416C16.7413 355.416 17.4193 355.008 17.8993 354.192C18.3793 353.364 18.6193 352.2 18.6193 350.7C18.6193 349.2 18.3793 348.042 17.8993 347.226C17.4193 346.398 16.7413 345.984 15.8653 345.984C14.9893 345.984 14.3113 346.398 13.8313 347.226C13.3513 348.042 13.1113 349.2 13.1113 350.7C13.1113 352.2 13.3513 353.364 13.8313 354.192C14.3113 355.008 14.9893 355.416 15.8653 355.416Z" fill="white" fill-opacity="0.36"/>
<path d="M5.51786 310.18C4.62986 310.18 3.85586 309.976 3.19586 309.568C2.54786 309.16 1.93586 308.476 1.35986 307.516L2.87186 306.562C3.17186 307.006 3.46586 307.372 3.75386 307.66C4.05386 307.936 4.35986 308.14 4.67186 308.272C4.98386 308.404 5.31386 308.47 5.66186 308.47C6.08186 308.47 6.47186 308.368 6.83186 308.164C7.19186 307.948 7.47986 307.654 7.69586 307.282C7.91186 306.91 8.01986 306.49 8.01986 306.022C8.01986 305.554 7.93586 305.158 7.76786 304.834C7.59986 304.498 7.35386 304.246 7.02986 304.078C6.70586 303.898 6.32186 303.808 5.87786 303.808C5.67386 303.808 5.45786 303.832 5.22986 303.88C5.01386 303.916 4.77986 303.976 4.52786 304.06C4.27586 304.132 3.99986 304.228 3.69986 304.348L3.15986 302.926L7.04786 298.642L7.42586 299.2H2.06186V297.4H9.27986L9.63986 298.12L5.51786 302.692L5.06786 302.224C5.16386 302.176 5.31986 302.134 5.53586 302.098C5.76386 302.05 5.94986 302.026 6.09386 302.026C6.62186 302.026 7.11386 302.128 7.56986 302.332C8.03786 302.524 8.43986 302.8 8.77586 303.16C9.12386 303.508 9.39386 303.922 9.58586 304.402C9.78986 304.87 9.89186 305.374 9.89186 305.914C9.89186 306.73 9.69386 307.462 9.29786 308.11C8.91386 308.746 8.39186 309.25 7.73186 309.622C7.07186 309.994 6.33386 310.18 5.51786 310.18ZM15.5312 310.18C14.5712 310.18 13.7432 309.916 13.0472 309.388C12.3632 308.86 11.8352 308.116 11.4632 307.156C11.0912 306.184 10.9052 305.032 10.9052 303.7C10.9052 302.368 11.0912 301.222 11.4632 300.262C11.8352 299.29 12.3632 298.54 13.0472 298.012C13.7432 297.484 14.5712 297.22 15.5312 297.22C16.4912 297.22 17.3192 297.484 18.0152 298.012C18.7112 298.54 19.2452 299.29 19.6172 300.262C19.9892 301.222 20.1752 302.368 20.1752 303.7C20.1752 305.032 19.9892 306.184 19.6172 307.156C19.2452 308.116 18.7112 308.86 18.0152 309.388C17.3192 309.916 16.4912 310.18 15.5312 310.18ZM15.5312 308.416C16.4072 308.416 17.0852 308.008 17.5652 307.192C18.0452 306.364 18.2852 305.2 18.2852 303.7C18.2852 302.2 18.0452 301.042 17.5652 300.226C17.0852 299.398 16.4072 298.984 15.5312 298.984C14.6552 298.984 13.9772 299.398 13.4972 300.226C13.0172 301.042 12.7772 302.2 12.7772 303.7C12.7772 305.2 13.0172 306.364 13.4972 307.192C13.9772 308.008 14.6552 308.416 15.5312 308.416Z" fill="white" fill-opacity="0.36"/>
<path d="M6.33604 263V252.848L6.78604 252.956L2.64604 258.014L2.57404 257.798H10.404V259.58H1.36804L0.540039 257.96L6.71404 250.4H8.20804V263H6.33604ZM16.1661 263.18C15.2061 263.18 14.3781 262.916 13.6821 262.388C12.9981 261.86 12.4701 261.116 12.0981 260.156C11.7261 259.184 11.5401 258.032 11.5401 256.7C11.5401 255.368 11.7261 254.222 12.0981 253.262C12.4701 252.29 12.9981 251.54 13.6821 251.012C14.3781 250.484 15.2061 250.22 16.1661 250.22C17.1261 250.22 17.9541 250.484 18.6501 251.012C19.3461 251.54 19.8801 252.29 20.2521 253.262C20.6241 254.222 20.8101 255.368 20.8101 256.7C20.8101 258.032 20.6241 259.184 20.2521 260.156C19.8801 261.116 19.3461 261.86 18.6501 262.388C17.9541 262.916 17.1261 263.18 16.1661 263.18ZM16.1661 261.416C17.0421 261.416 17.7201 261.008 18.2001 260.192C18.6801 259.364 18.9201 258.2 18.9201 256.7C18.9201 255.2 18.6801 254.042 18.2001 253.226C17.7201 252.398 17.0421 251.984 16.1661 251.984C15.2901 251.984 14.6121 252.398 14.1321 253.226C13.6521 254.042 13.4121 255.2 13.4121 256.7C13.4121 258.2 13.6521 259.364 14.1321 260.192C14.6121 261.008 15.2901 261.416 16.1661 261.416Z" fill="white" fill-opacity="0.36"/>
<path d="M5.62615 216.126C4.79815 216.126 4.04815 215.94 3.37615 215.568C2.70415 215.184 2.14615 214.638 1.70215 213.93L2.78215 212.724C3.34615 213.348 3.83815 213.774 4.25815 214.002C4.67815 214.23 5.13415 214.344 5.62615 214.344C6.11815 214.344 6.56215 214.236 6.95815 214.02C7.35415 213.804 7.66615 213.51 7.89415 213.138C8.13415 212.766 8.25415 212.352 8.25415 211.896C8.25415 211.416 8.14015 210.99 7.91215 210.618C7.69615 210.234 7.40215 209.934 7.03015 209.718C6.65815 209.49 6.23815 209.376 5.77015 209.376C5.54215 209.376 5.32615 209.394 5.12215 209.43C4.91815 209.454 4.67215 209.52 4.38415 209.628C4.09615 209.736 3.71815 209.904 3.25015 210.132L2.22415 208.746L2.96215 203.4H9.76615V205.2H4.18615L4.56415 204.858L3.97015 208.854L3.52015 208.332C3.64015 208.212 3.84415 208.098 4.13215 207.99C4.42015 207.87 4.73815 207.774 5.08615 207.702C5.44615 207.618 5.78815 207.576 6.11215 207.576C6.88015 207.576 7.56415 207.756 8.16415 208.116C8.77615 208.464 9.25615 208.95 9.60415 209.574C9.96415 210.198 10.1441 210.912 10.1441 211.716C10.1441 212.544 9.94615 213.294 9.55015 213.966C9.15415 214.626 8.61415 215.154 7.93015 215.55C7.24615 215.934 6.47815 216.126 5.62615 216.126ZM16.2346 216.18C15.2746 216.18 14.4466 215.916 13.7506 215.388C13.0666 214.86 12.5386 214.116 12.1666 213.156C11.7946 212.184 11.6086 211.032 11.6086 209.7C11.6086 208.368 11.7946 207.222 12.1666 206.262C12.5386 205.29 13.0666 204.54 13.7506 204.012C14.4466 203.484 15.2746 203.22 16.2346 203.22C17.1946 203.22 18.0226 203.484 18.7186 204.012C19.4146 204.54 19.9486 205.29 20.3206 206.262C20.6926 207.222 20.8786 208.368 20.8786 209.7C20.8786 211.032 20.6926 212.184 20.3206 213.156C19.9486 214.116 19.4146 214.86 18.7186 215.388C18.0226 215.916 17.1946 216.18 16.2346 216.18ZM16.2346 214.416C17.1107 214.416 17.7886 214.008 18.2686 213.192C18.7486 212.364 18.9886 211.2 18.9886 209.7C18.9886 208.2 18.7486 207.042 18.2686 206.226C17.7886 205.398 17.1107 204.984 16.2346 204.984C15.3586 204.984 14.6806 205.398 14.2006 206.226C13.7206 207.042 13.4806 208.2 13.4806 209.7C13.4806 211.2 13.7206 212.364 14.2006 213.192C14.6806 214.008 15.3586 214.416 16.2346 214.416Z" fill="white" fill-opacity="0.36"/>
<path d="M6.09421 169C5.47021 169 4.88821 168.892 4.34821 168.676C3.82021 168.448 3.35821 168.136 2.96221 167.74C2.57821 167.344 2.27221 166.876 2.04421 166.336C1.82821 165.796 1.72021 165.202 1.72021 164.554C1.72021 164.122 1.79821 163.618 1.95421 163.042C2.12221 162.466 2.36221 161.836 2.67421 161.152C2.99821 160.468 3.39421 159.736 3.86221 158.956L5.50021 156.184H7.39021L7.46221 156.364L5.48221 159.694C5.12221 160.306 4.79821 160.888 4.51022 161.44C4.23422 161.992 4.00021 162.514 3.80821 163.006C3.61621 163.486 3.47221 163.924 3.37621 164.32L2.94421 162.466C3.24421 161.974 3.58021 161.56 3.95221 161.224C4.32421 160.888 4.72621 160.636 5.15821 160.468C5.59021 160.288 6.05222 160.198 6.54422 160.198C7.24022 160.198 7.87621 160.39 8.45221 160.774C9.04021 161.146 9.50821 161.644 9.85621 162.268C10.2162 162.892 10.3962 163.576 10.3962 164.32C10.3962 165.22 10.2102 166.024 9.83821 166.732C9.47821 167.428 8.97421 167.98 8.32621 168.388C7.67822 168.796 6.93421 169 6.09421 169ZM6.09421 167.2C6.56221 167.2 6.97621 167.092 7.33622 166.876C7.70822 166.648 7.99621 166.336 8.20021 165.94C8.41621 165.532 8.52421 165.07 8.52421 164.554C8.52421 164.11 8.41621 163.696 8.20021 163.312C7.98421 162.916 7.69622 162.598 7.33622 162.358C6.97621 162.118 6.57421 161.998 6.13021 161.998C5.63821 161.998 5.20021 162.112 4.81621 162.34C4.43221 162.568 4.13221 162.874 3.91621 163.258C3.70021 163.642 3.59221 164.068 3.59221 164.536C3.59221 165.04 3.70021 165.496 3.91621 165.904C4.13221 166.3 4.42621 166.618 4.79821 166.858C5.17021 167.086 5.60221 167.2 6.09421 167.2ZM16.0237 169.18C15.0637 169.18 14.2357 168.916 13.5397 168.388C12.8557 167.86 12.3277 167.116 11.9557 166.156C11.5837 165.184 11.3977 164.032 11.3977 162.7C11.3977 161.368 11.5837 160.222 11.9557 159.262C12.3277 158.29 12.8557 157.54 13.5397 157.012C14.2357 156.484 15.0637 156.22 16.0237 156.22C16.9837 156.22 17.8117 156.484 18.5077 157.012C19.2037 157.54 19.7377 158.29 20.1097 159.262C20.4817 160.222 20.6677 161.368 20.6677 162.7C20.6677 164.032 20.4817 165.184 20.1097 166.156C19.7377 167.116 19.2037 167.86 18.5077 168.388C17.8117 168.916 16.9837 169.18 16.0237 169.18ZM16.0237 167.416C16.8997 167.416 17.5777 167.008 18.0577 166.192C18.5377 165.364 18.7777 164.2 18.7777 162.7C18.7777 161.2 18.5377 160.042 18.0577 159.226C17.5777 158.398 16.8997 157.984 16.0237 157.984C15.1477 157.984 14.4697 158.398 13.9897 159.226C13.5097 160.042 13.2697 161.2 13.2697 162.7C13.2697 164.2 13.5097 165.364 13.9897 166.192C14.4697 167.008 15.1477 167.416 16.0237 167.416Z" fill="white" fill-opacity="0.36"/>
<path d="M3.01608 122L8.23608 110.624L8.45208 111.2H2.08008V109.4H9.87408L10.1261 110.642L5.10408 122H3.01608ZM15.76 122.18C14.8 122.18 13.972 121.916 13.276 121.388C12.592 120.86 12.064 120.116 11.692 119.156C11.32 118.184 11.134 117.032 11.134 115.7C11.134 114.368 11.32 113.222 11.692 112.262C12.064 111.29 12.592 110.54 13.276 110.012C13.972 109.484 14.8 109.22 15.76 109.22C16.72 109.22 17.548 109.484 18.244 110.012C18.94 110.54 19.474 111.29 19.846 112.262C20.218 113.222 20.404 114.368 20.404 115.7C20.404 117.032 20.218 118.184 19.846 119.156C19.474 120.116 18.94 120.86 18.244 121.388C17.548 121.916 16.72 122.18 15.76 122.18ZM15.76 120.416C16.636 120.416 17.314 120.008 17.794 119.192C18.274 118.364 18.514 117.2 18.514 115.7C18.514 114.2 18.274 113.042 17.794 112.226C17.314 111.398 16.636 110.984 15.76 110.984C14.884 110.984 14.206 111.398 13.726 112.226C13.246 113.042 13.006 114.2 13.006 115.7C13.006 117.2 13.246 118.364 13.726 119.192C14.206 120.008 14.884 120.416 15.76 120.416Z" fill="white" fill-opacity="0.36"/>
<path d="M6.2021 75.054C5.4221 75.054 4.7081 74.892 4.0601 74.568C3.4241 74.232 2.9141 73.788 2.5301 73.236C2.1461 72.684 1.9541 72.072 1.9541 71.4C1.9541 71.028 2.0021 70.68 2.0981 70.356C2.2061 70.02 2.3621 69.714 2.5661 69.438C2.7821 69.162 3.0401 68.91 3.3401 68.682C3.6401 68.454 3.9881 68.25 4.3841 68.07L4.2761 68.448C3.8561 68.292 3.4961 68.088 3.1961 67.836C2.8961 67.572 2.6621 67.272 2.4941 66.936C2.3381 66.6 2.2601 66.234 2.2601 65.838C2.2601 65.202 2.4341 64.626 2.7821 64.11C3.1421 63.594 3.6161 63.18 4.2041 62.868C4.8041 62.556 5.4701 62.4 6.2021 62.4C6.9341 62.4 7.5941 62.556 8.1821 62.868C8.7821 63.18 9.2561 63.594 9.6041 64.11C9.9641 64.626 10.1441 65.202 10.1441 65.838C10.1441 66.234 10.0661 66.594 9.9101 66.918C9.7541 67.242 9.5261 67.536 9.2261 67.8C8.9261 68.052 8.5541 68.268 8.1101 68.448L8.0561 68.142C8.5361 68.334 8.9561 68.598 9.3161 68.934C9.6761 69.27 9.9581 69.654 10.1621 70.086C10.3661 70.506 10.4681 70.944 10.4681 71.4C10.4681 72.084 10.2761 72.702 9.8921 73.254C9.5081 73.806 8.9921 74.244 8.3441 74.568C7.7081 74.892 6.9941 75.054 6.2021 75.054ZM6.2021 73.254C6.6461 73.254 7.0421 73.17 7.3901 73.002C7.7501 72.834 8.0321 72.606 8.2361 72.318C8.4401 72.03 8.5421 71.7 8.5421 71.328C8.5421 70.932 8.4401 70.584 8.2361 70.284C8.0321 69.972 7.7501 69.726 7.3901 69.546C7.0421 69.366 6.6461 69.276 6.2021 69.276C5.7581 69.276 5.3621 69.366 5.0141 69.546C4.6661 69.726 4.3901 69.972 4.1861 70.284C3.9821 70.584 3.8801 70.932 3.8801 71.328C3.8801 71.688 3.9821 72.012 4.1861 72.3C4.3901 72.588 4.6661 72.822 5.0141 73.002C5.3621 73.17 5.7581 73.254 6.2021 73.254ZM6.2021 67.548C6.5861 67.548 6.9281 67.476 7.2281 67.332C7.5401 67.188 7.7801 66.996 7.9481 66.756C8.1281 66.504 8.2181 66.216 8.2181 65.892C8.2181 65.568 8.1281 65.28 7.9481 65.028C7.7801 64.776 7.5401 64.578 7.2281 64.434C6.9281 64.278 6.5861 64.2 6.2021 64.2C5.8181 64.2 5.4701 64.278 5.1581 64.434C4.8581 64.578 4.6181 64.776 4.4381 65.028C4.2701 65.28 4.1861 65.568 4.1861 65.892C4.1861 66.216 4.2701 66.504 4.4381 66.756C4.6181 66.996 4.8581 67.188 5.1581 67.332C5.4701 67.476 5.8181 67.548 6.2021 67.548ZM16.4279 75.18C15.4679 75.18 14.6399 74.916 13.9439 74.388C13.2599 73.86 12.7319 73.116 12.3599 72.156C11.9879 71.184 11.8019 70.032 11.8019 68.7C11.8019 67.368 11.9879 66.222 12.3599 65.262C12.7319 64.29 13.2599 63.54 13.9439 63.012C14.6399 62.484 15.4679 62.22 16.4279 62.22C17.3879 62.22 18.2159 62.484 18.9119 63.012C19.6079 63.54 20.1419 64.29 20.5139 65.262C20.8859 66.222 21.0719 67.368 21.0719 68.7C21.0719 70.032 20.8859 71.184 20.5139 72.156C20.1419 73.116 19.6079 73.86 18.9119 74.388C18.2159 74.916 17.3879 75.18 16.4279 75.18ZM16.4279 73.416C17.3039 73.416 17.9819 73.008 18.4619 72.192C18.9419 71.364 19.1819 70.2 19.1819 68.7C19.1819 67.2 18.9419 66.042 18.4619 65.226C17.9819 64.398 17.3039 63.984 16.4279 63.984C15.5519 63.984 14.8739 64.398 14.3939 65.226C13.9139 66.042 13.6739 67.2 13.6739 68.7C13.6739 70.2 13.9139 71.364 14.3939 72.192C14.8739 73.008 15.5519 73.416 16.4279 73.416Z" fill="white" fill-opacity="0.36"/>
<path d="M5.78016 19V8.01995H1.66016V4.99995H13.4602V8.01995H9.20016V19H5.78016ZM13.8343 19V8.37995H16.8943L17.0343 11.84L16.4343 11.16C16.6076 10.6 16.8743 10.0933 17.2343 9.63995C17.5943 9.18662 18.0209 8.82662 18.5143 8.55995C19.0209 8.29328 19.5476 8.15995 20.0943 8.15995C20.3343 8.15995 20.5543 8.17995 20.7543 8.21995C20.9676 8.24662 21.1543 8.29328 21.3143 8.35995L20.4543 11.9C20.3076 11.82 20.1076 11.7533 19.8543 11.7C19.6143 11.6333 19.3609 11.6 19.0943 11.6C18.8009 11.6 18.5276 11.6533 18.2743 11.76C18.0343 11.8533 17.8209 11.9933 17.6343 12.18C17.4609 12.3667 17.3209 12.5867 17.2143 12.84C17.1209 13.0933 17.0743 13.38 17.0743 13.7V19H13.8343ZM27.0661 19.2C25.8928 19.2 24.8661 18.9667 23.9861 18.5C23.1195 18.0333 22.4461 17.3933 21.9661 16.58C21.4995 15.7533 21.2661 14.8133 21.2661 13.76C21.2661 12.9333 21.3995 12.18 21.6661 11.5C21.9328 10.8067 22.3061 10.2133 22.7861 9.71995C23.2795 9.22662 23.8528 8.84662 24.5061 8.57995C25.1728 8.29995 25.8995 8.15995 26.6861 8.15995C27.4328 8.15995 28.1128 8.29328 28.7261 8.55995C29.3395 8.82662 29.8728 9.19995 30.3261 9.67995C30.7795 10.16 31.1261 10.7267 31.3661 11.38C31.6061 12.0333 31.7195 12.7467 31.7061 13.52L31.6861 14.4H23.2461L22.7661 12.58H29.0661L28.7261 12.94V12.54C28.6995 12.2067 28.5928 11.92 28.4061 11.68C28.2328 11.4267 27.9995 11.2267 27.7061 11.08C27.4261 10.9333 27.1061 10.86 26.7461 10.86C26.2128 10.86 25.7595 10.9667 25.3861 11.18C25.0261 11.38 24.7528 11.6733 24.5661 12.06C24.3795 12.4467 24.2861 12.9267 24.2861 13.5C24.2861 14.0733 24.4061 14.58 24.6461 15.02C24.8995 15.46 25.2595 15.8 25.7261 16.04C26.2061 16.28 26.7728 16.4 27.4261 16.4C27.8661 16.4 28.2661 16.3333 28.6261 16.2C28.9861 16.0667 29.3728 15.84 29.7861 15.52L31.2861 17.64C30.8728 17.9867 30.4328 18.28 29.9661 18.52C29.4995 18.7467 29.0195 18.9133 28.5261 19.02C28.0461 19.14 27.5595 19.2 27.0661 19.2ZM33.2444 19V8.37995H36.3044L36.4244 10.54L35.7644 10.78C35.9111 10.3 36.1711 9.86662 36.5444 9.47995C36.9311 9.07995 37.3911 8.75995 37.9244 8.51995C38.4578 8.27995 39.0178 8.15995 39.6044 8.15995C40.4044 8.15995 41.0778 8.32662 41.6244 8.65995C42.1711 8.97995 42.5778 9.46662 42.8444 10.12C43.1244 10.76 43.2644 11.5533 43.2644 12.5V19H40.0444V12.74C40.0444 12.3133 39.9844 11.96 39.8644 11.68C39.7444 11.4 39.5644 11.1933 39.3244 11.06C39.0844 10.9267 38.7844 10.8667 38.4244 10.88C38.1444 10.88 37.8844 10.9267 37.6444 11.02C37.4044 11.1 37.1911 11.2267 37.0044 11.4C36.8311 11.56 36.6978 11.7467 36.6044 11.96C36.5111 12.1733 36.4644 12.4133 36.4644 12.68V19H34.8444C34.4978 19 34.1844 19 33.9044 19C33.6378 19 33.4178 19 33.2444 19ZM49.4993 19.2C48.5926 19.2 47.7726 18.9667 47.0393 18.5C46.3193 18.0333 45.7526 17.3867 45.3393 16.56C44.9259 15.72 44.7193 14.7667 44.7193 13.7C44.7193 12.6333 44.9259 11.6867 45.3393 10.86C45.7526 10.02 46.3193 9.35995 47.0393 8.87995C47.7726 8.39995 48.5993 8.15995 49.5193 8.15995C49.9993 8.15995 50.4593 8.23328 50.8993 8.37995C51.3526 8.52662 51.7526 8.72662 52.0993 8.97995C52.4593 9.23328 52.7526 9.51995 52.9793 9.83995C53.2059 10.16 53.3459 10.5 53.3993 10.86L52.6193 11.04V4.19995H55.8393V19H52.8393L52.6593 16.6L53.2993 16.72C53.2726 17.04 53.1526 17.3533 52.9393 17.66C52.7259 17.9533 52.4393 18.22 52.0793 18.46C51.7326 18.6867 51.3393 18.8667 50.8993 19C50.4593 19.1333 49.9926 19.2 49.4993 19.2ZM50.2993 16.54C50.7926 16.54 51.2126 16.4267 51.5593 16.2C51.9193 15.96 52.1993 15.6267 52.3993 15.2C52.5993 14.7733 52.6993 14.2733 52.6993 13.7C52.6993 13.1133 52.5993 12.6067 52.3993 12.18C52.1993 11.7533 51.9193 11.4267 51.5593 11.2C51.2126 10.96 50.7926 10.84 50.2993 10.84C49.8193 10.84 49.3993 10.96 49.0393 11.2C48.6926 11.4267 48.4193 11.7533 48.2193 12.18C48.0193 12.6067 47.9193 13.1133 47.9193 13.7C47.9193 14.2733 48.0193 14.7733 48.2193 15.2C48.4193 15.6267 48.6926 15.96 49.0393 16.2C49.3993 16.4267 49.8193 16.54 50.2993 16.54Z" fill="white"/>
<path d="M475.351 19L471.131 4.99995H474.611L476.731 12.36C476.851 12.7867 476.951 13.2267 477.031 13.68C477.111 14.12 477.178 14.5333 477.231 14.92C477.285 15.2933 477.318 15.5867 477.331 15.8L476.871 15.82C476.965 15.3133 477.038 14.8667 477.091 14.48C477.145 14.0933 477.211 13.7333 477.291 13.4C477.371 13.0533 477.471 12.7067 477.591 12.36L479.691 6.81995H482.431L484.491 12.36C484.651 12.8 484.778 13.22 484.871 13.62C484.978 14.0067 485.058 14.3733 485.111 14.72C485.178 15.0533 485.231 15.3867 485.271 15.72L484.851 15.8C484.878 15.5467 484.898 15.32 484.911 15.12C484.938 14.92 484.958 14.7267 484.971 14.54C484.985 14.34 485.005 14.14 485.031 13.94C485.058 13.7267 485.098 13.4933 485.151 13.24C485.205 12.9733 485.278 12.6733 485.371 12.34L487.451 4.99995H490.871L486.651 19H484.051L480.711 10.96L481.091 11L478.031 19H475.351ZM496.464 19.2C495.291 19.2 494.264 18.9667 493.384 18.5C492.518 18.0333 491.844 17.3933 491.364 16.58C490.898 15.7533 490.664 14.8133 490.664 13.76C490.664 12.9333 490.798 12.18 491.064 11.5C491.331 10.8067 491.704 10.2133 492.184 9.71995C492.678 9.22662 493.251 8.84662 493.904 8.57995C494.571 8.29995 495.298 8.15995 496.084 8.15995C496.831 8.15995 497.511 8.29328 498.124 8.55995C498.738 8.82662 499.271 9.19995 499.724 9.67995C500.178 10.16 500.524 10.7267 500.764 11.38C501.004 12.0333 501.118 12.7467 501.104 13.52L501.084 14.4H492.644L492.164 12.58H498.464L498.124 12.94V12.54C498.098 12.2067 497.991 11.92 497.804 11.68C497.631 11.4267 497.398 11.2267 497.104 11.08C496.824 10.9333 496.504 10.86 496.144 10.86C495.611 10.86 495.158 10.9667 494.784 11.18C494.424 11.38 494.151 11.6733 493.964 12.06C493.778 12.4467 493.684 12.9267 493.684 13.5C493.684 14.0733 493.804 14.58 494.044 15.02C494.298 15.46 494.658 15.8 495.124 16.04C495.604 16.28 496.171 16.4 496.824 16.4C497.264 16.4 497.664 16.3333 498.024 16.2C498.384 16.0667 498.771 15.84 499.184 15.52L500.684 17.64C500.271 17.9867 499.831 18.28 499.364 18.52C498.898 18.7467 498.418 18.9133 497.924 19.02C497.444 19.14 496.958 19.2 496.464 19.2ZM507.703 19.2C506.529 19.2 505.503 18.9667 504.623 18.5C503.756 18.0333 503.083 17.3933 502.603 16.58C502.136 15.7533 501.903 14.8133 501.903 13.76C501.903 12.9333 502.036 12.18 502.303 11.5C502.569 10.8067 502.943 10.2133 503.423 9.71995C503.916 9.22662 504.489 8.84662 505.143 8.57995C505.809 8.29995 506.536 8.15995 507.323 8.15995C508.069 8.15995 508.749 8.29328 509.363 8.55995C509.976 8.82662 510.509 9.19995 510.963 9.67995C511.416 10.16 511.763 10.7267 512.003 11.38C512.243 12.0333 512.356 12.7467 512.343 13.52L512.323 14.4H503.883L503.403 12.58H509.703L509.363 12.94V12.54C509.336 12.2067 509.229 11.92 509.043 11.68C508.869 11.4267 508.636 11.2267 508.343 11.08C508.063 10.9333 507.743 10.86 507.383 10.86C506.849 10.86 506.396 10.9667 506.023 11.18C505.663 11.38 505.389 11.6733 505.203 12.06C505.016 12.4467 504.923 12.9267 504.923 13.5C504.923 14.0733 505.043 14.58 505.283 15.02C505.536 15.46 505.896 15.8 506.363 16.04C506.843 16.28 507.409 16.4 508.063 16.4C508.503 16.4 508.903 16.3333 509.263 16.2C509.623 16.0667 510.009 15.84 510.423 15.52L511.923 17.64C511.509 17.9867 511.069 18.28 510.603 18.52C510.136 18.7467 509.656 18.9133 509.163 19.02C508.683 19.14 508.196 19.2 507.703 19.2ZM516.961 15.88L515.821 13.44L520.761 8.37995H524.981L516.961 15.88ZM513.881 19V4.19995H517.101V19H513.881ZM521.061 19L517.361 14.2L519.641 12.44L524.881 19H521.061Z" fill="white"/>
<path d="M448.293 16.707C448.683 17.0975 449.317 17.0975 449.707 16.707L456.071 10.343C456.462 9.95257 456.462 9.31941 456.071 8.92888C455.681 8.53836 455.047 8.53836 454.657 8.92888L449 14.5857L443.343 8.92888C442.953 8.53836 442.319 8.53836 441.929 8.92888C441.538 9.31941 441.538 9.95257 441.929 10.343L448.293 16.707ZM448 14.9999V15.9999H450V14.9999H448Z" fill="white"/>
<path d="M524 68H59V450H524V68Z" stroke="#515151" stroke-width="2"/>
<path d="M58 114H525" stroke="#515151" stroke-width="2"/>
<path d="M106 451V67" stroke="#515151" stroke-width="2" stroke-dasharray="4 4"/>
<path d="M241.5 451V67" stroke="#8C8C8C" stroke-width="3" stroke-dasharray="4 4"/>
<path d="M477 451V67" stroke="#515151" stroke-width="2" stroke-dasharray="4 4"/>
<path d="M58 161H525" stroke="#515151" stroke-width="2"/>
<path d="M58 208H525" stroke="#515151" stroke-width="2"/>
<path d="M58 255H525" stroke="#515151" stroke-width="2"/>
<path d="M58 302H525" stroke="#515151" stroke-width="2"/>
<path d="M58 349H525" stroke="#515151" stroke-width="2"/>
<path d="M58 396H525" stroke="#515151" stroke-width="2"/>
<path d="M164 205C170.075 205 175 200.075 175 194C175 187.925 170.075 183 164 183C157.925 183 153 187.925 153 194C153 200.075 157.925 205 164 205Z" fill="white"/>
<path d="M58 293C67.624 275.411 87.8677 239.123 91.8501 234.68C96.828 229.126 105.788 216.628 113.753 213.851C121.718 211.074 130.678 212.463 135.656 216.629C140.634 220.794 156.563 252.731 170.502 252.731C184.44 252.731 198.378 249.954 201.365 245.789C204.352 241.623 210.325 230.514 213.312 223.571C216.299 216.628 219.286 204.131 226.255 201.354C233.224 198.577 242.184 198.577 248.158 198.577C254.131 198.577 260.105 195.8 262.096 187.468C264.087 179.137 274.043 151.366 279.021 144.423C283.999 137.48 286.986 136.091 291.964 137.48C296.942 138.868 304.906 147.2 310.88 154.143C316.853 161.086 332.783 166.64 337.761 162.474C342.739 158.309 363.437 131.539 368.624 126.372C375.593 119.429 382.562 115.263 386.545 115.263C390.527 115.263 401.479 112.486 409.443 124.983C417.408 137.48 418.404 147.2 421.39 154.143C424.377 161.086 429.355 170.806 435.329 170.806C441.302 170.806 440.795 138.5 462.572 126.371C473.851 120.09 470.528 84.6332 492.077 87.0001C514.837 89.5 519.026 82.7771 525 80" stroke="#8D3D3B" stroke-width="3"/>
<path d="M59 218.5C60.3749 235.472 69.4557 268.803 86.7795 270.698C108.434 273.066 119.777 264.777 123.902 257.673C128.027 250.568 143 209 148.65 202.02C154.635 194.627 166.18 186.627 178.555 202.02C190.929 217.413 206.396 257.673 227.02 257.673C247.644 257.673 256.924 249.384 266.205 243.463C275.486 237.543 287.86 229.254 301.265 236.359C314.67 243.463 327.626 275.5 340 275.5C352.374 275.5 363.875 270.052 368 266.5C372.125 262.948 380.858 250.063 385 243.463C389.459 236.359 404.5 186.5 432.225 186.5C439.443 186.5 449.175 191.258 451.5 199.5C457 219 476.518 211.982 480 208.5C485 203.5 484 193 501 196C503.031 196.358 522.503 206.01 523 207.5" stroke="white" stroke-width="3"/>
<path d="M58 349C69.9231 340.273 98.0992 321.945 115.419 318.454C137.069 314.091 160.601 338.091 185.075 338.091C209.549 338.091 213.314 308.636 233.081 295.546C252.848 282.455 255.672 285.727 266.968 285.727C278.263 285.727 302.737 294.454 316.856 285.727C330.976 277 350.743 261.727 364.862 241C378.982 220.273 387.453 209.364 404.397 207.182C421.34 205 427.929 220.273 430.753 223.545C433.577 226.818 436.401 241 446.755 241C457.109 241 483.466 233.364 490.996 223.545C497.02 215.691 514.842 183.909 523 169" stroke="#F2C14A" stroke-opacity="0.44" stroke-width="3"/>
</svg>
