<svg width="526" height="511" fill="none" xmlns="http://www.w3.org/2000/svg"><path d="M13.454 451.18c-.96 0-1.788-.264-2.484-.792-.684-.528-1.212-1.272-1.584-2.232-.372-.972-.558-2.124-.558-3.456 0-1.332.186-2.478.558-3.438.372-.972.9-1.722 1.584-2.25.696-.528 1.524-.792 2.484-.792s1.788.264 2.484.792 1.23 1.278 1.602 2.25c.372.96.558 2.106.558 3.438 0 1.332-.186 2.484-.558 3.456-.372.96-.906 1.704-1.602 2.232-.696.528-1.524.792-2.484.792Zm0-1.764c.876 0 1.554-.408 2.034-1.224.48-.828.72-1.992.72-3.492s-.24-2.658-.72-3.474c-.48-.828-1.158-1.242-2.034-1.242-.876 0-1.554.414-2.034 1.242-.48.816-.72 1.974-.72 3.474 0 1.5.24 2.664.72 3.492.48.816 1.158 1.224 2.034 1.224ZM63.454 507.18c-.96 0-1.788-.264-2.484-.792-.684-.528-1.212-1.272-1.584-2.232-.372-.972-.558-2.124-.558-3.456 0-1.332.186-2.478.558-3.438.372-.972.9-1.722 1.584-2.25.696-.528 1.524-.792 2.484-.792s1.788.264 2.484.792 1.23 1.278 1.602 2.25c.372.96.558 2.106.558 3.438 0 1.332-.186 2.484-.558 3.456-.372.96-.906 1.704-1.602 2.232-.696.528-1.524.792-2.484.792Zm0-1.764c.876 0 1.554-.408 2.034-1.224.48-.828.72-1.992.72-3.492s-.24-2.658-.72-3.474c-.48-.828-1.158-1.242-2.034-1.242-.876 0-1.554.414-2.034 1.242-.48.816-.72 1.974-.72 3.474 0 1.5.24 2.664.72 3.492.48.816 1.158 1.224 2.034 1.224ZM72.588 507l-.072-.18 3.744-7.956.054 1.494c-.276.468-.6.876-.972 1.224a4.211 4.211 0 0 1-1.206.774c-.432.18-.87.27-1.314.27-.684 0-1.314-.18-1.89-.54a4.088 4.088 0 0 1-1.386-1.44 3.842 3.842 0 0 1-.522-1.962c0-.852.192-1.614.576-2.286a4.32 4.32 0 0 1 1.566-1.62 4.349 4.349 0 0 1 2.25-.594c.6 0 1.164.108 1.692.324.528.216.99.522 1.386.918.396.384.708.834.936 1.35.228.504.342 1.044.342 1.62 0 .3-.03.624-.09.972-.06.336-.162.72-.306 1.152-.132.42-.312.906-.54 1.458-.228.54-.51 1.17-.846 1.89L74.496 507h-1.908Zm.648-6.174c.468 0 .888-.102 1.26-.306a2.34 2.34 0 0 0 1.188-2.052c0-.468-.102-.888-.306-1.26a2.229 2.229 0 0 0-.864-.9 2.367 2.367 0 0 0-1.242-.324c-.432 0-.816.108-1.152.324a2.252 2.252 0 0 0-.81.864c-.192.36-.288.786-.288 1.278 0 .42.096.81.288 1.17.204.36.474.654.81.882.336.216.708.324 1.116.324Zm4.14 8.55L84.79 494.4h1.782l-7.398 14.976h-1.8Zm13.802-2.196c-.96 0-1.788-.264-2.484-.792-.684-.528-1.212-1.272-1.584-2.232-.372-.972-.558-2.124-.558-3.456 0-1.332.186-2.478.558-3.438.372-.972.9-1.722 1.584-2.25.696-.528 1.524-.792 2.484-.792s1.788.264 2.484.792 1.23 1.278 1.602 2.25c.372.96.558 2.106.558 3.438 0 1.332-.186 2.484-.558 3.456-.372.96-.906 1.704-1.602 2.232-.696.528-1.524.792-2.484.792Zm0-1.764c.876 0 1.554-.408 2.034-1.224.48-.828.72-1.992.72-3.492s-.24-2.658-.72-3.474c-.48-.828-1.158-1.242-2.034-1.242-.876 0-1.554.414-2.034 1.242-.48.816-.72 1.974-.72 3.474 0 1.5.24 2.664.72 3.492.48.816 1.158 1.224 2.034 1.224Zm9.134 1.584-.072-.18 3.744-7.956.054 1.494c-.276.468-.6.876-.972 1.224a4.211 4.211 0 0 1-1.206.774c-.432.18-.87.27-1.314.27-.684 0-1.314-.18-1.89-.54a4.088 4.088 0 0 1-1.386-1.44 3.842 3.842 0 0 1-.522-1.962c0-.852.192-1.614.576-2.286a4.32 4.32 0 0 1 1.566-1.62 4.349 4.349 0 0 1 2.25-.594c.6 0 1.164.108 1.692.324.528.216.99.522 1.386.918.396.384.708.834.936 1.35.228.504.342 1.044.342 1.62 0 .3-.03.624-.09.972-.06.336-.162.72-.306 1.152-.132.42-.312.906-.54 1.458-.228.54-.51 1.17-.846 1.89L102.22 507h-1.908Zm.648-6.174c.468 0 .888-.102 1.26-.306a2.34 2.34 0 0 0 1.188-2.052c0-.468-.102-.888-.306-1.26a2.229 2.229 0 0 0-.864-.9 2.367 2.367 0 0 0-1.242-.324c-.432 0-.816.108-1.152.324a2.252 2.252 0 0 0-.81.864c-.192.36-.288.786-.288 1.278 0 .42.096.81.288 1.17.204.36.474.654.81.882.336.216.708.324 1.116.324Zm4.139 8.55 7.416-14.976h1.782l-7.398 14.976h-1.8ZM115.474 507l-.594-1.476 3.852-4.338c.204-.216.414-.462.63-.738.228-.288.444-.582.648-.882.204-.3.366-.594.486-.882.132-.3.198-.582.198-.846 0-.384-.078-.708-.234-.972a1.433 1.433 0 0 0-.648-.63c-.276-.144-.612-.216-1.008-.216-.348 0-.69.102-1.026.306a3.266 3.266 0 0 0-.918.864 4.374 4.374 0 0 0-.648 1.296l-1.494-.936c.204-.696.51-1.29.918-1.782.42-.504.918-.888 1.494-1.152a4.604 4.604 0 0 1 1.908-.396c.708 0 1.338.15 1.89.45.552.288.984.696 1.296 1.224.312.516.468 1.116.468 1.8 0 .348-.048.708-.144 1.08-.096.36-.252.738-.468 1.134a9.695 9.695 0 0 1-.792 1.26c-.324.432-.714.894-1.17 1.386l-2.862 3.114-.36-.54h6.192V507h-7.614Zm13.191.18c-.96 0-1.788-.264-2.484-.792-.684-.528-1.212-1.272-1.584-2.232-.372-.972-.558-2.124-.558-3.456 0-1.332.186-2.478.558-3.438.372-.972.9-1.722 1.584-2.25.696-.528 1.524-.792 2.484-.792s1.788.264 2.484.792 1.23 1.278 1.602 2.25c.372.96.558 2.106.558 3.438 0 1.332-.186 2.484-.558 3.456-.372.96-.906 1.704-1.602 2.232-.696.528-1.524.792-2.484.792Zm0-1.764c.876 0 1.554-.408 2.034-1.224.48-.828.72-1.992.72-3.492s-.24-2.658-.72-3.474c-.48-.828-1.158-1.242-2.034-1.242-.876 0-1.554.414-2.034 1.242-.48.816-.72 1.974-.72 3.474 0 1.5.24 2.664.72 3.492.48.816 1.158 1.224 2.034 1.224Zm6.704 1.584-.594-1.476 3.852-4.338c.204-.216.414-.462.63-.738.228-.288.444-.582.648-.882.204-.3.366-.594.486-.882.132-.3.198-.582.198-.846 0-.384-.078-.708-.234-.972a1.433 1.433 0 0 0-.648-.63c-.276-.144-.612-.216-1.008-.216-.348 0-.69.102-1.026.306a3.266 3.266 0 0 0-.918.864 4.374 4.374 0 0 0-.648 1.296l-1.494-.936c.204-.696.51-1.29.918-1.782.42-.504.918-.888 1.494-1.152a4.604 4.604 0 0 1 1.908-.396c.708 0 1.338.15 1.89.45.552.288.984.696 1.296 1.224.312.516.468 1.116.468 1.8 0 .348-.048.708-.144 1.08-.096.36-.252.738-.468 1.134a9.695 9.695 0 0 1-.792 1.26c-.324.432-.714.894-1.17 1.386l-2.862 3.114-.36-.54h6.192V507h-7.614Zm13.191.18c-.96 0-1.788-.264-2.484-.792-.684-.528-1.212-1.272-1.584-2.232-.372-.972-.558-2.124-.558-3.456 0-1.332.186-2.478.558-3.438.372-.972.9-1.722 1.584-2.25.696-.528 1.524-.792 2.484-.792s1.788.264 2.484.792 1.23 1.278 1.602 2.25c.372.96.558 2.106.558 3.438 0 1.332-.186 2.484-.558 3.456-.372.96-.906 1.704-1.602 2.232-.696.528-1.524.792-2.484.792Zm0-1.764c.876 0 1.554-.408 2.034-1.224.48-.828.72-1.992.72-3.492s-.24-2.658-.72-3.474c-.48-.828-1.158-1.242-2.034-1.242-.876 0-1.554.414-2.034 1.242-.48.816-.72 1.974-.72 3.474 0 1.5.24 2.664.72 3.492.48.816 1.158 1.224 2.034 1.224ZM434.454 507.18c-.96 0-1.788-.264-2.484-.792-.684-.528-1.212-1.272-1.584-2.232-.372-.972-.558-2.124-.558-3.456 0-1.332.186-2.478.558-3.438.372-.972.9-1.722 1.584-2.25.696-.528 1.524-.792 2.484-.792s1.788.264 2.484.792 1.23 1.278 1.602 2.25c.372.96.558 2.106.558 3.438 0 1.332-.186 2.484-.558 3.456-.372.96-.906 1.704-1.602 2.232-.696.528-1.524.792-2.484.792Zm0-1.764c.876 0 1.554-.408 2.034-1.224.48-.828.72-1.992.72-3.492s-.24-2.658-.72-3.474c-.48-.828-1.158-1.242-2.034-1.242-.876 0-1.554.414-2.034 1.242-.48.816-.72 1.974-.72 3.474 0 1.5.24 2.664.72 3.492.48.816 1.158 1.224 2.034 1.224Zm9.134 1.584-.072-.18 3.744-7.956.054 1.494c-.276.468-.6.876-.972 1.224a4.211 4.211 0 0 1-1.206.774c-.432.18-.87.27-1.314.27-.684 0-1.314-.18-1.89-.54a4.088 4.088 0 0 1-1.386-1.44 3.842 3.842 0 0 1-.522-1.962c0-.852.192-1.614.576-2.286a4.32 4.32 0 0 1 1.566-1.62 4.349 4.349 0 0 1 2.25-.594c.6 0 1.164.108 1.692.324.528.216.99.522 1.386.918.396.384.708.834.936 1.35.228.504.342 1.044.342 1.62 0 .3-.03.624-.09.972-.06.336-.162.72-.306 1.152-.132.42-.312.906-.54 1.458-.228.54-.51 1.17-.846 1.89L445.496 507h-1.908Zm.648-6.174c.468 0 .888-.102 1.26-.306a2.34 2.34 0 0 0 1.188-2.052c0-.468-.102-.888-.306-1.26a2.229 2.229 0 0 0-.864-.9 2.367 2.367 0 0 0-1.242-.324c-.432 0-.816.108-1.152.324a2.252 2.252 0 0 0-.81.864c-.192.36-.288.786-.288 1.278 0 .42.096.81.288 1.17.204.36.474.654.81.882.336.216.708.324 1.116.324Zm4.139 8.55 7.416-14.976h1.782l-7.398 14.976h-1.8Zm13.803-2.196c-.96 0-1.788-.264-2.484-.792-.684-.528-1.212-1.272-1.584-2.232-.372-.972-.558-2.124-.558-3.456 0-1.332.186-2.478.558-3.438.372-.972.9-1.722 1.584-2.25.696-.528 1.524-.792 2.484-.792s1.788.264 2.484.792 1.23 1.278 1.602 2.25c.372.96.558 2.106.558 3.438 0 1.332-.186 2.484-.558 3.456-.372.96-.906 1.704-1.602 2.232-.696.528-1.524.792-2.484.792Zm0-1.764c.876 0 1.554-.408 2.034-1.224.48-.828.72-1.992.72-3.492s-.24-2.658-.72-3.474c-.48-.828-1.158-1.242-2.034-1.242-.876 0-1.554.414-2.034 1.242-.48.816-.72 1.974-.72 3.474 0 1.5.24 2.664.72 3.492.48.816 1.158 1.224 2.034 1.224Zm9.134 1.584-.072-.18 3.744-7.956.054 1.494c-.276.468-.6.876-.972 1.224a4.211 4.211 0 0 1-1.206.774c-.432.18-.87.27-1.314.27-.684 0-1.314-.18-1.89-.54a4.088 4.088 0 0 1-1.386-1.44 3.842 3.842 0 0 1-.522-1.962c0-.852.192-1.614.576-2.286a4.32 4.32 0 0 1 1.566-1.62 4.349 4.349 0 0 1 2.25-.594c.6 0 1.164.108 1.692.324.528.216.99.522 1.386.918.396.384.708.834.936 1.35.228.504.342 1.044.342 1.62 0 .3-.03.624-.09.972-.06.336-.162.72-.306 1.152-.132.42-.312.906-.54 1.458-.228.54-.51 1.17-.846 1.89L473.22 507h-1.908Zm.648-6.174c.468 0 .888-.102 1.26-.306a2.34 2.34 0 0 0 1.188-2.052c0-.468-.102-.888-.306-1.26a2.229 2.229 0 0 0-.864-.9 2.367 2.367 0 0 0-1.242-.324c-.432 0-.816.108-1.152.324a2.252 2.252 0 0 0-.81.864c-.192.36-.288.786-.288 1.278 0 .42.096.81.288 1.17.204.36.474.654.81.882.336.216.708.324 1.116.324Zm4.139 8.55 7.416-14.976h1.782l-7.398 14.976h-1.8ZM486.474 507l-.594-1.476 3.852-4.338c.204-.216.414-.462.63-.738.228-.288.444-.582.648-.882.204-.3.366-.594.486-.882.132-.3.198-.582.198-.846 0-.384-.078-.708-.234-.972a1.433 1.433 0 0 0-.648-.63c-.276-.144-.612-.216-1.008-.216-.348 0-.69.102-1.026.306a3.266 3.266 0 0 0-.918.864 4.374 4.374 0 0 0-.648 1.296l-1.494-.936c.204-.696.51-1.29.918-1.782.42-.504.918-.888 1.494-1.152a4.604 4.604 0 0 1 1.908-.396c.708 0 1.338.15 1.89.45.552.288.984.696 1.296 1.224.312.516.468 1.116.468 1.8 0 .348-.048.708-.144 1.08-.096.36-.252.738-.468 1.134a9.695 9.695 0 0 1-.792 1.26c-.324.432-.714.894-1.17 1.386l-2.862 3.114-.36-.54h6.192V507h-7.614Zm13.191.18c-.96 0-1.788-.264-2.484-.792-.684-.528-1.212-1.272-1.584-2.232-.372-.972-.558-2.124-.558-3.456 0-1.332.186-2.478.558-3.438.372-.972.9-1.722 1.584-2.25.696-.528 1.524-.792 2.484-.792s1.788.264 2.484.792 1.23 1.278 1.602 2.25c.372.96.558 2.106.558 3.438 0 1.332-.186 2.484-.558 3.456-.372.96-.906 1.704-1.602 2.232-.696.528-1.524.792-2.484.792Zm0-1.764c.876 0 1.554-.408 2.034-1.224.48-.828.72-1.992.72-3.492s-.24-2.658-.72-3.474c-.48-.828-1.158-1.242-2.034-1.242-.876 0-1.554.414-2.034 1.242-.48.816-.72 1.974-.72 3.474 0 1.5.24 2.664.72 3.492.48.816 1.158 1.224 2.034 1.224Zm6.704 1.584-.594-1.476 3.852-4.338c.204-.216.414-.462.63-.738.228-.288.444-.582.648-.882.204-.3.366-.594.486-.882.132-.3.198-.582.198-.846 0-.384-.078-.708-.234-.972a1.433 1.433 0 0 0-.648-.63c-.276-.144-.612-.216-1.008-.216-.348 0-.69.102-1.026.306a3.266 3.266 0 0 0-.918.864 4.374 4.374 0 0 0-.648 1.296l-1.494-.936c.204-.696.51-1.29.918-1.782.42-.504.918-.888 1.494-1.152a4.604 4.604 0 0 1 1.908-.396c.708 0 1.338.15 1.89.45.552.288.984.696 1.296 1.224.312.516.468 1.116.468 1.8 0 .348-.048.708-.144 1.08-.096.36-.252.738-.468 1.134a9.695 9.695 0 0 1-.792 1.26c-.324.432-.714.894-1.17 1.386l-2.862 3.114-.36-.54h6.192V507h-7.614Zm13.191.18c-.96 0-1.788-.264-2.484-.792-.684-.528-1.212-1.272-1.584-2.232-.372-.972-.558-2.124-.558-3.456 0-1.332.186-2.478.558-3.438.372-.972.9-1.722 1.584-2.25.696-.528 1.524-.792 2.484-.792s1.788.264 2.484.792 1.23 1.278 1.602 2.25c.372.96.558 2.106.558 3.438 0 1.332-.186 2.484-.558 3.456-.372.96-.906 1.704-1.602 2.232-.696.528-1.524.792-2.484.792Zm0-1.764c.876 0 1.554-.408 2.034-1.224.48-.828.72-1.992.72-3.492s-.24-2.658-.72-3.474c-.48-.828-1.158-1.242-2.034-1.242-.876 0-1.554.414-2.034 1.242-.48.816-.72 1.974-.72 3.474 0 1.5.24 2.664.72 3.492.48.816 1.158 1.224 2.034 1.224ZM248.454 507.18c-.96 0-1.788-.264-2.484-.792-.684-.528-1.212-1.272-1.584-2.232-.372-.972-.558-2.124-.558-3.456 0-1.332.186-2.478.558-3.438.372-.972.9-1.722 1.584-2.25.696-.528 1.524-.792 2.484-.792s1.788.264 2.484.792 1.23 1.278 1.602 2.25c.372.96.558 2.106.558 3.438 0 1.332-.186 2.484-.558 3.456-.372.96-.906 1.704-1.602 2.232-.696.528-1.524.792-2.484.792Zm0-1.764c.876 0 1.554-.408 2.034-1.224.48-.828.72-1.992.72-3.492s-.24-2.658-.72-3.474c-.48-.828-1.158-1.242-2.034-1.242-.876 0-1.554.414-2.034 1.242-.48.816-.72 1.974-.72 3.474 0 1.5.24 2.664.72 3.492.48.816 1.158 1.224 2.034 1.224Zm9.134 1.584-.072-.18 3.744-7.956.054 1.494c-.276.468-.6.876-.972 1.224a4.211 4.211 0 0 1-1.206.774c-.432.18-.87.27-1.314.27-.684 0-1.314-.18-1.89-.54a4.088 4.088 0 0 1-1.386-1.44 3.842 3.842 0 0 1-.522-1.962c0-.852.192-1.614.576-2.286a4.32 4.32 0 0 1 1.566-1.62 4.349 4.349 0 0 1 2.25-.594c.6 0 1.164.108 1.692.324.528.216.99.522 1.386.918.396.384.708.834.936 1.35.228.504.342 1.044.342 1.62 0 .3-.03.624-.09.972-.06.336-.162.72-.306 1.152-.132.42-.312.906-.54 1.458-.228.54-.51 1.17-.846 1.89L259.496 507h-1.908Zm.648-6.174c.468 0 .888-.102 1.26-.306a2.34 2.34 0 0 0 1.188-2.052c0-.468-.102-.888-.306-1.26a2.229 2.229 0 0 0-.864-.9 2.367 2.367 0 0 0-1.242-.324c-.432 0-.816.108-1.152.324a2.252 2.252 0 0 0-.81.864c-.192.36-.288.786-.288 1.278 0 .42.096.81.288 1.17.204.36.474.654.81.882.336.216.708.324 1.116.324Zm4.139 8.55 7.416-14.976h1.782l-7.398 14.976h-1.8Zm13.803-2.196c-.96 0-1.788-.264-2.484-.792-.684-.528-1.212-1.272-1.584-2.232-.372-.972-.558-2.124-.558-3.456 0-1.332.186-2.478.558-3.438.372-.972.9-1.722 1.584-2.25.696-.528 1.524-.792 2.484-.792s1.788.264 2.484.792 1.23 1.278 1.602 2.25c.372.96.558 2.106.558 3.438 0 1.332-.186 2.484-.558 3.456-.372.96-.906 1.704-1.602 2.232-.696.528-1.524.792-2.484.792Zm0-1.764c.876 0 1.554-.408 2.034-1.224.48-.828.72-1.992.72-3.492s-.24-2.658-.72-3.474c-.48-.828-1.158-1.242-2.034-1.242-.876 0-1.554.414-2.034 1.242-.48.816-.72 1.974-.72 3.474 0 1.5.24 2.664.72 3.492.48.816 1.158 1.224 2.034 1.224Zm9.134 1.584-.072-.18 3.744-7.956.054 1.494c-.276.468-.6.876-.972 1.224a4.211 4.211 0 0 1-1.206.774c-.432.18-.87.27-1.314.27-.684 0-1.314-.18-1.89-.54a4.088 4.088 0 0 1-1.386-1.44 3.842 3.842 0 0 1-.522-1.962c0-.852.192-1.614.576-2.286a4.32 4.32 0 0 1 1.566-1.62 4.349 4.349 0 0 1 2.25-.594c.6 0 1.164.108 1.692.324.528.216.99.522 1.386.918.396.384.708.834.936 1.35.228.504.342 1.044.342 1.62 0 .3-.03.624-.09.972-.06.336-.162.72-.306 1.152-.132.42-.312.906-.54 1.458-.228.54-.51 1.17-.846 1.89L287.22 507h-1.908Zm.648-6.174c.468 0 .888-.102 1.26-.306a2.34 2.34 0 0 0 1.188-2.052c0-.468-.102-.888-.306-1.26a2.229 2.229 0 0 0-.864-.9 2.367 2.367 0 0 0-1.242-.324c-.432 0-.816.108-1.152.324a2.252 2.252 0 0 0-.81.864c-.192.36-.288.786-.288 1.278 0 .42.096.81.288 1.17.204.36.474.654.81.882.336.216.708.324 1.116.324Zm4.139 8.55 7.416-14.976h1.782l-7.398 14.976h-1.8ZM300.474 507l-.594-1.476 3.852-4.338c.204-.216.414-.462.63-.738.228-.288.444-.582.648-.882.204-.3.366-.594.486-.882.132-.3.198-.582.198-.846 0-.384-.078-.708-.234-.972a1.433 1.433 0 0 0-.648-.63c-.276-.144-.612-.216-1.008-.216-.348 0-.69.102-1.026.306a3.266 3.266 0 0 0-.918.864 4.374 4.374 0 0 0-.648 1.296l-1.494-.936c.204-.696.51-1.29.918-1.782.42-.504.918-.888 1.494-1.152a4.604 4.604 0 0 1 1.908-.396c.708 0 1.338.15 1.89.45.552.288.984.696 1.296 1.224.312.516.468 1.116.468 1.8 0 .348-.048.708-.144 1.08-.096.36-.252.738-.468 1.134a9.695 9.695 0 0 1-.792 1.26c-.324.432-.714.894-1.17 1.386l-2.862 3.114-.36-.54h6.192V507h-7.614Zm13.191.18c-.96 0-1.788-.264-2.484-.792-.684-.528-1.212-1.272-1.584-2.232-.372-.972-.558-2.124-.558-3.456 0-1.332.186-2.478.558-3.438.372-.972.9-1.722 1.584-2.25.696-.528 1.524-.792 2.484-.792s1.788.264 2.484.792 1.23 1.278 1.602 2.25c.372.96.558 2.106.558 3.438 0 1.332-.186 2.484-.558 3.456-.372.96-.906 1.704-1.602 2.232-.696.528-1.524.792-2.484.792Zm0-1.764c.876 0 1.554-.408 2.034-1.224.48-.828.72-1.992.72-3.492s-.24-2.658-.72-3.474c-.48-.828-1.158-1.242-2.034-1.242-.876 0-1.554.414-2.034 1.242-.48.816-.72 1.974-.72 3.474 0 1.5.24 2.664.72 3.492.48.816 1.158 1.224 2.034 1.224Zm6.704 1.584-.594-1.476 3.852-4.338c.204-.216.414-.462.63-.738.228-.288.444-.582.648-.882.204-.3.366-.594.486-.882.132-.3.198-.582.198-.846 0-.384-.078-.708-.234-.972a1.433 1.433 0 0 0-.648-.63c-.276-.144-.612-.216-1.008-.216-.348 0-.69.102-1.026.306a3.266 3.266 0 0 0-.918.864 4.374 4.374 0 0 0-.648 1.296l-1.494-.936c.204-.696.51-1.29.918-1.782.42-.504.918-.888 1.494-1.152a4.604 4.604 0 0 1 1.908-.396c.708 0 1.338.15 1.89.45.552.288.984.696 1.296 1.224.312.516.468 1.116.468 1.8 0 .348-.048.708-.144 1.08-.096.36-.252.738-.468 1.134a9.695 9.695 0 0 1-.792 1.26c-.324.432-.714.894-1.17 1.386l-2.862 3.114-.36-.54h6.192V507h-7.614Zm13.191.18c-.96 0-1.788-.264-2.484-.792-.684-.528-1.212-1.272-1.584-2.232-.372-.972-.558-2.124-.558-3.456 0-1.332.186-2.478.558-3.438.372-.972.9-1.722 1.584-2.25.696-.528 1.524-.792 2.484-.792s1.788.264 2.484.792 1.23 1.278 1.602 2.25c.372.96.558 2.106.558 3.438 0 1.332-.186 2.484-.558 3.456-.372.96-.906 1.704-1.602 2.232-.696.528-1.524.792-2.484.792Zm0-1.764c.876 0 1.554-.408 2.034-1.224.48-.828.72-1.992.72-3.492s-.24-2.658-.72-3.474c-.48-.828-1.158-1.242-2.034-1.242-.876 0-1.554.414-2.034 1.242-.48.816-.72 1.974-.72 3.474 0 1.5.24 2.664.72 3.492.48.816 1.158 1.224 2.034 1.224ZM4.906 403.118v-10.224l.666.504-2.484 1.314-.522-1.692 3.366-1.8h.936v11.898H4.906ZM2.908 404v-1.872H8.92V404H2.908Zm12.096.18c-.96 0-1.788-.264-2.484-.792-.684-.528-1.212-1.272-1.584-2.232-.372-.972-.558-2.124-.558-3.456 0-1.332.186-2.478.558-3.438.372-.972.9-1.722 1.584-2.25.696-.528 1.524-.792 2.484-.792s1.788.264 2.484.792 1.23 1.278 1.602 2.25c.372.96.558 2.106.558 3.438 0 1.332-.186 2.484-.558 3.456-.372.96-.906 1.704-1.602 2.232-.696.528-1.524.792-2.484.792Zm0-1.764c.876 0 1.554-.408 2.034-1.224.48-.828.72-1.992.72-3.492s-.24-2.658-.72-3.474c-.48-.828-1.158-1.242-2.034-1.242-.876 0-1.554.414-2.034 1.242-.48.816-.72 1.974-.72 3.474 0 1.5.24 2.664.72 3.492.48.816 1.158 1.224 2.034 1.224ZM2.674 357l-.594-1.476 3.852-4.338c.204-.216.414-.462.63-.738.228-.288.444-.582.648-.882.204-.3.366-.594.486-.882.132-.3.198-.582.198-.846 0-.384-.078-.708-.234-.972a1.433 1.433 0 0 0-.648-.63c-.276-.144-.612-.216-1.008-.216-.348 0-.69.102-1.026.306a3.266 3.266 0 0 0-.918.864 4.374 4.374 0 0 0-.648 1.296l-1.494-.936c.204-.696.51-1.29.918-1.782.42-.504.918-.888 1.494-1.152a4.604 4.604 0 0 1 1.908-.396c.708 0 1.338.15 1.89.45.552.288.984.696 1.296 1.224.312.516.468 1.116.468 1.8 0 .348-.048.708-.144 1.08-.096.36-.252.738-.468 1.134a9.695 9.695 0 0 1-.792 1.26c-.324.432-.714.894-1.17 1.386l-2.862 3.114-.36-.54h6.192V357H2.674Zm13.191.18c-.96 0-1.788-.264-2.484-.792-.684-.528-1.212-1.272-1.584-2.232-.372-.972-.558-2.124-.558-3.456 0-1.332.186-2.478.558-3.438.372-.972.9-1.722 1.584-2.25.696-.528 1.524-.792 2.484-.792s1.788.264 2.484.792 1.23 1.278 1.602 2.25c.372.96.558 2.106.558 3.438 0 1.332-.186 2.484-.558 3.456-.372.96-.906 1.704-1.602 2.232-.696.528-1.524.792-2.484.792Zm0-1.764c.876 0 1.554-.408 2.034-1.224.48-.828.72-1.992.72-3.492s-.24-2.658-.72-3.474c-.48-.828-1.158-1.242-2.034-1.242-.876 0-1.554.414-2.034 1.242-.48.816-.72 1.974-.72 3.474 0 1.5.24 2.664.72 3.492.48.816 1.158 1.224 2.034 1.224ZM5.518 310.18c-.888 0-1.662-.204-2.322-.612-.648-.408-1.26-1.092-1.836-2.052l1.512-.954c.3.444.594.81.882 1.098.3.276.606.48.918.612.312.132.642.198.99.198.42 0 .81-.102 1.17-.306.36-.216.648-.51.864-.882.216-.372.324-.792.324-1.26 0-.468-.084-.864-.252-1.188a1.668 1.668 0 0 0-.738-.756c-.324-.18-.708-.27-1.152-.27-.204 0-.42.024-.648.072-.216.036-.45.096-.702.18a8.646 8.646 0 0 0-.828.288l-.54-1.422 3.888-4.284.378.558H2.062v-1.8H9.28l.36.72-4.122 4.572-.45-.468c.096-.048.252-.09.468-.126a2.83 2.83 0 0 1 .558-.072c.528 0 1.02.102 1.476.306.468.192.87.468 1.206.828.348.348.618.762.81 1.242.204.468.306.972.306 1.512 0 .816-.198 1.548-.594 2.196a4.21 4.21 0 0 1-1.566 1.512c-.66.372-1.398.558-2.214.558Zm10.013 0c-.96 0-1.788-.264-2.484-.792-.684-.528-1.212-1.272-1.584-2.232-.372-.972-.558-2.124-.558-3.456 0-1.332.186-2.478.558-3.438.372-.972.9-1.722 1.584-2.25.696-.528 1.524-.792 2.484-.792s1.788.264 2.484.792 1.23 1.278 1.602 2.25c.372.96.558 2.106.558 3.438 0 1.332-.186 2.484-.558 3.456-.372.96-.906 1.704-1.602 2.232-.696.528-1.524.792-2.484.792Zm0-1.764c.876 0 1.554-.408 2.034-1.224.48-.828.72-1.992.72-3.492s-.24-2.658-.72-3.474c-.48-.828-1.158-1.242-2.034-1.242-.876 0-1.554.414-2.034 1.242-.48.816-.72 1.974-.72 3.474 0 1.5.24 2.664.72 3.492.48.816 1.158 1.224 2.034 1.224ZM6.336 263v-10.152l.45.108-4.14 5.058-.072-.216h7.83v1.782H1.368l-.828-1.62 6.174-7.56h1.494V263H6.336Zm9.83.18c-.96 0-1.788-.264-2.484-.792-.684-.528-1.212-1.272-1.584-2.232-.372-.972-.558-2.124-.558-3.456 0-1.332.186-2.478.558-3.438.372-.972.9-1.722 1.584-2.25.696-.528 1.524-.792 2.484-.792s1.788.264 2.484.792 1.23 1.278 1.602 2.25c.372.96.558 2.106.558 3.438 0 1.332-.186 2.484-.558 3.456-.372.96-.906 1.704-1.602 2.232-.696.528-1.524.792-2.484.792Zm0-1.764c.876 0 1.554-.408 2.034-1.224.48-.828.72-1.992.72-3.492s-.24-2.658-.72-3.474c-.48-.828-1.158-1.242-2.034-1.242-.876 0-1.554.414-2.034 1.242-.48.816-.72 1.974-.72 3.474 0 1.5.24 2.664.72 3.492.48.816 1.158 1.224 2.034 1.224ZM5.626 216.126c-.828 0-1.578-.186-2.25-.558-.672-.384-1.23-.93-1.674-1.638l1.08-1.206c.564.624 1.056 1.05 1.476 1.278.42.228.876.342 1.368.342.492 0 .936-.108 1.332-.324.396-.216.708-.51.936-.882.24-.372.36-.786.36-1.242 0-.48-.114-.906-.342-1.278a2.354 2.354 0 0 0-.882-.9 2.363 2.363 0 0 0-1.26-.342c-.228 0-.444.018-.648.054-.204.024-.45.09-.738.198-.288.108-.666.276-1.134.504l-1.026-1.386.738-5.346h6.804v1.8h-5.58l.378-.342-.594 3.996-.45-.522c.12-.12.324-.234.612-.342.288-.12.606-.216.954-.288a4.52 4.52 0 0 1 1.026-.126c.768 0 1.452.18 2.052.54a3.738 3.738 0 0 1 1.44 1.458c.36.624.54 1.338.54 2.142 0 .828-.198 1.578-.594 2.25a4.46 4.46 0 0 1-1.62 1.584c-.684.384-1.452.576-2.304.576Zm10.609.054c-.96 0-1.788-.264-2.484-.792-.684-.528-1.212-1.272-1.584-2.232-.372-.972-.558-2.124-.558-3.456 0-1.332.186-2.478.558-3.438.372-.972.9-1.722 1.584-2.25.696-.528 1.524-.792 2.484-.792s1.788.264 2.484.792 1.23 1.278 1.602 2.25c.372.96.558 2.106.558 3.438 0 1.332-.186 2.484-.558 3.456-.372.96-.906 1.704-1.602 2.232-.696.528-1.524.792-2.484.792Zm0-1.764c.876 0 1.554-.408 2.034-1.224.48-.828.72-1.992.72-3.492s-.24-2.658-.72-3.474c-.48-.828-1.158-1.242-2.034-1.242-.876 0-1.554.414-2.034 1.242-.48.816-.72 1.974-.72 3.474 0 1.5.24 2.664.72 3.492.48.816 1.158 1.224 2.034 1.224ZM6.094 169a4.658 4.658 0 0 1-1.746-.324 4.415 4.415 0 0 1-1.386-.936 4.518 4.518 0 0 1-.918-1.404 4.757 4.757 0 0 1-.324-1.782c0-.432.078-.936.234-1.512.168-.576.408-1.206.72-1.89.324-.684.72-1.416 1.188-2.196l1.638-2.772h1.89l.072.18-1.98 3.33c-.36.612-.684 1.194-.972 1.746-.276.552-.51 1.074-.702 1.566-.192.48-.336.918-.432 1.314l-.432-1.854c.3-.492.636-.906 1.008-1.242a3.908 3.908 0 0 1 1.206-.756c.432-.18.894-.27 1.386-.27.696 0 1.332.192 1.908.576.588.372 1.056.87 1.404 1.494.36.624.54 1.308.54 2.052 0 .9-.186 1.704-.558 2.412a4.196 4.196 0 0 1-1.512 1.656c-.648.408-1.392.612-2.232.612Zm0-1.8c.468 0 .882-.108 1.242-.324.372-.228.66-.54.864-.936.216-.408.324-.87.324-1.386 0-.444-.108-.858-.324-1.242a2.65 2.65 0 0 0-.864-.954c-.36-.24-.762-.36-1.206-.36-.492 0-.93.114-1.314.342a2.447 2.447 0 0 0-.9.918c-.216.384-.324.81-.324 1.278 0 .504.108.96.324 1.368.216.396.51.714.882.954.372.228.804.342 1.296.342Zm9.93 1.98c-.96 0-1.788-.264-2.484-.792-.684-.528-1.212-1.272-1.584-2.232-.372-.972-.558-2.124-.558-3.456 0-1.332.186-2.478.558-3.438.372-.972.9-1.722 1.584-2.25.696-.528 1.524-.792 2.484-.792s1.788.264 2.484.792 1.23 1.278 1.602 2.25c.372.96.558 2.106.558 3.438 0 1.332-.186 2.484-.558 3.456-.372.96-.906 1.704-1.602 2.232-.696.528-1.524.792-2.484.792Zm0-1.764c.876 0 1.554-.408 2.034-1.224.48-.828.72-1.992.72-3.492s-.24-2.658-.72-3.474c-.48-.828-1.158-1.242-2.034-1.242-.876 0-1.554.414-2.034 1.242-.48.816-.72 1.974-.72 3.474 0 1.5.24 2.664.72 3.492.48.816 1.158 1.224 2.034 1.224ZM3.016 122l5.22-11.376.216.576H2.08v-1.8h7.794l.252 1.242L5.104 122H3.016Zm12.744.18c-.96 0-1.788-.264-2.484-.792-.684-.528-1.212-1.272-1.584-2.232-.372-.972-.558-2.124-.558-3.456 0-1.332.186-2.478.558-3.438.372-.972.9-1.722 1.584-2.25.696-.528 1.524-.792 2.484-.792s1.788.264 2.484.792 1.23 1.278 1.602 2.25c.372.96.558 2.106.558 3.438 0 1.332-.186 2.484-.558 3.456-.372.96-.906 1.704-1.602 2.232-.696.528-1.524.792-2.484.792Zm0-1.764c.876 0 1.554-.408 2.034-1.224.48-.828.72-1.992.72-3.492s-.24-2.658-.72-3.474c-.48-.828-1.158-1.242-2.034-1.242-.876 0-1.554.414-2.034 1.242-.48.816-.72 1.974-.72 3.474 0 1.5.24 2.664.72 3.492.48.816 1.158 1.224 2.034 1.224ZM6.202 75.054c-.78 0-1.494-.162-2.142-.486a4.237 4.237 0 0 1-1.53-1.332 3.143 3.143 0 0 1-.576-1.836c0-.372.048-.72.144-1.044a3.16 3.16 0 0 1 .468-.918 4.21 4.21 0 0 1 .774-.756c.3-.228.648-.432 1.044-.612l-.108.378c-.42-.156-.78-.36-1.08-.612a2.954 2.954 0 0 1-.702-.9 2.575 2.575 0 0 1-.234-1.098c0-.636.174-1.212.522-1.728a3.97 3.97 0 0 1 1.422-1.242 4.265 4.265 0 0 1 1.998-.468c.732 0 1.392.156 1.98.468.6.312 1.074.726 1.422 1.242.36.516.54 1.092.54 1.728 0 .396-.078.756-.234 1.08a2.784 2.784 0 0 1-.684.882 4.14 4.14 0 0 1-1.116.648l-.054-.306c.48.192.9.456 1.26.792s.642.72.846 1.152c.204.42.306.858.306 1.314 0 .684-.192 1.302-.576 1.854-.384.552-.9.99-1.548 1.314-.636.324-1.35.486-2.142.486Zm0-1.8a2.7 2.7 0 0 0 1.188-.252c.36-.168.642-.396.846-.684a1.67 1.67 0 0 0 .306-.99c0-.396-.102-.744-.306-1.044a2.117 2.117 0 0 0-.846-.738 2.548 2.548 0 0 0-1.188-.27c-.444 0-.84.09-1.188.27-.348.18-.624.426-.828.738-.204.3-.306.648-.306 1.044 0 .36.102.684.306.972.204.288.48.522.828.702a2.7 2.7 0 0 0 1.188.252Zm0-5.706c.384 0 .726-.072 1.026-.216.312-.144.552-.336.72-.576.18-.252.27-.54.27-.864 0-.324-.09-.612-.27-.864a1.691 1.691 0 0 0-.72-.594 2.191 2.191 0 0 0-1.026-.234c-.384 0-.732.078-1.044.234-.3.144-.54.342-.72.594-.168.252-.252.54-.252.864 0 .324.084.612.252.864.18.24.42.432.72.576.312.144.66.216 1.044.216Zm10.226 7.632c-.96 0-1.788-.264-2.484-.792-.684-.528-1.212-1.272-1.584-2.232-.372-.972-.558-2.124-.558-3.456 0-1.332.186-2.478.558-3.438.372-.972.9-1.722 1.584-2.25.696-.528 1.524-.792 2.484-.792s1.788.264 2.484.792 1.23 1.278 1.602 2.25c.372.96.558 2.106.558 3.438 0 1.332-.186 2.484-.558 3.456-.372.96-.906 1.704-1.602 2.232-.696.528-1.524.792-2.484.792Zm0-1.764c.876 0 1.554-.408 2.034-1.224.48-.828.72-1.992.72-3.492s-.24-2.658-.72-3.474c-.48-.828-1.158-1.242-2.034-1.242-.876 0-1.554.414-2.034 1.242-.48.816-.72 1.974-.72 3.474 0 1.5.24 2.664.72 3.492.48.816 1.158 1.224 2.034 1.224Z" fill="#fff" fill-opacity=".36"/><path d="M5.78 19V8.02H1.66V5h11.8v3.02H9.2V19H5.78Zm8.054 0V8.38h3.06l.14 3.46-.6-.68c.174-.56.44-1.067.8-1.52a4.13 4.13 0 0 1 1.28-1.08 3.35 3.35 0 0 1 1.58-.4c.24 0 .46.02.66.06.214.027.4.073.56.14l-.86 3.54a2.242 2.242 0 0 0-.6-.2c-.24-.067-.493-.1-.76-.1a2.09 2.09 0 0 0-.82.16 1.84 1.84 0 0 0-.64.42 2.231 2.231 0 0 0-.42.66c-.093.253-.14.54-.14.86V19h-3.24Zm13.232.2c-1.173 0-2.2-.233-3.08-.7a5.099 5.099 0 0 1-2.02-1.92c-.466-.827-.7-1.767-.7-2.82 0-.827.134-1.58.4-2.26a5.188 5.188 0 0 1 1.12-1.78 5.17 5.17 0 0 1 1.72-1.14 5.573 5.573 0 0 1 2.18-.42c.747 0 1.427.133 2.04.4a4.82 4.82 0 0 1 2.64 2.82c.24.653.354 1.367.34 2.14l-.02.88h-8.44l-.48-1.82h6.3l-.34.36v-.4a1.57 1.57 0 0 0-.32-.86 1.81 1.81 0 0 0-.7-.6c-.28-.147-.6-.22-.96-.22-.533 0-.986.107-1.36.32-.36.2-.633.493-.82.88-.186.387-.28.867-.28 1.44s.12 1.08.36 1.52c.253.44.613.78 1.08 1.02.48.24 1.047.36 1.7.36.44 0 .84-.067 1.2-.2s.747-.36 1.16-.68l1.5 2.12c-.413.347-.853.64-1.32.88a6.363 6.363 0 0 1-1.44.5c-.48.12-.966.18-1.46.18Zm6.178-.2V8.38h3.06l.12 2.16-.66.24c.147-.48.407-.913.78-1.3.387-.4.847-.72 1.38-.96a4.049 4.049 0 0 1 1.68-.36c.8 0 1.474.167 2.02.5.547.32.954.807 1.22 1.46.28.64.42 1.433.42 2.38V19h-3.22v-6.26c0-.427-.06-.78-.18-1.06a1.24 1.24 0 0 0-.54-.62c-.24-.133-.54-.193-.9-.18-.28 0-.54.047-.78.14a1.739 1.739 0 0 0-1.04.94c-.093.213-.14.453-.14.72V19h-3.22Zm16.255.2a4.486 4.486 0 0 1-2.46-.7c-.72-.467-1.286-1.113-1.7-1.94-.413-.84-.62-1.793-.62-2.86s.207-2.013.62-2.84c.414-.84.98-1.5 1.7-1.98.734-.48 1.56-.72 2.48-.72.48 0 .94.073 1.38.22.454.147.854.347 1.2.6.36.253.654.54.88.86.227.32.367.66.42 1.02l-.78.18V4.2h3.22V19h-3l-.18-2.4.64.12c-.026.32-.146.633-.36.94-.213.293-.5.56-.86.8-.346.227-.74.407-1.18.54-.44.133-.906.2-1.4.2Zm.8-2.66c.494 0 .914-.113 1.26-.34.36-.24.64-.573.84-1 .2-.427.3-.927.3-1.5 0-.587-.1-1.093-.3-1.52-.2-.427-.48-.753-.84-.98-.346-.24-.766-.36-1.26-.36-.48 0-.9.12-1.26.36-.346.227-.62.553-.82.98-.2.427-.3.933-.3 1.52 0 .573.1 1.073.3 1.5.2.427.474.76.82 1 .36.227.78.34 1.26.34ZM475.351 19l-4.22-14h3.48l2.12 7.36c.12.427.22.867.3 1.32.08.44.147.853.2 1.24.054.373.087.667.1.88l-.46.02c.094-.507.167-.953.22-1.34a11.39 11.39 0 0 1 .5-2.12l2.1-5.54h2.74l2.06 5.54c.16.44.287.86.38 1.26.107.387.187.753.24 1.1.067.333.12.667.16 1l-.42.08c.027-.253.047-.48.06-.68.027-.2.047-.393.06-.58a8.896 8.896 0 0 1 .18-1.3c.054-.267.127-.567.22-.9l2.08-7.34h3.42l-4.22 14h-2.6l-3.34-8.04.38.04-3.06 8h-2.68Zm21.113.2c-1.173 0-2.2-.233-3.08-.7a5.103 5.103 0 0 1-2.02-1.92c-.466-.827-.7-1.767-.7-2.82 0-.827.134-1.58.4-2.26a5.193 5.193 0 0 1 1.12-1.78 5.18 5.18 0 0 1 1.72-1.14 5.577 5.577 0 0 1 2.18-.42c.747 0 1.427.133 2.04.4a4.81 4.81 0 0 1 1.6 1.12 4.9 4.9 0 0 1 1.04 1.7 5.85 5.85 0 0 1 .34 2.14l-.02.88h-8.44l-.48-1.82h6.3l-.34.36v-.4a1.564 1.564 0 0 0-.32-.86 1.804 1.804 0 0 0-.7-.6c-.28-.147-.6-.22-.96-.22-.533 0-.986.107-1.36.32-.36.2-.633.493-.82.88-.186.387-.28.867-.28 1.44s.12 1.08.36 1.52c.254.44.614.78 1.08 1.02.48.24 1.047.36 1.7.36.44 0 .84-.067 1.2-.2s.747-.36 1.16-.68l1.5 2.12c-.413.347-.853.64-1.32.88a6.343 6.343 0 0 1-1.44.5c-.48.12-.966.18-1.46.18Zm11.239 0c-1.174 0-2.2-.233-3.08-.7a5.096 5.096 0 0 1-2.02-1.92c-.467-.827-.7-1.767-.7-2.82 0-.827.133-1.58.4-2.26a5.178 5.178 0 0 1 1.12-1.78 5.16 5.16 0 0 1 1.72-1.14 5.57 5.57 0 0 1 2.18-.42c.746 0 1.426.133 2.04.4a4.83 4.83 0 0 1 2.64 2.82 5.87 5.87 0 0 1 .34 2.14l-.02.88h-8.44l-.48-1.82h6.3l-.34.36v-.4a1.579 1.579 0 0 0-.32-.86 1.818 1.818 0 0 0-.7-.6c-.28-.147-.6-.22-.96-.22-.534 0-.987.107-1.36.32-.36.2-.634.493-.82.88-.187.387-.28.867-.28 1.44s.12 1.08.36 1.52c.253.44.613.78 1.08 1.02.48.24 1.046.36 1.7.36.44 0 .84-.067 1.2-.2s.746-.36 1.16-.68l1.5 2.12c-.414.347-.854.64-1.32.88a6.377 6.377 0 0 1-1.44.5 6 6 0 0 1-1.46.18Zm9.258-3.32-1.14-2.44 4.94-5.06h4.22l-8.02 7.5Zm-3.08 3.12V4.2h3.22V19h-3.22Zm7.18 0-3.7-4.8 2.28-1.76 5.24 6.56h-3.82ZM448.293 16.707a1 1 0 0 0 1.414 0l6.364-6.364a.999.999 0 1 0-1.414-1.414L449 14.586l-5.657-5.657a1 1 0 1 0-1.414 1.414l6.364 6.364ZM448 15v1h2v-1h-2Z" fill="#fff"/><path d="M524 68H59v382h465V68ZM58 114h467" stroke="#515151" stroke-width="2"/><path d="M106 451V67" stroke="#515151" stroke-width="2" stroke-dasharray="4 4"/><path d="M241.5 451V67" stroke="#8C8C8C" stroke-width="3" stroke-dasharray="4 4"/><path d="M477 451V67" stroke="#515151" stroke-width="2" stroke-dasharray="4 4"/><path d="M58 161h467M58 208h467M58 255h467M58 302h467M58 349h467M58 396h467" stroke="#515151" stroke-width="2"/><path d="M164 205c6.075 0 11-4.925 11-11s-4.925-11-11-11-11 4.925-11 11 4.925 11 11 11Z" fill="#fff"/><path d="M58 293c9.624-17.589 29.868-53.877 33.85-58.32 4.978-5.554 13.938-18.052 21.903-20.829 7.965-2.777 16.925-1.388 21.903 2.778 4.978 4.165 20.907 36.102 34.846 36.102 13.938 0 27.876-2.777 30.863-6.942 2.987-4.166 8.96-15.275 11.947-22.218 2.987-6.943 5.974-19.44 12.943-22.217 6.969-2.777 15.929-2.777 21.903-2.777 5.973 0 11.947-2.777 13.938-11.109 1.991-8.331 11.947-36.102 16.925-43.045 4.978-6.943 7.965-8.332 12.943-6.943 4.978 1.388 12.942 9.72 18.916 16.663 5.973 6.943 21.903 12.497 26.881 8.331 4.978-4.165 25.676-30.935 30.863-36.102 6.969-6.943 13.938-11.109 17.921-11.109 3.982 0 14.934-2.777 22.898 9.72 7.965 12.497 8.961 22.217 11.947 29.16 2.987 6.943 7.965 16.663 13.939 16.663 5.973 0 5.466-32.306 27.243-44.435 11.279-6.281 7.956-41.738 29.505-39.37C514.837 89.5 519.026 82.776 525 80" stroke="#8D3D3B" stroke-width="3"/><path d="M59 218.5c1.375 16.972 10.456 50.303 27.78 52.198 21.654 2.368 32.997-5.921 37.122-13.025C128.027 250.568 143 209 148.65 202.02c5.985-7.393 17.53-15.393 29.905 0 12.374 15.393 27.841 55.653 48.465 55.653 20.624 0 29.904-8.289 39.185-14.21 9.281-5.92 21.655-14.209 35.06-7.104C314.67 243.463 327.626 275.5 340 275.5c12.374 0 23.875-5.448 28-9 4.125-3.552 12.858-16.437 17-23.037 4.459-7.104 19.5-56.963 47.225-56.963 7.218 0 16.95 4.758 19.275 13 5.5 19.5 25.018 12.482 28.5 9 5-5 4-15.5 21-12.5 2.031.358 21.503 10.01 22 11.5" stroke="#fff" stroke-width="3"/><path d="M58 349c11.923-8.727 40.1-27.055 57.419-30.546 21.65-4.363 45.182 19.637 69.656 19.637 24.474 0 28.239-29.455 48.006-42.545 19.767-13.091 22.591-9.819 33.887-9.819 11.295 0 35.769 8.727 49.888 0 14.12-8.727 33.887-24 48.006-44.727 14.12-20.727 22.591-31.636 39.535-33.818 16.943-2.182 23.532 13.091 26.356 16.363 2.824 3.273 5.648 17.455 16.002 17.455s36.711-7.636 44.241-17.455C497.02 215.691 514.842 183.909 523 169" stroke="#F2C14A" stroke-opacity=".44" stroke-width="3"/></svg>