<svg width="665" height="706" viewBox="0 0 665 706" fill="none" xmlns="http://www.w3.org/2000/svg">
<g clip-path="url(#clip0_355_3641)">
<path d="M142.5 240.5H100C97.7909 240.5 96 242.291 96 244.5V591.5C96 593.709 94.2091 595.5 92 595.5H30C27.7909 595.5 26 597.291 26 599.5V671C26 673.209 27.7909 675 30 675H96" stroke="#8D3D3B" stroke-width="2"/>
<path d="M412 203H148C145.791 203 144 204.791 144 207V269C144 271.209 145.791 273 148 273H412C414.209 273 416 271.209 416 269V207C416 204.791 414.209 203 412 203Z" fill="#757575"/>
<path d="M410 297H146C143.791 297 142 298.791 142 301V563C142 565.209 143.791 567 146 567H410C412.209 567 414 565.209 414 563V301C414 298.791 412.209 297 410 297Z" fill="#353535"/>
<path d="M268 613H48C45.7909 613 44 614.791 44 617V702C44 704.209 45.7909 706 48 706H268C270.209 706 272 704.209 272 702V617C272 614.791 270.209 613 268 613Z" fill="#353535"/>
<path d="M415.5 241H458C460.209 241 462 242.791 462 245V592C462 594.209 463.791 596 466 596H528C530.209 596 532 597.791 532 600V671.5C532 673.709 530.209 675.5 528 675.5H462" stroke="#8D3D3B" stroke-width="2"/>
<path d="M512.5 613H292.5C290.291 613 288.5 614.791 288.5 617V702C288.5 704.209 290.291 706 292.5 706H512.5C514.709 706 516.5 704.209 516.5 702V617C516.5 614.791 514.709 613 512.5 613Z" fill="#353535"/>
<path d="M250 634H71C68.7909 634 67 635.791 67 638V681C67 683.209 68.7909 685 71 685H250C252.209 685 254 683.209 254 681V638C254 635.791 252.209 634 250 634Z" fill="#757575"/>
<path d="M250 343H180C177.791 343 176 344.791 176 347V384C176 386.209 177.791 388 180 388H250C252.209 388 254 386.209 254 384V347C254 344.791 252.209 343 250 343Z" fill="#757575"/>
<path d="M275 410H180C177.791 410 176 411.791 176 414V451C176 453.209 177.791 455 180 455H275C277.209 455 279 453.209 279 451V414C279 411.791 277.209 410 275 410Z" fill="#757575"/>
<path d="M396 500H180C177.791 500 176 501.791 176 504V533C176 535.209 177.791 537 180 537H396C398.209 537 400 535.209 400 533V504C400 501.791 398.209 500 396 500Z" fill="#757575"/>
<path d="M184.225 246.16L190.849 232.8H192.753L186.145 246.16H184.225ZM193.466 246.16L200.09 232.8H201.994L195.386 246.16H193.466ZM205.071 244V235.568H206.991L207.023 237.28L206.703 237.408C206.799 237.131 206.943 236.875 207.135 236.64C207.327 236.395 207.556 236.181 207.823 236C208.09 235.819 208.372 235.68 208.671 235.584C208.97 235.477 209.279 235.424 209.599 235.424C210.058 235.424 210.463 235.499 210.815 235.648C211.167 235.797 211.46 236.027 211.695 236.336C211.94 236.645 212.127 237.04 212.255 237.52L211.951 237.456L212.063 237.2C212.191 236.944 212.362 236.709 212.575 236.496C212.788 236.283 213.028 236.096 213.295 235.936C213.562 235.765 213.839 235.637 214.127 235.552C214.426 235.467 214.714 235.424 214.991 235.424C215.631 235.424 216.164 235.552 216.591 235.808C217.018 236.064 217.338 236.453 217.551 236.976C217.764 237.499 217.871 238.144 217.871 238.912V244H215.903V239.04C215.903 238.4 215.775 237.925 215.519 237.616C215.274 237.307 214.89 237.152 214.367 237.152C214.09 237.152 213.834 237.2 213.599 237.296C213.364 237.381 213.156 237.509 212.975 237.68C212.804 237.84 212.671 238.032 212.575 238.256C212.479 238.469 212.431 238.709 212.431 238.976V244H210.463V239.024C210.463 238.416 210.33 237.952 210.063 237.632C209.807 237.312 209.439 237.152 208.959 237.152C208.682 237.152 208.426 237.2 208.191 237.296C207.967 237.381 207.764 237.509 207.583 237.68C207.412 237.84 207.279 238.027 207.183 238.24C207.087 238.453 207.039 238.688 207.039 238.944V244H205.071ZM225.496 244.16C224.653 244.16 223.901 243.973 223.24 243.6C222.579 243.216 222.056 242.693 221.672 242.032C221.299 241.371 221.112 240.619 221.112 239.776C221.112 238.933 221.299 238.181 221.672 237.52C222.056 236.859 222.579 236.341 223.24 235.968C223.901 235.584 224.653 235.392 225.496 235.392C226.328 235.392 227.075 235.584 227.736 235.968C228.397 236.341 228.915 236.859 229.288 237.52C229.672 238.181 229.864 238.933 229.864 239.776C229.864 240.619 229.672 241.371 229.288 242.032C228.915 242.693 228.397 243.216 227.736 243.6C227.075 243.973 226.328 244.16 225.496 244.16ZM225.496 242.416C225.955 242.416 226.365 242.304 226.728 242.08C227.091 241.845 227.373 241.531 227.576 241.136C227.789 240.731 227.891 240.277 227.88 239.776C227.891 239.264 227.789 238.811 227.576 238.416C227.373 238.011 227.091 237.696 226.728 237.472C226.365 237.248 225.955 237.136 225.496 237.136C225.037 237.136 224.621 237.253 224.248 237.488C223.885 237.712 223.603 238.027 223.4 238.432C223.197 238.827 223.096 239.275 223.096 239.776C223.096 240.277 223.197 240.731 223.4 241.136C223.603 241.531 223.885 241.845 224.248 242.08C224.621 242.304 225.037 242.416 225.496 242.416ZM237.865 244.16C237.492 244.16 237.129 244.107 236.777 244C236.425 243.883 236.1 243.728 235.801 243.536C235.513 243.344 235.273 243.131 235.081 242.896C234.889 242.651 234.761 242.405 234.697 242.16L235.161 241.952L235.113 243.952H233.225V232.16H235.177V237.504L234.841 237.36C234.894 237.104 235.012 236.864 235.193 236.64C235.374 236.405 235.604 236.197 235.881 236.016C236.158 235.824 236.462 235.675 236.793 235.568C237.124 235.451 237.465 235.392 237.817 235.392C238.564 235.392 239.225 235.584 239.801 235.968C240.388 236.341 240.846 236.859 241.177 237.52C241.518 238.171 241.689 238.923 241.689 239.776C241.689 240.619 241.524 241.371 241.193 242.032C240.862 242.693 240.404 243.216 239.817 243.6C239.241 243.973 238.59 244.16 237.865 244.16ZM237.465 242.432C237.913 242.432 238.313 242.32 238.665 242.096C239.017 241.861 239.294 241.547 239.497 241.152C239.7 240.747 239.801 240.288 239.801 239.776C239.801 239.253 239.7 238.795 239.497 238.4C239.305 237.995 239.033 237.68 238.681 237.456C238.329 237.232 237.924 237.12 237.465 237.12C236.996 237.12 236.585 237.232 236.233 237.456C235.881 237.68 235.604 237.995 235.401 238.4C235.198 238.795 235.097 239.253 235.097 239.776C235.097 240.288 235.198 240.747 235.401 241.152C235.604 241.547 235.881 241.861 236.233 242.096C236.585 242.32 236.996 242.432 237.465 242.432ZM245.268 244V235.568H247.22V244H245.268ZM246.228 233.776C245.833 233.776 245.524 233.68 245.3 233.488C245.086 233.285 244.98 233.003 244.98 232.64C244.98 232.299 245.092 232.027 245.316 231.824C245.54 231.611 245.844 231.504 246.228 231.504C246.622 231.504 246.926 231.605 247.14 231.808C247.364 232 247.476 232.277 247.476 232.64C247.476 232.971 247.364 233.243 247.14 233.456C246.916 233.669 246.612 233.776 246.228 233.776ZM251.331 244V232.16H253.283V244H251.331ZM261.008 244.16C260.123 244.16 259.339 243.979 258.656 243.616C257.984 243.243 257.456 242.736 257.072 242.096C256.699 241.445 256.512 240.699 256.512 239.856C256.512 239.195 256.619 238.592 256.832 238.048C257.045 237.504 257.344 237.035 257.728 236.64C258.112 236.235 258.565 235.925 259.088 235.712C259.621 235.488 260.197 235.376 260.816 235.376C261.381 235.376 261.899 235.483 262.368 235.696C262.848 235.909 263.264 236.203 263.616 236.576C263.968 236.939 264.235 237.376 264.416 237.888C264.608 238.389 264.699 238.939 264.688 239.536L264.672 240.24H257.856L257.472 238.88H263.024L262.784 239.152V238.784C262.752 238.464 262.645 238.181 262.464 237.936C262.283 237.68 262.048 237.483 261.76 237.344C261.483 237.195 261.173 237.12 260.832 237.12C260.309 237.12 259.867 237.221 259.504 237.424C259.141 237.616 258.864 237.904 258.672 238.288C258.491 238.672 258.4 239.147 258.4 239.712C258.4 240.256 258.512 240.731 258.736 241.136C258.971 241.541 259.301 241.856 259.728 242.08C260.155 242.304 260.651 242.416 261.216 242.416C261.611 242.416 261.973 242.352 262.304 242.224C262.645 242.096 263.008 241.867 263.392 241.536L264.352 242.88C264.064 243.147 263.733 243.376 263.36 243.568C262.997 243.749 262.613 243.893 262.208 244C261.803 244.107 261.403 244.16 261.008 244.16ZM279.135 244V238.608C279.135 238.149 278.98 237.792 278.671 237.536C278.372 237.269 277.983 237.136 277.503 237.136C277.055 237.136 276.649 237.227 276.287 237.408C275.924 237.579 275.588 237.856 275.279 238.24L274.063 237.024C274.564 236.491 275.119 236.085 275.727 235.808C276.335 235.531 276.991 235.392 277.695 235.392C278.367 235.392 278.943 235.499 279.423 235.712C279.913 235.925 280.292 236.245 280.559 236.672C280.825 237.088 280.959 237.6 280.959 238.208V244H279.135ZM276.735 244.16C276.191 244.16 275.705 244.053 275.279 243.84C274.852 243.627 274.511 243.333 274.255 242.96C274.009 242.576 273.887 242.128 273.887 241.616C273.887 241.168 273.967 240.779 274.127 240.448C274.287 240.107 274.521 239.824 274.831 239.6C275.151 239.376 275.545 239.211 276.015 239.104C276.495 238.987 277.044 238.928 277.663 238.928H280.079L279.935 240.336H277.551C277.263 240.336 277.007 240.363 276.783 240.416C276.559 240.469 276.367 240.549 276.207 240.656C276.047 240.763 275.929 240.891 275.855 241.04C275.78 241.179 275.743 241.349 275.743 241.552C275.743 241.765 275.796 241.952 275.903 242.112C276.009 242.261 276.153 242.379 276.335 242.464C276.516 242.549 276.729 242.592 276.975 242.592C277.327 242.592 277.657 242.533 277.967 242.416C278.287 242.299 278.569 242.133 278.815 241.92C279.06 241.707 279.252 241.467 279.391 241.2L279.791 242.288C279.567 242.661 279.289 242.987 278.959 243.264C278.639 243.541 278.287 243.76 277.903 243.92C277.529 244.08 277.14 244.16 276.735 244.16ZM284.637 247.52V235.568H286.557L286.589 237.472L286.253 237.328C286.317 236.997 286.499 236.688 286.797 236.4C287.096 236.112 287.459 235.877 287.885 235.696C288.323 235.515 288.776 235.424 289.245 235.424C289.992 235.424 290.653 235.611 291.229 235.984C291.816 236.357 292.275 236.875 292.605 237.536C292.947 238.187 293.117 238.933 293.117 239.776C293.117 240.619 292.952 241.371 292.621 242.032C292.291 242.683 291.832 243.2 291.245 243.584C290.669 243.957 290.013 244.144 289.277 244.144C288.787 244.144 288.312 244.048 287.853 243.856C287.405 243.664 287.027 243.413 286.717 243.104C286.408 242.795 286.211 242.475 286.125 242.144L286.605 241.904V247.52H284.637ZM288.893 242.4C289.341 242.4 289.741 242.288 290.093 242.064C290.445 241.84 290.723 241.531 290.925 241.136C291.128 240.741 291.229 240.288 291.229 239.776C291.229 239.264 291.128 238.816 290.925 238.432C290.733 238.037 290.461 237.728 290.109 237.504C289.757 237.269 289.352 237.152 288.893 237.152C288.424 237.152 288.013 237.264 287.661 237.488C287.309 237.712 287.032 238.021 286.829 238.416C286.627 238.811 286.525 239.264 286.525 239.776C286.525 240.288 286.627 240.741 286.829 241.136C287.032 241.531 287.309 241.84 287.661 242.064C288.013 242.288 288.424 242.4 288.893 242.4ZM296.472 247.52V235.568H298.392L298.424 237.472L298.088 237.328C298.152 236.997 298.333 236.688 298.632 236.4C298.93 236.112 299.293 235.877 299.72 235.696C300.157 235.515 300.61 235.424 301.08 235.424C301.826 235.424 302.488 235.611 303.064 235.984C303.65 236.357 304.109 236.875 304.44 237.536C304.781 238.187 304.952 238.933 304.952 239.776C304.952 240.619 304.786 241.371 304.456 242.032C304.125 242.683 303.666 243.2 303.08 243.584C302.504 243.957 301.848 244.144 301.112 244.144C300.621 244.144 300.146 244.048 299.688 243.856C299.24 243.664 298.861 243.413 298.552 243.104C298.242 242.795 298.045 242.475 297.96 242.144L298.44 241.904V247.52H296.472ZM300.728 242.4C301.176 242.4 301.576 242.288 301.928 242.064C302.28 241.84 302.557 241.531 302.76 241.136C302.962 240.741 303.064 240.288 303.064 239.776C303.064 239.264 302.962 238.816 302.76 238.432C302.568 238.037 302.296 237.728 301.944 237.504C301.592 237.269 301.186 237.152 300.728 237.152C300.258 237.152 299.848 237.264 299.496 237.488C299.144 237.712 298.866 238.021 298.664 238.416C298.461 238.811 298.36 239.264 298.36 239.776C298.36 240.288 298.461 240.741 298.664 241.136C298.866 241.531 299.144 241.84 299.496 242.064C299.848 242.288 300.258 242.4 300.728 242.4ZM308.322 244V232.16H310.274V244H308.322ZM314.427 244V235.568H316.379V244H314.427ZM315.387 233.776C314.992 233.776 314.683 233.68 314.459 233.488C314.246 233.285 314.139 233.003 314.139 232.64C314.139 232.299 314.251 232.027 314.475 231.824C314.699 231.611 315.003 231.504 315.387 231.504C315.782 231.504 316.086 231.605 316.299 231.808C316.523 232 316.635 232.277 316.635 232.64C316.635 232.971 316.523 233.243 316.299 233.456C316.075 233.669 315.771 233.776 315.387 233.776ZM324.091 244.16C323.302 244.16 322.592 243.968 321.963 243.584C321.334 243.2 320.838 242.677 320.475 242.016C320.112 241.355 319.931 240.608 319.931 239.776C319.931 238.944 320.112 238.197 320.475 237.536C320.838 236.875 321.334 236.352 321.963 235.968C322.592 235.584 323.302 235.392 324.091 235.392C324.838 235.392 325.52 235.541 326.139 235.84C326.768 236.128 327.248 236.523 327.579 237.024L326.507 238.336C326.347 238.112 326.144 237.909 325.899 237.728C325.654 237.547 325.387 237.403 325.099 237.296C324.822 237.189 324.55 237.136 324.283 237.136C323.803 237.136 323.376 237.253 323.003 237.488C322.64 237.712 322.352 238.027 322.139 238.432C321.926 238.827 321.819 239.275 321.819 239.776C321.819 240.277 321.926 240.725 322.139 241.12C322.363 241.515 322.662 241.829 323.035 242.064C323.408 242.299 323.824 242.416 324.283 242.416C324.571 242.416 324.843 242.373 325.099 242.288C325.355 242.192 325.6 242.059 325.835 241.888C326.08 241.717 326.304 241.504 326.507 241.248L327.579 242.56C327.227 243.029 326.731 243.413 326.091 243.712C325.451 244.011 324.784 244.16 324.091 244.16ZM335.5 244V238.608C335.5 238.149 335.346 237.792 335.036 237.536C334.738 237.269 334.348 237.136 333.868 237.136C333.42 237.136 333.015 237.227 332.652 237.408C332.29 237.579 331.954 237.856 331.644 238.24L330.428 237.024C330.93 236.491 331.484 236.085 332.092 235.808C332.7 235.531 333.356 235.392 334.06 235.392C334.732 235.392 335.308 235.499 335.788 235.712C336.279 235.925 336.658 236.245 336.924 236.672C337.191 237.088 337.324 237.6 337.324 238.208V244H335.5ZM333.1 244.16C332.556 244.16 332.071 244.053 331.644 243.84C331.218 243.627 330.876 243.333 330.62 242.96C330.375 242.576 330.252 242.128 330.252 241.616C330.252 241.168 330.332 240.779 330.492 240.448C330.652 240.107 330.887 239.824 331.196 239.6C331.516 239.376 331.911 239.211 332.38 239.104C332.86 238.987 333.41 238.928 334.028 238.928H336.444L336.3 240.336H333.916C333.628 240.336 333.372 240.363 333.148 240.416C332.924 240.469 332.732 240.549 332.572 240.656C332.412 240.763 332.295 240.891 332.22 241.04C332.146 241.179 332.108 241.349 332.108 241.552C332.108 241.765 332.162 241.952 332.268 242.112C332.375 242.261 332.519 242.379 332.7 242.464C332.882 242.549 333.095 242.592 333.34 242.592C333.692 242.592 334.023 242.533 334.332 242.416C334.652 242.299 334.935 242.133 335.18 241.92C335.426 241.707 335.618 241.467 335.756 241.2L336.156 242.288C335.932 242.661 335.655 242.987 335.324 243.264C335.004 243.541 334.652 243.76 334.268 243.92C333.895 244.08 333.506 244.16 333.1 244.16ZM341.931 244V233.424H343.883V244H341.931ZM340.267 237.392V235.568H345.723V237.392H340.267ZM349.046 244V235.568H350.998V244H349.046ZM350.006 233.776C349.611 233.776 349.302 233.68 349.078 233.488C348.864 233.285 348.758 233.003 348.758 232.64C348.758 232.299 348.87 232.027 349.094 231.824C349.318 231.611 349.622 231.504 350.006 231.504C350.4 231.504 350.704 231.605 350.918 231.808C351.142 232 351.254 232.277 351.254 232.64C351.254 232.971 351.142 233.243 350.918 233.456C350.694 233.669 350.39 233.776 350.006 233.776ZM358.934 244.16C358.091 244.16 357.339 243.973 356.678 243.6C356.016 243.216 355.494 242.693 355.11 242.032C354.736 241.371 354.55 240.619 354.55 239.776C354.55 238.933 354.736 238.181 355.11 237.52C355.494 236.859 356.016 236.341 356.678 235.968C357.339 235.584 358.091 235.392 358.934 235.392C359.766 235.392 360.512 235.584 361.174 235.968C361.835 236.341 362.352 236.859 362.726 237.52C363.11 238.181 363.302 238.933 363.302 239.776C363.302 240.619 363.11 241.371 362.726 242.032C362.352 242.693 361.835 243.216 361.174 243.6C360.512 243.973 359.766 244.16 358.934 244.16ZM358.934 242.416C359.392 242.416 359.803 242.304 360.166 242.08C360.528 241.845 360.811 241.531 361.014 241.136C361.227 240.731 361.328 240.277 361.318 239.776C361.328 239.264 361.227 238.811 361.014 238.416C360.811 238.011 360.528 237.696 360.166 237.472C359.803 237.248 359.392 237.136 358.934 237.136C358.475 237.136 358.059 237.253 357.686 237.488C357.323 237.712 357.04 238.027 356.838 238.432C356.635 238.827 356.534 239.275 356.534 239.776C356.534 240.277 356.635 240.731 356.838 241.136C357.04 241.531 357.323 241.845 357.686 242.08C358.059 242.304 358.475 242.416 358.934 242.416ZM366.662 244V235.568H368.566L368.598 237.296L368.23 237.488C368.348 237.115 368.556 236.773 368.854 236.464C369.164 236.144 369.532 235.888 369.958 235.696C370.385 235.493 370.828 235.392 371.286 235.392C371.926 235.392 372.46 235.52 372.886 235.776C373.324 236.032 373.649 236.416 373.862 236.928C374.076 237.44 374.182 238.08 374.182 238.848V244H372.23V238.992C372.23 238.555 372.172 238.197 372.054 237.92C371.937 237.632 371.756 237.424 371.51 237.296C371.265 237.157 370.966 237.099 370.614 237.12C370.326 237.12 370.06 237.168 369.814 237.264C369.569 237.349 369.356 237.477 369.174 237.648C369.004 237.808 368.865 238 368.758 238.224C368.662 238.437 368.614 238.672 368.614 238.928V244H367.638C367.457 244 367.281 244 367.11 244C366.95 244 366.801 244 366.662 244Z" fill="black"/>
<path d="M200.518 524.68L206.202 513.2H207.238L201.554 524.68H200.518ZM212.09 523.14C211.549 523.14 211.082 523.028 210.69 522.804C210.298 522.571 209.995 522.239 209.78 521.81C209.575 521.371 209.472 520.835 209.472 520.2V515.65H210.536V519.934C210.536 520.671 210.704 521.236 211.04 521.628C211.385 522.011 211.866 522.202 212.482 522.202C212.781 522.202 213.051 522.151 213.294 522.048C213.546 521.936 213.765 521.791 213.952 521.614C214.139 521.437 214.283 521.241 214.386 521.026C214.498 520.802 214.554 520.578 214.554 520.354V515.65H215.618V523H214.568L214.554 521.404L214.764 521.292C214.652 521.628 214.461 521.941 214.19 522.23C213.929 522.51 213.616 522.734 213.252 522.902C212.897 523.061 212.51 523.14 212.09 523.14ZM220.714 523.14C220.098 523.14 219.543 523.033 219.048 522.818C218.553 522.594 218.152 522.277 217.844 521.866L218.572 521.236C218.843 521.572 219.165 521.824 219.538 521.992C219.911 522.16 220.336 522.244 220.812 522.244C221.055 522.244 221.269 522.216 221.456 522.16C221.643 522.095 221.801 522.011 221.932 521.908C222.063 521.796 222.156 521.67 222.212 521.53C222.277 521.381 222.31 521.222 222.31 521.054C222.31 520.746 222.189 520.499 221.946 520.312C221.815 520.219 221.633 520.13 221.4 520.046C221.176 519.953 220.901 519.864 220.574 519.78C220.07 519.659 219.645 519.519 219.3 519.36C218.964 519.192 218.698 519.001 218.502 518.786C218.353 518.618 218.241 518.436 218.166 518.24C218.091 518.044 218.054 517.82 218.054 517.568C218.054 517.167 218.166 516.812 218.39 516.504C218.614 516.196 218.917 515.958 219.3 515.79C219.692 515.613 220.135 515.524 220.63 515.524C220.966 515.524 221.297 515.571 221.624 515.664C221.96 515.757 222.268 515.893 222.548 516.07C222.828 516.247 223.071 516.462 223.276 516.714L222.646 517.386C222.459 517.19 222.254 517.022 222.03 516.882C221.815 516.733 221.591 516.621 221.358 516.546C221.125 516.462 220.896 516.42 220.672 516.42C220.429 516.42 220.21 516.448 220.014 516.504C219.818 516.551 219.65 516.625 219.51 516.728C219.379 516.821 219.281 516.938 219.216 517.078C219.151 517.209 219.118 517.363 219.118 517.54C219.127 517.671 219.16 517.801 219.216 517.932C219.272 518.053 219.351 518.156 219.454 518.24C219.585 518.343 219.771 518.445 220.014 518.548C220.257 518.641 220.551 518.725 220.896 518.8C221.344 518.912 221.722 519.038 222.03 519.178C222.338 519.309 222.585 519.467 222.772 519.654C222.968 519.822 223.108 520.018 223.192 520.242C223.276 520.466 223.318 520.723 223.318 521.012C223.318 521.432 223.206 521.805 222.982 522.132C222.758 522.449 222.45 522.697 222.058 522.874C221.666 523.051 221.218 523.14 220.714 523.14ZM228.925 523.14C228.188 523.14 227.535 522.981 226.965 522.664C226.396 522.337 225.948 521.889 225.621 521.32C225.304 520.751 225.145 520.102 225.145 519.374C225.145 518.805 225.234 518.287 225.411 517.82C225.598 517.344 225.85 516.938 226.167 516.602C226.494 516.257 226.881 515.991 227.329 515.804C227.777 515.617 228.267 515.524 228.799 515.524C229.266 515.524 229.7 515.608 230.101 515.776C230.512 515.944 230.867 516.187 231.165 516.504C231.464 516.812 231.693 517.181 231.851 517.61C232.01 518.03 232.08 518.497 232.061 519.01L232.047 519.542H225.915L225.691 518.674H231.165L230.969 518.912L230.983 518.562C230.965 518.161 230.853 517.806 230.647 517.498C230.442 517.19 230.176 516.947 229.849 516.77C229.532 516.593 229.182 516.504 228.799 516.504C228.258 516.504 227.791 516.621 227.399 516.854C227.007 517.078 226.709 517.4 226.503 517.82C226.307 518.231 226.205 518.725 226.195 519.304C226.205 519.883 226.326 520.387 226.559 520.816C226.793 521.236 227.119 521.567 227.539 521.81C227.969 522.043 228.463 522.16 229.023 522.16C229.425 522.16 229.798 522.095 230.143 521.964C230.489 521.824 230.839 521.595 231.193 521.278L231.725 522.034C231.501 522.258 231.235 522.454 230.927 522.622C230.629 522.781 230.307 522.907 229.961 523C229.616 523.093 229.271 523.14 228.925 523.14ZM234.221 523V515.65H235.285L235.299 517.778L235.173 517.414C235.266 517.078 235.425 516.765 235.649 516.476C235.882 516.187 236.162 515.958 236.489 515.79C236.816 515.613 237.175 515.524 237.567 515.524C237.726 515.524 237.875 515.538 238.015 515.566C238.155 515.585 238.272 515.613 238.365 515.65L238.085 516.812C237.954 516.765 237.819 516.728 237.679 516.7C237.548 516.663 237.422 516.644 237.301 516.644C237.012 516.644 236.741 516.705 236.489 516.826C236.246 516.938 236.036 517.092 235.859 517.288C235.682 517.484 235.542 517.708 235.439 517.96C235.346 518.203 235.299 518.455 235.299 518.716V523H234.221ZM239.85 519.584V518.52H243.798V519.584H239.85ZM247.068 523V514.628C247.068 514.208 247.147 513.849 247.306 513.55C247.474 513.242 247.702 513.009 247.992 512.85C248.29 512.682 248.626 512.598 249 512.598C249.317 512.598 249.597 512.654 249.84 512.766C250.082 512.878 250.278 513.027 250.428 513.214L250.036 514.012C249.905 513.872 249.76 513.769 249.602 513.704C249.443 513.639 249.28 513.606 249.112 513.606C248.906 513.606 248.729 513.639 248.58 513.704C248.43 513.769 248.318 513.881 248.244 514.04C248.169 514.189 248.132 514.385 248.132 514.628V523H247.614C247.52 523 247.427 523 247.334 523C247.24 523 247.152 523 247.068 523ZM245.766 516.714V515.734H250.008V516.714H245.766ZM252.08 523V515.65H253.144L253.158 517.778L253.032 517.414C253.125 517.078 253.284 516.765 253.508 516.476C253.741 516.187 254.021 515.958 254.348 515.79C254.674 515.613 255.034 515.524 255.426 515.524C255.584 515.524 255.734 515.538 255.874 515.566C256.014 515.585 256.13 515.613 256.224 515.65L255.944 516.812C255.813 516.765 255.678 516.728 255.538 516.7C255.407 516.663 255.281 516.644 255.16 516.644C254.87 516.644 254.6 516.705 254.348 516.826C254.105 516.938 253.895 517.092 253.718 517.288C253.54 517.484 253.4 517.708 253.298 517.96C253.204 518.203 253.158 518.455 253.158 518.716V523H252.08ZM258.157 523V515.65H259.221V523H258.157ZM258.675 513.928C258.432 513.928 258.241 513.863 258.101 513.732C257.97 513.592 257.905 513.41 257.905 513.186C257.905 512.962 257.97 512.785 258.101 512.654C258.241 512.514 258.432 512.444 258.675 512.444C258.917 512.444 259.104 512.509 259.235 512.64C259.375 512.771 259.445 512.953 259.445 513.186C259.445 513.401 259.379 513.578 259.249 513.718C259.118 513.858 258.927 513.928 258.675 513.928ZM265.395 523.14C264.657 523.14 264.004 522.981 263.435 522.664C262.865 522.337 262.417 521.889 262.091 521.32C261.773 520.751 261.615 520.102 261.615 519.374C261.615 518.805 261.703 518.287 261.881 517.82C262.067 517.344 262.319 516.938 262.637 516.602C262.963 516.257 263.351 515.991 263.799 515.804C264.247 515.617 264.737 515.524 265.269 515.524C265.735 515.524 266.169 515.608 266.571 515.776C266.981 515.944 267.336 516.187 267.635 516.504C267.933 516.812 268.162 517.181 268.321 517.61C268.479 518.03 268.549 518.497 268.531 519.01L268.517 519.542H262.385L262.161 518.674H267.635L267.439 518.912L267.453 518.562C267.434 518.161 267.322 517.806 267.117 517.498C266.911 517.19 266.645 516.947 266.319 516.77C266.001 516.593 265.651 516.504 265.269 516.504C264.727 516.504 264.261 516.621 263.869 516.854C263.477 517.078 263.178 517.4 262.973 517.82C262.777 518.231 262.674 518.725 262.665 519.304C262.674 519.883 262.795 520.387 263.029 520.816C263.262 521.236 263.589 521.567 264.009 521.81C264.438 522.043 264.933 522.16 265.493 522.16C265.894 522.16 266.267 522.095 266.613 521.964C266.958 521.824 267.308 521.595 267.663 521.278L268.195 522.034C267.971 522.258 267.705 522.454 267.397 522.622C267.098 522.781 266.776 522.907 266.431 523C266.085 523.093 265.74 523.14 265.395 523.14ZM270.69 523V515.65H271.754V517.218L271.544 517.344C271.647 517.017 271.834 516.719 272.104 516.448C272.375 516.177 272.702 515.958 273.084 515.79C273.467 515.613 273.864 515.524 274.274 515.524C274.825 515.524 275.287 515.631 275.66 515.846C276.043 516.051 276.332 516.373 276.528 516.812C276.724 517.251 276.822 517.806 276.822 518.478V523H275.758V518.548C275.758 518.072 275.688 517.68 275.548 517.372C275.418 517.064 275.217 516.84 274.946 516.7C274.685 516.56 274.354 516.495 273.952 516.504C273.635 516.504 273.341 516.555 273.07 516.658C272.809 516.761 272.58 516.901 272.384 517.078C272.188 517.246 272.034 517.437 271.922 517.652C271.81 517.857 271.754 518.063 271.754 518.268V523H271.236C271.152 523 271.064 523 270.97 523C270.877 523 270.784 523 270.69 523ZM282.495 523.14C281.813 523.14 281.207 522.977 280.675 522.65C280.152 522.314 279.737 521.861 279.429 521.292C279.121 520.723 278.967 520.074 278.967 519.346C278.967 518.609 279.121 517.955 279.429 517.386C279.737 516.807 280.152 516.355 280.675 516.028C281.207 515.692 281.799 515.524 282.453 515.524C282.817 515.524 283.171 515.585 283.517 515.706C283.862 515.827 284.17 515.995 284.441 516.21C284.721 516.415 284.945 516.649 285.113 516.91C285.281 517.171 285.374 517.442 285.393 517.722H285.099V512.64H286.163V523H285.099V521.026L285.323 521.012C285.295 521.292 285.197 521.558 285.029 521.81C284.861 522.062 284.646 522.291 284.385 522.496C284.133 522.692 283.843 522.851 283.517 522.972C283.19 523.084 282.849 523.14 282.495 523.14ZM282.621 522.202C283.106 522.202 283.535 522.081 283.909 521.838C284.291 521.586 284.59 521.245 284.805 520.816C285.019 520.387 285.127 519.892 285.127 519.332C285.127 518.772 285.019 518.277 284.805 517.848C284.59 517.419 284.291 517.078 283.909 516.826C283.535 516.574 283.101 516.448 282.607 516.448C282.112 516.448 281.669 516.574 281.277 516.826C280.894 517.078 280.591 517.423 280.367 517.862C280.152 518.291 280.045 518.786 280.045 519.346C280.045 519.887 280.152 520.377 280.367 520.816C280.591 521.245 280.894 521.586 281.277 521.838C281.669 522.081 282.117 522.202 282.621 522.202ZM288.893 523V512.64H289.957V523H288.893ZM293.732 526.22L295.16 522.818L295.202 523.658L291.618 515.65H292.864L295.384 521.446C295.44 521.558 295.492 521.689 295.538 521.838C295.594 521.978 295.641 522.113 295.678 522.244L295.384 522.328C295.45 522.16 295.51 521.997 295.566 521.838C295.632 521.67 295.692 521.507 295.748 521.348L297.904 515.65H299.15L296.112 523.056L294.88 526.22H293.732ZM305.674 523V515.65H306.738V523H305.674ZM306.192 513.928C305.95 513.928 305.758 513.863 305.618 513.732C305.488 513.592 305.422 513.41 305.422 513.186C305.422 512.962 305.488 512.785 305.618 512.654C305.758 512.514 305.95 512.444 306.192 512.444C306.435 512.444 306.622 512.509 306.752 512.64C306.892 512.771 306.962 512.953 306.962 513.186C306.962 513.401 306.897 513.578 306.766 513.718C306.636 513.858 306.444 513.928 306.192 513.928ZM309.566 523V515.65H310.63V517.218L310.42 517.344C310.523 517.017 310.71 516.719 310.98 516.448C311.251 516.177 311.578 515.958 311.96 515.79C312.343 515.613 312.74 515.524 313.15 515.524C313.701 515.524 314.163 515.631 314.536 515.846C314.919 516.051 315.208 516.373 315.404 516.812C315.6 517.251 315.698 517.806 315.698 518.478V523H314.634V518.548C314.634 518.072 314.564 517.68 314.424 517.372C314.294 517.064 314.093 516.84 313.822 516.7C313.561 516.56 313.23 516.495 312.828 516.504C312.511 516.504 312.217 516.555 311.946 516.658C311.685 516.761 311.456 516.901 311.26 517.078C311.064 517.246 310.91 517.437 310.798 517.652C310.686 517.857 310.63 518.063 310.63 518.268V523H310.112C310.028 523 309.94 523 309.846 523C309.753 523 309.66 523 309.566 523ZM319.326 523V513.774H320.39V523H319.326ZM317.632 516.686V515.65H322.224V516.686H317.632ZM327.407 523.14C326.669 523.14 326.016 522.981 325.447 522.664C324.877 522.337 324.429 521.889 324.103 521.32C323.785 520.751 323.627 520.102 323.627 519.374C323.627 518.805 323.715 518.287 323.893 517.82C324.079 517.344 324.331 516.938 324.649 516.602C324.975 516.257 325.363 515.991 325.811 515.804C326.259 515.617 326.749 515.524 327.281 515.524C327.747 515.524 328.181 515.608 328.583 515.776C328.993 515.944 329.348 516.187 329.647 516.504C329.945 516.812 330.174 517.181 330.333 517.61C330.491 518.03 330.561 518.497 330.543 519.01L330.529 519.542H324.397L324.173 518.674H329.647L329.451 518.912L329.465 518.562C329.446 518.161 329.334 517.806 329.129 517.498C328.923 517.19 328.657 516.947 328.331 516.77C328.013 516.593 327.663 516.504 327.281 516.504C326.739 516.504 326.273 516.621 325.881 516.854C325.489 517.078 325.19 517.4 324.985 517.82C324.789 518.231 324.686 518.725 324.677 519.304C324.686 519.883 324.807 520.387 325.041 520.816C325.274 521.236 325.601 521.567 326.021 521.81C326.45 522.043 326.945 522.16 327.505 522.16C327.906 522.16 328.279 522.095 328.625 521.964C328.97 521.824 329.32 521.595 329.675 521.278L330.207 522.034C329.983 522.258 329.717 522.454 329.409 522.622C329.11 522.781 328.788 522.907 328.443 523C328.097 523.093 327.752 523.14 327.407 523.14ZM332.702 523V515.65H333.766L333.78 517.778L333.654 517.414C333.748 517.078 333.906 516.765 334.13 516.476C334.364 516.187 334.644 515.958 334.97 515.79C335.297 515.613 335.656 515.524 336.048 515.524C336.207 515.524 336.356 515.538 336.496 515.566C336.636 515.585 336.753 515.613 336.846 515.65L336.566 516.812C336.436 516.765 336.3 516.728 336.16 516.7C336.03 516.663 335.904 516.644 335.782 516.644C335.493 516.644 335.222 516.705 334.97 516.826C334.728 516.938 334.518 517.092 334.34 517.288C334.163 517.484 334.023 517.708 333.92 517.96C333.827 518.203 333.78 518.455 333.78 518.716V523H332.702ZM339.409 523V514.628C339.409 514.208 339.489 513.849 339.647 513.55C339.815 513.242 340.044 513.009 340.333 512.85C340.632 512.682 340.968 512.598 341.341 512.598C341.659 512.598 341.939 512.654 342.181 512.766C342.424 512.878 342.62 513.027 342.769 513.214L342.377 514.012C342.247 513.872 342.102 513.769 341.943 513.704C341.785 513.639 341.621 513.606 341.453 513.606C341.248 513.606 341.071 513.639 340.921 513.704C340.772 513.769 340.66 513.881 340.585 514.04C340.511 514.189 340.473 514.385 340.473 514.628V523H339.955C339.862 523 339.769 523 339.675 523C339.582 523 339.493 523 339.409 523ZM338.107 516.714V515.734H342.349V516.714H338.107ZM348.796 523V518.1C348.796 517.624 348.628 517.241 348.292 516.952C347.956 516.663 347.512 516.518 346.962 516.518C346.504 516.518 346.089 516.611 345.716 516.798C345.342 516.985 345.011 517.265 344.722 517.638L344.022 516.938C344.442 516.462 344.899 516.107 345.394 515.874C345.898 515.641 346.444 515.524 347.032 515.524C347.592 515.524 348.077 515.617 348.488 515.804C348.898 515.991 349.211 516.261 349.426 516.616C349.65 516.971 349.762 517.4 349.762 517.904V523H348.796ZM346.276 523.14C345.8 523.14 345.375 523.047 345.002 522.86C344.628 522.673 344.33 522.417 344.106 522.09C343.891 521.754 343.784 521.362 343.784 520.914C343.784 520.55 343.849 520.228 343.98 519.948C344.12 519.668 344.32 519.435 344.582 519.248C344.843 519.061 345.174 518.921 345.576 518.828C345.977 518.725 346.434 518.674 346.948 518.674H349.272L349.188 519.556H346.808C346.481 519.556 346.192 519.584 345.94 519.64C345.697 519.696 345.487 519.785 345.31 519.906C345.142 520.018 345.011 520.158 344.918 520.326C344.834 520.485 344.792 520.676 344.792 520.9C344.792 521.161 344.857 521.395 344.988 521.6C345.128 521.796 345.31 521.95 345.534 522.062C345.767 522.165 346.028 522.216 346.318 522.216C346.7 522.216 347.06 522.151 347.396 522.02C347.732 521.88 348.03 521.693 348.292 521.46C348.562 521.217 348.777 520.947 348.936 520.648L349.23 521.32C349.024 521.675 348.768 521.992 348.46 522.272C348.152 522.543 347.811 522.757 347.438 522.916C347.074 523.065 346.686 523.14 346.276 523.14ZM355.462 523.14C354.762 523.14 354.137 522.972 353.586 522.636C353.045 522.3 352.615 521.847 352.298 521.278C351.99 520.699 351.836 520.046 351.836 519.318C351.836 518.599 351.99 517.955 352.298 517.386C352.615 516.807 353.045 516.355 353.586 516.028C354.137 515.692 354.762 515.524 355.462 515.524C356.097 515.524 356.671 515.65 357.184 515.902C357.697 516.145 358.103 516.485 358.402 516.924L357.786 517.652C357.618 517.428 357.413 517.232 357.17 517.064C356.927 516.887 356.666 516.751 356.386 516.658C356.106 516.555 355.826 516.504 355.546 516.504C355.033 516.504 354.571 516.625 354.16 516.868C353.759 517.111 353.441 517.447 353.208 517.876C352.975 518.296 352.858 518.777 352.858 519.318C352.858 519.859 352.975 520.345 353.208 520.774C353.451 521.203 353.777 521.544 354.188 521.796C354.599 522.048 355.056 522.174 355.56 522.174C355.84 522.174 356.111 522.132 356.372 522.048C356.643 521.955 356.895 521.824 357.128 521.656C357.361 521.488 357.581 521.283 357.786 521.04L358.388 521.782C358.08 522.183 357.66 522.51 357.128 522.762C356.605 523.014 356.05 523.14 355.462 523.14ZM363.697 523.14C362.96 523.14 362.307 522.981 361.737 522.664C361.168 522.337 360.72 521.889 360.393 521.32C360.076 520.751 359.917 520.102 359.917 519.374C359.917 518.805 360.006 518.287 360.183 517.82C360.37 517.344 360.622 516.938 360.939 516.602C361.266 516.257 361.653 515.991 362.101 515.804C362.549 515.617 363.039 515.524 363.571 515.524C364.038 515.524 364.472 515.608 364.873 515.776C365.284 515.944 365.639 516.187 365.937 516.504C366.236 516.812 366.465 517.181 366.623 517.61C366.782 518.03 366.852 518.497 366.833 519.01L366.819 519.542H360.687L360.463 518.674H365.937L365.741 518.912L365.755 518.562C365.737 518.161 365.625 517.806 365.419 517.498C365.214 517.19 364.948 516.947 364.621 516.77C364.304 516.593 363.954 516.504 363.571 516.504C363.03 516.504 362.563 516.621 362.171 516.854C361.779 517.078 361.481 517.4 361.275 517.82C361.079 518.231 360.977 518.725 360.967 519.304C360.977 519.883 361.098 520.387 361.331 520.816C361.565 521.236 361.891 521.567 362.311 521.81C362.741 522.043 363.235 522.16 363.795 522.16C364.197 522.16 364.57 522.095 364.915 521.964C365.261 521.824 365.611 521.595 365.965 521.278L366.497 522.034C366.273 522.258 366.007 522.454 365.699 522.622C365.401 522.781 365.079 522.907 364.733 523C364.388 523.093 364.043 523.14 363.697 523.14ZM369.371 522.804L368.867 521.992L373.837 519.15V519.808L368.867 516.938L369.371 516.154L374.397 519.038V519.906L369.371 522.804Z" fill="black"/>
<path d="M97.8351 664V659.8C97.8351 659.392 97.6911 659.064 97.4031 658.816C97.1151 658.568 96.7351 658.444 96.2631 658.444C95.8711 658.444 95.5151 658.524 95.1951 658.684C94.8751 658.844 94.5911 659.084 94.3431 659.404L93.7431 658.804C94.1031 658.396 94.4951 658.092 94.9191 657.892C95.3511 657.692 95.8191 657.592 96.3231 657.592C96.8031 657.592 97.2191 657.672 97.5711 657.832C97.9231 657.992 98.1911 658.224 98.3751 658.528C98.5671 658.832 98.6631 659.2 98.6631 659.632V664H97.8351ZM95.6751 664.12C95.2671 664.12 94.9031 664.04 94.5831 663.88C94.2631 663.72 94.0071 663.5 93.8151 663.22C93.6311 662.932 93.5391 662.596 93.5391 662.212C93.5391 661.9 93.5951 661.624 93.7071 661.384C93.8271 661.144 93.9991 660.944 94.2231 660.784C94.4471 660.624 94.7311 660.504 95.0751 660.424C95.4191 660.336 95.8111 660.292 96.2511 660.292H98.2431L98.1711 661.048H96.1311C95.8511 661.048 95.6031 661.072 95.3871 661.12C95.1791 661.168 94.9991 661.244 94.8471 661.348C94.7031 661.444 94.5911 661.564 94.5111 661.708C94.4391 661.844 94.4031 662.008 94.4031 662.2C94.4031 662.424 94.4591 662.624 94.5711 662.8C94.6911 662.968 94.8471 663.1 95.0391 663.196C95.2391 663.284 95.4631 663.328 95.7111 663.328C96.0391 663.328 96.3471 663.272 96.6351 663.16C96.9231 663.04 97.1791 662.88 97.4031 662.68C97.6351 662.472 97.8191 662.24 97.9551 661.984L98.2071 662.56C98.0311 662.864 97.8111 663.136 97.5471 663.376C97.2831 663.608 96.9911 663.792 96.6711 663.928C96.3591 664.056 96.0271 664.12 95.6751 664.12ZM102.952 664.12C102.488 664.12 102.088 664.024 101.752 663.832C101.416 663.632 101.156 663.348 100.972 662.98C100.796 662.604 100.708 662.144 100.708 661.6V657.7H101.62V661.372C101.62 662.004 101.764 662.488 102.052 662.824C102.348 663.152 102.76 663.316 103.288 663.316C103.544 663.316 103.776 663.272 103.984 663.184C104.2 663.088 104.388 662.964 104.548 662.812C104.708 662.66 104.832 662.492 104.92 662.308C105.016 662.116 105.064 661.924 105.064 661.732V657.7H105.976V664H105.076L105.064 662.632L105.244 662.536C105.148 662.824 104.984 663.092 104.752 663.34C104.528 663.58 104.26 663.772 103.948 663.916C103.644 664.052 103.312 664.12 102.952 664.12ZM109.132 664V656.092H110.044V664H109.132ZM107.68 658.588V657.7H111.616V658.588H107.68ZM116.034 664.12C115.418 664.12 114.866 663.98 114.378 663.7C113.898 663.412 113.518 663.024 113.238 662.536C112.958 662.04 112.818 661.476 112.818 660.844C112.818 660.212 112.958 659.652 113.238 659.164C113.518 658.676 113.898 658.292 114.378 658.012C114.866 657.732 115.418 657.592 116.034 657.592C116.65 657.592 117.198 657.732 117.678 658.012C118.166 658.292 118.546 658.676 118.818 659.164C119.098 659.652 119.238 660.212 119.238 660.844C119.238 661.476 119.098 662.04 118.818 662.536C118.546 663.024 118.166 663.412 117.678 663.7C117.198 663.98 116.65 664.12 116.034 664.12ZM116.034 663.28C116.474 663.28 116.866 663.176 117.21 662.968C117.562 662.752 117.834 662.46 118.026 662.092C118.226 661.724 118.322 661.308 118.314 660.844C118.322 660.372 118.226 659.956 118.026 659.596C117.834 659.236 117.562 658.952 117.21 658.744C116.866 658.536 116.474 658.432 116.034 658.432C115.594 658.432 115.198 658.536 114.846 658.744C114.502 658.952 114.23 659.24 114.03 659.608C113.83 659.968 113.734 660.38 113.742 660.844C113.734 661.308 113.83 661.724 114.03 662.092C114.23 662.46 114.502 662.752 114.846 662.968C115.198 663.176 115.594 663.28 116.034 663.28ZM121.077 664V657.7H121.989L122.001 659.128L121.785 659.212C121.881 658.972 122.005 658.756 122.157 658.564C122.309 658.364 122.485 658.196 122.685 658.06C122.893 657.916 123.113 657.804 123.345 657.724C123.585 657.644 123.829 657.604 124.077 657.604C124.429 657.604 124.741 657.664 125.013 657.784C125.293 657.896 125.521 658.072 125.697 658.312C125.881 658.552 126.013 658.856 126.093 659.224H125.925L125.997 659.02C126.093 658.812 126.217 658.624 126.369 658.456C126.529 658.28 126.709 658.128 126.909 658C127.117 657.872 127.333 657.776 127.557 657.712C127.789 657.64 128.017 657.604 128.241 657.604C128.705 657.604 129.093 657.696 129.405 657.88C129.717 658.064 129.953 658.348 130.113 658.732C130.273 659.108 130.353 659.588 130.353 660.172V664H129.441V660.208C129.441 659.6 129.317 659.156 129.069 658.876C128.821 658.596 128.453 658.456 127.965 658.456C127.709 658.456 127.469 658.5 127.245 658.588C127.029 658.668 126.841 658.784 126.681 658.936C126.521 659.088 126.397 659.256 126.309 659.44C126.221 659.624 126.177 659.82 126.177 660.028V664H125.253V660.196C125.253 659.612 125.129 659.176 124.881 658.888C124.633 658.6 124.277 658.456 123.813 658.456C123.549 658.456 123.305 658.5 123.081 658.588C122.865 658.676 122.673 658.792 122.505 658.936C122.345 659.08 122.221 659.244 122.133 659.428C122.045 659.604 122.001 659.784 122.001 659.968V664H121.077ZM136.512 664V659.8C136.512 659.392 136.368 659.064 136.08 658.816C135.792 658.568 135.412 658.444 134.94 658.444C134.548 658.444 134.192 658.524 133.872 658.684C133.552 658.844 133.268 659.084 133.02 659.404L132.42 658.804C132.78 658.396 133.172 658.092 133.596 657.892C134.028 657.692 134.496 657.592 135 657.592C135.48 657.592 135.896 657.672 136.248 657.832C136.6 657.992 136.868 658.224 137.052 658.528C137.244 658.832 137.34 659.2 137.34 659.632V664H136.512ZM134.352 664.12C133.944 664.12 133.58 664.04 133.26 663.88C132.94 663.72 132.684 663.5 132.492 663.22C132.308 662.932 132.216 662.596 132.216 662.212C132.216 661.9 132.272 661.624 132.384 661.384C132.504 661.144 132.676 660.944 132.9 660.784C133.124 660.624 133.408 660.504 133.752 660.424C134.096 660.336 134.488 660.292 134.928 660.292H136.92L136.848 661.048H134.808C134.528 661.048 134.28 661.072 134.064 661.12C133.856 661.168 133.676 661.244 133.524 661.348C133.38 661.444 133.268 661.564 133.188 661.708C133.116 661.844 133.08 662.008 133.08 662.2C133.08 662.424 133.136 662.624 133.248 662.8C133.368 662.968 133.524 663.1 133.716 663.196C133.916 663.284 134.14 663.328 134.388 663.328C134.716 663.328 135.024 663.272 135.312 663.16C135.6 663.04 135.856 662.88 136.08 662.68C136.312 662.472 136.496 662.24 136.632 661.984L136.884 662.56C136.708 662.864 136.488 663.136 136.224 663.376C135.96 663.608 135.668 663.792 135.348 663.928C135.036 664.056 134.704 664.12 134.352 664.12ZM140.389 664V656.092H141.301V664H140.389ZM138.937 658.588V657.7H142.873V658.588H138.937ZM144.71 664V657.7H145.622V664H144.71ZM145.154 656.224C144.946 656.224 144.782 656.168 144.662 656.056C144.55 655.936 144.494 655.78 144.494 655.588C144.494 655.396 144.55 655.244 144.662 655.132C144.782 655.012 144.946 654.952 145.154 654.952C145.362 654.952 145.522 655.008 145.634 655.12C145.754 655.232 145.814 655.388 145.814 655.588C145.814 655.772 145.758 655.924 145.646 656.044C145.534 656.164 145.37 656.224 145.154 656.224ZM148.046 664V657.7H148.958V659.044L148.778 659.152C148.866 658.872 149.026 658.616 149.258 658.384C149.49 658.152 149.77 657.964 150.098 657.82C150.426 657.668 150.766 657.592 151.118 657.592C151.59 657.592 151.986 657.684 152.306 657.868C152.634 658.044 152.882 658.32 153.05 658.696C153.218 659.072 153.302 659.548 153.302 660.124V664H152.39V660.184C152.39 659.776 152.33 659.44 152.21 659.176C152.098 658.912 151.926 658.72 151.694 658.6C151.47 658.48 151.186 658.424 150.842 658.432C150.57 658.432 150.318 658.476 150.086 658.564C149.862 658.652 149.666 658.772 149.498 658.924C149.33 659.068 149.198 659.232 149.102 659.416C149.006 659.592 148.958 659.768 148.958 659.944V664H148.514C148.442 664 148.366 664 148.286 664C148.206 664 148.126 664 148.046 664ZM158.296 666.796C157.848 666.796 157.412 666.724 156.988 666.58C156.572 666.436 156.232 666.244 155.968 666.004L156.304 665.284C156.544 665.492 156.84 665.66 157.192 665.788C157.552 665.916 157.916 665.98 158.284 665.98C158.732 665.98 159.12 665.892 159.448 665.716C159.776 665.54 160.032 665.284 160.216 664.948C160.4 664.612 160.492 664.204 160.492 663.724V662.344L160.612 662.38C160.556 662.692 160.408 662.98 160.168 663.244C159.936 663.508 159.648 663.72 159.304 663.88C158.968 664.04 158.612 664.12 158.236 664.12C157.644 664.12 157.112 663.98 156.64 663.7C156.176 663.412 155.808 663.024 155.536 662.536C155.272 662.048 155.14 661.492 155.14 660.868C155.14 660.236 155.272 659.676 155.536 659.188C155.808 658.692 156.176 658.304 156.64 658.024C157.104 657.736 157.62 657.592 158.188 657.592C158.436 657.592 158.676 657.624 158.908 657.688C159.14 657.752 159.356 657.844 159.556 657.964C159.756 658.076 159.936 658.204 160.096 658.348C160.256 658.492 160.388 658.648 160.492 658.816C160.596 658.984 160.664 659.152 160.696 659.32L160.492 659.38L160.504 657.7H161.404V663.664C161.404 664.16 161.328 664.6 161.176 664.984C161.032 665.376 160.82 665.704 160.54 665.968C160.268 666.24 159.94 666.444 159.556 666.58C159.18 666.724 158.76 666.796 158.296 666.796ZM158.32 663.268C158.744 663.268 159.12 663.168 159.448 662.968C159.784 662.76 160.044 662.476 160.228 662.116C160.42 661.748 160.516 661.328 160.516 660.856C160.516 660.384 160.42 659.968 160.228 659.608C160.044 659.24 159.784 658.952 159.448 658.744C159.12 658.536 158.74 658.432 158.308 658.432C157.876 658.432 157.488 658.54 157.144 658.756C156.808 658.964 156.544 659.252 156.352 659.62C156.16 659.98 156.064 660.396 156.064 660.868C156.064 661.324 156.16 661.736 156.352 662.104C156.544 662.464 156.808 662.748 157.144 662.956C157.488 663.164 157.88 663.268 158.32 663.268ZM167.561 666.676V657.7H168.473L168.485 659.368L168.317 659.308C168.389 659.004 168.541 658.724 168.773 658.468C169.013 658.212 169.301 658.004 169.637 657.844C169.981 657.684 170.337 657.604 170.705 657.604C171.281 657.604 171.793 657.744 172.241 658.024C172.689 658.304 173.041 658.688 173.297 659.176C173.553 659.664 173.681 660.22 173.681 660.844C173.681 661.468 173.553 662.028 173.297 662.524C173.041 663.012 172.689 663.4 172.241 663.688C171.801 663.968 171.305 664.108 170.753 664.108C170.361 664.108 169.985 664.028 169.625 663.868C169.273 663.708 168.969 663.496 168.713 663.232C168.465 662.968 168.313 662.684 168.257 662.38L168.485 662.284V666.676H167.561ZM170.609 663.268C171.033 663.268 171.409 663.164 171.737 662.956C172.073 662.748 172.333 662.46 172.517 662.092C172.709 661.724 172.805 661.308 172.805 660.844C172.805 660.388 172.709 659.98 172.517 659.62C172.333 659.26 172.077 658.976 171.749 658.768C171.421 658.56 171.041 658.456 170.609 658.456C170.193 658.456 169.821 658.56 169.493 658.768C169.173 658.968 168.917 659.248 168.725 659.608C168.541 659.968 168.449 660.384 168.449 660.856C168.449 661.32 168.541 661.736 168.725 662.104C168.917 662.464 169.173 662.748 169.493 662.956C169.821 663.164 170.193 663.268 170.609 663.268ZM175.554 664V657.7H176.466L176.478 659.524L176.37 659.212C176.45 658.924 176.586 658.656 176.778 658.408C176.978 658.16 177.218 657.964 177.498 657.82C177.778 657.668 178.086 657.592 178.422 657.592C178.558 657.592 178.686 657.604 178.806 657.628C178.926 657.644 179.026 657.668 179.106 657.7L178.866 658.696C178.754 658.656 178.638 658.624 178.518 658.6C178.406 658.568 178.298 658.552 178.194 658.552C177.946 658.552 177.714 658.604 177.498 658.708C177.29 658.804 177.11 658.936 176.958 659.104C176.806 659.272 176.686 659.464 176.598 659.68C176.518 659.888 176.478 660.104 176.478 660.328V664H175.554ZM183.133 664.12C182.517 664.12 181.965 663.98 181.477 663.7C180.997 663.412 180.617 663.024 180.337 662.536C180.057 662.04 179.917 661.476 179.917 660.844C179.917 660.212 180.057 659.652 180.337 659.164C180.617 658.676 180.997 658.292 181.477 658.012C181.965 657.732 182.517 657.592 183.133 657.592C183.749 657.592 184.297 657.732 184.777 658.012C185.265 658.292 185.645 658.676 185.917 659.164C186.197 659.652 186.337 660.212 186.337 660.844C186.337 661.476 186.197 662.04 185.917 662.536C185.645 663.024 185.265 663.412 184.777 663.7C184.297 663.98 183.749 664.12 183.133 664.12ZM183.133 663.28C183.573 663.28 183.965 663.176 184.309 662.968C184.661 662.752 184.933 662.46 185.125 662.092C185.325 661.724 185.421 661.308 185.413 660.844C185.421 660.372 185.325 659.956 185.125 659.596C184.933 659.236 184.661 658.952 184.309 658.744C183.965 658.536 183.573 658.432 183.133 658.432C182.693 658.432 182.297 658.536 181.945 658.744C181.601 658.952 181.329 659.24 181.129 659.608C180.929 659.968 180.833 660.38 180.841 660.844C180.833 661.308 180.929 661.724 181.129 662.092C181.329 662.46 181.601 662.752 181.945 662.968C182.297 663.176 182.693 663.28 183.133 663.28ZM190.948 664.12C190.348 664.12 189.812 663.976 189.34 663.688C188.876 663.4 188.508 663.012 188.236 662.524C187.972 662.028 187.84 661.468 187.84 660.844C187.84 660.228 187.972 659.676 188.236 659.188C188.508 658.692 188.876 658.304 189.34 658.024C189.812 657.736 190.348 657.592 190.948 657.592C191.492 657.592 191.984 657.7 192.424 657.916C192.864 658.124 193.212 658.416 193.468 658.792L192.94 659.416C192.796 659.224 192.62 659.056 192.412 658.912C192.204 658.76 191.98 658.644 191.74 658.564C191.5 658.476 191.26 658.432 191.02 658.432C190.58 658.432 190.184 658.536 189.832 658.744C189.488 658.952 189.216 659.24 189.016 659.608C188.816 659.968 188.716 660.38 188.716 660.844C188.716 661.308 188.816 661.724 189.016 662.092C189.224 662.46 189.504 662.752 189.856 662.968C190.208 663.184 190.6 663.292 191.032 663.292C191.272 663.292 191.504 663.256 191.728 663.184C191.96 663.104 192.176 662.992 192.376 662.848C192.576 662.704 192.764 662.528 192.94 662.32L193.456 662.956C193.192 663.3 192.832 663.58 192.376 663.796C191.928 664.012 191.452 664.12 190.948 664.12ZM198.006 664.12C197.374 664.12 196.814 663.984 196.326 663.712C195.838 663.432 195.454 663.048 195.174 662.56C194.902 662.072 194.766 661.516 194.766 660.892C194.766 660.404 194.842 659.96 194.994 659.56C195.154 659.152 195.37 658.804 195.642 658.516C195.922 658.22 196.254 657.992 196.638 657.832C197.022 657.672 197.442 657.592 197.898 657.592C198.298 657.592 198.67 657.664 199.014 657.808C199.366 657.952 199.67 658.16 199.926 658.432C200.182 658.696 200.378 659.012 200.514 659.38C200.65 659.74 200.71 660.14 200.694 660.58L200.682 661.036H195.426L195.234 660.292H199.926L199.758 660.496L199.77 660.196C199.754 659.852 199.658 659.548 199.482 659.284C199.306 659.02 199.078 658.812 198.798 658.66C198.526 658.508 198.226 658.432 197.898 658.432C197.434 658.432 197.034 658.532 196.698 658.732C196.362 658.924 196.106 659.2 195.93 659.56C195.762 659.912 195.674 660.336 195.666 660.832C195.674 661.328 195.778 661.76 195.978 662.128C196.178 662.488 196.458 662.772 196.818 662.98C197.186 663.18 197.61 663.28 198.09 663.28C198.434 663.28 198.754 663.224 199.05 663.112C199.346 662.992 199.646 662.796 199.95 662.524L200.406 663.172C200.214 663.364 199.986 663.532 199.722 663.676C199.466 663.812 199.19 663.92 198.894 664C198.598 664.08 198.302 664.12 198.006 664.12ZM204.658 664.12C204.13 664.12 203.654 664.028 203.23 663.844C202.806 663.652 202.462 663.38 202.198 663.028L202.822 662.488C203.054 662.776 203.33 662.992 203.65 663.136C203.97 663.28 204.334 663.352 204.742 663.352C204.95 663.352 205.134 663.328 205.294 663.28C205.454 663.224 205.59 663.152 205.702 663.064C205.814 662.968 205.894 662.86 205.942 662.74C205.998 662.612 206.026 662.476 206.026 662.332C206.026 662.068 205.922 661.856 205.714 661.696C205.602 661.616 205.446 661.54 205.246 661.468C205.054 661.388 204.818 661.312 204.538 661.24C204.106 661.136 203.742 661.016 203.446 660.88C203.158 660.736 202.93 660.572 202.762 660.388C202.634 660.244 202.538 660.088 202.474 659.92C202.41 659.752 202.378 659.56 202.378 659.344C202.378 659 202.474 658.696 202.666 658.432C202.858 658.168 203.118 657.964 203.446 657.82C203.782 657.668 204.162 657.592 204.586 657.592C204.874 657.592 205.158 657.632 205.438 657.712C205.726 657.792 205.99 657.908 206.23 658.06C206.47 658.212 206.678 658.396 206.854 658.612L206.314 659.188C206.154 659.02 205.978 658.876 205.786 658.756C205.602 658.628 205.41 658.532 205.21 658.468C205.01 658.396 204.814 658.36 204.622 658.36C204.414 658.36 204.226 658.384 204.058 658.432C203.89 658.472 203.746 658.536 203.626 658.624C203.514 658.704 203.43 658.804 203.374 658.924C203.318 659.036 203.29 659.168 203.29 659.32C203.298 659.432 203.326 659.544 203.374 659.656C203.422 659.76 203.49 659.848 203.578 659.92C203.69 660.008 203.85 660.096 204.058 660.184C204.266 660.264 204.518 660.336 204.814 660.4C205.198 660.496 205.522 660.604 205.786 660.724C206.05 660.836 206.262 660.972 206.422 661.132C206.59 661.276 206.71 661.444 206.782 661.636C206.854 661.828 206.89 662.048 206.89 662.296C206.89 662.656 206.794 662.976 206.602 663.256C206.41 663.528 206.146 663.74 205.81 663.892C205.474 664.044 205.09 664.12 204.658 664.12ZM210.94 664.12C210.412 664.12 209.936 664.028 209.512 663.844C209.088 663.652 208.744 663.38 208.48 663.028L209.104 662.488C209.336 662.776 209.612 662.992 209.932 663.136C210.252 663.28 210.616 663.352 211.024 663.352C211.232 663.352 211.416 663.328 211.576 663.28C211.736 663.224 211.872 663.152 211.984 663.064C212.096 662.968 212.176 662.86 212.224 662.74C212.28 662.612 212.308 662.476 212.308 662.332C212.308 662.068 212.204 661.856 211.996 661.696C211.884 661.616 211.728 661.54 211.528 661.468C211.336 661.388 211.1 661.312 210.82 661.24C210.388 661.136 210.024 661.016 209.728 660.88C209.44 660.736 209.212 660.572 209.044 660.388C208.916 660.244 208.82 660.088 208.756 659.92C208.692 659.752 208.66 659.56 208.66 659.344C208.66 659 208.756 658.696 208.948 658.432C209.14 658.168 209.4 657.964 209.728 657.82C210.064 657.668 210.444 657.592 210.868 657.592C211.156 657.592 211.44 657.632 211.72 657.712C212.008 657.792 212.272 657.908 212.512 658.06C212.752 658.212 212.96 658.396 213.136 658.612L212.596 659.188C212.436 659.02 212.26 658.876 212.068 658.756C211.884 658.628 211.692 658.532 211.492 658.468C211.292 658.396 211.096 658.36 210.904 658.36C210.696 658.36 210.508 658.384 210.34 658.432C210.172 658.472 210.028 658.536 209.908 658.624C209.796 658.704 209.712 658.804 209.656 658.924C209.6 659.036 209.572 659.168 209.572 659.32C209.58 659.432 209.608 659.544 209.656 659.656C209.704 659.76 209.772 659.848 209.86 659.92C209.972 660.008 210.132 660.096 210.34 660.184C210.548 660.264 210.8 660.336 211.096 660.4C211.48 660.496 211.804 660.604 212.068 660.724C212.332 660.836 212.544 660.972 212.704 661.132C212.872 661.276 212.992 661.444 213.064 661.636C213.136 661.828 213.172 662.048 213.172 662.296C213.172 662.656 213.076 662.976 212.884 663.256C212.692 663.528 212.428 663.74 212.092 663.892C211.756 664.044 211.372 664.12 210.94 664.12ZM217.978 664.12C217.346 664.12 216.786 663.984 216.298 663.712C215.81 663.432 215.426 663.048 215.146 662.56C214.874 662.072 214.738 661.516 214.738 660.892C214.738 660.404 214.814 659.96 214.966 659.56C215.126 659.152 215.342 658.804 215.614 658.516C215.894 658.22 216.226 657.992 216.61 657.832C216.994 657.672 217.414 657.592 217.87 657.592C218.27 657.592 218.642 657.664 218.986 657.808C219.338 657.952 219.642 658.16 219.898 658.432C220.154 658.696 220.35 659.012 220.486 659.38C220.622 659.74 220.682 660.14 220.666 660.58L220.654 661.036H215.398L215.206 660.292H219.898L219.73 660.496L219.742 660.196C219.726 659.852 219.63 659.548 219.454 659.284C219.278 659.02 219.05 658.812 218.77 658.66C218.498 658.508 218.198 658.432 217.87 658.432C217.406 658.432 217.006 658.532 216.67 658.732C216.334 658.924 216.078 659.2 215.902 659.56C215.734 659.912 215.646 660.336 215.638 660.832C215.646 661.328 215.75 661.76 215.95 662.128C216.15 662.488 216.43 662.772 216.79 662.98C217.158 663.18 217.582 663.28 218.062 663.28C218.406 663.28 218.726 663.224 219.022 663.112C219.318 662.992 219.618 662.796 219.922 662.524L220.378 663.172C220.186 663.364 219.958 663.532 219.694 663.676C219.438 663.812 219.162 663.92 218.866 664C218.57 664.08 218.274 664.12 217.978 664.12ZM224.629 664.12C224.101 664.12 223.625 664.028 223.201 663.844C222.777 663.652 222.433 663.38 222.169 663.028L222.793 662.488C223.025 662.776 223.301 662.992 223.621 663.136C223.941 663.28 224.305 663.352 224.713 663.352C224.921 663.352 225.105 663.328 225.265 663.28C225.425 663.224 225.561 663.152 225.673 663.064C225.785 662.968 225.865 662.86 225.913 662.74C225.969 662.612 225.997 662.476 225.997 662.332C225.997 662.068 225.893 661.856 225.685 661.696C225.573 661.616 225.417 661.54 225.217 661.468C225.025 661.388 224.789 661.312 224.509 661.24C224.077 661.136 223.713 661.016 223.417 660.88C223.129 660.736 222.901 660.572 222.733 660.388C222.605 660.244 222.509 660.088 222.445 659.92C222.381 659.752 222.349 659.56 222.349 659.344C222.349 659 222.445 658.696 222.637 658.432C222.829 658.168 223.089 657.964 223.417 657.82C223.753 657.668 224.133 657.592 224.557 657.592C224.845 657.592 225.129 657.632 225.409 657.712C225.697 657.792 225.961 657.908 226.201 658.06C226.441 658.212 226.649 658.396 226.825 658.612L226.285 659.188C226.125 659.02 225.949 658.876 225.757 658.756C225.573 658.628 225.381 658.532 225.181 658.468C224.981 658.396 224.785 658.36 224.593 658.36C224.385 658.36 224.197 658.384 224.029 658.432C223.861 658.472 223.717 658.536 223.597 658.624C223.485 658.704 223.401 658.804 223.345 658.924C223.289 659.036 223.261 659.168 223.261 659.32C223.269 659.432 223.297 659.544 223.345 659.656C223.393 659.76 223.461 659.848 223.549 659.92C223.661 660.008 223.821 660.096 224.029 660.184C224.237 660.264 224.489 660.336 224.785 660.4C225.169 660.496 225.493 660.604 225.757 660.724C226.021 660.836 226.233 660.972 226.393 661.132C226.561 661.276 226.681 661.444 226.753 661.636C226.825 661.828 226.861 662.048 226.861 662.296C226.861 662.656 226.765 662.976 226.573 663.256C226.381 663.528 226.117 663.74 225.781 663.892C225.445 664.044 225.061 664.12 224.629 664.12Z" fill="black"/>
<path d="M201.039 371V369.816H202.943V360.984H201.039V359.8H206.127V360.984H204.207V369.816H206.127V371H201.039ZM213.225 371.16C212.425 371.16 211.689 371.016 211.017 370.728C210.356 370.44 209.774 370.04 209.273 369.528C208.782 369.016 208.404 368.413 208.137 367.72C207.87 367.016 207.737 366.243 207.737 365.4C207.737 364.568 207.87 363.805 208.137 363.112C208.404 362.408 208.782 361.8 209.273 361.288C209.774 360.765 210.356 360.36 211.017 360.072C211.689 359.784 212.425 359.64 213.225 359.64C214.014 359.64 214.74 359.784 215.401 360.072C216.073 360.36 216.654 360.765 217.145 361.288C217.646 361.8 218.03 362.408 218.297 363.112C218.574 363.816 218.713 364.579 218.713 365.4C218.713 366.232 218.574 367 218.297 367.704C218.03 368.397 217.646 369.005 217.145 369.528C216.654 370.04 216.073 370.44 215.401 370.728C214.74 371.016 214.014 371.16 213.225 371.16ZM213.225 369.928C213.833 369.928 214.393 369.816 214.905 369.592C215.417 369.368 215.86 369.053 216.233 368.648C216.606 368.243 216.894 367.768 217.097 367.224C217.31 366.669 217.417 366.061 217.417 365.4C217.417 364.749 217.31 364.152 217.097 363.608C216.894 363.053 216.606 362.573 216.233 362.168C215.86 361.752 215.417 361.432 214.905 361.208C214.393 360.984 213.833 360.872 213.225 360.872C212.617 360.872 212.057 360.984 211.545 361.208C211.033 361.432 210.585 361.747 210.201 362.152C209.828 362.557 209.534 363.037 209.321 363.592C209.118 364.147 209.017 364.749 209.017 365.4C209.017 366.275 209.198 367.053 209.561 367.736C209.924 368.419 210.42 368.957 211.049 369.352C211.678 369.736 212.404 369.928 213.225 369.928ZM224.475 371.16C223.547 371.16 222.731 370.984 222.027 370.632C221.333 370.269 220.747 369.741 220.267 369.048L221.163 368.056C221.643 368.76 222.149 369.261 222.683 369.56C223.227 369.859 223.867 370.008 224.603 370.008C225.072 370.008 225.493 369.928 225.867 369.768C226.251 369.608 226.555 369.389 226.779 369.112C227.003 368.835 227.115 368.52 227.115 368.168C227.115 367.933 227.072 367.72 226.987 367.528C226.912 367.336 226.789 367.165 226.619 367.016C226.459 366.867 226.256 366.728 226.011 366.6C225.765 366.472 225.483 366.36 225.163 366.264C224.853 366.157 224.501 366.056 224.107 365.96C223.552 365.843 223.067 365.688 222.651 365.496C222.245 365.304 221.899 365.075 221.611 364.808C221.323 364.541 221.109 364.237 220.971 363.896C220.832 363.544 220.763 363.149 220.763 362.712C220.763 362.115 220.928 361.587 221.259 361.128C221.6 360.669 222.053 360.307 222.619 360.04C223.195 359.773 223.84 359.64 224.555 359.64C225.419 359.64 226.155 359.8 226.763 360.12C227.381 360.44 227.877 360.893 228.251 361.48L227.355 362.36C227.013 361.859 226.608 361.475 226.139 361.208C225.68 360.931 225.141 360.792 224.523 360.792C224.043 360.792 223.616 360.872 223.243 361.032C222.869 361.192 222.576 361.416 222.363 361.704C222.149 361.981 222.043 362.307 222.043 362.68C222.043 362.947 222.091 363.192 222.187 363.416C222.293 363.629 222.448 363.816 222.651 363.976C222.853 364.136 223.115 364.28 223.435 364.408C223.755 364.536 224.133 364.648 224.571 364.744C225.168 364.883 225.701 365.048 226.171 365.24C226.651 365.432 227.056 365.656 227.387 365.912C227.717 366.168 227.968 366.456 228.139 366.776C228.309 367.096 228.395 367.459 228.395 367.864C228.395 368.525 228.229 369.107 227.899 369.608C227.579 370.099 227.125 370.483 226.539 370.76C225.952 371.027 225.264 371.16 224.475 371.16Z" fill="black"/>
<path d="M198.367 438L202.687 426.8H204.047L208.351 438H206.991L204.255 430.8C204.223 430.725 204.164 430.56 204.079 430.304C203.994 430.037 203.892 429.739 203.775 429.408C203.658 429.077 203.546 428.763 203.439 428.464C203.332 428.155 203.247 427.92 203.183 427.76H203.487C203.423 427.941 203.343 428.176 203.247 428.464C203.151 428.752 203.044 429.051 202.927 429.36C202.82 429.669 202.719 429.957 202.623 430.224C202.527 430.491 202.452 430.704 202.399 430.864L199.679 438H198.367ZM200.191 434.912L200.655 433.68H205.951L206.479 434.912H200.191ZM209.854 438V429.6H211.07V431.392L210.83 431.536C210.947 431.163 211.16 430.821 211.47 430.512C211.779 430.203 212.152 429.952 212.59 429.76C213.027 429.557 213.48 429.456 213.95 429.456C214.579 429.456 215.107 429.579 215.534 429.824C215.971 430.059 216.302 430.427 216.526 430.928C216.75 431.429 216.862 432.064 216.862 432.832V438H215.646V432.912C215.646 432.368 215.566 431.92 215.406 431.568C215.256 431.216 215.027 430.96 214.718 430.8C214.419 430.64 214.04 430.565 213.582 430.576C213.219 430.576 212.883 430.635 212.574 430.752C212.275 430.869 212.014 431.029 211.79 431.232C211.566 431.424 211.39 431.643 211.262 431.888C211.134 432.123 211.07 432.357 211.07 432.592V438H210.478C210.382 438 210.28 438 210.174 438C210.067 438 209.96 438 209.854 438ZM222.624 438.16C221.845 438.16 221.152 437.973 220.544 437.6C219.947 437.216 219.472 436.699 219.12 436.048C218.768 435.397 218.592 434.656 218.592 433.824C218.592 432.981 218.768 432.235 219.12 431.584C219.472 430.923 219.947 430.405 220.544 430.032C221.152 429.648 221.829 429.456 222.576 429.456C222.992 429.456 223.397 429.525 223.792 429.664C224.187 429.803 224.539 429.995 224.848 430.24C225.168 430.475 225.424 430.741 225.616 431.04C225.808 431.339 225.915 431.648 225.936 431.968H225.6V426.16H226.816V438H225.6V435.744L225.856 435.728C225.824 436.048 225.712 436.352 225.52 436.64C225.328 436.928 225.083 437.189 224.784 437.424C224.496 437.648 224.165 437.829 223.792 437.968C223.419 438.096 223.029 438.16 222.624 438.16ZM222.768 437.088C223.323 437.088 223.813 436.949 224.24 436.672C224.677 436.384 225.019 435.995 225.264 435.504C225.509 435.013 225.632 434.448 225.632 433.808C225.632 433.168 225.509 432.603 225.264 432.112C225.019 431.621 224.677 431.232 224.24 430.944C223.813 430.656 223.317 430.512 222.752 430.512C222.187 430.512 221.68 430.656 221.232 430.944C220.795 431.232 220.448 431.627 220.192 432.128C219.947 432.619 219.824 433.184 219.824 433.824C219.824 434.443 219.947 435.003 220.192 435.504C220.448 435.995 220.795 436.384 221.232 436.672C221.68 436.949 222.192 437.088 222.768 437.088ZM229.073 438V429.6H230.288L230.305 432.032L230.161 431.616C230.267 431.232 230.449 430.875 230.705 430.544C230.971 430.213 231.291 429.952 231.665 429.76C232.038 429.557 232.449 429.456 232.897 429.456C233.078 429.456 233.249 429.472 233.409 429.504C233.569 429.525 233.702 429.557 233.809 429.6L233.489 430.928C233.339 430.875 233.185 430.832 233.025 430.8C232.875 430.757 232.731 430.736 232.593 430.736C232.262 430.736 231.953 430.805 231.665 430.944C231.387 431.072 231.147 431.248 230.945 431.472C230.742 431.696 230.582 431.952 230.465 432.24C230.358 432.517 230.305 432.805 230.305 433.104V438H229.073ZM238.458 438.16C237.637 438.16 236.901 437.973 236.25 437.6C235.61 437.216 235.104 436.699 234.73 436.048C234.357 435.387 234.17 434.635 234.17 433.792C234.17 432.949 234.357 432.203 234.73 431.552C235.104 430.901 235.61 430.389 236.25 430.016C236.901 429.643 237.637 429.456 238.458 429.456C239.28 429.456 240.01 429.643 240.65 430.016C241.301 430.389 241.808 430.901 242.17 431.552C242.544 432.203 242.73 432.949 242.73 433.792C242.73 434.635 242.544 435.387 242.17 436.048C241.808 436.699 241.301 437.216 240.65 437.6C240.01 437.973 239.28 438.16 238.458 438.16ZM238.458 437.04C239.045 437.04 239.568 436.901 240.026 436.624C240.496 436.336 240.858 435.947 241.114 435.456C241.381 434.965 241.509 434.411 241.498 433.792C241.509 433.163 241.381 432.608 241.114 432.128C240.858 431.648 240.496 431.269 240.026 430.992C239.568 430.715 239.045 430.576 238.458 430.576C237.872 430.576 237.344 430.715 236.874 430.992C236.416 431.269 236.053 431.653 235.786 432.144C235.52 432.624 235.392 433.173 235.402 433.792C235.392 434.411 235.52 434.965 235.786 435.456C236.053 435.947 236.416 436.336 236.874 436.624C237.344 436.901 237.872 437.04 238.458 437.04ZM244.782 438V429.6H245.998V438H244.782ZM245.374 427.632C245.097 427.632 244.878 427.557 244.718 427.408C244.569 427.248 244.494 427.04 244.494 426.784C244.494 426.528 244.569 426.325 244.718 426.176C244.878 426.016 245.097 425.936 245.374 425.936C245.651 425.936 245.865 426.011 246.014 426.16C246.174 426.309 246.254 426.517 246.254 426.784C246.254 427.029 246.179 427.232 246.03 427.392C245.881 427.552 245.662 427.632 245.374 427.632ZM252.046 438.16C251.267 438.16 250.574 437.973 249.966 437.6C249.369 437.216 248.894 436.699 248.542 436.048C248.19 435.397 248.014 434.656 248.014 433.824C248.014 432.981 248.19 432.235 248.542 431.584C248.894 430.923 249.369 430.405 249.966 430.032C250.574 429.648 251.251 429.456 251.998 429.456C252.414 429.456 252.819 429.525 253.214 429.664C253.609 429.803 253.961 429.995 254.27 430.24C254.59 430.475 254.846 430.741 255.038 431.04C255.23 431.339 255.337 431.648 255.358 431.968H255.022V426.16H256.238V438H255.022V435.744L255.278 435.728C255.246 436.048 255.134 436.352 254.942 436.64C254.75 436.928 254.505 437.189 254.206 437.424C253.918 437.648 253.587 437.829 253.214 437.968C252.841 438.096 252.451 438.16 252.046 438.16ZM252.19 437.088C252.745 437.088 253.235 436.949 253.662 436.672C254.099 436.384 254.441 435.995 254.686 435.504C254.931 435.013 255.054 434.448 255.054 433.808C255.054 433.168 254.931 432.603 254.686 432.112C254.441 431.621 254.099 431.232 253.662 430.944C253.235 430.656 252.739 430.512 252.174 430.512C251.609 430.512 251.102 430.656 250.654 430.944C250.217 431.232 249.87 431.627 249.614 432.128C249.369 432.619 249.246 433.184 249.246 433.824C249.246 434.443 249.369 435.003 249.614 435.504C249.87 435.995 250.217 436.384 250.654 436.672C251.102 436.949 251.614 437.088 252.19 437.088Z" fill="black"/>
<path d="M360.5 273V500" stroke="#6B5521" stroke-width="2"/>
<path d="M396 379H311C308.791 379 307 380.791 307 383V432C307 434.209 308.791 436 311 436H396C398.209 436 400 434.209 400 432V383C400 380.791 398.209 379 396 379Z" fill="#757575"/>
<path d="M254 370H289.5C291.709 370 293.5 371.791 293.5 374V393M293.5 393H306.5M293.5 393V432C293.5 434.209 291.709 436 289.5 436H279" stroke="#6B5521" stroke-width="2"/>
<path d="M354 677C363.941 677 372 668.941 372 659C372 649.059 363.941 641 354 641C344.059 641 336 649.059 336 659C336 668.941 344.059 677 354 677Z" fill="#736AE4" fill-opacity="0.73"/>
<path d="M404 677C413.941 677 422 668.941 422 659C422 649.059 413.941 641 404 641C394.059 641 386 649.059 386 659C386 668.941 394.059 677 404 677Z" fill="#736AE4" fill-opacity="0.73"/>
<path d="M454 677C463.941 677 472 668.941 472 659C472 649.059 463.941 641 454 641C444.059 641 436 649.059 436 659C436 668.941 444.059 677 454 677Z" fill="#736AE4" fill-opacity="0.73"/>
<path d="M101.5 240.5H32.5C30.2909 240.5 28.5 238.709 28.5 236.5V40.5C28.5 38.2909 26.7091 36.5 24.5 36.5H5C2.79086 36.5 1 34.7091 1 32.5V-2" stroke="#8D3D3B" stroke-width="2"/>
<path d="M462 334V265.363C462 263.154 463.791 261.363 466 261.363H628.771C630.98 261.363 632.771 259.572 632.771 257.363V238C632.771 235.791 634.562 234 636.771 234H665" stroke="#8D3D3B" stroke-width="2"/>
<path d="M345.863 412V403.628C345.863 403.208 345.942 402.849 346.101 402.55C346.269 402.242 346.498 402.009 346.787 401.85C347.086 401.682 347.422 401.598 347.795 401.598C348.112 401.598 348.392 401.654 348.635 401.766C348.878 401.878 349.074 402.027 349.223 402.214L348.831 403.012C348.7 402.872 348.556 402.769 348.397 402.704C348.238 402.639 348.075 402.606 347.907 402.606C347.702 402.606 347.524 402.639 347.375 402.704C347.226 402.769 347.114 402.881 347.039 403.04C346.964 403.189 346.927 403.385 346.927 403.628V412H346.409C346.316 412 346.222 412 346.129 412C346.036 412 345.947 412 345.863 412ZM344.561 405.714V404.734H348.803V405.714H344.561ZM353.29 412.14C352.571 412.14 351.927 411.977 351.358 411.65C350.798 411.314 350.354 410.861 350.028 410.292C349.701 409.713 349.538 409.055 349.538 408.318C349.538 407.581 349.701 406.927 350.028 406.358C350.354 405.789 350.798 405.341 351.358 405.014C351.927 404.687 352.571 404.524 353.29 404.524C354.008 404.524 354.648 404.687 355.208 405.014C355.777 405.341 356.22 405.789 356.538 406.358C356.864 406.927 357.028 407.581 357.028 408.318C357.028 409.055 356.864 409.713 356.538 410.292C356.22 410.861 355.777 411.314 355.208 411.65C354.648 411.977 354.008 412.14 353.29 412.14ZM353.29 411.16C353.803 411.16 354.26 411.039 354.662 410.796C355.072 410.544 355.39 410.203 355.614 409.774C355.847 409.345 355.959 408.859 355.95 408.318C355.959 407.767 355.847 407.282 355.614 406.862C355.39 406.442 355.072 406.111 354.662 405.868C354.26 405.625 353.803 405.504 353.29 405.504C352.776 405.504 352.314 405.625 351.904 405.868C351.502 406.111 351.185 406.447 350.952 406.876C350.718 407.296 350.606 407.777 350.616 408.318C350.606 408.859 350.718 409.345 350.952 409.774C351.185 410.203 351.502 410.544 351.904 410.796C352.314 411.039 352.776 411.16 353.29 411.16ZM358.585 412V404.65H359.649L359.663 406.778L359.537 406.414C359.63 406.078 359.789 405.765 360.013 405.476C360.246 405.187 360.526 404.958 360.853 404.79C361.18 404.613 361.539 404.524 361.931 404.524C362.09 404.524 362.239 404.538 362.379 404.566C362.519 404.585 362.636 404.613 362.729 404.65L362.449 405.812C362.318 405.765 362.183 405.728 362.043 405.7C361.912 405.663 361.786 405.644 361.665 405.644C361.376 405.644 361.105 405.705 360.853 405.826C360.61 405.938 360.4 406.092 360.223 406.288C360.046 406.484 359.906 406.708 359.803 406.96C359.71 407.203 359.663 407.455 359.663 407.716V412H358.585Z" fill="black" fill-opacity="0.65"/>
<path d="M348.797 662.096L344 659.688V658.746L348.797 656.338L349.435 657.21L344.664 659.606V658.827L349.435 661.223L348.797 662.096Z" fill="#BEBEBE"/>
<path d="M350.543 663.677L356.018 654H357.334L351.872 663.677H350.543Z" fill="#BEBEBE"/>
<path d="M359.202 662.096L358.564 661.223L363.335 658.827V659.606L358.564 657.21L359.202 656.338L363.999 658.746V659.688L359.202 662.096Z" fill="#BEBEBE"/>
<path d="M398.797 662.096L394 659.688V658.746L398.797 656.338L399.435 657.21L394.664 659.606V658.827L399.435 661.223L398.797 662.096Z" fill="#BEBEBE"/>
<path d="M400.543 663.677L406.018 654H407.334L401.872 663.677H400.543Z" fill="#BEBEBE"/>
<path d="M409.202 662.096L408.564 661.223L413.335 658.827V659.606L408.564 657.21L409.202 656.338L413.999 658.746V659.688L409.202 662.096Z" fill="#BEBEBE"/>
<path d="M448.797 662.096L444 659.688V658.746L448.797 656.338L449.435 657.21L444.664 659.606V658.827L449.435 661.223L448.797 662.096Z" fill="#BEBEBE"/>
<path d="M450.543 663.677L456.018 654H457.334L451.872 663.677H450.543Z" fill="#BEBEBE"/>
<path d="M459.202 662.096L458.564 661.223L463.335 658.827V659.606L458.564 657.21L459.202 656.338L463.999 658.746V659.688L459.202 662.096Z" fill="#BEBEBE"/>
<path d="M462 509H477.5C479.709 509 481.5 507.209 481.5 505V489.86C481.5 488.404 482.291 487.063 483.565 486.359L498.435 478.141C499.709 477.437 500.5 476.096 500.5 474.64V455" stroke="#8D3D3B" stroke-width="2"/>
<path d="M95 403H79.5C77.2909 403 75.5 404.791 75.5 407V422.14C75.5 423.596 74.709 424.937 73.4347 425.641L58.5653 433.859C57.291 434.563 56.5 435.904 56.5 437.36V457" stroke="#8D3D3B" stroke-width="2"/>
<path d="M481.5 488V405.5" stroke="#8D3D3B" stroke-width="2"/>
<path d="M75.5 424V506.5" stroke="#8D3D3B" stroke-width="2"/>
<path d="M500.5 456C496.91 456 494 453.09 494 449.5C494 445.91 496.91 443 500.5 443C504.09 443 507 445.91 507 449.5C507 453.09 504.09 456 500.5 456Z" stroke="#8D3D3B" stroke-width="2"/>
<path d="M56.5 456C60.0899 456 63 458.91 63 462.5C63 466.09 60.0899 469 56.5 469C52.9101 469 50 466.09 50 462.5C50 458.91 52.9101 456 56.5 456Z" stroke="#8D3D3B" stroke-width="2"/>
<path d="M481.5 406C477.91 406 475 403.09 475 399.5C475 395.91 477.91 393 481.5 393C485.09 393 488 395.91 488 399.5C488 403.09 485.09 406 481.5 406Z" stroke="#8D3D3B" stroke-width="2"/>
<path d="M75.5 506C79.0899 506 82 508.91 82 512.5C82 516.09 79.0899 519 75.5 519C71.9101 519 69 516.09 69 512.5C69 508.91 71.9101 506 75.5 506Z" stroke="#8D3D3B" stroke-width="2"/>
<path d="M25.5 305C29.0899 305 32 302.09 32 298.5C32 294.91 29.0899 292 25.5 292C21.9101 292 19 294.91 19 298.5C19 302.09 21.9101 305 25.5 305Z" stroke="#8D3D3B" stroke-width="2"/>
<path d="M25.5 370C29.0899 370 32 367.09 32 363.5C32 359.91 29.0899 357 25.5 357C21.9101 357 19 359.91 19 363.5C19 367.09 21.9101 370 25.5 370Z" stroke="#8D3D3B" stroke-width="2"/>
<path d="M26 304.5V356" stroke="#8D3D3B" stroke-width="2"/>
</g>
<defs>
<clipPath id="clip0_355_3641">
<rect width="665" height="706" fill="white"/>
</clipPath>
</defs>
</svg>
