<svg width="665" height="706" fill="none" xmlns="http://www.w3.org/2000/svg"><g clip-path="url(#a)"><path d="M142.5 240.5H100a4 4 0 0 0-4 4v347a4 4 0 0 1-4 4H30a4 4 0 0 0-4 4V671a4 4 0 0 0 4 4h66" stroke="#8D3D3B" stroke-width="2"/><path d="M412 203H148a4 4 0 0 0-4 4v62a4 4 0 0 0 4 4h264a4 4 0 0 0 4-4v-62a4 4 0 0 0-4-4Z" fill="#757575"/><path d="M410 297H146a4 4 0 0 0-4 4v262a4 4 0 0 0 4 4h264a4 4 0 0 0 4-4V301a4 4 0 0 0-4-4ZM268 613H48a4 4 0 0 0-4 4v85a4 4 0 0 0 4 4h220a4 4 0 0 0 4-4v-85a4 4 0 0 0-4-4Z" fill="#353535"/><path d="M415.5 241H458a4 4 0 0 1 4 4v347a4 4 0 0 0 4 4h62a4 4 0 0 1 4 4v71.5a4 4 0 0 1-4 4h-66" stroke="#8D3D3B" stroke-width="2"/><path d="M512.5 613h-220a4 4 0 0 0-4 4v85a4 4 0 0 0 4 4h220a4 4 0 0 0 4-4v-85a4 4 0 0 0-4-4Z" fill="#353535"/><path d="M250 634H71a4 4 0 0 0-4 4v43a4 4 0 0 0 4 4h179a4 4 0 0 0 4-4v-43a4 4 0 0 0-4-4ZM250 343h-70a4 4 0 0 0-4 4v37a4 4 0 0 0 4 4h70a4 4 0 0 0 4-4v-37a4 4 0 0 0-4-4ZM275 410h-95a4 4 0 0 0-4 4v37a4 4 0 0 0 4 4h95a4 4 0 0 0 4-4v-37a4 4 0 0 0-4-4ZM396 500H180a4 4 0 0 0-4 4v29a4 4 0 0 0 4 4h216a4 4 0 0 0 4-4v-29a4 4 0 0 0-4-4Z" fill="#757575"/><path d="m184.225 246.16 6.624-13.36h1.904l-6.608 13.36h-1.92Zm9.241 0 6.624-13.36h1.904l-6.608 13.36h-1.92Zm11.605-2.16v-8.432h1.92l.032 1.712-.32.128c.096-.277.24-.533.432-.768.192-.245.421-.459.688-.64.267-.181.549-.32.848-.416.299-.107.608-.16.928-.16.459 0 .864.075 1.216.224.352.149.645.379.88.688.245.309.432.704.56 1.184l-.304-.064.112-.256c.128-.256.299-.491.512-.704.213-.213.453-.4.72-.56a3.157 3.157 0 0 1 1.696-.512c.64 0 1.173.128 1.6.384.427.256.747.645.96 1.168.213.523.32 1.168.32 1.936V244h-1.968v-4.96c0-.64-.128-1.115-.384-1.424-.245-.309-.629-.464-1.152-.464-.277 0-.533.048-.768.144a1.781 1.781 0 0 0-.624.384 1.69 1.69 0 0 0-.4.576 1.734 1.734 0 0 0-.144.72V244h-1.968v-4.976c0-.608-.133-1.072-.4-1.392-.256-.32-.624-.48-1.104-.48a2.012 2.012 0 0 0-1.376.528 1.695 1.695 0 0 0-.544 1.264V244h-1.968Zm20.425.16c-.843 0-1.595-.187-2.256-.56a4.258 4.258 0 0 1-1.568-1.568c-.373-.661-.56-1.413-.56-2.256 0-.843.187-1.595.56-2.256a4.136 4.136 0 0 1 1.568-1.552c.661-.384 1.413-.576 2.256-.576.832 0 1.579.192 2.24.576a4.019 4.019 0 0 1 1.552 1.552c.384.661.576 1.413.576 2.256 0 .843-.192 1.595-.576 2.256a4.136 4.136 0 0 1-1.552 1.568c-.661.373-1.408.56-2.24.56Zm0-1.744c.459 0 .869-.112 1.232-.336.363-.235.645-.549.848-.944.213-.405.315-.859.304-1.36.011-.512-.091-.965-.304-1.36a2.281 2.281 0 0 0-.848-.944 2.296 2.296 0 0 0-1.232-.336c-.459 0-.875.117-1.248.352a2.281 2.281 0 0 0-.848.944 2.898 2.898 0 0 0-.304 1.344c0 .501.101.955.304 1.36.203.395.485.709.848.944.373.224.789.336 1.248.336Zm12.369 1.744c-.373 0-.736-.053-1.088-.16a4.318 4.318 0 0 1-.976-.464 3.24 3.24 0 0 1-.72-.64 2.04 2.04 0 0 1-.384-.736l.464-.208-.048 2h-1.888V232.16h1.952v5.344l-.336-.144c.053-.256.171-.496.352-.72a2.77 2.77 0 0 1 .688-.624c.277-.192.581-.341.912-.448a3.05 3.05 0 0 1 1.024-.176c.747 0 1.408.192 1.984.576a3.819 3.819 0 0 1 1.376 1.552c.341.651.512 1.403.512 2.256 0 .843-.165 1.595-.496 2.256a3.937 3.937 0 0 1-1.376 1.568 3.514 3.514 0 0 1-1.952.56Zm-.4-1.728c.448 0 .848-.112 1.2-.336.352-.235.629-.549.832-.944a3.03 3.03 0 0 0 .304-1.376c0-.523-.101-.981-.304-1.376a2.212 2.212 0 0 0-.816-.944 2.215 2.215 0 0 0-1.216-.336c-.469 0-.88.112-1.232.336a2.323 2.323 0 0 0-.832.944c-.203.395-.304.853-.304 1.376 0 .512.101.971.304 1.376.203.395.48.709.832.944.352.224.763.336 1.232.336Zm7.803 1.568v-8.432h1.952V244h-1.952Zm.96-10.224c-.395 0-.704-.096-.928-.288-.214-.203-.32-.485-.32-.848 0-.341.112-.613.336-.816.224-.213.528-.32.912-.32.394 0 .698.101.912.304.224.192.336.469.336.832 0 .331-.112.603-.336.816-.224.213-.528.32-.912.32ZM251.331 244v-11.84h1.952V244h-1.952Zm9.677.16c-.885 0-1.669-.181-2.352-.544a4.17 4.17 0 0 1-1.584-1.52c-.373-.651-.56-1.397-.56-2.24 0-.661.107-1.264.32-1.808a4.181 4.181 0 0 1 .896-1.408 3.858 3.858 0 0 1 1.36-.928 4.414 4.414 0 0 1 1.728-.336c.565 0 1.083.107 1.552.32.48.213.896.507 1.248.88.352.363.619.8.8 1.312.192.501.283 1.051.272 1.648l-.016.704h-6.816l-.384-1.36h5.552l-.24.272v-.368a1.682 1.682 0 0 0-.32-.848 1.81 1.81 0 0 0-.704-.592 1.93 1.93 0 0 0-.928-.224c-.523 0-.965.101-1.328.304-.363.192-.64.48-.832.864-.181.384-.272.859-.272 1.424 0 .544.112 1.019.336 1.424.235.405.565.72.992.944.427.224.923.336 1.488.336a2.99 2.99 0 0 0 1.088-.192c.341-.128.704-.357 1.088-.688l.96 1.344a4.433 4.433 0 0 1-.992.688 6.02 6.02 0 0 1-1.152.432c-.405.107-.805.16-1.2.16Zm18.127-.16v-5.392c0-.459-.155-.816-.464-1.072-.299-.267-.688-.4-1.168-.4-.448 0-.854.091-1.216.272-.363.171-.699.448-1.008.832l-1.216-1.216a5.295 5.295 0 0 1 1.664-1.216 4.69 4.69 0 0 1 1.968-.416c.672 0 1.248.107 1.728.32.49.213.869.533 1.136.96.266.416.4.928.4 1.536V244h-1.824Zm-2.4.16c-.544 0-1.03-.107-1.456-.32a2.653 2.653 0 0 1-1.024-.88c-.246-.384-.368-.832-.368-1.344 0-.448.08-.837.24-1.168.16-.341.394-.624.704-.848.32-.224.714-.389 1.184-.496a6.986 6.986 0 0 1 1.648-.176h2.416l-.144 1.408h-2.384a3.35 3.35 0 0 0-.768.08 1.753 1.753 0 0 0-.576.24c-.16.107-.278.235-.352.384a1.065 1.065 0 0 0-.112.512c0 .213.053.4.16.56.106.149.25.267.432.352.181.085.394.128.64.128.352 0 .682-.059.992-.176.32-.117.602-.283.848-.496.245-.213.437-.453.576-.72l.4 1.088a3.862 3.862 0 0 1-.832.976c-.32.277-.672.496-1.056.656-.374.16-.763.24-1.168.24Zm7.902 3.36v-11.952h1.92l.032 1.904-.336-.144c.064-.331.246-.64.544-.928a3.552 3.552 0 0 1 1.088-.704 3.527 3.527 0 0 1 1.36-.272c.747 0 1.408.187 1.984.56a3.812 3.812 0 0 1 1.376 1.552c.342.651.512 1.397.512 2.24 0 .843-.165 1.595-.496 2.256a3.95 3.95 0 0 1-1.376 1.552c-.576.373-1.232.56-1.968.56-.49 0-.965-.096-1.424-.288a3.59 3.59 0 0 1-1.136-.752c-.309-.309-.506-.629-.592-.96l.48-.24v5.616h-1.968Zm4.256-5.12c.448 0 .848-.112 1.2-.336.352-.224.63-.533.832-.928.203-.395.304-.848.304-1.36 0-.512-.101-.96-.304-1.344a2.227 2.227 0 0 0-.816-.928 2.138 2.138 0 0 0-1.216-.352c-.469 0-.88.112-1.232.336a2.342 2.342 0 0 0-.832.928 2.945 2.945 0 0 0-.304 1.36c0 .512.102.965.304 1.36.203.395.48.704.832.928.352.224.763.336 1.232.336Zm7.579 5.12v-11.952h1.92l.032 1.904-.336-.144c.064-.331.245-.64.544-.928a3.528 3.528 0 0 1 1.088-.704 3.52 3.52 0 0 1 1.36-.272c.746 0 1.408.187 1.984.56a3.826 3.826 0 0 1 1.376 1.552c.341.651.512 1.397.512 2.24 0 .843-.166 1.595-.496 2.256a3.966 3.966 0 0 1-1.376 1.552c-.576.373-1.232.56-1.968.56a3.65 3.65 0 0 1-1.424-.288 3.58 3.58 0 0 1-1.136-.752c-.31-.309-.507-.629-.592-.96l.48-.24v5.616h-1.968Zm4.256-5.12c.448 0 .848-.112 1.2-.336.352-.224.629-.533.832-.928.202-.395.304-.848.304-1.36 0-.512-.102-.96-.304-1.344a2.227 2.227 0 0 0-.816-.928 2.14 2.14 0 0 0-1.216-.352c-.47 0-.88.112-1.232.336-.352.224-.63.533-.832.928-.203.395-.304.848-.304 1.36 0 .512.101.965.304 1.36.202.395.48.704.832.928.352.224.762.336 1.232.336Zm7.594 1.6v-11.84h1.952V244h-1.952Zm6.105 0v-8.432h1.952V244h-1.952Zm.96-10.224c-.395 0-.704-.096-.928-.288-.213-.203-.32-.485-.32-.848 0-.341.112-.613.336-.816.224-.213.528-.32.912-.32.395 0 .699.101.912.304.224.192.336.469.336.832 0 .331-.112.603-.336.816-.224.213-.528.32-.912.32Zm8.704 10.384c-.789 0-1.499-.192-2.128-.576a4.132 4.132 0 0 1-1.488-1.568c-.363-.661-.544-1.408-.544-2.24 0-.832.181-1.579.544-2.24a4.132 4.132 0 0 1 1.488-1.568c.629-.384 1.339-.576 2.128-.576.747 0 1.429.149 2.048.448.629.288 1.109.683 1.44 1.184l-1.072 1.312a2.738 2.738 0 0 0-.608-.608 3.237 3.237 0 0 0-.8-.432 2.35 2.35 0 0 0-2.96 1.136c-.213.395-.32.843-.32 1.344 0 .501.107.949.32 1.344.224.395.523.709.896.944s.789.352 1.248.352c.288 0 .56-.043.816-.128.256-.096.501-.229.736-.4.245-.171.469-.384.672-.64l1.072 1.312c-.352.469-.848.853-1.488 1.152a4.673 4.673 0 0 1-2 .448ZM335.5 244v-5.392c0-.459-.154-.816-.464-1.072-.298-.267-.688-.4-1.168-.4-.448 0-.853.091-1.216.272-.362.171-.698.448-1.008.832l-1.216-1.216a5.306 5.306 0 0 1 1.664-1.216 4.69 4.69 0 0 1 1.968-.416c.672 0 1.248.107 1.728.32.491.213.87.533 1.136.96.267.416.4.928.4 1.536V244H335.5Zm-2.4.16a3.217 3.217 0 0 1-1.456-.32 2.66 2.66 0 0 1-1.024-.88c-.245-.384-.368-.832-.368-1.344 0-.448.08-.837.24-1.168.16-.341.395-.624.704-.848.32-.224.715-.389 1.184-.496a6.992 6.992 0 0 1 1.648-.176h2.416l-.144 1.408h-2.384a3.35 3.35 0 0 0-.768.08 1.753 1.753 0 0 0-.576.24 1.01 1.01 0 0 0-.352.384 1.077 1.077 0 0 0-.112.512c0 .213.054.4.16.56.107.149.251.267.432.352.182.085.395.128.64.128.352 0 .683-.059.992-.176.32-.117.603-.283.848-.496.246-.213.438-.453.576-.72l.4 1.088a3.842 3.842 0 0 1-.832.976c-.32.277-.672.496-1.056.656-.373.16-.762.24-1.168.24Zm8.831-.16v-10.576h1.952V244h-1.952Zm-1.664-6.608v-1.824h5.456v1.824h-5.456Zm8.779 6.608v-8.432h1.952V244h-1.952Zm.96-10.224c-.395 0-.704-.096-.928-.288-.214-.203-.32-.485-.32-.848 0-.341.112-.613.336-.816.224-.213.528-.32.912-.32.394 0 .698.101.912.304.224.192.336.469.336.832 0 .331-.112.603-.336.816-.224.213-.528.32-.912.32Zm8.928 10.384c-.843 0-1.595-.187-2.256-.56a4.25 4.25 0 0 1-1.568-1.568c-.374-.661-.56-1.413-.56-2.256 0-.843.186-1.595.56-2.256a4.129 4.129 0 0 1 1.568-1.552c.661-.384 1.413-.576 2.256-.576.832 0 1.578.192 2.24.576a4.026 4.026 0 0 1 1.552 1.552c.384.661.576 1.413.576 2.256 0 .843-.192 1.595-.576 2.256a4.143 4.143 0 0 1-1.552 1.568c-.662.373-1.408.56-2.24.56Zm0-1.744c.458 0 .869-.112 1.232-.336.362-.235.645-.549.848-.944.213-.405.314-.859.304-1.36.01-.512-.091-.965-.304-1.36a2.288 2.288 0 0 0-.848-.944 2.299 2.299 0 0 0-1.232-.336c-.459 0-.875.117-1.248.352a2.274 2.274 0 0 0-.848.944 2.898 2.898 0 0 0-.304 1.344c0 .501.101.955.304 1.36.202.395.485.709.848.944.373.224.789.336 1.248.336Zm7.728 1.584v-8.432h1.904l.032 1.728-.368.192c.118-.373.326-.715.624-1.024a3.55 3.55 0 0 1 1.104-.768c.427-.203.87-.304 1.328-.304.64 0 1.174.128 1.6.384.438.256.763.64.976 1.152.214.512.32 1.152.32 1.92V244h-1.952v-5.008c0-.437-.058-.795-.176-1.072a1.166 1.166 0 0 0-.544-.624c-.245-.139-.544-.197-.896-.176-.288 0-.554.048-.8.144a1.769 1.769 0 0 0-.64.384c-.17.16-.309.352-.416.576a1.695 1.695 0 0 0-.144.704V244h-1.952ZM200.518 524.68l5.684-11.48h1.036l-5.684 11.48h-1.036Zm11.572-1.54c-.541 0-1.008-.112-1.4-.336a2.352 2.352 0 0 1-.91-.994c-.205-.439-.308-.975-.308-1.61v-4.55h1.064v4.284c0 .737.168 1.302.504 1.694.345.383.826.574 1.442.574.299 0 .569-.051.812-.154.252-.112.471-.257.658-.434.187-.177.331-.373.434-.588.112-.224.168-.448.168-.672v-4.704h1.064V523h-1.05l-.014-1.596.21-.112a2.545 2.545 0 0 1-.574.938c-.261.28-.574.504-.938.672a2.809 2.809 0 0 1-1.162.238Zm8.624 0a4.14 4.14 0 0 1-1.666-.322 3.038 3.038 0 0 1-1.204-.952l.728-.63c.271.336.593.588.966.756.373.168.798.252 1.274.252.243 0 .457-.028.644-.084.187-.065.345-.149.476-.252a.972.972 0 0 0 .28-.378c.065-.149.098-.308.098-.476a.89.89 0 0 0-.364-.742 2.313 2.313 0 0 0-.546-.266 6.219 6.219 0 0 0-.826-.266 6.96 6.96 0 0 1-1.274-.42 2.697 2.697 0 0 1-.798-.574 1.777 1.777 0 0 1-.336-.546 1.871 1.871 0 0 1-.112-.672c0-.401.112-.756.336-1.064.224-.308.527-.546.91-.714a3.197 3.197 0 0 1 1.33-.266c.336 0 .667.047.994.14.336.093.644.229.924.406.28.177.523.392.728.644l-.63.672a3.175 3.175 0 0 0-.616-.504 2.548 2.548 0 0 0-.672-.336 2.016 2.016 0 0 0-.686-.126c-.243 0-.462.028-.658.084a1.384 1.384 0 0 0-.504.224.877.877 0 0 0-.294.35 1.028 1.028 0 0 0-.098.462c.009.131.042.261.098.392a.856.856 0 0 0 .238.308 2.5 2.5 0 0 0 .56.308c.243.093.537.177.882.252.448.112.826.238 1.134.378.308.131.555.289.742.476.196.168.336.364.42.588.084.224.126.481.126.77 0 .42-.112.793-.336 1.12a2.222 2.222 0 0 1-.924.742c-.392.177-.84.266-1.344.266Zm8.211 0c-.737 0-1.39-.159-1.96-.476a3.583 3.583 0 0 1-1.344-1.344c-.317-.569-.476-1.218-.476-1.946 0-.569.089-1.087.266-1.554a3.75 3.75 0 0 1 .756-1.218 3.37 3.37 0 0 1 1.162-.798c.448-.187.938-.28 1.47-.28.467 0 .901.084 1.302.252.411.168.766.411 1.064.728.299.308.528.677.686 1.106.159.42.229.887.21 1.4l-.014.532h-6.132l-.224-.868h5.474l-.196.238.014-.35a2.04 2.04 0 0 0-.336-1.064 2.206 2.206 0 0 0-.798-.728 2.117 2.117 0 0 0-1.05-.266c-.541 0-1.008.117-1.4.35-.392.224-.69.546-.896.966-.196.411-.298.905-.308 1.484.01.579.131 1.083.364 1.512.234.42.56.751.98.994.43.233.924.35 1.484.35.402 0 .775-.065 1.12-.196.346-.14.696-.369 1.05-.686l.532.756c-.224.224-.49.42-.798.588-.298.159-.62.285-.966.378-.345.093-.69.14-1.036.14Zm5.296-.14v-7.35h1.064l.014 2.128-.126-.364c.093-.336.252-.649.476-.938.233-.289.513-.518.84-.686a2.227 2.227 0 0 1 1.078-.266c.159 0 .308.014.448.042.14.019.257.047.35.084l-.28 1.162a2.859 2.859 0 0 0-.406-.112 1.39 1.39 0 0 0-.378-.056c-.289 0-.56.061-.812.182a1.926 1.926 0 0 0-.63.462c-.177.196-.317.42-.42.672-.093.243-.14.495-.14.756V523h-1.078Zm5.629-3.416v-1.064h3.948v1.064h-3.948Zm7.218 3.416v-8.372c0-.42.079-.779.238-1.078.168-.308.396-.541.686-.7a2.017 2.017 0 0 1 1.008-.252c.317 0 .597.056.84.168.242.112.438.261.588.448l-.392.798a1.243 1.243 0 0 0-.924-.406c-.206 0-.383.033-.532.098a.648.648 0 0 0-.336.336c-.075.149-.112.345-.112.588V523h-1.064Zm-1.302-6.286v-.98h4.242v.98h-4.242ZM252.08 523v-7.35h1.064l.014 2.128-.126-.364c.093-.336.252-.649.476-.938.233-.289.513-.518.84-.686a2.225 2.225 0 0 1 1.078-.266c.158 0 .308.014.448.042.14.019.256.047.35.084l-.28 1.162a2.859 2.859 0 0 0-.406-.112 1.39 1.39 0 0 0-.378-.056c-.29 0-.56.061-.812.182a1.926 1.926 0 0 0-.63.462 2.077 2.077 0 0 0-.56 1.428V523h-1.078Zm6.077 0v-7.35h1.064V523h-1.064Zm.518-9.072c-.243 0-.434-.065-.574-.196a.767.767 0 0 1-.196-.546c0-.224.065-.401.196-.532.14-.14.331-.21.574-.21.242 0 .429.065.56.196.14.131.21.313.21.546a.751.751 0 0 1-.196.532c-.131.14-.322.21-.574.21Zm6.72 9.212c-.738 0-1.391-.159-1.96-.476a3.569 3.569 0 0 1-1.344-1.344c-.318-.569-.476-1.218-.476-1.946 0-.569.088-1.087.266-1.554.186-.476.438-.882.756-1.218a3.36 3.36 0 0 1 1.162-.798c.448-.187.938-.28 1.47-.28.466 0 .9.084 1.302.252.41.168.765.411 1.064.728.298.308.527.677.686 1.106.158.42.228.887.21 1.4l-.014.532h-6.132l-.224-.868h5.474l-.196.238.014-.35a2.058 2.058 0 0 0-.336-1.064 2.223 2.223 0 0 0-.798-.728 2.123 2.123 0 0 0-1.05-.266c-.542 0-1.008.117-1.4.35a2.19 2.19 0 0 0-.896.966c-.196.411-.299.905-.308 1.484.009.579.13 1.083.364 1.512.233.42.56.751.98.994.429.233.924.35 1.484.35.401 0 .774-.065 1.12-.196.345-.14.695-.369 1.05-.686l.532.756c-.224.224-.49.42-.798.588a4.6 4.6 0 0 1-.966.378c-.346.093-.691.14-1.036.14Zm5.295-.14v-7.35h1.064v1.568l-.21.126c.103-.327.29-.625.56-.896.271-.271.598-.49.98-.658.383-.177.78-.266 1.19-.266.551 0 1.013.107 1.386.322.383.205.672.527.868.966.196.439.294.994.294 1.666V523h-1.064v-4.452c0-.476-.07-.868-.21-1.176a1.29 1.29 0 0 0-.602-.672c-.261-.14-.592-.205-.994-.196-.317 0-.611.051-.882.154a2.24 2.24 0 0 0-.686.42c-.196.168-.35.359-.462.574a1.276 1.276 0 0 0-.168.616V523h-1.064Zm11.805.14c-.682 0-1.288-.163-1.82-.49a3.642 3.642 0 0 1-1.246-1.358c-.308-.569-.462-1.218-.462-1.946 0-.737.154-1.391.462-1.96a3.504 3.504 0 0 1 1.246-1.358 3.26 3.26 0 0 1 1.778-.504c.364 0 .718.061 1.064.182.345.121.653.289.924.504.28.205.504.439.672.7.168.261.261.532.28.812h-.294v-5.082h1.064V523h-1.064v-1.974l.224-.014c-.028.28-.126.546-.294.798a2.97 2.97 0 0 1-.644.686 3.24 3.24 0 0 1-.868.476 3.134 3.134 0 0 1-1.022.168Zm.126-.938a2.31 2.31 0 0 0 1.288-.364c.382-.252.681-.593.896-1.022.214-.429.322-.924.322-1.484 0-.56-.108-1.055-.322-1.484a2.587 2.587 0 0 0-.896-1.022 2.275 2.275 0 0 0-1.302-.378c-.495 0-.938.126-1.33.378a2.654 2.654 0 0 0-.91 1.036c-.215.429-.322.924-.322 1.484 0 .541.107 1.031.322 1.47.224.429.527.77.91 1.022.392.243.84.364 1.344.364Zm6.272.798v-10.36h1.064V523h-1.064Zm4.839 3.22 1.428-3.402.042.84-3.584-8.008h1.246l2.52 5.796c.056.112.108.243.154.392.056.14.103.275.14.406l-.294.084c.066-.168.126-.331.182-.49.066-.168.126-.331.182-.49l2.156-5.698h1.246l-3.038 7.406-1.232 3.164h-1.148Zm11.942-3.22v-7.35h1.064V523h-1.064Zm.518-9.072c-.242 0-.434-.065-.574-.196a.771.771 0 0 1-.196-.546c0-.224.066-.401.196-.532.14-.14.332-.21.574-.21.243 0 .43.065.56.196.14.131.21.313.21.546a.747.747 0 0 1-.196.532c-.13.14-.322.21-.574.21Zm3.374 9.072v-7.35h1.064v1.568l-.21.126c.103-.327.29-.625.56-.896.271-.271.598-.49.98-.658.383-.177.78-.266 1.19-.266.551 0 1.013.107 1.386.322.383.205.672.527.868.966.196.439.294.994.294 1.666V523h-1.064v-4.452c0-.476-.07-.868-.21-1.176a1.29 1.29 0 0 0-.602-.672c-.261-.14-.592-.205-.994-.196-.317 0-.611.051-.882.154a2.24 2.24 0 0 0-.686.42c-.196.168-.35.359-.462.574a1.276 1.276 0 0 0-.168.616V523h-1.064Zm9.76 0v-9.226h1.064V523h-1.064Zm-1.694-6.314v-1.036h4.592v1.036h-4.592Zm9.775 6.454c-.738 0-1.391-.159-1.96-.476a3.569 3.569 0 0 1-1.344-1.344c-.318-.569-.476-1.218-.476-1.946 0-.569.088-1.087.266-1.554.186-.476.438-.882.756-1.218a3.36 3.36 0 0 1 1.162-.798c.448-.187.938-.28 1.47-.28.466 0 .9.084 1.302.252.41.168.765.411 1.064.728.298.308.527.677.686 1.106.158.42.228.887.21 1.4l-.014.532h-6.132l-.224-.868h5.474l-.196.238.014-.35a2.058 2.058 0 0 0-.336-1.064 2.223 2.223 0 0 0-.798-.728 2.123 2.123 0 0 0-1.05-.266c-.542 0-1.008.117-1.4.35a2.19 2.19 0 0 0-.896.966c-.196.411-.299.905-.308 1.484.009.579.13 1.083.364 1.512.233.42.56.751.98.994.429.233.924.35 1.484.35.401 0 .774-.065 1.12-.196.345-.14.695-.369 1.05-.686l.532.756c-.224.224-.49.42-.798.588a4.6 4.6 0 0 1-.966.378c-.346.093-.691.14-1.036.14Zm5.295-.14v-7.35h1.064l.014 2.128-.126-.364c.094-.336.252-.649.476-.938a2.61 2.61 0 0 1 .84-.686 2.227 2.227 0 0 1 1.078-.266c.159 0 .308.014.448.042.14.019.257.047.35.084l-.28 1.162a2.823 2.823 0 0 0-.406-.112 1.38 1.38 0 0 0-.378-.056c-.289 0-.56.061-.812.182a1.947 1.947 0 0 0-.63.462c-.177.196-.317.42-.42.672-.093.243-.14.495-.14.756V523h-1.078Zm6.707 0v-8.372c0-.42.08-.779.238-1.078.168-.308.397-.541.686-.7a2.022 2.022 0 0 1 1.008-.252c.318 0 .598.056.84.168.243.112.439.261.588.448l-.392.798a1.225 1.225 0 0 0-.924-.406 1.33 1.33 0 0 0-.532.098.656.656 0 0 0-.336.336c-.074.149-.112.345-.112.588V523h-1.064Zm-1.302-6.286v-.98h4.242v.98h-4.242ZM348.796 523v-4.9c0-.476-.168-.859-.504-1.148-.336-.289-.78-.434-1.33-.434a2.74 2.74 0 0 0-1.246.28 2.9 2.9 0 0 0-.994.84l-.7-.7c.42-.476.877-.831 1.372-1.064a3.856 3.856 0 0 1 1.638-.35c.56 0 1.045.093 1.456.28.41.187.723.457.938.812.224.355.336.784.336 1.288V523h-.966Zm-2.52.14c-.476 0-.901-.093-1.274-.28a2.319 2.319 0 0 1-.896-.77 2.134 2.134 0 0 1-.322-1.176c0-.364.065-.686.196-.966.14-.28.34-.513.602-.7.261-.187.592-.327.994-.42a5.532 5.532 0 0 1 1.372-.154h2.324l-.084.882h-2.38c-.327 0-.616.028-.868.084a1.835 1.835 0 0 0-.63.266 1.2 1.2 0 0 0-.392.42c-.084.159-.126.35-.126.574 0 .261.065.495.196.7.14.196.322.35.546.462.233.103.494.154.784.154.382 0 .742-.065 1.078-.196.336-.14.634-.327.896-.56.27-.243.485-.513.644-.812l.294.672a3.975 3.975 0 0 1-.77.952 3.783 3.783 0 0 1-1.022.644 3.04 3.04 0 0 1-1.162.224Zm9.186 0c-.7 0-1.325-.168-1.876-.504a3.677 3.677 0 0 1-1.288-1.358c-.308-.579-.462-1.232-.462-1.96 0-.719.154-1.363.462-1.932a3.538 3.538 0 0 1 1.288-1.358c.551-.336 1.176-.504 1.876-.504.635 0 1.209.126 1.722.378.513.243.919.583 1.218 1.022l-.616.728a2.636 2.636 0 0 0-.616-.588 2.853 2.853 0 0 0-.784-.406 2.418 2.418 0 0 0-.84-.154c-.513 0-.975.121-1.386.364a2.611 2.611 0 0 0-.952 1.008c-.233.42-.35.901-.35 1.442 0 .541.117 1.027.35 1.456.243.429.569.77.98 1.022.411.252.868.378 1.372.378.28 0 .551-.042.812-.126.271-.093.523-.224.756-.392.233-.168.453-.373.658-.616l.602.742c-.308.401-.728.728-1.26.98a3.788 3.788 0 0 1-1.666.378Zm8.235 0c-.737 0-1.39-.159-1.96-.476a3.583 3.583 0 0 1-1.344-1.344c-.317-.569-.476-1.218-.476-1.946 0-.569.089-1.087.266-1.554a3.75 3.75 0 0 1 .756-1.218 3.37 3.37 0 0 1 1.162-.798c.448-.187.938-.28 1.47-.28.467 0 .901.084 1.302.252.411.168.766.411 1.064.728.299.308.528.677.686 1.106.159.42.229.887.21 1.4l-.014.532h-6.132l-.224-.868h5.474l-.196.238.014-.35a2.04 2.04 0 0 0-.336-1.064 2.206 2.206 0 0 0-.798-.728 2.117 2.117 0 0 0-1.05-.266c-.541 0-1.008.117-1.4.35-.392.224-.69.546-.896.966-.196.411-.298.905-.308 1.484.01.579.131 1.083.364 1.512.234.42.56.751.98.994.43.233.924.35 1.484.35.402 0 .775-.065 1.12-.196.346-.14.696-.369 1.05-.686l.532.756c-.224.224-.49.42-.798.588-.298.159-.62.285-.966.378-.345.093-.69.14-1.036.14Zm5.674-.336-.504-.812 4.97-2.842v.658l-4.97-2.87.504-.784 5.026 2.884v.868l-5.026 2.898ZM97.835 664v-4.2c0-.408-.144-.736-.432-.984-.288-.248-.668-.372-1.14-.372-.392 0-.748.08-1.068.24-.32.16-.604.4-.852.72l-.6-.6c.36-.408.752-.712 1.176-.912.432-.2.9-.3 1.404-.3.48 0 .896.08 1.248.24.352.16.62.392.804.696.192.304.288.672.288 1.104V664h-.828Zm-2.16.12c-.408 0-.772-.08-1.092-.24-.32-.16-.576-.38-.768-.66a1.831 1.831 0 0 1-.276-1.008c0-.312.056-.588.168-.828.12-.24.292-.44.516-.6.224-.16.508-.28.852-.36a4.76 4.76 0 0 1 1.176-.132h1.992l-.072.756h-2.04c-.28 0-.528.024-.744.072a1.572 1.572 0 0 0-.54.228 1.031 1.031 0 0 0-.336.36 1.04 1.04 0 0 0-.108.492c0 .224.056.424.168.6.12.168.276.3.468.396.2.088.424.132.672.132.328 0 .636-.056.924-.168.288-.12.544-.28.768-.48.232-.208.416-.44.552-.696l.252.576a3.399 3.399 0 0 1-.66.816 3.238 3.238 0 0 1-.876.552 2.598 2.598 0 0 1-.996.192Zm7.277 0c-.464 0-.864-.096-1.2-.288a2.014 2.014 0 0 1-.78-.852c-.176-.376-.264-.836-.264-1.38v-3.9h.912v3.672c0 .632.144 1.116.432 1.452.296.328.708.492 1.236.492.256 0 .488-.044.696-.132.216-.096.404-.22.564-.372.16-.152.284-.32.372-.504.096-.192.144-.384.144-.576V657.7h.912v6.3h-.9l-.012-1.368.18-.096c-.096.288-.26.556-.492.804-.224.24-.492.432-.804.576a2.411 2.411 0 0 1-.996.204Zm6.18-.12v-7.908h.912V664h-.912Zm-1.452-5.412v-.888h3.936v.888h-3.936Zm8.354 5.532c-.616 0-1.168-.14-1.656-.42a3.182 3.182 0 0 1-1.14-1.164c-.28-.496-.42-1.06-.42-1.692 0-.632.14-1.192.42-1.68a3.09 3.09 0 0 1 1.14-1.152c.488-.28 1.04-.42 1.656-.42.616 0 1.164.14 1.644.42.488.28.868.664 1.14 1.152.28.488.42 1.048.42 1.68 0 .632-.14 1.196-.42 1.692a3.062 3.062 0 0 1-1.14 1.164c-.48.28-1.028.42-1.644.42Zm0-.84c.44 0 .832-.104 1.176-.312.352-.216.624-.508.816-.876.2-.368.296-.784.288-1.248.008-.472-.088-.888-.288-1.248a2.144 2.144 0 0 0-.816-.852 2.228 2.228 0 0 0-1.176-.312c-.44 0-.836.104-1.188.312a2.234 2.234 0 0 0-.816.864c-.2.36-.296.772-.288 1.236-.008.464.088.88.288 1.248.2.368.472.66.816.876a2.29 2.29 0 0 0 1.188.312Zm5.043.72v-6.3h.912l.012 1.428-.216.084c.096-.24.22-.456.372-.648.152-.2.328-.368.528-.504.208-.144.428-.256.66-.336a2.3 2.3 0 0 1 .732-.12c.352 0 .664.06.936.18.28.112.508.288.684.528.184.24.316.544.396.912h-.168l.072-.204c.096-.208.22-.396.372-.564.16-.176.34-.328.54-.456.208-.128.424-.224.648-.288a2.3 2.3 0 0 1 .684-.108c.464 0 .852.092 1.164.276.312.184.548.468.708.852.16.376.24.856.24 1.44V664h-.912v-3.792c0-.608-.124-1.052-.372-1.332s-.616-.42-1.104-.42c-.256 0-.496.044-.72.132a1.714 1.714 0 0 0-.936.852c-.088.184-.132.38-.132.588V664h-.924v-3.804c0-.584-.124-1.02-.372-1.308-.248-.288-.604-.432-1.068-.432-.264 0-.508.044-.732.132a2.088 2.088 0 0 0-.576.348 1.57 1.57 0 0 0-.372.492 1.195 1.195 0 0 0-.132.54V664h-.924Zm15.435 0v-4.2c0-.408-.144-.736-.432-.984-.288-.248-.668-.372-1.14-.372-.392 0-.748.08-1.068.24-.32.16-.604.4-.852.72l-.6-.6c.36-.408.752-.712 1.176-.912.432-.2.9-.3 1.404-.3.48 0 .896.08 1.248.24.352.16.62.392.804.696.192.304.288.672.288 1.104V664h-.828Zm-2.16.12c-.408 0-.772-.08-1.092-.24-.32-.16-.576-.38-.768-.66a1.831 1.831 0 0 1-.276-1.008c0-.312.056-.588.168-.828.12-.24.292-.44.516-.6.224-.16.508-.28.852-.36a4.76 4.76 0 0 1 1.176-.132h1.992l-.072.756h-2.04c-.28 0-.528.024-.744.072a1.572 1.572 0 0 0-.54.228 1.031 1.031 0 0 0-.336.36 1.04 1.04 0 0 0-.108.492c0 .224.056.424.168.6.12.168.276.3.468.396.2.088.424.132.672.132.328 0 .636-.056.924-.168.288-.12.544-.28.768-.48.232-.208.416-.44.552-.696l.252.576a3.399 3.399 0 0 1-.66.816 3.238 3.238 0 0 1-.876.552 2.598 2.598 0 0 1-.996.192Zm6.037-.12v-7.908h.912V664h-.912Zm-1.452-5.412v-.888h3.936v.888h-3.936ZM144.71 664v-6.3h.912v6.3h-.912Zm.444-7.776c-.208 0-.372-.056-.492-.168a.658.658 0 0 1-.168-.468c0-.192.056-.344.168-.456.12-.12.284-.18.492-.18.208 0 .368.056.48.168.12.112.18.268.18.468a.642.642 0 0 1-.168.456c-.112.12-.276.18-.492.18Zm2.892 7.776v-6.3h.912v1.344l-.18.108a1.88 1.88 0 0 1 .48-.768c.232-.232.512-.42.84-.564a2.4 2.4 0 0 1 1.02-.228c.472 0 .868.092 1.188.276.328.176.576.452.744.828.168.376.252.852.252 1.428V664h-.912v-3.816c0-.408-.06-.744-.18-1.008a1.109 1.109 0 0 0-.516-.576c-.224-.12-.508-.176-.852-.168-.272 0-.524.044-.756.132-.224.088-.42.208-.588.36-.168.144-.3.308-.396.492a1.094 1.094 0 0 0-.144.528V664h-.912Zm10.25 2.796a4.04 4.04 0 0 1-1.308-.216c-.416-.144-.756-.336-1.02-.576l.336-.72c.24.208.536.376.888.504.36.128.724.192 1.092.192.448 0 .836-.088 1.164-.264a1.87 1.87 0 0 0 .768-.768c.184-.336.276-.744.276-1.224v-1.38l.12.036c-.056.312-.204.6-.444.864-.232.264-.52.476-.864.636-.336.16-.692.24-1.068.24-.592 0-1.124-.14-1.596-.42a3.15 3.15 0 0 1-1.104-1.164c-.264-.488-.396-1.044-.396-1.668 0-.632.132-1.192.396-1.68.272-.496.64-.884 1.104-1.164.464-.288.98-.432 1.548-.432.248 0 .488.032.72.096.232.064.448.156.648.276.2.112.38.24.54.384.16.144.292.3.396.468.104.168.172.336.204.504l-.204.06.012-1.68h.9v5.964c0 .496-.076.936-.228 1.32-.144.392-.356.72-.636.984-.272.272-.6.476-.984.612a3.499 3.499 0 0 1-1.26.216Zm.024-3.528c.424 0 .8-.1 1.128-.3.336-.208.596-.492.78-.852.192-.368.288-.788.288-1.26s-.096-.888-.288-1.248a2.083 2.083 0 0 0-1.92-1.176c-.432 0-.82.108-1.164.324-.336.208-.6.496-.792.864-.192.36-.288.776-.288 1.248 0 .456.096.868.288 1.236.192.36.456.644.792.852.344.208.736.312 1.176.312Zm9.241 3.408V657.7h.912l.012 1.668-.168-.06c.072-.304.224-.584.456-.84a2.85 2.85 0 0 1 .864-.624c.344-.16.7-.24 1.068-.24.576 0 1.088.14 1.536.42.448.28.8.664 1.056 1.152.256.488.384 1.044.384 1.668 0 .624-.128 1.184-.384 1.68a3.028 3.028 0 0 1-1.056 1.164c-.44.28-.936.42-1.488.42-.392 0-.768-.08-1.128-.24a2.965 2.965 0 0 1-.912-.636c-.248-.264-.4-.548-.456-.852l.228-.096v4.392h-.924Zm3.048-3.408a2.094 2.094 0 0 0 1.908-1.176c.192-.368.288-.784.288-1.248a2.56 2.56 0 0 0-.288-1.224 2.14 2.14 0 0 0-.768-.852 2.083 2.083 0 0 0-1.14-.312 2.04 2.04 0 0 0-1.116.312c-.32.2-.576.48-.768.84-.184.36-.276.776-.276 1.248 0 .464.092.88.276 1.248.192.36.448.644.768.852.328.208.7.312 1.116.312Zm4.945.732v-6.3h.912l.012 1.824-.108-.312a2.22 2.22 0 0 1 1.128-1.392c.28-.152.588-.228.924-.228.136 0 .264.012.384.036.12.016.22.04.3.072l-.24.996a2.478 2.478 0 0 0-.348-.096 1.178 1.178 0 0 0-.324-.048c-.248 0-.48.052-.696.156a1.656 1.656 0 0 0-.54.396 1.79 1.79 0 0 0-.48 1.224V664h-.924Zm7.579.12c-.616 0-1.168-.14-1.656-.42a3.182 3.182 0 0 1-1.14-1.164c-.28-.496-.42-1.06-.42-1.692 0-.632.14-1.192.42-1.68a3.09 3.09 0 0 1 1.14-1.152c.488-.28 1.04-.42 1.656-.42.616 0 1.164.14 1.644.42.488.28.868.664 1.14 1.152.28.488.42 1.048.42 1.68 0 .632-.14 1.196-.42 1.692a3.062 3.062 0 0 1-1.14 1.164c-.48.28-1.028.42-1.644.42Zm0-.84c.44 0 .832-.104 1.176-.312.352-.216.624-.508.816-.876.2-.368.296-.784.288-1.248.008-.472-.088-.888-.288-1.248a2.144 2.144 0 0 0-.816-.852 2.228 2.228 0 0 0-1.176-.312c-.44 0-.836.104-1.188.312a2.234 2.234 0 0 0-.816.864c-.2.36-.296.772-.288 1.236-.008.464.088.88.288 1.248.2.368.472.66.816.876a2.29 2.29 0 0 0 1.188.312Zm7.815.84c-.6 0-1.136-.144-1.608-.432a3.15 3.15 0 0 1-1.104-1.164c-.264-.496-.396-1.056-.396-1.68 0-.616.132-1.168.396-1.656.272-.496.64-.884 1.104-1.164a3.025 3.025 0 0 1 1.608-.432c.544 0 1.036.108 1.476.324.44.208.788.5 1.044.876l-.528.624a2.265 2.265 0 0 0-.528-.504 2.442 2.442 0 0 0-.672-.348 2.08 2.08 0 0 0-.72-.132c-.44 0-.836.104-1.188.312a2.234 2.234 0 0 0-.816.864c-.2.36-.3.772-.3 1.236 0 .464.1.88.3 1.248.208.368.488.66.84.876.352.216.744.324 1.176.324.24 0 .472-.036.696-.108.232-.08.448-.192.648-.336.2-.144.388-.32.564-.528l.516.636c-.264.344-.624.624-1.08.84a3.246 3.246 0 0 1-1.428.324Zm7.058 0c-.632 0-1.192-.136-1.68-.408a3.063 3.063 0 0 1-1.152-1.152c-.272-.488-.408-1.044-.408-1.668 0-.488.076-.932.228-1.332.16-.408.376-.756.648-1.044.28-.296.612-.524.996-.684.384-.16.804-.24 1.26-.24.4 0 .772.072 1.116.216.352.144.656.352.912.624.256.264.452.58.588.948.136.36.196.76.18 1.2l-.012.456h-5.256l-.192-.744h4.692l-.168.204.012-.3a1.758 1.758 0 0 0-.288-.912 1.898 1.898 0 0 0-.684-.624 1.813 1.813 0 0 0-.9-.228c-.464 0-.864.1-1.2.3a1.88 1.88 0 0 0-.768.828c-.168.352-.256.776-.264 1.272.008.496.112.928.312 1.296.2.36.48.644.84.852.368.2.792.3 1.272.3.344 0 .664-.056.96-.168.296-.12.596-.316.9-.588l.456.648c-.192.192-.42.36-.684.504a3.961 3.961 0 0 1-.828.324 3.39 3.39 0 0 1-.888.12Zm6.652 0a3.552 3.552 0 0 1-1.428-.276 2.609 2.609 0 0 1-1.032-.816l.624-.54c.232.288.508.504.828.648.32.144.684.216 1.092.216.208 0 .392-.024.552-.072.16-.056.296-.128.408-.216a.836.836 0 0 0 .24-.324c.056-.128.084-.264.084-.408a.763.763 0 0 0-.312-.636 1.96 1.96 0 0 0-.468-.228 5.302 5.302 0 0 0-.708-.228 6.017 6.017 0 0 1-1.092-.36 2.317 2.317 0 0 1-.684-.492 1.513 1.513 0 0 1-.288-.468 1.61 1.61 0 0 1-.096-.576c0-.344.096-.648.288-.912a1.87 1.87 0 0 1 .78-.612 2.737 2.737 0 0 1 1.14-.228c.288 0 .572.04.852.12.288.08.552.196.792.348.24.152.448.336.624.552l-.54.576a2.713 2.713 0 0 0-.528-.432 2.158 2.158 0 0 0-.576-.288 1.73 1.73 0 0 0-.588-.108c-.208 0-.396.024-.564.072-.168.04-.312.104-.432.192a.759.759 0 0 0-.252.3.876.876 0 0 0-.084.396c.008.112.036.224.084.336a.734.734 0 0 0 .204.264c.112.088.272.176.48.264.208.08.46.152.756.216.384.096.708.204.972.324.264.112.476.248.636.408.168.144.288.312.36.504.072.192.108.412.108.66 0 .36-.096.68-.288.96a1.905 1.905 0 0 1-.792.636c-.336.152-.72.228-1.152.228Zm6.282 0a3.552 3.552 0 0 1-1.428-.276 2.609 2.609 0 0 1-1.032-.816l.624-.54c.232.288.508.504.828.648.32.144.684.216 1.092.216.208 0 .392-.024.552-.072.16-.056.296-.128.408-.216a.836.836 0 0 0 .24-.324c.056-.128.084-.264.084-.408a.763.763 0 0 0-.312-.636 1.96 1.96 0 0 0-.468-.228 5.302 5.302 0 0 0-.708-.228 6.017 6.017 0 0 1-1.092-.36 2.317 2.317 0 0 1-.684-.492 1.513 1.513 0 0 1-.288-.468 1.61 1.61 0 0 1-.096-.576c0-.344.096-.648.288-.912a1.87 1.87 0 0 1 .78-.612 2.737 2.737 0 0 1 1.14-.228c.288 0 .572.04.852.12.288.08.552.196.792.348.24.152.448.336.624.552l-.54.576a2.713 2.713 0 0 0-.528-.432 2.158 2.158 0 0 0-.576-.288 1.73 1.73 0 0 0-.588-.108c-.208 0-.396.024-.564.072-.168.04-.312.104-.432.192a.759.759 0 0 0-.252.3.876.876 0 0 0-.084.396c.008.112.036.224.084.336a.734.734 0 0 0 .204.264c.112.088.272.176.48.264.208.08.46.152.756.216.384.096.708.204.972.324.264.112.476.248.636.408.168.144.288.312.36.504.072.192.108.412.108.66 0 .36-.096.68-.288.96a1.905 1.905 0 0 1-.792.636c-.336.152-.72.228-1.152.228Zm7.038 0c-.632 0-1.192-.136-1.68-.408a3.063 3.063 0 0 1-1.152-1.152c-.272-.488-.408-1.044-.408-1.668 0-.488.076-.932.228-1.332.16-.408.376-.756.648-1.044.28-.296.612-.524.996-.684.384-.16.804-.24 1.26-.24.4 0 .772.072 1.116.216.352.144.656.352.912.624.256.264.452.58.588.948.136.36.196.76.18 1.2l-.012.456h-5.256l-.192-.744h4.692l-.168.204.012-.3a1.758 1.758 0 0 0-.288-.912 1.898 1.898 0 0 0-.684-.624 1.813 1.813 0 0 0-.9-.228c-.464 0-.864.1-1.2.3a1.88 1.88 0 0 0-.768.828c-.168.352-.256.776-.264 1.272.008.496.112.928.312 1.296.2.36.48.644.84.852.368.2.792.3 1.272.3.344 0 .664-.056.96-.168.296-.12.596-.316.9-.588l.456.648c-.192.192-.42.36-.684.504a3.961 3.961 0 0 1-.828.324 3.39 3.39 0 0 1-.888.12Zm6.651 0a3.552 3.552 0 0 1-1.428-.276 2.609 2.609 0 0 1-1.032-.816l.624-.54c.232.288.508.504.828.648.32.144.684.216 1.092.216.208 0 .392-.024.552-.072.16-.056.296-.128.408-.216a.836.836 0 0 0 .24-.324c.056-.128.084-.264.084-.408a.763.763 0 0 0-.312-.636 1.96 1.96 0 0 0-.468-.228 5.302 5.302 0 0 0-.708-.228 6.017 6.017 0 0 1-1.092-.36 2.317 2.317 0 0 1-.684-.492 1.513 1.513 0 0 1-.288-.468 1.61 1.61 0 0 1-.096-.576c0-.344.096-.648.288-.912a1.87 1.87 0 0 1 .78-.612 2.737 2.737 0 0 1 1.14-.228c.288 0 .572.04.852.12.288.08.552.196.792.348.24.152.448.336.624.552l-.54.576a2.713 2.713 0 0 0-.528-.432 2.158 2.158 0 0 0-.576-.288 1.73 1.73 0 0 0-.588-.108c-.208 0-.396.024-.564.072-.168.04-.312.104-.432.192a.759.759 0 0 0-.252.3.876.876 0 0 0-.084.396c.008.112.036.224.084.336a.734.734 0 0 0 .204.264c.112.088.272.176.48.264.208.08.46.152.756.216.384.096.708.204.972.324.264.112.476.248.636.408.168.144.288.312.36.504.072.192.108.412.108.66 0 .36-.096.68-.288.96a1.905 1.905 0 0 1-.792.636c-.336.152-.72.228-1.152.228ZM201.039 371v-1.184h1.904v-8.832h-1.904V359.8h5.088v1.184h-1.92v8.832h1.92V371h-5.088Zm12.186.16c-.8 0-1.536-.144-2.208-.432a5.48 5.48 0 0 1-1.744-1.2 5.367 5.367 0 0 1-1.136-1.808c-.267-.704-.4-1.477-.4-2.32 0-.832.133-1.595.4-2.288a5.331 5.331 0 0 1 1.136-1.824 5.353 5.353 0 0 1 1.744-1.216 5.547 5.547 0 0 1 2.208-.432c.789 0 1.515.144 2.176.432a5.14 5.14 0 0 1 1.744 1.216 5.22 5.22 0 0 1 1.152 1.824c.277.704.416 1.467.416 2.288 0 .832-.139 1.6-.416 2.304a5.429 5.429 0 0 1-1.152 1.824 5.256 5.256 0 0 1-1.744 1.2 5.391 5.391 0 0 1-2.176.432Zm0-1.232c.608 0 1.168-.112 1.68-.336a3.923 3.923 0 0 0 1.328-.944c.373-.405.661-.88.864-1.424a5.05 5.05 0 0 0 .32-1.824c0-.651-.107-1.248-.32-1.792a4.257 4.257 0 0 0-.864-1.44 3.82 3.82 0 0 0-1.328-.96 4.146 4.146 0 0 0-1.68-.336c-.608 0-1.168.112-1.68.336-.512.224-.96.539-1.344.944a4.46 4.46 0 0 0-.88 1.44 5.222 5.222 0 0 0-.304 1.808c0 .875.181 1.653.544 2.336a4.19 4.19 0 0 0 1.488 1.616c.629.384 1.355.576 2.176.576Zm11.25 1.232c-.928 0-1.744-.176-2.448-.528-.694-.363-1.28-.891-1.76-1.584l.896-.992c.48.704.986 1.205 1.52 1.504.544.299 1.184.448 1.92.448.469 0 .89-.08 1.264-.24.384-.16.688-.379.912-.656.224-.277.336-.592.336-.944 0-.235-.043-.448-.128-.64a1.315 1.315 0 0 0-.368-.512 2.772 2.772 0 0 0-.608-.416 4.865 4.865 0 0 0-.848-.336c-.31-.107-.662-.208-1.056-.304a6.85 6.85 0 0 1-1.456-.464 4.08 4.08 0 0 1-1.04-.688 2.534 2.534 0 0 1-.64-.912 3.201 3.201 0 0 1-.208-1.184c0-.597.165-1.125.496-1.584a3.533 3.533 0 0 1 1.36-1.088c.576-.267 1.221-.4 1.936-.4.864 0 1.6.16 2.208.48.618.32 1.114.773 1.488 1.36l-.896.88a3.68 3.68 0 0 0-1.216-1.152c-.459-.277-.998-.416-1.616-.416-.48 0-.907.08-1.28.24-.374.16-.667.384-.88.672a1.55 1.55 0 0 0-.32.976c0 .267.048.512.144.736.106.213.261.4.464.56.202.16.464.304.784.432s.698.24 1.136.336c.597.139 1.13.304 1.6.496.48.192.885.416 1.216.672.33.256.581.544.752.864.17.32.256.683.256 1.088 0 .661-.166 1.243-.496 1.744-.32.491-.774.875-1.36 1.152-.587.267-1.275.4-2.064.4ZM198.367 438l4.32-11.2h1.36l4.304 11.2h-1.36l-2.736-7.2a8.101 8.101 0 0 1-.176-.496 30.542 30.542 0 0 0-.304-.896l-.336-.944a17.375 17.375 0 0 0-.256-.704h.304c-.064.181-.144.416-.24.704s-.203.587-.32.896c-.107.309-.208.597-.304.864s-.171.48-.224.64l-2.72 7.136h-1.312Zm1.824-3.088.464-1.232h5.296l.528 1.232h-6.288Zm9.663 3.088v-8.4h1.216v1.792l-.24.144c.117-.373.33-.715.64-1.024.309-.309.682-.56 1.12-.752.437-.203.89-.304 1.36-.304.629 0 1.157.123 1.584.368.437.235.768.603.992 1.104.224.501.336 1.136.336 1.904V438h-1.216v-5.088c0-.544-.08-.992-.24-1.344a1.483 1.483 0 0 0-.688-.768c-.299-.16-.678-.235-1.136-.224-.363 0-.699.059-1.008.176-.299.117-.56.277-.784.48-.224.192-.4.411-.528.656a1.459 1.459 0 0 0-.192.704V438h-1.216Zm12.77.16c-.779 0-1.472-.187-2.08-.56a4.163 4.163 0 0 1-1.424-1.552c-.352-.651-.528-1.392-.528-2.224 0-.843.176-1.589.528-2.24a4.01 4.01 0 0 1 1.424-1.552 3.726 3.726 0 0 1 2.032-.576c.416 0 .821.069 1.216.208.395.139.747.331 1.056.576.32.235.576.501.768.8.192.299.299.608.32.928h-.336v-5.808h1.216V438H225.6v-2.256l.256-.016c-.032.32-.144.624-.336.912a3.392 3.392 0 0 1-.736.784 3.717 3.717 0 0 1-.992.544 3.576 3.576 0 0 1-1.168.192Zm.144-1.072c.555 0 1.045-.139 1.472-.416a2.943 2.943 0 0 0 1.024-1.168c.245-.491.368-1.056.368-1.696 0-.64-.123-1.205-.368-1.696a2.943 2.943 0 0 0-1.024-1.168c-.427-.288-.923-.432-1.488-.432a2.75 2.75 0 0 0-1.52.432 3.044 3.044 0 0 0-1.04 1.184c-.245.491-.368 1.056-.368 1.696 0 .619.123 1.179.368 1.68.256.491.603.88 1.04 1.168.448.277.96.416 1.536.416Zm6.305.912v-8.4h1.215l.017 2.432-.144-.416c.106-.384.288-.741.544-1.072.266-.331.586-.592.96-.784a2.536 2.536 0 0 1 1.232-.304c.181 0 .352.016.512.048.16.021.293.053.4.096l-.32 1.328a3.376 3.376 0 0 0-.464-.128 1.565 1.565 0 0 0-.432-.064c-.331 0-.64.069-.928.208a2.195 2.195 0 0 0-.72.528c-.203.224-.363.48-.48.768-.107.277-.16.565-.16.864V438h-1.232Zm9.385.16c-.821 0-1.557-.187-2.208-.56a4.245 4.245 0 0 1-1.52-1.552c-.373-.661-.56-1.413-.56-2.256 0-.843.187-1.589.56-2.24a4.12 4.12 0 0 1 1.52-1.536c.651-.373 1.387-.56 2.208-.56.822 0 1.552.187 2.192.56a3.957 3.957 0 0 1 1.52 1.536c.374.651.56 1.397.56 2.24 0 .843-.186 1.595-.56 2.256a4.073 4.073 0 0 1-1.52 1.552c-.64.373-1.37.56-2.192.56Zm0-1.12a2.97 2.97 0 0 0 1.568-.416c.47-.288.832-.677 1.088-1.168.267-.491.395-1.045.384-1.664.011-.629-.117-1.184-.384-1.664a2.851 2.851 0 0 0-1.088-1.136 2.97 2.97 0 0 0-1.568-.416c-.586 0-1.114.139-1.584.416a2.982 2.982 0 0 0-1.088 1.152c-.266.48-.394 1.029-.384 1.648-.01.619.118 1.173.384 1.664.267.491.63.88 1.088 1.168.47.277.998.416 1.584.416Zm6.324.96v-8.4h1.216v8.4h-1.216Zm.592-10.368c-.277 0-.496-.075-.656-.224-.149-.16-.224-.368-.224-.624s.075-.459.224-.608c.16-.16.379-.24.656-.24s.491.075.64.224c.16.149.24.357.24.624a.858.858 0 0 1-.224.608c-.149.16-.368.24-.656.24Zm6.672 10.528c-.779 0-1.472-.187-2.08-.56a4.163 4.163 0 0 1-1.424-1.552c-.352-.651-.528-1.392-.528-2.224 0-.843.176-1.589.528-2.24a4.01 4.01 0 0 1 1.424-1.552 3.726 3.726 0 0 1 2.032-.576c.416 0 .821.069 1.216.208.395.139.747.331 1.056.576.32.235.576.501.768.8.192.299.299.608.32.928h-.336v-5.808h1.216V438h-1.216v-2.256l.256-.016c-.032.32-.144.624-.336.912a3.392 3.392 0 0 1-.736.784 3.717 3.717 0 0 1-.992.544 3.576 3.576 0 0 1-1.168.192Zm.144-1.072c.555 0 1.045-.139 1.472-.416a2.943 2.943 0 0 0 1.024-1.168c.245-.491.368-1.056.368-1.696 0-.64-.123-1.205-.368-1.696a2.943 2.943 0 0 0-1.024-1.168c-.427-.288-.923-.432-1.488-.432a2.75 2.75 0 0 0-1.52.432 3.044 3.044 0 0 0-1.04 1.184c-.245.491-.368 1.056-.368 1.696 0 .619.123 1.179.368 1.68.256.491.603.88 1.04 1.168.448.277.96.416 1.536.416Z" fill="#000"/><path d="M360.5 273v227" stroke="#6B5521" stroke-width="2"/><path d="M396 379h-85a4 4 0 0 0-4 4v49a4 4 0 0 0 4 4h85a4 4 0 0 0 4-4v-49a4 4 0 0 0-4-4Z" fill="#757575"/><path d="M254 370h35.5a4 4 0 0 1 4 4v19m0 0h13m-13 0v39a4 4 0 0 1-4 4H279" stroke="#6B5521" stroke-width="2"/><path d="M354 677c9.941 0 18-8.059 18-18s-8.059-18-18-18-18 8.059-18 18 8.059 18 18 18ZM404 677c9.941 0 18-8.059 18-18s-8.059-18-18-18-18 8.059-18 18 8.059 18 18 18ZM454 677c9.941 0 18-8.059 18-18s-8.059-18-18-18-18 8.059-18 18 8.059 18 18 18Z" fill="#736AE4" fill-opacity=".73"/><path d="M101.5 240.5h-69a4 4 0 0 1-4-4v-196a4 4 0 0 0-4-4H5a4 4 0 0 1-4-4V-2M462 334v-68.637a4 4 0 0 1 4-4h162.771a4 4 0 0 0 4-4V238a4 4 0 0 1 4-4H665" stroke="#8D3D3B" stroke-width="2"/><path d="M345.863 412v-8.372c0-.42.079-.779.238-1.078.168-.308.397-.541.686-.7a2.022 2.022 0 0 1 1.008-.252c.317 0 .597.056.84.168.243.112.439.261.588.448l-.392.798a1.234 1.234 0 0 0-.924-.406c-.205 0-.383.033-.532.098a.656.656 0 0 0-.336.336c-.075.149-.112.345-.112.588V412h-1.064Zm-1.302-6.286v-.98h4.242v.98h-4.242Zm8.729 6.426c-.719 0-1.363-.163-1.932-.49a3.71 3.71 0 0 1-1.33-1.358c-.327-.579-.49-1.237-.49-1.974 0-.737.163-1.391.49-1.96a3.604 3.604 0 0 1 1.33-1.344c.569-.327 1.213-.49 1.932-.49.718 0 1.358.163 1.918.49a3.484 3.484 0 0 1 1.33 1.344c.326.569.49 1.223.49 1.96 0 .737-.164 1.395-.49 1.974a3.582 3.582 0 0 1-1.33 1.358c-.56.327-1.2.49-1.918.49Zm0-.98c.513 0 .97-.121 1.372-.364a2.58 2.58 0 0 0 .952-1.022c.233-.429.345-.915.336-1.456.009-.551-.103-1.036-.336-1.456a2.507 2.507 0 0 0-.952-.994 2.598 2.598 0 0 0-1.372-.364c-.514 0-.976.121-1.386.364a2.604 2.604 0 0 0-.952 1.008c-.234.42-.346.901-.336 1.442-.01.541.102 1.027.336 1.456.233.429.55.77.952 1.022.41.243.872.364 1.386.364Zm5.295.84v-7.35h1.064l.014 2.128-.126-.364c.093-.336.252-.649.476-.938.233-.289.513-.518.84-.686a2.227 2.227 0 0 1 1.078-.266c.159 0 .308.014.448.042.14.019.257.047.35.084l-.28 1.162a2.859 2.859 0 0 0-.406-.112 1.39 1.39 0 0 0-.378-.056c-.289 0-.56.061-.812.182a1.926 1.926 0 0 0-.63.462c-.177.196-.317.42-.42.672-.093.243-.14.495-.14.756V412h-1.078Z" fill="#000" fill-opacity=".65"/><path d="M348.797 662.096 344 659.688v-.942l4.797-2.408.638.872-4.771 2.396v-.779l4.771 2.396-.638.873ZM350.543 663.677l5.475-9.677h1.316l-5.462 9.677h-1.329ZM359.202 662.096l-.638-.873 4.771-2.396v.779l-4.771-2.396.638-.872 4.797 2.408v.942l-4.797 2.408ZM398.797 662.096 394 659.688v-.942l4.797-2.408.638.872-4.771 2.396v-.779l4.771 2.396-.638.873ZM400.543 663.677l5.475-9.677h1.316l-5.462 9.677h-1.329ZM409.202 662.096l-.638-.873 4.771-2.396v.779l-4.771-2.396.638-.872 4.797 2.408v.942l-4.797 2.408ZM448.797 662.096 444 659.688v-.942l4.797-2.408.638.872-4.771 2.396v-.779l4.771 2.396-.638.873ZM450.543 663.677l5.475-9.677h1.316l-5.462 9.677h-1.329ZM459.202 662.096l-.638-.873 4.771-2.396v.779l-4.771-2.396.638-.872 4.797 2.408v.942l-4.797 2.408Z" fill="#BEBEBE"/><path d="M462 509h15.5a4 4 0 0 0 4-4v-15.14a4 4 0 0 1 2.065-3.501l14.87-8.218a4 4 0 0 0 2.065-3.501V455M95 403H79.5a4 4 0 0 0-4 4v15.14a4 4 0 0 1-2.065 3.501l-14.87 8.218a4 4 0 0 0-2.065 3.501V457M481.5 488v-82.5M75.5 424v82.5" stroke="#8D3D3B" stroke-width="2"/><path d="M500.5 456a6.5 6.5 0 1 1 0-13 6.5 6.5 0 0 1 0 13ZM56.5 456a6.5 6.5 0 1 1 0 13 6.5 6.5 0 0 1 0-13ZM481.5 406a6.5 6.5 0 1 1 0-13 6.5 6.5 0 0 1 0 13ZM75.5 506a6.5 6.5 0 1 1 0 13 6.5 6.5 0 0 1 0-13ZM25.5 305a6.5 6.5 0 1 0 0-13 6.5 6.5 0 0 0 0 13ZM25.5 370a6.5 6.5 0 1 0 0-13 6.5 6.5 0 0 0 0 13ZM26 304.5V356" stroke="#8D3D3B" stroke-width="2"/></g><defs><clipPath id="a"><path fill="#fff" d="M0 0h665v706H0z"/></clipPath></defs></svg>