<svg width="204" height="350" viewBox="0 0 204 350" fill="none" xmlns="http://www.w3.org/2000/svg">
<path d="M70.2859 119.228H49.3235C48.2339 119.228 47.3505 120.116 47.3505 121.211V293.237C47.3505 294.332 46.4672 295.22 45.3776 295.22H14.7972C13.7075 295.22 12.8242 296.107 12.8242 297.203V332.649C12.8242 333.744 13.7075 334.632 14.7972 334.632H47.3505" stroke="#8D3D3B" stroke-width="2"/>
<path d="M203.212 100.637H72.9983C71.9087 100.637 71.0254 101.525 71.0254 102.62V133.357C71.0254 134.452 71.9087 135.34 72.9983 135.34H203.212C204.301 135.34 205.185 134.452 205.185 133.357V102.62C205.185 101.525 204.301 100.637 203.212 100.637Z" fill="#757575"/>
<path d="M202.226 147.238H72.012C70.9224 147.238 70.0391 148.126 70.0391 149.221V279.108C70.0391 280.203 70.9224 281.091 72.012 281.091H202.226C203.315 281.091 204.198 280.203 204.198 279.108V149.221C204.198 148.126 203.315 147.238 202.226 147.238Z" fill="#353535"/>
<path d="M132.186 303.895H23.6751C22.5855 303.895 21.7021 304.783 21.7021 305.878V348.017C21.7021 349.112 22.5855 350 23.6751 350H132.186C133.276 350 134.159 349.112 134.159 348.017V305.878C134.159 304.783 133.276 303.895 132.186 303.895Z" fill="#353535"/>
<path d="M252.782 303.895H144.271C143.181 303.895 142.298 304.783 142.298 305.878V348.017C142.298 349.112 143.181 350 144.271 350H252.782C253.872 350 254.755 349.112 254.755 348.017V305.878C254.755 304.783 253.872 303.895 252.782 303.895Z" fill="#353535"/>
<path d="M123.309 314.306H35.0198C33.9302 314.306 33.0469 315.194 33.0469 316.289V337.606C33.0469 338.701 33.9302 339.589 35.0198 339.589H123.309C124.398 339.589 125.281 338.701 125.281 337.606V316.289C125.281 315.194 124.398 314.306 123.309 314.306Z" fill="#757575"/>
<path d="M123.308 170.042H88.7815C87.6919 170.042 86.8086 170.93 86.8086 172.025V190.368C86.8086 191.463 87.6919 192.351 88.7815 192.351H123.308C124.397 192.351 125.281 191.463 125.281 190.368V172.025C125.281 170.93 124.397 170.042 123.308 170.042Z" fill="#757575"/>
<path d="M135.639 203.258H88.7815C87.6919 203.258 86.8086 204.146 86.8086 205.241V223.584C86.8086 224.679 87.6919 225.567 88.7815 225.567H135.639C136.728 225.567 137.612 224.679 137.612 223.584V205.241C137.612 204.146 136.728 203.258 135.639 203.258Z" fill="#757575"/>
<path d="M195.32 247.875H88.7815C87.6919 247.875 86.8086 248.763 86.8086 249.858V264.235C86.8086 265.33 87.6919 266.218 88.7815 266.218H195.32C196.409 266.218 197.293 265.33 197.293 264.235V249.858C197.293 248.763 196.409 247.875 195.32 247.875Z" fill="#757575"/>
<path d="M90.8652 122.034L94.1324 115.411H95.0715L91.8122 122.034H90.8652ZM95.4232 122.034L98.6904 115.411H99.6295L96.3702 122.034H95.4232ZM101.147 120.963V116.783H102.094L102.11 117.632L101.952 117.695C101.999 117.558 102.071 117.431 102.165 117.314C102.26 117.193 102.373 117.087 102.505 116.997C102.636 116.907 102.775 116.839 102.923 116.791C103.07 116.738 103.223 116.712 103.381 116.712C103.607 116.712 103.807 116.749 103.98 116.823C104.154 116.897 104.298 117.011 104.414 117.164C104.535 117.317 104.627 117.513 104.691 117.751L104.541 117.719L104.596 117.592C104.659 117.465 104.743 117.349 104.848 117.243C104.953 117.138 105.072 117.045 105.204 116.965C105.335 116.881 105.472 116.817 105.614 116.775C105.761 116.733 105.903 116.712 106.04 116.712C106.356 116.712 106.619 116.775 106.829 116.902C107.04 117.029 107.198 117.222 107.303 117.481C107.408 117.74 107.461 118.06 107.461 118.441V120.963H106.49V118.504C106.49 118.187 106.427 117.952 106.3 117.798C106.18 117.645 105.99 117.568 105.732 117.568C105.596 117.568 105.469 117.592 105.353 117.64C105.238 117.682 105.135 117.745 105.046 117.83C104.961 117.909 104.896 118.005 104.848 118.116C104.801 118.221 104.777 118.34 104.777 118.473V120.963H103.807V118.496C103.807 118.195 103.741 117.965 103.609 117.806C103.483 117.648 103.302 117.568 103.065 117.568C102.928 117.568 102.802 117.592 102.686 117.64C102.576 117.682 102.475 117.745 102.386 117.83C102.302 117.909 102.236 118.002 102.189 118.108C102.142 118.213 102.118 118.33 102.118 118.457V120.963H101.147ZM111.221 121.043C110.806 121.043 110.435 120.95 110.109 120.765C109.783 120.575 109.525 120.315 109.335 119.988C109.151 119.66 109.059 119.287 109.059 118.869C109.059 118.451 109.151 118.078 109.335 117.751C109.525 117.423 109.783 117.166 110.109 116.981C110.435 116.791 110.806 116.696 111.221 116.696C111.632 116.696 112 116.791 112.326 116.981C112.652 117.166 112.908 117.423 113.092 117.751C113.281 118.078 113.376 118.451 113.376 118.869C113.376 119.287 113.281 119.66 113.092 119.988C112.908 120.315 112.652 120.575 112.326 120.765C112 120.95 111.632 121.043 111.221 121.043ZM111.221 120.178C111.448 120.178 111.65 120.122 111.829 120.011C112.008 119.895 112.147 119.739 112.247 119.543C112.352 119.343 112.403 119.118 112.397 118.869C112.403 118.615 112.352 118.391 112.247 118.195C112.147 117.994 112.008 117.838 111.829 117.727C111.65 117.616 111.448 117.56 111.221 117.56C110.995 117.56 110.79 117.618 110.606 117.735C110.427 117.846 110.288 118.002 110.188 118.203C110.088 118.399 110.038 118.621 110.038 118.869C110.038 119.118 110.088 119.343 110.188 119.543C110.288 119.739 110.427 119.895 110.606 120.011C110.79 120.122 110.995 120.178 111.221 120.178ZM117.322 121.043C117.138 121.043 116.959 121.016 116.786 120.963C116.612 120.905 116.452 120.828 116.304 120.733C116.162 120.638 116.044 120.532 115.949 120.416C115.854 120.294 115.791 120.172 115.76 120.051L115.989 119.948L115.965 120.939H115.034V115.094H115.996V117.743L115.831 117.671C115.857 117.545 115.915 117.426 116.004 117.314C116.094 117.198 116.207 117.095 116.344 117.005C116.48 116.91 116.63 116.836 116.794 116.783C116.957 116.725 117.125 116.696 117.299 116.696C117.667 116.696 117.993 116.791 118.277 116.981C118.567 117.166 118.793 117.423 118.956 117.751C119.124 118.073 119.208 118.446 119.208 118.869C119.208 119.287 119.127 119.66 118.964 119.988C118.8 120.315 118.575 120.575 118.285 120.765C118.001 120.95 117.68 121.043 117.322 121.043ZM117.125 120.186C117.346 120.186 117.543 120.13 117.717 120.019C117.89 119.903 118.027 119.747 118.127 119.551C118.227 119.351 118.277 119.123 118.277 118.869C118.277 118.61 118.227 118.383 118.127 118.187C118.033 117.986 117.898 117.83 117.725 117.719C117.551 117.608 117.351 117.552 117.125 117.552C116.894 117.552 116.691 117.608 116.517 117.719C116.344 117.83 116.207 117.986 116.107 118.187C116.007 118.383 115.957 118.61 115.957 118.869C115.957 119.123 116.007 119.351 116.107 119.551C116.207 119.747 116.344 119.903 116.517 120.019C116.691 120.13 116.894 120.186 117.125 120.186ZM120.974 120.963V116.783H121.936V120.963H120.974ZM121.447 115.895C121.252 115.895 121.1 115.847 120.989 115.752C120.884 115.651 120.832 115.511 120.832 115.331C120.832 115.162 120.887 115.028 120.997 114.927C121.108 114.821 121.258 114.768 121.447 114.768C121.642 114.768 121.791 114.818 121.897 114.919C122.007 115.014 122.063 115.152 122.063 115.331C122.063 115.496 122.007 115.63 121.897 115.736C121.787 115.842 121.637 115.895 121.447 115.895ZM123.964 120.963V115.094H124.927V120.963H123.964ZM128.737 121.043C128.301 121.043 127.914 120.953 127.577 120.773C127.246 120.588 126.985 120.337 126.796 120.019C126.612 119.697 126.52 119.327 126.52 118.909C126.52 118.581 126.572 118.282 126.677 118.013C126.782 117.743 126.93 117.51 127.119 117.314C127.309 117.114 127.532 116.96 127.79 116.854C128.053 116.743 128.337 116.688 128.642 116.688C128.921 116.688 129.177 116.741 129.408 116.846C129.645 116.952 129.85 117.098 130.023 117.283C130.197 117.463 130.329 117.679 130.418 117.933C130.513 118.182 130.558 118.454 130.552 118.75L130.544 119.099H127.182L126.993 118.425H129.732L129.613 118.56V118.377C129.597 118.219 129.545 118.078 129.455 117.957C129.366 117.83 129.25 117.732 129.108 117.663C128.971 117.59 128.819 117.552 128.65 117.552C128.392 117.552 128.174 117.603 127.995 117.703C127.816 117.798 127.68 117.941 127.585 118.131C127.496 118.322 127.451 118.557 127.451 118.837C127.451 119.107 127.506 119.343 127.617 119.543C127.732 119.744 127.895 119.9 128.106 120.011C128.316 120.122 128.561 120.178 128.84 120.178C129.035 120.178 129.213 120.146 129.376 120.083C129.545 120.019 129.724 119.906 129.913 119.742L130.387 120.408C130.244 120.54 130.081 120.654 129.897 120.749C129.718 120.839 129.529 120.91 129.329 120.963C129.129 121.016 128.932 121.043 128.737 121.043ZM137.678 120.963V118.29C137.678 118.063 137.602 117.886 137.449 117.759C137.302 117.626 137.11 117.56 136.873 117.56C136.652 117.56 136.452 117.605 136.273 117.695C136.094 117.78 135.928 117.917 135.776 118.108L135.176 117.505C135.423 117.241 135.697 117.039 135.997 116.902C136.297 116.765 136.62 116.696 136.968 116.696C137.299 116.696 137.583 116.749 137.82 116.854C138.062 116.96 138.249 117.119 138.38 117.33C138.512 117.537 138.578 117.79 138.578 118.092V120.963H137.678ZM136.494 121.043C136.226 121.043 135.986 120.989 135.776 120.884C135.565 120.778 135.397 120.633 135.271 120.448C135.15 120.257 135.089 120.035 135.089 119.781C135.089 119.559 135.129 119.366 135.208 119.202C135.287 119.033 135.402 118.893 135.555 118.782C135.713 118.671 135.907 118.589 136.139 118.536C136.376 118.478 136.647 118.449 136.952 118.449H138.144L138.073 119.147H136.897C136.755 119.147 136.628 119.16 136.518 119.186C136.407 119.213 136.313 119.252 136.234 119.305C136.155 119.358 136.097 119.422 136.06 119.496C136.023 119.565 136.005 119.649 136.005 119.75C136.005 119.855 136.031 119.948 136.084 120.027C136.136 120.101 136.207 120.16 136.297 120.202C136.386 120.244 136.491 120.265 136.613 120.265C136.786 120.265 136.949 120.236 137.102 120.178C137.26 120.12 137.399 120.038 137.52 119.932C137.641 119.826 137.736 119.707 137.804 119.575L138.002 120.114C137.891 120.299 137.754 120.461 137.591 120.598C137.433 120.736 137.26 120.844 137.07 120.924C136.886 121.003 136.694 121.043 136.494 121.043ZM140.392 122.708V116.783H141.339L141.355 117.727L141.189 117.656C141.22 117.491 141.31 117.338 141.457 117.196C141.605 117.053 141.784 116.936 141.994 116.846C142.21 116.757 142.433 116.712 142.665 116.712C143.033 116.712 143.359 116.804 143.643 116.989C143.933 117.174 144.159 117.431 144.322 117.759C144.491 118.081 144.574 118.451 144.574 118.869C144.574 119.287 144.493 119.66 144.33 119.988C144.167 120.31 143.941 120.567 143.651 120.757C143.367 120.942 143.043 121.035 142.68 121.035C142.439 121.035 142.204 120.987 141.978 120.892C141.757 120.797 141.571 120.672 141.418 120.519C141.265 120.366 141.168 120.207 141.126 120.043L141.362 119.924V122.708H140.392ZM142.491 120.17C142.712 120.17 142.909 120.114 143.083 120.003C143.256 119.892 143.394 119.739 143.493 119.543C143.593 119.348 143.643 119.123 143.643 118.869C143.643 118.615 143.593 118.393 143.493 118.203C143.399 118.007 143.264 117.854 143.091 117.743C142.917 117.626 142.717 117.568 142.491 117.568C142.26 117.568 142.057 117.624 141.883 117.735C141.71 117.846 141.573 117.999 141.473 118.195C141.373 118.391 141.323 118.615 141.323 118.869C141.323 119.123 141.373 119.348 141.473 119.543C141.573 119.739 141.71 119.892 141.883 120.003C142.057 120.114 142.26 120.17 142.491 120.17ZM146.229 122.708V116.783H147.176L147.192 117.727L147.026 117.656C147.058 117.491 147.147 117.338 147.295 117.196C147.442 117.053 147.621 116.936 147.831 116.846C148.047 116.757 148.27 116.712 148.502 116.712C148.87 116.712 149.196 116.804 149.481 116.989C149.77 117.174 149.996 117.431 150.159 117.759C150.327 118.081 150.412 118.451 150.412 118.869C150.412 119.287 150.33 119.66 150.167 119.988C150.004 120.31 149.777 120.567 149.488 120.757C149.204 120.942 148.881 121.035 148.518 121.035C148.276 121.035 148.041 120.987 147.815 120.892C147.594 120.797 147.408 120.672 147.255 120.519C147.102 120.366 147.005 120.207 146.963 120.043L147.2 119.924V122.708H146.229ZM148.328 120.17C148.549 120.17 148.747 120.114 148.92 120.003C149.094 119.892 149.23 119.739 149.331 119.543C149.43 119.348 149.481 119.123 149.481 118.869C149.481 118.615 149.43 118.393 149.331 118.203C149.236 118.007 149.102 117.854 148.928 117.743C148.755 117.626 148.554 117.568 148.328 117.568C148.097 117.568 147.894 117.624 147.721 117.735C147.547 117.846 147.41 117.999 147.31 118.195C147.21 118.391 147.16 118.615 147.16 118.869C147.16 119.123 147.21 119.348 147.31 119.543C147.41 119.739 147.547 119.892 147.721 120.003C147.894 120.114 148.097 120.17 148.328 120.17ZM152.074 120.963V115.094H153.037V120.963H152.074ZM155.085 120.963V116.783H156.048V120.963H155.085ZM155.559 115.895C155.364 115.895 155.211 115.847 155.101 115.752C154.996 115.651 154.943 115.511 154.943 115.331C154.943 115.162 154.998 115.028 155.109 114.927C155.219 114.821 155.369 114.768 155.559 114.768C155.753 114.768 155.903 114.818 156.009 114.919C156.119 115.014 156.174 115.152 156.174 115.331C156.174 115.496 156.119 115.63 156.009 115.736C155.898 115.842 155.748 115.895 155.559 115.895ZM159.852 121.043C159.463 121.043 159.112 120.947 158.802 120.757C158.492 120.567 158.247 120.307 158.068 119.98C157.889 119.652 157.8 119.282 157.8 118.869C157.8 118.457 157.889 118.086 158.068 117.759C158.247 117.431 158.492 117.172 158.802 116.981C159.112 116.791 159.463 116.696 159.852 116.696C160.22 116.696 160.557 116.77 160.862 116.918C161.172 117.061 161.409 117.256 161.572 117.505L161.043 118.155C160.965 118.044 160.864 117.944 160.744 117.854C160.623 117.764 160.491 117.693 160.349 117.64C160.212 117.587 160.078 117.56 159.946 117.56C159.71 117.56 159.499 117.618 159.315 117.735C159.136 117.846 158.994 118.002 158.889 118.203C158.784 118.399 158.731 118.621 158.731 118.869C158.731 119.118 158.784 119.34 158.889 119.535C158.999 119.731 159.147 119.887 159.331 120.003C159.515 120.12 159.72 120.178 159.946 120.178C160.089 120.178 160.223 120.157 160.349 120.114C160.475 120.067 160.596 120.001 160.712 119.916C160.833 119.831 160.943 119.726 161.043 119.599L161.572 120.249C161.399 120.482 161.154 120.672 160.838 120.82C160.523 120.969 160.194 121.043 159.852 121.043ZM165.479 120.963V118.29C165.479 118.063 165.403 117.886 165.25 117.759C165.103 117.626 164.911 117.56 164.674 117.56C164.453 117.56 164.253 117.605 164.074 117.695C163.896 117.78 163.73 117.917 163.577 118.108L162.977 117.505C163.225 117.241 163.498 117.039 163.798 116.902C164.098 116.765 164.422 116.696 164.769 116.696C165.1 116.696 165.384 116.749 165.621 116.854C165.863 116.96 166.05 117.119 166.181 117.33C166.313 117.537 166.379 117.79 166.379 118.092V120.963H165.479ZM164.295 121.043C164.027 121.043 163.788 120.989 163.577 120.884C163.367 120.778 163.198 120.633 163.072 120.448C162.951 120.257 162.891 120.035 162.891 119.781C162.891 119.559 162.93 119.366 163.009 119.202C163.088 119.033 163.204 118.893 163.356 118.782C163.514 118.671 163.709 118.589 163.94 118.536C164.177 118.478 164.448 118.449 164.753 118.449H165.945L165.874 119.147H164.698C164.556 119.147 164.429 119.16 164.319 119.186C164.209 119.213 164.114 119.252 164.035 119.305C163.956 119.358 163.898 119.422 163.861 119.496C163.825 119.565 163.806 119.649 163.806 119.75C163.806 119.855 163.833 119.948 163.885 120.027C163.938 120.101 164.009 120.16 164.098 120.202C164.188 120.244 164.293 120.265 164.414 120.265C164.587 120.265 164.751 120.236 164.903 120.178C165.061 120.12 165.2 120.038 165.321 119.932C165.443 119.826 165.537 119.707 165.605 119.575L165.803 120.114C165.692 120.299 165.556 120.461 165.392 120.598C165.234 120.736 165.061 120.844 164.871 120.924C164.687 121.003 164.496 121.043 164.295 121.043ZM168.651 120.963V115.72H169.614V120.963H168.651ZM167.83 117.687V116.783H170.521V117.687H167.83ZM172.16 120.963V116.783H173.123V120.963H172.16ZM172.634 115.895C172.439 115.895 172.287 115.847 172.176 115.752C172.071 115.651 172.018 115.511 172.018 115.331C172.018 115.162 172.074 115.028 172.184 114.927C172.295 114.821 172.445 114.768 172.634 114.768C172.828 114.768 172.978 114.818 173.084 114.919C173.194 115.014 173.249 115.152 173.249 115.331C173.249 115.496 173.194 115.63 173.084 115.736C172.973 115.842 172.823 115.895 172.634 115.895ZM177.037 121.043C176.622 121.043 176.251 120.95 175.925 120.765C175.598 120.575 175.341 120.315 175.151 119.988C174.967 119.66 174.875 119.287 174.875 118.869C174.875 118.451 174.967 118.078 175.151 117.751C175.341 117.423 175.598 117.166 175.925 116.981C176.251 116.791 176.622 116.696 177.037 116.696C177.448 116.696 177.816 116.791 178.142 116.981C178.468 117.166 178.723 117.423 178.908 117.751C179.097 118.078 179.192 118.451 179.192 118.869C179.192 119.287 179.097 119.66 178.908 119.988C178.723 120.315 178.468 120.575 178.142 120.765C177.816 120.95 177.448 121.043 177.037 121.043ZM177.037 120.178C177.263 120.178 177.466 120.122 177.645 120.011C177.824 119.895 177.963 119.739 178.063 119.543C178.168 119.343 178.218 119.118 178.213 118.869C178.218 118.615 178.168 118.391 178.063 118.195C177.963 117.994 177.824 117.838 177.645 117.727C177.466 117.616 177.263 117.56 177.037 117.56C176.811 117.56 176.606 117.618 176.422 117.735C176.243 117.846 176.103 118.002 176.004 118.203C175.904 118.399 175.854 118.621 175.854 118.869C175.854 119.118 175.904 119.343 176.004 119.543C176.103 119.739 176.243 119.895 176.422 120.011C176.606 120.122 176.811 120.178 177.037 120.178ZM180.849 120.963V116.783H181.788L181.804 117.64L181.623 117.735C181.681 117.55 181.783 117.38 181.93 117.227C182.083 117.069 182.265 116.942 182.475 116.846C182.686 116.746 182.904 116.696 183.13 116.696C183.446 116.696 183.709 116.759 183.919 116.886C184.135 117.013 184.295 117.203 184.4 117.457C184.506 117.711 184.558 118.028 184.558 118.409V120.963H183.596V118.48C183.596 118.264 183.567 118.086 183.509 117.949C183.451 117.806 183.362 117.703 183.24 117.64C183.12 117.571 182.972 117.542 182.798 117.552C182.656 117.552 182.525 117.576 182.404 117.624C182.283 117.666 182.178 117.729 182.088 117.814C182.004 117.894 181.936 117.989 181.883 118.1C181.836 118.205 181.812 118.322 181.812 118.449V120.963H181.331C181.241 120.963 181.155 120.963 181.07 120.963C180.991 120.963 180.918 120.963 180.849 120.963Z" fill="black"/>
<path d="M98.9023 260.11L101.706 254.419H102.217L99.4133 260.11H98.9023ZM104.61 259.347C104.343 259.347 104.113 259.291 103.92 259.18C103.726 259.065 103.577 258.9 103.471 258.688C103.37 258.47 103.319 258.204 103.319 257.889V255.634H103.844V257.758C103.844 258.123 103.926 258.403 104.092 258.597C104.262 258.787 104.5 258.882 104.803 258.882C104.951 258.882 105.084 258.857 105.204 258.806C105.328 258.75 105.436 258.678 105.528 258.59C105.621 258.503 105.692 258.406 105.742 258.299C105.798 258.188 105.825 258.077 105.825 257.966V255.634H106.35V259.278H105.832L105.825 258.486L105.929 258.431C105.874 258.597 105.779 258.753 105.646 258.896C105.517 259.035 105.363 259.146 105.183 259.229C105.008 259.308 104.817 259.347 104.61 259.347ZM108.864 259.347C108.56 259.347 108.286 259.294 108.042 259.187C107.798 259.076 107.6 258.919 107.448 258.715L107.807 258.403C107.941 258.57 108.1 258.695 108.284 258.778C108.468 258.861 108.677 258.903 108.912 258.903C109.032 258.903 109.137 258.889 109.23 258.861C109.322 258.829 109.4 258.787 109.464 258.736C109.529 258.681 109.575 258.618 109.603 258.549C109.635 258.475 109.651 258.396 109.651 258.313C109.651 258.16 109.591 258.038 109.471 257.945C109.407 257.899 109.317 257.855 109.202 257.813C109.092 257.767 108.956 257.723 108.795 257.681C108.546 257.621 108.336 257.552 108.166 257.473C108.001 257.39 107.869 257.295 107.773 257.189C107.699 257.105 107.644 257.015 107.607 256.918C107.57 256.821 107.552 256.71 107.552 256.585C107.552 256.386 107.607 256.21 107.717 256.057C107.828 255.905 107.977 255.787 108.166 255.703C108.36 255.615 108.578 255.571 108.822 255.571C108.988 255.571 109.151 255.595 109.313 255.641C109.478 255.687 109.63 255.754 109.768 255.842C109.906 255.93 110.026 256.036 110.127 256.161L109.817 256.494C109.724 256.397 109.623 256.314 109.513 256.245C109.407 256.171 109.296 256.115 109.181 256.078C109.066 256.036 108.953 256.016 108.843 256.016C108.723 256.016 108.615 256.029 108.518 256.057C108.422 256.081 108.339 256.117 108.27 256.168C108.205 256.214 108.157 256.272 108.125 256.342C108.093 256.407 108.076 256.483 108.076 256.571C108.081 256.636 108.097 256.7 108.125 256.765C108.152 256.825 108.191 256.876 108.242 256.918C108.307 256.969 108.399 257.019 108.518 257.07C108.638 257.117 108.783 257.158 108.953 257.195C109.174 257.251 109.361 257.313 109.513 257.383C109.665 257.448 109.787 257.526 109.879 257.619C109.975 257.702 110.044 257.799 110.086 257.91C110.127 258.021 110.148 258.149 110.148 258.292C110.148 258.5 110.093 258.685 109.982 258.847C109.872 259.004 109.72 259.127 109.527 259.215C109.333 259.303 109.112 259.347 108.864 259.347ZM112.914 259.347C112.55 259.347 112.228 259.268 111.947 259.111C111.666 258.949 111.445 258.727 111.284 258.445C111.128 258.163 111.049 257.841 111.049 257.48C111.049 257.198 111.093 256.941 111.18 256.71C111.273 256.474 111.397 256.272 111.553 256.106C111.715 255.935 111.905 255.803 112.126 255.71C112.347 255.617 112.589 255.571 112.851 255.571C113.082 255.571 113.296 255.613 113.494 255.696C113.696 255.78 113.871 255.9 114.018 256.057C114.166 256.21 114.279 256.393 114.357 256.605C114.435 256.814 114.47 257.045 114.46 257.3L114.453 257.563H111.429L111.318 257.133H114.018L113.922 257.251L113.929 257.077C113.92 256.879 113.865 256.703 113.763 256.55C113.662 256.397 113.531 256.277 113.369 256.189C113.213 256.101 113.04 256.057 112.851 256.057C112.585 256.057 112.354 256.115 112.161 256.231C111.968 256.342 111.821 256.501 111.719 256.71C111.622 256.913 111.572 257.158 111.567 257.445C111.572 257.732 111.632 257.982 111.747 258.195C111.862 258.403 112.023 258.567 112.23 258.688C112.442 258.803 112.686 258.861 112.962 258.861C113.16 258.861 113.344 258.829 113.514 258.764C113.685 258.695 113.858 258.581 114.032 258.424L114.295 258.799C114.184 258.91 114.053 259.007 113.901 259.09C113.754 259.169 113.595 259.231 113.425 259.278C113.254 259.324 113.084 259.347 112.914 259.347ZM115.526 259.278V255.634H116.051L116.057 256.689L115.995 256.508C116.041 256.342 116.12 256.187 116.23 256.043C116.345 255.9 116.483 255.787 116.644 255.703C116.806 255.615 116.983 255.571 117.176 255.571C117.255 255.571 117.328 255.578 117.397 255.592C117.466 255.602 117.524 255.615 117.57 255.634L117.432 256.21C117.367 256.187 117.3 256.168 117.231 256.154C117.167 256.136 117.105 256.127 117.045 256.127C116.902 256.127 116.769 256.157 116.644 256.217C116.525 256.272 116.421 256.349 116.334 256.446C116.246 256.543 116.177 256.654 116.127 256.779C116.081 256.899 116.057 257.024 116.057 257.154V259.278H115.526ZM118.302 257.584V257.057H120.249V257.584H118.302ZM121.862 259.278V255.127C121.862 254.919 121.901 254.741 121.98 254.593C122.063 254.44 122.175 254.325 122.318 254.246C122.465 254.162 122.631 254.121 122.815 254.121C122.972 254.121 123.11 254.149 123.23 254.204C123.349 254.26 123.446 254.333 123.52 254.426L123.326 254.822C123.262 254.752 123.19 254.701 123.112 254.669C123.034 254.637 122.953 254.621 122.871 254.621C122.769 254.621 122.682 254.637 122.608 254.669C122.534 254.701 122.479 254.757 122.442 254.836C122.405 254.91 122.387 255.007 122.387 255.127V259.278H122.132C122.085 259.278 122.039 259.278 121.994 259.278C121.947 259.278 121.904 259.278 121.862 259.278ZM121.22 256.161V255.675H123.312V256.161H121.22ZM124.334 259.278V255.634H124.859L124.866 256.689L124.804 256.508C124.85 256.342 124.928 256.187 125.039 256.043C125.154 255.9 125.292 255.787 125.453 255.703C125.614 255.615 125.791 255.571 125.985 255.571C126.063 255.571 126.137 255.578 126.206 255.592C126.275 255.602 126.332 255.615 126.378 255.634L126.24 256.21C126.176 256.187 126.109 256.168 126.04 256.154C125.975 256.136 125.913 256.127 125.854 256.127C125.711 256.127 125.577 256.157 125.453 256.217C125.333 256.272 125.23 256.349 125.142 256.446C125.055 256.543 124.985 256.654 124.935 256.779C124.889 256.899 124.866 257.024 124.866 257.154V259.278H124.334ZM127.332 259.278V255.634H127.857V259.278H127.332ZM127.587 254.78C127.467 254.78 127.373 254.748 127.304 254.683C127.24 254.614 127.208 254.523 127.208 254.412C127.208 254.301 127.24 254.213 127.304 254.149C127.373 254.079 127.467 254.044 127.587 254.044C127.707 254.044 127.799 254.077 127.863 254.142C127.933 254.207 127.967 254.297 127.967 254.412C127.967 254.519 127.935 254.607 127.87 254.676C127.806 254.745 127.712 254.78 127.587 254.78ZM130.902 259.347C130.538 259.347 130.216 259.268 129.935 259.111C129.654 258.949 129.433 258.727 129.272 258.445C129.115 258.163 129.037 257.841 129.037 257.48C129.037 257.198 129.081 256.941 129.169 256.71C129.26 256.474 129.385 256.272 129.541 256.106C129.702 255.935 129.894 255.803 130.115 255.71C130.336 255.617 130.577 255.571 130.84 255.571C131.07 255.571 131.284 255.613 131.482 255.696C131.684 255.78 131.859 255.9 132.007 256.057C132.154 256.21 132.267 256.393 132.345 256.605C132.423 256.814 132.457 257.045 132.449 257.3L132.442 257.563H129.417L129.307 257.133H132.007L131.91 257.251L131.917 257.077C131.908 256.879 131.852 256.703 131.751 256.55C131.65 256.397 131.518 256.277 131.358 256.189C131.201 256.101 131.028 256.057 130.84 256.057C130.572 256.057 130.342 256.115 130.149 256.231C129.956 256.342 129.808 256.501 129.707 256.71C129.611 256.913 129.56 257.158 129.555 257.445C129.56 257.732 129.619 257.982 129.735 258.195C129.85 258.403 130.011 258.567 130.218 258.688C130.43 258.803 130.674 258.861 130.95 258.861C131.148 258.861 131.332 258.829 131.503 258.764C131.673 258.695 131.845 258.581 132.02 258.424L132.283 258.799C132.172 258.91 132.041 259.007 131.889 259.09C131.742 259.169 131.583 259.231 131.413 259.278C131.242 259.324 131.072 259.347 130.902 259.347ZM133.513 259.278V255.634H134.038V256.411L133.935 256.474C133.986 256.312 134.078 256.164 134.211 256.029C134.345 255.895 134.506 255.787 134.694 255.703C134.883 255.615 135.079 255.571 135.281 255.571C135.553 255.571 135.781 255.624 135.965 255.731C136.154 255.833 136.296 255.992 136.393 256.21C136.49 256.428 136.538 256.703 136.538 257.036V259.278H136.013V257.07C136.013 256.835 135.979 256.64 135.91 256.488C135.845 256.335 135.746 256.224 135.613 256.154C135.484 256.085 135.321 256.053 135.122 256.057C134.966 256.057 134.821 256.082 134.687 256.134C134.559 256.185 134.446 256.254 134.349 256.342C134.252 256.425 134.176 256.52 134.121 256.626C134.066 256.728 134.038 256.83 134.038 256.932V259.278H133.783C133.741 259.278 133.698 259.278 133.652 259.278C133.606 259.278 133.56 259.278 133.513 259.278ZM139.336 259.347C139 259.347 138.701 259.266 138.438 259.104C138.18 258.938 137.976 258.713 137.824 258.431C137.672 258.149 137.596 257.827 137.596 257.466C137.596 257.101 137.672 256.777 137.824 256.494C137.976 256.207 138.18 255.983 138.438 255.821C138.701 255.655 138.993 255.571 139.315 255.571C139.495 255.571 139.67 255.602 139.84 255.662C140.01 255.722 140.162 255.805 140.296 255.911C140.434 256.013 140.545 256.129 140.627 256.258C140.71 256.388 140.756 256.522 140.765 256.661H140.62V254.142H141.145V259.278H140.62V258.299L140.731 258.292C140.717 258.431 140.669 258.563 140.586 258.688C140.503 258.813 140.397 258.926 140.268 259.028C140.144 259.125 140.001 259.204 139.84 259.264C139.679 259.319 139.511 259.347 139.336 259.347ZM139.398 258.882C139.637 258.882 139.849 258.822 140.034 258.702C140.222 258.577 140.369 258.408 140.475 258.195C140.581 257.982 140.634 257.737 140.634 257.459C140.634 257.182 140.581 256.936 140.475 256.723C140.369 256.511 140.222 256.342 140.034 256.217C139.849 256.092 139.635 256.029 139.391 256.029C139.147 256.029 138.929 256.092 138.735 256.217C138.546 256.342 138.397 256.513 138.287 256.73C138.18 256.943 138.128 257.189 138.128 257.466C138.128 257.734 138.18 257.977 138.287 258.195C138.397 258.408 138.546 258.577 138.735 258.702C138.929 258.822 139.15 258.882 139.398 258.882ZM142.492 259.278V254.142H143.017V259.278H142.492ZM144.879 260.874L145.583 259.187L145.604 259.604L143.836 255.634H144.45L145.693 258.507C145.721 258.563 145.747 258.628 145.769 258.702C145.797 258.771 145.82 258.838 145.838 258.903L145.693 258.944C145.726 258.861 145.756 258.78 145.783 258.702C145.816 258.618 145.845 258.537 145.873 258.459L146.936 255.634H147.551L146.052 259.305L145.445 260.874H144.879ZM150.769 259.278V255.634H151.294V259.278H150.769ZM151.024 254.78C150.905 254.78 150.81 254.748 150.741 254.683C150.677 254.614 150.644 254.523 150.644 254.412C150.644 254.301 150.677 254.213 150.741 254.149C150.81 254.079 150.905 254.044 151.024 254.044C151.144 254.044 151.236 254.077 151.3 254.142C151.37 254.207 151.404 254.297 151.404 254.412C151.404 254.519 151.372 254.607 151.307 254.676C151.243 254.745 151.149 254.78 151.024 254.78ZM152.688 259.278V255.634H153.213V256.411L153.11 256.474C153.16 256.312 153.253 256.164 153.386 256.029C153.52 255.895 153.681 255.787 153.869 255.703C154.058 255.615 154.254 255.571 154.456 255.571C154.728 255.571 154.956 255.624 155.14 255.731C155.329 255.833 155.471 255.992 155.568 256.21C155.665 256.428 155.713 256.703 155.713 257.036V259.278H155.188V257.07C155.188 256.835 155.154 256.64 155.085 256.488C155.02 256.335 154.921 256.224 154.788 256.154C154.659 256.085 154.496 256.053 154.297 256.057C154.141 256.057 153.996 256.082 153.862 256.134C153.734 256.185 153.621 256.254 153.524 256.342C153.427 256.425 153.351 256.52 153.296 256.626C153.241 256.728 153.213 256.83 153.213 256.932V259.278H152.958C152.916 259.278 152.873 259.278 152.827 259.278C152.781 259.278 152.735 259.278 152.688 259.278ZM157.502 259.278V254.704H158.027V259.278H157.502ZM156.667 256.147V255.634H158.932V256.147H156.667ZM161.488 259.347C161.124 259.347 160.802 259.268 160.521 259.111C160.24 258.949 160.019 258.727 159.859 258.445C159.702 258.163 159.624 257.841 159.624 257.48C159.624 257.198 159.667 256.941 159.755 256.71C159.847 256.474 159.971 256.272 160.128 256.106C160.289 255.935 160.48 255.803 160.701 255.71C160.922 255.617 161.164 255.571 161.426 255.571C161.656 255.571 161.87 255.613 162.068 255.696C162.27 255.78 162.446 255.9 162.593 256.057C162.74 256.21 162.853 256.393 162.931 256.605C163.009 256.814 163.044 257.045 163.035 257.3L163.028 257.563H160.004L159.893 257.133H162.593L162.496 257.251L162.503 257.077C162.494 256.879 162.439 256.703 162.338 256.55C162.236 256.397 162.105 256.277 161.944 256.189C161.787 256.101 161.614 256.057 161.426 256.057C161.159 256.057 160.929 256.115 160.736 256.231C160.542 256.342 160.395 256.501 160.294 256.71C160.197 256.913 160.146 257.158 160.142 257.445C160.146 257.732 160.206 257.982 160.321 258.195C160.436 258.403 160.597 258.567 160.805 258.688C161.016 258.803 161.26 258.861 161.537 258.861C161.734 258.861 161.918 258.829 162.089 258.764C162.259 258.695 162.432 258.581 162.607 258.424L162.869 258.799C162.759 258.91 162.628 259.007 162.476 259.09C162.328 259.169 162.169 259.231 161.999 259.278C161.829 259.324 161.658 259.347 161.488 259.347ZM164.1 259.278V255.634H164.625L164.632 256.689L164.569 256.508C164.616 256.342 164.694 256.187 164.804 256.043C164.92 255.9 165.058 255.787 165.219 255.703C165.38 255.615 165.557 255.571 165.75 255.571C165.829 255.571 165.902 255.578 165.971 255.592C166.04 255.602 166.098 255.615 166.144 255.634L166.006 256.21C165.942 256.187 165.875 256.168 165.805 256.154C165.741 256.136 165.679 256.127 165.619 256.127C165.476 256.127 165.343 256.157 165.219 256.217C165.099 256.272 164.996 256.349 164.908 256.446C164.82 256.543 164.751 256.654 164.701 256.779C164.655 256.899 164.632 257.024 164.632 257.154V259.278H164.1ZM167.408 259.278V255.127C167.408 254.919 167.447 254.741 167.525 254.593C167.608 254.44 167.721 254.325 167.864 254.246C168.011 254.162 168.177 254.121 168.361 254.121C168.518 254.121 168.656 254.149 168.775 254.204C168.895 254.26 168.992 254.333 169.065 254.426L168.872 254.822C168.808 254.752 168.736 254.701 168.658 254.669C168.58 254.637 168.499 254.621 168.416 254.621C168.315 254.621 168.228 254.637 168.154 254.669C168.08 254.701 168.025 254.757 167.988 254.836C167.952 254.91 167.933 255.007 167.933 255.127V259.278H167.677C167.631 259.278 167.586 259.278 167.539 259.278C167.493 259.278 167.449 259.278 167.408 259.278ZM166.766 256.161V255.675H168.858V256.161H166.766ZM172.038 259.278V256.848C172.038 256.612 171.955 256.423 171.789 256.279C171.624 256.136 171.405 256.064 171.133 256.064C170.907 256.064 170.703 256.11 170.519 256.203C170.334 256.296 170.171 256.434 170.029 256.619L169.683 256.272C169.89 256.036 170.116 255.86 170.36 255.745C170.609 255.629 170.878 255.571 171.168 255.571C171.444 255.571 171.683 255.617 171.886 255.71C172.088 255.803 172.243 255.937 172.349 256.113C172.459 256.289 172.514 256.501 172.514 256.751V259.278H172.038ZM170.795 259.347C170.56 259.347 170.351 259.301 170.167 259.208C169.982 259.115 169.835 258.989 169.725 258.826C169.619 258.66 169.566 258.466 169.566 258.243C169.566 258.063 169.598 257.903 169.663 257.765C169.732 257.626 169.83 257.51 169.959 257.418C170.088 257.325 170.251 257.255 170.45 257.209C170.648 257.158 170.873 257.133 171.126 257.133H172.273L172.231 257.57H171.057C170.896 257.57 170.754 257.584 170.629 257.612C170.509 257.64 170.406 257.684 170.319 257.744C170.236 257.799 170.171 257.869 170.125 257.952C170.084 258.031 170.063 258.125 170.063 258.237C170.063 258.366 170.095 258.482 170.16 258.584C170.229 258.681 170.319 258.757 170.429 258.813C170.544 258.864 170.673 258.889 170.816 258.889C171.004 258.889 171.182 258.857 171.347 258.792C171.513 258.722 171.66 258.63 171.789 258.514C171.923 258.394 172.029 258.26 172.107 258.112L172.252 258.445C172.15 258.621 172.024 258.778 171.872 258.917C171.72 259.051 171.552 259.157 171.368 259.236C171.189 259.31 170.997 259.347 170.795 259.347ZM175.326 259.347C174.981 259.347 174.672 259.264 174.401 259.097C174.134 258.931 173.922 258.706 173.765 258.424C173.613 258.137 173.537 257.813 173.537 257.452C173.537 257.096 173.613 256.777 173.765 256.494C173.922 256.207 174.134 255.983 174.401 255.821C174.672 255.655 174.981 255.571 175.326 255.571C175.639 255.571 175.922 255.634 176.175 255.759C176.428 255.879 176.628 256.048 176.776 256.265L176.472 256.626C176.389 256.515 176.288 256.418 176.168 256.335C176.048 256.247 175.92 256.18 175.782 256.134C175.643 256.082 175.505 256.057 175.367 256.057C175.114 256.057 174.886 256.117 174.684 256.238C174.486 256.358 174.329 256.525 174.214 256.737C174.099 256.946 174.041 257.184 174.041 257.452C174.041 257.72 174.099 257.961 174.214 258.174C174.334 258.387 174.495 258.556 174.697 258.681C174.9 258.806 175.126 258.868 175.374 258.868C175.512 258.868 175.646 258.847 175.775 258.806C175.908 258.76 176.033 258.695 176.148 258.611C176.262 258.528 176.371 258.426 176.472 258.306L176.769 258.674C176.617 258.873 176.41 259.035 176.148 259.16C175.89 259.285 175.616 259.347 175.326 259.347ZM179.388 259.347C179.024 259.347 178.702 259.268 178.421 259.111C178.14 258.949 177.919 258.727 177.758 258.445C177.602 258.163 177.523 257.841 177.523 257.48C177.523 257.198 177.567 256.941 177.654 256.71C177.747 256.474 177.871 256.272 178.027 256.106C178.189 255.935 178.379 255.803 178.6 255.71C178.821 255.617 179.063 255.571 179.325 255.571C179.556 255.571 179.77 255.613 179.968 255.696C180.17 255.78 180.345 255.9 180.492 256.057C180.64 256.21 180.753 256.393 180.831 256.605C180.909 256.814 180.944 257.045 180.934 257.3L180.927 257.563H177.903L177.793 257.133H180.492L180.396 257.251L180.403 257.077C180.394 256.879 180.339 256.703 180.237 256.55C180.136 256.397 180.005 256.277 179.843 256.189C179.687 256.101 179.514 256.057 179.325 256.057C179.059 256.057 178.828 256.115 178.635 256.231C178.442 256.342 178.295 256.501 178.193 256.71C178.096 256.913 178.046 257.158 178.041 257.445C178.046 257.732 178.106 257.982 178.221 258.195C178.336 258.403 178.497 258.567 178.704 258.688C178.916 258.803 179.16 258.861 179.436 258.861C179.634 258.861 179.818 258.829 179.988 258.764C180.159 258.695 180.332 258.581 180.506 258.424L180.769 258.799C180.658 258.91 180.527 259.007 180.375 259.09C180.228 259.169 180.069 259.231 179.899 259.278C179.728 259.324 179.558 259.347 179.388 259.347ZM182.186 259.18L181.938 258.778L184.389 257.369V257.695L181.938 256.272L182.186 255.884L184.665 257.313V257.744L182.186 259.18Z" fill="black"/>
<path d="M48.2556 329.178V327.096C48.2556 326.894 48.1846 326.731 48.0426 326.608C47.9005 326.485 47.7131 326.424 47.4803 326.424C47.2869 326.424 47.1113 326.464 46.9535 326.543C46.7957 326.622 46.6556 326.741 46.5333 326.9L46.2373 326.602C46.4149 326.4 46.6082 326.25 46.8174 326.15C47.0305 326.051 47.2613 326.002 47.5099 326.002C47.7466 326.002 47.9518 326.041 48.1254 326.121C48.2991 326.2 48.4312 326.315 48.522 326.466C48.6167 326.616 48.664 326.799 48.664 327.013V329.178H48.2556ZM47.1903 329.238C46.989 329.238 46.8095 329.198 46.6517 329.119C46.4938 329.04 46.3676 328.931 46.2729 328.792C46.1821 328.649 46.1367 328.482 46.1367 328.292C46.1367 328.137 46.1643 328 46.2196 327.882C46.2788 327.763 46.3636 327.663 46.4741 327.584C46.5846 327.505 46.7247 327.445 46.8943 327.406C47.064 327.362 47.2573 327.34 47.4744 327.34H48.4569L48.4214 327.715H47.4152C47.2771 327.715 47.1548 327.727 47.0482 327.751C46.9456 327.774 46.8568 327.812 46.7819 327.864C46.7108 327.911 46.6556 327.971 46.6161 328.042C46.5806 328.11 46.5629 328.191 46.5629 328.286C46.5629 328.397 46.5905 328.496 46.6457 328.584C46.7049 328.667 46.7819 328.732 46.8766 328.78C46.9752 328.823 47.0857 328.845 47.208 328.845C47.3698 328.845 47.5217 328.817 47.6638 328.762C47.8058 328.702 47.9321 328.623 48.0426 328.524C48.157 328.421 48.2478 328.306 48.3148 328.179L48.4391 328.465C48.3523 328.615 48.2438 328.75 48.1136 328.869C47.9834 328.984 47.8394 329.075 47.6815 329.143C47.5276 329.206 47.3639 329.238 47.1903 329.238ZM50.7795 329.238C50.5507 329.238 50.3534 329.19 50.1876 329.095C50.0219 328.996 49.8937 328.855 49.8029 328.673C49.7161 328.486 49.6727 328.258 49.6727 327.989V326.055H50.1225V327.876C50.1225 328.189 50.1936 328.429 50.3356 328.595C50.4816 328.758 50.6848 328.839 50.9452 328.839C51.0715 328.839 51.1859 328.818 51.2885 328.774C51.3951 328.726 51.4878 328.665 51.5667 328.589C51.6456 328.514 51.7068 328.431 51.7502 328.34C51.7976 328.244 51.8212 328.149 51.8212 328.054V326.055H52.2711V329.178H51.8272L51.8212 328.5L51.91 328.453C51.8627 328.595 51.7818 328.728 51.6673 328.851C51.5569 328.97 51.4247 329.065 51.2708 329.137C51.1208 329.204 50.9571 329.238 50.7795 329.238ZM53.8277 329.178V325.258H54.2775V329.178H53.8277ZM53.1115 326.495V326.055H55.0529V326.495H53.1115ZM57.232 329.238C56.9282 329.238 56.6559 329.169 56.4152 329.03C56.1785 328.887 55.991 328.695 55.8529 328.453C55.7148 328.207 55.6458 327.927 55.6458 327.614C55.6458 327.301 55.7148 327.023 55.8529 326.781C55.991 326.539 56.1785 326.349 56.4152 326.21C56.6559 326.071 56.9282 326.002 57.232 326.002C57.5358 326.002 57.8061 326.071 58.0429 326.21C58.2836 326.349 58.471 326.539 58.6052 326.781C58.7433 327.023 58.8123 327.301 58.8123 327.614C58.8123 327.927 58.7433 328.207 58.6052 328.453C58.471 328.695 58.2836 328.887 58.0429 329.03C57.8061 329.169 57.5358 329.238 57.232 329.238ZM57.232 328.821C57.449 328.821 57.6424 328.77 57.812 328.667C57.9857 328.56 58.1198 328.415 58.2145 328.233C58.3132 328.05 58.3605 327.844 58.3566 327.614C58.3605 327.38 58.3132 327.174 58.2145 326.995C58.1198 326.817 57.9857 326.676 57.812 326.573C57.6424 326.47 57.449 326.418 57.232 326.418C57.015 326.418 56.8197 326.47 56.646 326.573C56.4764 326.676 56.3422 326.819 56.2436 327.001C56.1449 327.18 56.0976 327.384 56.1015 327.614C56.0976 327.844 56.1449 328.05 56.2436 328.233C56.3422 328.415 56.4764 328.56 56.646 328.667C56.8197 328.77 57.015 328.821 57.232 328.821ZM59.7194 329.178V326.055H60.1692L60.1751 326.763L60.0686 326.805C60.1159 326.686 60.1771 326.579 60.2521 326.484C60.327 326.384 60.4138 326.301 60.5125 326.234C60.6151 326.162 60.7236 326.107 60.838 326.067C60.9564 326.027 61.0768 326.008 61.1991 326.008C61.3727 326.008 61.5266 326.037 61.6607 326.097C61.7988 326.152 61.9113 326.24 61.9981 326.359C62.0889 326.478 62.154 326.628 62.1934 326.811H62.1106L62.1461 326.71C62.1934 326.606 62.2546 326.513 62.3296 326.43C62.4085 326.343 62.4973 326.267 62.5959 326.204C62.6985 326.14 62.805 326.093 62.9155 326.061C63.03 326.025 63.1424 326.008 63.2529 326.008C63.4818 326.008 63.6731 326.053 63.827 326.144C63.9809 326.236 64.0973 326.376 64.1762 326.567C64.2551 326.753 64.2946 326.991 64.2946 327.281V329.178H63.8448V327.299C63.8448 326.997 63.7836 326.777 63.6613 326.638C63.539 326.499 63.3575 326.43 63.1168 326.43C62.9905 326.43 62.8721 326.452 62.7616 326.495C62.6551 326.535 62.5624 326.593 62.4834 326.668C62.4045 326.743 62.3434 326.827 62.3 326.918C62.2566 327.009 62.2349 327.106 62.2349 327.209V329.178H61.7791V327.293C61.7791 327.003 61.718 326.787 61.5956 326.644C61.4733 326.501 61.2977 326.43 61.0689 326.43C60.9386 326.43 60.8183 326.452 60.7078 326.495C60.6013 326.539 60.5066 326.597 60.4237 326.668C60.3448 326.739 60.2836 326.821 60.2402 326.912C60.1968 326.999 60.1751 327.088 60.1751 327.18V329.178H59.7194ZM67.3324 329.178V327.096C67.3324 326.894 67.2614 326.731 67.1193 326.608C66.9773 326.485 66.7899 326.424 66.5571 326.424C66.3637 326.424 66.1881 326.464 66.0303 326.543C65.8725 326.622 65.7324 326.741 65.6101 326.9L65.3141 326.602C65.4917 326.4 65.685 326.25 65.8942 326.15C66.1072 326.051 66.3381 326.002 66.5867 326.002C66.8234 326.002 67.0286 326.041 67.2022 326.121C67.3758 326.2 67.508 326.315 67.5988 326.466C67.6935 326.616 67.7408 326.799 67.7408 327.013V329.178H67.3324ZM66.267 329.238C66.0658 329.238 65.8863 329.198 65.7284 329.119C65.5706 329.04 65.4443 328.931 65.3496 328.792C65.2589 328.649 65.2135 328.482 65.2135 328.292C65.2135 328.137 65.2411 328 65.2964 327.882C65.3555 327.763 65.4404 327.663 65.5509 327.584C65.6614 327.505 65.8014 327.445 65.9711 327.406C66.1408 327.362 66.3341 327.34 66.5511 327.34H67.5337L67.4981 327.715H66.492C66.3539 327.715 66.2315 327.727 66.125 327.751C66.0224 327.774 65.9336 327.812 65.8586 327.864C65.7876 327.911 65.7324 327.971 65.6929 328.042C65.6574 328.11 65.6396 328.191 65.6396 328.286C65.6396 328.397 65.6673 328.496 65.7225 328.584C65.7817 328.667 65.8586 328.732 65.9533 328.78C66.052 328.823 66.1625 328.845 66.2848 328.845C66.4466 328.845 66.5985 328.817 66.7405 328.762C66.8826 328.702 67.0089 328.623 67.1193 328.524C67.2338 328.421 67.3245 328.306 67.3916 328.179L67.5159 328.465C67.4291 328.615 67.3206 328.75 67.1904 328.869C67.0602 328.984 66.9161 329.075 66.7583 329.143C66.6044 329.206 66.4407 329.238 66.267 329.238ZM69.2447 329.178V325.258H69.6945V329.178H69.2447ZM68.5285 326.495V326.055H70.4699V326.495H68.5285ZM71.3759 329.178V326.055H71.8258V329.178H71.3759ZM71.5949 325.323C71.4924 325.323 71.4115 325.296 71.3523 325.24C71.297 325.181 71.2694 325.103 71.2694 325.008C71.2694 324.913 71.297 324.838 71.3523 324.782C71.4115 324.723 71.4924 324.693 71.5949 324.693C71.6975 324.693 71.7765 324.721 71.8317 324.776C71.8909 324.832 71.9205 324.909 71.9205 325.008C71.9205 325.099 71.8929 325.175 71.8376 325.234C71.7824 325.294 71.7015 325.323 71.5949 325.323ZM73.0214 329.178V326.055H73.4712V326.721L73.3824 326.775C73.4258 326.636 73.5047 326.509 73.6192 326.394C73.7336 326.279 73.8717 326.186 74.0335 326.115C74.1953 326.039 74.363 326.002 74.5366 326.002C74.7694 326.002 74.9647 326.047 75.1226 326.138C75.2843 326.226 75.4066 326.363 75.4895 326.549C75.5724 326.735 75.6138 326.971 75.6138 327.257V329.178H75.164V327.287C75.164 327.084 75.1344 326.918 75.0752 326.787C75.02 326.656 74.9351 326.561 74.8207 326.501C74.7102 326.442 74.5701 326.414 74.4005 326.418C74.2663 326.418 74.142 326.44 74.0276 326.484C73.9171 326.527 73.8204 326.587 73.7375 326.662C73.6547 326.733 73.5896 326.815 73.5422 326.906C73.4949 326.993 73.4712 327.08 73.4712 327.168V329.178H73.2522C73.2167 329.178 73.1792 329.178 73.1398 329.178C73.1003 329.178 73.0608 329.178 73.0214 329.178ZM78.077 330.565C77.856 330.565 77.641 330.529 77.4319 330.457C77.2267 330.386 77.059 330.291 76.9288 330.172L77.0945 329.815C77.2129 329.918 77.3589 330.001 77.5325 330.065C77.71 330.128 77.8896 330.16 78.0711 330.16C78.2921 330.16 78.4834 330.116 78.6452 330.029C78.807 329.942 78.9333 329.815 79.024 329.648C79.1148 329.482 79.1602 329.28 79.1602 329.042V328.357L79.2193 328.375C79.1917 328.53 79.1187 328.673 79.0004 328.804C78.8859 328.935 78.7439 329.04 78.5742 329.119C78.4085 329.198 78.2329 329.238 78.0474 329.238C77.7554 329.238 77.493 329.169 77.2602 329.03C77.0314 328.887 76.8499 328.695 76.7157 328.453C76.5855 328.211 76.5204 327.935 76.5204 327.626C76.5204 327.312 76.5855 327.035 76.7157 326.793C76.8499 326.547 77.0314 326.355 77.2602 326.216C77.4891 326.073 77.7436 326.002 78.0237 326.002C78.1461 326.002 78.2644 326.017 78.3789 326.049C78.4933 326.081 78.5998 326.127 78.6985 326.186C78.7971 326.242 78.8859 326.305 78.9648 326.376C79.0438 326.448 79.1089 326.525 79.1602 326.608C79.2114 326.692 79.245 326.775 79.2608 326.858L79.1602 326.888L79.1661 326.055H79.61V329.012C79.61 329.258 79.5725 329.476 79.4975 329.666C79.4265 329.861 79.3219 330.023 79.1838 330.154C79.0497 330.289 78.8879 330.39 78.6985 330.457C78.513 330.529 78.3059 330.565 78.077 330.565ZM78.0889 328.816C78.298 328.816 78.4834 328.766 78.6452 328.667C78.8109 328.564 78.9392 328.423 79.0299 328.244C79.1246 328.062 79.172 327.854 79.172 327.62C79.172 327.386 79.1246 327.18 79.0299 327.001C78.9392 326.819 78.8109 326.676 78.6452 326.573C78.4834 326.47 78.296 326.418 78.0829 326.418C77.8699 326.418 77.6785 326.472 77.5088 326.579C77.3431 326.682 77.2129 326.825 77.1182 327.007C77.0235 327.185 76.9761 327.392 76.9761 327.626C76.9761 327.852 77.0235 328.056 77.1182 328.238C77.2129 328.417 77.3431 328.558 77.5088 328.661C77.6785 328.764 77.8718 328.816 78.0889 328.816ZM82.6468 330.505V326.055H83.0966L83.1026 326.882L83.0197 326.852C83.0552 326.702 83.1302 326.563 83.2446 326.436C83.363 326.309 83.505 326.206 83.6708 326.127C83.8404 326.047 84.016 326.008 84.1975 326.008C84.4816 326.008 84.7342 326.077 84.9552 326.216C85.1761 326.355 85.3497 326.545 85.476 326.787C85.6023 327.029 85.6654 327.304 85.6654 327.614C85.6654 327.923 85.6023 328.201 85.476 328.447C85.3497 328.689 85.1761 328.881 84.9552 329.024C84.7381 329.163 84.4935 329.232 84.2212 329.232C84.0279 329.232 83.8424 329.192 83.6649 329.113C83.4912 329.034 83.3413 328.929 83.215 328.798C83.0927 328.667 83.0177 328.526 82.9901 328.375L83.1026 328.328V330.505H82.6468ZM84.1502 328.816C84.3593 328.816 84.5448 328.764 84.7066 328.661C84.8723 328.558 85.0005 328.415 85.0913 328.233C85.186 328.05 85.2333 327.844 85.2333 327.614C85.2333 327.388 85.186 327.185 85.0913 327.007C85.0005 326.829 84.8743 326.688 84.7125 326.585C84.5507 326.482 84.3633 326.43 84.1502 326.43C83.945 326.43 83.7615 326.482 83.5997 326.585C83.4419 326.684 83.3156 326.823 83.2209 327.001C83.1302 327.18 83.0848 327.386 83.0848 327.62C83.0848 327.85 83.1302 328.056 83.2209 328.238C83.3156 328.417 83.4419 328.558 83.5997 328.661C83.7615 328.764 83.945 328.816 84.1502 328.816ZM86.5892 329.178V326.055H87.0391L87.045 326.959L86.9917 326.805C87.0312 326.662 87.0983 326.529 87.193 326.406C87.2916 326.283 87.41 326.186 87.5481 326.115C87.6862 326.039 87.8381 326.002 88.0038 326.002C88.0709 326.002 88.134 326.008 88.1932 326.019C88.2524 326.027 88.3017 326.039 88.3412 326.055L88.2228 326.549C88.1676 326.529 88.1104 326.513 88.0512 326.501C87.9959 326.485 87.9427 326.478 87.8914 326.478C87.7691 326.478 87.6546 326.503 87.5481 326.555C87.4455 326.602 87.3567 326.668 87.2817 326.751C87.2068 326.835 87.1476 326.93 87.1042 327.037C87.0647 327.14 87.045 327.247 87.045 327.358V329.178H86.5892ZM90.3274 329.238C90.0236 329.238 89.7513 329.169 89.5107 329.03C89.2739 328.887 89.0865 328.695 88.9484 328.453C88.8103 328.207 88.7412 327.927 88.7412 327.614C88.7412 327.301 88.8103 327.023 88.9484 326.781C89.0865 326.539 89.2739 326.349 89.5107 326.21C89.7513 326.071 90.0236 326.002 90.3274 326.002C90.6313 326.002 90.9016 326.071 91.1383 326.21C91.379 326.349 91.5664 326.539 91.7006 326.781C91.8387 327.023 91.9078 327.301 91.9078 327.614C91.9078 327.927 91.8387 328.207 91.7006 328.453C91.5664 328.695 91.379 328.887 91.1383 329.03C90.9016 329.169 90.6313 329.238 90.3274 329.238ZM90.3274 328.821C90.5445 328.821 90.7378 328.77 90.9075 328.667C91.0811 328.56 91.2153 328.415 91.31 328.233C91.4086 328.05 91.456 327.844 91.452 327.614C91.456 327.38 91.4086 327.174 91.31 326.995C91.2153 326.817 91.0811 326.676 90.9075 326.573C90.7378 326.47 90.5445 326.418 90.3274 326.418C90.1104 326.418 89.9151 326.47 89.7415 326.573C89.5718 326.676 89.4377 326.819 89.339 327.001C89.2404 327.18 89.193 327.384 89.197 327.614C89.193 327.844 89.2404 328.05 89.339 328.233C89.4377 328.415 89.5718 328.56 89.7415 328.667C89.9151 328.77 90.1104 328.821 90.3274 328.821ZM94.1821 329.238C93.8861 329.238 93.6217 329.167 93.3889 329.024C93.1601 328.881 92.9786 328.689 92.8444 328.447C92.7142 328.201 92.6491 327.923 92.6491 327.614C92.6491 327.308 92.7142 327.035 92.8444 326.793C92.9786 326.547 93.1601 326.355 93.3889 326.216C93.6217 326.073 93.8861 326.002 94.1821 326.002C94.4504 326.002 94.6931 326.055 94.9101 326.162C95.1271 326.265 95.2987 326.41 95.425 326.597L95.1646 326.906C95.0936 326.811 95.0067 326.727 94.9042 326.656C94.8016 326.581 94.6911 326.523 94.5727 326.484C94.4543 326.44 94.3359 326.418 94.2176 326.418C94.0005 326.418 93.8052 326.47 93.6316 326.573C93.4619 326.676 93.3278 326.819 93.2291 327.001C93.1305 327.18 93.0812 327.384 93.0812 327.614C93.0812 327.844 93.1305 328.05 93.2291 328.233C93.3317 328.415 93.4698 328.56 93.6434 328.667C93.8171 328.774 94.0104 328.827 94.2235 328.827C94.3419 328.827 94.4563 328.81 94.5668 328.774C94.6812 328.734 94.7878 328.679 94.8864 328.607C94.985 328.536 95.0778 328.449 95.1646 328.346L95.4191 328.661C95.2889 328.831 95.1113 328.97 94.8864 329.077C94.6654 329.184 94.4307 329.238 94.1821 329.238ZM97.6633 329.238C97.3516 329.238 97.0754 329.17 96.8347 329.036C96.594 328.897 96.4046 328.706 96.2665 328.465C96.1323 328.223 96.0652 327.947 96.0652 327.638C96.0652 327.396 96.1027 327.176 96.1777 326.977C96.2566 326.775 96.3631 326.602 96.4973 326.46C96.6354 326.313 96.7992 326.2 96.9886 326.121C97.178 326.041 97.3851 326.002 97.61 326.002C97.8073 326.002 97.9908 326.037 98.1605 326.109C98.3341 326.18 98.484 326.283 98.6103 326.418C98.7366 326.549 98.8333 326.706 98.9003 326.888C98.9674 327.067 98.997 327.265 98.9891 327.483L98.9832 327.709H96.3908L96.2961 327.34H98.6103L98.5274 327.441L98.5334 327.293C98.5255 327.122 98.4781 326.971 98.3913 326.84C98.3045 326.71 98.192 326.606 98.0539 326.531C97.9198 326.456 97.7718 326.418 97.61 326.418C97.3812 326.418 97.1839 326.468 97.0182 326.567C96.8524 326.662 96.7262 326.799 96.6394 326.977C96.5565 327.152 96.5131 327.362 96.5091 327.608C96.5131 327.854 96.5644 328.068 96.663 328.25C96.7617 328.429 96.8998 328.57 97.0773 328.673C97.2589 328.772 97.468 328.821 97.7047 328.821C97.8744 328.821 98.0322 328.794 98.1782 328.738C98.3242 328.679 98.4722 328.582 98.6222 328.447L98.8471 328.768C98.7524 328.863 98.6399 328.946 98.5097 329.018C98.3834 329.085 98.2473 329.139 98.1013 329.178C97.9553 329.218 97.8093 329.238 97.6633 329.238ZM100.944 329.238C100.684 329.238 100.449 329.192 100.24 329.101C100.031 329.006 99.8612 328.871 99.7309 328.697L100.039 328.429C100.153 328.572 100.289 328.679 100.447 328.75C100.605 328.821 100.784 328.857 100.986 328.857C101.088 328.857 101.179 328.845 101.258 328.821C101.337 328.794 101.404 328.758 101.459 328.714C101.514 328.667 101.554 328.613 101.578 328.554C101.605 328.49 101.619 328.423 101.619 328.351C101.619 328.221 101.568 328.116 101.465 328.036C101.41 327.997 101.333 327.959 101.234 327.923C101.14 327.884 101.023 327.846 100.885 327.81C100.672 327.759 100.492 327.699 100.346 327.632C100.204 327.56 100.092 327.479 100.009 327.388C99.946 327.316 99.8986 327.239 99.8671 327.156C99.8355 327.072 99.8197 326.977 99.8197 326.87C99.8197 326.7 99.8671 326.549 99.9618 326.418C100.056 326.287 100.185 326.186 100.346 326.115C100.512 326.039 100.7 326.002 100.909 326.002C101.051 326.002 101.191 326.021 101.329 326.061C101.471 326.101 101.601 326.158 101.72 326.234C101.838 326.309 101.941 326.4 102.027 326.507L101.761 326.793C101.682 326.71 101.595 326.638 101.501 326.579C101.41 326.515 101.315 326.468 101.217 326.436C101.118 326.4 101.021 326.382 100.927 326.382C100.824 326.382 100.731 326.394 100.648 326.418C100.565 326.438 100.494 326.47 100.435 326.513C100.38 326.553 100.339 326.602 100.311 326.662C100.283 326.718 100.27 326.783 100.27 326.858C100.273 326.914 100.287 326.969 100.311 327.025C100.335 327.076 100.368 327.12 100.412 327.156C100.467 327.199 100.546 327.243 100.648 327.287C100.751 327.326 100.875 327.362 101.021 327.394C101.211 327.441 101.37 327.495 101.501 327.554C101.631 327.61 101.735 327.677 101.814 327.757C101.897 327.828 101.956 327.911 101.992 328.006C102.027 328.102 102.045 328.211 102.045 328.334C102.045 328.512 101.998 328.671 101.903 328.81C101.808 328.944 101.678 329.05 101.512 329.125C101.347 329.2 101.157 329.238 100.944 329.238ZM104.043 329.238C103.782 329.238 103.548 329.192 103.338 329.101C103.129 329.006 102.96 328.871 102.829 328.697L103.137 328.429C103.252 328.572 103.388 328.679 103.546 328.75C103.703 328.821 103.883 328.857 104.084 328.857C104.187 328.857 104.278 328.845 104.356 328.821C104.435 328.794 104.502 328.758 104.558 328.714C104.613 328.667 104.652 328.613 104.676 328.554C104.704 328.49 104.718 328.423 104.718 328.351C104.718 328.221 104.666 328.116 104.564 328.036C104.508 327.997 104.431 327.959 104.333 327.923C104.238 327.884 104.122 327.846 103.984 327.81C103.771 327.759 103.591 327.699 103.445 327.632C103.303 327.56 103.19 327.479 103.108 327.388C103.044 327.316 102.997 327.239 102.966 327.156C102.934 327.072 102.918 326.977 102.918 326.87C102.918 326.7 102.966 326.549 103.06 326.418C103.155 326.287 103.283 326.186 103.445 326.115C103.611 326.039 103.798 326.002 104.007 326.002C104.149 326.002 104.289 326.021 104.427 326.061C104.57 326.101 104.7 326.158 104.818 326.234C104.937 326.309 105.039 326.4 105.126 326.507L104.86 326.793C104.781 326.71 104.694 326.638 104.599 326.579C104.508 326.515 104.414 326.468 104.315 326.436C104.216 326.4 104.12 326.382 104.025 326.382C103.922 326.382 103.83 326.394 103.747 326.418C103.664 326.438 103.593 326.47 103.534 326.513C103.479 326.553 103.437 326.602 103.409 326.662C103.382 326.718 103.368 326.783 103.368 326.858C103.372 326.914 103.386 326.969 103.409 327.025C103.433 327.076 103.467 327.12 103.51 327.156C103.565 327.199 103.644 327.243 103.747 327.287C103.849 327.326 103.974 327.362 104.12 327.394C104.309 327.441 104.469 327.495 104.599 327.554C104.729 327.61 104.834 327.677 104.913 327.757C104.996 327.828 105.055 327.911 105.09 328.006C105.126 328.102 105.144 328.211 105.144 328.334C105.144 328.512 105.096 328.671 105.002 328.81C104.907 328.944 104.777 329.05 104.611 329.125C104.445 329.2 104.256 329.238 104.043 329.238ZM107.514 329.238C107.202 329.238 106.926 329.17 106.686 329.036C106.445 328.897 106.255 328.706 106.117 328.465C105.983 328.223 105.916 327.947 105.916 327.638C105.916 327.396 105.954 327.176 106.029 326.977C106.107 326.775 106.214 326.602 106.348 326.46C106.486 326.313 106.65 326.2 106.839 326.121C107.029 326.041 107.236 326.002 107.461 326.002C107.658 326.002 107.842 326.037 108.011 326.109C108.185 326.18 108.335 326.283 108.461 326.418C108.587 326.549 108.684 326.706 108.751 326.888C108.818 327.067 108.848 327.265 108.84 327.483L108.834 327.709H106.242L106.147 327.34H108.461L108.378 327.441L108.384 327.293C108.376 327.122 108.329 326.971 108.242 326.84C108.155 326.71 108.043 326.606 107.905 326.531C107.771 326.456 107.623 326.418 107.461 326.418C107.232 326.418 107.035 326.468 106.869 326.567C106.703 326.662 106.577 326.799 106.49 326.977C106.407 327.152 106.364 327.362 106.36 327.608C106.364 327.854 106.415 328.068 106.514 328.25C106.613 328.429 106.751 328.57 106.928 328.673C107.11 328.772 107.319 328.821 107.556 328.821C107.725 328.821 107.883 328.794 108.029 328.738C108.175 328.679 108.323 328.582 108.473 328.447L108.698 328.768C108.603 328.863 108.491 328.946 108.361 329.018C108.234 329.085 108.098 329.139 107.952 329.178C107.806 329.218 107.66 329.238 107.514 329.238ZM110.795 329.238C110.534 329.238 110.299 329.192 110.09 329.101C109.881 329.006 109.712 328.871 109.581 328.697L109.889 328.429C110.004 328.572 110.14 328.679 110.297 328.75C110.455 328.821 110.635 328.857 110.836 328.857C110.939 328.857 111.029 328.845 111.108 328.821C111.187 328.794 111.254 328.758 111.31 328.714C111.365 328.667 111.404 328.613 111.428 328.554C111.456 328.49 111.469 328.423 111.469 328.351C111.469 328.221 111.418 328.116 111.315 328.036C111.26 327.997 111.183 327.959 111.085 327.923C110.99 327.884 110.874 327.846 110.735 327.81C110.522 327.759 110.343 327.699 110.197 327.632C110.055 327.56 109.942 327.479 109.859 327.388C109.796 327.316 109.749 327.239 109.717 327.156C109.686 327.072 109.67 326.977 109.67 326.87C109.67 326.7 109.717 326.549 109.812 326.418C109.907 326.287 110.035 326.186 110.197 326.115C110.363 326.039 110.55 326.002 110.759 326.002C110.901 326.002 111.041 326.021 111.179 326.061C111.321 326.101 111.452 326.158 111.57 326.234C111.688 326.309 111.791 326.4 111.878 326.507L111.611 326.793C111.533 326.71 111.446 326.638 111.351 326.579C111.26 326.515 111.166 326.468 111.067 326.436C110.968 326.4 110.872 326.382 110.777 326.382C110.674 326.382 110.582 326.394 110.499 326.418C110.416 326.438 110.345 326.47 110.286 326.513C110.23 326.553 110.189 326.602 110.161 326.662C110.134 326.718 110.12 326.783 110.12 326.858C110.124 326.914 110.138 326.969 110.161 327.025C110.185 327.076 110.219 327.12 110.262 327.156C110.317 327.199 110.396 327.243 110.499 327.287C110.601 327.326 110.726 327.362 110.872 327.394C111.061 327.441 111.221 327.495 111.351 327.554C111.481 327.61 111.586 327.677 111.665 327.757C111.748 327.828 111.807 327.911 111.842 328.006C111.878 328.102 111.896 328.211 111.896 328.334C111.896 328.512 111.848 328.671 111.753 328.81C111.659 328.944 111.529 329.05 111.363 329.125C111.197 329.2 111.008 329.238 110.795 329.238Z" fill="black"/>
<path d="M99.1592 183.923V183.337H100.098V178.958H99.1592V178.371H101.669V178.958H100.722V183.337H101.669V183.923H99.1592ZM105.17 184.003C104.775 184.003 104.412 183.931 104.081 183.789C103.755 183.646 103.468 183.448 103.22 183.194C102.978 182.94 102.792 182.641 102.66 182.297C102.528 181.948 102.463 181.565 102.463 181.147C102.463 180.735 102.528 180.357 102.66 180.013C102.792 179.664 102.978 179.363 103.22 179.109C103.468 178.849 103.755 178.649 104.081 178.506C104.412 178.363 104.775 178.292 105.17 178.292C105.559 178.292 105.917 178.363 106.243 178.506C106.574 178.649 106.861 178.849 107.103 179.109C107.35 179.363 107.54 179.664 107.671 180.013C107.808 180.362 107.877 180.74 107.877 181.147C107.877 181.56 107.808 181.94 107.671 182.289C107.54 182.633 107.35 182.934 107.103 183.194C106.861 183.448 106.574 183.646 106.243 183.789C105.917 183.931 105.559 184.003 105.17 184.003ZM105.17 183.392C105.47 183.392 105.746 183.337 105.998 183.225C106.251 183.114 106.469 182.958 106.653 182.757C106.837 182.557 106.979 182.321 107.08 182.052C107.185 181.776 107.237 181.475 107.237 181.147C107.237 180.825 107.185 180.529 107.08 180.259C106.979 179.984 106.837 179.746 106.653 179.545C106.469 179.339 106.251 179.18 105.998 179.069C105.746 178.958 105.47 178.903 105.17 178.903C104.87 178.903 104.594 178.958 104.341 179.069C104.089 179.18 103.868 179.336 103.678 179.537C103.494 179.738 103.349 179.976 103.244 180.251C103.144 180.526 103.094 180.825 103.094 181.147C103.094 181.581 103.183 181.967 103.363 182.305C103.542 182.644 103.786 182.911 104.096 183.106C104.407 183.297 104.765 183.392 105.17 183.392ZM110.719 184.003C110.261 184.003 109.858 183.916 109.511 183.741C109.169 183.561 108.88 183.299 108.643 182.956L109.085 182.464C109.322 182.813 109.571 183.061 109.835 183.21C110.103 183.358 110.419 183.432 110.782 183.432C111.013 183.432 111.221 183.392 111.405 183.313C111.595 183.233 111.745 183.125 111.855 182.987C111.965 182.85 112.021 182.694 112.021 182.52C112.021 182.403 112 182.297 111.958 182.202C111.921 182.107 111.86 182.022 111.776 181.948C111.697 181.875 111.597 181.806 111.476 181.742C111.355 181.679 111.216 181.623 111.058 181.576C110.905 181.523 110.731 181.472 110.537 181.425C110.263 181.367 110.024 181.29 109.819 181.195C109.619 181.1 109.448 180.986 109.306 180.854C109.164 180.721 109.058 180.571 108.99 180.402C108.922 180.227 108.888 180.031 108.888 179.815C108.888 179.519 108.969 179.257 109.132 179.029C109.301 178.802 109.524 178.622 109.803 178.49C110.087 178.358 110.405 178.292 110.758 178.292C111.184 178.292 111.547 178.371 111.847 178.53C112.152 178.688 112.397 178.913 112.581 179.204L112.139 179.64C111.97 179.392 111.771 179.201 111.539 179.069C111.313 178.932 111.047 178.863 110.742 178.863C110.506 178.863 110.295 178.903 110.111 178.982C109.926 179.061 109.782 179.172 109.677 179.315C109.571 179.452 109.519 179.614 109.519 179.799C109.519 179.931 109.543 180.053 109.59 180.164C109.642 180.269 109.719 180.362 109.819 180.441C109.919 180.521 110.048 180.592 110.206 180.655C110.363 180.719 110.55 180.774 110.766 180.822C111.06 180.891 111.323 180.973 111.555 181.068C111.792 181.163 111.992 181.274 112.155 181.401C112.318 181.528 112.441 181.671 112.526 181.829C112.61 181.988 112.652 182.168 112.652 182.369C112.652 182.696 112.57 182.985 112.407 183.233C112.25 183.477 112.026 183.667 111.737 183.804C111.447 183.937 111.108 184.003 110.719 184.003Z" fill="black"/>
<path d="M97.8418 217.139L99.9726 211.587H100.643L102.766 217.139H102.095L100.746 213.57C100.73 213.532 100.701 213.451 100.659 213.324C100.617 213.191 100.567 213.044 100.509 212.879C100.451 212.715 100.396 212.56 100.343 212.411C100.291 212.258 100.249 212.142 100.217 212.062H100.367C100.336 212.152 100.296 212.269 100.249 212.411C100.201 212.554 100.149 212.702 100.091 212.856C100.038 213.009 99.9883 213.152 99.941 213.284C99.8936 213.416 99.8567 213.522 99.8305 213.601L98.4889 217.139H97.8418ZM98.7415 215.608L98.9703 214.997H101.582L101.843 215.608H98.7415ZM103.508 217.139V212.975H104.107V213.863L103.989 213.934C104.047 213.749 104.152 213.58 104.305 213.427C104.457 213.274 104.641 213.149 104.857 213.054C105.073 212.953 105.296 212.903 105.528 212.903C105.838 212.903 106.099 212.964 106.309 213.086C106.525 213.202 106.688 213.385 106.798 213.633C106.909 213.881 106.964 214.196 106.964 214.577V217.139H106.364V214.617C106.364 214.347 106.325 214.125 106.246 213.95C106.172 213.776 106.059 213.649 105.907 213.57C105.759 213.49 105.572 213.453 105.346 213.458C105.167 213.458 105.002 213.488 104.849 213.546C104.702 213.604 104.573 213.683 104.462 213.784C104.352 213.879 104.265 213.987 104.202 214.109C104.139 214.225 104.107 214.341 104.107 214.458V217.139H103.815C103.768 217.139 103.718 217.139 103.665 217.139C103.613 217.139 103.56 217.139 103.508 217.139ZM109.806 217.218C109.422 217.218 109.08 217.126 108.78 216.941C108.486 216.75 108.251 216.494 108.078 216.171C107.904 215.849 107.817 215.481 107.817 215.069C107.817 214.651 107.904 214.281 108.078 213.958C108.251 213.631 108.486 213.374 108.78 213.189C109.08 212.998 109.414 212.903 109.782 212.903C109.988 212.903 110.187 212.937 110.382 213.006C110.577 213.075 110.751 213.17 110.903 213.292C111.061 213.408 111.187 213.54 111.282 213.689C111.377 213.837 111.429 213.99 111.44 214.149H111.274V211.269H111.874V217.139H111.274V216.021L111.4 216.013C111.384 216.171 111.329 216.322 111.235 216.465C111.14 216.608 111.019 216.737 110.872 216.853C110.729 216.964 110.566 217.054 110.382 217.123C110.198 217.187 110.006 217.218 109.806 217.218ZM109.877 216.687C110.151 216.687 110.393 216.618 110.603 216.481C110.819 216.338 110.987 216.145 111.108 215.902C111.229 215.658 111.29 215.378 111.29 215.061C111.29 214.743 111.229 214.463 111.108 214.22C110.987 213.977 110.819 213.784 110.603 213.641C110.393 213.498 110.148 213.427 109.869 213.427C109.591 213.427 109.341 213.498 109.12 213.641C108.904 213.784 108.733 213.98 108.607 214.228C108.486 214.471 108.425 214.751 108.425 215.069C108.425 215.376 108.486 215.653 108.607 215.902C108.733 216.145 108.904 216.338 109.12 216.481C109.341 216.618 109.593 216.687 109.877 216.687ZM112.987 217.139V212.975H113.586L113.595 214.18L113.524 213.974C113.576 213.784 113.666 213.607 113.792 213.443C113.923 213.279 114.081 213.149 114.265 213.054C114.449 212.953 114.652 212.903 114.873 212.903C114.962 212.903 115.047 212.911 115.126 212.927C115.205 212.937 115.27 212.953 115.323 212.975L115.165 213.633C115.091 213.607 115.015 213.585 114.936 213.57C114.862 213.548 114.791 213.538 114.723 213.538C114.56 213.538 114.408 213.572 114.265 213.641C114.128 213.704 114.01 213.792 113.91 213.903C113.81 214.014 113.731 214.141 113.674 214.283C113.621 214.421 113.595 214.564 113.595 214.712V217.139H112.987ZM117.616 217.218C117.211 217.218 116.848 217.126 116.527 216.941C116.211 216.75 115.962 216.494 115.777 216.171C115.593 215.844 115.501 215.471 115.501 215.053C115.501 214.635 115.593 214.265 115.777 213.942C115.962 213.62 116.211 213.366 116.527 213.181C116.848 212.996 117.211 212.903 117.616 212.903C118.021 212.903 118.382 212.996 118.697 213.181C119.018 213.366 119.268 213.62 119.447 213.942C119.631 214.265 119.723 214.635 119.723 215.053C119.723 215.471 119.631 215.844 119.447 216.171C119.268 216.494 119.018 216.75 118.697 216.941C118.382 217.126 118.021 217.218 117.616 217.218ZM117.616 216.663C117.906 216.663 118.163 216.594 118.389 216.457C118.621 216.314 118.8 216.121 118.926 215.878C119.058 215.634 119.121 215.36 119.115 215.053C119.121 214.741 119.058 214.466 118.926 214.228C118.8 213.99 118.621 213.802 118.389 213.665C118.163 213.527 117.906 213.458 117.616 213.458C117.327 213.458 117.067 213.527 116.835 213.665C116.609 213.802 116.43 213.992 116.298 214.236C116.167 214.474 116.104 214.746 116.109 215.053C116.104 215.36 116.167 215.634 116.298 215.878C116.43 216.121 116.609 216.314 116.835 216.457C117.067 216.594 117.327 216.663 117.616 216.663ZM120.735 217.139V212.975H121.335V217.139H120.735ZM121.027 211.999C120.891 211.999 120.783 211.962 120.704 211.888C120.63 211.809 120.593 211.706 120.593 211.579C120.593 211.452 120.63 211.351 120.704 211.277C120.783 211.198 120.891 211.158 121.027 211.158C121.164 211.158 121.269 211.195 121.343 211.269C121.422 211.343 121.461 211.446 121.461 211.579C121.461 211.7 121.424 211.801 121.351 211.88C121.277 211.959 121.169 211.999 121.027 211.999ZM124.318 217.218C123.934 217.218 123.592 217.126 123.292 216.941C122.998 216.75 122.763 216.494 122.59 216.171C122.416 215.849 122.329 215.481 122.329 215.069C122.329 214.651 122.416 214.281 122.59 213.958C122.763 213.631 122.998 213.374 123.292 213.189C123.592 212.998 123.926 212.903 124.294 212.903C124.5 212.903 124.699 212.937 124.894 213.006C125.089 213.075 125.263 213.17 125.415 213.292C125.573 213.408 125.699 213.54 125.794 213.689C125.889 213.837 125.941 213.99 125.952 214.149H125.786V211.269H126.386V217.139H125.786V216.021L125.912 216.013C125.896 216.171 125.841 216.322 125.746 216.465C125.652 216.608 125.531 216.737 125.383 216.853C125.241 216.964 125.078 217.054 124.894 217.123C124.71 217.187 124.518 217.218 124.318 217.218ZM124.389 216.687C124.663 216.687 124.905 216.618 125.115 216.481C125.331 216.338 125.499 216.145 125.62 215.902C125.741 215.658 125.802 215.378 125.802 215.061C125.802 214.743 125.741 214.463 125.62 214.22C125.499 213.977 125.331 213.784 125.115 213.641C124.905 213.498 124.66 213.427 124.381 213.427C124.103 213.427 123.852 213.498 123.631 213.641C123.416 213.784 123.245 213.98 123.119 214.228C122.998 214.471 122.937 214.751 122.937 215.069C122.937 215.376 122.998 215.653 123.119 215.902C123.245 216.145 123.416 216.338 123.631 216.481C123.852 216.618 124.105 216.687 124.389 216.687Z" fill="black"/>
<path d="M177.811 135.34V247.875" stroke="#6B5521" stroke-width="2"/>
<path d="M195.321 187.889H153.396C152.306 187.889 151.423 188.777 151.423 189.872V214.164C151.423 215.259 152.306 216.147 153.396 216.147H195.321C196.41 216.147 197.294 215.259 197.294 214.164V189.872C197.294 188.777 196.41 187.889 195.321 187.889Z" fill="#757575"/>
<path d="M125.281 183.428H142.791C143.881 183.428 144.764 184.316 144.764 185.411V194.83M144.764 194.83H151.176M144.764 194.83V214.164C144.764 215.259 143.881 216.147 142.791 216.147H137.612" stroke="#6B5521" stroke-width="2"/>
<path d="M174.605 335.623C179.508 335.623 183.483 331.628 183.483 326.7C183.483 321.771 179.508 317.776 174.605 317.776C169.701 317.776 165.727 321.771 165.727 326.7C165.727 331.628 169.701 335.623 174.605 335.623Z" fill="#736AE4" fill-opacity="0.73"/>
<path d="M199.266 335.623C204.169 335.623 208.144 331.628 208.144 326.7C208.144 321.771 204.169 317.776 199.266 317.776C194.363 317.776 190.388 321.771 190.388 326.7C190.388 331.628 194.363 335.623 199.266 335.623Z" fill="#736AE4" fill-opacity="0.73"/>
<path d="M170.59 204.249V200.099C170.59 199.891 170.629 199.713 170.708 199.564C170.791 199.412 170.904 199.296 171.046 199.217C171.194 199.134 171.359 199.093 171.543 199.093C171.7 199.093 171.838 199.12 171.958 199.176C172.078 199.231 172.174 199.305 172.248 199.398L172.054 199.794C171.99 199.724 171.919 199.673 171.84 199.641C171.762 199.609 171.681 199.592 171.599 199.592C171.497 199.592 171.41 199.609 171.336 199.641C171.263 199.673 171.207 199.729 171.17 199.807C171.133 199.881 171.115 199.978 171.115 200.099V204.249H170.86C170.814 204.249 170.767 204.249 170.722 204.249C170.676 204.249 170.632 204.249 170.59 204.249ZM169.948 201.133V200.647H172.041V201.133H169.948ZM174.254 204.319C173.899 204.319 173.581 204.238 173.301 204.076C173.025 203.909 172.806 203.685 172.645 203.403C172.483 203.116 172.403 202.789 172.403 202.424C172.403 202.059 172.483 201.734 172.645 201.452C172.806 201.17 173.025 200.948 173.301 200.786C173.581 200.624 173.899 200.543 174.254 200.543C174.608 200.543 174.923 200.624 175.2 200.786C175.48 200.948 175.699 201.17 175.856 201.452C176.016 201.734 176.097 202.059 176.097 202.424C176.097 202.789 176.016 203.116 175.856 203.403C175.699 203.685 175.48 203.909 175.2 204.076C174.923 204.238 174.608 204.319 174.254 204.319ZM174.254 203.833C174.507 203.833 174.732 203.773 174.93 203.652C175.133 203.528 175.289 203.358 175.4 203.146C175.515 202.933 175.57 202.692 175.566 202.424C175.57 202.151 175.515 201.91 175.4 201.702C175.289 201.494 175.133 201.33 174.93 201.209C174.732 201.089 174.507 201.029 174.254 201.029C174 201.029 173.772 201.089 173.57 201.209C173.372 201.33 173.215 201.496 173.1 201.709C172.985 201.917 172.93 202.156 172.935 202.424C172.93 202.692 172.985 202.933 173.1 203.146C173.215 203.358 173.372 203.528 173.57 203.652C173.772 203.773 174 203.833 174.254 203.833ZM176.865 204.249V200.606H177.39L177.397 201.661L177.335 201.48C177.381 201.313 177.459 201.158 177.57 201.015C177.685 200.872 177.823 200.758 177.984 200.675C178.145 200.587 178.322 200.543 178.516 200.543C178.594 200.543 178.668 200.55 178.737 200.564C178.806 200.573 178.863 200.587 178.909 200.606L178.771 201.182C178.707 201.158 178.64 201.14 178.571 201.126C178.506 201.108 178.444 201.098 178.385 201.098C178.242 201.098 178.108 201.129 177.984 201.189C177.864 201.244 177.761 201.32 177.673 201.418C177.586 201.515 177.517 201.626 177.466 201.751C177.42 201.871 177.397 201.996 177.397 202.126V204.249H176.865Z" fill="black" fill-opacity="0.65"/>
<path d="M172.038 328.235L169.672 327.041V326.574L172.038 325.38L172.353 325.812L169.999 327V326.614L172.353 327.802L172.038 328.235Z" fill="#BEBEBE"/>
<path d="M172.899 329.018L175.6 324.221H176.249L173.555 329.018H172.899Z" fill="#BEBEBE"/>
<path d="M177.171 328.235L176.856 327.802L179.21 326.614V327L176.856 325.812L177.171 325.38L179.537 326.574V327.041L177.171 328.235Z" fill="#BEBEBE"/>
<path d="M196.7 328.235L194.334 327.041V326.574L196.7 325.38L197.015 325.812L194.661 327V326.614L197.015 327.802L196.7 328.235Z" fill="#BEBEBE"/>
<path d="M197.562 329.018L200.262 324.221H200.911L198.217 329.018H197.562Z" fill="#BEBEBE"/>
<path d="M201.832 328.235L201.518 327.802L203.871 326.614V327L201.518 325.812L201.832 325.38L204.198 326.574V327.041L201.832 328.235Z" fill="#BEBEBE"/>
<path d="M46.8567 199.788H39.2116C38.1219 199.788 37.2386 200.675 37.2386 201.771V209.276C37.2386 209.998 36.8485 210.663 36.2199 211.012L28.8859 215.086C28.2573 215.435 27.8672 216.1 27.8672 216.822V226.558" stroke="#8D3D3B" stroke-width="2"/>
<path d="M37.2393 210.198V251.098" stroke="#8D3D3B" stroke-width="2"/>
<path d="M27.8681 226.062C29.6388 226.062 31.0741 227.505 31.0741 229.285C31.0741 231.064 29.6388 232.507 27.8681 232.507C26.0975 232.507 24.6621 231.064 24.6621 229.285C24.6621 227.505 26.0975 226.062 27.8681 226.062Z" stroke="#8D3D3B" stroke-width="2"/>
<path d="M37.2392 250.85C39.0099 250.85 40.4452 252.293 40.4452 254.072C40.4452 255.852 39.0099 257.295 37.2392 257.295C35.4686 257.295 34.0332 255.852 34.0332 254.072C34.0332 252.293 35.4686 250.85 37.2392 250.85Z" stroke="#8D3D3B" stroke-width="2"/>
<path d="M167.205 84.206C167.205 85.9766 168.647 87.412 170.427 87.412C172.207 87.412 173.649 85.9766 173.649 84.206C173.649 82.4354 172.207 81 170.427 81C168.647 81 167.205 82.4354 167.205 84.206Z" stroke="#8D3D3B" stroke-width="2"/>
<path d="M135 85.3061C135 87.0767 136.442 88.5121 138.222 88.5121C140.002 88.5121 141.444 87.0767 141.444 85.3061C141.444 83.5355 140.002 82.1001 138.222 82.1001C136.442 82.1001 135 83.5355 135 85.3061Z" stroke="#8D3D3B" stroke-width="2"/>
<path d="M167.471 84.9905H141.94" stroke="#8D3D3B" stroke-width="2"/>
</svg>
