<svg width="204" height="350" fill="none" xmlns="http://www.w3.org/2000/svg"><path d="M70.286 119.228H49.324c-1.09 0-1.974.888-1.974 1.983v172.026a1.978 1.978 0 0 1-1.972 1.983h-30.58c-1.09 0-1.974.887-1.974 1.983v35.446c0 1.095.883 1.983 1.973 1.983H47.35" stroke="#8D3D3B" stroke-width="2"/><path d="M203.212 100.637H72.998c-1.09 0-1.973.888-1.973 1.983v30.737c0 1.095.884 1.983 1.973 1.983h130.214a1.979 1.979 0 0 0 1.973-1.983V102.62a1.979 1.979 0 0 0-1.973-1.983Z" fill="#757575"/><path d="M202.226 147.238H72.012c-1.09 0-1.973.888-1.973 1.983v129.887c0 1.095.883 1.983 1.973 1.983h130.214a1.978 1.978 0 0 0 1.972-1.983V149.221a1.978 1.978 0 0 0-1.972-1.983ZM132.186 303.895H23.676c-1.09 0-1.974.888-1.974 1.983v42.139c0 1.095.883 1.983 1.973 1.983h108.511c1.09 0 1.973-.888 1.973-1.983v-42.139a1.978 1.978 0 0 0-1.973-1.983ZM252.782 303.895H144.271c-1.09 0-1.973.888-1.973 1.983v42.139c0 1.095.883 1.983 1.973 1.983h108.511c1.09 0 1.973-.888 1.973-1.983v-42.139a1.978 1.978 0 0 0-1.973-1.983Z" fill="#353535"/><path d="M123.309 314.306h-88.29c-1.089 0-1.972.888-1.972 1.983v21.317c0 1.095.883 1.983 1.973 1.983h88.289a1.978 1.978 0 0 0 1.972-1.983v-21.317a1.978 1.978 0 0 0-1.972-1.983ZM123.308 170.042H88.781c-1.09 0-1.972.888-1.972 1.983v18.343c0 1.095.883 1.983 1.972 1.983h34.527a1.979 1.979 0 0 0 1.973-1.983v-18.343a1.979 1.979 0 0 0-1.973-1.983ZM135.639 203.258H88.781c-1.09 0-1.972.888-1.972 1.983v18.343c0 1.095.883 1.983 1.972 1.983h46.858a1.979 1.979 0 0 0 1.973-1.983v-18.343a1.979 1.979 0 0 0-1.973-1.983ZM195.32 247.875H88.782c-1.09 0-1.973.888-1.973 1.983v14.377c0 1.095.883 1.983 1.972 1.983H195.32a1.979 1.979 0 0 0 1.973-1.983v-14.377a1.979 1.979 0 0 0-1.973-1.983Z" fill="#757575"/><path d="m90.865 122.034 3.267-6.623h.94l-3.26 6.623h-.947Zm4.558 0 3.267-6.623h.94l-3.26 6.623h-.947Zm5.724-1.071v-4.18h.947l.016.849-.158.063a1.26 1.26 0 0 1 .213-.381 1.61 1.61 0 0 1 .758-.523c.147-.053.3-.079.458-.079.226 0 .426.037.599.111.174.074.318.188.434.341.121.153.213.349.277.587l-.15-.032.055-.127c.063-.127.147-.243.252-.349.105-.105.224-.198.356-.278a1.548 1.548 0 0 1 .836-.253c.316 0 .579.063.789.19.211.127.369.32.474.579.105.259.158.579.158.96v2.522h-.971v-2.459c0-.317-.063-.552-.19-.706-.12-.153-.31-.23-.568-.23a.984.984 0 0 0-.379.072.874.874 0 0 0-.576.833v2.49h-.97v-2.467c0-.301-.066-.531-.198-.69-.126-.158-.307-.238-.544-.238a.98.98 0 0 0-.679.262.854.854 0 0 0-.268.627v2.506h-.971Zm10.074.08c-.415 0-.786-.093-1.112-.278a2.113 2.113 0 0 1-.774-.777 2.248 2.248 0 0 1-.276-1.119c0-.418.092-.791.276-1.118a2.05 2.05 0 0 1 .774-.77c.326-.19.697-.285 1.112-.285.411 0 .779.095 1.105.285.326.185.582.442.766.77.189.327.284.7.284 1.118a2.2 2.2 0 0 1-.284 1.119c-.184.327-.44.587-.766.777a2.199 2.199 0 0 1-1.105.278Zm0-.865c.227 0 .429-.056.608-.167a1.19 1.19 0 0 0 .418-.468c.105-.2.156-.425.15-.674a1.335 1.335 0 0 0-.15-.674 1.126 1.126 0 0 0-.418-.468 1.129 1.129 0 0 0-.608-.167c-.226 0-.431.058-.615.175a1.126 1.126 0 0 0-.418.468c-.1.196-.15.418-.15.666 0 .249.05.474.15.674.1.196.239.352.418.468.184.111.389.167.615.167Zm6.101.865c-.184 0-.363-.027-.536-.08a2.14 2.14 0 0 1-.482-.23 1.615 1.615 0 0 1-.355-.317 1.007 1.007 0 0 1-.189-.365l.229-.103-.024.991h-.931v-5.845h.962v2.649l-.165-.072a.846.846 0 0 1 .173-.357c.09-.116.203-.219.34-.309.136-.095.286-.169.45-.222a1.718 1.718 0 0 1 1.483.198c.29.185.516.442.679.77.168.322.252.695.252 1.118 0 .418-.081.791-.244 1.119a1.953 1.953 0 0 1-.679.777 1.726 1.726 0 0 1-.963.278Zm-.197-.857c.221 0 .418-.056.592-.167.173-.116.31-.272.41-.468.1-.2.15-.428.15-.682 0-.259-.05-.486-.15-.682a1.092 1.092 0 0 0-.402-.468 1.092 1.092 0 0 0-.6-.167c-.231 0-.434.056-.608.167a1.15 1.15 0 0 0-.41.468c-.1.196-.15.423-.15.682 0 .254.05.482.15.682.1.196.237.352.41.468.174.111.377.167.608.167Zm3.849.777v-4.18h.962v4.18h-.962Zm.473-5.068c-.195 0-.347-.048-.458-.143-.105-.101-.157-.241-.157-.421 0-.169.055-.303.165-.404a.625.625 0 0 1 .45-.159c.195 0 .344.05.45.151.11.095.166.233.166.412a.537.537 0 0 1-.166.405c-.11.106-.26.159-.45.159Zm2.517 5.068v-5.869h.963v5.869h-.963Zm4.773.08c-.436 0-.823-.09-1.16-.27a2.058 2.058 0 0 1-.781-.754 2.197 2.197 0 0 1-.276-1.11c0-.328.052-.627.157-.896.105-.27.253-.503.442-.699.19-.2.413-.354.671-.46.263-.111.547-.166.852-.166.279 0 .535.053.766.158a1.889 1.889 0 0 1 1.01 1.087c.095.249.14.521.134.817l-.008.349h-3.362l-.189-.674h2.739l-.119.135v-.183a.83.83 0 0 0-.158-.42.893.893 0 0 0-.347-.294.958.958 0 0 0-.458-.111c-.258 0-.476.051-.655.151a.95.95 0 0 0-.41.428 1.665 1.665 0 0 0-.134.706c0 .27.055.506.166.706.115.201.278.357.489.468.21.111.455.167.734.167.195 0 .373-.032.536-.095.169-.064.348-.177.537-.341l.474.666a2.218 2.218 0 0 1-.49.341 2.93 2.93 0 0 1-.568.214c-.2.053-.397.08-.592.08Zm8.941-.08v-2.673c0-.227-.076-.404-.229-.531-.147-.133-.339-.199-.576-.199-.221 0-.421.045-.6.135a1.424 1.424 0 0 0-.497.413l-.6-.603a2.61 2.61 0 0 1 .821-.603c.3-.137.623-.206.971-.206.331 0 .615.053.852.158.242.106.429.265.56.476.132.207.198.46.198.762v2.871h-.9Zm-1.184.08c-.268 0-.508-.054-.718-.159a1.308 1.308 0 0 1-.505-.436 1.22 1.22 0 0 1-.182-.667c0-.222.04-.415.119-.579a1.07 1.07 0 0 1 .347-.42 1.64 1.64 0 0 1 .584-.246c.237-.058.508-.087.813-.087h1.192l-.071.698h-1.176a1.66 1.66 0 0 0-.379.039.874.874 0 0 0-.284.119.5.5 0 0 0-.229.445c0 .105.026.198.079.277a.527.527 0 0 0 .213.175.733.733 0 0 0 .316.063c.173 0 .336-.029.489-.087.158-.058.297-.14.418-.246.121-.106.216-.225.284-.357l.198.539a1.914 1.914 0 0 1-.411.484 1.916 1.916 0 0 1-.521.326 1.446 1.446 0 0 1-.576.119Zm3.898 1.665v-5.925h.947l.016.944-.166-.071a.864.864 0 0 1 .268-.46 1.764 1.764 0 0 1 1.208-.484c.368 0 .694.092.978.277.29.185.516.442.679.77.169.322.252.692.252 1.11 0 .418-.081.791-.244 1.119a1.955 1.955 0 0 1-.679.769 1.74 1.74 0 0 1-.971.278 1.799 1.799 0 0 1-1.262-.516 1.05 1.05 0 0 1-.292-.476l.236-.119v2.784h-.97Zm2.099-2.538c.221 0 .418-.056.592-.167.173-.111.311-.264.41-.46.1-.195.15-.42.15-.674 0-.254-.05-.476-.15-.666a1.1 1.1 0 0 0-.402-.46 1.05 1.05 0 0 0-.6-.175c-.231 0-.434.056-.608.167a1.16 1.16 0 0 0-.41.46c-.1.196-.15.42-.15.674 0 .254.05.479.15.674.1.196.237.349.41.46.174.111.377.167.608.167Zm3.738 2.538v-5.925h.947l.016.944-.166-.071a.866.866 0 0 1 .269-.46 1.746 1.746 0 0 1 1.207-.484c.368 0 .694.092.979.277.289.185.515.442.678.77.168.322.253.692.253 1.11 0 .418-.082.791-.245 1.119-.163.322-.39.579-.679.769a1.737 1.737 0 0 1-.97.278 1.8 1.8 0 0 1-1.263-.516 1.05 1.05 0 0 1-.292-.476l.237-.119v2.784h-.971Zm2.099-2.538c.221 0 .419-.056.592-.167.174-.111.31-.264.411-.46.099-.195.15-.42.15-.674 0-.254-.051-.476-.15-.666a1.101 1.101 0 0 0-.403-.46 1.047 1.047 0 0 0-.6-.175 1.101 1.101 0 0 0-1.018.627c-.1.196-.15.42-.15.674 0 .254.05.479.15.674a1.101 1.101 0 0 0 1.018.627Zm3.746.793v-5.869h.963v5.869h-.963Zm3.011 0v-4.18h.963v4.18h-.963Zm.474-5.068c-.195 0-.348-.048-.458-.143a.556.556 0 0 1-.158-.421c0-.169.055-.303.166-.404.11-.106.26-.159.45-.159.194 0 .344.05.45.151.11.095.165.233.165.412a.537.537 0 0 1-.165.405.625.625 0 0 1-.45.159Zm4.293 5.148c-.389 0-.74-.096-1.05-.286-.31-.19-.555-.45-.734-.777a2.28 2.28 0 0 1-.268-1.111c0-.412.089-.783.268-1.11a2.05 2.05 0 0 1 .734-.778c.31-.19.661-.285 1.05-.285.368 0 .705.074 1.01.222.31.143.547.338.71.587l-.529.65a1.353 1.353 0 0 0-.299-.301 1.59 1.59 0 0 0-.395-.214 1.152 1.152 0 0 0-1.034.095 1.179 1.179 0 0 0-.426.468 1.388 1.388 0 0 0-.158.666c0 .249.053.471.158.666.11.196.258.352.442.468.184.117.389.175.615.175.143 0 .277-.021.403-.064a1.5 1.5 0 0 0 .363-.198c.121-.085.231-.19.331-.317l.529.65a1.886 1.886 0 0 1-.734.571 2.28 2.28 0 0 1-.986.223Zm5.627-.08v-2.673c0-.227-.076-.404-.229-.531-.147-.133-.339-.199-.576-.199-.221 0-.421.045-.6.135a1.441 1.441 0 0 0-.497.413l-.6-.603c.248-.264.521-.466.821-.603.3-.137.624-.206.971-.206.331 0 .615.053.852.158.242.106.429.265.56.476.132.207.198.46.198.762v2.871h-.9Zm-1.184.08a1.59 1.59 0 0 1-.718-.159 1.315 1.315 0 0 1-.505-.436 1.218 1.218 0 0 1-.181-.667c0-.222.039-.415.118-.579.079-.169.195-.309.347-.42.158-.111.353-.193.584-.246.237-.058.508-.087.813-.087h1.192l-.071.698h-1.176a1.66 1.66 0 0 0-.379.039.884.884 0 0 0-.284.119.5.5 0 0 0-.229.445c0 .105.027.198.079.277a.541.541 0 0 0 .213.175.74.74 0 0 0 .316.063c.173 0 .337-.029.489-.087.158-.058.297-.14.418-.246.122-.106.216-.225.284-.357l.198.539a1.894 1.894 0 0 1-.411.484 1.916 1.916 0 0 1-.521.326 1.442 1.442 0 0 1-.576.119Zm4.356-.08v-5.243h.963v5.243h-.963Zm-.821-3.276v-.904h2.691v.904h-2.691Zm4.33 3.276v-4.18h.963v4.18h-.963Zm.474-5.068c-.195 0-.347-.048-.458-.143a.556.556 0 0 1-.158-.421c0-.169.056-.303.166-.404a.625.625 0 0 1 .45-.159c.194 0 .344.05.45.151.11.095.165.233.165.412a.537.537 0 0 1-.165.405.625.625 0 0 1-.45.159Zm4.403 5.148c-.415 0-.786-.093-1.112-.278a2.106 2.106 0 0 1-.774-.777 2.248 2.248 0 0 1-.276-1.119c0-.418.092-.791.276-1.118.19-.328.447-.585.774-.77.326-.19.697-.285 1.112-.285.411 0 .779.095 1.105.285.326.185.581.442.766.77.189.327.284.7.284 1.118a2.2 2.2 0 0 1-.284 1.119c-.185.327-.44.587-.766.777a2.199 2.199 0 0 1-1.105.278Zm0-.865c.226 0 .429-.056.608-.167a1.19 1.19 0 0 0 .418-.468c.105-.2.155-.425.15-.674a1.346 1.346 0 0 0-.15-.674 1.126 1.126 0 0 0-.418-.468 1.131 1.131 0 0 0-.608-.167c-.226 0-.431.058-.615.175a1.12 1.12 0 0 0-.418.468c-.1.196-.15.418-.15.666 0 .249.05.474.15.674.099.196.239.352.418.468.184.111.389.167.615.167Zm3.812.785v-4.18h.939l.016.857-.181.095c.058-.185.16-.355.307-.508.153-.158.335-.285.545-.381.211-.1.429-.15.655-.15.316 0 .579.063.789.19.216.127.376.317.481.571.106.254.158.571.158.952v2.554h-.962v-2.483a1.38 1.38 0 0 0-.087-.531.573.573 0 0 0-.269-.309.783.783 0 0 0-.442-.088c-.142 0-.273.024-.394.072a.868.868 0 0 0-.316.19.847.847 0 0 0-.276.635v2.514h-.963ZM98.902 260.11l2.804-5.691h.511l-2.804 5.691h-.51Zm5.708-.763c-.267 0-.497-.056-.69-.167a1.158 1.158 0 0 1-.449-.492 1.892 1.892 0 0 1-.152-.799v-2.255h.525v2.124c0 .365.082.645.248.839.17.19.408.285.711.285.148 0 .281-.025.401-.076.124-.056.232-.128.324-.216a.944.944 0 0 0 .214-.291.732.732 0 0 0 .083-.333v-2.332h.525v3.644h-.518l-.007-.792.104-.055a1.27 1.27 0 0 1-.283.465 1.376 1.376 0 0 1-1.036.451Zm4.254 0c-.304 0-.578-.053-.822-.16a1.5 1.5 0 0 1-.594-.472l.359-.312c.134.167.293.292.477.375.184.083.393.125.628.125.12 0 .225-.014.318-.042a.787.787 0 0 0 .234-.125.482.482 0 0 0 .139-.187.59.59 0 0 0 .048-.236.442.442 0 0 0-.18-.368 1.14 1.14 0 0 0-.269-.132 3.106 3.106 0 0 0-.407-.132 3.402 3.402 0 0 1-.629-.208 1.332 1.332 0 0 1-.393-.284.885.885 0 0 1-.166-.271.93.93 0 0 1-.055-.333c0-.199.055-.375.165-.528.111-.152.26-.27.449-.354.194-.088.412-.132.656-.132.166 0 .329.024.491.07.165.046.317.113.455.201.138.088.258.194.359.319l-.31.333a1.593 1.593 0 0 0-.304-.249 1.248 1.248 0 0 0-.332-.167.981.981 0 0 0-.338-.062c-.12 0-.228.013-.325.041a.696.696 0 0 0-.248.111.428.428 0 0 0-.145.174.512.512 0 0 0-.049.229.602.602 0 0 0 .049.194c.027.06.066.111.117.153.065.051.157.101.276.152.12.047.265.088.435.125.221.056.408.118.56.188.152.065.274.143.366.236.096.083.165.18.207.291a1.1 1.1 0 0 1 .062.382.958.958 0 0 1-.166.555c-.11.157-.262.28-.455.368a1.589 1.589 0 0 1-.663.132Zm4.05 0c-.364 0-.686-.079-.967-.236a1.766 1.766 0 0 1-.663-.666 1.961 1.961 0 0 1-.235-.965c0-.282.044-.539.131-.77.093-.236.217-.438.373-.604.162-.171.352-.303.573-.396.221-.093.463-.139.725-.139.231 0 .445.042.643.125a1.545 1.545 0 0 1 .863.909c.078.209.113.44.103.695l-.007.263h-3.024l-.111-.43h2.7l-.096.118.007-.174a1.014 1.014 0 0 0-.166-.527 1.085 1.085 0 0 0-.394-.361 1.037 1.037 0 0 0-.518-.132c-.266 0-.497.058-.69.174-.193.111-.34.27-.442.479a1.766 1.766 0 0 0-.152.735c.005.287.065.537.18.75.115.208.276.372.483.493.212.115.456.173.732.173.198 0 .382-.032.552-.097.171-.069.344-.183.518-.34l.263.375a1.714 1.714 0 0 1-.394.291 2.292 2.292 0 0 1-.476.188 1.958 1.958 0 0 1-.511.069Zm2.612-.069v-3.644h.525l.006 1.055-.062-.181a1.293 1.293 0 0 1 .649-.805c.162-.088.339-.132.532-.132.079 0 .152.007.221.021.069.01.127.023.173.042l-.138.576a1.491 1.491 0 0 0-.201-.056.686.686 0 0 0-.186-.027.913.913 0 0 0-.401.09.948.948 0 0 0-.31.229 1.04 1.04 0 0 0-.277.708v2.124h-.531Zm2.776-1.694v-.527h1.947v.527h-1.947Zm3.56 1.694v-4.151c0-.208.039-.386.118-.534a.844.844 0 0 1 .338-.347.984.984 0 0 1 .497-.125c.157 0 .295.028.415.083a.794.794 0 0 1 .29.222l-.194.396a.597.597 0 0 0-.455-.201.657.657 0 0 0-.263.048.322.322 0 0 0-.166.167.654.654 0 0 0-.055.291v4.151h-.525Zm-.642-3.117v-.486h2.092v.486h-2.092Zm3.114 3.117v-3.644h.525l.007 1.055-.062-.181a1.293 1.293 0 0 1 .649-.805 1.09 1.09 0 0 1 .532-.132c.078 0 .152.007.221.021.069.01.126.023.172.042l-.138.576a1.438 1.438 0 0 0-.2-.056.697.697 0 0 0-.186-.027.91.91 0 0 0-.401.09.952.952 0 0 0-.311.229 1.039 1.039 0 0 0-.276.708v2.124h-.532Zm2.998 0v-3.644h.525v3.644h-.525Zm.255-4.498a.395.395 0 0 1-.283-.097.384.384 0 0 1-.096-.271c0-.111.032-.199.096-.263a.379.379 0 0 1 .283-.105c.12 0 .212.033.276.098a.35.35 0 0 1 .104.27.37.37 0 0 1-.097.264c-.064.069-.158.104-.283.104Zm3.315 4.567c-.364 0-.686-.079-.967-.236a1.766 1.766 0 0 1-.663-.666 1.95 1.95 0 0 1-.235-.965c0-.282.044-.539.132-.77.091-.236.216-.438.372-.604.161-.171.353-.303.574-.396.221-.093.462-.139.725-.139.23 0 .444.042.642.125a1.557 1.557 0 0 1 .863.909c.078.209.112.44.104.695l-.007.263h-3.025l-.11-.43h2.7l-.097.118.007-.174a1.023 1.023 0 0 0-.166-.527 1.098 1.098 0 0 0-.911-.493c-.268 0-.498.058-.691.174-.193.111-.341.27-.442.479a1.782 1.782 0 0 0-.152.735c.005.287.064.537.18.75.115.208.276.372.483.493.212.115.456.173.732.173.198 0 .382-.032.553-.097a1.81 1.81 0 0 0 .517-.34l.263.375a1.714 1.714 0 0 1-.394.291 2.292 2.292 0 0 1-.476.188 1.958 1.958 0 0 1-.511.069Zm2.611-.069v-3.644h.525v.777l-.103.063c.051-.162.143-.31.276-.445.134-.134.295-.242.483-.326.189-.088.385-.132.587-.132.272 0 .5.053.684.16a.97.97 0 0 1 .428.479c.097.218.145.493.145.826v2.242h-.525v-2.208c0-.235-.034-.43-.103-.582a.648.648 0 0 0-.297-.334.99.99 0 0 0-.491-.097 1.108 1.108 0 0 0-.773.285.946.946 0 0 0-.228.284.64.64 0 0 0-.083.306v2.346h-.525Zm5.823.069c-.336 0-.635-.081-.898-.243a1.797 1.797 0 0 1-.614-.673 2.002 2.002 0 0 1-.228-.965c0-.365.076-.689.228-.972.152-.287.356-.511.614-.673a1.61 1.61 0 0 1 1.402-.159c.17.06.322.143.456.249.138.102.249.218.331.347.083.13.129.264.138.403h-.145v-2.519h.525v5.136h-.525v-.979l.111-.007a.864.864 0 0 1-.145.396 1.474 1.474 0 0 1-.318.34 1.593 1.593 0 0 1-.428.236 1.549 1.549 0 0 1-.504.083Zm.062-.465c.239 0 .451-.06.636-.18a1.28 1.28 0 0 0 .441-.507 1.63 1.63 0 0 0 .159-.736c0-.277-.053-.523-.159-.736a1.284 1.284 0 0 0-.441-.506 1.12 1.12 0 0 0-.643-.188c-.244 0-.462.063-.656.188a1.31 1.31 0 0 0-.448.513 1.62 1.62 0 0 0-.159.736c0 .268.052.511.159.729.11.213.259.382.448.507.194.12.415.18.663.18Zm3.094.396v-5.136h.525v5.136h-.525Zm2.387 1.596.704-1.687.021.417-1.768-3.97h.614l1.243 2.873c.028.056.054.121.076.195.028.069.051.136.069.201l-.145.041c.033-.083.063-.164.09-.242.033-.084.062-.165.09-.243l1.063-2.825h.615l-1.499 3.671-.607 1.569h-.566Zm5.89-1.596v-3.644h.525v3.644h-.525Zm.255-4.498a.397.397 0 0 1-.283-.097.384.384 0 0 1-.097-.271c0-.111.033-.199.097-.263a.38.38 0 0 1 .283-.105c.12 0 .212.033.276.098a.35.35 0 0 1 .104.27.37.37 0 0 1-.097.264c-.064.069-.158.104-.283.104Zm1.664 4.498v-3.644h.525v.777l-.103.063c.05-.162.143-.31.276-.445.134-.134.295-.242.483-.326.189-.088.385-.132.587-.132.272 0 .5.053.684.16a.97.97 0 0 1 .428.479c.097.218.145.493.145.826v2.242h-.525v-2.208c0-.235-.034-.43-.103-.582a.648.648 0 0 0-.297-.334.99.99 0 0 0-.491-.097 1.108 1.108 0 0 0-.773.285.946.946 0 0 0-.228.284.64.64 0 0 0-.083.306v2.346h-.525Zm4.814 0v-4.574h.525v4.574h-.525Zm-.835-3.131v-.513h2.265v.513h-2.265Zm4.821 3.2c-.364 0-.686-.079-.967-.236a1.757 1.757 0 0 1-.662-.666 1.95 1.95 0 0 1-.235-.965c0-.282.043-.539.131-.77a1.84 1.84 0 0 1 .373-.604c.161-.171.352-.303.573-.396.221-.093.463-.139.725-.139.23 0 .444.042.642.125a1.557 1.557 0 0 1 .863.909c.078.209.113.44.104.695l-.007.263h-3.024l-.111-.43h2.7l-.097.118.007-.174a1.023 1.023 0 0 0-.165-.527 1.1 1.1 0 0 0-.912-.493c-.267 0-.497.058-.69.174-.194.111-.341.27-.442.479a1.75 1.75 0 0 0-.152.735c.004.287.064.537.179.75.115.208.276.372.484.493.211.115.455.173.732.173.197 0 .381-.032.552-.097.17-.069.343-.183.518-.34l.262.375c-.11.111-.241.208-.393.291a2.322 2.322 0 0 1-.477.188c-.17.046-.341.069-.511.069Zm2.612-.069v-3.644h.525l.007 1.055-.063-.181a1.38 1.38 0 0 1 .235-.465c.116-.143.254-.256.415-.34.161-.088.338-.132.531-.132.079 0 .152.007.221.021.069.01.127.023.173.042l-.138.576a1.413 1.413 0 0 0-.201-.056.686.686 0 0 0-.186-.027.905.905 0 0 0-.4.09.952.952 0 0 0-.311.229 1.039 1.039 0 0 0-.276.708v2.124h-.532Zm3.308 0v-4.151c0-.208.039-.386.117-.534a.846.846 0 0 1 .339-.347.984.984 0 0 1 .497-.125c.157 0 .295.028.414.083.12.056.217.129.29.222l-.193.396a.597.597 0 0 0-.456-.201.655.655 0 0 0-.262.048.322.322 0 0 0-.166.167.668.668 0 0 0-.055.291v4.151h-.525Zm-.642-3.117v-.486h2.092v.486h-2.092Zm5.272 3.117v-2.43a.716.716 0 0 0-.249-.569c-.165-.143-.384-.215-.656-.215-.226 0-.43.046-.614.139a1.423 1.423 0 0 0-.49.416l-.346-.347c.207-.236.433-.412.677-.527.249-.116.518-.174.808-.174.276 0 .515.046.718.139.202.093.357.227.463.403.11.176.165.388.165.638v2.527h-.476Zm-1.243.069c-.235 0-.444-.046-.628-.139a1.134 1.134 0 0 1-.442-.382 1.059 1.059 0 0 1-.159-.583c0-.18.032-.34.097-.478a.925.925 0 0 1 .296-.347c.129-.093.292-.163.491-.209.198-.051.423-.076.676-.076h1.147l-.042.437h-1.174c-.161 0-.303.014-.428.042a.9.9 0 0 0-.31.132.593.593 0 0 0-.194.208.609.609 0 0 0-.062.285c0 .129.032.245.097.347a.73.73 0 0 0 .269.229.945.945 0 0 0 .387.076c.188 0 .366-.032.531-.097a1.56 1.56 0 0 0 .442-.278c.134-.12.24-.254.318-.402l.145.333a1.981 1.981 0 0 1-.38.472c-.152.134-.32.24-.504.319a1.488 1.488 0 0 1-.573.111Zm4.531 0a1.728 1.728 0 0 1-1.561-.923 2.044 2.044 0 0 1-.228-.972c0-.356.076-.675.228-.958a1.737 1.737 0 0 1 1.561-.923c.313 0 .596.063.849.188.253.12.453.289.601.506l-.304.361a1.297 1.297 0 0 0-.304-.291 1.394 1.394 0 0 0-.386-.201 1.304 1.304 0 0 0-1.098.104c-.198.12-.355.287-.47.499a1.458 1.458 0 0 0-.173.715c0 .268.058.509.173.722.12.213.281.382.483.507.203.125.429.187.677.187.138 0 .272-.021.401-.062.133-.046.258-.111.373-.195.114-.083.223-.185.324-.305l.297.368a1.665 1.665 0 0 1-.621.486 1.86 1.86 0 0 1-.822.187Zm4.062 0c-.364 0-.686-.079-.967-.236a1.766 1.766 0 0 1-.663-.666 1.961 1.961 0 0 1-.235-.965c0-.282.044-.539.131-.77.093-.236.217-.438.373-.604.162-.171.352-.303.573-.396.221-.093.463-.139.725-.139.231 0 .445.042.643.125a1.545 1.545 0 0 1 .863.909c.078.209.113.44.103.695l-.007.263h-3.024l-.11-.43h2.699l-.096.118.007-.174a1.014 1.014 0 0 0-.166-.527 1.085 1.085 0 0 0-.394-.361 1.037 1.037 0 0 0-.518-.132c-.266 0-.497.058-.69.174-.193.111-.34.27-.442.479a1.766 1.766 0 0 0-.152.735c.005.287.065.537.18.75.115.208.276.372.483.493.212.115.456.173.732.173.198 0 .382-.032.552-.097.171-.069.344-.183.518-.34l.263.375a1.714 1.714 0 0 1-.394.291 2.292 2.292 0 0 1-.476.188 1.958 1.958 0 0 1-.511.069Zm2.798-.167-.248-.402 2.451-1.409v.326l-2.451-1.423.248-.388 2.479 1.429v.431l-2.479 1.436ZM48.256 329.178v-2.082a.614.614 0 0 0-.213-.488c-.142-.123-.33-.184-.563-.184-.193 0-.369.04-.526.119a1.222 1.222 0 0 0-.42.357l-.297-.298c.178-.202.371-.352.58-.452.214-.099.444-.148.693-.148.237 0 .442.039.615.119a.867.867 0 0 1 .397.345c.095.15.142.333.142.547v2.165h-.408Zm-1.066.06c-.201 0-.38-.04-.538-.119a.979.979 0 0 1-.38-.327.913.913 0 0 1-.135-.5c0-.155.027-.292.083-.41a.8.8 0 0 1 .254-.298c.11-.079.25-.139.42-.178.17-.044.363-.066.58-.066h.983l-.036.375h-1.006c-.138 0-.26.012-.367.036a.75.75 0 0 0-.266.113.507.507 0 0 0-.166.178.52.52 0 0 0-.053.244c0 .111.027.21.083.298.059.083.136.148.23.196.1.043.21.065.332.065.162 0 .314-.028.456-.083a1.35 1.35 0 0 0 .379-.238c.114-.103.205-.218.272-.345l.124.286c-.087.15-.195.285-.325.404a1.61 1.61 0 0 1-.432.274 1.284 1.284 0 0 1-.492.095Zm3.59 0c-.23 0-.427-.048-.592-.143a.998.998 0 0 1-.385-.422 1.618 1.618 0 0 1-.13-.684v-1.934h.45v1.821c0 .313.07.553.213.719.146.163.349.244.61.244a.862.862 0 0 0 .62-.25.845.845 0 0 0 .184-.249.64.64 0 0 0 .071-.286v-1.999h.45v3.123h-.444l-.006-.678.089-.047a1.089 1.089 0 0 1-.243.398 1.19 1.19 0 0 1-.888.387Zm3.048-.06v-3.92h.45v3.92h-.45Zm-.717-2.683v-.44h1.942v.44h-1.941Zm4.121 2.743c-.304 0-.576-.069-.817-.208a1.575 1.575 0 0 1-.562-.577 1.685 1.685 0 0 1-.207-.839c0-.313.069-.591.207-.833.138-.242.325-.432.562-.571.24-.139.513-.208.817-.208.304 0 .574.069.81.208.242.139.429.329.563.571.138.242.207.52.207.833 0 .313-.069.593-.207.839a1.516 1.516 0 0 1-1.373.785Zm0-.417c.217 0 .41-.051.58-.154.174-.107.308-.252.403-.434.098-.183.145-.389.142-.619a1.217 1.217 0 0 0-.142-.619 1.095 1.095 0 0 0-.983-.577c-.217 0-.412.052-.586.155-.17.103-.304.246-.402.428a1.204 1.204 0 0 0-.142.613c-.004.23.043.436.142.619.098.182.232.327.402.434.174.103.369.154.586.154Zm2.487.357v-3.123h.45l.006.708-.106.042c.047-.119.108-.226.183-.321.075-.1.162-.183.26-.25.103-.072.212-.127.326-.167a1.12 1.12 0 0 1 .361-.059c.174 0 .328.029.462.089.138.055.25.143.337.262.09.119.156.269.195.452h-.082l.035-.101c.047-.104.109-.197.184-.28a1.266 1.266 0 0 1 .586-.369c.114-.036.226-.053.337-.053.229 0 .42.045.574.136.154.092.27.232.35.423.078.186.118.424.118.714v1.897h-.45v-1.879c0-.302-.061-.522-.184-.661-.122-.139-.303-.208-.544-.208a.971.971 0 0 0-.355.065.848.848 0 0 0-.462.423.667.667 0 0 0-.065.291v1.969h-.456v-1.885c0-.29-.061-.506-.183-.649-.123-.143-.298-.214-.527-.214-.13 0-.25.022-.361.065a1.05 1.05 0 0 0-.284.173.777.777 0 0 0-.184.244.593.593 0 0 0-.065.268v1.998h-.456Zm7.613 0v-2.082a.614.614 0 0 0-.213-.488c-.142-.123-.33-.184-.562-.184-.193 0-.369.04-.527.119a1.222 1.222 0 0 0-.42.357l-.296-.298c.178-.202.371-.352.58-.452.213-.099.444-.148.693-.148.236 0 .442.039.615.119a.868.868 0 0 1 .397.345c.094.15.142.333.142.547v2.165h-.409Zm-1.065.06c-.201 0-.38-.04-.539-.119a.98.98 0 0 1-.378-.327.914.914 0 0 1-.136-.5c0-.155.027-.292.082-.41a.799.799 0 0 1 .255-.298c.11-.079.25-.139.42-.178.17-.044.363-.066.58-.066h.983l-.036.375h-1.006c-.138 0-.26.012-.367.036a.75.75 0 0 0-.266.113.508.508 0 0 0-.166.178.52.52 0 0 0-.053.244c0 .111.027.21.082.298.06.083.137.148.231.196.099.043.21.065.332.065.162 0 .314-.028.456-.083.142-.06.268-.139.378-.238.115-.103.206-.218.273-.345l.124.286c-.087.15-.195.285-.326.404-.13.115-.274.206-.432.274a1.284 1.284 0 0 1-.491.095Zm2.978-.06v-3.92h.45v3.92h-.45Zm-.717-2.683v-.44h1.942v.44h-1.942Zm2.848 2.683v-3.123h.45v3.123h-.45Zm.219-3.855a.338.338 0 0 1-.243-.083.327.327 0 0 1-.083-.232c0-.095.028-.17.083-.226a.329.329 0 0 1 .243-.089c.103 0 .181.028.237.083.059.056.089.133.089.232a.318.318 0 0 1-.083.226c-.056.06-.136.089-.243.089Zm1.426 3.855v-3.123h.45v.666l-.089.054a.931.931 0 0 1 .237-.381c.115-.115.253-.208.415-.279a1.17 1.17 0 0 1 .503-.113c.232 0 .428.045.586.136a.838.838 0 0 1 .367.411c.082.186.124.422.124.708v1.921h-.45v-1.891c0-.203-.03-.369-.089-.5a.551.551 0 0 0-.254-.286.843.843 0 0 0-.42-.083 1.03 1.03 0 0 0-.373.066.933.933 0 0 0-.29.178.819.819 0 0 0-.196.244.543.543 0 0 0-.07.262v2.01h-.451Zm5.056 1.387c-.221 0-.436-.036-.645-.108a1.426 1.426 0 0 1-.503-.285l.165-.357c.119.103.265.186.439.25a1.6 1.6 0 0 0 .538.095c.221 0 .412-.044.574-.131a.92.92 0 0 0 .379-.381c.09-.166.136-.368.136-.606v-.685l.06.018a.86.86 0 0 1-.22.429 1.268 1.268 0 0 1-.426.315 1.21 1.21 0 0 1-.527.119c-.292 0-.554-.069-.787-.208a1.56 1.56 0 0 1-.544-.577 1.719 1.719 0 0 1-.196-.827c0-.314.066-.591.196-.833.134-.246.315-.438.544-.577.23-.143.484-.214.764-.214a1.312 1.312 0 0 1 .674.184c.1.056.188.119.267.19.079.072.144.149.195.232a.75.75 0 0 1 .1.25l-.1.03.006-.833h.444v2.957c0 .246-.037.464-.112.654a1.249 1.249 0 0 1-.314.488 1.27 1.27 0 0 1-.486.303 1.705 1.705 0 0 1-.621.108Zm.012-1.749c.209 0 .394-.05.556-.149.166-.103.294-.244.385-.423.095-.182.142-.39.142-.624 0-.234-.047-.44-.142-.619a1.037 1.037 0 0 0-.947-.583c-.213 0-.404.054-.574.161a1.078 1.078 0 0 0-.39.428 1.3 1.3 0 0 0-.143.619c0 .226.047.43.142.612.095.179.225.32.39.423.17.103.364.155.58.155Zm4.558 1.689v-4.45h.45l.006.827-.083-.03a.942.942 0 0 1 .225-.416c.118-.127.26-.23.426-.309.17-.08.345-.119.526-.119.285 0 .537.069.758.208.221.139.395.329.521.571.126.242.19.517.19.827 0 .309-.064.587-.19.833a1.5 1.5 0 0 1-.52.577 1.332 1.332 0 0 1-.735.208c-.193 0-.379-.04-.556-.119a1.454 1.454 0 0 1-.45-.315.839.839 0 0 1-.225-.423l.113-.047v2.177h-.456Zm1.503-1.689a1.038 1.038 0 0 0 .941-.583c.095-.183.142-.389.142-.619 0-.226-.047-.429-.142-.607a1.025 1.025 0 0 0-.941-.577c-.205 0-.388.052-.55.155a1.075 1.075 0 0 0-.38.416 1.35 1.35 0 0 0-.135.619c0 .23.045.436.136.618.095.179.22.32.379.423.162.103.345.155.55.155Zm2.44.362v-3.123h.45l.005.904-.053-.154a1.089 1.089 0 0 1 .556-.69.929.929 0 0 1 .456-.113c.067 0 .13.006.19.017a.62.62 0 0 1 .147.036l-.118.494a1.207 1.207 0 0 0-.172-.048.571.571 0 0 0-.16-.023.771.771 0 0 0-.343.077.812.812 0 0 0-.266.196.889.889 0 0 0-.237.607v1.82h-.456Zm3.737.06c-.303 0-.576-.069-.816-.208a1.574 1.574 0 0 1-.563-.577 1.685 1.685 0 0 1-.207-.839c0-.313.07-.591.207-.833.139-.242.326-.432.563-.571.24-.139.513-.208.816-.208.304 0 .575.069.811.208.241.139.428.329.563.571.138.242.207.52.207.833 0 .313-.07.593-.207.839a1.516 1.516 0 0 1-1.374.785Zm0-.417c.218 0 .41-.051.58-.154.174-.107.308-.252.403-.434.099-.183.146-.389.142-.619a1.217 1.217 0 0 0-.142-.619 1.096 1.096 0 0 0-.983-.577c-.217 0-.412.052-.585.155-.17.103-.304.246-.403.428a1.204 1.204 0 0 0-.142.613c-.004.23.043.436.142.619.099.182.233.327.403.434.173.103.368.154.585.154Zm3.855.417c-.296 0-.56-.071-.793-.214a1.56 1.56 0 0 1-.545-.577 1.754 1.754 0 0 1-.195-.833c0-.306.065-.579.195-.821a1.484 1.484 0 0 1 1.338-.791c.268 0 .511.053.728.16.217.103.389.248.515.435l-.26.309a1.117 1.117 0 0 0-.26-.25 1.192 1.192 0 0 0-.332-.172 1.013 1.013 0 0 0-.355-.066c-.218 0-.413.052-.586.155-.17.103-.304.246-.403.428a1.248 1.248 0 0 0-.148.613c0 .23.05.436.148.619.103.182.24.327.414.434.174.107.367.16.58.16a1.1 1.1 0 0 0 .663-.22 1.55 1.55 0 0 0 .279-.261l.254.315c-.13.17-.308.309-.533.416a1.596 1.596 0 0 1-.704.161Zm3.481 0c-.311 0-.588-.068-.828-.202-.241-.139-.43-.33-.569-.571a1.677 1.677 0 0 1-.2-.827c0-.242.037-.462.112-.661a1.58 1.58 0 0 1 .32-.517c.137-.147.301-.26.49-.339.19-.08.397-.119.622-.119.197 0 .38.035.55.107a1.33 1.33 0 0 1 .74.779c.067.179.097.377.09.595l-.007.226h-2.592l-.095-.369h2.314l-.083.101.006-.148a.877.877 0 0 0-.142-.453.942.942 0 0 0-.781-.422c-.229 0-.426.05-.592.149a.93.93 0 0 0-.379.41 1.522 1.522 0 0 0-.13.631c.004.246.055.46.154.642.099.179.237.32.414.423.182.099.391.148.628.148.17 0 .327-.027.473-.083.146-.059.294-.156.444-.291l.225.321a1.49 1.49 0 0 1-.337.25 1.934 1.934 0 0 1-.409.16c-.146.04-.292.06-.438.06Zm3.281 0c-.26 0-.495-.046-.704-.137a1.291 1.291 0 0 1-.51-.404l.309-.268c.114.143.25.25.408.321a1.3 1.3 0 0 0 .811.071.661.661 0 0 0 .201-.107.42.42 0 0 0 .119-.16.515.515 0 0 0 .041-.203.38.38 0 0 0-.154-.315.992.992 0 0 0-.231-.113 2.718 2.718 0 0 0-.349-.113 2.956 2.956 0 0 1-.539-.178 1.159 1.159 0 0 1-.337-.244.762.762 0 0 1-.142-.232.807.807 0 0 1-.047-.286c0-.17.047-.321.142-.452a.918.918 0 0 1 .384-.303 1.5 1.5 0 0 1 .983-.054c.142.04.272.097.391.173.118.075.221.166.307.273l-.266.286a1.352 1.352 0 0 0-.26-.214 1.068 1.068 0 0 0-.284-.143.847.847 0 0 0-.29-.054c-.103 0-.196.012-.279.036a.594.594 0 0 0-.213.095.38.38 0 0 0-.124.149.432.432 0 0 0-.041.196.487.487 0 0 0 .041.167.37.37 0 0 0 .101.131c.055.043.134.087.236.131.103.039.227.075.373.107.19.047.349.101.48.16.13.056.234.123.313.203a.608.608 0 0 1 .178.249.952.952 0 0 1 .053.328.824.824 0 0 1-.142.476.945.945 0 0 1-.391.315 1.361 1.361 0 0 1-.568.113Zm3.099 0c-.261 0-.495-.046-.705-.137a1.296 1.296 0 0 1-.509-.404l.308-.268c.115.143.251.25.409.321a1.295 1.295 0 0 0 .81.071.68.68 0 0 0 .202-.107.416.416 0 0 0 .118-.16.499.499 0 0 0 .042-.203.382.382 0 0 0-.154-.315 1.035 1.035 0 0 0-.231-.113 2.77 2.77 0 0 0-.349-.113 2.956 2.956 0 0 1-.539-.178 1.145 1.145 0 0 1-.337-.244.734.734 0 0 1-.19-.518c0-.17.048-.321.142-.452a.92.92 0 0 1 .385-.303 1.5 1.5 0 0 1 .982-.054c.143.04.273.097.391.173.119.075.221.166.308.273l-.266.286a1.328 1.328 0 0 0-.261-.214 1.053 1.053 0 0 0-.284-.143.843.843 0 0 0-.29-.054.996.996 0 0 0-.278.036.594.594 0 0 0-.213.095.382.382 0 0 0-.125.149.446.446 0 0 0-.041.196.537.537 0 0 0 .041.167.381.381 0 0 0 .101.131c.055.043.134.087.237.131.102.039.227.075.373.107.189.047.349.101.479.16a.98.98 0 0 1 .314.203.596.596 0 0 1 .177.249.928.928 0 0 1 .054.328.831.831 0 0 1-.142.476.945.945 0 0 1-.391.315 1.365 1.365 0 0 1-.568.113Zm3.471 0a1.67 1.67 0 0 1-.828-.202 1.521 1.521 0 0 1-.569-.571 1.68 1.68 0 0 1-.201-.827c0-.242.038-.462.113-.661.078-.202.185-.375.319-.517.138-.147.302-.26.491-.339.19-.08.397-.119.622-.119.197 0 .381.035.55.107a1.335 1.335 0 0 1 .74.779c.067.179.097.377.089.595l-.006.226h-2.592l-.095-.369h2.314l-.083.101.006-.148a.876.876 0 0 0-.142-.453.943.943 0 0 0-.781-.422c-.229 0-.426.05-.592.149a.93.93 0 0 0-.379.41 1.52 1.52 0 0 0-.13.631c.004.246.055.46.154.642.099.179.237.32.414.423.182.099.391.148.628.148.169 0 .327-.027.473-.083.146-.059.294-.156.444-.291l.225.321a1.499 1.499 0 0 1-.337.25 1.954 1.954 0 0 1-.409.16c-.146.04-.292.06-.438.06Zm3.281 0c-.261 0-.496-.046-.705-.137a1.296 1.296 0 0 1-.509-.404l.308-.268c.115.143.251.25.408.321.158.071.338.107.539.107a.934.934 0 0 0 .272-.036.68.68 0 0 0 .202-.107.416.416 0 0 0 .118-.16.498.498 0 0 0 .041-.203.38.38 0 0 0-.154-.315 1.003 1.003 0 0 0-.23-.113 2.738 2.738 0 0 0-.35-.113 2.943 2.943 0 0 1-.538-.178 1.164 1.164 0 0 1-.338-.244.772.772 0 0 1-.142-.232.82.82 0 0 1-.047-.286.75.75 0 0 1 .142-.452.92.92 0 0 1 .385-.303 1.5 1.5 0 0 1 .982-.054c.142.04.273.097.391.173.118.075.221.166.308.273l-.267.286a1.294 1.294 0 0 0-.26-.214 1.053 1.053 0 0 0-.284-.143.843.843 0 0 0-.29-.054.996.996 0 0 0-.278.036.594.594 0 0 0-.213.095.374.374 0 0 0-.125.149.446.446 0 0 0-.041.196.537.537 0 0 0 .041.167.381.381 0 0 0 .101.131c.055.043.134.087.237.131.102.039.227.075.373.107.189.047.349.101.479.16a.98.98 0 0 1 .314.203.596.596 0 0 1 .177.249.928.928 0 0 1 .054.328.825.825 0 0 1-.143.476.936.936 0 0 1-.39.315 1.365 1.365 0 0 1-.568.113ZM99.16 183.923v-.586h.938v-4.379h-.939v-.587h2.51v.587h-.947v4.379h.947v.586h-2.51Zm6.01.08c-.395 0-.758-.072-1.089-.214a2.717 2.717 0 0 1-.861-.595 2.67 2.67 0 0 1-.56-.897 3.225 3.225 0 0 1-.197-1.15c0-.412.065-.79.197-1.134.132-.349.318-.65.56-.904.248-.26.535-.46.861-.603a2.717 2.717 0 0 1 1.089-.214c.389 0 .747.071 1.073.214.331.143.618.343.86.603.247.254.437.555.568.904.137.349.206.727.206 1.134 0 .413-.069.793-.206 1.142a2.69 2.69 0 0 1-.568.905 2.595 2.595 0 0 1-.86.595 2.66 2.66 0 0 1-1.073.214Zm0-.611c.3 0 .576-.055.828-.167.253-.111.471-.267.655-.468.184-.2.326-.436.427-.705.105-.276.157-.577.157-.905a2.43 2.43 0 0 0-.157-.888 2.132 2.132 0 0 0-.427-.714 1.883 1.883 0 0 0-.655-.476 2.031 2.031 0 0 0-.828-.166c-.3 0-.576.055-.829.166a2.03 2.03 0 0 0-.663.468 2.216 2.216 0 0 0-.434.714c-.1.275-.15.574-.15.896 0 .434.089.82.269 1.158.179.339.423.606.733.801a2.01 2.01 0 0 0 1.074.286Zm5.549.611c-.458 0-.861-.087-1.208-.262a2.421 2.421 0 0 1-.868-.785l.442-.492c.237.349.486.597.75.746.268.148.584.222.947.222.231 0 .439-.04.623-.119.19-.08.34-.188.45-.326a.778.778 0 0 0 .103-.785.654.654 0 0 0-.182-.254 1.416 1.416 0 0 0-.3-.206 2.364 2.364 0 0 0-.418-.166 5.698 5.698 0 0 0-.521-.151 3.367 3.367 0 0 1-.718-.23 2.02 2.02 0 0 1-.513-.341 1.262 1.262 0 0 1-.316-.452 1.61 1.61 0 0 1-.102-.587c0-.296.081-.558.244-.786.169-.227.392-.407.671-.539.284-.132.602-.198.955-.198.426 0 .789.079 1.089.238.305.158.55.383.734.674l-.442.436a1.816 1.816 0 0 0-.6-.571 1.509 1.509 0 0 0-.797-.206c-.236 0-.447.04-.631.119a1.02 1.02 0 0 0-.434.333.768.768 0 0 0-.158.484c0 .132.024.254.071.365a.814.814 0 0 0 .229.277c.1.08.229.151.387.214.157.064.344.119.56.167.294.069.557.151.789.246.237.095.437.206.6.333.163.127.286.27.371.428.084.159.126.339.126.54 0 .327-.082.616-.245.864a1.577 1.577 0 0 1-.67.571 2.42 2.42 0 0 1-1.018.199ZM97.842 217.139l2.13-5.552h.671l2.123 5.552h-.671l-1.349-3.569a4.086 4.086 0 0 1-.087-.246c-.042-.133-.092-.28-.15-.445a271.942 271.942 0 0 0-.292-.817h.15l-.118.349c-.048.143-.1.291-.158.445l-.15.428c-.047.132-.084.238-.11.317l-1.342 3.538h-.647Zm.9-1.531.228-.611h2.612l.261.611h-3.102Zm4.766 1.531v-4.164h.599v.888l-.118.071c.058-.185.163-.354.316-.507.152-.153.336-.278.552-.373.216-.101.439-.151.671-.151.31 0 .571.061.781.183.216.116.379.299.489.547.111.248.166.563.166.944v2.562h-.6v-2.522c0-.27-.039-.492-.118-.667a.734.734 0 0 0-.339-.38 1.118 1.118 0 0 0-.561-.112c-.179 0-.344.03-.497.088a1.25 1.25 0 0 0-.387.238c-.11.095-.197.203-.26.325a.725.725 0 0 0-.095.349v2.681h-.599Zm6.298.079c-.384 0-.726-.092-1.026-.277a2.062 2.062 0 0 1-.702-.77 2.283 2.283 0 0 1-.261-1.102c0-.418.087-.788.261-1.111.173-.327.408-.584.702-.769.3-.191.634-.286 1.002-.286.206 0 .405.034.6.103.195.069.369.164.521.286.158.116.284.248.379.397a.965.965 0 0 1 .158.46h-.166v-2.88h.6v5.87h-.6v-1.118l.126-.008a.999.999 0 0 1-.165.452 1.678 1.678 0 0 1-.363.388 1.854 1.854 0 0 1-.49.27 1.74 1.74 0 0 1-.576.095Zm.071-.531a1.3 1.3 0 0 0 .726-.206c.216-.143.384-.336.505-.579.121-.244.182-.524.182-.841 0-.318-.061-.598-.182-.841a1.458 1.458 0 0 0-.505-.579 1.273 1.273 0 0 0-.734-.214 1.35 1.35 0 0 0-.749.214 1.505 1.505 0 0 0-.513.587 1.862 1.862 0 0 0-.182.841c0 .307.061.584.182.833.126.243.297.436.513.579.221.137.473.206.757.206Zm3.11.452v-4.164h.599l.009 1.205-.071-.206a1.454 1.454 0 0 1 .741-.92c.184-.101.387-.151.608-.151.089 0 .174.008.253.024.079.01.144.026.197.048l-.158.658a1.578 1.578 0 0 0-.229-.063.744.744 0 0 0-.213-.032c-.163 0-.315.034-.458.103a1.082 1.082 0 0 0-.355.262 1.186 1.186 0 0 0-.315.809v2.427h-.608Zm4.629.079a2.14 2.14 0 0 1-1.089-.277 2.106 2.106 0 0 1-.75-.77 2.241 2.241 0 0 1-.276-1.118c0-.418.092-.788.276-1.111.185-.322.434-.576.75-.761a2.141 2.141 0 0 1 1.089-.278c.405 0 .766.093 1.081.278.321.185.571.439.75.761.184.323.276.693.276 1.111 0 .418-.092.791-.276 1.118a2.023 2.023 0 0 1-.75.77 2.096 2.096 0 0 1-1.081.277Zm0-.555c.29 0 .547-.069.773-.206.232-.143.411-.336.537-.579.132-.244.195-.518.189-.825a1.607 1.607 0 0 0-.189-.825 1.406 1.406 0 0 0-.537-.563 1.452 1.452 0 0 0-.773-.207c-.289 0-.549.069-.781.207a1.47 1.47 0 0 0-.537.571 1.61 1.61 0 0 0-.189.817c-.005.307.058.581.189.825.132.243.311.436.537.579.232.137.492.206.781.206Zm3.119.476v-4.164h.6v4.164h-.6Zm.292-5.14a.454.454 0 0 1-.323-.111.434.434 0 0 1-.111-.309c0-.127.037-.228.111-.302a.437.437 0 0 1 .323-.119c.137 0 .242.037.316.111a.403.403 0 0 1 .118.31.428.428 0 0 1-.11.301c-.074.079-.182.119-.324.119Zm3.291 5.219c-.384 0-.726-.092-1.026-.277a2.062 2.062 0 0 1-.702-.77 2.283 2.283 0 0 1-.261-1.102c0-.418.087-.788.261-1.111.173-.327.408-.584.702-.769.3-.191.634-.286 1.002-.286.206 0 .405.034.6.103.195.069.369.164.521.286.158.116.284.248.379.397a.965.965 0 0 1 .158.46h-.166v-2.88h.6v5.87h-.6v-1.118l.126-.008a.989.989 0 0 1-.166.452 1.636 1.636 0 0 1-.363.388 1.832 1.832 0 0 1-.489.27 1.74 1.74 0 0 1-.576.095Zm.071-.531a1.3 1.3 0 0 0 .726-.206c.216-.143.384-.336.505-.579.121-.244.182-.524.182-.841 0-.318-.061-.598-.182-.841a1.458 1.458 0 0 0-.505-.579 1.273 1.273 0 0 0-.734-.214c-.278 0-.529.071-.75.214a1.511 1.511 0 0 0-.512.587 1.862 1.862 0 0 0-.182.841c0 .307.061.584.182.833.126.243.297.436.512.579.221.137.474.206.758.206Z" fill="#000"/><path d="M177.811 135.34v112.535" stroke="#6B5521" stroke-width="2"/><path d="M195.321 187.889h-41.925c-1.09 0-1.973.888-1.973 1.983v24.292c0 1.095.883 1.983 1.973 1.983h41.925a1.979 1.979 0 0 0 1.973-1.983v-24.292a1.979 1.979 0 0 0-1.973-1.983Z" fill="#757575"/><path d="M125.281 183.428h17.51c1.09 0 1.973.888 1.973 1.983v9.419m0 0h6.412m-6.412 0v19.334a1.978 1.978 0 0 1-1.973 1.983h-5.179" stroke="#6B5521" stroke-width="2"/><path d="M174.605 335.623c4.903 0 8.878-3.995 8.878-8.923 0-4.929-3.975-8.924-8.878-8.924-4.904 0-8.878 3.995-8.878 8.924 0 4.928 3.974 8.923 8.878 8.923ZM199.266 335.623c4.903 0 8.878-3.995 8.878-8.923 0-4.929-3.975-8.924-8.878-8.924-4.903 0-8.878 3.995-8.878 8.924 0 4.928 3.975 8.923 8.878 8.923Z" fill="#736AE4" fill-opacity=".73"/><path d="M170.59 204.249v-4.15c0-.208.039-.386.118-.535a.856.856 0 0 1 .338-.347.996.996 0 0 1 .497-.124.97.97 0 0 1 .415.083c.12.055.216.129.29.222l-.194.396a.589.589 0 0 0-.214-.153.657.657 0 0 0-.504 0 .328.328 0 0 0-.166.166.655.655 0 0 0-.055.292v4.15h-.525Zm-.642-3.116v-.486h2.093v.486h-2.093Zm4.306 3.186c-.355 0-.673-.081-.953-.243a1.841 1.841 0 0 1-.656-.673 1.958 1.958 0 0 1-.242-.979c0-.365.08-.69.242-.972.161-.282.38-.504.656-.666.28-.162.598-.243.953-.243.354 0 .669.081.946.243.28.162.499.384.656.666.16.282.241.607.241.972s-.081.692-.241.979a1.78 1.78 0 0 1-.656.673 1.838 1.838 0 0 1-.946.243Zm0-.486c.253 0 .478-.06.676-.181.203-.124.359-.294.47-.506.115-.213.17-.454.166-.722a1.424 1.424 0 0 0-.166-.722 1.277 1.277 0 0 0-1.146-.673c-.254 0-.482.06-.684.18a1.294 1.294 0 0 0-.47.5 1.4 1.4 0 0 0-.165.715c-.005.268.05.509.165.722.115.212.272.382.47.506.202.121.43.181.684.181Zm2.611.416v-3.643h.525l.007 1.055-.062-.181a1.28 1.28 0 0 1 .649-.805 1.09 1.09 0 0 1 .532-.132c.078 0 .152.007.221.021a.687.687 0 0 1 .172.042l-.138.576a1.312 1.312 0 0 0-.2-.056.7.7 0 0 0-.186-.028.91.91 0 0 0-.401.091.938.938 0 0 0-.311.229 1.039 1.039 0 0 0-.276.708v2.123h-.532Z" fill="#000" fill-opacity=".65"/><path d="m172.038 328.235-2.366-1.194v-.467l2.366-1.194.315.432-2.354 1.188v-.386l2.354 1.188-.315.433ZM172.899 329.018l2.701-4.797h.649l-2.694 4.797h-.656ZM177.171 328.235l-.315-.433 2.354-1.188V327l-2.354-1.188.315-.432 2.366 1.194v.467l-2.366 1.194ZM196.7 328.235l-2.366-1.194v-.467l2.366-1.194.315.432-2.354 1.188v-.386l2.354 1.188-.315.433ZM197.562 329.018l2.7-4.797h.649l-2.694 4.797h-.655ZM201.832 328.235l-.314-.433 2.353-1.188V327l-2.353-1.188.314-.432 2.366 1.194v.467l-2.366 1.194Z" fill="#BEBEBE"/><path d="M46.857 199.788h-7.645c-1.09 0-1.973.887-1.973 1.983v7.505c0 .722-.39 1.387-1.02 1.736l-7.333 4.074a1.985 1.985 0 0 0-1.019 1.736v9.736M37.24 210.198v40.9" stroke="#8D3D3B" stroke-width="2"/><path d="M27.868 226.062a3.214 3.214 0 0 1 3.206 3.223 3.214 3.214 0 0 1-3.206 3.222 3.214 3.214 0 0 1-3.206-3.222 3.215 3.215 0 0 1 3.206-3.223ZM37.24 250.85a3.214 3.214 0 0 1 3.205 3.222 3.214 3.214 0 0 1-3.206 3.223 3.215 3.215 0 0 1-3.206-3.223 3.214 3.214 0 0 1 3.206-3.222ZM167.205 84.206a3.214 3.214 0 0 0 3.222 3.206 3.214 3.214 0 0 0 3.222-3.206A3.214 3.214 0 0 0 170.427 81a3.214 3.214 0 0 0-3.222 3.206ZM135 85.306a3.214 3.214 0 0 0 3.222 3.206 3.214 3.214 0 0 0 3.222-3.206 3.214 3.214 0 0 0-3.222-3.206A3.214 3.214 0 0 0 135 85.306ZM167.471 84.99H141.94" stroke="#8D3D3B" stroke-width="2"/></svg>