<svg width="74" height="74" fill="none" xmlns="http://www.w3.org/2000/svg"><path d="M37 69.375c17.88 0 32.375-14.495 32.375-32.375C69.375 19.12 54.88 4.625 37 4.625 19.12 4.625 4.625 19.12 4.625 37 4.625 54.88 19.12 69.375 37 69.375Z" fill="url(#a)"/><path d="M51.168 49.9 40.221 23.433c-.618-1.369-1.535-2.036-2.745-2.036h-.968c-1.21 0-2.128.667-2.745 2.036l-4.765 11.531h-3.605a1.975 1.975 0 0 0-1.96 1.96v.026a1.98 1.98 0 0 0 1.96 1.96h1.936L22.782 49.9a2.297 2.297 0 0 0-.134.75c0 .618.192 1.102.534 1.478.342.375.835.559 1.452.559a1.941 1.941 0 0 0 1.127-.376c.35-.242.592-.592.784-.993l5.006-12.415h3.471a1.975 1.975 0 0 0 1.961-1.961v-.05a1.98 1.98 0 0 0-1.96-1.961H33.17l3.822-9.52 10.413 25.9c.192.4.434.75.784.992a1.96 1.96 0 0 0 1.127.376c.617 0 1.101-.184 1.452-.56.35-.375.534-.859.534-1.476a1.75 1.75 0 0 0-.134-.743Z" fill="#E7E7E7"/><path d="M37 69.375c17.88 0 32.375-14.495 32.375-32.375C69.375 19.12 54.88 4.625 37 4.625 19.12 4.625 4.625 19.12 4.625 37 4.625 54.88 19.12 69.375 37 69.375Z" fill="url(#b)"/><path d="M51.168 49.9 40.221 23.433c-.618-1.369-1.535-2.036-2.745-2.036h-.968c-1.21 0-2.128.667-2.745 2.036l-4.765 11.531h-3.605a1.975 1.975 0 0 0-1.96 1.96v.026a1.98 1.98 0 0 0 1.96 1.96h1.936L22.782 49.9a2.297 2.297 0 0 0-.134.75c0 .618.192 1.102.534 1.478.342.375.835.559 1.452.559a1.941 1.941 0 0 0 1.127-.376c.35-.242.592-.592.784-.993l5.006-12.415h3.471a1.975 1.975 0 0 0 1.961-1.961v-.05a1.98 1.98 0 0 0-1.96-1.961H33.17l3.822-9.52 10.413 25.9c.192.4.434.75.784.992a1.96 1.96 0 0 0 1.127.376c.617 0 1.101-.184 1.452-.56.35-.375.534-.859.534-1.476a1.75 1.75 0 0 0-.134-.743Z" fill="#E7E7E7"/><defs><linearGradient id="a" x1="61.138" y1="16.689" x2="12.964" y2="57.223" gradientUnits="userSpaceOnUse"><stop stop-color="#B6509E"/><stop offset="1" stop-color="#2EBAC6"/></linearGradient><linearGradient id="b" x1="61.138" y1="16.689" x2="12.964" y2="57.223" gradientUnits="userSpaceOnUse"><stop stop-color="#B6509E"/><stop offset="1" stop-color="#2EBAC6"/></linearGradient></defs></svg>