<svg width="42" height="43" fill="none" xmlns="http://www.w3.org/2000/svg"><circle cx="21" cy="21.071" r="21" fill="#fff"/><path d="m23.277 20.151 1.615-2.741 4.355 6.782.002 1.302-.014-8.957a.675.675 0 0 0-.312-.538l-7.84-4.51a.69.69 0 0 0-.67.044l-.027.017-7.61 4.41-.03.014a.684.684 0 0 0-.383.493.67.67 0 0 0-.01.08l.012 7.299 4.056-6.287c.511-.834 1.624-1.103 2.657-1.088l1.212.032-7.143 11.456.842.484 7.229-11.928 3.195-.012-7.21 12.23 3.004 1.728.36.206c.151.062.33.065.483.01L29 26.069l-1.52.881-4.203-6.799Zm.616 8.878-3.035-4.763 1.853-3.143 3.986 6.282-2.804 1.624Z" fill="#2D374B"/><path d="m20.858 24.266 3.035 4.763 2.803-1.624-3.986-6.282-1.852 3.143ZM29.249 25.494l-.002-1.302-4.355-6.782-1.616 2.741 4.204 6.8 1.52-.882a.674.674 0 0 0 .25-.49l-.001-.085Z" fill="#28A0F0"/><path d="m11 26.722 2.147 1.237 7.143-11.456-1.212-.032c-1.033-.015-2.146.254-2.657 1.088l-4.056 6.287L11 25.942v.78ZM24.413 16.503l-3.195.012-7.23 11.928 2.527 1.455.688-1.165 7.21-12.23Z" fill="#fff"/><path d="M30.596 16.486a2.035 2.035 0 0 0-.956-1.635l-7.943-4.568a2.066 2.066 0 0 0-1.822 0c-.067.033-7.725 4.474-7.725 4.474A2.02 2.02 0 0 0 11 16.482v9.46l1.365-2.096-.012-7.3a.672.672 0 0 1 .28-.507c.037-.026 7.826-4.534 7.85-4.547a.69.69 0 0 1 .6-.003l7.84 4.51a.675.675 0 0 1 .312.538v9.042a.659.659 0 0 1-.235.49l-1.52.881-.784.455-2.803 1.624-2.843 1.648a.689.689 0 0 1-.484-.01l-3.364-1.934-.687 1.165 3.023 1.74a65.677 65.677 0 0 0 .48.268c.215.104.523.165.802.165.255 0 .505-.047.74-.14l8.258-4.781c.474-.368.752-.921.777-1.521v-9.143Z" fill="#96BEDC"/></svg>