<svg width="30" height="28" fill="none" xmlns="http://www.w3.org/2000/svg"><rect x="30" width="28" height="30" rx="4" transform="rotate(90 30 0)" fill="#171717"/><path d="M14.698 16.878v-.11l.08-.074 6.242-5.748a.76.76 0 0 1 1.014 0l.001.001a.67.67 0 0 1 .215.489.67.67 0 0 1-.215.488l-.001.002-7.05 6.501-.004.004a.773.773 0 0 1-.778.132l-.01-.003a.729.729 0 0 1-.173-.107l-.01-.008-7.058-6.493-.005-.005a.678.678 0 0 1-.208-.485c0-.184.077-.357.208-.485l.004-.005a.732.732 0 0 1 .507-.196.76.76 0 0 1 .508.197l6.203 5.713.08.074v.515a.762.762 0 0 1 .45 0v-.397Z" fill="#F0B270" stroke="#F0B270" stroke-width=".5"/></svg>