<svg width="16" height="10" fill="none" xmlns="http://www.w3.org/2000/svg"><path fill-rule="evenodd" clip-rule="evenodd" d="M12 0c2.21 0 4 1.599 4 3.571 0 1.973-1.79 3.572-4 3.572H5.6c-1.325 0-2.4-.96-2.4-2.143 0-1.183 1.075-2.143 2.4-2.143H12c.442 0 .8.32.8.714 0 .395-.358.715-.8.715H5.6l-.093.005c-.398.04-.707.343-.707.709 0 .366.309.668.707.71l.093.004H12c1.325 0 2.4-.96 2.4-2.143 0-1.183-1.075-2.142-2.4-2.142H5.6c-2.21 0-4 1.599-4 3.571 0 1.92 1.698 3.487 3.826 3.568l.174.003H12c.442 0 .8.32.8.715 0 .394-.358.714-.8.714H5.6C2.507 10 0 7.761 0 5s2.507-5 5.6-5H12Z" fill="#667085"/></svg>