<svg width="104" height="22" fill="none" xmlns="http://www.w3.org/2000/svg"><path d="M28.128 7.788h1.129l3.162 7.347h-1.496l-.684-1.682h-3.186l-.66 1.682h-1.466l3.193-7.347h.008Zm1.658 4.544-1.128-2.986-1.152 2.986h2.28ZM33.824 7.788h1.505l2.004 5.55 2.065-5.55h1.412l-2.97 7.347h-1.13l-2.886-7.347ZM45.478 7.788h1.129l3.163 7.347h-1.497l-.684-1.682h-3.185l-.66 1.682h-1.46l3.194-7.347Zm1.658 4.544-1.128-2.986-1.152 2.986h2.28ZM52.664 7.788h1.305v6.164h3.125v1.183h-4.43V7.788ZM62.49 7.788h1.129l3.163 7.347h-1.497l-.683-1.682h-3.186l-.66 1.682h-1.46l3.194-7.347Zm1.659 4.544L63.02 9.346l-1.151 2.986h2.28ZM69.676 7.788h1.735l3.555 5.458h.023V7.788h1.305v7.347h-1.658L71.004 9.5h-.023v5.635h-1.305V7.788ZM85.046 9.508c-.27-.292-.53-.484-.791-.584a1.997 1.997 0 0 0-.76-.146c-.384 0-.73.07-1.037.208a2.22 2.22 0 0 0-.79.56 2.715 2.715 0 0 0-.522.829c-.115.315-.177.66-.177 1.029 0 .391.062.76.177 1.09.122.33.299.622.522.86.222.245.483.43.79.568.315.138.66.207 1.037.207.3 0 .583-.069.86-.207.284-.146.545-.376.79-.683l1.075.767c-.33.453-.737.791-1.213.998a3.779 3.779 0 0 1-1.528.315 4.47 4.47 0 0 1-1.566-.269 3.722 3.722 0 0 1-1.22-.775 3.666 3.666 0 0 1-.799-1.213 4.093 4.093 0 0 1-.291-1.566c0-.591.1-1.121.291-1.597.192-.484.46-.898.799-1.236a3.489 3.489 0 0 1 1.22-.775 4.303 4.303 0 0 1 1.566-.277c.5 0 .96.092 1.382.269.43.177.83.468 1.19.89l-1.013.745.008-.007ZM89.184 7.788h1.305v2.925h3.431V7.788h1.313v7.347H93.92v-3.24H90.49v3.24h-1.305V7.788ZM98.948 7.788h4.86V8.97h-3.555v1.804h3.371v1.182h-3.371v1.996H104v1.183h-5.052V7.788Z" fill="#fff"/><path fill-rule="evenodd" clip-rule="evenodd" d="M21.066 11.466c0 5.82-4.714 10.533-10.533 10.533C4.713 21.999 0 17.285 0 11.466 0 5.647 4.714.933 10.533.933c5.819 0 10.533 4.714 10.533 10.533Zm-13.52 4.192H5.504c-.43 0-.644 0-.767-.085a.539.539 0 0 1-.238-.407c-.008-.153.1-.337.307-.713l5.051-8.898c.215-.376.323-.568.46-.637a.505.505 0 0 1 .47 0c.137.069.245.26.46.637l1.036 1.812.008.007c.23.407.353.615.399.83.054.237.054.483 0 .721-.054.215-.169.422-.407.837l-2.648 4.69-.008.016c-.23.407-.353.614-.514.775a1.624 1.624 0 0 1-.63.369c-.215.061-.453.061-.937.061v-.015Zm5.16 0h2.932c.43 0 .653 0 .775-.085a.53.53 0 0 0 .238-.407c.008-.145-.1-.33-.299-.675l-.023-.038-1.466-2.51-.016-.032c-.207-.345-.307-.522-.445-.59a.505.505 0 0 0-.468 0c-.138.068-.246.253-.46.621l-1.46 2.51-.007.008c-.215.369-.323.553-.315.706a.499.499 0 0 0 .238.407c.13.085.345.085.775.085Z" fill="#E84142"/></svg>