<svg width="28" height="36" viewBox="0 0 28 36" fill="none" xmlns="http://www.w3.org/2000/svg">
<path d="M9.64286 20.0571L11.1857 15.1286L7.11429 11.9571H12.0857L13.7143 6.85714L15.3 11.9571H20.3143L16.2429 15.1286L17.7429 20.0571L13.7143 17.0143L9.64286 20.0571ZM3.6 36V22.9714C2.31429 21.6286 1.39286 20.1571 0.835715 18.5571C0.278572 16.9571 0 15.3429 0 13.7143C0 9.82857 1.31429 6.57143 3.94286 3.94286C6.57143 1.31429 9.82857 0 13.7143 0C17.6 0 20.8571 1.31429 23.4857 3.94286C26.1143 6.57143 27.4286 9.82857 27.4286 13.7143C27.4286 15.3429 27.15 16.9571 26.5929 18.5571C26.0357 20.1571 25.1143 21.6286 23.8286 22.9714V36L13.7143 32.6143L3.6 36ZM13.7143 24.8571C16.8286 24.8571 19.4643 23.7786 21.6214 21.6214C23.7786 19.4643 24.8571 16.8286 24.8571 13.7143C24.8571 10.6 23.7786 7.96429 21.6214 5.80714C19.4643 3.65 16.8286 2.57143 13.7143 2.57143C10.6 2.57143 7.96429 3.65 5.80714 5.80714C3.65 7.96429 2.57143 10.6 2.57143 13.7143C2.57143 16.8286 3.65 19.4643 5.80714 21.6214C7.96429 23.7786 10.6 24.8571 13.7143 24.8571ZM6.17143 32.4L13.7143 30.0429L21.2571 32.4V25.0714C20.1143 25.9 18.8857 26.5 17.5714 26.8714C16.2571 27.2429 14.9714 27.4286 13.7143 27.4286C12.4571 27.4286 11.1714 27.2429 9.85714 26.8714C8.54286 26.5 7.31429 25.9 6.17143 25.0714V32.4Z" fill="#EBEBEB"/>
</svg>
