<svg width="74" height="74" fill="none" xmlns="http://www.w3.org/2000/svg"><g clip-path="url(#a)"><path fill-rule="evenodd" clip-rule="evenodd" d="M37 0c20.431 0 37 16.569 37 37S57.431 74 37 74 0 57.431 0 37 16.569 0 37 0Z" fill="#2E2E2E"/><path d="M37.555 52.466c-11.833 0-21.423-3.419-21.423-8 0-2.39 2.612-4.543 6.793-6.06 3.264 2.094 8.74 3.167 14.948 3.167 6.06 0 11.418-1.31 14.711-3.315 3.945 1.502 6.394 3.596 6.394 5.905 0 4.588-9.59 8.303-21.423 8.303Z" fill="#fff"/><path d="M37.68 40.545c-8.968 0-16.242-2.812-16.242-6.283 0-1.924 2.242-3.648 5.757-4.795 2.509 1.31 6.268 2.146 10.486 2.146 4.218 0 7.977-.836 10.486-2.146 3.522 1.154 5.757 2.871 5.757 4.795.007 3.47-7.267 6.283-16.243 6.283Z" fill="#fff"/><path d="M37.622 30.57c-6.934 0-12.558-2.324-12.558-5.18 0-2.857 5.624-5.18 12.558-5.18 6.933 0 12.557 2.323 12.557 5.18 0 2.856-5.624 5.18-12.557 5.18Z" fill="#fff"/></g><defs><clipPath id="a"><path fill="#fff" d="M0 0h74v74H0z"/></clipPath></defs></svg>