<svg width="30" height="30" fill="none" xmlns="http://www.w3.org/2000/svg"><path d="M5.625 17.5a.625.625 0 1 0 0 1.25h3.75a.625.625 0 1 0 0-1.25h-3.75Z" fill="#736AE4"/><path d="M26.875 3.75H3.125A1.875 1.875 0 0 0 1.25 5.625v13.75a1.875 1.875 0 0 0 1.875 1.875h6.25a.625.625 0 1 0 0-1.25h-6.25a.625.625 0 0 1-.625-.625V8.75h25v10.625a.624.624 0 0 1-.625.625h-1.25a.624.624 0 1 0 0 1.25h1.25a1.875 1.875 0 0 0 1.875-1.875V5.625a1.875 1.875 0 0 0-1.875-1.875ZM2.5 7.5V5.625A.625.625 0 0 1 3.125 5h23.75a.625.625 0 0 1 .625.625V7.5h-25Z" fill="#736AE4"/><path d="M20.188 21.8a5 5 0 1 0-.888.887l3.387 3.375a.6.6 0 0 0 .875 0 .6.6 0 0 0 0-.875L20.188 21.8ZM12.5 18.75a3.75 3.75 0 1 1 7.501 0 3.75 3.75 0 0 1-7.501 0Z" fill="#736AE4"/></svg>