<svg width="30" height="30" fill="none" xmlns="http://www.w3.org/2000/svg"><path d="M27.5 3.963h-25a1.25 1.25 0 0 0-1.25 1.25V20a1.25 1.25 0 0 0 1.25 1.25h10a.625.625 0 1 0 0-1.25h-10V5.213h25V20H15.625a1.25 1.25 0 0 0-1.25 1.25v3.512h-3.75a.625.625 0 0 0 0 1.25h8.75a.625.625 0 1 0 0-1.25h-3.75V21.25H27.5A1.25 1.25 0 0 0 28.75 20V5.213a1.25 1.25 0 0 0-1.25-1.25Z" fill="#736AE4"/><path d="M12.262 8.888a.625.625 0 0 0-.875.1l-2.5 3.125a.6.6 0 0 0 0 .774l2.5 3.125a.6.6 0 0 0 .488.238.625.625 0 0 0 .488-1.012L10.175 12.5l2.188-2.737a.625.625 0 0 0-.1-.875ZM17.738 16.113c.11.087.246.135.387.137a.6.6 0 0 0 .488-.238l2.5-3.125a.6.6 0 0 0 0-.774l-2.5-3.126a.625.625 0 0 0-.976.775l2.188 2.738-2.188 2.738a.625.625 0 0 0 .1.875ZM17.5 8.375a.673.673 0 1 0-1.25-.5l-3.75 8.75a.625.625 0 0 0 .325.825.602.602 0 0 0 .25 0 .626.626 0 0 0 .575-.375l3.85-8.7Z" fill="#736AE4"/></svg>