<svg width="54" height="54" fill="none" xmlns="http://www.w3.org/2000/svg"><path d="M27 54c14.912 0 27-12.088 27-27S41.912 0 27 0 0 12.088 0 27s12.088 27 27 27Z" fill="#F3BA2F"/><path d="M37.245 20.504c-.172.207-.308.398-.472.563-.901.909-1.837 1.788-2.706 2.729-.448.485-.715.411-1.14-.025-1.762-1.805-3.578-3.558-5.331-5.372-.506-.522-.799-.538-1.314-.004-1.723 1.787-3.517 3.504-5.243 5.288-.494.511-.792.616-1.314.03-.823-.927-1.72-1.792-2.627-2.637-.469-.436-.43-.716.01-1.151 3.1-3.071 6.18-6.164 9.26-9.255.34-.342.59-.564 1.057-.09 3.122 3.161 6.274 6.294 9.414 9.439.139.138.254.3.406.485ZM37.246 33.524c-.195.23-.358.451-.55.645-3.054 3.061-6.122 6.109-9.157 9.19-.5.508-.782.418-1.234-.04-3.04-3.074-6.1-6.13-9.168-9.176-.403-.4-.58-.68-.07-1.152a53.408 53.408 0 0 0 2.805-2.797c.437-.47.685-.309 1.05.062 1.713 1.74 3.491 3.42 5.155 5.205.711.764 1.095.659 1.752-.038 1.65-1.746 3.4-3.394 5.068-5.123.484-.501.77-.49 1.228.009.84.912 1.748 1.762 2.622 2.643.166.168.312.356.5.572Z" fill="#FEFDFB"/><path d="M30.666 26.911c.012.34-.212.473-.372.636-.926.938-1.882 1.847-2.785 2.808-.433.46-.727.44-1.15-.01a72.494 72.494 0 0 0-2.796-2.796c-.42-.4-.401-.672.008-1.063a92.701 92.701 0 0 0 2.883-2.879c.365-.38.617-.361.973.008.942.977 1.916 1.925 2.875 2.887.14.14.263.295.364.41ZM13.876 30.773c-.197-.163-.387-.298-.55-.459-.936-.927-1.847-1.88-2.803-2.782-.44-.415-.352-.684.035-1.055a79.845 79.845 0 0 0 2.709-2.708c.405-.426.69-.53 1.145-.039.894.965 1.842 1.881 2.787 2.797.335.325.468.555.051.947-.987.93-1.925 1.911-2.886 2.868-.138.138-.293.259-.488.431ZM43.757 27.018c-.136.17-.247.334-.384.473-.955.963-1.928 1.91-2.869 2.886-.357.37-.607.38-.97.001a93.604 93.604 0 0 0-2.878-2.876c-.367-.35-.398-.58-.012-.946a91.302 91.302 0 0 0 2.88-2.875c.348-.362.596-.414.968-.024.938.98 1.913 1.923 2.87 2.886.139.137.252.3.395.475Z" fill="#FEFDFB"/></svg>