<svg width="129" height="53" fill="none" xmlns="http://www.w3.org/2000/svg"><path d="M41.18 15.613h4.861c1.235 0 2.138.332 2.723.903a2.35 2.35 0 0 1 .823 1.806c0 .252 0 .57-.08.823-.16.412-.411.824-.743 1.156-.16.159-.333.252-.492.332.571.159 1.076.49 1.488.903.332.411.49.903.49 1.646 0 .412-.079.903-.252 1.235-.159.332-.49.664-.823.903-.411.253-.823.412-1.235.571-.491.16-1.076.16-1.647.16H41.26V15.586h-.08v.027Zm4.45 4.276c.411 0 .823-.08 1.234-.252.332-.16.492-.492.492-.824 0-.332-.16-.664-.412-.823a1.43 1.43 0 0 0-1.155-.252h-2.31v2.217h2.137v-.066h.013Zm.57 4.21c.412 0 .824-.08 1.235-.253.332-.16.492-.491.412-.903 0-.332-.16-.664-.412-.823-.252-.16-.743-.332-1.314-.332h-2.723v2.31H46.2ZM53.12 15.613h2.31v10.544h-2.31V15.613ZM58.976 15.613h2.138l4.94 6.507v-6.507h2.297v10.544h-1.965l-5.193-6.68v6.68h-2.217V15.613ZM75.362 15.533h2.139l4.528 10.624h-2.39l-.983-2.39h-4.449l-.983 2.39h-2.39l4.528-10.624Zm2.47 6.255-1.394-3.453-1.394 3.453h2.788ZM84.499 15.613h2.138l4.94 6.507v-6.507h2.31v10.544H91.91l-5.113-6.68v6.68H84.5V15.613ZM102.281 26.316c-.744 0-1.487-.159-2.138-.411a5.461 5.461 0 0 1-2.882-2.882 6.061 6.061 0 0 1-.411-2.138c0-1.395.57-2.802 1.567-3.865.491-.49 1.075-.903 1.726-1.155.744-.332 1.487-.412 2.218-.412.411 0 .903 0 1.314.08.412.08.744.16 1.076.332.332.16.664.332.903.491.252.16.571.412.824.664l-1.395 1.727c-.412-.332-.823-.664-1.235-.903-.412-.24-.903-.332-1.394-.332-.412 0-.824.08-1.235.252-.412.16-.744.412-.983.744-.24.332-.491.664-.664 1.076-.16.411-.252.823-.252 1.235 0 .411.08.902.252 1.314.173.412.332.744.664 1.076.571.664 1.394.983 2.218.983.491 0 1.075-.08 1.567-.332.411-.253.903-.572 1.235-.904l1.474 1.475-.824.823c-.332.252-.664.412-.982.571-.332.16-.744.332-1.156.412-.584.08-1.075.08-1.487.08ZM109.373 15.613h7.902v2.058h-5.684v2.138h5.02v2.059h-5.02v2.23h5.763v2.059h-7.981V15.613ZM44.142 36.529c-.571 0-1.156-.08-1.647-.333-.491-.159-.983-.49-1.487-.902l.823-.903c.332.331.664.49 1.076.743.412.16.823.252 1.235.252.332 0 .664-.08.983-.252.252-.16.332-.412.332-.664 0-.08 0-.252-.08-.332-.08-.08-.16-.252-.252-.332-.16-.08-.332-.16-.492-.252-.252-.08-.57-.16-.823-.253-.332-.08-.744-.159-1.076-.332a2.243 2.243 0 0 1-.744-.411c-.159-.16-.332-.332-.49-.571-.16-.332-.16-.664-.16-.903 0-.332.08-.571.16-.903.079-.253.331-.492.49-.664.253-.16.492-.332.824-.412.332-.08.664-.16.983-.16.49 0 .982.08 1.487.253.412.16.823.412 1.235.664l-.664.983c-.332-.253-.664-.412-.983-.571-.332-.16-.664-.16-.983-.16-.332 0-.664.08-.903.253-.159.159-.331.411-.331.664 0 .159 0 .252.08.411.079.08.159.253.252.332.159.08.331.16.57.253.253.08.492.159.904.252.332.08.664.16 1.075.332.253.08.492.252.744.412.16.159.332.411.412.57.08.253.159.492.159.824 0 .332-.08.664-.16.903-.159.252-.331.491-.57.744-.253.16-.492.332-.824.411-.411-.026-.823.053-1.155.053ZM48.259 29.039h1.407l2.218 3.453 2.31-3.453h1.395v7.41h-1.314v-5.352l-2.311 3.453h-.08l-2.297-3.453v5.352h-1.328v-7.41ZM60.038 28.959h1.235l3.214 7.41h-1.394l-.744-1.806h-3.453l-.743 1.806h-1.315l3.2-7.41Zm1.9 4.528-1.315-2.96-1.235 2.96h2.55ZM65.801 29.039h3.294c.411 0 .823.08 1.235.16.332.079.664.331.903.57.16.16.332.412.491.744.08.252.16.57.16.903 0 .252-.08.57-.16.823s-.252.412-.332.664c-.16.16-.332.332-.57.492-.253.159-.492.252-.745.331l1.98 2.803h-1.568l-1.806-2.55h-1.647v2.55h-1.314l.08-7.49Zm3.214 3.625c.412 0 .823-.08 1.076-.332.252-.252.411-.57.411-.903 0-.332-.159-.664-.411-.903-.332-.252-.744-.332-1.156-.332h-1.899v2.47h1.98ZM75.27 30.194h-2.39V29.04h6.016v1.155h-2.39v6.255H75.19l.08-6.255ZM86.89 36.529c-.492 0-.983-.08-1.487-.332-.904-.412-1.647-1.076-1.98-1.98-.159-.49-.331-.982-.252-1.486 0-.492.08-.983.253-1.488.332-.903 1.075-1.646 1.978-2.058.492-.16.983-.332 1.567-.332.333 0 .665 0 .904.08.252.08.49.159.743.252.252.08.412.252.664.332.16.16.412.332.571.491l-.823.983a3.779 3.779 0 0 0-.903-.664 2.729 2.729 0 0 0-1.156-.253c-.331 0-.663.08-.982.16a3.04 3.04 0 0 0-.824.57c-.252.253-.411.492-.49.824-.08.332-.16.664-.16.983 0 .332.08.664.16.983.079.318.251.57.49.823.253.252.492.412.824.571.332.16.664.252.983.16.411 0 .823-.08 1.155-.253a3.49 3.49 0 0 0 .983-.744l.823.824-.571.57c-.252.16-.412.333-.664.413-.252.08-.492.252-.823.252-.333.319-.665.319-.983.319ZM91.245 29.039h1.235v3.04h3.546v-3.04h1.315v7.41h-1.315v-3.134H92.48v3.134h-1.235v-7.41ZM101.869 28.959h1.235l3.214 7.41h-1.394l-.744-1.806h-3.453l-.743 1.806h-1.315l3.2-7.41Zm1.82 4.528-1.235-2.96-1.235 2.96h2.47ZM107.633 29.039h1.328v7.41h-1.328v-7.41ZM110.927 29.039h1.155l3.958 5.1v-5.1h1.314v7.41h-1.075l-4.024-5.272v5.272h-1.328v-7.41ZM26.692 35.958v3.213l-2.802 1.647-2.722-1.647v-3.213l2.722 1.646 2.802-1.646ZM11.7 24.842l2.723 1.647V32l4.687 2.802v3.214l-7.41-4.37v-8.804Zm24.382 0v8.818l-7.49 4.37v-3.215l4.688-2.802v-5.51l2.802-1.66Zm-7.503-4.369 2.802 1.647v3.214l-4.688 2.802v5.59l-2.722 1.647-2.71-1.646v-5.605L16.4 25.32v-3.213l2.802-1.647 4.688 2.802 4.688-2.789ZM16.4 27.631l2.723 1.647v3.214L16.4 30.845V27.63Zm14.98 0v3.214l-2.722 1.647v-3.214l2.722-1.647Zm-16.958-9.96 2.802 1.647-2.802 1.647v3.213l-2.723-1.646v-3.214l2.723-1.647Zm18.937 0 2.802 1.647v3.214l-2.802 1.646v-3.213l-2.723-1.647 2.723-1.647Zm-9.469 0 2.802 1.647-2.802 1.647-2.722-1.647 2.722-1.647Zm0-5.511 7.49 4.37-2.722 1.646-4.688-2.802-4.78 2.802-2.723-1.647 7.423-4.369Z" fill="#F3BA2F"/></svg>