<svg width="106" height="23" fill="none" xmlns="http://www.w3.org/2000/svg"><path d="M21.8 13.744c-1.479 5.928-7.483 9.537-13.412 8.058C2.46 20.324-1.147 14.319.33 8.391 1.81 2.46 7.814-1.147 13.741.33 19.67 1.81 23.278 7.815 21.8 13.744Z" fill="#F7931A"/><path d="M15.946 9.489c.22-1.473-.9-2.264-2.434-2.793l.498-1.994-1.215-.303-.484 1.942c-.319-.08-.647-.154-.973-.229l.488-1.955-1.213-.302-.498 1.994c-.264-.06-.524-.12-.775-.182V5.66l-1.674-.418-.323 1.297s.901.207.882.22c.492.122.58.448.566.706l-.566 2.272c.033.009.077.021.126.04l-.128-.031-.795 3.183c-.06.15-.212.373-.556.288.012.018-.882-.22-.882-.22l-.603 1.39 1.58.394c.294.074.582.15.865.223l-.502 2.018 1.213.303.497-1.997c.332.09.653.173.968.251l-.496 1.987 1.214.303.503-2.014c2.07.392 3.627.234 4.283-1.639.528-1.508-.027-2.377-1.116-2.945.793-.183 1.39-.704 1.55-1.782Zm-2.774 3.89c-.375 1.508-2.914.693-3.737.488l.667-2.673c.823.206 3.462.612 3.07 2.185Zm.376-3.912c-.343 1.371-2.456.675-3.141.504l.604-2.425c.686.171 2.893.49 2.537 1.92Z" fill="#fff"/><path d="M32.431 6.695c.898 0 1.673.16 2.324.476a4.68 4.68 0 0 1 1.629 1.289c.427.543.745 1.177.95 1.905.205.729.307 1.513.307 2.352 0 1.29-.236 2.508-.713 3.656a9.482 9.482 0 0 1-1.947 2.998 9.157 9.157 0 0 1-2.913 2.014c-1.118.495-2.334.743-3.64.743-.168 0-.465-.005-.884-.013-.419-.01-.9-.052-1.44-.125a16.913 16.913 0 0 1-1.723-.338 8.635 8.635 0 0 1-1.724-.616L27.503.675l4.34-.673-1.735 7.226a6.75 6.75 0 0 1 1.12-.392 4.972 4.972 0 0 1 1.203-.141Zm-3.64 11.99c.653 0 1.27-.16 1.848-.477a4.865 4.865 0 0 0 1.5-1.274c.42-.534.752-1.135.994-1.807a6.159 6.159 0 0 0 .364-2.103c0-.896-.15-1.594-.448-2.1-.298-.503-.85-.756-1.653-.756-.262 0-.601.05-1.02.14a2.55 2.55 0 0 0-1.137.59l-1.847 7.672c.111.02.21.039.294.056.082.02.173.033.264.042.095.011.205.017.337.017h.504ZM42.142 21.738h-4.145l3.5-14.731h4.175l-3.53 14.731ZM44.16 5.212a2.572 2.572 0 0 1-1.569-.517c-.47-.344-.702-.872-.702-1.583 0-.392.08-.76.238-1.106a2.959 2.959 0 0 1 1.54-1.5 2.778 2.778 0 0 1 1.109-.222c.578 0 1.1.172 1.567.517.465.347.7.875.7 1.583 0 .393-.08.762-.239 1.107a2.914 2.914 0 0 1-.63.897c-.259.252-.565.451-.909.601a2.73 2.73 0 0 1-1.105.223ZM49.305 3.337l4.342-.673-1.066 4.342h4.65l-.84 3.416H51.77l-1.23 5.153a5.83 5.83 0 0 0-.197 1.204c-.02.374.027.696.14.967.11.271.311.48.602.628.289.15.703.227 1.246.227.447 0 .883-.043 1.304-.127a9.236 9.236 0 0 0 1.272-.35l.31 3.194c-.56.205-1.167.382-1.82.53-.656.152-1.43.224-2.326.224-1.288 0-2.287-.191-2.998-.572-.71-.383-1.212-.907-1.513-1.57-.296-.661-.429-1.423-.392-2.282.039-.86.168-1.764.392-2.717l2.746-11.594ZM57.048 15.856c0-1.27.205-2.466.616-3.586a8.82 8.82 0 0 1 1.766-2.943 8.27 8.27 0 0 1 2.788-1.987c1.089-.485 2.309-.729 3.653-.729.841 0 1.593.08 2.254.24.664.16 1.265.368 1.808.629l-1.43 3.25a13.367 13.367 0 0 0-1.162-.406c-.4-.123-.89-.183-1.47-.183-1.383 0-2.477.477-3.291 1.428-.811.951-1.22 2.232-1.22 3.838 0 .953.206 1.722.618 2.311.41.59 1.168.882 2.268.882.543 0 1.067-.057 1.569-.167a7.72 7.72 0 0 0 1.345-.42l.31 3.332c-.525.204-1.103.387-1.737.548-.636.155-1.393.236-2.27.236-1.158 0-2.139-.17-2.94-.503-.803-.34-1.466-.79-1.988-1.359a5.12 5.12 0 0 1-1.135-2.004 8.22 8.22 0 0 1-.352-2.407ZM75.463 22.129c-.99 0-1.849-.15-2.578-.45-.727-.298-1.329-.716-1.805-1.26a5.445 5.445 0 0 1-1.078-1.918c-.245-.737-.362-1.553-.362-2.448 0-1.122.18-2.244.544-3.363a9.52 9.52 0 0 1 1.612-3.024 8.607 8.607 0 0 1 2.603-2.201c1.025-.568 2.203-.854 3.527-.854.971 0 1.826.151 2.565.45.736.298 1.342.72 1.82 1.26.475.543.835 1.18 1.077 1.919.244.736.364 1.554.364 2.45 0 1.119-.178 2.24-.53 3.363a9.71 9.71 0 0 1-1.57 3.024 8.223 8.223 0 0 1-2.59 2.197c-1.035.57-2.236.855-3.599.855Zm2.072-11.987a2.62 2.62 0 0 0-1.623.53c-.467.357-.86.805-1.175 1.346a6.643 6.643 0 0 0-.717 1.778 7.664 7.664 0 0 0-.236 1.835c0 .934.15 1.662.447 2.186.3.521.84.783 1.625.783.617 0 1.157-.177 1.625-.533a4.598 4.598 0 0 0 1.175-1.344c.318-.54.557-1.134.717-1.778a7.773 7.773 0 0 0 .236-1.835c0-.932-.15-1.662-.449-2.185-.299-.521-.841-.783-1.625-.783ZM88.268 21.738H84.12L87.62 7.007h4.176l-3.528 14.731Zm2.014-16.526a2.567 2.567 0 0 1-1.567-.517c-.467-.344-.702-.872-.702-1.583 0-.392.081-.76.24-1.106.157-.345.368-.643.63-.896.26-.251.566-.452.91-.603a2.758 2.758 0 0 1 1.105-.223c.58 0 1.103.172 1.57.517.466.347.701.875.701 1.583 0 .393-.084.762-.24 1.107a2.906 2.906 0 0 1-.629.897 3.076 3.076 0 0 1-.91.601 2.74 2.74 0 0 1-1.108.223ZM94.784 7.677c.315-.092.666-.203 1.049-.323a15.451 15.451 0 0 1 2.886-.587 17.94 17.94 0 0 1 2.001-.1c2.186 0 3.693.637 4.525 1.906.831 1.27.975 3.007.436 5.21l-1.907 7.954h-4.173l1.848-7.787c.113-.486.202-.956.267-1.415.066-.456.062-.857-.015-1.204a1.44 1.44 0 0 0-.517-.841c-.273-.215-.686-.322-1.247-.322-.54 0-1.09.058-1.652.17l-2.717 11.398h-4.174l3.39-14.06Z" fill="#4D4D4D"/></svg>