<svg width="34" height="35" fill="none" xmlns="http://www.w3.org/2000/svg"><path d="M14.167 3.304a2.833 2.833 0 0 0-2.834 2.834v5.666a2.833 2.833 0 0 0 2.834 2.833h5.666a2.833 2.833 0 0 0 2.834-2.833V6.138a2.833 2.833 0 0 0-2.834-2.834h-5.666ZM4.25 20.304a2.833 2.833 0 0 1 2.833-2.833h5.667a2.833 2.833 0 0 1 2.833 2.833v5.667a2.833 2.833 0 0 1-2.833 2.833H7.083a2.833 2.833 0 0 1-2.833-2.833v-5.667ZM18.417 20.304a2.833 2.833 0 0 1 2.833-2.833h5.667a2.833 2.833 0 0 1 2.833 2.833v5.667a2.833 2.833 0 0 1-2.833 2.833H21.25a2.833 2.833 0 0 1-2.833-2.833v-5.667Z" fill="#736AE4" fill-opacity=".25"/><path d="M15.583 3.304h2.834v2.834a1.417 1.417 0 0 1-2.834 0V3.304ZM8.5 17.47h2.833v2.834a1.417 1.417 0 1 1-2.833 0v-2.833ZM25.5 17.47h-2.833v2.834a1.417 1.417 0 1 0 2.833 0v-2.833Z" fill="#736AE4"/></svg>