<svg width="30" height="30" viewBox="0 0 30 30" fill="none" xmlns="http://www.w3.org/2000/svg">
<rect width="30" height="30" rx="6" fill="#F7F7F7"/>
<path d="M5 9C5 8.44772 5.44772 8 6 8H24C24.5523 8 25 8.44772 25 9C25 9.55229 24.5523 10 24 10L6 10C5.44772 10 5 9.55228 5 9Z" fill="#020210"/>
<path d="M5 15C5 14.4477 5.44772 14 6 14L24 14C24.5523 14 25 14.4477 25 15C25 15.5523 24.5523 16 24 16L6 16C5.44772 16 5 15.5523 5 15Z" fill="#020210"/>
<path d="M6 20C5.44772 20 5 20.4477 5 21C5 21.5523 5.44772 22 6 22L24 22C24.5523 22 25 21.5523 25 21C25 20.4477 24.5523 20 24 20L6 20Z" fill="#020210"/>
</svg>
