<svg width="47" height="35" fill="none" xmlns="http://www.w3.org/2000/svg"><path fill-rule="evenodd" clip-rule="evenodd" d="M45.316 17.308a.102.102 0 0 1 .018.057c0 .02-.007.04-.018.057l-3.814 5.706a.123.123 0 0 1-.048.042.15.15 0 0 1-.066.015l-2.422-.002-1.482 2.217 2.007.001c.218 0 .355.205.246.369l-4.672 6.99a.266.266 0 0 1-.104.09.32.32 0 0 1-.285 0 .267.267 0 0 1-.104-.09l-4.25-6.355a.22.22 0 0 1 0-.245l3.604-5.391-.45-.673a.018.018 0 0 0-.007-.006.022.022 0 0 0-.019 0 .017.017 0 0 0-.007.006l-3.423 5.121a.266.266 0 0 1-.104.09.321.321 0 0 1-.285 0 .268.268 0 0 1-.104-.09l-5.218-7.8a.102.102 0 0 1 0-.115l5.19-7.764a.266.266 0 0 1 .103-.09.32.32 0 0 1 .285 0c.043.022.079.053.104.09l8.974 13.416 2.193.002-.477-.712-1.05-.001a.32.32 0 0 1-.143-.033.267.267 0 0 1-.104-.09L30.315 8.563a.22.22 0 0 1-.038-.123.22.22 0 0 1 .038-.123l4.245-6.351a.267.267 0 0 1 .104-.09.32.32 0 0 1 .285 0c.044.021.08.052.104.09l10.263 15.342ZM40.91 22.13l3.102-4.647.002-.003h.956l-3.583 5.362-.477-.712Zm4.06-4.88h-.95a.207.207 0 0 0-.008-.012l-9.68-14.473.457-.685a.018.018 0 0 1 .007-.006.022.022 0 0 1 .02 0 .018.018 0 0 1 .006.006L44.97 17.25h.001ZM34.18 2.996l-3.635 5.437a.015.015 0 0 0-.003.008l.003.009 5.278 7.89 7.284.002L34.18 2.995Zm9.08 13.575-7.284-.002.455.68 7.285.003-.455-.681h-.001Zm.45.91-7.125-.002.455.68 6.215.002.454-.68Zm-.608.91-2.421 3.625h-1.05c-.004 0-.007-.002-.01-.003a.017.017 0 0 1-.007-.006l-2.42-3.618 5.908.001Zm-4.366 4.68L29.762 9.653a.019.019 0 0 0-.007-.007.022.022 0 0 0-.02 0 .019.019 0 0 0-.007.007l-1.465 2.192 3.622 5.413a.103.103 0 0 1 0 .115l-3.647 5.457 1.52 2.272a.018.018 0 0 0 .006.006.02.02 0 0 0 .01.002c.003 0 .006 0 .01-.002a.018.018 0 0 0 .006-.006l3.424-5.121a.267.267 0 0 1 .103-.09.32.32 0 0 1 .285 0c.044.021.08.052.104.09l3.548 5.303 1.482-2.216Zm-10.652-.468 2.818-4.216-5.64-.002 2.822 4.218Zm-2.974-4.446h5.945l.484-.723-6.885.04.456.682Zm-.455-.912 6.886-.04-.426-.637-6.006-.002-.454.68Zm.607-.907h5.7l-2.852-4.262-2.848 4.262Zm8.817 4.661 3.06 4.574a.139.139 0 0 0 .115.058h1.014l-4.076 6.103-3.64-5.442a.014.014 0 0 1-.002-.008c0-.003 0-.006.002-.008l3.527-5.277Zm.267 10.965.457.682a.018.018 0 0 0 .006.006.022.022 0 0 0 .02 0 .018.018 0 0 0 .006-.006l4.672-6.99a.015.015 0 0 0 .002-.008.015.015 0 0 0-.002-.008.02.02 0 0 0-.008-.005.022.022 0 0 0-.009-.003h-.916l-4.229 6.332Zm-22.127 1.952a.151.151 0 0 1-.067-.015.125.125 0 0 1-.049-.042l-3.81-5.698a.103.103 0 0 1 0-.114l1.199-1.794-1.537-2.298-.991 1.484a.268.268 0 0 1-.104.09.321.321 0 0 1-.285 0 .268.268 0 0 1-.104-.09l-4.63-6.922a.22.22 0 0 1-.04-.123c0-.043.014-.085.039-.123a.27.27 0 0 1 .104-.09.325.325 0 0 1 .143-.033l8.851.003c.101 0 .195.047.247.123l3.573 5.343h.77l.009-.002a.018.018 0 0 0 .007-.006.015.015 0 0 0 .003-.008c0-.003-.001-.006-.003-.008l-3.394-5.073a.22.22 0 0 1-.038-.123c0-.043.013-.085.038-.122a.268.268 0 0 1 .104-.09.323.323 0 0 1 .143-.033l10.205.003c.047 0 .09.022.114.057l5.218 7.8a.218.218 0 0 1 0 .244.27.27 0 0 1-.104.09.323.323 0 0 1-.143.033l-17.966-.012-1.084 1.622h.95l.537-.802a.267.267 0 0 1 .104-.09.321.321 0 0 1 .142-.033l18.112.013c.101 0 .196.046.246.123l4.251 6.354a.22.22 0 0 1 .039.122.22.22 0 0 1-.038.123.27.27 0 0 1-.105.09.322.322 0 0 1-.142.033l-20.514-.006Zm-2.632-5.697h-.95l3.582 5.353.475-.71a.144.144 0 0 1-.01-.012l-3.097-4.631Zm3.339 4.753h.005l19.361.014.458.683a.015.015 0 0 1 .002.008.015.015 0 0 1-.003.008.02.02 0 0 1-.007.006.022.022 0 0 1-.01.002l-20.284-.006.478-.715Zm19.213-.215-17.843-.013 3.64-5.446 10.546.008a.02.02 0 0 1 .016.008l3.641 5.443Zm-14.51-5.459h-.91l-3.64 5.445h.91l3.64-5.445Zm-1.216 0-3.566 5.335-.456-.68 3.112-4.656h.91Zm-1.216-.002-4.827-.003c-.003 0-.006 0-.01.002a.018.018 0 0 0-.006.006l-.537.803 2.42 3.619 2.96-4.427ZM9.72 26.137l17.966.012c.003 0 .006 0 .01-.002a.019.019 0 0 0 .006-.006.015.015 0 0 0 0-.016l-1.52-2.272-7.176-.005a.151.151 0 0 1-.066-.016.126.126 0 0 1-.048-.042l-3.62-5.41h-2.876c-.004 0-.007 0-.01.002a.018.018 0 0 0-.007.006.015.015 0 0 0 0 .016l3.394 5.073a.22.22 0 0 1 .038.122.22.22 0 0 1-.038.123.27.27 0 0 1-.104.09.322.322 0 0 1-.143.033l-7.343-.005 1.537 2.297Zm5.86-7.756 2.789 4.168 2.786-4.166-5.575-.002Zm5.881.002-2.939 4.396.484.723 3.367-5.12h-.912Zm1.141.116-3.367 5.12h.852l2.969-4.44-.454-.68Zm.607.908-2.816 4.213 5.637.003-2.821-4.216Zm-8.758 4.208-3.497-5.228a.019.019 0 0 0-.008-.006.022.022 0 0 0-.01-.002l-7.626-.003 4.034 6.031.495-.74a.125.125 0 0 1 .049-.041.15.15 0 0 1 .066-.016l6.497.005Zm-7.26 1.023-4.188-6.262h-.917c-.004 0-.007.001-.01.003a.018.018 0 0 0-.006.005.015.015 0 0 0 0 .016l4.63 6.923a.017.017 0 0 0 .007.005.021.021 0 0 0 .019 0 .017.017 0 0 0 .007-.005l.458-.686Zm15.523-8.132a.123.123 0 0 1-.048.042.15.15 0 0 1-.067.015l-10.205-.003c-.05 0-.1-.012-.143-.034a.27.27 0 0 1-.104-.09.22.22 0 0 1-.038-.122.22.22 0 0 1 .038-.122l8.996-13.46-1.136-1.697a.018.018 0 0 0-.007-.006.021.021 0 0 0-.01-.002l-7.697-.003c-.004 0-.007 0-.01.002a.018.018 0 0 0-.007.006L2.071 16.303a.014.014 0 0 0 0 .016.017.017 0 0 0 .007.006.022.022 0 0 0 .01.002h.887L12.7 1.763a.125.125 0 0 1 .049-.042.15.15 0 0 1 .067-.015l6.678.004c.1 0 .195.047.246.123l.52.778c.05.077.05.17 0 .246l-9.077 13.58a.267.267 0 0 1-.104.09.32.32 0 0 1-.142.033l-8.849-.002c-.05 0-.1-.012-.143-.034a.27.27 0 0 1-.104-.09.219.219 0 0 1-.038-.122.22.22 0 0 1 .039-.123L12.047.918a.267.267 0 0 1 .104-.09.321.321 0 0 1 .142-.033l7.699.003c.101 0 .195.046.246.123l1.136 1.697 2.91.002-.973-1.453a.219.219 0 0 1 0-.245.268.268 0 0 1 .104-.09.323.323 0 0 1 .143-.033L32.719.8c.219 0 .356.205.246.369L28.72 7.522a.268.268 0 0 1-.104.09.32.32 0 0 1-.142.032l-7.088-.002-.472.706a.015.015 0 0 0-.002.008c0 .003 0 .006.002.008a.02.02 0 0 0 .016.008l6.727.003c.22 0 .356.204.247.368l-5.19 7.763ZM21.54 7.413l6.934.002c.003 0 .006 0 .01-.002a.018.018 0 0 0 .006-.006l3.65-5.459-8.004-.006.492.736a.103.103 0 0 1 0 .114L21.54 7.414Zm2.443-5.7 8.309.006.444-.664a.014.014 0 0 0 .002-.008.015.015 0 0 0-.003-.008.018.018 0 0 0-.007-.006.022.022 0 0 0-.01-.002l-9.16-.004-.01.002a.018.018 0 0 0-.006.006.015.015 0 0 0-.003.009l.003.008.442.66Zm.3 1.136-3.598 5.385a.218.218 0 0 0 0 .245.27.27 0 0 0 .103.09.323.323 0 0 0 .143.033l6.726.002c.015 0 .024.013.017.024l-1.469 2.197-5.88.018-1.386.021a.149.149 0 0 0-.067.017.123.123 0 0 0-.048.044l-.672 1.098-2.88 4.309-2.877-.001c-.004 0-.007-.001-.01-.003a.017.017 0 0 1-.006-.005.014.014 0 0 1 0-.016l8.995-13.46 2.91.002Zm-8.705 13.483 5.383.002-2.694-4.026-2.688 4.024Zm2.841-4.256 2.848 4.258h1.103l-3.423-5.119-.528.861Zm.75-.986 3.431 5.13.546-.818-2.896-4.33-1.08.018Zm1.387-.019 5.496-.016-2.752 4.118-2.744-4.102ZM3.28 16.328l7.655.003.01-.002a.02.02 0 0 0 .007-.006l4.998-7.478-3.84-5.74-8.83 13.223Zm8.982-13.454 3.84 5.741.552-.825-3.84-5.741-.551.825Zm.781-.94h1.093l3.217 4.81-.546.817-3.763-5.627Zm4.463 4.58 2.522-3.773a.015.015 0 0 0 .003-.008c0-.003 0-.005-.003-.008l-.52-.778a.018.018 0 0 0-.007-.006.021.021 0 0 0-.01-.002l-5.047-.004 3.063 4.58ZM46.373 17.3a.118.118 0 0 1 0 .131L34.821 34.717l-23.122-.008a.17.17 0 0 1-.076-.017.143.143 0 0 1-.055-.048L0 17.35 11.553.066a.143.143 0 0 1 .056-.048.172.172 0 0 1 .076-.018l23.12.007L46.375 17.3ZM34.73.351l11.382 17.014-11.367 17.008-11.381-17.015L34.729.351ZM34.5.236 11.75.23.383 17.237l22.75.007L34.498.236ZM23.132 17.473l11.382 17.015-22.75-.008L.385 17.466l22.749.007Z" fill="url(#a)"/><defs><linearGradient id="a" x1=".801" y1="34.548" x2="46.977" y2="34.548" gradientUnits="userSpaceOnUse"><stop stop-color="#16ABF9"/><stop offset="1" stop-color="#16F7F9"/></linearGradient></defs></svg>