<svg width="42" height="39" fill="none" xmlns="http://www.w3.org/2000/svg"><g clip-path="url(#a)"><path d="M20.485.185c.915-.477 2.032.63 1.546 1.545-.282.745-1.353.943-1.9.375-.58-.545-.391-1.623.354-1.92Zm-9.846 1.061c.556-.229 1.26.28 1.203.887.06.658-.745 1.142-1.312.83-.751-.291-.665-1.51.109-1.717Zm20.165 1.735c-.869-.105-1.006-1.471-.17-1.746.65-.317 1.245.277 1.34.892-.137.525-.576 1.006-1.17.854ZM12.88 5.437c.93-.588 2.256.288 2.113 1.367-.048 1.09-1.496 1.722-2.313.985-.79-.579-.67-1.907.2-2.352Zm14.192.624c.415-1.07 2.095-1.101 2.568-.06.466.809-.108 1.812-.94 2.087-1.1.206-2.146-.985-1.628-2.027ZM19.3 8.027c-.009-.919.828-1.603 1.701-1.666.58.116 1.21.363 1.459.948.463.806.052 1.916-.785 2.286-.383.214-.835.134-1.252.109-.636-.313-1.173-.926-1.123-1.677ZM4.657 9.366c.849-.522 1.995.43 1.673 1.353-.177.798-1.25 1.123-1.863.613-.654-.477-.55-1.625.19-1.966Zm31.442-.002c.72-.56 1.91.083 1.824.992.048.83-.98 1.455-1.695 1.028-.788-.354-.868-1.566-.129-2.02Zm-12.682 1.652c1.189-.427 2.601.084 3.279 1.144.894 1.296.418 3.27-.97 4.013-1.437.88-3.536.134-4.067-1.471-.602-1.437.276-3.236 1.758-3.686Zm-6.977.141c1.318-.622 3.092-.1 3.728 1.248.75 1.312.17 3.14-1.169 3.817-1.34.761-3.233.184-3.881-1.225-.728-1.362-.082-3.212 1.322-3.84Zm-6.985 2.388c.1-.849.901-1.401 1.71-1.458.87.105 1.566.781 1.66 1.662-.057.872-.73 1.725-1.655 1.72-1.017.087-1.909-.924-1.715-1.924Zm20.632-1.274c1.044-.607 2.494.277 2.448 1.477.072 1.27-1.533 2.166-2.573 1.42-1.08-.62-.996-2.368.125-2.897Zm-16.485 4.48c1.22-.336 2.617.24 3.216 1.362.656 1.13.388 2.699-.631 3.528-1.307 1.215-3.717.727-4.413-.932-.799-1.52.172-3.558 1.828-3.958Zm13.231-.007c1.188-.34 2.582.118 3.22 1.2.844 1.237.441 3.082-.815 3.879-1.316.926-3.354.44-4.078-1.008-.878-1.498.005-3.614 1.673-4.07ZM5.747 18.156c1.055-.4 2.224.765 1.797 1.81-.26.953-1.604 1.305-2.297.603-.812-.66-.511-2.127.5-2.413Zm28.592 1.517c-.03-.874.609-1.648 1.505-1.696.722.114 1.425.697 1.368 1.483.066 1.04-1.186 1.745-2.07 1.257-.415-.21-.628-.636-.803-1.044ZM.56 18.67c.634-.277 1.42.273 1.274.977-.034.798-1.212 1.105-1.644.438-.383-.463-.154-1.177.37-1.415Zm40.014-.016c.447-.319 1.164-.09 1.34.432.3.57-.25 1.352-.892 1.255-.9.082-1.192-1.29-.448-1.687Zm-23.527 3.83c1.67-.434 3.466.959 3.476 2.678.109 1.737-1.659 3.278-3.368 2.877-1.322-.213-2.358-1.486-2.316-2.82-.003-1.278.96-2.465 2.209-2.735Zm6.614-.003c1.695-.474 3.543.943 3.516 2.703.09 1.705-1.623 3.194-3.297 2.856-1.575-.204-2.737-1.934-2.297-3.463.222-1.018 1.073-1.847 2.078-2.096ZM10.91 23.538c1.173-.2 2.272 1.108 1.797 2.222-.347 1.187-2.074 1.509-2.838.54-.896-.932-.227-2.633 1.04-2.762Zm19.394.052c1.046-.438 2.33.467 2.25 1.602.041 1.25-1.543 2.111-2.566 1.382-1.159-.655-.948-2.582.316-2.984Zm5.421 5.438c-.41-.764.335-1.775 1.182-1.634.422-.007.717.325.987.604.056.452.149.992-.227 1.34-.51.646-1.665.462-1.942-.31ZM4.653 27.606c.792-.527 1.932.26 1.754 1.186-.095.819-1.126 1.287-1.806.822-.73-.422-.702-1.623.052-2.008Zm15.65 1.715c1.036-.458 2.357.445 2.26 1.587.076 1.262-1.558 2.136-2.572 1.378-1.126-.65-.938-2.565.311-2.965Zm-7.249 1.69c.883-.464 2.069.339 1.988 1.327.027.812-.765 1.504-1.566 1.384-.663-.015-1.096-.61-1.309-1.175.011-.616.265-1.303.887-1.535Zm14.682.015c.909-.561 2.2.245 2.113 1.302.024 1.105-1.435 1.813-2.28 1.087-.82-.57-.72-1.937.167-2.389Zm2.553 6.312c-.404-.611.072-1.348.728-1.487.528.107 1.085.504.974 1.115-.076.828-1.287 1.082-1.702.372Zm-20.267-.53c.16-.485.55-.967 1.121-.84.832.058 1.078 1.311.35 1.697-.654.442-1.413-.163-1.47-.858Zm9.778.555c.16-.717 1.087-1.065 1.698-.685.404.174.522.626.626 1.01-.055.2-.105.4-.154.6-.25.298-.572.594-.988.584-.774.09-1.473-.785-1.182-1.509Z" fill="#3CC8C8"/></g><defs><clipPath id="a"><path fill="#fff" transform="translate(0 .07)" d="M0 0h42v38.808H0z"/></clipPath></defs></svg>