<svg width="56" height="56" fill="none" xmlns="http://www.w3.org/2000/svg"><path d="M28 4.667C15.113 4.667 4.666 15.113 4.666 28c0 12.887 10.447 23.333 23.334 23.333 12.886 0 23.333-10.446 23.333-23.333C51.333 15.113 40.886 4.667 28 4.667Z" fill="#736AE4" fill-opacity=".25"/><path fill-rule="evenodd" clip-rule="evenodd" d="M36.65 21.683a2.333 2.333 0 0 1 0 3.3l-9.334 9.334a2.333 2.333 0 0 1-3.3 0L19.35 29.65a2.333 2.333 0 1 1 3.3-3.3l3.017 3.017 7.683-7.684a2.333 2.333 0 0 1 3.3 0Z" fill="#736AE4"/></svg>