<svg width="54" height="54" fill="none" xmlns="http://www.w3.org/2000/svg"><path d="M54 25.517v2.97c-.057.034-.051.09-.054.144-.01.188-.014.377-.032.564-.075.82-.175 1.635-.314 2.447a26.515 26.515 0 0 1-2.127 6.777 26.166 26.166 0 0 1-2.212 3.858 26.675 26.675 0 0 1-3.507 4.137c-.412.395-.83.782-1.264 1.154a25.779 25.779 0 0 1-2.337 1.782 27.146 27.146 0 0 1-6.478 3.228 26.39 26.39 0 0 1-5.773 1.265c-.434.045-.866.09-1.302.104-.047 0-.09.007-.117.053h-2.97c-.026-.046-.07-.053-.116-.053-.135.002-.27-.016-.404-.024-.813-.05-1.62-.15-2.422-.284a26.858 26.858 0 0 1-4.364-1.105 27.35 27.35 0 0 1-3.963-1.735 26.495 26.495 0 0 1-2.853-1.767 26.3 26.3 0 0 1-3.796-3.266 32.596 32.596 0 0 1-1.135-1.244 25.998 25.998 0 0 1-1.87-2.456 27.154 27.154 0 0 1-3.198-6.477 25.805 25.805 0 0 1-.878-3.325 25.963 25.963 0 0 1-.356-2.36c-.043-.433-.094-.865-.105-1.301 0-.047-.007-.09-.053-.117v-2.97c.046-.026.053-.07.053-.117.001-.252.034-.501.052-.752.047-.65.13-1.297.234-1.94a26.746 26.746 0 0 1 2.547-7.863 27.163 27.163 0 0 1 1.917-3.22 28.175 28.175 0 0 1 2.972-3.59c.32-.328.66-.634.997-.947a26.839 26.839 0 0 1 5.626-3.972 27.096 27.096 0 0 1 3.987-1.714 26.187 26.187 0 0 1 3.337-.884 26.266 26.266 0 0 1 2.373-.36c.433-.042.866-.093 1.302-.104.046 0 .09-.007.116-.053h2.97c.03.051.08.052.13.053.482.011.96.062 1.437.116 1.02.117 2.03.29 3.03.518a26.58 26.58 0 0 1 5.895 2.105 26.957 26.957 0 0 1 3.388 2.004 27.653 27.653 0 0 1 3.627 3.01 26.529 26.529 0 0 1 1.538 1.66 27.317 27.317 0 0 1 1.879 2.467 27.145 27.145 0 0 1 3.23 6.58c.347 1.043.627 2.104.838 3.183a26.5 26.5 0 0 1 .365 2.4c.043.433.092.865.104 1.301.004.051.01.095.056.12ZM36.733 38.135l.11-.053c.754-.408 1.507-.822 2.267-1.222.397-.21.577-.524.577-.97-.004-5.322-.003-10.646-.002-15.969 0-.946-.403-1.653-1.226-2.128-1.965-1.137-3.926-2.28-5.888-3.42-1.952-1.133-3.902-2.269-5.854-3.4-.848-.492-1.767.037-1.767 1.014 0 2.124 0 4.248-.004 6.372 0 .114.038.172.134.23 3.498 2.095 6.995 4.192 10.492 6.29.162.098.318.205.453.338.492.478.71 1.064.71 1.747-.004 3.658-.003 7.316-.002 10.974v.197Zm-2.262-4.692-.001-5.332c0-.152-.006-.306-.032-.457-.126-.755-.545-1.296-1.205-1.68-2.802-1.628-5.6-3.263-8.398-4.897-1.118-.652-2.237-1.303-3.353-1.957a1.149 1.149 0 0 0-.843-.147c-.544.114-.9.567-.9 1.14-.002 2.24 0 4.48-.005 6.72 0 .154.053.23.177.303 3.4 2.03 6.798 4.064 10.197 6.096.794.474 1.19 1.167 1.188 2.095-.003 1.956 0 3.913 0 5.87v.108c-.004.07.03.076.083.05.036-.017.072-.037.106-.056.803-.452 1.603-.911 2.41-1.352.4-.218.58-.53.58-.983-.009-1.84-.004-3.68-.004-5.521Zm-5.44 5.636c0-.886.004-1.772 0-2.658-.005-.894-.401-1.572-1.171-2.02-3.932-2.296-7.866-4.588-11.799-6.882-.828-.483-1.758.036-1.762.995a668.145 668.145 0 0 0 0 5.183c.004 1.047.468 1.847 1.359 2.393 2.747 1.685 5.498 3.365 8.246 5.047l3.014 1.846c.308.19.637.27.993.205.673-.124 1.116-.662 1.118-1.369.006-.913.002-1.826.002-2.74Z" fill="#070A0E"/><path d="M36.733 38.135v-.197c0-3.658-.002-7.316.002-10.975 0-.682-.218-1.268-.71-1.746a2.492 2.492 0 0 0-.453-.338c-3.497-2.098-6.994-4.196-10.492-6.29-.097-.058-.135-.116-.134-.23.004-2.124.002-4.248.004-6.372 0-.976.918-1.507 1.766-1.015 1.953 1.132 3.903 2.266 5.855 3.4 1.962 1.14 3.923 2.284 5.888 3.42.823.476 1.226 1.182 1.226 2.128 0 5.323 0 10.647.002 15.97 0 .446-.18.76-.577.97-.76.4-1.513.813-2.268 1.221-.026.015-.055.028-.109.054Z" fill="#00D294"/><path d="M34.471 33.442c0 1.84-.004 3.68.004 5.52.002.452-.18.765-.578.983-.809.442-1.608.901-2.411 1.352-.036.02-.071.04-.107.057-.052.026-.087.02-.083-.05.002-.035 0-.072 0-.108 0-1.957-.002-3.914 0-5.87.002-.928-.394-1.62-1.188-2.096-3.399-2.031-6.797-4.065-10.197-6.095-.123-.073-.177-.149-.177-.303.007-2.24.004-4.48.005-6.721 0-.573.356-1.025.9-1.14.298-.063.579-.006.843.148 1.118.654 2.236 1.306 3.354 1.957 2.798 1.634 5.596 3.27 8.398 4.897.66.383 1.077.925 1.205 1.68.026.15.03.305.031.457.002 1.777.001 3.555.001 5.332Z" fill="#00D294"/><path d="M29.032 39.078c0 .913.004 1.827 0 2.74-.004.706-.446 1.245-1.12 1.369a1.376 1.376 0 0 1-.992-.205c-1.003-.617-2.008-1.23-3.014-1.846-2.75-1.682-5.499-3.362-8.246-5.047-.891-.546-1.355-1.346-1.36-2.394a626.119 626.119 0 0 1 0-5.182c.004-.959.935-1.48 1.763-.995 3.933 2.293 7.867 4.585 11.798 6.881.771.45 1.167 1.127 1.171 2.02.005.887 0 1.773 0 2.66Z" fill="#00D294"/></svg>