<svg width="108" height="21" fill="none" xmlns="http://www.w3.org/2000/svg"><path d="M108 13.757c-.116.105-.095.274-.127.411-.422 1.455-1.434 2.32-2.867 2.636-2.593.58-4.913-.053-6.947-1.75-.116-.095-.127-.159-.021-.285.39-.443.759-.896 1.128-1.35.105-.126.158-.115.284-.01.865.706 1.782 1.307 2.91 1.486.875.138 1.75.2 2.561-.253.517-.284.791-.727.802-1.328 0-.59-.274-1.012-.802-1.286-.759-.4-1.591-.58-2.414-.79-.832-.211-1.665-.433-2.414-.854-1.317-.738-1.77-1.898-1.665-3.342.126-1.687 1.38-3.078 3.373-3.395 2.056-.316 3.932.159 5.608 1.413.137.095.18.158.064.327a25.41 25.41 0 0 0-.991 1.391c-.106.148-.169.137-.306.042-.864-.6-1.782-1.075-2.857-1.19-.527-.064-1.054-.043-1.56.136-.854.306-1.276 1.118-.991 1.95.158.464.538.696.949.886.717.327 1.476.485 2.235.685.832.222 1.676.464 2.424.917.875.527 1.444 1.265 1.571 2.298 0 .021.032.043.042.053.011.39.011.801.011 1.202ZM.053 9.382c.116-.169.095-.38.137-.57.696-3.372 3.616-5.576 7.052-5.375 1.697.105 3.173.653 4.438 1.792.274.253.285.242.032.527-.37.421-.749.843-1.096 1.275-.116.148-.18.116-.306.01-.728-.632-1.508-1.18-2.477-1.38C5.07 5.08 2.899 6.905 2.53 9.382c-.2 1.36.042 2.646.864 3.774 1.508 2.077 4.143 2.077 5.693 1.15a7.853 7.853 0 0 0 1.35-1.002c.105-.106.168-.095.263.01.4.422.812.833 1.223 1.244.105.106.116.158.01.274-1.539 1.613-3.426 2.32-5.64 2.172-1.676-.106-3.13-.738-4.311-1.93C.907 13.99.306 12.672.105 11.175c-.01-.053.022-.126-.052-.158V9.382ZM17.256 19.86c-.506-.505-1.001-1.011-1.507-1.507-.116-.116-.021-.158.032-.221l1.38-1.381c.791-.79 1.592-1.592 2.393-2.383.127-.126.138-.21.043-.358-1.676-2.551-1.466-5.946.537-8.233 1.37-1.57 3.131-2.309 5.218-2.309 1.37 0 2.657.338 3.806 1.086.158.105.21.021.295-.063 1.244-1.244 2.488-2.478 3.732-3.721.148-.159.232-.17.38 0 .41.432.832.853 1.265 1.265.137.137.116.2-.011.326-1.244 1.223-2.477 2.467-3.721 3.69-.148.148-.158.232-.042.411 1.77 2.678 1.391 6.357-.907 8.592-1.581 1.539-3.5 2.097-5.672 1.887a6.58 6.58 0 0 1-2.993-1.044c-.148-.095-.211-.032-.296.053-1.275 1.275-2.55 2.54-3.826 3.816a.946.946 0 0 1-.106.095Zm12.492-9.592c.01-.749-.158-1.445-.453-2.12-.063-.147-.105-.178-.242-.041l-5.946 5.945c-.116.116-.126.169.032.253 1.412.76 2.846.812 4.259.063 1.623-.864 2.277-2.33 2.35-4.1ZM21.42 12.47l.137-.106c1.993-1.981 3.975-3.974 5.967-5.956.148-.147.084-.19-.053-.263-1.19-.654-2.435-.76-3.7-.306-2.73.98-3.552 4.312-2.35 6.63ZM59.012 7.485v.284c0 2.878 0 5.767.01 8.644 0 .243-.062.296-.294.285-.59-.021-1.18-.01-1.76 0-.159 0-.233-.021-.233-.21.01-4.207 0-8.413 0-12.62 0-.157.032-.21.2-.21.696.01 1.392.01 2.077 0 .158 0 .211.074.285.18 1.202 1.876 2.414 3.741 3.616 5.618.074.116.158.232.242.369.506-.78.991-1.518 1.466-2.277.8-1.244 1.602-2.488 2.403-3.742.074-.127.169-.148.295-.148.654 0 1.318.01 1.971 0 .222-.01.275.053.275.274-.01 2.414 0 4.828 0 7.242v5.271c0 .2-.043.264-.253.264-.58-.021-1.16-.021-1.74 0-.221.01-.295-.043-.295-.285.01-2.91.01-5.819.01-8.718v-.337c-.316.453-.58.854-.843 1.244-1.043 1.56-2.087 3.11-3.13 4.67-.19.274-.18.274-.359.01-1.255-1.876-2.509-3.742-3.763-5.619a208.35 208.35 0 0 1-.127-.19c-.021-.01-.042 0-.053 0ZM84.239 17.014c-3.88-.01-6.82-2.94-6.81-6.788.01-3.827 3.046-6.832 6.883-6.79 3.954.032 6.853 2.952 6.8 6.927-.042 3.784-3.078 6.672-6.873 6.651Zm.516-11.459c-1.866.011-3.046.517-3.9 1.645-1.118 1.476-1.297 3.12-.675 4.828 1.107 3.026 5.06 3.88 7.242 1.56 1.076-1.138 1.434-2.52 1.234-4.058-.296-2.383-2.267-4.017-3.9-3.975ZM44.212 17.004c-1.877-.064-3.532-.675-4.976-1.887-.18-.148-.232-.243-.042-.443.38-.4.727-.833 1.064-1.265.106-.137.17-.116.285-.021.727.6 1.508 1.128 2.425 1.37.917.253 1.855.338 2.772 0 .865-.316 1.255-1.075 1.012-1.929-.095-.358-.337-.58-.643-.759-.643-.38-1.36-.559-2.066-.738-.886-.232-1.782-.453-2.614-.833-2.436-1.106-2.277-4.153-1.055-5.523.77-.844 1.73-1.265 2.836-1.392 1.95-.21 3.71.274 5.292 1.455.158.116.158.19.053.348-.337.453-.664.927-.991 1.391-.084.127-.148.127-.264.042-.77-.548-1.591-.98-2.53-1.16-.632-.115-1.275-.136-1.897.085-.833.295-1.244 1.065-1.023 1.877.106.38.37.632.696.822.654.38 1.381.538 2.098.727.938.243 1.887.485 2.74.97 1.202.675 1.761 1.708 1.708 3.089-.073 1.887-1.243 3.236-3.183 3.637-.285.063-.57.095-.854.126-.295.021-.57.032-.843.01Z" fill="#FEFEFE"/></svg>