<svg width="90" height="91" fill="none" xmlns="http://www.w3.org/2000/svg"><circle cx="44.768" cy="45.239" r="44.768" fill="#fff"/><path fill-rule="evenodd" clip-rule="evenodd" d="M44.068 18.657c10.437 0 18.887 8.461 18.887 18.91v24.408H25.182V37.567c0-10.449 8.45-18.91 18.886-18.91ZM36.514 32.5a3.925 3.925 0 0 0-3.934 3.938 3.925 3.925 0 0 0 3.934 3.938 3.925 3.925 0 0 0 3.933-3.938 3.925 3.925 0 0 0-3.933-3.938Zm13.94 0a3.925 3.925 0 0 0-3.932 3.938 3.925 3.925 0 0 0 3.933 3.938 3.925 3.925 0 0 0 3.933-3.938 3.925 3.925 0 0 0-3.933-3.938Z" fill="#FF5C3E"/><path fill-rule="evenodd" clip-rule="evenodd" d="M44.068 21.193c10.437 0 18.887 6.511 18.887 22.926V63.38H25.182V37.218c0-9.981 8.45-16.025 18.886-16.025ZM36.514 32.5a3.925 3.925 0 0 0-3.934 3.938 3.925 3.925 0 0 0 3.934 3.938 3.925 3.925 0 0 0 3.933-3.938 3.925 3.925 0 0 0-3.933-3.938Zm13.94 0a3.925 3.925 0 0 0-3.932 3.938 3.925 3.925 0 0 0 3.933 3.938 3.925 3.925 0 0 0 3.933-3.938 3.925 3.925 0 0 0-3.933-3.938Z" fill="#FF5C3E"/><path fill-rule="evenodd" clip-rule="evenodd" d="M44.067 23.023c10.436 0 18.887 6.278 18.887 22.107v26.708a2.137 2.137 0 0 1-2.142 2.145 2.137 2.137 0 0 1-2.142-2.145v-6.004c0-1.092-.935-1.95-2.103-1.988h-.039c-1.168 0-2.142.857-2.142 1.949v2.69c0 1.131-.895 2.028-2.025 2.028a2.012 2.012 0 0 1-2.024-2.028v-2.651c0-1.092-.935-1.95-2.103-1.988h-.04c-1.168 0-2.141.857-2.141 1.949v.546c0 1.13-.896 2.027-2.025 2.027a2.012 2.012 0 0 1-2.025-2.027v-.507c0-1.092-.934-1.95-2.103-1.988h-.039c-1.168 0-2.142.857-2.142 1.949v2.69c0 1.131-.895 2.028-2.024 2.028a2.012 2.012 0 0 1-2.025-2.028v-2.651c0-1.092-.935-1.95-2.103-1.988h-.04c-1.167 0-2.141.857-2.141 1.949v6.16c0 1.131-.896 2.028-2.025 2.028a2.012 2.012 0 0 1-2.025-2.028V38.502c-.156-9.63 8.295-15.479 18.731-15.479Zm-7.555 9.475a3.925 3.925 0 0 0-3.933 3.938 3.925 3.925 0 0 0 3.933 3.938 3.925 3.925 0 0 0 3.933-3.938 3.925 3.925 0 0 0-3.933-3.938Zm13.941 0a3.925 3.925 0 0 0-3.933 3.938 3.925 3.925 0 0 0 3.933 3.938 3.925 3.925 0 0 0 3.933-3.938 3.925 3.925 0 0 0-3.933-3.938Z" fill="#FF5C3E"/><path opacity=".256" fill-rule="evenodd" clip-rule="evenodd" d="M27.2 41.932c.545 0 1.012.468 1.012 1.013v4.562c0 .546-.467 1.014-1.012 1.014a1.032 1.032 0 0 1-1.012-1.014v-4.562c0-.545.428-1.013 1.012-1.013ZM61.67 48.523c.546 0 1.013.467 1.013 1.013v8.539c0 .546-.467 1.014-1.012 1.014a1.032 1.032 0 0 1-1.013-1.014v-8.539c0-.546.468-1.014 1.013-1.014ZM61.67 44.117c.546 0 1.013.468 1.013 1.014v.936c0 .546-.467 1.014-1.012 1.014a1.032 1.032 0 0 1-1.013-1.014v-.936c0-.585.468-1.014 1.013-1.014Z" fill="#FF5C3E"/><path fill-rule="evenodd" clip-rule="evenodd" d="M44.14 46.535c1.714 0 3-1.404 3-2.378 0-.39-.234-.741-.585-.78-.545-.078-1.363.234-2.414.234-.974 0-1.597-.273-2.337-.273-.778 0-.74.897-.623 1.248.273.974 1.208 1.949 2.96 1.949Z" fill="#FF5C3E"/><path fill-rule="evenodd" clip-rule="evenodd" d="M44.18 45.715c1.752 0 3.037-1.287 3.037-2.222 0-.351-.233-.663-.584-.702-.545-.078-1.402.234-2.453.234-1.013 0-1.597-.273-2.376-.273-.778 0-.74.858-.623 1.17.273.896 1.247 1.793 2.999 1.793ZM37.098 31.836c1.986 0 3.622 1.988 3.622 4.445 0 2.456-1.636 4.445-3.622 4.445s-3.621-1.989-3.621-4.445c0-2.457 1.596-4.445 3.621-4.445Zm0 .468c-1.791 0-3.232 1.793-3.232 3.977 0 2.183 1.44 3.977 3.232 3.977 1.791 0 3.232-1.794 3.232-3.977 0-2.184-1.48-3.977-3.232-3.977ZM51.079 31.836c1.986 0 3.621 1.988 3.621 4.445 0 2.456-1.635 4.445-3.621 4.445s-3.622-1.989-3.622-4.445c0-2.457 1.636-4.445 3.622-4.445Zm0 .468c-1.792 0-3.233 1.793-3.233 3.977 0 2.183 1.441 3.977 3.233 3.977 1.79 0 3.232-1.794 3.232-3.977 0-2.184-1.441-3.977-3.232-3.977Z" fill="#FF5C3E"/><path fill-rule="evenodd" clip-rule="evenodd" d="M37.092 32.303c1.79 0 3.232 1.793 3.232 3.977v.468c0-2.223-1.402-4.055-3.155-4.055-1.752 0-3.154 1.793-3.154 4.055 0 .428.04.857.156 1.247a4.75 4.75 0 0 1-.312-1.676c0-2.223 1.441-4.016 3.233-4.016ZM51.082 32.303c1.791 0 3.232 1.793 3.232 3.977v.468c0-2.223-1.402-4.055-3.154-4.055-1.753 0-3.155 1.793-3.155 4.055 0 .428.04.857.156 1.247a4.75 4.75 0 0 1-.311-1.676c0-2.223 1.44-4.016 3.232-4.016Z" fill="#FF5C3E"/></svg>