<svg width="89" height="91" fill="none" xmlns="http://www.w3.org/2000/svg"><ellipse cx="43.982" cy="46.476" rx="43.982" ry="43.849" fill="#FF5C3E"/><path d="M14.19 14.039A51349.08 51349.08 0 0 0 5.936.584l.15-.113c.409.478.833.945 1.227 1.436 2.942 3.639 5.804 7.342 8.835 10.906 3.125 3.675 6.413 7.215 9.63 10.813 2.207 2.468 4.419 4.928 6.618 7.4.939 1.057.9 2.17-.072 3.235-1.125 1.233-2.62 1.607-4.19 1.761-1.887.186-3.07 1.226-3.37 3.104a21.8 21.8 0 0 0-.222 2.22c-.095 1.7-.66 3.25-1.406 4.76-.422.852-.847 1.716-1.132 2.62-.86 2.732.061 5.205 2.55 7.027.65.474 1.34.897 1.978 1.387 1.866 1.434 1.974 3.623.236 5.219-1.764 1.62-3.96 2.374-6.217 3.019-.748.214-1.092.07-1.426-.642-.412-.884-1.014-1.678-1.524-2.517-1.416-2.326-2.178-4.843-1.416-7.5.379-1.32 1.24-2.562 2.099-3.676 1.75-2.27 3.635-4.452 4.54-7.22.413-1.26.59-2.602.808-3.917.261-1.583.683-3.05 1.878-4.245.793-.792.858-1.808.308-2.805-2.13-3.858-4.212-7.744-6.435-11.546-.786-1.345-1.923-2.486-3.08-3.625.095.212.176.431.29.634 2.713 4.896 5.427 9.79 8.142 14.684.586 1.055.544 1.4-.28 2.285-1.265 1.356-1.753 3.053-1.874 4.82-.243 3.54-1.981 6.354-4.094 9.039-1.027 1.306-2.163 2.598-2.866 4.077-1.462 3.077-.746 6.105.793 8.98.631 1.18 1.365 2.304 2.021 3.472.186.33.261.72.404 1.129 2.783.623 5.563.956 8.174-.748.183-.118.455-.169.676-.15 2.93.242 5.52 1.2 7.503 3.491.602.696 1.249 1.375 1.973 1.934 1.515 1.166 3.477 1.182 4.929.147 1.501-1.073 1.777-3.316.447-4.593.119.433.23.746.288 1.069a2.49 2.49 0 0 1-3.068 2.875c-1.529-.366-2.536-1.694-2.49-3.278.04-1.392 1.034-2.46 2.61-2.728 1.738-.294 3.276.308 4.345 1.585.995 1.188 1.693 2.631 2.462 3.995.496.88.819 1.857 1.338 2.72 1.972 3.27 5.218 4.002 8.43 1.9 1.962-1.282 4.123-2.298 5.69-4.129.127-.15.347-.226.531-.322 5.345-2.807 7.724-8.983 5.608-14.62-.76-2.023-2.149-3.591-3.926-4.752-1.895-1.237-3.869-2.36-5.859-3.444-1.427-.776-2.709-1.626-3.127-3.333-.016.013.04-.052.063-.041 3.322 1.475 6.686 2.868 9.948 4.467 2.001.981 3.57 2.503 4.03 4.845.078.4.11.807.197 1.445.775-.93 1.134-1.847 1.358-2.807 1.002-4.275.241-8.114-3.02-11.234-1.952-1.867-4.39-2.862-7.006-3.378-2.545-.502-5.116-.87-7.672-1.321-.555-.097-1.101-.266-1.637-.451-1.92-.66-3.58-1.578-3.615-3.94.53.324 1.117.737 1.752 1.06 2.448 1.234 5.097 1.62 7.794 1.803 1.577.108 3.16.187 4.73.372 1.977.234 3.538 1.194 4.584 2.92.061.101.14.191.214.281.015.018.052.016.343.099-.28-1.032-.406-1.99-.788-2.832-2.972-6.576-8.014-10.574-15.203-11.575-2.18-.304-4.456-.018-6.682.097-.69.036-1.15-.047-1.611-.6-2.043-2.446-4.436-4.454-7.587-5.282-1.28-.336-2.648-.356-3.979-.493-.423-.043-.787.06-.706.636.016.12-.076.26-.14.38-.172.321-.493.629-.513.956-.18 2.961.664 5.64 2.364 8.063.15.214.295.433.535.784-1.161-.387-2.133-.753-2.882-1.589-3.683-4.103-7.382-8.193-11.08-12.283-.82-.904-1.655-1.792-2.485-2.688C30.093.685 54.36-2.306 72.347 12.784c18.617 15.617 21.111 43.175 5.676 61.684-15.715 18.85-43.247 21.193-61.732 6.11C5.95 72.14.446 61.112.025 47.783c-.42-13.3 4.555-24.493 14.166-33.744Z" fill="#fff"/><path d="M69.801 50.685c-2.864-3.525-6.949-4.697-10.741-6.395-2.09-.935-4.15-1.965-6.116-3.13-1.545-.915-2.623-2.323-3.061-4.127.063-.038.124-.1.155-.088 2.833 1.127 5.856 1.353 8.823 1.847 2.425.403 4.784.994 6.863 2.41 3.098 2.112 4.53 5.318 4.077 9.483ZM44.572 25.873c5.608-2.557 17.478 2.468 19.457 8.114-3.389-.365-6.797-.654-10.18-1.118-2.768-.379-5.03-1.78-6.802-3.94-.827-1.005-1.638-2.02-2.475-3.056ZM64.908 66.98c-.114-.876-.16-1.703-.334-2.5-.614-2.835-2.278-5.144-3.86-7.491-1.282-1.9-2.65-3.76-3.261-6.015-.182-.672-.226-1.382-.334-2.074l.211-.158c1.622.917 3.264 1.8 4.861 2.759 2.077 1.247 3.952 2.733 4.772 5.127 1.253 3.66.6 7.028-1.745 10.087-.065.086-.168.145-.31.266ZM36.477 69.32c-1.877-2.24-3.98-3.675-6.922-4.178.614-.442 1.042-.778 1.496-1.073 2.758-1.787 5.725-2.942 9.067-2.899 3.725.047 6.428 1.808 7.536 4.946.296.835.453 1.723.613 2.598.23 1.253.406 2.516.53 3.824-.416-.929-.854-1.849-1.247-2.787-.839-2.005-1.86-3.87-3.784-5.066-1.036-.643-2.154-.988-3.394-.945-2.956.104-4.617 2.33-3.895 5.58ZM30.844 19.56c3.035-.055 5.663 2.078 6.543 5.266.213.773.42 1.55.595 2.33.366 1.64 1.211 3.024 2.251 4.31.14.175.263.365.419.58-4.689.42-10.695-6.043-9.808-12.485ZM37.62 57.82c1.71-1.117 3.411-1.685 5.192-2.028 1.405-.271 2.827-.455 4.235-.71a11.012 11.012 0 0 0 1.726-.456c3.773-1.334 5.395-4.532 4.411-8.664-.04-.169-.084-.336-.144-.573 1.525 1.405 2.003 4.518 1.046 6.683-1.264 2.861-3.681 4.135-6.61 4.534-2.066.28-4.166.304-6.24.527-1.142.122-2.265.424-3.617.688ZM35.258 42.464c-1.628.007-2.347-.861-2.037-2.457.287-1.477 1.386-2.536 2.745-2.643a3.204 3.204 0 0 1 3.268 2.117c.276.776.134 1.513-.559 1.872-1.056.548-2.213.904-3.327 1.343l-.09-.232Zm.786-2.218c.53-.083 1.269-.054 1.393-.918.074-.516-.611-1.105-1.211-1.059-.676.052-1.093.444-1.154 1.13-.052.605.278.867.972.847Z" fill="#fff"/></svg>