<svg width="76" height="52" fill="none" xmlns="http://www.w3.org/2000/svg"><path d="M6.864 43.137c0 .166-.14.302-.308.302H.626c.148 1.46 1.25 2.791 2.802 2.791 1.06 0 1.846-.404 2.439-1.246.085-.116.214-.19.378-.12.09.039.152.12.167.213a.297.297 0 0 1-.039.206c-.596 1.036-1.784 1.545-2.95 1.545-1.994 0-3.417-1.778-3.417-3.68 0-1.902 1.423-3.68 3.418-3.68 1.995-.003 3.436 1.77 3.44 3.669Zm-.635-.288c-.128-1.459-1.25-2.79-2.801-2.79-1.551 0-2.654 1.331-2.802 2.79h5.603Zm7.832-3.237a.3.3 0 0 1 .296.295c0 .171-.128.295-.296.295h-1.59v6.214a.303.303 0 0 1-.296.295.3.3 0 0 1-.296-.295v-6.214h-1.527a.288.288 0 0 1-.296-.295c0-.147.128-.295.296-.295h1.527v-2.274c0-.144.098-.276.238-.3.199-.03.354.106.354.292v2.282h1.59Zm9.699 3.005v3.765a.3.3 0 0 1-.296.294.288.288 0 0 1-.296-.294v-3.765c0-1.27-.721-2.539-2.144-2.539-1.823 0-2.61 1.588-2.505 3.214 0 .043.02.233.02.252v2.826c0 .143-.098.275-.238.299-.199.03-.355-.105-.355-.291V34.01c0-.147.129-.295.296-.295a.3.3 0 0 1 .296.295v6.999c.51-.909 1.423-1.522 2.482-1.522 1.742 0 2.74 1.522 2.74 3.129Zm10.634.52c0 .166-.14.302-.308.302H28.15c.148 1.46 1.251 2.791 2.802 2.791 1.06 0 1.847-.404 2.44-1.246.085-.116.213-.19.377-.12.09.039.152.12.168.213.015.097-.012.152-.04.206-.596 1.036-1.784 1.545-2.949 1.545-1.995 0-3.417-1.778-3.417-3.68 0-1.902 1.422-3.68 3.417-3.68 1.999-.003 3.44 1.77 3.445 3.669Zm-.64-.288c-.128-1.459-1.25-2.79-2.801-2.79-1.551 0-2.654 1.331-2.802 2.79h5.604Zm7.918-2.961c0 .19-.105.295-.276.318-1.742.252-2.525 1.67-2.525 3.319v2.825c0 .144-.098.276-.238.3-.199.03-.355-.105-.355-.292v-6.44c0-.143.098-.275.238-.298.199-.031.355.105.355.291v1.312c.487-.823 1.465-1.607 2.482-1.607.148-.004.32.105.32.272Zm9.742 3.249c0 .166-.14.302-.308.302h-5.93c.147 1.46 1.25 2.791 2.8 2.791 1.06 0 1.848-.404 2.44-1.246.086-.116.215-.19.378-.12.09.039.152.12.168.213a.297.297 0 0 1-.04.206c-.595 1.036-1.784 1.545-2.949 1.545-1.995 0-3.417-1.778-3.417-3.68 0-1.902 1.422-3.68 3.417-3.68 1.995-.003 3.437 1.77 3.44 3.669Zm-.635-.288c-.129-1.459-1.251-2.79-2.802-2.79-1.55 0-2.654 1.331-2.802 2.79h5.604Zm10.209-2.887v6.454a.3.3 0 0 1-.297.295.288.288 0 0 1-.296-.295V45.19c-.487.974-1.36 1.669-2.462 1.669-1.762 0-2.74-1.522-2.74-3.129v-3.784c0-.147.129-.295.297-.295a.3.3 0 0 1 .296.295v3.785c0 1.269.72 2.538 2.143 2.538 1.995 0 2.462-1.86 2.462-3.913v-2.41c0-.17.172-.345.382-.283a.317.317 0 0 1 .215.299Zm15.001 2.631v3.785a.3.3 0 0 1-.296.295.288.288 0 0 1-.296-.295v-3.785c0-1.269-.72-2.515-2.143-2.515-1.785 0-2.463 1.902-2.463 3.38v2.92a.3.3 0 0 1-.296.295.288.288 0 0 1-.296-.295v-3.785c0-1.269-.72-2.515-2.143-2.515-1.804 0-2.548 1.417-2.482 3.3 0 .042.02.127 0 .147v2.845a.297.297 0 0 1-.242.299c-.198.03-.354-.105-.354-.291v-6.46c0-.143.097-.275.237-.298.2-.031.355.105.355.291v1.08c.51-.91 1.422-1.503 2.482-1.503 1.208 0 2.143.76 2.525 1.883.487-1.099 1.442-1.883 2.673-1.883 1.742 0 2.74 1.498 2.74 3.105Z" fill="#8D8D8D"/><path d="m38.002 11.893-9.913 4.49 9.913 5.834 9.909-5.833L38 11.893Z" fill="#878787" opacity=".6"/><path d="m28.089 16.384 9.913 5.833V0l-9.913 16.384Z" fill="#878787" opacity=".45"/><path d="M38.002 0v22.217l9.909-5.833L38.002 0Z" fill="#878787" opacity=".8"/><path d="m28.089 18.254 9.913 13.911v-8.077l-9.913-5.834Z" fill="#878787" opacity=".45"/><path d="M38.002 24.088v8.077l9.917-13.91-9.917 5.833Z" fill="#878787" opacity=".8"/></svg>