<svg width="100" height="27" fill="none" xmlns="http://www.w3.org/2000/svg"><g clip-path="url(#a)" fill="#fff"><path d="M9.12.37c.627-.333 1.594-.333 2.221 0l6.437 3.38c.376.2.59.495.627.805h.008V21.56c-.008.332-.222.664-.635.886l-6.437 3.38c-.627.332-1.594.332-2.221 0l-6.437-3.38c-.413-.214-.605-.554-.62-.886V4.562c.03-.31.229-.598.613-.805L9.112.377 9.12.37ZM17.4 14.047l-6.06 3.181c-.627.332-1.594.332-2.221 0l-6.046-3.174v7.477l6.046 3.16c.34.184.693.361 1.04.383h.067c.361 0 .708-.184 1.07-.354l6.104-3.218v-7.455ZM1.015 21.199c0 .65.074 1.078.229 1.38.125.251.31.443.657.672l.022.015c.074.052.155.103.258.162l.118.074.37.222-.525.863-.406-.244-.066-.044c-.118-.074-.214-.133-.31-.2-.982-.656-1.343-1.372-1.35-2.856V21.2h1.01-.007Zm8.71-11.706a1.045 1.045 0 0 0-.133.059l-6.436 3.38c-.008 0-.015.008-.023.008h-.007l.007.007.015.007 6.437 3.381c.036.022.08.037.132.059V9.485l.008.008Zm1.011 0V16.4c.044-.014.089-.037.133-.059l6.436-3.38c.008 0 .015-.008.022-.008h.008l-.008-.007-.014-.007-6.437-3.381c-.037-.022-.08-.037-.133-.059l-.007-.007Zm6.658-3.72-5.78 3.033 5.78 3.034V5.773ZM3.067 5.78v6.052l5.765-3.026L3.067 5.78Zm7.794-4.51c-.332-.177-.937-.177-1.276 0L3.148 4.65c-.007 0-.015.008-.022.008H3.12l.007.007.015.008 6.436 3.38c.332.177.938.177 1.277 0l6.437-3.38c.007 0 .014-.008.022-.008h.007l-.007-.007-.015-.007-6.436-3.381Zm7.485.37.406.243.066.044c.118.074.214.133.31.2.982.656 1.344 1.372 1.351 2.856v.044h-1.011c0-.65-.074-1.078-.229-1.38-.125-.251-.31-.443-.657-.672l-.022-.015a3.253 3.253 0 0 0-.258-.162l-.118-.074-.37-.221.525-.864h.007ZM30.783 20.852v-9.485h2.628V9.633h-2.628V8.386c0-1.41.62-2.119 1.853-2.119.354 0 .738.06 1.136.177V4.6a5.61 5.61 0 0 0-1.623-.221c-1.145 0-2.03.324-2.665.981-.635.65-.945 1.602-.945 2.85v1.424h-2.163v1.735h2.163v9.484h2.251-.007Zm9.138.155c.864 0 1.616-.177 2.266-.531a3.42 3.42 0 0 0 1.461-1.535v1.911h2.23V9.632h-2.23v1.824a3.72 3.72 0 0 0-1.469-1.55c-.642-.362-1.387-.546-2.25-.546-.968 0-1.831.243-2.584.738-.76.487-1.35 1.18-1.772 2.074-.42.893-.634 1.912-.634 3.07 0 1.16.206 2.17.627 3.042.413.87.996 1.542 1.75 2.015.752.472 1.623.716 2.62.716l-.015-.008Zm.531-1.779c-1.026 0-1.823-.347-2.398-1.048-.576-.7-.857-1.675-.857-2.937 0-1.277.288-2.274.856-2.997.569-.723 1.366-1.078 2.377-1.078 1.026 0 1.816.347 2.377 1.048.56.702.834 1.69.834 2.982 0 1.277-.28 2.266-.834 2.975-.554.709-1.343 1.055-2.355 1.055ZM51.4 20.852V14.46c0-.996.287-1.786.856-2.384.575-.59 1.336-.893 2.288-.893.834 0 1.44.221 1.816.664.376.443.568 1.16.568 2.14v6.858h2.251v-6.99c0-2.997-1.343-4.495-4.037-4.495-.864 0-1.631.192-2.31.568a3.702 3.702 0 0 0-1.55 1.639l-.2-1.934h-2.096c.118.937.177 1.985.177 3.16v8.06H51.4Zm15.316.155c.627 0 1.18-.08 1.675-.243V18.94a4.168 4.168 0 0 1-1.181.177c-.598 0-1.056-.163-1.395-.48-.332-.318-.502-.864-.502-1.639v-5.631h3.1V9.633h-3.1V6.046l-2.251.782v2.805h-2.185v1.735h2.185v5.809c0 1.247.317 2.199.96 2.849.641.65 1.535.981 2.694.981Zm8.606 0c1.085 0 2.044-.236 2.879-.716a4.808 4.808 0 0 0 1.926-2.022c.45-.878.68-1.897.68-3.07 0-1.174-.23-2.2-.68-3.086a4.76 4.76 0 0 0-1.926-2.037c-.835-.473-1.794-.716-2.88-.716-1.099 0-2.066.236-2.9.716a4.76 4.76 0 0 0-1.926 2.037c-.45.886-.68 1.912-.68 3.085 0 1.174.23 2.2.68 3.07a4.766 4.766 0 0 0 1.926 2.023c.834.473 1.801.716 2.9.716Zm-.022-1.779c-1.026 0-1.816-.34-2.377-1.026-.553-.686-.834-1.683-.834-3.004 0-1.291.28-2.288.849-2.982.56-.7 1.358-1.048 2.384-1.048 1.011 0 1.794.347 2.355 1.048.56.702.834 1.69.834 2.982 0 1.322-.273 2.325-.827 3.004-.546.687-1.344 1.026-2.384 1.026Zm10.363 1.624v-6.348c0-1.025.25-1.83.76-2.428.502-.59 1.189-.893 2.052-.893.746 0 1.284.221 1.617.664.332.443.502 1.152.502 2.119v6.879h2.25v-6.348c0-1.026.252-1.83.746-2.428.495-.59 1.181-.893 2.037-.893.746 0 1.285.221 1.617.664.332.443.502 1.151.502 2.118v6.88h2.251v-6.99c0-2.997-1.247-4.496-3.742-4.496-.834 0-1.58.192-2.237.576a3.785 3.785 0 0 0-1.505 1.58c-.532-1.44-1.668-2.163-3.41-2.163-.82 0-1.528.185-2.141.554-.613.369-1.078.9-1.402 1.58l-.2-1.868h-2.096c.118.937.177 1.985.177 3.159v8.06h2.23l-.008.022Z"/></g><defs><clipPath id="a"><path fill="#fff" transform="translate(0 .133)" d="M0 0h100v25.937H0z"/></clipPath></defs></svg>