<svg width="81" height="37" fill="none" xmlns="http://www.w3.org/2000/svg"><path d="M54.223 14.33c-1.445 0-2.523.71-2.523 2.418 0 1.275.71 2.18 2.444 2.18 1.47 0 2.47-.867 2.47-2.234 0-1.55-.893-2.364-2.39-2.364Zm-2.89 12.061c-.342.42-.683.867-.683 1.381 0 1.05 1.339 1.367 3.179 1.367 1.524 0 3.6-.106 3.6-1.524 0-.841-1-.894-2.261-.973l-3.825-.262-.01.011Zm7.778-11.983c.472.606.972 1.445.972 2.654 0 2.916-2.295 4.624-5.596 4.624-.85 0-1.594-.106-2.077-.236l-.867 1.381 2.576.158c4.547.289 7.225.421 7.225 3.914 0 3.022-2.652 4.728-7.225 4.728-4.756 0-6.568-1.21-6.568-3.294 0-1.182.527-1.813 1.445-2.681-.867-.366-1.156-1.023-1.156-1.732 0-.578.289-1.105.762-1.594l1.629-1.577c-1.288-.629-2.261-1.997-2.261-3.931 0-3.022 1.997-5.097 6.018-5.097 1.13 0 1.814.105 2.418.264h5.124v2.233l-2.418.183m7.04-4.772c-1.488 0-2.365-.867-2.365-2.367s.867-2.312 2.364-2.312c1.524 0 2.391.816 2.391 2.312s-.867 2.367-2.39 2.367Zm-3.4 15.79V23.35l1.34-.184c.368-.053.421-.131.421-.527v-7.723c0-.289-.079-.473-.342-.552l-1.42-.5.29-2.126h5.44v10.905c0 .421.025.473.42.527l1.339.184v2.072h-7.491m17.892-1.02c-1.13.553-2.786 1.063-4.284 1.063-3.128 0-4.31-1.26-4.31-4.23v-6.886c0-.157 0-.263-.212-.263h-1.827v-2.338c2.312-.255 3.232-1.42 3.521-4.284h2.497V11.2c0 .183 0 .263.21.263h3.707v2.627h-3.926v6.269c0 1.55.37 2.154 1.785 2.154.736 0 1.488-.183 2.129-.42l.71 2.313" fill="#fff"/><path d="M36.068 16.862 20.316 1.112a2.323 2.323 0 0 0-3.285 0l-3.27 3.27 4.148 4.149a2.758 2.758 0 0 1 3.492 3.516l3.998 3.998a2.762 2.762 0 1 1 .185 5.28 2.763 2.763 0 0 1-1.84-3.722l-3.719-3.719v9.813c.255.131.512.304.731.523a2.765 2.765 0 1 1-3.004-.604v-9.902a2.993 2.993 0 0 1-.905-.595 2.763 2.763 0 0 1-.595-3.022l-4.09-4.09L1.354 16.787a2.33 2.33 0 0 0 0 3.287l15.753 15.75a2.323 2.323 0 0 0 3.285 0l15.676-15.677a2.33 2.33 0 0 0 0-3.286Z" fill="#F03C2E"/></svg>