<svg width="67" height="19" fill="none" xmlns="http://www.w3.org/2000/svg"><path d="M12.936 8.212H7.307c-.148 0-.26.11-.26.257v2.724c0 .147.112.258.26.258H9.5v3.386s-.501.165-1.857.165c-1.598 0-3.846-.588-3.846-5.465 0-4.895 2.341-5.54 4.533-5.54 1.895 0 2.712.332 3.232.497.168.056.316-.11.316-.257l.632-2.632c0-.073-.019-.147-.093-.202C12.21 1.256 10.91.538 7.66.538 3.908.538.062 2.12.062 9.72c0 7.6 4.403 8.741 8.118 8.741 3.084 0 4.942-1.306 4.942-1.306.074-.037.093-.148.093-.203V8.451a.28.28 0 0 0-.28-.24ZM41.915 1.44a.253.253 0 0 0-.26-.258h-3.158c-.149 0-.26.11-.26.258v6.054h-4.942V1.44a.253.253 0 0 0-.26-.258h-3.158c-.148 0-.26.11-.26.258v16.415c0 .147.112.257.26.257h3.158c.149 0 .26-.11.26-.257v-7.012h4.942v7.012c0 .147.111.257.26.257h3.176c.149 0 .26-.11.26-.257V1.44h-.018ZM18.9 3.611a2.044 2.044 0 1 0-4.088.002 2.044 2.044 0 0 0 4.087-.002ZM18.677 14.395V6.813a.253.253 0 0 0-.26-.257H15.26c-.149 0-.279.147-.279.294v10.858c0 .313.205.405.465.405h2.842c.316 0 .39-.148.39-.424v-3.294ZM53.934 6.592h-3.14c-.148 0-.26.11-.26.258v8.042s-.798.57-1.931.57c-1.134 0-1.43-.515-1.43-1.6V6.85a.253.253 0 0 0-.26-.258h-3.196c-.148 0-.26.11-.26.258v7.545c0 3.258 1.84 4.067 4.365 4.067 2.081 0 3.734-1.14 3.734-1.14s.075.588.112.662c.037.073.13.147.223.147h2.025c.148 0 .26-.11.26-.258V6.85c.018-.147-.093-.258-.242-.258ZM62.535 6.224c-1.783 0-2.99.792-2.99.792V1.458a.253.253 0 0 0-.26-.258h-3.177c-.149 0-.26.11-.26.258v16.415c0 .147.111.258.26.258h2.21c.093 0 .168-.055.223-.147.056-.092.13-.755.13-.755s1.3 1.215 3.753 1.215c2.879 0 4.532-1.454 4.532-6.515 0-5.042-2.638-5.705-4.42-5.705Zm-1.244 9.239c-1.096-.037-1.82-.516-1.82-.516v-5.19s.724-.441 1.615-.515c1.133-.092 2.23.24 2.23 2.908-.02 2.797-.502 3.368-2.026 3.313ZM27.779 6.556H25.4v-3.11c0-.11-.056-.185-.204-.185h-3.233c-.13 0-.185.056-.185.166v3.22s-1.616.387-1.728.424a.26.26 0 0 0-.186.257v2.025c0 .147.112.257.26.257h1.654v4.859c0 3.607 2.545 3.956 4.272 3.956.78 0 1.728-.257 1.876-.313.093-.036.149-.128.149-.239v-2.227a.264.264 0 0 0-.26-.257c-.13 0-.502.055-.855.055-1.17 0-1.56-.534-1.56-1.233V9.592h2.378c.148 0 .26-.11.26-.258v-2.52a.264.264 0 0 0-.26-.258Z" fill="#fff"/></svg>