<svg width="86" height="19" fill="none" xmlns="http://www.w3.org/2000/svg"><path d="m19.215 7.567-.026-.07-2.612-6.84a.689.689 0 0 0-1.305.07l-1.764 5.42H6.367L4.604.728a.695.695 0 0 0-.736-.5.69.69 0 0 0-.57.43l-2.61 6.84-.028.069a4.885 4.885 0 0 0 1.61 5.626l.01.008.022.017 3.974 2.99 1.972 1.495 1.197.909a.807.807 0 0 0 .976 0l1.198-.91 1.972-1.495 4.002-3.006.012-.009a4.885 4.885 0 0 0 1.61-5.625Z" fill="#E24329"/><path d="m19.216 7.567-.026-.07a8.796 8.796 0 0 0-3.512 1.586L9.94 13.437l3.653 2.77 4.003-3.006.01-.009a4.885 4.885 0 0 0 1.608-5.625Z" fill="#FC6D26"/><path d="m6.277 16.207 1.972 1.496 1.198.909a.807.807 0 0 0 .976 0l1.198-.91 1.971-1.495-3.652-2.77-3.663 2.77Z" fill="#FCA326"/><path d="M4.198 9.083A8.788 8.788 0 0 0 .688 7.5l-.028.068a4.885 4.885 0 0 0 1.61 5.626l.01.008.022.017 3.974 2.99 3.655-2.771-5.733-4.354Z" fill="#FC6D26"/><path d="M34.855 7.213h2.807c-.468-2.995-3.053-5.082-6.416-5.082-3.979 0-6.965 2.936-6.965 7.854 0 4.83 2.852 7.825 7.047 7.825 3.764 0 6.46-2.43 6.46-6.364V9.613h-6.17v2.16h3.504c-.044 2.177-1.492 3.555-3.78 3.555-2.545 0-4.29-1.914-4.29-5.373 0-3.436 1.774-5.343 4.231-5.343 1.834 0 3.088.983 3.572 2.601ZM39.645 17.601h2.687V6.161h-2.687V17.6ZM41 4.342c.854 0 1.552-.656 1.552-1.46 0-.804-.698-1.468-1.552-1.468-.854 0-1.559.655-1.559 1.468 0 .812.693 1.46 1.554 1.46H41ZM50.38 6.16h-2.25V3.412h-2.688V6.16h-1.618v2.087h1.618v6.365c-.014 2.153 1.546 3.216 3.564 3.153a5.439 5.439 0 0 0 1.582-.269l-.453-2.11a3.26 3.26 0 0 1-.786.105c-.677 0-1.219-.239-1.219-1.327V8.241h2.25V6.16ZM52.46 17.601h9.453v-2.317h-6.697V2.338h-2.755V17.6ZM67.061 17.833c1.79 0 2.858-.843 3.348-1.804h.089v1.572h2.588v-7.66c0-3.026-2.457-3.935-4.634-3.935-2.398 0-4.239 1.072-4.833 3.159l2.51.359c.267-.783 1.024-1.454 2.342-1.454 1.248 0 1.93.641 1.93 1.766v.045c0 .774-.809.813-2.821 1.028-2.212.239-4.328.901-4.328 3.48-.007 2.251 1.633 3.444 3.81 3.444Zm.884-1.98c-1.122 0-1.924-.514-1.924-1.505 0-1.036.898-1.468 2.095-1.64.706-.096 2.117-.275 2.465-.557v1.348c.007 1.27-1.018 2.351-2.636 2.351v.004ZM75.066 17.601h2.644v-1.803h.155c.424.835 1.308 2.005 3.268 2.005 2.688 0 4.7-2.14 4.7-5.91 0-3.815-2.071-5.887-4.707-5.887-2.013 0-2.852 1.215-3.261 2.042h-.113v-5.71h-2.686v15.263Zm2.636-5.722c0-2.227.95-3.66 2.68-3.66 1.79 0 2.712 1.527 2.712 3.66 0 2.132-.936 3.71-2.711 3.71-1.716 0-2.68-1.49-2.68-3.71Z" fill="#fff"/></svg>