<svg width="329" height="71" viewBox="0 0 329 71" fill="none" xmlns="http://www.w3.org/2000/svg">
<path d="M72.6381 28.1033L72.5385 27.8382L62.4847 1.6631C62.2812 1.14914 61.9191 0.71315 61.4509 0.418237C61.1015 0.195 60.7046 0.0565658 60.2919 0.0140264C59.8793 -0.0285129 59.4624 0.0260283 59.0746 0.173278C58.6869 0.320527 58.3391 0.556389 58.0592 0.861959C57.7792 1.16753 57.5749 1.53431 57.4626 1.93289L50.6763 22.6695H23.1944L16.4081 1.93289C16.2949 1.5349 16.0901 1.16881 15.81 0.863829C15.5299 0.558844 15.1823 0.3234 14.7949 0.176271C14.4075 0.0291422 13.991 -0.0256006 13.5786 0.0164098C13.1663 0.0584203 12.7694 0.19602 12.4198 0.418237C11.9515 0.71315 11.5895 1.14914 11.386 1.6631L1.33693 27.843L1.2326 28.1033C-0.21417 31.8772 -0.392406 36.0182 0.724756 39.9021C1.84192 43.7859 4.19392 47.2019 7.4261 49.6351L7.46404 49.6634L7.5494 49.7297L22.8435 61.1701L30.4312 66.8927L35.0408 70.3716C35.5816 70.7794 36.2409 71 36.9187 71C37.5965 71 38.2559 70.7794 38.7967 70.3716L43.4063 66.8927L50.994 61.1701L66.3971 49.6634L66.4398 49.6303C69.6718 47.1981 72.0241 43.7832 73.1421 39.9003C74.2601 36.0174 74.0832 31.8771 72.6381 28.1033Z" fill="#E24329"/>
<path d="M72.6372 28.1032L72.5376 27.8381C67.6392 28.8414 63.0237 30.9136 59.0219 33.9062L36.9463 50.5674L51.0026 61.17L66.4057 49.6634L66.4484 49.6302C69.6788 47.1967 72.0292 43.7813 73.1454 39.8985C74.2617 36.0157 74.0833 31.876 72.6372 28.1032V28.1032Z" fill="#FC6D26"/>
<path d="M22.8457 61.17L30.4335 66.8925L35.043 70.3715C35.5839 70.7793 36.2432 70.9999 36.921 70.9999C37.5988 70.9999 38.2581 70.7793 38.7989 70.3715L43.4085 66.8925L50.9963 61.17L36.94 50.5674L22.8457 61.17Z" fill="#FCA326"/>
<path d="M14.8479 33.9061C10.8475 30.915 6.23357 28.8444 1.33693 27.8428L1.2326 28.1031C-0.21417 31.877 -0.392406 36.018 0.724756 39.9019C1.84192 43.7857 4.19392 47.2017 7.4261 49.6349L7.46404 49.6633L7.5494 49.7295L22.8435 61.1699L36.9093 50.5673L14.8479 33.9061Z" fill="#FC6D26"/>
<path d="M132.827 26.7499H143.63C141.828 15.2858 131.883 7.30078 118.941 7.30078C103.628 7.30078 92.1377 18.5376 92.1377 37.3572C92.1377 55.8407 103.111 67.3048 119.254 67.3048C133.742 67.3048 144.114 58.0038 144.114 42.9472V35.9325H120.369V44.2016H133.856C133.685 52.5322 128.113 57.805 119.311 57.805C109.514 57.805 102.798 50.4779 102.798 37.2436C102.798 24.0945 109.627 16.7958 119.084 16.7958C126.14 16.7958 130.968 20.5587 132.827 26.7499Z" fill="white"/>
<path d="M151.257 66.5046H161.6V22.7216H151.257V66.5046ZM156.474 15.7636C159.76 15.7636 162.444 13.2502 162.444 10.1736C162.444 7.09696 159.76 4.55518 156.474 4.55518C153.187 4.55518 150.475 7.06382 150.475 10.1736C150.475 13.2834 153.14 15.7636 156.455 15.7636H156.474Z" fill="white"/>
<path d="M192.574 22.7212H183.914V12.2039H173.571V22.7212H167.345V30.7063H173.571V55.0639C173.515 63.3045 179.518 67.3704 187.286 67.129C189.356 67.088 191.408 66.7418 193.375 66.1019L191.63 58.0269C190.642 58.2829 189.626 58.418 188.605 58.4292C186.001 58.4292 183.914 57.5157 183.914 53.3504V30.6826H192.574V22.7212Z" fill="white"/>
<path d="M200.577 66.5046H236.951V57.6344H211.181V8.0957H200.577V66.5046Z" fill="white"/>
<path d="M256.763 67.3897C263.649 67.3897 267.761 64.1663 269.648 60.4885H269.99V66.5045H279.949V37.1865C279.949 25.6089 270.492 22.1299 262.117 22.1299C252.889 22.1299 245.804 26.2336 243.518 34.2187L253.178 35.5914C254.202 32.5952 257.119 30.0298 262.188 30.0298C266.992 30.0298 269.62 32.4816 269.62 36.7889V36.9593C269.62 39.9223 266.504 40.0691 258.76 40.8927C250.247 41.8062 242.105 44.3432 242.105 54.2122C242.076 62.8268 248.388 67.3897 256.763 67.3897ZM260.163 59.8164C255.848 59.8164 252.761 57.8473 252.761 54.056C252.761 50.0895 256.218 48.4375 260.823 47.7796C263.54 47.4104 268.97 46.7241 270.307 45.6449V50.8042C270.336 55.6653 266.39 59.8022 260.163 59.8022V59.8164Z" fill="white"/>
<path d="M287.566 66.5046H297.739V59.6034H298.336C299.968 62.7984 303.368 67.2761 310.913 67.2761C321.256 67.2761 329 59.0875 329 44.6604C329 30.0582 321.028 22.1299 310.885 22.1299C303.14 22.1299 299.911 26.778 298.336 29.9446H297.9V8.0957H287.566V66.5046ZM297.71 44.6036C297.71 36.0837 301.367 30.5978 308.025 30.5978C314.911 30.5978 318.458 36.4434 318.458 44.6036C318.458 52.7638 314.859 58.8035 308.025 58.8035C301.424 58.8035 297.71 53.0999 297.71 44.6036Z" fill="white"/>
</svg>
