<svg width="45" height="61" fill="none" xmlns="http://www.w3.org/2000/svg"><path d="M14.79 46.388s-2.306 1.403 1.604 1.804c4.706.6 7.213.5 12.421-.5a18.784 18.784 0 0 0 3.306 1.602c-11.719 5.01-26.55-.3-17.333-2.906h.002Zm-1.5-6.512s-2.505 1.903 1.403 2.306c5.11.501 9.116.6 16.031-.8a6.112 6.112 0 0 0 2.404 1.502c-14.126 4.207-29.955.401-19.838-3.006v-.002Zm27.651 11.419s1.703 1.402-1.903 2.505c-6.713 2.006-28.151 2.606-34.163 0-2.103-.9 1.903-2.203 3.188-2.404 1.303-.3 2.006-.3 2.006-.3-2.306-1.603-15.328 3.306-6.611 4.707 23.944 3.907 43.68-1.703 37.468-4.508h.015ZM15.874 33.062s-10.92 2.607-3.907 3.507c3.005.401 8.915.3 14.426-.1 4.507-.4 9.019-1.2 9.019-1.2s-1.603.702-2.706 1.403C21.587 39.578.246 38.275 6.358 35.269c5.21-2.505 9.518-2.203 9.518-2.203l-.002-.004Zm19.538 10.92c11.22-5.812 6.01-11.418 2.403-10.719-.9.2-1.303.401-1.303.401s.3-.6 1.002-.8c7.113-2.505 12.723 7.513-2.307 11.419 0 0 .1-.1.2-.3h.005ZM16.98 59.813c10.82.7 27.351-.402 27.75-5.513 0 0-.8 2.006-8.915 3.506-9.218 1.703-20.638 1.5-27.35.401 0 0 1.402 1.2 8.515 1.603v.002Z" fill="#3174B9"/><path d="M28.616.002s6.212 6.311-5.91 15.829c-9.718 7.713-2.203 12.122 0 17.132-5.711-5.11-9.818-9.62-7.013-13.825C19.8 12.924 31.121 9.938 28.616.002Zm-3.188 28.753c2.907 3.306-.8 6.311-.8 6.311s7.413-3.806 4.007-8.516c-3.105-4.507-5.513-6.712 7.513-14.226 0 0-20.537 5.11-10.72 16.431Z" fill="#CA3132"/></svg>