<svg width="41" height="41" fill="none" xmlns="http://www.w3.org/2000/svg"><rect x=".723" y=".118" width="40" height="40" rx="4" fill="#141414"/><g opacity=".3" fill="#fff"><path d="m28.617 33.213 1.628-1.077c.127.4.935 1.352 1.955 1.352s1.494-.557 1.494-.926c0-1.007-1.041-1.362-1.542-1.533a2.85 2.85 0 0 1-.195-.07l-.104-.042c-.557-.212-2.61-.997-2.61-3.27 0-2.505 2.417-2.793 2.963-2.793.358 0 2.077.044 2.934 1.653l-1.58 1.102c-.345-.701-.92-.933-1.275-.933-.874 0-1.056.641-1.056.933 0 .819.95 1.186 1.752 1.496.21.08.41.158.58.238.874.413 2.162 1.09 2.162 3.219 0 1.066-.895 2.792-3.146 2.792-3.024 0-3.826-1.816-3.96-2.141ZM20.723 33.426l1.696-1.076c.133.4.65 1.14 1.399 1.14.75 0 1.133-.77 1.133-1.14v-7.26h2.086v7.26c.034 1.001-.521 3.004-2.972 3.004-2.254 0-3.19-1.34-3.342-1.928Z"/></g></svg>