<svg width="64" height="64" fill="none" xmlns="http://www.w3.org/2000/svg"><rect x="4" y="4" width="56" height="56" rx="2" fill="#F3BA2F"/><path d="m38 50.575 4.123-2.728c.323 1.015 2.37 3.426 4.954 3.426 2.584 0 3.785-1.412 3.785-2.347 0-2.55-2.64-3.45-3.907-3.882a7.353 7.353 0 0 1-.493-.179c-.06-.026-.15-.06-.266-.105-1.41-.538-6.611-2.526-6.611-8.286 0-6.344 6.123-7.074 7.507-7.074.906 0 5.262.111 7.431 4.188l-4 2.791c-.877-1.776-2.334-2.363-3.23-2.363-2.216 0-2.678 1.624-2.678 2.363 0 2.075 2.407 3.004 4.44 3.79.531.205 1.038.4 1.468.604C52.738 41.82 56 43.533 56 48.926c0 2.7-2.266 7.074-7.97 7.074-7.66 0-9.691-4.6-10.03-5.425ZM18 51.117l4.297-2.727c.337 1.015 1.645 2.886 3.544 2.886s2.87-1.95 2.87-2.886V30h5.285v18.39c.086 2.537-1.32 7.61-7.53 7.61-5.708 0-8.081-3.393-8.466-4.883Z" fill="#fff"/></svg>