<svg width="41" height="41" viewBox="0 0 41 41" fill="none" xmlns="http://www.w3.org/2000/svg">
<rect x="0.722656" y="0.117676" width="40" height="40" rx="4" fill="#141414"/>
<g opacity="0.3">
<path d="M32.3008 14.9538C32.2994 14.7209 32.2969 14.4881 32.2904 14.255C32.2768 13.7478 32.2469 13.2359 32.1567 12.7341C32.0652 12.2246 31.9157 11.7507 31.68 11.2878C31.4487 10.8332 31.1463 10.4172 30.7855 10.0564C30.4248 9.69567 30.0088 9.39329 29.554 9.16183C29.0915 8.92643 28.6176 8.77694 28.1085 8.68546C27.6064 8.59504 27.0946 8.56525 26.587 8.55152C26.3539 8.5452 26.1211 8.54255 25.8881 8.54111C25.6116 8.53955 25.3349 8.53955 25.0584 8.53955H18.9282H16.3886C16.1118 8.53955 15.8354 8.53955 15.559 8.54115C15.3259 8.54259 15.0928 8.54524 14.8601 8.55156C14.7332 8.55499 14.6061 8.55944 14.4788 8.56556C14.0972 8.58396 13.715 8.61769 13.3386 8.6855C12.9567 8.75413 12.5947 8.85535 12.2424 9.00099C12.125 9.04949 12.0086 9.10299 11.893 9.16183C11.5519 9.33542 11.2325 9.54891 10.9421 9.79697C10.8453 9.87968 10.7517 9.9662 10.6615 10.0564C10.3007 10.4171 9.99824 10.8332 9.7669 11.2878C9.53123 11.7507 9.38189 12.2245 9.29034 12.7341C9.20027 13.2359 9.17032 13.7477 9.15667 14.2549C9.15028 14.4881 9.14759 14.7209 9.14607 14.9538C9.14431 15.2304 9.14455 15.507 9.14455 15.7836V19.5588V24.4533C9.14455 24.7301 9.14427 25.0065 9.14607 25.2833C9.14759 25.5162 9.15028 25.749 9.15667 25.9817C9.17032 26.4892 9.20023 27.0012 9.29034 27.5027C9.38189 28.0122 9.53123 28.4864 9.7669 28.9492C9.99824 29.4039 10.3007 29.8198 10.6615 30.1804C11.0221 30.5413 11.4382 30.8437 11.893 31.0753C12.3556 31.3107 12.8295 31.46 13.3387 31.5515C13.8405 31.6418 14.3527 31.6719 14.8602 31.6854C15.0929 31.6916 15.326 31.6944 15.559 31.6957C15.8355 31.6977 16.1119 31.6974 16.3886 31.6974H25.0584C25.3349 31.6974 25.6116 31.6977 25.8881 31.6957C26.1211 31.6944 26.3539 31.6916 26.5869 31.6854C27.0945 31.6719 27.6064 31.6418 28.1084 31.5515C28.6175 31.46 29.0915 31.3107 29.554 31.0753C30.0088 30.8437 30.4248 30.5413 30.7855 30.1804C31.1462 29.8198 31.4487 29.4039 31.68 28.9492C31.9157 28.4864 32.0652 28.0122 32.1567 27.5027C32.2468 27.0012 32.2768 26.4892 32.2904 25.9817C32.2968 25.749 32.2993 25.5162 32.3008 25.2833C32.3025 25.0065 32.3024 24.7301 32.3024 24.4533V15.7836C32.3024 15.507 32.3025 15.2304 32.3008 14.9538Z" fill="#141414"/>
<path d="M27.4942 22.8343C27.4937 22.8336 27.4932 22.8331 27.4926 22.8324C27.5182 22.7452 27.5447 22.6586 27.5671 22.5692C28.5282 18.7398 26.1824 14.2124 22.2128 11.8286C23.9524 14.1868 24.7215 17.0432 24.0382 19.5411C23.9772 19.7639 23.9039 19.9777 23.823 20.1856C23.7351 20.1278 23.6243 20.0623 23.4756 19.9803C23.4756 19.9803 19.5269 17.5422 15.2471 13.2298C15.1348 13.1166 17.5293 16.6522 20.2467 19.5232C18.9664 18.8046 15.3985 16.2087 13.1397 14.1413C13.4172 14.6041 13.7473 15.0498 14.1101 15.4788C15.9964 17.8709 18.4563 20.8225 21.4034 23.0889C19.3327 24.3561 16.4069 24.4546 13.4937 23.0902C12.7732 22.7525 12.0958 22.3451 11.4688 21.8822C12.7019 23.8546 14.6011 25.5564 16.9126 26.5499C19.6691 27.7345 22.4103 27.6542 24.452 26.5693L24.4504 26.5716C24.4597 26.5658 24.4716 26.5593 24.4812 26.5534C24.5651 26.5083 24.6483 26.4624 24.7296 26.4139C25.7106 25.9048 27.6481 25.3882 28.6881 27.4117C28.9428 27.9069 29.484 25.2825 27.4942 22.8343Z" fill="white"/>
</g>
</svg>
