<svg width="33" height="29" fill="none" xmlns="http://www.w3.org/2000/svg"><g clip-path="url(#a)" fill="#736AE4"><path d="M12.231 7.739c.222-1.666.332-2.499.741-3.092a3 3 0 0 1 1.472-1.127c.68-.24 1.512-.128 3.178.093l6.344.843c1.666.222 2.498.332 3.091.74a3 3 0 0 1 1.127 1.473c.24.68.13 1.512-.092 3.178l-1.37 10.31c-.222 1.665-.333 2.497-.741 3.09a3 3 0 0 1-1.473 1.127c-.679.24-1.512.13-3.177-.092l-6.344-.843c-1.666-.222-2.499-.332-3.092-.741a3 3 0 0 1-1.127-1.473c-.24-.679-.128-1.512.093-3.177l1.37-10.31Z" fill-opacity=".25"/><path d="m17.82 3.64 5.948.79-.132.991a1 1 0 0 1-1.123.86l-3.965-.528a1 1 0 0 1-.86-1.123l.132-.99Z"/></g><path d="M4 20.47v-7.2c0-1.68 0-2.52.327-3.161a3 3 0 0 1 1.311-1.311C6.28 8.47 7.12 8.47 8.8 8.47h6.4c1.68 0 2.52 0 3.162.327a3 3 0 0 1 1.311 1.31c.327.643.327 1.482.327 3.163v7.2H4Z" fill="#736AE4" fill-opacity=".25"/><path d="M4.667 24.47c-.62 0-.93 0-1.185-.067a2 2 0 0 1-1.414-1.415C2 22.734 2 22.424 2 21.804c0-.31 0-.465.034-.592a1 1 0 0 1 .707-.707c.127-.034.282-.034.592-.034h17.334c.31 0 .465 0 .592.034a1 1 0 0 1 .707.707c.034.127.034.282.034.592 0 .62 0 .93-.068 1.184a2 2 0 0 1-1.414 1.415c-.255.068-.565.068-1.185.068H4.667Z" fill="#736AE4"/><defs><clipPath id="a"><path fill="#fff" transform="rotate(7.571 1.024 69.47)" d="M0 0h24v24H0z"/></clipPath></defs></svg>