<svg width="24" height="25" viewBox="0 0 24 25" fill="none" xmlns="http://www.w3.org/2000/svg">
<path d="M4 16.4707L4 9.2707C4 7.59055 4 6.75047 4.32698 6.10873C4.6146 5.54425 5.07354 5.0853 5.63803 4.79768C6.27976 4.4707 7.11984 4.4707 8.8 4.4707L15.2 4.4707C16.8802 4.4707 17.7202 4.4707 18.362 4.79768C18.9265 5.0853 19.3854 5.54424 19.673 6.10873C20 6.75047 20 7.59055 20 9.2707V16.4707L4 16.4707Z" fill="#736AE4" fill-opacity="0.25"/>
<path d="M4.66667 20.4707C4.04669 20.4707 3.7367 20.4707 3.48236 20.4026C2.79218 20.2176 2.25308 19.6785 2.06815 18.9883C2 18.734 2 18.424 2 17.804C2 17.494 2 17.3391 2.03407 17.2119C2.12654 16.8668 2.39609 16.5972 2.74118 16.5048C2.86835 16.4707 3.02334 16.4707 3.33333 16.4707L20.6667 16.4707C20.9767 16.4707 21.1317 16.4707 21.2588 16.5048C21.6039 16.5972 21.8735 16.8668 21.9659 17.2119C22 17.3391 22 17.494 22 17.804C22 18.424 22 18.734 21.9319 18.9883C21.7469 19.6785 21.2078 20.2176 20.5176 20.4026C20.2633 20.4707 19.9533 20.4707 19.3333 20.4707L4.66667 20.4707Z" fill="#736AE4"/>
</svg>
