<svg width="81" height="33" viewBox="0 0 81 33" fill="none" xmlns="http://www.w3.org/2000/svg">
<path d="M1.86887 24.9623V12.0396L4.1784 13.186L4.16848 21.9367L13.7408 26.8026V30.7911L1.86887 24.9623Z" fill="#F0B270" fill-opacity="0.17"/>
<path d="M17.6461 10.6093L5.30751 4.3584L5.12222 4.47469L17.4744 10.6795L17.6461 10.6093Z" fill="#787878" fill-opacity="0.67"/>
<path d="M8.15851 14.9973L13.6678 12.3623L13.8274 12.442L8.31742 15.077L8.15851 14.9973Z" fill="#787878"/>
<path d="M0.735786 11.2476L13.7863 17.8378L13.5791 17.9482L0.497772 11.3274L0.735786 11.2476Z" fill="url(#paint0_linear_44_1350)"/>
<path d="M13.748 17.8687H13.9001V32.0678H13.7405L13.748 17.8687Z" fill="url(#paint1_linear_44_1350)"/>
<path d="M4.12335 13.1616L4.30015 13.2279V22.0161L4.12335 21.9241V13.1616Z" fill="url(#paint2_linear_44_1350)"/>
<path d="M22.1557 12.163V8.72484L26.5833 6.62158L27.99 7.40401V20.2339L24.2696 18.3477L24.2699 13.2425L22.1557 12.163Z" fill="#736AE4" fill-opacity="0.21"/>
<path d="M24.2718 22.0166V18.5435L27.9413 20.3415L24.2718 22.0166Z" fill="url(#paint3_linear_44_1350)"/>
<path d="M24.2642 13.2174L22.1217 12.1392L22.0422 12.2971L24.1848 13.3754L24.2642 13.2174Z" fill="#787878"/>
<path d="M22.9869 27.8448L17.4632 25.0649L17.3837 25.2229L22.9074 28.0027L22.9869 27.8448Z" fill="#F0B270"/>
<path d="M24.2718 18.3506L28.0581 20.2616L28.0161 20.4208L24.2718 18.5523V18.3506Z" fill="#736AE4"/>
<path d="M23.5636 22.4136L29.0584 25.1789L28.9791 25.3369L23.3957 22.4958L23.5636 22.4136Z" fill="#F0B270"/>
<path d="M22.155 8.62354H21.9782V14.1041H22.155V8.62354Z" fill="#787878"/>
<path d="M24.2773 13.2192H24.1005V22.0589H24.2773V13.2192Z" fill="#787878"/>
<path d="M4.32816 4.06885L5.28537 4.2284V9.33366L4.32816 9.7033V4.06885Z" fill="#736AE4"/>
<path d="M0.494995 11.3271L1.86515 11.8568V24.9762L0.494995 25.595V11.3271Z" fill="#F0B270"/>
<path d="M1.86515 24.9766L13.7368 30.7913V32.2271L0.494995 25.5954L1.86515 24.9766Z" fill="#F0B270"/>
<path d="M17.4743 16.314L17.6526 16.1938L17.6511 25.1537H17.4743V16.314Z" fill="#787878"/>
<path d="M22.1957 8.53585L9.94792 2.34717L9.75226 2.39357L21.9564 8.61562L22.1957 8.53585Z" fill="#787878"/>
<path d="M7.63165 9.12651L19.6624 15.1812L19.5829 15.3391L7.55217 9.28443L7.63165 9.12651Z" fill="url(#paint4_linear_44_1350)"/>
<path d="M13.668 17.8578L24.0568 13.1807L24.1294 13.3419L13.8188 17.9486L13.668 17.8578Z" fill="#787878"/>
<path d="M13.7379 31.9081L29.0516 25.1689L29.1239 25.33L13.7377 32.2274L13.7379 31.9081Z" fill="#F0B270"/>
<path d="M5.60773 21.3789L14.5419 17.4702V17.6298L5.77254 21.5025L5.60773 21.3789Z" fill="url(#paint5_linear_44_1350)"/>
<path d="M10.5502 7.01953L19.7011 3.11279L19.7703 3.27551L10.7098 7.17906L10.5502 7.01953Z" fill="url(#paint6_linear_44_1350)"/>
<path d="M22.1775 8.51772L26.4503 6.55469L26.5826 6.70081L22.2512 8.67837L22.1775 8.51772Z" fill="url(#paint7_linear_44_1350)"/>
<path d="M4.32816 4.06824L13.5811 0L14.3267 0.385851L5.13957 4.60655L4.32816 4.06824Z" fill="#736AE4"/>
<path d="M0.494995 11.3276L10.546 7.02002L11.5032 7.49864L1.61177 11.7264L0.494995 11.3276Z" fill="#F1AE66"/>
<path d="M5.7634 21.4583L13.7404 17.9028V25.3669L5.7634 21.4583Z" fill="#F0B270" fill-opacity="0.16"/>
<path d="M5.60374 21.3784L13.7403 25.3669V26.8027L4.21152 21.971L5.60374 21.3784Z" fill="#F0B270"/>
<path d="M13.5832 0L28.1016 7.25904V7.49834L14.1157 0.425497L13.5832 0Z" fill="#736AE4"/>
<path d="M13.9029 26.6442L27.8626 20.3423L28.1019 20.4221L13.9029 26.8835V26.6442Z" fill="#787878"/>
<path d="M27.9386 7.39601L28.0982 7.33936V20.4216L27.9386 20.371V7.39601Z" fill="#736AE4"/>
<path d="M17.8845 10.5298H18.044V14.5183L17.8845 14.4352V10.5298Z" fill="url(#paint8_linear_44_1350)"/>
<path d="M22.1783 8.51793L13.9347 12.3052L14.0085 12.4658L22.2521 8.67858L22.1783 8.51793Z" fill="url(#paint9_linear_44_1350)"/>
<path d="M42.4034 9.37271V24.3109H40.2429V9.37271H35.483V7.70898H47.198L46.9207 9.37271H42.4034Z" fill="black"/>
<path d="M52.5239 13.844C52.1619 13.844 51.8114 13.9017 51.4725 14.0173C51.1413 14.125 50.8409 14.31 50.5714 14.5717C50.3018 14.8337 50.0746 15.1802 49.8897 15.6117C49.7126 16.0352 49.6009 16.5935 49.5547 17.2867H55.0194C55.0194 17.1635 55.0232 17.0672 55.031 16.9981C55.0387 16.9363 55.0425 16.8748 55.0425 16.8131C55.0425 16.7516 55.0425 16.6938 55.0425 16.6397C55.0271 16.1468 54.9539 15.727 54.823 15.3805C54.6921 15.0261 54.5149 14.7374 54.2915 14.5139C54.0682 14.283 53.8063 14.1134 53.5059 14.0057C53.2055 13.8978 52.8782 13.844 52.5239 13.844ZM56.1747 23.9646C55.8974 24.0646 55.5894 24.1572 55.2505 24.242C54.9578 24.3111 54.615 24.3728 54.2222 24.4267C53.8294 24.4884 53.3981 24.5193 52.9282 24.5193C51.0643 24.5193 49.6625 24.0185 48.7228 23.0173C47.7832 22.0159 47.3133 20.5179 47.3133 18.523C47.3133 17.4063 47.4443 16.4627 47.7062 15.6924C47.968 14.9145 48.33 14.2714 48.7922 13.763C49.2543 13.2547 49.8011 12.8774 50.4327 12.6309C51.0643 12.3845 51.7459 12.2612 52.4777 12.2612C53.2017 12.2612 53.8371 12.3766 54.384 12.6077C54.9308 12.8389 55.3853 13.1468 55.7472 13.5321C56.1093 13.9094 56.3827 14.3445 56.5675 14.8375C56.7601 15.3304 56.8641 15.8426 56.8795 16.374C56.8795 16.5358 56.8718 16.74 56.8564 16.9864C56.8487 17.2252 56.8333 17.4485 56.8102 17.6564C56.7947 17.8567 56.7755 18.0417 56.7524 18.2111C56.737 18.3805 56.7177 18.5037 56.6946 18.5808H49.52V18.9966C49.52 19.7054 49.6047 20.3176 49.7742 20.8337C49.9436 21.3496 50.1824 21.7618 50.4905 22.07C50.8063 22.3703 51.1837 22.5859 51.6227 22.7168C52.0618 22.84 52.547 22.9017 53.0784 22.9017C53.5175 22.9017 53.9334 22.8785 54.3262 22.8323C54.7267 22.7785 55.081 22.7207 55.3891 22.659C55.7511 22.5898 56.0861 22.5088 56.3942 22.4165L56.1747 23.9646Z" fill="black"/>
<path d="M59.2246 18.4652C59.2246 17.6796 59.2901 16.9788 59.4209 16.3626C59.5597 15.7386 59.7444 15.1955 59.9756 14.7335C60.2144 14.2714 60.4917 13.8862 60.8073 13.5782C61.1308 13.2624 61.4776 13.0083 61.8473 12.8156C62.2246 12.6154 62.6175 12.4729 63.0257 12.3882C63.4416 12.3035 63.8575 12.2612 64.2733 12.2612C64.7818 12.2612 65.2439 12.2958 65.6597 12.3652C66.0759 12.4267 66.4339 12.4998 66.7342 12.5845C67.0886 12.6771 67.4045 12.7848 67.6815 12.908L67.8549 14.4678C67.5546 14.3598 67.2271 14.2638 66.873 14.1791C66.5725 14.1097 66.226 14.0442 65.8331 13.9825C65.4402 13.921 65.0243 13.8901 64.5855 13.8901C64.0693 13.8901 63.611 13.9748 63.2104 14.1443C62.8178 14.3137 62.4866 14.5833 62.2169 14.953C61.9552 15.3151 61.7549 15.7848 61.6161 16.3626C61.4776 16.9403 61.4082 17.6295 61.4082 18.4306C61.4082 19.193 61.4776 19.8632 61.6161 20.4408C61.7549 21.0185 61.9552 21.4921 62.2169 21.8618C62.4866 22.2238 62.8178 22.4896 63.2104 22.659C63.611 22.8207 64.0693 22.9017 64.5855 22.9017C65.0243 22.9017 65.4402 22.8748 65.8331 22.8207C66.2337 22.7592 66.5841 22.6938 66.8844 22.6244C67.2388 22.5397 67.5662 22.4473 67.8665 22.3471L67.6815 23.8836C67.4045 24.0068 67.0926 24.1148 66.7458 24.2071C66.4532 24.2918 66.0988 24.3652 65.6829 24.4267C65.2747 24.4884 64.824 24.5193 64.3311 24.5193C63.692 24.5193 63.068 24.423 62.4595 24.2303C61.851 24.0301 61.3042 23.6949 60.8189 23.2252C60.3413 22.7476 59.9563 22.1162 59.6637 21.3304C59.3711 20.5372 59.2246 19.5822 59.2246 18.4652Z" fill="black"/>
<path d="M70.6398 7.91692L72.7772 7.70898V13.6243C73.093 13.3778 73.4049 13.1699 73.7129 13.0005C74.0211 12.8232 74.3369 12.6807 74.6604 12.573C74.9837 12.4651 75.3151 12.388 75.6539 12.3418C76.0004 12.288 76.3701 12.2611 76.763 12.2611C77.4332 12.2611 78.0032 12.3611 78.4729 12.5614C78.9505 12.754 79.3395 13.0696 79.6398 13.5087C79.9403 13.9401 80.1559 14.4985 80.2868 15.184C80.4253 15.8617 80.4947 16.686 80.4947 17.6563V24.3109H78.3573V17.818C78.3573 17.0325 78.3111 16.3855 78.2188 15.8772C78.1264 15.3688 77.9876 14.9682 77.8029 14.6756C77.6256 14.3829 77.4024 14.1789 77.1327 14.0634C76.8709 13.9478 76.5667 13.89 76.2199 13.89C75.8658 13.89 75.5114 13.9478 75.157 14.0634C74.8029 14.171 74.4715 14.2982 74.1636 14.4447C73.8633 14.5832 73.5896 14.7217 73.3432 14.8605C73.1044 14.9914 72.9157 15.0801 72.7772 15.1262V24.3109H70.6398V7.91692Z" fill="black"/>
<defs>
<linearGradient id="paint0_linear_44_1350" x1="16.8447" y1="19.7829" x2="1.36946" y2="11.7261" gradientUnits="userSpaceOnUse">
<stop stop-color="#787878"/>
<stop offset="0.953125" stop-color="#EFB97F"/>
</linearGradient>
<linearGradient id="paint1_linear_44_1350" x1="13.8203" y1="17.8687" x2="13.8975" y2="34.3303" gradientUnits="userSpaceOnUse">
<stop stop-color="#787878"/>
<stop offset="1" stop-color="#F0B270"/>
</linearGradient>
<linearGradient id="paint2_linear_44_1350" x1="4.24799" y1="13.1616" x2="4.21174" y2="22.0161" gradientUnits="userSpaceOnUse">
<stop stop-color="#E0AF7C"/>
<stop offset="0.0571334" stop-color="#787878"/>
<stop offset="0.785457" stop-color="#8A8177"/>
<stop offset="1" stop-color="#F0B270"/>
</linearGradient>
<linearGradient id="paint3_linear_44_1350" x1="26.4257" y1="18.9854" x2="24.0326" y2="22.1762" gradientUnits="userSpaceOnUse">
<stop stop-color="#736AE4" stop-opacity="0.21"/>
<stop offset="1" stop-color="#F0B270" stop-opacity="0.15"/>
</linearGradient>
<linearGradient id="paint4_linear_44_1350" x1="20.1211" y1="16.0335" x2="6.40073" y2="9.25311" gradientUnits="userSpaceOnUse">
<stop stop-color="#F0B270"/>
<stop offset="1" stop-color="#F0B270" stop-opacity="0.09"/>
</linearGradient>
<linearGradient id="paint5_linear_44_1350" x1="4.74487" y1="21.7366" x2="14.5032" y2="17.4816" gradientUnits="userSpaceOnUse">
<stop stop-color="#F0B270"/>
<stop offset="0.922557" stop-color="#787878"/>
</linearGradient>
<linearGradient id="paint6_linear_44_1350" x1="10.6647" y1="7.23858" x2="20.6536" y2="2.77454" gradientUnits="userSpaceOnUse">
<stop stop-color="#F0B270"/>
<stop offset="1" stop-color="#141414"/>
</linearGradient>
<linearGradient id="paint7_linear_44_1350" x1="21.8758" y1="8.7748" x2="26.8215" y2="6.46146" gradientUnits="userSpaceOnUse">
<stop stop-color="#7A7671"/>
<stop offset="1" stop-color="#736AE4"/>
</linearGradient>
<linearGradient id="paint8_linear_44_1350" x1="17.9643" y1="10.5298" x2="17.9643" y2="14.5183" gradientUnits="userSpaceOnUse">
<stop stop-color="#83705C"/>
<stop offset="1" stop-color="#C7955F"/>
</linearGradient>
<linearGradient id="paint9_linear_44_1350" x1="13.7403" y1="12.6041" x2="22.515" y2="8.53583" gradientUnits="userSpaceOnUse">
<stop stop-color="#8D6942"/>
<stop offset="1" stop-color="#787878"/>
</linearGradient>
</defs>
</svg>
