<svg width="54" height="54" fill="none" xmlns="http://www.w3.org/2000/svg"><path d="M46.458 6.017 29.593 18.542l3.119-7.39 13.746-5.135Z" fill="#E2761B" stroke="#E2761B" stroke-linecap="round" stroke-linejoin="round"/><path d="M7.526 6.017 24.255 18.66l-2.966-7.509L7.526 6.017ZM40.39 35.051l-4.492 6.881 9.61 2.645 2.763-9.373-7.882-.153ZM5.746 35.204l2.746 9.373 9.61-2.645-4.492-6.88-7.864.152Z" fill="#E4761B" stroke="#E4761B" stroke-linecap="round" stroke-linejoin="round"/><path d="m17.56 23.423-2.679 4.051 9.543.424-.34-10.254-6.525 5.78ZM36.425 23.423l-6.61-5.898-.22 10.373 9.525-.424-2.695-4.05ZM18.102 41.932l5.729-2.796-4.95-3.865-.779 6.661ZM30.153 39.136l5.746 2.796-.797-6.66-4.95 3.864Z" fill="#E4761B" stroke="#E4761B" stroke-linecap="round" stroke-linejoin="round"/><path d="m35.899 41.933-5.746-2.797.457 3.746-.05 1.576 5.339-2.525ZM18.102 41.933l5.339 2.525-.034-1.576.424-3.746-5.729 2.797Z" fill="#D7C1B3" stroke="#D7C1B3" stroke-linecap="round" stroke-linejoin="round"/><path d="m23.525 32.797-4.78-1.407 3.373-1.542 1.407 2.949ZM30.457 32.797l1.407-2.95 3.39 1.543-4.797 1.407Z" fill="#233447" stroke="#233447" stroke-linecap="round" stroke-linejoin="round"/><path d="m18.1 41.932.814-6.88-5.305.152 4.492 6.728ZM35.084 35.051l.814 6.881 4.492-6.728-5.306-.153ZM39.117 27.475l-9.525.423.881 4.899 1.407-2.95 3.39 1.543 3.847-3.915ZM18.744 31.39l3.39-1.543 1.39 2.95.898-4.899-9.542-.423 3.864 3.915Z" fill="#CD6116" stroke="#CD6116" stroke-linecap="round" stroke-linejoin="round"/><path d="m14.881 27.475 4 7.796-.135-3.881-3.865-3.915ZM35.272 31.39l-.17 3.881 4.017-7.796-3.847 3.915ZM24.424 27.898l-.898 4.899 1.119 5.78.254-7.61-.475-3.069ZM29.593 27.898l-.457 3.051.203 7.628 1.136-5.78-.882-4.898Z" fill="#E4751F" stroke="#E4751F" stroke-linecap="round" stroke-linejoin="round"/><path d="m30.474 32.797-1.136 5.78.814.559 4.95-3.864.169-3.882-4.797 1.407ZM18.745 31.39l.136 3.882 4.949 3.864.813-.56-1.118-5.78-4.78-1.406Z" fill="#F6851B" stroke="#F6851B" stroke-linecap="round" stroke-linejoin="round"/><path d="m30.56 44.457.05-1.576-.423-.373h-6.39l-.39.373.034 1.576-5.339-2.525 1.864 1.525 3.78 2.627h6.492l3.796-2.627 1.865-1.525-5.34 2.525Z" fill="#C0AD9E" stroke="#C0AD9E" stroke-linecap="round" stroke-linejoin="round"/><path d="m30.152 39.136-.813-.56h-4.695l-.813.56-.424 3.745.39-.373h6.39l.423.373-.457-3.745Z" fill="#161616" stroke="#161616" stroke-linecap="round" stroke-linejoin="round"/><path d="m47.17 19.356 1.44-6.916-2.152-6.423-16.305 12.101 6.271 5.306 8.864 2.593 1.967-2.288-.848-.61 1.356-1.238-1.05-.813 1.355-1.034-.898-.678ZM5.39 12.44l1.44 6.916-.914.678 1.355 1.034-1.033.813 1.356 1.238-.848.61 1.95 2.288 8.864-2.593 6.27-5.305L7.527 6.017 5.39 12.44Z" fill="#763D16" stroke="#763D16" stroke-linecap="round" stroke-linejoin="round"/><path d="m45.288 26.017-8.864-2.593 2.695 4.051-4.017 7.797 5.288-.068h7.882l-2.983-9.187ZM17.56 23.424l-8.865 2.593-2.949 9.187h7.864l5.272.068-4-7.797 2.678-4.05ZM29.594 27.898l.559-9.78 2.576-6.966H21.29l2.542 6.966.593 9.78.204 3.085.017 7.593h4.694l.034-7.593.22-3.085Z" fill="#F6851B" stroke="#F6851B" stroke-linecap="round" stroke-linejoin="round"/></svg>