<svg width="79" height="74" fill="none" xmlns="http://www.w3.org/2000/svg"><g clip-path="url(#a)"><path d="m18.612 40.771 2.07-15.63L2.732 12.616l16.4 5.585 3.872-5.974 14.142-8.822L68.32 20.67l1.615 26.342-13.887 19.401-10.977 1.691 5.677-10.446V47.602l-4.128-7.854-4.194-2.792-6.45 6.685v7.076l-5.036 4.739-6.396.778-2.832 1.613-4.648-1.49-1.936-7.009 3.485-4.928v-3.649Z" fill="#fff"/><path d="M47.272 12.482c-3.42-.712-7.16-.523-7.16-.523s-1.228 5.707-8.84 7.209c.055 0 10.058 3.437 16-6.686ZM50.37 64.266c4.128-3.248 7.226-7.72 8.654-12.782.066-.189.642-.523 1.029-.779.642-.389 1.294-.711 1.416-1.234.255-1.491.387-3.048.387-4.606 0-.578-.586-1.168-1.161-1.746-.454-.39-.908-.846-.908-1.168-.642-5.907-3.353-11.425-7.68-15.441l-.453.456c4.194 3.96 6.905 9.344 7.491 15.051.067.523.576 1.035 1.096 1.558.454.39.974.979.974 1.234 0 1.491-.133 2.982-.388 4.473-.066.256-.641.522-1.095.778-.642.323-1.228.645-1.35 1.168-1.55 5.518-5.101 10.324-9.815 13.439.84-1.814 3.485-7.72 4.902-10.713l-.255-9.6-8.2-7.977-4.647.645-5.101 8.31s2.39 3.048-.974 6.62c-3.286 3.504-5.876 4.282-5.876 4.282l-2.39-1.301c.708-.912 2.136-2.27 3.231-3.182 1.87-1.557 3.74-1.69 3.74-3.37.078-3.516-3.673-2.548-3.673-2.548l-1.361 1.302-.576 4.805-2.832 3.571-.321-.067-4.648-1.034s2.844-1.49 3.298-3.182c.453-1.624-.908-7.008-.974-7.33.066.066 1.36 1.167 1.936 2.98 1.03-2.858 2.39-5.584 2.778-5.84.387-.255 5.61-3.048 5.61-3.048l-1.737 4.606 1.294-.712 3.099-7.654s3.032-1.49 5.289-1.49c4.061-.067 10.07-5.062 7.359-14.017.774.322 14.197 7.075 16.52 20.313 1.738 10.179-4.005 19.712-13.688 25.23Z" fill="#94A6C3"/><path d="M35.011 13.906c1.483-1.758.908-4.35.908-4.35l-4.327 6.43c-.066 0 1.538.067 3.42-2.08ZM20.482 49.014l.52-2.592s-2.135 3.76-2.323 4.283c-.2.59.133 1.625.962 1.558.841-.067 1.87-1.302 1.87-2.203 0-1.168-1.029-1.046-1.029-1.046Z" fill="#1B314F"/><path d="M58.825 7.743s3.23.133 6.584.523C57.85 2.292 50.69.546 44.882.546c-8 0-13.423 3.314-13.755 3.503L33.65.022S23.58-.957 20.03 9.756c-.908-2.27-1.738-5.584-1.738-5.584s-5.234 4.616-2.777 12.27C9.505 14.24.93 11.18.598 11.125c-.454-.067-.587.133-.587.133s-.133.19.255.523c.719.567 14.274 10.635 17.25 12.582-.641 2.336-.641 3.437 0 4.538.908 1.491.964 2.27.842 3.371-.133 1.102-1.295 10.646-1.55 11.814-.254 1.169-2.965 5.318-2.843 6.553.133 1.235 1.803 6.485 3.297 7.075 1.096.39 3.807 1.235 5.61 1.235.642 0 1.229-.134 1.483-.39 1.096-.967 1.417-1.168 2.191-1.168h.188c.321 0 .709.067 1.162.067 1.03 0 2.39-.2 3.353-1.101 1.417-1.424 3.873-3.371 4.648-4.283a6.049 6.049 0 0 0 1.228-4.606c-.2-1.557.642-2.926 1.615-4.283 1.229-1.624 3.486-4.538 3.486-4.538 4.46 3.36 7.237 8.488 7.237 14.194 0 10.124-8.775 18.3-19.62 18.3-1.681 0-3.286-.189-4.901-.578 4.968 1.746 9.162 2.336 12.592 2.336 7.293 0 11.166-2.659 11.166-2.659s-1.35 1.758-3.553 3.76h.067c12.072-1.69 17.948-11.68 17.948-11.68s-.453 3.248-1.029 5.45C78.19 55.634 75.478 40.45 75.412 39.937c.133.19 1.748 2.136 2.578 3.182C80.58 16.375 58.825 7.743 58.825 7.743ZM34.105 50.45c-.255.322-1.35 1.301-2.125 2.013-.775.712-1.616 1.424-2.258 2.08-.254.256-.774.39-1.55.39h-1.936c.974-1.302 3.807-4.283 4.78-4.928 1.163-.78 1.75-1.558 1.03-2.915-.708-1.368-2.578-1.035-2.578-1.035s1.095-.456 2.069-.456c-1.228-.322-2.778 0-3.486.712-.774.712-.642 3.249-.962 4.862-.321 1.69-1.417 2.536-3.099 4.093-.907.846-1.549 1.102-2.07 1.102-1.095-.19-2.39-.523-3.297-.846-.642-.845-1.615-3.637-1.87-4.805.188-.646.963-2.014 1.35-2.793.775-1.49 1.228-2.336 1.361-3.114.255-1.102 1.096-7.921 1.417-10.769.84 1.101 2.003 2.926 1.737 4.094 1.87-2.659.52-5.262-.133-6.297-.575-1.034-1.35-3.114-.708-5.317.642-2.203 2.966-8.31 2.966-8.31s.774 1.368 1.87 1.101c1.095-.256 9.937-13.627 9.937-13.627s2.39 5.25-.133 9.088c-2.578 3.827-5.102 4.54-5.102 4.54s3.553.645 6.84-1.758c1.35 3.181 2.644 6.485 2.71 6.941-.2.456-2.777 6.686-3.032 7.075-.133.134-1.029.39-1.682.523-1.095.323-1.737.523-2.003.712-.453.39-2.523 6.096-3.485 8.889-1.162.322-2.324.979-3.165 2.27.454-.324 1.87-.524 2.91-.646.907-.067 3.674 1.424 4.393 4.216v.134c.144 1.023-.177 2.002-.697 2.78Zm-6.065.778c.587-.845.52-2.269.587-2.725.066-.456.188-1.302.708-1.424.52-.134 1.748.067 1.748.968 0 .845-.907 1.034-1.549 1.624-.465.445-1.372 1.424-1.494 1.557Zm25.75-12.403c.642-3.304.708-6.163.52-8.5 2.512 3.371 4.06 7.465 4.514 11.681.067.523.576 1.035 1.096 1.558.454.389.974.912.974 1.234 0 1.491-.133 2.982-.387 4.484-.067.189-.642.522-1.096.778-.642.323-1.228.645-1.35 1.168-1.416 4.995-4.46 9.412-8.52 12.526 5.997-6.296 8.896-16.686 4.249-24.93Zm-4.061 25.508c4.194-3.248 7.425-7.787 8.841-12.916.066-.189.642-.522 1.03-.778.64-.323 1.294-.712 1.416-1.235.254-1.49.387-3.048.387-4.606 0-.578-.587-1.168-1.162-1.746-.321-.39-.841-.846-.841-1.168-.52-4.74-2.39-9.211-5.29-12.916-1.294-7.787-6.45-10.19-6.583-10.256.132.2 3.485 5.061 1.161 10.768-2.39 5.774-8.52 4.872-9.04 4.928-.52 0-2.512 2.592-5.035 7.398-.32-.134-1.682-.456-3.231-.19 1.162-3.248 2.91-7.853 3.231-8.242.133-.134 1.096-.39 1.748-.579 1.229-.323 1.804-.523 2.003-.779.133-.2.775-1.69 1.417-3.248.586 0 2.069-.134 2.19-.2.134-.134 1.362-3.304 1.362-3.694 0-.322-2.523-6.619-3.486-9.021.454-.523.907-1.168 1.35-1.88 13.234 1.434 23.57 12.726 23.57 26.409 0 10.513-6.13 19.668-15.038 23.951Z" fill="#1B314F"/><path d="M32.555 29.29c1.228-1.423.586-4.082-1.682-4.538.586-1.357 1.416-4.083 1.416-4.083s-6.584 10.38-7.16 10.58c-.586.2-1.161-2.08-1.161-2.08-1.228 4.739 2.07 5.384 2.457 3.893 1.803-.467 4.902-2.414 6.13-3.771Z" fill="#1B314F"/><path d="m26.934 31.816 3.352-5.773s1.937.978.963 2.536c-1.217 1.813-4.315 3.237-4.315 3.237Z" fill="#FFD923"/><path d="M68.44 58.56c-.973 1.3-2.069 2.658-3.352 3.96 8.32-16.098.387-30.826.066-31.405.587.59 1.162 1.235 1.682 1.814 6.385 7.13 7.16 17.843 1.605 25.63ZM76.186 37.856c-2.91-7.853-7.037-14.54-16.133-20.569-8.775-5.84-18.203-5.384-18.723-5.317h-.133c.321-.134.642-.2.963-.256 2.003-.645 4.58-1.168 7.17-1.49 6.85-.99 13.755 1.345 18.469 6.351l.132.134c5.356 5.707 8.134 12.838 8.255 21.147ZM57.983 5.73c-9.615-1.814-15.812-.913-20.272.778-.132-.523-.586-1.557-.973-2.403-1.34 1.624-2.767 3.571-3.663 4.806-2.457 1.69-3.486 3.315-3.486 3.315 1.417-4.873 5.555-8.5 10.59-9.411 1.416-.256 2.966-.39 4.648-.39 4.448.067 8.896 1.168 13.157 3.304ZM22.419 18.188c-7.547-.256-5.035-9.088-4.902-9.6 0 .067.509 6.942 4.902 9.6ZM29.844 2.292c-5.81 3.504-4.648 11.87-4.648 11.87-5.555-8.489 4.194-11.67 4.648-11.87Z" fill="#D82122"/><path d="M20.294 20.525c.387.322.775.912.321 1.757-.254.456-.642.39-1.228.134-.775-.39-5.422-3.115-9.616-5.907 4.78 1.69 9.616 3.504 10.39 3.893 0 0 .067.067.133.123Z" fill="#fff"/></g><defs><clipPath id="a"><path fill="#fff" d="M0 0h78.211v74H0z"/></clipPath></defs></svg>