<svg width="74" height="74" viewBox="0 0 74 74" fill="none" xmlns="http://www.w3.org/2000/svg">
<g clip-path="url(#clip0_346_2294)">
<path fill-rule="evenodd" clip-rule="evenodd" d="M13.1729 11.5625C12.0174 5.55 16.6395 0 22.6482 0C27.9636 0 32.3546 4.39375 32.3546 9.7125V21.7375C33.7412 21.7375 35.1278 21.5063 36.5145 21.5063C37.9011 21.5063 39.0566 21.5062 40.4432 21.7375V9.7125C40.4432 4.39375 44.8342 0 50.1496 0C56.1583 0 60.7804 5.55 59.856 11.5625L57.3138 25.6688C66.3269 29.6 73.26 36.5375 73.26 45.0938V50.4125C73.26 57.5812 68.6379 63.5938 61.9359 67.525C55.2339 71.6875 46.4519 74 36.5145 74C26.577 74 17.795 71.6875 11.093 67.525C4.62208 63.5938 0 57.5812 0 50.4125V45.0938C0 36.5375 6.70202 29.6 15.7151 25.6688L13.1729 11.5625ZM53.8473 27.5187L56.8516 10.8687C57.5449 6.70625 54.5406 2.775 50.1496 2.775C46.4519 2.775 43.4476 5.78125 43.4476 9.48125V24.7437C42.5232 24.5125 41.3676 24.5125 40.4432 24.5125C39.0566 24.5125 37.9011 24.2812 36.5145 24.2812C35.1278 24.2812 33.7412 24.2812 32.3546 24.5125C31.4302 24.5125 30.2746 24.7437 29.3502 24.7437V9.7125C29.3502 6.0125 26.3459 3.00625 22.6482 3.00625C18.4883 3.00625 15.2529 6.9375 16.1773 11.1L19.1816 27.75C9.47527 31.45 3.00435 37.925 3.00435 45.325V50.6437C3.00435 61.975 18.0261 71.225 36.5145 71.225C55.0028 71.225 70.0245 61.975 70.0245 50.6437V45.325C70.2556 37.6938 63.7847 31.2188 53.8473 27.5187Z" fill="#633001"/>
<path d="M70.2555 50.4125C70.2555 61.7437 55.2338 70.9937 36.7454 70.9937C18.2571 70.9937 3.23535 61.7437 3.23535 50.4125V45.0938H70.4866V50.4125H70.2555Z" fill="#FEDC90"/>
<path fill-rule="evenodd" clip-rule="evenodd" d="M16.1772 11.1C15.2528 6.93748 18.4882 3.00623 22.6481 3.00623C26.3458 3.00623 29.3501 6.01248 29.3501 9.71248V24.975C31.6612 24.7437 33.9722 24.5125 36.5143 24.5125C38.8254 24.5125 41.1364 24.7437 43.4475 24.975V9.71248C43.4475 6.01248 46.4518 3.00623 50.1495 3.00623C54.3094 3.00623 57.5448 6.93748 56.8515 11.1L53.8471 27.75C63.5535 31.45 70.2555 37.925 70.2555 45.325C70.2555 56.6562 55.2338 65.9062 36.7454 65.9062C18.2571 65.9062 3.23535 56.6562 3.23535 45.325C3.23535 37.925 9.70627 31.45 19.4126 27.75L16.1772 11.1Z" fill="#D1884F"/>
<path d="M27.2703 43.7063C27.2703 46.7125 25.6526 49.2563 23.5727 49.2563C21.4927 49.2563 19.875 46.7125 19.875 43.7063C19.875 40.7 21.4927 38.1562 23.5727 38.1562C25.6526 38.1562 27.2703 40.7 27.2703 43.7063Z" fill="#633001"/>
<path d="M52.9229 43.7063C52.9229 46.7125 51.3052 49.2563 49.2252 49.2563C47.1453 49.2563 45.5276 46.7125 45.5276 43.7063C45.5276 40.7 47.1453 38.1562 49.2252 38.1562C51.3052 38.1562 52.9229 40.7 52.9229 43.7063Z" fill="#633001"/>
</g>
<defs>
<clipPath id="clip0_346_2294">
<rect width="73.26" height="74" fill="white"/>
</clipPath>
</defs>
</svg>
