<svg width="74" height="74" fill="none" xmlns="http://www.w3.org/2000/svg"><g clip-path="url(#a)"><path fill-rule="evenodd" clip-rule="evenodd" d="M13.173 11.563C12.017 5.55 16.64 0 22.648 0c5.316 0 9.707 4.394 9.707 9.713v12.025c1.386 0 2.773-.232 4.16-.232 1.386 0 2.542 0 3.928.232V9.713C40.443 4.393 44.834 0 50.15 0c6.008 0 10.63 5.55 9.706 11.563l-2.542 14.106C66.327 29.6 73.26 36.538 73.26 45.094v5.319c0 7.168-4.622 13.18-11.324 17.112C55.234 71.687 46.452 74 36.514 74c-9.937 0-18.719-2.313-25.421-6.475C4.623 63.594 0 57.581 0 50.412v-5.318C0 36.538 6.702 29.6 15.715 25.669l-2.542-14.107Zm40.674 15.956 3.005-16.65c.693-4.163-2.311-8.094-6.702-8.094a6.709 6.709 0 0 0-6.702 6.706v15.263c-.925-.232-2.08-.232-3.005-.232-1.386 0-2.542-.23-3.928-.23-1.387 0-2.774 0-4.16.23-.925 0-2.08.232-3.005.232V9.713c0-3.7-3.004-6.707-6.702-6.707-4.16 0-7.395 3.932-6.47 8.094l3.004 16.65C9.475 31.45 3.004 37.925 3.004 45.325v5.319c0 11.331 15.022 20.581 33.51 20.581 18.489 0 33.51-9.25 33.51-20.581v-5.319c.232-7.631-6.24-14.106-16.177-17.806Z" fill="#633001"/><path d="M70.255 50.413c0 11.33-15.021 20.58-33.51 20.58-18.488 0-33.51-9.25-33.51-20.58v-5.32h67.252v5.32h-.231Z" fill="#FEDC90"/><path fill-rule="evenodd" clip-rule="evenodd" d="M16.177 11.1c-.924-4.163 2.311-8.094 6.471-8.094a6.709 6.709 0 0 1 6.702 6.706v15.263c2.311-.231 4.622-.463 7.164-.463 2.311 0 4.622.232 6.933.463V9.712c0-3.7 3.005-6.706 6.703-6.706 4.16 0 7.395 3.931 6.702 8.094l-3.005 16.65c9.706 3.7 16.408 10.175 16.408 17.575 0 11.331-15.021 20.581-33.51 20.581-18.488 0-33.51-9.25-33.51-20.581 0-7.4 6.471-13.875 16.178-17.575L16.177 11.1Z" fill="#D1884F"/><path d="M27.27 43.706c0 3.006-1.617 5.55-3.697 5.55s-3.698-2.544-3.698-5.55 1.618-5.55 3.698-5.55 3.697 2.544 3.697 5.55ZM52.923 43.706c0 3.006-1.618 5.55-3.698 5.55s-3.697-2.544-3.697-5.55 1.617-5.55 3.697-5.55 3.698 2.544 3.698 5.55Z" fill="#633001"/></g><defs><clipPath id="a"><path fill="#fff" d="M0 0h73.26v74H0z"/></clipPath></defs></svg>