<svg width="24" height="25" fill="none" xmlns="http://www.w3.org/2000/svg"><path d="m20.482 19.988-.482.483c-1.49 1.49-7 2-12.5-3.5s-5-11-3.5-12.5l.491-.491a1.75 1.75 0 0 1 2.693.267l2.02 3.03a1.75 1.75 0 0 1-.218 2.208l-1.049 1.049c-.268.268-.358.663-.183.999.319.613.984 1.676 2.246 2.938 1.262 1.262 2.325 1.927 2.938 2.246.336.174.731.085.999-.183l1.049-1.049a1.75 1.75 0 0 1 2.208-.218l3.02 2.013a1.76 1.76 0 0 1 .268 2.708Z" fill="#736AE4" fill-opacity=".25"/><path fill-rule="evenodd" clip-rule="evenodd" d="m8 10.47.986-.985a1.75 1.75 0 0 0 .218-2.208l-2.02-3.03a1.75 1.75 0 0 0-2.693-.267L4 4.47l4 6Zm12 10 .482-.481a1.76 1.76 0 0 0-.268-2.71l-3.02-2.013a1.75 1.75 0 0 0-2.208.22L14 16.47l6 4Z" fill="#736AE4"/></svg>