<svg width="61" height="29" fill="none" xmlns="http://www.w3.org/2000/svg"><path d="M10.562 18.637c1.845 0 3.222-.326 4.094-.968.862-.636 1.458-1.737 1.77-3.274.29-1.436.18-2.438-.33-2.98-.52-.552-1.647-.833-3.348-.833H9.8l-1.635 8.055h2.397ZM.918 28.56a.467.467 0 0 1-.354-.16.426.426 0 0 1-.097-.363L4.8 6.69a.454.454 0 0 1 .45-.356h9.337c2.934 0 5.119.763 6.491 2.268 1.38 1.513 1.807 3.628 1.267 6.286a9.764 9.764 0 0 1-1.123 2.99 10.095 10.095 0 0 1-2.066 2.479 9.152 9.152 0 0 1-3.4 1.951c-1.224.382-2.796.575-4.672.575h-3.78l-1.08 5.32a.454.454 0 0 1-.45.356H.917Z" fill="#000"/><path d="M10.178 11.023h2.57c2.053 0 2.766.43 3.008.688.402.427.477 1.326.22 2.602-.291 1.428-.829 2.44-1.6 3.009-.79.582-2.073.877-3.814.877h-1.84l1.456-7.176Zm4.409-5.126H5.25a.908.908 0 0 0-.9.71L.016 27.955a.852.852 0 0 0 .192.726c.175.203.434.32.708.32h4.856c.44 0 .817-.298.9-.711l1.008-4.964h3.403c1.924 0 3.544-.201 4.814-.597a9.617 9.617 0 0 0 3.571-2.048 10.542 10.542 0 0 0 2.154-2.586c.549-.942.943-1.991 1.172-3.12.568-2.798.107-5.038-1.371-6.659-1.464-1.605-3.765-2.418-6.837-2.418Zm-6.979 13.18h2.954c1.957 0 3.415-.353 4.374-1.059.958-.706 1.604-1.885 1.94-3.538.321-1.586.175-2.706-.44-3.358-.614-.652-1.843-.978-3.688-.978H9.421l-1.813 8.934Zm6.979-12.302c2.809 0 4.858.706 6.146 2.118 1.287 1.412 1.675 3.383 1.162 5.913a9.3 9.3 0 0 1-1.073 2.86 9.617 9.617 0 0 1-1.976 2.37 8.659 8.659 0 0 1-3.232 1.856c-1.186.37-2.695.554-4.53.554h-4.16l-1.151 5.675H.917L5.25 6.775h9.337Z" fill="#fff"/><path d="M33.35 23.225a.466.466 0 0 1-.355-.16.425.425 0 0 1-.096-.363l1.916-9.445c.182-.898.137-1.543-.126-1.816-.162-.166-.647-.445-2.081-.445h-3.472l-2.41 11.873a.454.454 0 0 1-.45.356H21.46a.467.467 0 0 1-.354-.16.426.426 0 0 1-.097-.363l4.333-21.346A.454.454 0 0 1 25.79 1h4.817c.137 0 .267.059.354.16a.426.426 0 0 1 .097.363l-1.046 5.152h3.735c2.845 0 4.775.48 5.898 1.469 1.146 1.008 1.503 2.62 1.063 4.792l-2.016 9.933a.454.454 0 0 1-.45.356h-4.894Z" fill="#000"/><path d="M30.737.221H25.92a.908.908 0 0 0-.901.712l-4.332 21.346a.851.851 0 0 0 .192.726c.175.203.434.32.709.32h4.817c.439 0 .817-.298.9-.711l2.338-11.518h3.093c1.432 0 1.733.293 1.745.305.087.09.201.504.012 1.433l-1.916 9.445a.851.851 0 0 0 .193.726c.174.203.434.32.708.32h4.894c.439 0 .816-.298.9-.711l2.016-9.934c.473-2.331.068-4.08-1.202-5.199-1.213-1.066-3.244-1.584-6.21-1.584h-3.178l.94-4.63a.852.852 0 0 0-.193-.726.934.934 0 0 0-.708-.32Zm0 .88-1.152 5.674h4.292c2.7 0 4.563.452 5.588 1.353 1.025.902 1.332 2.364.922 4.385l-2.015 9.933h-4.894l1.916-9.445c.218-1.074.138-1.807-.24-2.197-.38-.391-1.185-.587-2.418-.587h-3.85l-2.481 12.23h-4.817L25.92 1.1h4.817Z" fill="#fff"/><path d="M48.331 18.977c1.845 0 3.223-.325 4.094-.968.863-.635 1.458-1.737 1.77-3.274.291-1.436.18-2.438-.33-2.98-.52-.552-1.647-.833-3.347-.833h-2.949l-1.635 8.055h2.397ZM38.687 28.9a.467.467 0 0 1-.354-.16.426.426 0 0 1-.096-.363L42.569 7.03a.454.454 0 0 1 .45-.356h9.337c2.935 0 5.119.763 6.492 2.268 1.38 1.513 1.806 3.628 1.267 6.286a9.772 9.772 0 0 1-1.123 2.99 10.095 10.095 0 0 1-2.066 2.479 9.151 9.151 0 0 1-3.4 1.951c-1.225.382-2.797.576-4.673.576h-3.78l-1.08 5.32a.454.454 0 0 1-.45.355h-4.856Z" fill="#000"/><path d="M48.076 11.023h2.57c2.053 0 2.766.43 3.008.688.402.427.478 1.326.22 2.602-.29 1.428-.829 2.44-1.6 3.009-.79.582-2.073.877-3.814.877h-1.84l1.456-7.176Zm4.41-5.126h-9.338a.908.908 0 0 0-.9.71l-4.333 21.347a.852.852 0 0 0 .193.726c.174.203.434.32.708.32h4.855c.44 0 .817-.298.901-.711l1.008-4.964h3.402c1.924 0 3.544-.201 4.814-.597a9.616 9.616 0 0 0 3.572-2.049 10.536 10.536 0 0 0 2.153-2.585c.549-.942.944-1.991 1.172-3.12.569-2.798.107-5.039-1.371-6.659-1.464-1.605-3.764-2.418-6.837-2.418Zm-6.98 13.18h2.954c1.958 0 3.416-.353 4.374-1.059.958-.706 1.604-1.885 1.94-3.538.322-1.586.175-2.706-.439-3.358-.615-.652-1.844-.978-3.689-.978H47.32l-1.813 8.934Zm6.98-12.302c2.808 0 4.857.706 6.145 2.118 1.288 1.412 1.676 3.383 1.162 5.913a9.3 9.3 0 0 1-1.073 2.86 9.615 9.615 0 0 1-1.976 2.37 8.657 8.657 0 0 1-3.232 1.856c-1.185.37-2.695.554-4.53.554h-4.159l-1.152 5.675h-4.855l4.332-21.346h9.337Z" fill="#fff"/></svg>