<svg width="64" height="32" viewBox="0 0 64 32" fill="none" xmlns="http://www.w3.org/2000/svg">
<path d="M11.094 20.6539C13.032 20.6539 14.4789 20.2971 15.3944 19.5937C16.3 18.8976 16.9256 17.6915 17.2534 16.009C17.5591 14.4365 17.4427 13.3384 16.9074 12.7459C16.3601 12.1407 15.1769 11.8337 13.3906 11.8337H10.2933L8.5763 20.6539H11.094ZM0.963713 31.5188C0.819943 31.5188 0.683401 31.4547 0.591999 31.3437C0.500436 31.2329 0.463328 31.087 0.490797 30.946L5.04132 7.57226C5.08533 7.34631 5.28372 7.18305 5.5144 7.18305H15.3219C18.4042 7.18305 20.6984 8.01857 22.1405 9.66666C23.5902 11.3234 24.0379 13.6393 23.471 16.5498C23.2404 17.7356 22.8436 18.8368 22.2918 19.8227C21.7394 20.8098 21.0093 21.7231 20.1214 22.5378C19.0587 23.5308 17.8558 24.2508 16.5495 24.6745C15.2639 25.0926 13.6129 25.3046 11.6424 25.3046H7.67111L6.53701 31.1295C6.493 31.3556 6.29477 31.5188 6.0641 31.5188H0.963713Z" fill="black"/>
<path d="M10.6906 12.3149H13.3906C15.5465 12.3149 16.2954 12.7872 16.5498 13.0686C16.972 13.5359 17.0517 14.5212 16.7804 15.9179C16.4755 17.4814 15.9103 18.5901 15.1004 19.2126C14.2712 19.8499 12.9231 20.1729 11.094 20.1729H9.16086L10.6906 12.3149ZM15.3219 6.70201H5.51424C5.05289 6.70201 4.65628 7.02851 4.56825 7.48059L0.0177282 30.8543C-0.0372097 31.1364 0.037005 31.4281 0.21997 31.6499C0.403097 31.8717 0.675858 32 0.96372 32H6.06394C6.52545 32 6.92206 31.6735 7.01009 31.2214L8.06837 25.7858H11.6424C13.6635 25.7858 15.365 25.5657 16.6991 25.1319C18.0711 24.6869 19.3334 23.9324 20.4506 22.8894C21.3746 22.0407 22.1357 21.0881 22.7124 20.0577C23.2892 19.0271 23.7036 17.8777 23.9441 16.6416C24.5409 13.5779 24.0561 11.1246 22.5034 9.35032C20.9657 7.59301 18.5494 6.70201 15.3219 6.70201ZM7.99158 21.1351H11.094C13.1503 21.1351 14.682 20.7484 15.6883 19.975C16.6949 19.2014 17.3737 17.9103 17.7265 16.101C18.064 14.3639 17.9103 13.138 17.2653 12.4239C16.6196 11.7098 15.3282 11.3527 13.3906 11.3527H9.8961L7.99158 21.1351ZM15.3219 7.66421C18.2723 7.66421 20.4247 8.43719 21.7776 9.98329C23.1303 11.5294 23.5377 13.6875 22.998 16.4581C22.7758 17.5995 22.4001 18.643 21.8711 19.5883C21.3415 20.5344 20.6499 21.3994 19.7953 22.1837C18.7769 23.1352 17.6455 23.8132 16.4006 24.217C15.1557 24.622 13.57 24.8235 11.6424 24.8235H7.2737L6.06394 31.0378H0.96372L5.51424 7.66421H15.3219Z" fill="white"/>
<path d="M35.1653 25.3061C35.0214 25.3061 34.885 25.242 34.7936 25.131C34.7019 25.0202 34.6648 24.8744 34.6922 24.7333L36.7052 14.3913C36.8967 13.4078 36.8494 12.7019 36.5723 12.4036C36.4027 12.2212 35.8932 11.9154 34.3865 11.9154H30.7398L28.2089 24.9167C28.1649 25.1429 27.9665 25.3061 27.7359 25.3061H22.6758C22.5319 25.3061 22.3955 25.242 22.3039 25.131C22.2123 25.0202 22.1752 24.8743 22.2027 24.7333L26.7532 1.35954C26.7973 1.13359 26.9956 0.970333 27.2263 0.970333H32.2864C32.4303 0.970333 32.5667 1.03448 32.6583 1.14529C32.7498 1.25627 32.7869 1.40204 32.7595 1.54317L31.6613 7.18458H35.5844C38.5731 7.18458 40.5997 7.71058 41.78 8.79275C42.9832 9.89672 43.3586 11.6619 42.896 14.0398L40.7788 24.9167C40.7348 25.1429 40.5365 25.3061 40.3057 25.3061H35.1653Z" fill="black"/>
<path d="M32.2854 0.487474H27.2253C26.7638 0.487474 26.3672 0.813982 26.2792 1.26606L21.7287 24.6398C21.6737 24.9219 21.7479 25.2136 21.9311 25.4354C22.1142 25.6572 22.387 25.7855 22.6748 25.7855H27.7349C28.1962 25.7855 28.593 25.459 28.681 25.0069L31.136 12.3948H34.3856C35.8896 12.3948 36.2053 12.7155 36.218 12.7293C36.3092 12.8273 36.4292 13.2811 36.2311 14.2978L34.2182 24.6398C34.1632 24.9219 34.2375 25.2136 34.4206 25.4354C34.6037 25.6572 34.8765 25.7855 35.1643 25.7855H40.3047C40.7661 25.7855 41.1628 25.459 41.2509 25.0069L43.3679 14.1299C43.8648 11.5767 43.4397 9.66146 42.1051 8.4369C40.8316 7.26926 38.6983 6.70172 35.5834 6.70172H32.2448L33.2316 1.6333C33.2863 1.35121 33.2123 1.05935 33.0292 0.837717C32.846 0.615929 32.5733 0.487474 32.2854 0.487474ZM32.2854 1.44968L31.0756 7.66392H35.5834C38.4198 7.66392 40.3762 8.15818 41.453 9.1454C42.5297 10.1333 42.8523 11.7339 42.4219 13.9465L40.3047 24.8233H35.1643L37.1773 14.4815C37.4063 13.305 37.3222 12.5025 36.9244 12.0747C36.5265 11.6468 35.6801 11.4326 34.3856 11.4326H30.3414L27.7349 24.8233H22.6748L27.2253 1.44968H32.2854Z" fill="white"/>
<path d="M50.902 20.6539C52.8401 20.6539 54.287 20.2971 55.2024 19.5937C56.1081 18.8977 56.7336 17.6916 57.0617 16.009C57.3673 14.4365 57.2509 13.3384 56.7155 12.7459C56.1682 12.1407 54.9849 11.8337 53.1987 11.8337H50.1014L48.3844 20.6539H50.902ZM40.772 31.5188C40.6282 31.5188 40.4916 31.4547 40.4002 31.3437C40.3087 31.2329 40.2714 31.087 40.2989 30.946L44.8494 7.57226C44.8936 7.34631 45.0918 7.18305 45.3226 7.18305H55.13C58.2125 7.18305 60.5065 8.01857 61.9487 9.66666C63.3985 11.3233 63.846 13.6391 63.2793 16.5498C63.0483 17.7356 62.6517 18.8368 62.0999 19.8227C61.5474 20.8098 60.8173 21.7231 59.9295 22.5378C58.8667 23.5308 57.6639 24.2508 56.3576 24.6745C55.072 25.0926 53.421 25.3046 51.4505 25.3046H47.479L46.3454 31.1295C46.3012 31.3556 46.103 31.5188 45.8722 31.5188H40.772Z" fill="black"/>
<path d="M50.499 12.3149H53.199C55.3549 12.3149 56.1038 12.7872 56.3583 13.0686C56.7806 13.5359 56.8602 14.5212 56.5888 15.9177C56.2839 17.4814 55.7186 18.5901 54.9088 19.2126C54.0796 19.8499 52.7316 20.1729 50.9024 20.1729H48.9694L50.499 12.3149ZM55.1304 6.70201H45.3228C44.8615 6.70201 44.4649 7.02851 44.3768 7.48059L39.8263 30.8543C39.7714 31.1364 39.8456 31.4281 40.0286 31.6499C40.2117 31.8717 40.4845 32 40.7723 32H45.8725C46.3339 32 46.7307 31.6735 46.8187 31.2214L47.8768 25.7858H51.4508C53.4719 25.7858 55.1734 25.5657 56.5075 25.1319C57.8795 24.6869 59.1421 23.9322 60.2593 22.889C61.1833 22.0405 61.9441 21.0881 62.5208 20.0577C63.0976 19.0271 63.5121 17.8777 63.7525 16.6416C64.3493 13.5778 63.8645 11.1245 62.3118 9.35016C60.7742 7.59301 58.358 6.70201 55.1304 6.70201ZM47.8002 21.1351H50.9024C52.9587 21.1351 54.4904 20.7484 55.4968 19.975C56.5035 19.2014 57.1822 17.9103 57.5349 16.101C57.8726 14.3639 57.7189 13.138 57.0737 12.4239C56.428 11.7098 55.1366 11.3527 53.199 11.3527H49.7045L47.8002 21.1351ZM55.1304 7.66421C58.0808 7.66421 60.2331 8.43719 61.586 9.98329C62.9389 11.5294 63.3461 13.6875 62.8064 16.4581C62.5842 17.5995 62.2085 18.643 61.6795 19.5883C61.1499 20.5344 60.4584 21.3994 59.6038 22.1837C58.5853 23.1352 57.454 23.8132 56.209 24.217C54.9641 24.622 53.3784 24.8235 51.4508 24.8235H47.0821L45.8725 31.0378H40.7723L45.3228 7.66421H55.1304Z" fill="white"/>
</svg>
