<svg width="108" height="24" fill="none" xmlns="http://www.w3.org/2000/svg"><g clip-path="url(#a)"><path d="M33.541 3.739c-1.264 0-2.483.159-2.98.293-.722.203-.902.52-1.038 1.175l-2.866 13.226c-.046.27-.09.496-.09.722 0 .655.429 1.082 1.128 1.082.769 0 1.085-.496 1.242-1.264l.812-3.769c.564.067 1.309.136 2.37.136 4.673 0 7.584-2.527 7.584-6.342 0-3.341-2.326-5.259-6.162-5.259Zm-1.535 9.434c-.722 0-1.287-.023-1.805-.09l1.512-7.02a13.659 13.659 0 0 1 1.897-.159c2.483 0 3.747 1.175 3.747 3.116-.001 2.483-1.808 4.153-5.35 4.153ZM107.074 15.88c-.383 0-.632.227-1.105.746-.835.858-1.355 1.332-2.008 1.332-.587 0-.903-.474-.903-1.242 0-.43.09-.948.203-1.512l.836-3.927h2.506c.789 0 1.264-.452 1.264-1.265 0-.452-.293-.79-.969-.79h-2.351l.406-1.827c.046-.27.09-.52.09-.745 0-.633-.429-1.085-1.128-1.085-.745 0-1.083.496-1.242 1.265l-.519 2.393h-1.061c-.813 0-1.286.452-1.286 1.264 0 .452.316.79.993.79h.925l-.835 3.881a9.417 9.417 0 0 0-.203 1.851c0 1.828.948 3.16 2.979 3.16 1.174 0 2.211-.587 3.002-1.288.768-.676 1.332-1.511 1.332-2.054a.934.934 0 0 0-.926-.946ZM55.163 5.07c0-.655-.452-1.084-1.152-1.084-.745 0-1.082.497-1.241 1.265l-2.82 13.113c-.068.27-.114.496-.114.722 0 .655.453 1.083 1.129 1.083.768 0 1.105-.497 1.264-1.265l2.82-13.111c.047-.272.114-.496.114-.722ZM95.45 8.997c-3.611 0-6.072 3.588-6.072 6.997 0 .064.002.128.004.19-.567.86-1.29 1.75-1.787 1.75-.36 0-.496-.338-.496-.858 0-.632.18-1.693.383-2.619l1.874-8.667c.045-.27.09-.497.09-.723 0-.655-.43-1.084-1.129-1.084-.768 0-1.082.496-1.241 1.264L86.06 9.942c-.542-.564-1.333-.949-2.529-.949-2.398 0-4.81 1.846-5.75 4.678-1.036 2.677-1.961 4.26-2.692 4.26-.27 0-.429-.226-.429-.609 0-1.128.633-3.882.903-5.213.09-.497.136-.7.136-.993 0-.992-1.648-2.167-3.792-2.167-2.48 0-4.725 1.57-5.85 3.903-1.673 2.955-3.208 5.08-3.968 5.08-.339 0-.452-.43-.542-.836l-.561-3.11 3.452-2.82c.316-.271.722-.656.722-1.152 0-.61-.406-1.016-1.015-1.016-.452 0-.835.27-1.219.587l-5.19 4.288 1.738-8.08c.046-.27.113-.496.113-.722 0-.656-.452-1.085-1.152-1.085-.745 0-1.082.497-1.241 1.265l-2.82 13.113c-.068.27-.114.496-.114.722 0 .655.452 1.083 1.129 1.083.768 0 1.105-.497 1.264-1.265l.362-1.692 2.121-1.714.52 2.617c.203 1.038.745 2.054 2.144 2.054 1.392 0 2.487-1.271 3.585-2.99.332 1.8 1.613 2.99 3.39 2.99 1.784 0 3.003-1.062 3.792-2.483v.046c0 1.467.745 2.437 2.054 2.437 1.184 0 2.167-.714 3.045-2.231.498 1.322 1.612 2.23 3.161 2.23 1.828 0 3.137-1.105 3.972-2.64v.136c0 1.625.812 2.506 2.144 2.506 1.176 0 2.175-.683 3.028-1.793.649 1.11 1.812 1.793 3.383 1.793 3.611 0 6.071-3.588 6.071-7.02-.001-2.416-1.469-4.153-3.975-4.153ZM72.95 13.579c-.655 2.82-2.054 4.424-3.635 4.424-1.061 0-1.647-.812-1.647-2.03 0-2.394 1.737-4.967 4.061-4.967.7 0 1.242.203 1.715.497l-.494 2.076Zm12.57-1.195c-.722 3.318-2.37 5.62-4.174 5.62-.993 0-1.581-.769-1.581-2.032 0-2.414 1.67-4.92 3.905-4.92.858 0 1.512.293 1.987.677l-.136.655Zm8.103 5.62c-1.308 0-1.85-.949-1.85-2.145 0-2.19 1.511-4.694 3.408-4.694 1.309 0 1.85.949 1.85 2.144 0 2.211-1.511 4.694-3.408 4.694ZM45.322 8.997c-3.611 0-6.072 3.588-6.072 6.997 0 2.437 1.468 4.175 3.972 4.175 3.612 0 6.072-3.589 6.072-7.02 0-2.414-1.467-4.152-3.972-4.152Zm-1.828 9.006c-1.308 0-1.85-.948-1.85-2.143 0-2.19 1.511-4.695 3.408-4.695 1.309 0 1.85.949 1.85 2.144 0 2.211-1.513 4.694-3.408 4.694Z" fill="#fff"/><path d="M10.86 5.138c2.3 0 4.165-1.085 4.165-2.423S13.16.293 10.86.293 6.694 1.377 6.694 2.715 8.56 5.138 10.86 5.138ZM10.86 23.39c2.3 0 4.165-1.084 4.165-2.422s-1.865-2.422-4.165-2.422-4.166 1.084-4.166 2.422S8.56 23.39 10.86 23.39ZM5.055 8.491c1.15-1.992 1.143-4.15-.017-4.82-1.159-.668-3.031.404-4.181 2.396s-1.143 4.15.016 4.819c1.16.67 3.032-.403 4.182-2.395ZM20.86 17.616c1.15-1.992 1.144-4.15-.015-4.818-1.159-.669-3.03.404-4.18 2.396s-1.144 4.15.015 4.818c1.159.669 3.03-.404 4.18-2.396ZM5.039 20.012c1.16-.67 1.167-2.827.017-4.82-1.15-1.992-3.023-3.064-4.182-2.395-1.16.67-1.167 2.827-.017 4.82 1.15 1.992 3.022 3.064 4.182 2.395ZM20.846 10.886c1.159-.668 1.166-2.826.015-4.818-1.15-1.992-3.021-3.065-4.18-2.396-1.159.67-1.166 2.827-.015 4.819 1.15 1.992 3.021 3.065 4.18 2.396Z" fill="#E6007A"/></g><defs><clipPath id="a"><path fill="#fff" transform="translate(0 .293)" d="M0 0h108v23.099H0z"/></clipPath></defs></svg>