<svg width="90" height="91" fill="none" xmlns="http://www.w3.org/2000/svg"><path d="M89.537 42.78v4.925c-.094.055-.085.148-.09.238-.015.311-.023.625-.052.936a52.671 52.671 0 0 1-.522 4.056 43.963 43.963 0 0 1-3.527 11.237 43.392 43.392 0 0 1-3.667 6.398c-1.714 2.476-3.633 4.779-5.814 6.86a51.432 51.432 0 0 1-2.097 1.912 42.714 42.714 0 0 1-3.875 2.955 44.998 44.998 0 0 1-5.853 3.361 45.312 45.312 0 0 1-4.888 1.992 43.766 43.766 0 0 1-9.572 2.097c-.719.074-1.436.15-2.159.172-.077.002-.149.013-.193.088h-4.925c-.044-.075-.116-.088-.193-.088-.223.004-.446-.026-.67-.039a38.588 38.588 0 0 1-4.015-.472 44.548 44.548 0 0 1-7.236-1.83 45.343 45.343 0 0 1-6.57-2.878 43.922 43.922 0 0 1-4.731-2.93 43.611 43.611 0 0 1-6.294-5.415 53.986 53.986 0 0 1-1.883-2.063 43.1 43.1 0 0 1-3.1-4.072 45.027 45.027 0 0 1-3.054-5.284 45.018 45.018 0 0 1-2.249-5.456 42.79 42.79 0 0 1-1.456-5.512 43.055 43.055 0 0 1-.59-3.912c-.072-.72-.155-1.437-.174-2.16-.001-.077-.012-.149-.088-.193V42.78c.076-.045.088-.116.088-.194.002-.418.056-.831.085-1.248.08-1.079.218-2.15.39-3.217A44.347 44.347 0 0 1 2.5 30.45a45.673 45.673 0 0 1 2.286-5.367c.933-1.856 2-3.63 3.178-5.339 1.468-2.13 3.133-4.095 4.928-5.951.53-.546 1.096-1.053 1.652-1.57a41.09 41.09 0 0 1 3.01-2.532 44.494 44.494 0 0 1 6.319-4.054 44.926 44.926 0 0 1 6.611-2.843 43.42 43.42 0 0 1 5.533-1.466A43.553 43.553 0 0 1 39.95.733C40.67.66 41.387.578 42.11.559c.077-.002.15-.013.194-.088h4.924c.05.085.13.086.215.088.799.019 1.592.102 2.382.192a46.34 46.34 0 0 1 5.024.86 44.073 44.073 0 0 1 9.775 3.49 44.7 44.7 0 0 1 5.618 3.321c2.15 1.49 4.15 3.16 6.013 4.991a43.934 43.934 0 0 1 2.55 2.755 45.274 45.274 0 0 1 3.116 4.089 45.023 45.023 0 0 1 5.357 10.91 43.062 43.062 0 0 1 1.389 5.277c.256 1.318.47 2.642.604 3.979.072.719.153 1.436.174 2.158.005.085.016.157.092.2Zm-28.63 20.922c.089-.042.135-.064.181-.088 1.252-.677 2.5-1.363 3.76-2.026.657-.347.956-.869.956-1.608-.005-8.826-.004-17.653-.002-26.478 0-1.57-.67-2.742-2.033-3.53-3.258-1.883-6.51-3.779-9.764-5.67-3.236-1.879-6.47-3.761-9.707-5.638-1.405-.815-2.93.063-2.93 1.683 0 3.521.003 7.043-.005 10.564 0 .19.063.286.221.382 5.8 3.473 11.599 6.95 17.397 10.43.269.162.527.339.752.56.815.793 1.178 1.764 1.176 2.896-.005 6.066-.003 12.131-.002 18.197v.326Zm-3.751-7.78c0-2.946.002-5.894-.002-8.84 0-.253-.01-.509-.052-.758-.21-1.252-.905-2.15-1.998-2.786-4.646-2.699-9.285-5.41-13.925-8.12-1.855-1.081-3.71-2.16-5.56-3.244-.44-.256-.904-.35-1.398-.245-.901.19-1.491.94-1.493 1.89-.002 3.715.002 7.43-.008 11.145 0 .254.089.38.294.5 5.637 3.367 11.271 6.74 16.907 10.108 1.317.787 1.973 1.936 1.971 3.473-.005 3.245-.002 6.49-.002 9.735 0 .059.002.12 0 .178-.005.117.052.126.139.084.06-.03.12-.063.176-.094 1.332-.749 2.657-1.51 3.998-2.242.661-.362.96-.88.958-1.63-.013-3.051-.005-6.103-.005-9.154Zm-9.02 9.346c0-1.47.006-2.94-.001-4.409-.008-1.482-.664-2.605-1.941-3.35-6.52-3.805-13.042-7.606-19.563-11.41-1.373-.8-2.915.061-2.922 1.65-.011 2.865-.011 5.728 0 8.593.007 1.737.776 3.065 2.253 3.97 4.555 2.793 9.116 5.579 13.674 8.368 1.665 1.02 3.331 2.037 4.996 3.06.51.314 1.056.449 1.646.34 1.117-.205 1.851-1.097 1.855-2.27.01-1.513.004-3.027.004-4.542Z" fill="#fff"/><path d="M60.902 63.702v-.327c0-6.065-.004-12.13.001-18.196.002-1.132-.36-2.104-1.176-2.897a4.133 4.133 0 0 0-.752-.56c-5.798-3.477-11.596-6.956-17.396-10.43-.16-.096-.223-.192-.221-.381.005-3.522.003-7.043.005-10.565 0-1.618 1.523-2.498 2.93-1.683 3.237 1.877 6.47 3.758 9.706 5.638 3.254 1.892 6.506 3.787 9.764 5.671 1.364.79 2.033 1.96 2.033 3.529-.002 8.826-.002 17.653.002 26.478 0 .74-.299 1.261-.957 1.608-1.259.664-2.507 1.35-3.759 2.026-.044.024-.092.046-.18.089Z" fill="#FF5C3E"/><path d="M57.16 55.921c0 3.051-.007 6.103.005 9.154.004.748-.297 1.268-.958 1.63-1.34.732-2.666 1.493-3.997 2.242a4.211 4.211 0 0 1-.177.094c-.087.042-.144.033-.139-.083.004-.06 0-.12 0-.18 0-3.244-.003-6.489.002-9.734.002-1.537-.654-2.686-1.97-3.473-5.636-3.368-11.27-6.74-16.908-10.107-.205-.122-.293-.247-.293-.501.01-3.715.005-7.43.007-11.145 0-.95.59-1.7 1.493-1.89.494-.105.959-.011 1.398.245 1.853 1.084 3.707 2.165 5.56 3.245 4.64 2.708 9.279 5.42 13.925 8.12 1.093.634 1.786 1.533 1.998 2.785.043.25.05.505.052.758.004 2.946.002 5.894.002 8.84Z" fill="#FF5C3E"/><path d="M48.13 65.266c0 1.513.006 3.029-.002 4.542-.005 1.171-.737 2.065-1.854 2.27-.59.107-1.136-.026-1.647-.34-1.663-1.022-3.33-2.04-4.996-3.06-4.559-2.789-9.118-5.575-13.674-8.368-1.477-.905-2.245-2.233-2.253-3.97-.013-2.864-.01-5.728 0-8.593.006-1.589 1.549-2.452 2.922-1.65 6.521 3.804 13.044 7.604 19.563 11.41 1.278.746 1.934 1.868 1.941 3.35.008 1.47 0 2.94 0 4.409Z" fill="#FF5C3E"/></svg>