<svg width="118" height="43" fill="none" xmlns="http://www.w3.org/2000/svg"><path d="M20.561 24.488c0 .674-.005 1.352.003 2.03.004.365.062.72.272 1.034.176.265.414.484.692.638.938.527 1.879 1.048 2.81 1.587.702.409 1.37.416 2.075-.02.953-.59 1.935-1.133 2.905-1.695.549-.318.813-.803.816-1.43.006-1.122 0-2.245.003-3.368.002-.684-.293-1.199-.879-1.541-.547-.32-1.102-.627-1.654-.94-.424-.238-.85-.476-1.272-.718-.626-.36-1.244-.402-1.892-.03-2.12 1.22-4.244 2.431-6.373 3.635-1.338.761-2.678 1.52-4.018 2.277-.657.37-1.306.352-1.967-.025-1.878-1.072-3.766-2.125-5.647-3.192-.567-.32-.869-.802-.867-1.47.005-2.2.005-4.4 0-6.6 0-.62.256-1.094.793-1.403.912-.525 1.83-1.042 2.746-1.56.976-.551 1.952-1.1 2.93-1.65.288-.16.583-.295.923-.317.411-.027.78.08 1.134.284 1.304.754 2.61 1.504 3.917 2.25.53.305 1.055.617 1.592.91.64.352.938.892.937 1.61 0 .647-.002 1.294 0 1.94 0 .146-.02.252-.166.335-.799.451-1.59.915-2.385 1.372a.135.135 0 0 1-.142.008c-.057-.095-.029-.21-.03-.318-.002-.601-.006-1.202 0-1.804.01-.688-.299-1.198-.88-1.54-.653-.384-1.32-.748-1.98-1.12-.316-.178-.632-.354-.946-.535a2.42 2.42 0 0 0-.69-.262c-.363-.079-.7-.014-1.015.153-.53.28-1.052.578-1.575.871-.514.288-1.026.579-1.54.867-.59.33-.912.81-.901 1.512.017 1.145.014 2.29 0 3.437-.008.633.275 1.104.789 1.412a92.32 92.32 0 0 0 3.182 1.825c.573.314 1.16.298 1.745-.042a371.81 371.81 0 0 1 6.46-3.686c1.248-.69 2.471-1.425 3.704-2.144.396-.23.797-.424 1.276-.393.289.018.555.08.808.224 1.919 1.091 3.84 2.18 5.762 3.265.622.35.934.86.933 1.575-.004 2.143-.004 4.286 0 6.43 0 .68-.28 1.203-.871 1.544-.755.436-1.514.864-2.273 1.294a1199.37 1199.37 0 0 1-3.435 1.93c-.642.359-1.277.372-1.931 0a606.196 606.196 0 0 0-5.622-3.169c-.413-.231-.724-.534-.867-.997-.04-.13-.061-.264-.06-.4 0-.715.004-1.43-.004-2.144-.002-.188.045-.306.224-.405.743-.41 1.475-.842 2.212-1.263.064-.039.128-.095.24-.068Z" fill="#8348E5"/><path d="M86.028 24.948c-.51.542-1.076.943-1.766 1.148-1.768.527-3.389.26-4.773-.997-.855-.776-1.361-1.766-1.514-2.922-.15-1.147.018-2.237.643-3.223.759-1.198 1.796-2.059 3.223-2.285 1.237-.196 2.46-.072 3.585.561.209.118.372.293.565.445.117-.126.154-.283.21-.426.062-.16.156-.218.33-.216.76.009 1.52.002 2.28.005.252 0 .256.004.256.267.002 1.135.002 2.27 0 3.404v5.308c0 1.142-.412 2.117-1.207 2.932-.914.937-2.048 1.43-3.32 1.629a7.115 7.115 0 0 1-2.73-.098 5.976 5.976 0 0 1-2.494-1.255c-.146-.121-.4-.204-.394-.388.003-.144.2-.286.319-.422.4-.461.801-.921 1.205-1.38.173-.195.173-.193.356-.029.39.35.817.648 1.31.832.974.364 1.94.363 2.883-.12.685-.351 1.057-.896 1.035-1.687-.01-.362-.002-.723-.002-1.083Zm0-3.483c0-.238-.024-.476.004-.712.059-.49-.196-.834-.53-1.109-.728-.598-1.577-.819-2.502-.63-.752.152-1.361.549-1.736 1.24-.61 1.131-.21 2.605.883 3.308.692.444 1.43.496 2.207.294.625-.163 1.14-.48 1.523-1.003a.715.715 0 0 0 .152-.471c-.01-.305-.001-.611-.001-.917ZM41.522 17.845c.554-.409 1.107-.76 1.73-.98 1.039-.368 2.101-.467 3.161-.143 1.389.422 2.335 1.349 2.834 2.71.415 1.13.49 2.303.193 3.466-.352 1.376-1.154 2.41-2.506 2.963-1.195.49-2.414.646-3.673.29-.572-.162-1.103-.406-1.537-.823-.107.076-.063.174-.063.255-.003 1.474-.004 2.948-.002 4.42 0 .068-.006.136 0 .204.015.156-.034.228-.208.217-.214-.014-.43-.003-.647-.003-.623 0-1.247-.007-1.871.004-.183.003-.247-.059-.228-.232a1.88 1.88 0 0 0 0-.204V17.067c-.003-.28-.001-.258.26-.258.703 0 1.406.004 2.11-.002.149 0 .22.034.247.196.05.274.128.543.2.842Zm.204 3.646v.92c0 .112.003.221.056.328.207.416.488.755.908.976.583.315 1.263.4 1.905.235.776-.188 1.378-.624 1.726-1.356.24-.504.284-1.046.158-1.588-.185-.787-.602-1.407-1.36-1.757-.368-.17-.76-.209-1.156-.19-.885.04-1.62.37-2.12 1.137a.633.633 0 0 0-.117.379c.006.304 0 .61 0 .916ZM96.038 26.294c-1.08-.01-2.115-.213-3.05-.775-1.267-.76-1.976-1.885-2.154-3.354-.109-.902-.049-1.787.302-2.63.473-1.135 1.293-1.955 2.414-2.453 1.573-.696 3.181-.762 4.777-.115 1.614.655 2.569 1.888 2.868 3.6.263 1.508-.091 2.872-1.075 4.06-.498.6-1.143.984-1.86 1.26a6.035 6.035 0 0 1-2.222.407Zm2.172-4.642c-.006-.953-.197-1.596-.715-2.067-1.254-1.139-3.07-.506-3.583.91-.238.653-.194 1.31.052 1.956.424 1.113 1.245 1.607 2.422 1.438a1.955 1.955 0 0 0 1.245-.692c.363-.434.567-.98.579-1.545ZM55.906 16.606c1.173-.024 2.201.24 3.116.866 1.162.794 1.857 1.888 2.034 3.298.091.727.075 1.449-.15 2.144-.503 1.557-1.52 2.626-3.097 3.117-1.634.51-3.236.425-4.773-.35-1.329-.67-2.064-1.788-2.328-3.233a5.24 5.24 0 0 1 .312-2.99c.392-.953 1.073-1.644 1.959-2.133.928-.51 1.927-.77 2.927-.72Zm-.068 7.304c.99.073 1.94-.647 2.16-1.683.084-.398.13-.792.068-1.204-.099-.656-.368-1.203-.89-1.618-1.045-.833-2.623-.47-3.206.652a2.92 2.92 0 0 0-.252 2.103c.242.985 1.048 1.802 2.118 1.75h.002ZM105.904 18.373c.226-.245.375-.47.566-.661a3.638 3.638 0 0 1 2.348-1.09c.655-.051 1.316-.067 1.94.196 1.006.422 1.633 1.135 1.746 2.26.038.384.039.767.039 1.151.002 1.814.002 3.628 0 5.442 0 .08-.005.16 0 .239.011.131-.044.18-.175.18-.896-.004-1.792-.004-2.689 0-.125 0-.193-.037-.18-.176.008-.079 0-.159 0-.238V20.54a2.04 2.04 0 0 0-.057-.57c-.159-.562-.538-.876-1.121-.913-.826-.052-1.414.332-1.813 1.024a4.165 4.165 0 0 0-.544 2.076c-.009 1.225-.003 2.45-.002 3.674 0 .266.017.26-.258.26h-2.451c-.238 0-.241-.006-.241-.239-.002-2.857-.002-5.714 0-8.571 0-.234.006-.239.248-.239.737-.002 1.474.004 2.212-.003.181-.002.257.043.272.242.033.34.1.684.16 1.092ZM72.791 22.34c.25-.54.468-1.011.681-1.483.55-1.215 1.099-2.43 1.644-3.648.053-.119.111-.176.248-.175.817.005 1.633.003 2.466.003-.061.33-.23.6-.355.885l-5.407 12.177c-.12.272-.26.36-.551.351-.702-.023-1.406-.007-2.11-.008-.11 0-.222.017-.357-.031.14-.31.272-.608.408-.903.564-1.221 1.126-2.444 1.7-3.66a.447.447 0 0 0-.01-.44 1416.425 1416.425 0 0 1-4.017-8.124c-.033-.068-.061-.14-.108-.247h.468c.862 0 1.724.009 2.586-.005.226-.004.344.059.438.272.646 1.456 1.307 2.906 1.964 4.358l.313.678ZM62.89 17.945v-7.82c0-.406-.04-.369.36-.37h2.311c.298 0 .3.003.3.292.002.964.002 1.927 0 2.89v12.75c0 .444.068.4-.392.4-.736.003-1.473.003-2.21 0-.422 0-.368.03-.368-.357v-7.785Z" fill="#fff"/></svg>