<svg xmlns="http://www.w3.org/2000/svg" width="54" height="52" fill="none"><path fill="#3970A2" stroke="#F9F9F9" stroke-width=".835" d="M12.811 37.799v-7.012c.036-1.89 1.462-5.712 6.88-5.877 5.417-.165 11.86-.069 14.403 0 1.385.095 3.96-1.141 5.32-4.125V5.835c-.841-1.513-3.772-4.579-8.76-4.744-4.987-.165-8.814-.069-10.103 0-1.9.584-5.762 2.351-6.02 4.743-.258 2.392-.107 5.259 0 6.393H27v1.444H8.834c-2.508.275-7.567 2.454-7.739 8.97-.172 6.517-.072 7.39 0 7.012.25 2.372 1.849 7.321 6.234 8.146h5.482Z"/><path fill="#F3BA2F" stroke="#F9F9F9" stroke-width=".835" d="M41.564 14.083v7.012c-.036 1.89-1.462 5.712-6.88 5.877-5.417.165-11.86.069-14.403 0-1.385-.095-3.96 1.141-5.32 4.125v14.951c.841 1.512 3.772 4.578 8.76 4.743 4.987.165 8.814.069 10.103 0 1.9-.584 5.762-2.35 6.02-4.743.258-2.392.107-5.259 0-6.393H27.375v-1.444h18.166c2.508-.274 7.567-2.453 7.739-8.97.172-6.517.072-7.39 0-7.012-.25-2.371-1.849-7.32-6.234-8.146h-5.482Z"/><ellipse cx="20.013" cy="6.969" fill="#fff" stroke="#3970A2" stroke-width="1.669" rx="2.472" ry="2.372"/><ellipse cx="33.988" cy="44.502" fill="#fff" stroke="#F3BA2F" stroke-width="1.669" rx="2.472" ry="2.372"/></svg>