<svg width="66" height="66" viewBox="0 0 66 66" fill="none" xmlns="http://www.w3.org/2000/svg">
<path d="M15.4328 48.2119L15.4328 39.2162C15.4766 36.7909 17.2191 31.8874 23.839 31.6757C30.4588 31.464 38.3309 31.5875 41.4394 31.6757C43.1316 31.7974 46.2789 30.2117 47.9402 26.3841L47.9403 7.20218C46.9116 5.26194 43.3308 1.32853 37.2363 1.11687C31.1418 0.905208 26.4659 1.02868 24.8897 1.11687C22.5693 1.86651 17.8496 4.13307 17.5343 7.20218C17.2191 10.2713 17.403 13.9489 17.5343 15.4041L32.7705 15.4041L32.7705 17.2562L10.573 17.2562C7.50823 17.6089 1.32619 20.4046 1.11604 28.7653C0.905882 37.126 1.02847 38.2461 1.11604 37.761C1.42251 40.8037 3.37519 47.1535 8.73413 48.2119L15.4328 48.2119Z" fill="#3970A2" stroke="#F9F9F9" stroke-width="0.834541"/>
<path d="M50.5672 17.7881L50.5672 26.7838C50.5234 29.2091 48.7809 34.1126 42.161 34.3243C35.5412 34.536 27.6691 34.4125 24.5606 34.3243C22.8684 34.2026 19.7211 35.7883 18.0598 39.6159L18.0597 58.7978C19.0884 60.7381 22.6692 64.6715 28.7637 64.8831C34.8582 65.0948 39.5341 64.9713 41.1103 64.8831C43.4307 64.1335 48.1504 61.8669 48.4657 58.7978C48.7809 55.7287 48.597 52.0511 48.4657 50.5959L33.2295 50.5959L33.2295 48.7438L55.427 48.7438C58.4918 48.3911 64.6738 45.5954 64.884 37.2347C65.0941 28.874 64.9715 27.7539 64.884 28.239C64.5775 25.1963 62.6248 18.8465 57.2659 17.7881L50.5672 17.7881Z" fill="#F3BA2F" stroke="#F9F9F9" stroke-width="0.834541"/>
<ellipse cx="24.2334" cy="8.65517" rx="3.02097" ry="3.04265" fill="white" stroke="#3970A2" stroke-width="1.66908"/>
<ellipse cx="41.3086" cy="56.8116" rx="3.02097" ry="3.04265" fill="white" stroke="#F3BA2F" stroke-width="1.66908"/>
</svg>
