<svg xmlns="http://www.w3.org/2000/svg" width="74" height="74" fill="none"><path fill="#00A4D6" fill-rule="evenodd" d="M37 60.107a23.068 23.068 0 0 0 16.16-6.568c.095-.095.284-.095.426 0l9.593 9.593 9.97 9.97c.237.236 0 .567-.283.473L56.94 68.282c-.094-.047-.189 0-.236.047A36.935 36.935 0 0 1 37 74C16.539 74 0 57.414 0 37 0 16.539 16.586 0 37 0s37 16.586 37 37a36.905 36.905 0 0 1-8.08 23.107c-.095.142-.284.142-.426 0L45.931 40.544c-.236-.236 0-.567.284-.472l12.427 4.158a.321.321 0 0 0 .378-.19A23.105 23.105 0 0 0 60.107 37c0-12.759-10.348-23.154-23.154-23.154S13.798 24.194 13.798 37C13.845 49.711 24.241 60.107 37 60.107Z" clip-rule="evenodd"/></svg>