<svg xmlns="http://www.w3.org/2000/svg" width="65" height="74" fill="none"><path fill="url(#a)" d="M60.928 27.772v25.807L32.136 70.15 3.332 53.58V20.433L32.148 3.837l22.127 12.747 3.344-1.918L32.148 0 0 18.503v36.994L32.148 74l32.147-18.503V25.853l-3.367 1.919Z"/><path fill="url(#b)" d="M23.01 52.857h-5.15V37.118h17.187c1.622-.011 3.18-.61 4.328-1.67 1.148-1.05 1.784-2.473 1.797-3.952a4.892 4.892 0 0 0-.462-2.134 5.454 5.454 0 0 0-1.347-1.795 6.154 6.154 0 0 0-1.97-1.22 6.315 6.315 0 0 0-2.346-.417H17.86v-4.787h17.2c3.006.01 5.9 1.117 8.02 3.048 2.133 1.942 3.33 4.561 3.355 7.305.012 2.1-.686 4.143-2.008 5.86-1.222 1.636-2.944 2.923-4.952 3.691a21.75 21.75 0 0 1-6.149.847H23.011v10.963Z"/><path fill="url(#c)" d="M46.436 52.857h-6.048l-4.668-9.302a17.475 17.475 0 0 0 5.408-1.27l5.308 10.572Z"/><path fill="url(#d)" d="m57.151 22.128 3.572 2.54 3.572-2.54v-5.381l-3.572-2.651-3.572 2.65v5.382Z"/><defs><linearGradient id="a" x1="66.244" x2="-1.863" y1="23.552" y2="50.865" gradientUnits="userSpaceOnUse"><stop stop-color="#C200FB"/><stop offset=".49" stop-color="#3772FF"/><stop offset=".49" stop-color="#3773FE"/><stop offset="1" stop-color="#5AC4BE"/></linearGradient><linearGradient id="b" x1="66.747" x2="-4.187" y1="20.328" y2="51.499" gradientUnits="userSpaceOnUse"><stop stop-color="#C200FB"/><stop offset=".49" stop-color="#3772FF"/><stop offset=".49" stop-color="#3773FE"/><stop offset="1" stop-color="#5AC4BE"/></linearGradient><linearGradient id="c" x1="74.315" x2="-1.541" y1="33.175" y2="59.713" gradientUnits="userSpaceOnUse"><stop stop-color="#C200FB"/><stop offset=".49" stop-color="#3772FF"/><stop offset=".49" stop-color="#3773FE"/><stop offset="1" stop-color="#5AC4BE"/></linearGradient><linearGradient id="d" x1="64.525" x2="-12.963" y1="17.466" y2="41.657" gradientUnits="userSpaceOnUse"><stop stop-color="#C200FB"/><stop offset=".49" stop-color="#3772FF"/><stop offset=".49" stop-color="#3773FE"/><stop offset="1" stop-color="#5AC4BE"/></linearGradient></defs></svg>