<svg xmlns="http://www.w3.org/2000/svg" width="60" height="60" fill="none"><path fill="#61DAFB" d="M48.124 21.178c-.599-.205-1.203-.395-1.81-.572.1-.41.193-.823.279-1.237 1.37-6.668.474-12.04-2.586-13.809-2.93-1.696-7.734.072-12.58 4.3-.477.417-.944.847-1.401 1.29a27.48 27.48 0 0 0-.938-.863C24.008 5.766 18.916 3.86 15.86 5.635c-2.93 1.7-3.8 6.75-2.566 13.07.123.625.262 1.248.416 1.867-.72.205-1.417.424-2.083.656-5.948 2.08-9.752 5.342-9.752 8.724 0 3.494 4.083 6.998 10.286 9.123.503.171 1.01.33 1.523.477a34.849 34.849 0 0 0-.442 2.012c-1.172 6.21-.258 11.141 2.666 12.83 3.02 1.746 8.086-.047 13.024-4.371.391-.343.782-.704 1.172-1.084.494.477 1.002.94 1.524 1.39 4.781 4.122 9.502 5.787 12.422 4.093 3.017-1.751 3.998-7.048 2.724-13.492-.097-.492-.21-.995-.337-1.507.356-.105.705-.215 1.046-.327 6.446-2.141 10.644-5.603 10.644-9.14-.002-3.4-3.928-6.681-10.003-8.778Zm-15.117-9.502c4.152-3.622 8.033-5.051 9.803-4.03 1.883 1.089 2.615 5.479 1.432 11.236-.078.375-.163.75-.253 1.122a57.17 57.17 0 0 0-7.521-1.19 56.403 56.403 0 0 0-4.755-5.948c.42-.408.851-.804 1.292-1.19h.002ZM18.484 32.843a70.773 70.773 0 0 0 3.36 5.812 50.993 50.993 0 0 1-5.184-.835 54.06 54.06 0 0 1 1.824-4.977Zm0-5.664a52.08 52.08 0 0 1-1.787-4.879 54.003 54.003 0 0 1 5.1-.876 69.398 69.398 0 0 0-1.725 2.84 74.001 74.001 0 0 0-1.591 2.915h.003Zm1.277 2.832a68.452 68.452 0 0 1 5.12-8.895 68.089 68.089 0 0 1 10.254 0 73.019 73.019 0 0 1 2.71 4.337 81.38 81.38 0 0 1 2.425 4.523 73.563 73.563 0 0 1-2.418 4.564 80.034 80.034 0 0 1-2.696 4.364c-1.67.117-3.398.181-5.156.181-1.758 0-3.453-.055-5.093-.161a68.13 68.13 0 0 1-5.15-8.913h.004Zm20.17 5.732a74.09 74.09 0 0 0 1.632-2.987 51.635 51.635 0 0 1 1.889 4.96 50.89 50.89 0 0 1-5.249.896c.595-.945 1.172-1.901 1.729-2.869Zm1.608-8.563a78.454 78.454 0 0 0-1.618-2.93 70.244 70.244 0 0 0-1.71-2.819c1.794.227 3.516.53 5.13.899a51.544 51.544 0 0 1-1.802 4.85ZM30.027 14.587a51.55 51.55 0 0 1 3.31 4.006 69.885 69.885 0 0 0-6.649 0 52.832 52.832 0 0 1 3.339-4.006ZM17.07 7.717c1.882-1.091 6.043.47 10.43 4.368.28.25.562.511.843.782a57.57 57.57 0 0 0-4.788 5.943 58.49 58.49 0 0 0-7.507 1.172 36.239 36.239 0 0 1-.387-1.737c-1.06-5.418-.359-9.502 1.409-10.527Zm-2.744 29.514a28.133 28.133 0 0 1-1.389-.434c-2.742-.938-5.007-2.161-6.562-3.494-1.392-1.194-2.098-2.385-2.098-3.351 0-2.052 3.054-4.67 8.147-6.446.64-.222 1.285-.426 1.936-.61a57.83 57.83 0 0 0 2.742 7.12 58.886 58.886 0 0 0-2.776 7.215ZM27.35 48.209c-2.183 1.913-4.37 3.269-6.297 3.952-1.732.613-3.112.63-3.945.149-1.774-1.026-2.512-4.985-1.506-10.296.12-.625.256-1.25.41-1.875 2.5.538 5.032.906 7.581 1.1a58.725 58.725 0 0 0 4.828 5.977c-.349.343-.706.674-1.07.993Zm2.745-2.72a53.904 53.904 0 0 1-3.385-4.06 84.08 84.08 0 0 0 3.291.063c1.146 0 2.28-.024 3.398-.075a51.478 51.478 0 0 1-3.304 4.071Zm14.592 3.35c-.335 1.81-1.009 3.016-1.842 3.499-1.773 1.029-5.564-.308-9.652-3.834a38.471 38.471 0 0 1-1.414-1.29 56.791 56.791 0 0 0 4.714-6 55.998 55.998 0 0 0 7.617-1.177c.115.464.217.919.305 1.364.564 2.848.645 5.423.272 7.438Zm2.039-12.028c-.307.102-.623.2-.944.296a56.645 56.645 0 0 0-2.85-7.141 56.42 56.42 0 0 0 2.738-7.038c.576.167 1.135.343 1.672.53 5.206 1.794 8.382 4.452 8.382 6.495 0 2.18-3.43 5.008-8.998 6.858Z"/><path fill="#61DAFB" d="M30 34.986a5.04 5.04 0 1 0-5.023-5.039 5.027 5.027 0 0 0 5.022 5.04Z"/></svg>