<svg xmlns="http://www.w3.org/2000/svg" width="41" height="41" fill="none"><rect width="40" height="40" x=".723" y=".118" fill="#141414" rx="4"/><path fill="#fff" d="m32.852 19.125-1.046-.648a13.816 13.816 0 0 0-.03-.305l.901-.84a.359.359 0 0 0-.12-.6l-1.15-.429-.09-.298.717-.996a.36.36 0 0 0-.234-.566l-1.213-.197a9.094 9.094 0 0 0-.146-.272l.51-1.12a.36.36 0 0 0-.34-.51l-1.232.043a9.777 9.777 0 0 0-.195-.236l.284-1.199a.36.36 0 0 0-.434-.434l-1.2.283c-.077-.066-.156-.13-.236-.194l.043-1.233a.359.359 0 0 0-.51-.34l-1.118.51c-.09-.05-.18-.099-.271-.146l-.198-1.213a.359.359 0 0 0-.566-.234l-.996.718a11.99 11.99 0 0 0-.296-.09l-.429-1.151a.36.36 0 0 0-.6-.12l-.84.9a10.82 10.82 0 0 0-.304-.03l-.649-1.048a.36.36 0 0 0-.612 0l-.648 1.049c-.102.008-.204.018-.305.03l-.84-.901a.361.361 0 0 0-.6.12l-.429 1.15-.295.09-.997-.717a.361.361 0 0 0-.566.234l-.197 1.213c-.092.047-.182.096-.272.146l-1.118-.51a.36.36 0 0 0-.51.34l.043 1.233c-.08.063-.159.128-.237.194l-1.198-.284a.36.36 0 0 0-.434.434l.28 1.2c-.065.078-.13.156-.194.236l-1.232-.043a.362.362 0 0 0-.34.51l.51 1.12c-.05.09-.099.18-.146.272l-1.214.197a.36.36 0 0 0-.234.566l.718.996c-.031.099-.061.198-.09.298l-1.151.43a.36.36 0 0 0-.12.6l.902.839c-.012.101-.022.203-.03.305l-1.047.648a.36.36 0 0 0 0 .613l1.047.648c.008.102.018.204.03.305l-.901.839a.36.36 0 0 0 .119.6l1.151.43c.029.1.059.198.09.297l-.717.997a.36.36 0 0 0 .236.565l1.213.198c.047.092.096.182.146.271l-.51 1.118a.361.361 0 0 0 .34.51l1.23-.043.195.237-.281 1.199a.36.36 0 0 0 .434.432l1.199-.282c.078.066.157.13.236.194l-.043 1.232a.36.36 0 0 0 .51.34l1.119-.51c.09.05.18.1.271.147l.198 1.213a.36.36 0 0 0 .566.236l.996-.718c.098.032.197.062.298.09l.429 1.152a.36.36 0 0 0 .6.12l.84-.901c.1.011.203.02.305.03l.648 1.046a.36.36 0 0 0 .612 0l.649-1.046.305-.03.839.9a.358.358 0 0 0 .6-.12l.43-1.15.297-.09.996.717a.36.36 0 0 0 .566-.236l.198-1.213.272-.146 1.117.51a.361.361 0 0 0 .51-.34l-.042-1.233c.08-.063.158-.128.236-.194l1.199.281a.36.36 0 0 0 .434-.431l-.281-1.2a9.78 9.78 0 0 0 .194-.236l1.232.044a.36.36 0 0 0 .34-.51l-.51-1.118c.05-.09.1-.181.146-.272l1.213-.198a.359.359 0 0 0 .234-.566l-.717-.996.09-.297 1.15-.43a.36.36 0 0 0 .12-.6l-.9-.839.03-.305 1.045-.648a.359.359 0 0 0 0-.613h-.007Zm-7.007 8.7a.742.742 0 1 1 .003 0h-.003Zm-.355-2.408a.673.673 0 0 0-.8.52l-.372 1.735a9.132 9.132 0 0 1-7.603-.036l-.372-1.735a.675.675 0 0 0-.8-.52l-1.533.33a9.255 9.255 0 0 1-.791-.935h7.46c.084 0 .14-.015.14-.092v-2.646c0-.076-.056-.091-.14-.091h-2.181v-1.671h2.357c.215 0 1.15.061 1.449 1.258.093.367.3 1.564.44 1.947.14.43.71 1.287 1.319 1.287h3.718a.76.76 0 0 0 .134-.013c-.257.35-.54.682-.843.991l-1.569-.336-.013.007Zm-10.32 2.371a.743.743 0 0 1-.31-1.451.741.741 0 1 1 .31 1.451Zm-2.836-11.463a.74.74 0 1 1-1.353.605.74.74 0 0 1 1.353-.605Zm-.87 2.059 1.597-.71a.675.675 0 0 0 .343-.892l-.329-.743h1.292v5.815H11.77a9.14 9.14 0 0 1-.295-3.482l-.01.012Zm7.007-.565v-1.716h3.075c.159 0 1.122.184 1.122.903 0 .599-.738.813-1.346.813h-2.86.01Zm11.178 1.544c0 .228-.008.453-.025.677h-.937c-.093 0-.13.062-.13.154v.429c0 1.01-.57 1.232-1.071 1.287-.477.053-1.003-.2-1.068-.491-.28-1.58-.748-1.917-1.487-2.503.918-.581 1.871-1.442 1.871-2.598 0-1.241-.85-2.023-1.43-2.407-.815-.536-1.716-.643-1.96-.643h-9.675a9.174 9.174 0 0 1 5.1-2.884l1.142 1.196c.257.27.684.281.955.022l1.278-1.22a9.134 9.134 0 0 1 6.244 4.457l-.875 1.973c-.15.34.003.741.343.891l1.683.749c.03.298.044.6.044.905l-.002.006Zm-9.676-9.986a.739.739 0 0 1 1.046.024.743.743 0 0 1-.024 1.05.738.738 0 0 1-1.047-.025.743.743 0 0 1 .025-1.049Zm8.675 6.983a.742.742 0 1 1 1.352.603.742.742 0 0 1-1.352-.603Z" opacity=".3"/></svg>