<svg xmlns="http://www.w3.org/2000/svg" width="60" height="60" fill="none"><g clip-path="url(#a)"><path fill="#fff" d="M28.125 7.068a1.783 1.783 0 1 1 3.567 0 1.783 1.783 0 0 1-3.567 0ZM6.851 23.212a1.783 1.783 0 1 1 3.567 0 1.783 1.783 0 0 1-3.567 0Zm42.548.083a1.783 1.783 0 1 1 3.566 0 1.783 1.783 0 0 1-3.566 0ZM12.01 25.743a1.63 1.63 0 0 0 .827-2.148l-.791-1.79h3.112v14.026H8.88a21.956 21.956 0 0 1-.71-8.381l3.841-1.707Zm13.017.345v-4.134h7.41c.382 0 2.7.442 2.7 2.175 0 1.44-1.782 1.957-3.244 1.957l-6.866.002ZM14.91 48.346a1.783 1.783 0 1 1 3.566 0 1.783 1.783 0 0 1-3.566 0Zm26.424.083a1.783 1.783 0 1 1 3.567 0 1.783 1.783 0 0 1-3.567 0Zm.552-4.044a1.625 1.625 0 0 0-1.931 1.25l-.895 4.178a21.957 21.957 0 0 1-18.31-.088l-.894-4.178a1.622 1.622 0 0 0-1.93-1.25l-3.689.79a21.963 21.963 0 0 1-1.907-2.247h17.944c.202 0 .337-.038.337-.222v-6.346c0-.188-.135-.222-.337-.222h-5.25v-4.023h5.675c.518 0 2.77.15 3.492 3.026l1.06 4.687c.337 1.032 1.711 3.1 3.174 3.1h9.262a21.95 21.95 0 0 1-2.034 2.353l-3.767-.808Zm9.963-16.76a21.96 21.96 0 0 1 .047 3.813h-2.25c-.225 0-.318.15-.318.37v1.034c0 2.438-1.373 2.963-2.577 3.1-1.143.13-2.418-.48-2.572-1.182-.675-3.802-1.8-4.612-3.563-6.018 2.207-1.403 4.504-3.47 4.504-6.239 0-2.988-2.05-4.87-3.446-5.793-1.96-1.294-4.129-1.551-4.714-1.551H13.644a21.956 21.956 0 0 1 12.284-6.932l2.746 2.882c.62.65 1.65.675 2.3.053l3.074-2.939A21.957 21.957 0 0 1 49.08 18.928l-2.104 4.751a1.631 1.631 0 0 0 .827 2.149l4.047 1.798Zm5.247.076-.071-.735 2.167-2.021c.44-.413.276-1.238-.287-1.448l-2.77-1.035-.217-.712 1.725-2.4c.353-.488.028-1.266-.562-1.364l-2.922-.474-.35-.656 1.228-2.695c.251-.549-.216-1.25-.82-1.228l-2.962.104-.469-.569.681-2.887c.137-.587-.457-1.181-1.044-1.045l-2.888.681-.57-.469.103-2.962c.023-.6-.678-1.069-1.226-.82L43.15 6.195l-.657-.353-.476-2.921c-.094-.593-.876-.915-1.363-.563l-2.4 1.725-.713-.215-1.035-2.77C36.296.536 35.47.371 35.06.81l-2.021 2.167-.735-.071-1.56-2.522c-.315-.51-1.163-.51-1.476 0l-1.56 2.522-.735.071L24.947.806c-.412-.439-1.238-.276-1.447.289l-1.035 2.769-.713.216-2.4-1.725c-.488-.353-1.268-.029-1.363.562l-.476 2.921-.657.353-2.692-1.228c-.548-.25-1.25.22-1.226.82l.103 2.962-.57.468-2.888-.68c-.587-.137-1.181.457-1.044 1.044l.68 2.888-.468.568-2.963-.103c-.6-.02-1.068.678-.82 1.228l1.229 2.694-.352.656-2.922.475c-.592.093-.915.875-.562 1.363l1.725 2.4-.218.712-2.77 1.035c-.562.21-.727 1.037-.286 1.448l2.168 2.021-.072.735-2.522 1.56c-.51.315-.51 1.163 0 1.476l2.522 1.56.072.735-2.174 2.029c-.438.412-.275 1.237.287 1.447l2.77 1.035.217.712-1.725 2.4c-.35.488-.028 1.268.563 1.364l2.919.474.353.656-1.229 2.693c-.249.547.222 1.25.82 1.228l2.962-.103.469.57-.68 2.887c-.137.585.457 1.181 1.044 1.043l2.887-.68.57.468-.103 2.962c-.022.6.679 1.07 1.226.82l2.693-1.228.656.352.476 2.92c.094.594.876.915 1.363.566l2.4-1.729.713.218 1.035 2.769c.21.562 1.037.727 1.447.287l2.022-2.168.735.075 1.56 2.522c.315.506 1.159.51 1.475 0l1.56-2.522.735-.075 2.022 2.168c.412.44 1.237.275 1.447-.287l1.035-2.77.713-.217 2.4 1.729c.487.35 1.267.028 1.363-.566l.476-2.92.656-.352 2.693 1.228c.547.25 1.248-.218 1.226-.82l-.103-2.962.568-.469 2.888.68c.586.138 1.18-.457 1.044-1.042l-.68-2.887.468-.57 2.963.103c.6.024 1.068-.68.819-1.228l-1.228-2.693.35-.656 2.922-.474c.594-.094.918-.874.562-1.364l-1.725-2.4.218-.712 2.769-1.035c.563-.212.727-1.037.287-1.447l-2.168-2.022.072-.735 2.522-1.56c.51-.315.511-1.159 0-1.475l-2.51-1.564Z"/></g><defs><clipPath id="a"><path fill="#fff" d="M0 0h60v60H0z"/></clipPath></defs></svg>