<svg xmlns="http://www.w3.org/2000/svg" width="64" height="64" fill="none"><g clip-path="url(#a)"><path fill="#fff" d="M30 7.54a1.902 1.902 0 1 1 3.803 0 1.902 1.902 0 0 1-3.803 0ZM7.308 24.76a1.902 1.902 0 1 1 3.804 0 1.902 1.902 0 0 1-3.804 0Zm45.384.088a1.902 1.902 0 1 1 3.804 0 1.902 1.902 0 0 1-3.804 0Zm-39.88 2.612a1.74 1.74 0 0 0 .882-2.292l-.844-1.908h3.32v14.96H9.472a23.42 23.42 0 0 1-.758-8.94l4.098-1.82Zm13.884.368v-4.41H34.6c.408 0 2.88.472 2.88 2.32 0 1.536-1.9 2.088-3.46 2.088l-7.324.002ZM15.904 51.57a1.902 1.902 0 1 1 3.804 0 1.902 1.902 0 0 1-3.804 0Zm28.186.088a1.902 1.902 0 1 1 3.804 0 1.902 1.902 0 0 1-3.804 0Zm.588-4.314c-.94-.2-1.86.396-2.06 1.334l-.954 4.456a23.42 23.42 0 0 1-19.53-.094l-.954-4.456a1.73 1.73 0 0 0-2.06-1.334l-3.934.844a23.429 23.429 0 0 1-2.034-2.398h19.14c.216 0 .36-.04.36-.236v-6.77c0-.2-.144-.236-.36-.236h-5.6v-4.292h6.054c.552 0 2.954.16 3.724 3.228l1.13 5c.36 1.1 1.826 3.306 3.386 3.306h9.88a23.419 23.419 0 0 1-2.17 2.51l-4.018-.862Zm10.628-17.876c.134 1.35.151 2.711.05 4.066h-2.4c-.24 0-.34.16-.34.394v1.104c0 2.6-1.464 3.16-2.748 3.306-1.22.14-2.58-.512-2.744-1.26-.72-4.056-1.92-4.92-3.8-6.42 2.354-1.496 4.804-3.7 4.804-6.654 0-3.188-2.186-5.196-3.676-6.18-2.09-1.38-4.404-1.654-5.028-1.654h-24.87a23.42 23.42 0 0 1 13.102-7.394l2.93 3.074c.66.694 1.76.72 2.452.056l3.28-3.134A23.419 23.419 0 0 1 52.352 20.19l-2.244 5.068a1.74 1.74 0 0 0 .882 2.292l4.316 1.918Zm5.596.08-.076-.784 2.312-2.156c.47-.44.294-1.32-.306-1.544l-2.954-1.104-.232-.76 1.84-2.56c.376-.52.03-1.35-.6-1.454l-3.116-.506-.374-.7 1.31-2.874c.268-.586-.23-1.334-.874-1.31l-3.16.11-.5-.606.726-3.08c.146-.626-.488-1.26-1.114-1.114l-3.08.726-.608-.5.11-3.16c.024-.64-.724-1.14-1.308-.874l-2.872 1.31-.7-.376-.508-3.116c-.1-.632-.934-.976-1.454-.6l-2.56 1.84-.76-.23-1.104-2.954c-.224-.6-1.106-.776-1.544-.308L35.24 3.176l-.784-.076L32.792.41c-.336-.544-1.24-.544-1.574 0L29.554 3.1l-.784.076L26.61.86c-.44-.468-1.32-.294-1.544.308l-1.104 2.954-.76.23-2.56-1.84c-.52-.376-1.352-.03-1.454.6l-.508 3.116-.7.376-2.872-1.31c-.584-.266-1.334.234-1.308.874l.11 3.16-.608.5-3.08-.726c-.626-.146-1.26.488-1.114 1.114l.726 3.08-.5.606-3.16-.11c-.64-.02-1.14.724-.874 1.31l1.31 2.874-.376.7-3.116.506c-.632.1-.976.934-.6 1.454l1.84 2.56-.232.76-2.954 1.104c-.6.224-.776 1.106-.306 1.544l2.312 2.156-.076.784-2.69 1.664c-.544.336-.544 1.24 0 1.574l2.69 1.664.076.784L.86 37.394c-.468.44-.294 1.32.306 1.544l2.954 1.104.232.76-1.84 2.56c-.374.52-.03 1.352.6 1.454l3.114.506.376.7-1.31 2.872c-.266.584.236 1.334.874 1.31l3.16-.11.5.608-.726 3.08c-.146.624.488 1.26 1.114 1.112l3.08-.726.608.5-.11 3.16c-.024.64.724 1.14 1.308.874l2.872-1.31.7.376.508 3.114c.1.634.934.976 1.454.604l2.56-1.844.76.232 1.104 2.954c.224.6 1.106.776 1.544.306l2.156-2.312.784.08 1.664 2.69c.336.54 1.236.544 1.574 0l1.664-2.69.784-.08 2.156 2.312c.44.47 1.32.294 1.544-.306l1.104-2.954.76-.232 2.56 1.844c.52.374 1.352.03 1.454-.604l.508-3.114.7-.376 2.872 1.31c.584.266 1.332-.232 1.308-.874l-.11-3.16.606-.5 3.08.726c.626.146 1.26-.488 1.114-1.112l-.726-3.08.5-.608 3.16.11c.64.026 1.14-.726.874-1.31l-1.31-2.872.374-.7 3.116-.506c.634-.1.98-.932.6-1.454l-1.84-2.56.232-.76 2.954-1.104c.6-.226.776-1.106.306-1.544l-2.312-2.156.076-.784 2.69-1.664c.544-.336.546-1.236 0-1.574l-2.676-1.668Z"/></g><defs><clipPath id="a"><path fill="#fff" d="M0 0h64v64H0z"/></clipPath></defs></svg>