<svg width="42" height="34" viewBox="0 0 42 34" fill="none" xmlns="http://www.w3.org/2000/svg">
<g clip-path="url(#clip0_88_1641)">
<path d="M6.8224 26.1199C7.07586 25.8665 7.42436 25.7186 7.79399 25.7186H41.3137C41.9262 25.7186 42.2325 26.4579 41.7995 26.8909L35.1779 33.5124C34.9245 33.7659 34.576 33.9138 34.2064 33.9138H0.686623C0.0741008 33.9138 -0.23216 33.1745 0.200829 32.7415L6.8224 26.1199Z" fill="url(#paint0_linear_88_1641)"/>
<path d="M6.82094 1.39728C7.08496 1.14382 7.43346 0.995972 7.79252 0.995972H41.3123C41.9248 0.995972 42.231 1.73522 41.798 2.16821L35.1765 8.78979C34.923 9.04325 34.5745 9.1911 34.2049 9.1911H0.685158C0.0726359 9.1911 -0.233625 8.45185 0.199365 8.01886L6.82094 1.39728Z" fill="url(#paint1_linear_88_1641)"/>
<path d="M35.1779 13.6794C34.9245 13.4259 34.576 13.2781 34.2064 13.2781H0.686623C0.0741008 13.2781 -0.23216 14.0173 0.200829 14.4503L6.8224 21.0719C7.07586 21.3254 7.42436 21.4732 7.79399 21.4732H41.3137C41.9262 21.4732 42.2325 20.734 41.7995 20.301L35.1779 13.6794Z" fill="url(#paint2_linear_88_1641)"/>
</g>
<defs>
<linearGradient id="paint0_linear_88_1641" x1="38.1116" y1="-2.95959" x2="14.9133" y2="41.4745" gradientUnits="userSpaceOnUse">
<stop stop-color="#00FFA3"/>
<stop offset="1" stop-color="#DC1FFF"/>
</linearGradient>
<linearGradient id="paint1_linear_88_1641" x1="27.9666" y1="-8.25537" x2="4.76822" y2="36.1788" gradientUnits="userSpaceOnUse">
<stop stop-color="#00FFA3"/>
<stop offset="1" stop-color="#DC1FFF"/>
</linearGradient>
<linearGradient id="paint2_linear_88_1641" x1="33.0075" y1="-5.62434" x2="9.80918" y2="38.8098" gradientUnits="userSpaceOnUse">
<stop stop-color="#00FFA3"/>
<stop offset="1" stop-color="#DC1FFF"/>
</linearGradient>
<clipPath id="clip0_88_1641">
<rect width="42" height="32.9178" fill="white" transform="translate(0 0.995972)"/>
</clipPath>
</defs>
</svg>
