<svg xmlns="http://www.w3.org/2000/svg" width="42" height="34" fill="none"><g clip-path="url(#a)"><path fill="url(#b)" d="M6.822 26.12c.254-.254.602-.401.972-.401h33.52c.612 0 .919.739.486 1.172l-6.622 6.621a1.374 1.374 0 0 1-.972.402H.686a.687.687 0 0 1-.485-1.172l6.621-6.622Z"/><path fill="url(#c)" d="M6.82 1.397c.265-.253.613-.401.973-.401h33.52c.612 0 .918.74.485 1.172L35.176 8.79a1.374 1.374 0 0 1-.971.401H.685A.686.686 0 0 1 .2 8.02l6.622-6.622Z"/><path fill="url(#d)" d="M35.178 13.68a1.374 1.374 0 0 0-.972-.402H.686a.686.686 0 0 0-.485 1.172l6.621 6.622c.254.253.602.401.972.401h33.52c.612 0 .919-.739.486-1.172l-6.622-6.622Z"/></g><defs><linearGradient id="b" x1="38.112" x2="14.913" y1="-2.96" y2="41.474" gradientUnits="userSpaceOnUse"><stop stop-color="#00FFA3"/><stop offset="1" stop-color="#DC1FFF"/></linearGradient><linearGradient id="c" x1="27.967" x2="4.768" y1="-8.255" y2="36.179" gradientUnits="userSpaceOnUse"><stop stop-color="#00FFA3"/><stop offset="1" stop-color="#DC1FFF"/></linearGradient><linearGradient id="d" x1="33.008" x2="9.809" y1="-5.624" y2="38.81" gradientUnits="userSpaceOnUse"><stop stop-color="#00FFA3"/><stop offset="1" stop-color="#DC1FFF"/></linearGradient><clipPath id="a"><path fill="#fff" d="M0 .996h42v32.918H0z"/></clipPath></defs></svg>