<svg xmlns="http://www.w3.org/2000/svg" width="64" height="64" fill="none"><rect width="64" height="64" fill="#fff" rx="3"/><path fill="#010101" d="m39.793 1.684-7.055 12.548H18.615L25.67 1.684h14.123Z" opacity=".45"/><path fill="#010101" d="M32.738 14.232h14.11L39.793 1.684H25.67l7.068 12.548Z" opacity=".6"/><path fill="#010101" d="m25.67 26.78 7.068-12.548L25.67 1.684l-7.055 12.548L25.67 26.78Z" opacity=".8"/><path fill="#010101" d="M25.745 45.602 32.8 33.055h14.122l-7.067 12.547h-14.11Z" opacity=".45"/><path fill="#010101" d="M32.8 33.054H18.69l7.055 12.548h14.11L32.8 33.055Z" opacity=".6"/><path fill="#010101" d="M39.854 20.506 32.8 33.054l7.055 12.548 7.068-12.548-7.068-12.548Z" opacity=".8"/><path fill="#020202" d="M17.264 57.603c0 .199.087.348.248.447.161.1.36.186.607.248.236.062.496.124.782.173.285.05.545.124.78.211.236.1.435.223.608.397.161.161.248.397.248.682 0 .248-.062.459-.173.632a1.45 1.45 0 0 1-.434.434 2.257 2.257 0 0 1-1.215.348c-.224 0-.447-.025-.67-.075a1.812 1.812 0 0 1-.595-.236 1.41 1.41 0 0 1-.434-.421 1.204 1.204 0 0 1-.174-.657.6.6 0 0 1 .038-.223c.024-.062.086-.087.198-.087.05 0 .087.025.111.074.025.05.038.1.038.137 0 .223.037.409.124.558.086.148.186.26.334.334.137.087.298.137.484.174.186.037.36.05.558.05.149 0 .31-.025.483-.063.174-.037.323-.099.472-.186a1.08 1.08 0 0 0 .347-.322.756.756 0 0 0 .136-.471.624.624 0 0 0-.248-.52 1.627 1.627 0 0 0-.607-.286 4.538 4.538 0 0 0-.781-.174 4.49 4.49 0 0 1-.782-.198 1.942 1.942 0 0 1-.607-.347.784.784 0 0 1-.248-.608c0-.223.062-.409.174-.558.111-.148.26-.26.421-.347.174-.087.36-.149.558-.173.198-.038.397-.05.57-.05.211 0 .434.025.645.062.21.05.41.112.57.21.174.1.31.236.422.41.112.173.161.384.161.632 0 .05-.025.1-.062.124a.207.207 0 0 1-.136.05c-.062 0-.112-.025-.137-.062a.284.284 0 0 1-.037-.137c-.037-.198-.099-.36-.198-.483a.987.987 0 0 0-.335-.273 1.27 1.27 0 0 0-.421-.124 2.862 2.862 0 0 0-.46-.037c-.123 0-.26.012-.42.025-.15.012-.298.05-.435.111a.842.842 0 0 0-.347.223c-.111.087-.161.211-.161.372ZM24.393 56.426c.31 0 .608.062.88.199.273.136.509.31.695.52.198.211.347.471.459.757.111.285.16.582.16.88 0 .31-.049.608-.16.88-.112.285-.26.534-.46.757a2.43 2.43 0 0 1-.694.52 1.912 1.912 0 0 1-.88.199c-.31 0-.607-.062-.868-.198a2.616 2.616 0 0 1-.694-.521 2.334 2.334 0 0 1-.459-.757 2.405 2.405 0 0 1-.161-.88 2.47 2.47 0 0 1 .62-1.637c.198-.21.422-.384.694-.52.26-.124.558-.199.868-.199Zm0 4.34c.273 0 .52-.062.732-.174.223-.111.409-.26.57-.434.161-.186.285-.384.36-.632a2.11 2.11 0 0 0 .124-.732 2.036 2.036 0 0 0-.483-1.352 1.788 1.788 0 0 0-.571-.433 1.63 1.63 0 0 0-.732-.174c-.26 0-.508.062-.719.174-.223.112-.41.26-.57.434a1.968 1.968 0 0 0-.372.62 2.124 2.124 0 0 0-.137.731 2.124 2.124 0 0 0 .509 1.364c.16.186.347.323.57.434.223.112.459.174.72.174ZM28.572 52.769a.2.2 0 0 1 .136.062c.037.037.05.086.05.123v7.923a.16.16 0 0 1-.05.124.2.2 0 0 1-.136.063.2.2 0 0 1-.137-.063.178.178 0 0 1-.05-.123v-7.923a.16.16 0 0 1 .05-.124c.038-.05.075-.063.137-.063ZM30.99 55.236c0 .087-.038.15-.1.211a.29.29 0 0 1-.21.087.299.299 0 0 1-.224-.087.272.272 0 0 1-.086-.21c0-.087.024-.162.086-.224a.299.299 0 0 1 .224-.087c.086 0 .148.025.21.087a.31.31 0 0 1 .1.223Zm-.323 1.327c.05 0 .087.025.124.062.037.037.062.087.062.124v4.117c0 .05-.025.086-.062.124-.037.037-.087.061-.124.061a.2.2 0 0 1-.136-.061.178.178 0 0 1-.05-.124v-4.117a.16.16 0 0 1 .05-.124.2.2 0 0 1 .136-.062ZM36.842 52.756a.2.2 0 0 1 .137.062c.037.037.05.087.05.124v7.91c0 .125-.063.187-.187.187s-.186-.062-.186-.186v-.868a2.35 2.35 0 0 1-.78.855c-.336.211-.708.323-1.104.323a1.86 1.86 0 0 1-.868-.199 2.615 2.615 0 0 1-.695-.52 2.333 2.333 0 0 1-.459-.757 2.407 2.407 0 0 1-.16-.88c0-.31.049-.608.16-.88.112-.286.26-.534.46-.757a2.43 2.43 0 0 1 .694-.52 1.86 1.86 0 0 1 .868-.199 1.9 1.9 0 0 1 1.103.335c.335.223.595.508.781.855V52.93a.16.16 0 0 1 .05-.124.186.186 0 0 1 .136-.05Zm-2.083 8.035c.273 0 .521-.062.732-.174.223-.111.409-.26.57-.434.161-.186.285-.384.36-.632a2.11 2.11 0 0 0 .124-.732 2.11 2.11 0 0 0-.484-1.364 1.79 1.79 0 0 0-.57-.434 1.63 1.63 0 0 0-.732-.173c-.26 0-.508.062-.719.173a1.99 1.99 0 0 0-.57.434 1.895 1.895 0 0 0-.372.633 2.124 2.124 0 0 0-.137.731 2.124 2.124 0 0 0 .509 1.364c.16.186.347.322.57.434.21.112.459.174.72.174ZM39.322 55.236c0 .087-.038.15-.1.211a.29.29 0 0 1-.21.087.299.299 0 0 1-.224-.087.272.272 0 0 1-.086-.21.299.299 0 0 1 .31-.31c.086 0 .148.024.21.086a.27.27 0 0 1 .1.223Zm-.31 1.327c.05 0 .086.025.124.062.037.037.062.087.062.124v4.117c0 .05-.025.086-.062.124-.038.037-.087.061-.124.061a.2.2 0 0 1-.137-.061.178.178 0 0 1-.05-.124v-4.117a.16.16 0 0 1 .05-.124.2.2 0 0 1 .137-.062ZM43.29 56.538a.2.2 0 0 1 .136.062c.037.037.05.087.05.124 0 .124-.062.186-.186.186h-1.017v3.98a.16.16 0 0 1-.05.124.199.199 0 0 1-.136.062.2.2 0 0 1-.137-.062.178.178 0 0 1-.05-.124v-3.98h-.979c-.124 0-.186-.062-.186-.186a.16.16 0 0 1 .05-.124.199.199 0 0 1 .136-.062h.98v-1.463c0-.124.062-.186.186-.186s.186.062.186.186v1.463h1.017ZM48.534 56.525c.124 0 .186.062.186.186 0 .012-.037.111-.111.297-.075.186-.161.434-.273.732-.112.297-.248.645-.397 1.029-.148.384-.31.781-.47 1.203-.162.409-.323.818-.472 1.215-.149.397-.298.756-.422 1.09-.136.336-.235.608-.334.844-.087.236-.15.372-.174.434-.05.087-.1.124-.174.124-.05 0-.086-.025-.124-.062-.037-.037-.062-.087-.062-.124 0-.012.025-.087.062-.21.05-.125.1-.274.162-.435.062-.173.136-.36.21-.558.087-.198.162-.396.236-.582.074-.186.136-.348.186-.484.05-.136.087-.223.111-.273a2.158 2.158 0 0 1-.148-.322 36.62 36.62 0 0 0-.335-.781c-.136-.31-.273-.645-.41-1.005a92.08 92.08 0 0 1-.408-1.004c-.124-.31-.236-.57-.323-.781a2.7 2.7 0 0 1-.124-.335c0-.124.062-.186.186-.186.087 0 .149.037.174.112l1.575 3.831 1.487-3.819c.038-.1.1-.136.186-.136Z"/></svg>