<svg xmlns="http://www.w3.org/2000/svg" width="236" height="41" fill="none"><rect width="40" height="40" x=".723" y=".118" fill="#141414" rx="4"/><g opacity=".3"><path fill="#141414" d="M32.3 14.954a31.947 31.947 0 0 0-.01-.699 10.134 10.134 0 0 0-.133-1.52 5.13 5.13 0 0 0-.477-1.447 4.859 4.859 0 0 0-2.126-2.126 5.133 5.133 0 0 0-1.445-.477 10.13 10.13 0 0 0-1.522-.133 33.387 33.387 0 0 0-.699-.01c-.276-.002-.553-.002-.83-.002h-8.67l-.829.001a33.336 33.336 0 0 0-1.08.025 8.828 8.828 0 0 0-1.14.12c-.382.068-.744.17-1.097.315a4.863 4.863 0 0 0-2.475 2.287 5.13 5.13 0 0 0-.477 1.446c-.09.502-.12 1.014-.133 1.52-.007.234-.01.467-.01.7-.003.276-.002.553-.002.83v8.669l.001.83c.002.233.004.466.01.699.014.507.044 1.02.134 1.52.092.51.241.984.477 1.447a4.854 4.854 0 0 0 2.126 2.126c.463.236.936.385 1.446.477.502.09 1.014.12 1.521.133.233.007.466.01.699.01.277.003.553.002.83.002h8.67l.83-.001c.232-.002.465-.004.698-.01.508-.014 1.02-.044 1.521-.134.51-.092.983-.241 1.446-.477a4.86 4.86 0 0 0 2.126-2.126 5.13 5.13 0 0 0 .477-1.446c.09-.502.12-1.014.133-1.521.007-.233.01-.466.01-.699.003-.277.002-.553.002-.83v-8.67l-.001-.83Z"/><path fill="#fff" d="m27.494 22.834-.001-.002c.025-.087.052-.173.074-.263.961-3.83-1.385-8.357-5.354-10.74 1.74 2.358 2.508 5.214 1.825 7.712a6.526 6.526 0 0 1-.215.645 5.299 5.299 0 0 0-.347-.206s-3.95-2.438-8.229-6.75c-.112-.113 2.282 3.422 5 6.293-1.28-.718-4.848-3.314-7.107-5.382.277.463.607.909.97 1.338 1.886 2.392 4.346 5.344 7.293 7.61-2.07 1.267-4.996 1.366-7.91.001a11.952 11.952 0 0 1-2.024-1.208 12.128 12.128 0 0 0 5.444 4.668c2.756 1.184 5.497 1.104 7.539.02l-.002.002.031-.019c.084-.045.167-.09.249-.14.98-.508 2.918-1.025 3.958.999.255.495.796-2.13-1.194-4.578Z"/></g><rect width="40" height="40" x="65.723" y=".118" fill="#141414" rx="4"/><g fill="#fff" opacity=".3"><path d="m93.617 33.213 1.628-1.077c.127.4.935 1.352 1.955 1.352s1.494-.557 1.494-.926c0-1.007-1.041-1.362-1.542-1.533a2.85 2.85 0 0 1-.195-.07l-.104-.042c-.557-.212-2.61-.997-2.61-3.27 0-2.505 2.417-2.793 2.964-2.793.357 0 2.076.044 2.933 1.653l-1.58 1.102c-.345-.701-.92-.933-1.275-.933-.874 0-1.056.641-1.056.933 0 .819.95 1.186 1.752 1.496.21.08.41.158.58.238.874.413 2.162 1.09 2.162 3.219 0 1.066-.895 2.792-3.146 2.792-3.024 0-3.826-1.816-3.96-2.141ZM85.723 33.426l1.696-1.076c.133.4.65 1.14 1.399 1.14.75 0 1.133-.77 1.133-1.14v-7.26h2.086v7.26c.034 1.001-.522 3.004-2.972 3.004-2.254 0-3.19-1.34-3.342-1.928Z"/></g><rect width="40" height="40" x="130.723" y=".118" fill="#141414" rx="4"/><path fill="#fff" d="m162.852 19.125-1.046-.648a15.145 15.145 0 0 0-.03-.305l.901-.84a.357.357 0 0 0 .108-.333.357.357 0 0 0-.227-.267l-1.151-.429c-.029-.1-.06-.198-.091-.298l.718-.996a.359.359 0 0 0 .04-.348.359.359 0 0 0-.274-.218l-1.213-.197a7.898 7.898 0 0 0-.146-.272l.51-1.12a.357.357 0 0 0-.028-.35.358.358 0 0 0-.312-.16l-1.232.043a10.85 10.85 0 0 0-.195-.236l.284-1.199a.362.362 0 0 0-.435-.434l-1.198.283a10.83 10.83 0 0 0-.237-.194l.043-1.233a.36.36 0 0 0-.51-.34l-1.118.51c-.09-.05-.181-.099-.271-.146l-.198-1.213a.359.359 0 0 0-.566-.234l-.996.718a11.402 11.402 0 0 0-.296-.09l-.429-1.151a.358.358 0 0 0-.6-.12l-.839.9a11.387 11.387 0 0 0-.305-.03l-.649-1.048a.36.36 0 0 0-.612 0l-.648 1.049c-.102.008-.204.018-.305.03l-.839-.901a.362.362 0 0 0-.334-.108.358.358 0 0 0-.267.228l-.429 1.15-.295.09-.997-.717a.358.358 0 0 0-.565.234l-.198 1.213c-.092.047-.182.096-.272.146l-1.118-.51a.36.36 0 0 0-.51.34l.043 1.233c-.08.063-.159.128-.237.194l-1.198-.284a.364.364 0 0 0-.339.097.364.364 0 0 0-.096.338l.281 1.199c-.065.078-.13.156-.194.236l-1.232-.043a.362.362 0 0 0-.34.51l.51 1.12c-.05.09-.099.18-.146.272l-1.214.197a.36.36 0 0 0-.233.566l.717.996c-.031.099-.061.198-.09.298l-1.151.43a.359.359 0 0 0-.119.6l.901.839a7.775 7.775 0 0 0-.03.305l-1.047.648a.36.36 0 0 0 0 .613l1.047.648c.008.102.018.204.03.305l-.901.839a.36.36 0 0 0 .119.6l1.151.43c.029.1.059.198.09.297l-.717.997a.36.36 0 0 0 .236.565l1.213.198c.047.092.096.182.146.271l-.51 1.118a.362.362 0 0 0 .341.51l1.229-.043c.064.08.129.159.195.237l-.281 1.199a.36.36 0 0 0 .434.432l1.199-.282c.078.066.157.13.236.194l-.043 1.232a.36.36 0 0 0 .511.34l1.117-.51c.091.05.181.1.272.147l.198 1.213a.362.362 0 0 0 .566.236l.996-.718c.098.032.197.062.298.09l.429 1.152a.36.36 0 0 0 .601.12l.838-.901.306.03.648 1.046a.36.36 0 0 0 .612 0l.649-1.046.305-.03.839.9a.358.358 0 0 0 .6-.12l.429-1.15c.1-.029.199-.06.298-.09l.996.717a.36.36 0 0 0 .566-.236l.198-1.213.272-.146 1.117.51a.362.362 0 0 0 .511-.34l-.043-1.233c.079-.063.158-.128.236-.194l1.199.281a.36.36 0 0 0 .434-.431l-.281-1.2c.066-.077.131-.156.194-.236l1.232.044a.36.36 0 0 0 .341-.51l-.511-1.118c.05-.09.099-.181.146-.272l1.213-.198a.361.361 0 0 0 .234-.566l-.717-.996c.031-.098.061-.197.09-.297l1.151-.43a.36.36 0 0 0 .119-.6l-.901-.839c.011-.101.021-.203.03-.305l1.046-.648a.36.36 0 0 0 .001-.613h-.008Zm-7.007 8.7a.742.742 0 1 1 .003 0h-.003Zm-.355-2.408a.674.674 0 0 0-.801.52l-.371 1.735a9.135 9.135 0 0 1-7.603-.036l-.372-1.735a.674.674 0 0 0-.801-.52l-1.532.33a9.188 9.188 0 0 1-.791-.935h7.459c.085 0 .141-.015.141-.092v-2.646c0-.076-.056-.091-.141-.091h-2.18v-1.671h2.357c.215 0 1.151.061 1.449 1.258.093.367.3 1.564.441 1.947.14.43.71 1.287 1.318 1.287h3.718a.75.75 0 0 0 .134-.013 9.34 9.34 0 0 1-.843.991l-1.569-.336-.013.007Zm-10.32 2.371a.743.743 0 0 1-.309-1.451.74.74 0 1 1 .309 1.451Zm-2.836-11.463a.74.74 0 1 1-1.353.603.74.74 0 1 1 1.353-.603Zm-.87 2.059 1.597-.71a.674.674 0 0 0 .343-.892l-.328-.743h1.291v5.815h-2.598a9.147 9.147 0 0 1-.295-3.482l-.01.012Zm7.007-.565v-1.716h3.075c.159 0 1.122.184 1.122.903 0 .599-.738.813-1.346.813h-2.86.009Zm11.178 1.544c0 .228-.008.453-.025.677h-.937c-.093 0-.131.062-.131.154v.429c0 1.01-.569 1.232-1.07 1.287-.477.053-1.003-.2-1.068-.491-.281-1.58-.748-1.917-1.487-2.503.918-.581 1.871-1.442 1.871-2.598 0-1.241-.851-2.023-1.43-2.407-.815-.536-1.716-.643-1.959-.643h-9.676a9.172 9.172 0 0 1 5.1-2.884l1.142 1.196c.257.27.684.281.955.022l1.278-1.22a9.134 9.134 0 0 1 6.244 4.457l-.875 1.973a.676.676 0 0 0 .344.891l1.682.749c.029.298.044.6.044.905l-.002.006Zm-9.676-9.986a.738.738 0 0 1 1.046.024.744.744 0 0 1-.024 1.05.74.74 0 0 1-1.047-.025.744.744 0 0 1 .025-1.049Zm8.675 6.983a.742.742 0 1 1 1.352.603.742.742 0 0 1-1.352-.603Z" opacity=".3"/><rect width="40" height="40" x="195.723" y=".118" fill="#141414" rx="4"/><g fill="#fff" opacity=".3"><path fill-opacity=".602" d="M215.606 10.51v6.711l5.673 2.535-5.673-9.246Z"/><path d="m215.606 10.51-5.672 9.246 5.672-2.535v-6.71Z"/><path fill-opacity=".602" d="M215.606 24.105v4.56l5.676-7.853-5.676 3.293Z"/><path d="M215.606 28.665v-4.56l-5.672-3.293 5.672 7.853Z"/><path fill-opacity=".2" d="m215.606 23.049 5.673-3.293-5.673-2.535v5.828Z"/><path fill-opacity=".602" d="m209.934 19.757 5.672 3.293v-5.828l-5.672 2.535Z"/></g></svg>