<svg xmlns="http://www.w3.org/2000/svg" width="236" height="41" fill="none"><rect width="40" height="40" x=".723" y=".118" fill="#141414" rx="4"/><g opacity=".3"><path fill="#141414" d="M32.301 14.954a32.586 32.586 0 0 0-.01-.699 10.148 10.148 0 0 0-.134-1.52 5.13 5.13 0 0 0-.477-1.447 4.861 4.861 0 0 0-2.126-2.126 5.133 5.133 0 0 0-1.445-.477c-.502-.09-1.014-.12-1.522-.133a33.367 33.367 0 0 0-.698-.01c-.277-.002-.554-.002-.83-.002h-8.67l-.83.001a33.337 33.337 0 0 0-1.08.025 8.826 8.826 0 0 0-1.14.12A5.29 5.29 0 0 0 12.243 9a4.863 4.863 0 0 0-2.476 2.287 5.131 5.131 0 0 0-.476 1.446c-.09.502-.12 1.014-.134 1.52-.006.234-.01.467-.01.7-.002.276-.002.553-.002.83v8.669l.001.83c.002.233.005.466.011.699.014.507.044 1.02.134 1.52.091.51.24.984.476 1.447a4.852 4.852 0 0 0 2.126 2.126c.463.236.937.385 1.446.477.502.09 1.014.12 1.521.133.233.007.466.01.7.01.276.003.552.002.829.002h8.67l.83-.001c.232-.002.465-.004.698-.01.508-.014 1.02-.044 1.522-.134.509-.092.983-.241 1.445-.477a4.857 4.857 0 0 0 2.126-2.126 5.13 5.13 0 0 0 .477-1.446c.09-.502.12-1.014.134-1.521.006-.233.009-.466.01-.699.002-.277.002-.553.002-.83v-8.67c0-.276 0-.553-.002-.83Z"/><path fill="#fff" d="m27.495 22.834-.002-.002c.026-.087.052-.173.074-.263.962-3.83-1.384-8.357-5.354-10.74 1.74 2.358 2.509 5.214 1.825 7.712-.06.223-.134.437-.215.645a5.292 5.292 0 0 0-.347-.206s-3.949-2.438-8.228-6.75c-.113-.113 2.282 3.422 5 6.293-1.281-.718-4.85-3.314-7.108-5.382.278.463.608.909.97 1.338 1.887 2.392 4.347 5.344 7.294 7.61-2.07 1.267-4.997 1.366-7.91.001a11.953 11.953 0 0 1-2.025-1.208 12.128 12.128 0 0 0 5.444 4.668c2.756 1.184 5.498 1.104 7.54.02l-.002.002.03-.019c.084-.045.168-.09.249-.14.98-.508 2.918-1.025 3.958.999.255.495.796-2.13-1.193-4.578Z"/></g><rect width="40" height="40" x="65.723" y=".118" fill="#141414" rx="4"/><g fill="#fff" opacity=".3"><path d="m93.618 33.213 1.627-1.077c.128.4.935 1.352 1.956 1.352 1.02 0 1.494-.557 1.494-.926 0-1.007-1.042-1.362-1.542-1.533a2.891 2.891 0 0 1-.195-.07l-.105-.042c-.557-.212-2.61-.997-2.61-3.27 0-2.505 2.417-2.793 2.964-2.793.357 0 2.077.044 2.933 1.653l-1.579 1.102c-.346-.701-.921-.933-1.275-.933-.875 0-1.057.641-1.057.933 0 .819.95 1.186 1.752 1.496.21.08.41.158.58.238.875.413 2.162 1.09 2.162 3.219 0 1.066-.894 2.792-3.146 2.792-3.024 0-3.826-1.816-3.96-2.141ZM85.723 33.426l1.696-1.076c.133.4.65 1.14 1.4 1.14.749 0 1.132-.77 1.132-1.14v-7.26h2.086v7.26c.034 1.001-.521 3.004-2.972 3.004-2.253 0-3.19-1.34-3.342-1.928Z"/></g><rect width="40" height="40" x="130.723" y=".118" fill="#141414" rx="4"/><path fill="#fff" d="m162.853 19.125-1.047-.648a10.225 10.225 0 0 0-.029-.305l.9-.84a.357.357 0 0 0 .108-.333.357.357 0 0 0-.227-.267l-1.151-.429a15.9 15.9 0 0 0-.09-.298l.717-.996a.361.361 0 0 0-.233-.566l-1.213-.197a14.072 14.072 0 0 0-.146-.272l.51-1.12a.362.362 0 0 0-.341-.51l-1.232.043a8.522 8.522 0 0 0-.194-.236l.283-1.199a.36.36 0 0 0-.434-.434l-1.199.283a13.81 13.81 0 0 0-.236-.194l.043-1.233a.36.36 0 0 0-.51-.34l-1.118.51c-.091-.05-.181-.099-.272-.146l-.198-1.213a.36.36 0 0 0-.566-.234l-.996.718a12.648 12.648 0 0 0-.295-.09l-.429-1.151a.36.36 0 0 0-.601-.12l-.839.9a10.635 10.635 0 0 0-.305-.03l-.648-1.048a.362.362 0 0 0-.613 0l-.648 1.049c-.102.008-.204.018-.305.03l-.839-.901a.361.361 0 0 0-.601.12l-.429 1.15-.295.09-.996-.717a.362.362 0 0 0-.566.234l-.198 1.213c-.091.047-.182.096-.272.146l-1.117-.51a.362.362 0 0 0-.511.34l.043 1.233a13.81 13.81 0 0 0-.236.194l-1.199-.284a.362.362 0 0 0-.434.435l.281 1.199a8.829 8.829 0 0 0-.194.236l-1.232-.043a.362.362 0 0 0-.341.51l.51 1.12c-.05.09-.099.18-.146.272l-1.213.197a.36.36 0 0 0-.234.566l.718.996a7.23 7.23 0 0 0-.09.298l-1.152.43a.363.363 0 0 0-.227.266.362.362 0 0 0 .108.334l.901.839c-.011.101-.021.203-.03.305l-1.046.648a.361.361 0 0 0 0 .613l1.046.648c.009.102.019.204.03.305l-.901.839a.362.362 0 0 0 .119.6l1.152.43c.028.1.058.198.09.297l-.718.997a.359.359 0 0 0 .236.565l1.213.198c.048.092.096.182.146.271l-.51 1.118a.36.36 0 0 0 .341.51l1.23-.043c.064.08.128.159.194.237l-.281 1.199a.36.36 0 0 0 .434.432l1.199-.282c.078.066.157.13.237.194l-.043 1.232a.36.36 0 0 0 .51.34l1.118-.51c.09.05.181.1.272.147l.197 1.213a.36.36 0 0 0 .566.236l.996-.718c.099.032.198.062.298.09l.429 1.152a.36.36 0 0 0 .601.12l.839-.901c.101.011.203.02.305.03l.648 1.046a.36.36 0 0 0 .613 0l.648-1.046c.102-.01.204-.019.305-.03l.839.9a.358.358 0 0 0 .601-.119l.429-1.151.297-.09.997.717a.36.36 0 0 0 .565-.236l.198-1.213c.092-.048.182-.097.272-.146l1.118.51a.36.36 0 0 0 .51-.34l-.043-1.233c.08-.063.159-.128.236-.194l1.199.281a.362.362 0 0 0 .435-.431l-.282-1.2c.066-.077.131-.156.194-.236l1.233.044a.362.362 0 0 0 .34-.51l-.51-1.118c.05-.09.099-.181.146-.272l1.213-.198a.357.357 0 0 0 .274-.217.356.356 0 0 0-.041-.348l-.717-.997c.031-.098.061-.197.09-.297l1.151-.43a.36.36 0 0 0 .12-.6l-.901-.839c.011-.101.021-.203.03-.305l1.046-.648a.359.359 0 0 0 .17-.305.365.365 0 0 0-.17-.308h-.007Zm-7.007 8.7a.742.742 0 1 1 .002 0h-.002Zm-.355-2.408a.673.673 0 0 0-.801.52l-.372 1.735a9.132 9.132 0 0 1-7.603-.036l-.372-1.735a.674.674 0 0 0-.8-.52l-1.533.33a9.318 9.318 0 0 1-.791-.935h7.46c.084 0 .14-.015.14-.092v-2.646c0-.076-.056-.091-.14-.091h-2.181v-1.671h2.357c.215 0 1.151.061 1.449 1.258.094.367.3 1.564.441 1.947.14.43.71 1.287 1.318 1.287h3.718a.77.77 0 0 0 .135-.013c-.258.35-.541.682-.844.991l-1.568-.336-.013.007Zm-10.32 2.371a.74.74 0 0 1-.88-.57.74.74 0 1 1 1.449-.312.743.743 0 0 1-.569.883Zm-2.836-11.463a.74.74 0 1 1-1.354.605.74.74 0 0 1 1.354-.605Zm-.87 2.059 1.597-.71a.676.676 0 0 0 .343-.892l-.329-.743h1.292v5.815h-2.598a9.147 9.147 0 0 1-.296-3.482l-.009.012Zm7.007-.565v-1.716h3.074c.159 0 1.123.184 1.123.903 0 .599-.739.813-1.347.813h-2.86.01Zm11.177 1.544c0 .228-.008.453-.025.677h-.936c-.094 0-.132.062-.132.154v.429c0 1.01-.569 1.232-1.07 1.287-.476.053-1.003-.2-1.067-.491-.282-1.58-.749-1.917-1.488-2.503.918-.581 1.871-1.442 1.871-2.598 0-1.241-.85-2.023-1.43-2.407-.815-.536-1.716-.643-1.959-.643h-9.676a9.172 9.172 0 0 1 5.1-2.884l1.142 1.196c.257.27.684.281.956.022l1.277-1.22a9.132 9.132 0 0 1 6.244 4.457l-.874 1.973a.676.676 0 0 0 .343.891l1.683.749c.029.298.044.6.044.905l-.003.006Zm-9.676-9.986a.738.738 0 0 1 1.046.024.743.743 0 0 1-.024 1.05.738.738 0 0 1-1.046-.025.743.743 0 0 1 .024-1.049Zm8.675 6.983a.74.74 0 1 1 1.354.603.739.739 0 0 1-.977.377.743.743 0 0 1-.377-.98Z" opacity=".3"/><rect width="40" height="40" x="195.723" y=".118" fill="#141414" rx="4"/><g fill="#fff" opacity=".3"><path fill-opacity=".602" d="M215.607 10.51v6.711l5.672 2.535-5.672-9.246Z"/><path d="m215.606 10.51-5.672 9.246 5.672-2.535v-6.71Z"/><path fill-opacity=".602" d="M215.607 24.105v4.56l5.675-7.853-5.675 3.293Z"/><path d="M215.606 28.665v-4.56l-5.672-3.293 5.672 7.853Z"/><path fill-opacity=".2" d="m215.607 23.049 5.672-3.293-5.672-2.535v5.828Z"/><path fill-opacity=".602" d="m209.934 19.757 5.672 3.293v-5.828l-5.672 2.535Z"/></g></svg>