<svg xmlns="http://www.w3.org/2000/svg" width="170" height="41" fill="none"><rect width="40" height="40" y=".118" fill="#141414" rx="4"/><g fill="#fff" opacity=".3"><path d="m27.895 33.213 1.627-1.077c.128.4.936 1.352 1.956 1.352s1.494-.557 1.494-.926c0-1.007-1.042-1.362-1.543-1.533a2.87 2.87 0 0 1-.194-.07l-.105-.042c-.557-.212-2.61-.997-2.61-3.27 0-2.505 2.417-2.793 2.964-2.793.357 0 2.077.044 2.933 1.653l-1.579 1.102c-.346-.701-.921-.933-1.275-.933-.875 0-1.057.641-1.057.933 0 .819.95 1.186 1.752 1.496.21.08.41.158.58.238.875.413 2.162 1.09 2.162 3.219 0 1.066-.894 2.792-3.146 2.792-3.024 0-3.826-1.816-3.96-2.141ZM20 33.426l1.696-1.076c.133.4.65 1.14 1.4 1.14.749 0 1.132-.77 1.132-1.14v-7.26h2.086v7.26c.034 1.001-.521 3.004-2.972 3.004-2.253 0-3.19-1.34-3.342-1.928Z"/></g><rect width="40" height="40" x="65" y=".118" fill="#141414" rx="4"/><path fill="#fff" d="m97.13 19.125-1.047-.648a15.146 15.146 0 0 0-.03-.305l.901-.84a.359.359 0 0 0-.119-.6l-1.151-.429c-.029-.1-.06-.198-.09-.298l.717-.996a.359.359 0 0 0-.233-.566l-1.213-.197a9.328 9.328 0 0 0-.146-.272l.51-1.12a.36.36 0 0 0-.34-.51l-1.233.043a9.78 9.78 0 0 0-.194-.236l.283-1.199a.361.361 0 0 0-.434-.434l-1.199.283c-.078-.066-.156-.13-.236-.194l.043-1.233a.36.36 0 0 0-.51-.34l-1.118.51c-.09-.05-.181-.099-.272-.146l-.198-1.213a.359.359 0 0 0-.566-.234l-.996.718a11.997 11.997 0 0 0-.295-.09l-.43-1.151a.36.36 0 0 0-.6-.12l-.839.9a10.85 10.85 0 0 0-.305-.03l-.648-1.048a.36.36 0 0 0-.613 0l-.648 1.049c-.102.008-.204.018-.305.03l-.839-.901a.361.361 0 0 0-.6.12l-.43 1.15-.295.09-.996-.717a.361.361 0 0 0-.566.234l-.198 1.213c-.091.047-.182.096-.272.146l-1.117-.51a.36.36 0 0 0-.51.34l.042 1.233c-.08.063-.158.128-.236.194l-1.199-.284a.36.36 0 0 0-.434.434l.28 1.2c-.065.078-.13.156-.193.236l-1.232-.043a.362.362 0 0 0-.341.51l.51 1.12c-.05.09-.099.18-.146.272l-1.213.197a.36.36 0 0 0-.234.566l.718.996a10.33 10.33 0 0 0-.09.298l-1.152.43a.36.36 0 0 0-.119.6l.9.839-.029.305-1.046.648a.36.36 0 0 0 0 .613l1.046.648c.009.102.019.204.03.305l-.901.839a.36.36 0 0 0 .12.6l1.15.43.09.297-.717.997a.36.36 0 0 0 .236.565l1.213.198c.048.092.096.182.146.271l-.51 1.118a.36.36 0 0 0 .34.51l1.23-.043.195.237-.281 1.199a.36.36 0 0 0 .434.432l1.2-.282c.077.066.156.13.236.194l-.043 1.232a.359.359 0 0 0 .51.34l1.118-.51c.09.05.18.1.272.147l.197 1.213a.36.36 0 0 0 .566.236l.996-.718c.099.032.198.062.298.09l.43 1.152a.36.36 0 0 0 .6.12l.839-.901c.101.011.203.02.305.03l.648 1.046a.36.36 0 0 0 .613 0l.648-1.046c.102-.01.204-.019.305-.03l.839.9a.359.359 0 0 0 .6-.119l.43-1.151c.1-.029.198-.06.297-.09l.997.717a.36.36 0 0 0 .565-.236l.198-1.213c.092-.048.182-.097.272-.146l1.118.51a.361.361 0 0 0 .51-.34l-.043-1.233a9.46 9.46 0 0 0 .236-.194l1.2.281a.36.36 0 0 0 .434-.431l-.282-1.2a9.78 9.78 0 0 0 .194-.236l1.233.044a.36.36 0 0 0 .34-.51l-.51-1.118c.05-.09.099-.181.146-.272l1.213-.198a.36.36 0 0 0 .234-.566l-.718-.996c.031-.098.061-.197.09-.297l1.151-.43a.36.36 0 0 0 .12-.6l-.901-.839.03-.305 1.046-.648a.36.36 0 0 0 0-.613h-.007Zm-7.007 8.7a.742.742 0 1 1 .002 0h-.002Zm-.355-2.408a.673.673 0 0 0-.801.52l-.372 1.735a9.133 9.133 0 0 1-7.603-.036L80.62 25.9a.674.674 0 0 0-.8-.52l-1.533.33a9.254 9.254 0 0 1-.791-.935h7.46c.084 0 .14-.015.14-.092v-2.646c0-.076-.056-.091-.14-.091h-2.181v-1.671h2.357c.215 0 1.151.061 1.45 1.258.093.367.3 1.564.44 1.947.14.43.71 1.287 1.318 1.287h3.718a.76.76 0 0 0 .135-.013 9.31 9.31 0 0 1-.844.991l-1.568-.336-.013.007Zm-10.32 2.371a.743.743 0 0 1-.31-1.451.74.74 0 1 1 .31 1.451Zm-2.836-11.463a.74.74 0 1 1-1.354.605.74.74 0 0 1 1.354-.605Zm-.87 2.059 1.597-.71a.675.675 0 0 0 .343-.892l-.33-.743h1.293v5.815h-2.598a9.14 9.14 0 0 1-.296-3.482l-.01.012Zm7.007-.565v-1.716h3.074c.16 0 1.123.184 1.123.903 0 .599-.74.813-1.347.813h-2.86.01Zm11.178 1.544c0 .228-.009.453-.026.677h-.936c-.094 0-.132.062-.132.154v.429c0 1.01-.57 1.232-1.07 1.287-.476.053-1.003-.2-1.067-.491-.282-1.58-.749-1.917-1.488-2.503.918-.581 1.871-1.442 1.871-2.598 0-1.241-.85-2.023-1.43-2.407-.815-.536-1.716-.643-1.959-.643h-9.676a9.174 9.174 0 0 1 5.1-2.884l1.142 1.196c.257.27.684.281.956.022l1.277-1.22a9.134 9.134 0 0 1 6.244 4.457l-.874 1.973c-.151.34.003.741.343.891l1.683.749c.029.298.044.6.044.905l-.002.006ZM84.25 9.377a.739.739 0 0 1 1.046.024.743.743 0 0 1-.024 1.05.738.738 0 0 1-1.046-.025.743.743 0 0 1 .024-1.049Zm8.675 6.983a.742.742 0 1 1 1.352.603.742.742 0 0 1-1.352-.603Z" opacity=".3"/><rect width="40" height="40" x="130" y=".118" fill="#141414" rx="4"/><g fill="#fff" opacity=".3"><path fill-opacity=".602" d="M149.884 10.51v6.711l5.672 2.535-5.672-9.246Z"/><path d="m149.883 10.51-5.672 9.246 5.672-2.535v-6.71Z"/><path fill-opacity=".602" d="M149.884 24.105v4.56l5.675-7.853-5.675 3.293Z"/><path d="M149.883 28.665v-4.56l-5.672-3.293 5.672 7.853Z"/><path fill-opacity=".2" d="m149.884 23.049 5.672-3.293-5.672-2.535v5.828Z"/><path fill-opacity=".602" d="m144.211 19.757 5.672 3.293v-5.828l-5.672 2.535Z"/></g></svg>