<svg width="34" height="32" viewBox="0 0 34 32" fill="none" xmlns="http://www.w3.org/2000/svg">
<path d="M20.1059 3.11761C17.9235 4.83229 14.0265 6.23521 11.3766 6.23521C7.79133 6.23521 6.07665 7.32637 4.36197 10.7557C1.86788 15.4321 2.33552 17.1468 6.54429 17.1468C9.81777 17.1468 15.8971 23.5379 15.8971 26.9673C15.8971 30.8643 18.5471 31.4878 22.9117 28.682C25.5617 26.9673 26.8087 24.785 26.8087 21.5115C26.8087 19.0174 28.2116 15.1204 29.9263 12.9381C31.641 10.7557 33.0439 6.85873 33.0439 4.52053C33.0439 0.623526 32.4204 3.8147e-06 28.5234 3.8147e-06C26.1852 3.8147e-06 22.2882 1.40293 20.1059 3.11761ZM31.4851 4.83229C31.4851 6.54697 28.3675 11.2234 24.4705 15.2763L17.6118 22.6026L14.0265 19.1733C11.3766 16.3674 10.9089 15.2763 12.4677 13.7175C13.8707 12.3145 14.3383 12.3145 14.3383 13.7175C14.3383 15.2763 15.1177 15.2763 17.4559 14.0292C19.1706 13.0939 20.5735 11.5351 20.5735 10.5999C20.5735 9.5087 19.7941 9.66458 18.2353 10.9116C13.0913 15.1204 14.4942 11.0675 19.7941 6.39109C26.3411 0.779406 31.4851 3.8147e-06 31.4851 4.83229ZM12.0001 10.9116C10.4413 12.6263 8.25897 14.0292 7.01193 14.0292C5.29725 14.0292 5.29725 13.4057 6.54429 10.9116C7.47957 9.19694 9.66189 7.79401 11.5325 7.79401C14.6501 7.79401 14.8059 7.9499 12.0001 10.9116ZM22.7558 26.032C18.7029 28.9937 17.9235 25.7202 21.5088 21.5115C24.3146 18.5497 24.4705 18.5497 25.094 21.1997C25.4058 22.7585 24.3146 24.9408 22.7558 26.032Z" fill="#E4E4E4"/>
<path d="M2.64724 21.8232C1.08844 23.5379 0.153155 25.2526 0.620795 25.7202C1.08844 26.1879 2.64724 25.0967 4.20604 23.382C5.76484 21.6674 6.70012 19.9527 6.23248 19.485C5.76484 19.0174 4.20604 20.1086 2.64724 21.8232Z" fill="#E4E4E4"/>
<path d="M4.98539 27.2791C2.95894 29.4614 2.02366 31.1761 2.95894 31.1761C4.82951 31.1761 10.4412 25.2526 9.35003 24.1615C9.03827 23.6938 7.01183 25.0968 4.98539 27.2791Z" fill="#E4E4E4"/>
<path d="M9.6619 28.8378C6.5443 32.579 8.72662 33.2025 12.0001 29.6172C13.5589 27.9026 14.0265 26.4996 13.2471 26.4996C12.3119 26.4996 10.7531 27.5908 9.6619 28.8378Z" fill="#E4E4E4"/>
</svg>
