<svg xmlns="http://www.w3.org/2000/svg" width="64" height="64" fill="none"><path fill="#F05138" d="M63.995 17.727a88.924 88.924 0 0 0-.028-1.932c-.038-1.401-.12-2.816-.37-4.203-.252-1.408-.666-2.717-1.317-3.997a13.433 13.433 0 0 0-5.876-5.875C55.126 1.07 53.816.656 52.41.403c-1.387-.25-2.802-.332-4.204-.37a92.364 92.364 0 0 0-1.932-.029C45.51 0 44.744 0 43.98 0H20.02c-.764 0-1.528 0-2.292.004-.644.004-1.288.012-1.931.03-.35.009-.702.021-1.054.038-1.055.05-2.111.144-3.151.331-1.055.19-2.056.47-3.03.872a13.47 13.47 0 0 0-4.369 2.917A13.427 13.427 0 0 0 1.72 7.595C1.069 8.875.656 10.184.403 11.592c-.249 1.387-.332 2.801-.37 4.203a92.43 92.43 0 0 0-.029 1.932C0 18.49 0 19.256 0 20.02v23.96c0 .765 0 1.529.004 2.294.004.643.012 1.287.03 1.93.037 1.402.12 2.817.369 4.203.253 1.408.666 2.719 1.317 3.998a13.41 13.41 0 0 0 2.472 3.402 13.422 13.422 0 0 0 3.404 2.474c1.278.65 2.588 1.063 3.995 1.316 1.387.25 2.802.332 4.205.37.643.017 1.287.025 1.931.028.764.006 1.528.005 2.293.005h23.96c.764 0 1.529 0 2.293-.005a92.159 92.159 0 0 0 1.931-.028c1.403-.038 2.818-.12 4.205-.37 1.407-.253 2.717-.666 3.995-1.316a13.423 13.423 0 0 0 5.876-5.876c.651-1.28 1.064-2.59 1.317-3.998.25-1.386.332-2.8.37-4.203.017-.643.025-1.287.028-1.93.005-.765.005-1.53.005-2.294V20.02c0-.764 0-1.529-.005-2.293Z"/><path fill="#fff" d="m50.712 39.51-.004-.006c.07-.24.144-.48.206-.727C53.57 28.194 47.087 15.68 36.117 9.094c4.807 6.517 6.933 14.41 5.044 21.314a17.91 17.91 0 0 1-.595 1.781c-.242-.16-.549-.34-.96-.567 0 0-10.912-6.738-22.74-18.656-.31-.313 6.307 9.458 13.817 17.392-3.538-1.985-13.399-9.16-19.641-14.873.767 1.28 1.679 2.51 2.682 3.696 5.213 6.611 12.01 14.768 20.156 21.032-5.723 3.502-13.809 3.774-21.86.004a33.023 33.023 0 0 1-5.596-3.339c3.408 5.451 8.657 10.154 15.045 12.9 7.618 3.274 15.193 3.052 20.836.053l-.005.007.086-.05c.231-.125.461-.252.686-.386 2.711-1.407 8.066-2.835 10.94 2.757.704 1.369 2.2-5.884-3.3-12.65Z"/></svg>