<svg xmlns="http://www.w3.org/2000/svg" width="54" height="52" fill="none"><path fill="#F05138" d="M53.996 14.348a69.118 69.118 0 0 0-.024-1.564c-.032-1.134-.102-2.279-.312-3.401-.213-1.14-.562-2.2-1.111-3.236a10.904 10.904 0 0 0-2.086-2.754 11.324 11.324 0 0 0-2.872-2.001 12.326 12.326 0 0 0-3.37-1.066c-1.171-.202-2.365-.269-3.548-.3a81.23 81.23 0 0 0-1.63-.023C38.398 0 37.753 0 37.108 0H16.892c-.645 0-1.29 0-1.935.004-.543.003-1.087.009-1.63.023-.295.008-.592.017-.888.031a21.43 21.43 0 0 0-2.66.268c-.89.154-1.734.38-2.555.706a11.371 11.371 0 0 0-3.686 2.36A10.898 10.898 0 0 0 1.45 6.148 11.155 11.155 0 0 0 .34 9.383C.13 10.505.06 11.65.028 12.785a71.747 71.747 0 0 0-.024 1.563C-.001 14.966 0 15.585 0 16.204v19.393c0 .619 0 1.237.004 1.856.003.521.01 1.042.024 1.563.032 1.135.102 2.28.312 3.402.213 1.14.562 2.2 1.111 3.235a10.885 10.885 0 0 0 2.086 2.755c.841.807 1.811 1.483 2.872 2.001 1.079.527 2.184.86 3.371 1.065 1.17.202 2.364.27 3.548.3.542.014 1.086.02 1.63.023.644.004 1.289.004 1.934.004h20.216c.645 0 1.29 0 1.935-.004.543-.003 1.086-.01 1.63-.023 1.183-.03 2.377-.098 3.547-.3 1.188-.204 2.293-.538 3.371-1.065a11.324 11.324 0 0 0 2.872-2.002 10.888 10.888 0 0 0 2.086-2.754c.55-1.035.898-2.096 1.111-3.235.21-1.122.28-2.267.312-3.402.015-.521.02-1.042.024-1.563.004-.619.004-1.237.004-1.856V16.204c0-.619 0-1.238-.004-1.856Z"/><path fill="#fff" d="M42.788 31.976c0-.002-.002-.003-.003-.005.06-.195.121-.388.173-.588C45.2 22.817 39.73 12.69 30.473 7.358c4.056 5.275 5.85 11.664 4.257 17.251a14.1 14.1 0 0 1-.502 1.442c-.205-.13-.464-.276-.81-.46 0 0-9.208-5.453-19.188-15.1-.261-.252 5.322 7.656 11.659 14.078-2.986-1.607-11.306-7.414-16.573-12.038a23 23 0 0 0 2.263 2.992c4.398 5.35 10.135 11.953 17.007 17.022-4.829 2.835-11.651 3.055-18.444.003a28.134 28.134 0 0 1-4.722-2.702c2.875 4.412 7.304 8.219 12.694 10.44 6.428 2.65 12.82 2.471 17.58.044l-.003.006c.021-.014.05-.028.072-.041.195-.101.39-.204.579-.312 2.287-1.14 6.805-2.295 9.23 2.232.594 1.107 1.856-4.763-2.784-10.24Z"/></svg>