<svg width="49" height="48" viewBox="0 0 49 48" fill="none" xmlns="http://www.w3.org/2000/svg">
<path d="M18.9612 8.31444C18.728 7.73138 18.4948 7.13667 18.2266 6.47198C19.9291 6.65856 21.5383 6.82182 23.2408 7.00839C22.9843 6.40202 22.7627 5.85394 22.4829 5.20092C24.3137 5.70235 26.0628 6.18045 27.9169 6.69354C27.6604 6.06384 27.4388 5.50411 27.159 4.80444C28.8265 5.6557 30.3425 6.42534 31.9867 7.25328C30.9139 7.6964 29.9576 8.09288 29.0014 8.50102C28.7449 8.60597 28.6633 8.45437 28.5816 8.25613C28.43 7.85965 28.2435 7.47484 28.1035 7.07836C28.0102 6.81015 27.9169 6.78683 27.6604 6.92677C26.5992 7.52148 25.5031 8.06956 24.4419 8.65261C24.1504 8.81587 24.0105 8.79254 23.8939 8.46603C23.7306 8.01125 23.509 7.57979 23.2991 7.10168C22.1913 7.97627 21.0952 8.81587 20.0224 9.67879C19.7308 9.91201 19.5676 9.97032 19.4393 9.53886C19.3344 9.15404 19.1595 8.78088 19.0195 8.39607C19.0195 8.34942 18.9962 8.3261 18.9612 8.31444Z" fill="#8507C0"/>
<path d="M33.2458 22.7043C31.9981 23.2173 30.7503 23.7304 29.4559 24.2552C29.4559 23.8121 29.4093 23.4156 29.4676 23.0308C29.5376 22.576 29.386 22.5876 29.0361 22.7392C27.7418 23.2873 26.4357 23.8237 25.083 24.3951C25.083 23.8354 25.083 23.3223 25.083 22.6693C23.6837 23.4389 22.3777 24.1502 20.99 24.9082C20.99 24.3251 20.99 23.8354 20.99 23.334C20.99 23.2523 20.99 23.1824 20.99 23.1007C21.0133 22.5643 20.7451 21.8297 21.0949 21.5498C21.3865 21.3166 22.0511 21.7597 22.5526 21.8996C23.2639 22.0979 23.9752 22.2961 24.6632 22.5293C24.9664 22.6343 25.0947 22.5993 25.0714 22.2611C25.0714 22.2028 25.0714 22.1445 25.0714 22.0862C25.083 20.8268 25.083 20.8268 26.2958 21.2933C27.1937 21.6431 28.1149 21.9696 29.0128 22.3311C29.3743 22.4827 29.5259 22.4594 29.5259 22.0046C29.5376 21.5964 29.3277 21.0367 29.6658 20.8385C29.8641 20.7219 30.3772 21.1183 30.727 21.3049C31.5666 21.748 32.3945 22.2028 33.2341 22.6459C33.2341 22.6693 33.2341 22.6809 33.2458 22.7043Z" fill="#8507C0"/>
<path d="M21.2348 11.6028C20.6051 12.3025 19.8121 12.8039 19.1124 13.4103C18.646 13.8184 18.1446 14.1799 17.6665 14.5881C17.3749 14.8446 17.2 14.9146 17.13 14.4248C17.0717 14.0517 16.9435 13.6902 16.8152 13.2121C15.9873 14.2149 15.2293 15.1361 14.413 16.1273C14.2731 15.6026 14.1448 15.1595 13.9932 14.5997C13.3518 15.5559 12.7805 16.4189 12.1624 17.3401C11.9992 16.4655 11.8476 15.6609 11.6843 14.8679C11.626 14.5531 11.731 14.4481 12.0458 14.4715C12.5822 14.5298 13.1303 14.5531 13.6667 14.5997C13.9349 14.6231 14.0049 14.5298 13.9349 14.2616C13.8183 13.8534 13.7367 13.4336 13.6317 12.9672C14.5646 13.0371 15.4508 13.0838 16.3371 13.1654C16.6753 13.1887 16.8968 13.1654 16.6986 12.7573C16.6869 12.7456 16.6869 12.7223 16.6869 12.699C16.3721 11.3463 16.3721 11.3813 17.7947 11.4862C18.9375 11.5678 20.0803 11.5795 21.2231 11.6145C21.2348 11.6261 21.2348 11.6028 21.2348 11.6028Z" fill="#BB19DD"/>
<path d="M31.602 18.6927C30.2026 19.2875 28.9549 19.8122 27.7071 20.3603C27.334 20.5235 27.3107 20.3836 27.2873 20.0571C27.2057 18.7044 27.1941 18.6927 25.9813 19.3224C25.0717 19.7889 24.1505 20.2553 23.2409 20.7451C22.9028 20.92 22.7512 20.955 22.7279 20.4769C22.6812 19.4624 22.5763 18.4362 22.4946 17.3634C24.0922 17.8182 25.6198 18.238 27.1474 18.6694C27.1474 18.0514 27.1474 17.48 27.1474 16.8386C28.6051 17.4217 30.0394 18.0281 31.602 18.6927Z" fill="#8507C0"/>
<path d="M33.2459 15.0196C32.0331 15.486 30.8203 15.9408 29.6192 16.4073C29.3977 16.4889 29.3044 16.4422 29.2694 16.1974C29.2228 15.8708 29.1062 15.556 29.0828 15.2295C29.0479 14.7514 28.8496 14.8097 28.5231 14.9729C27.3803 15.5327 26.2259 16.0807 25.0714 16.6405C24.8848 16.7338 24.7099 16.8387 24.6516 16.5239C24.4417 15.4277 24.2318 14.3316 24.0103 13.1538C25.6895 13.6786 27.287 14.18 28.9546 14.7047C28.8496 14.145 28.7563 13.6202 28.6397 12.9556C30.2373 13.6552 31.7416 14.3083 33.2575 14.9613C33.2459 14.9729 33.2459 15.0196 33.2459 15.0196Z" fill="#8507C0"/>
<path d="M18.9607 8.31433C18.9956 8.32599 19.019 8.34931 19.0073 8.39596C18.7624 8.33765 18.6691 8.55921 18.5409 8.68749C17.5497 9.6437 16.5468 10.5882 15.5789 11.5678C15.2641 11.8826 15.1475 11.8476 15.0309 11.4278C14.9376 11.1247 14.8909 10.7865 14.646 10.4833C13.9814 11.4862 13.34 12.4773 12.6637 13.5035C12.3488 13.107 12.4071 12.6173 12.1039 12.1742C11.6025 13.107 11.1244 13.9816 10.588 14.9612C10.3781 14.0633 10.1915 13.2703 9.99326 12.4773C9.93495 12.2325 10.0632 12.2208 10.2381 12.2208C10.7396 12.2091 11.241 12.1742 11.7541 12.1742C12.0456 12.1742 12.1855 12.1392 12.0806 11.7777C11.964 11.3929 11.6258 10.9264 11.8474 10.6349C12.0573 10.3434 12.6053 10.5416 13.0135 10.495C13.5499 10.4367 14.098 10.4133 14.6694 10.3783C14.5294 9.97021 14.4128 9.56207 14.2612 9.16559C14.1563 8.87406 14.2262 8.73413 14.5411 8.71081C16.0221 8.57088 17.4914 8.4426 18.9607 8.31433Z" fill="#BB19DD"/>
<path d="M22.7394 26.3657C22.7627 25.806 22.5878 25.0131 22.9376 24.7565C23.2758 24.5233 23.9405 25.0364 24.4652 25.2113C25.3048 25.5028 26.1328 25.8177 26.9724 26.1325C26.984 26.1442 27.0073 26.1325 27.0423 26.1325C27.1823 25.6661 27.1706 25.1763 27.2172 24.6982C27.2406 24.5116 27.2289 24.3484 27.5204 24.4766C28.7565 25.0597 30.0626 25.5145 31.2637 26.1792V26.2025C29.841 26.7506 28.43 27.287 26.984 27.8467C26.8791 27.2636 27.089 26.7739 27.0423 26.2025C25.8412 26.7039 24.6635 27.1937 23.4973 27.6834C22.6228 28.0566 22.6228 28.0566 22.6344 27.0887C22.6344 26.9022 22.5645 26.6923 22.7394 26.5407C22.7394 26.4824 22.7394 26.424 22.7394 26.3657Z" fill="#8507C0"/>
<path d="M21.3513 29.8758C21.6662 29.3627 21.5146 28.7447 21.7711 28.1733C22.5291 28.6047 23.2871 29.0245 24.0451 29.456C24.3133 29.6192 24.5115 29.6775 24.5115 29.2461C24.5115 29.1295 24.5582 29.0245 24.5815 28.9079C24.7564 27.8934 24.7564 27.9051 25.7243 28.3249C26.6455 28.7213 27.5667 29.1178 28.6395 29.5843C27.077 30.2023 25.666 30.762 24.185 31.3567C24.2666 30.8087 24.3249 30.3539 24.4182 29.7825C23.3221 30.3655 22.3192 30.8903 21.2697 31.4384C21.2231 30.9486 21.4446 30.5405 21.3513 30.109C21.3513 30.0274 21.3513 29.9574 21.3513 29.8758Z" fill="#8507C0"/>
<path d="M31.5083 16.8503C32.6744 17.5383 33.7123 18.1564 34.7734 18.7628C34.9483 18.8677 35.1349 19.1009 35.3331 18.9727C35.5081 18.8561 35.4031 18.5762 35.4148 18.3663C35.4264 18.0748 35.4148 17.7949 35.4148 17.3751C36.0678 18.0864 36.6625 18.7278 37.2456 19.3691C37.4205 19.5557 37.2222 19.6373 37.1056 19.719C36.6042 20.0805 36.0911 20.4303 35.4731 20.8618C35.4731 20.4536 35.4498 20.1388 35.4731 19.8356C35.5197 19.3225 35.3798 19.1709 34.8667 19.3808C33.9805 19.7306 33.0826 20.0105 32.1963 20.3487C31.8465 20.4886 31.7299 20.4303 31.7182 20.0338C31.6716 19.0193 31.5899 17.9931 31.5083 16.8503Z" fill="#BB19DD"/>
<path d="M20.1271 15.9174C19.0893 16.8386 18.1447 17.6899 17.1302 18.5878C17.0252 18.0164 16.932 17.5383 16.827 16.9436C15.9641 17.8765 15.1711 18.7277 14.3082 19.6606C14.1683 18.7277 14.04 17.8881 13.9117 17.0602C13.8534 16.7337 14.005 16.652 14.3082 16.687C14.9962 16.7687 15.6959 16.8386 16.3839 16.9319C16.7687 16.9786 16.8853 16.8503 16.792 16.4888C16.757 16.3372 16.7337 16.1856 16.7104 16.034C16.6171 15.2994 16.6171 15.2994 17.3168 15.4276C18.203 15.5909 19.1009 15.7425 20.1271 15.9174Z" fill="#BB19DD"/>
<path d="M34.4122 6.20372C35.4034 6.89173 36.173 7.81296 37.0826 8.59425C37.2108 8.71086 37.2342 8.81581 37.0709 8.9091C37.0243 8.93242 36.9776 8.97907 36.931 9.00239C35.7882 9.83033 35.7532 9.83033 35.2984 8.52428C35.1118 7.99953 34.9019 7.97621 34.4821 8.23276C34.1556 8.44266 33.7708 8.54761 33.456 8.76917C32.9545 9.119 32.7563 8.93242 32.5697 8.41933C32.2082 7.42814 31.7768 6.46027 31.4619 5.41077C32.6047 6.21538 33.7475 7.03166 34.8903 7.83628C34.9253 7.8596 34.9486 7.88292 34.9836 7.90624C34.9836 7.8596 34.9719 7.81296 34.9719 7.76631C34.832 7.2299 34.4938 6.75179 34.4122 6.20372Z" fill="#BB19DD"/>
<path d="M15.9641 4.3846C14.6464 5.08426 13.4453 5.72563 12.2325 6.36699C11.9993 6.49526 11.976 6.30868 11.906 6.16875C11.4396 5.10759 10.9848 4.04642 10.4717 2.86865C12.3258 3.38174 14.075 3.85985 15.9641 4.3846Z" fill="#8507C0"/>
<path d="M30.5291 10.8915C29.1764 11.4629 27.9404 11.976 26.7043 12.5008C26.541 12.5707 26.4244 12.6057 26.3661 12.3725C26.0746 11.2414 25.7714 10.1102 25.4565 8.87415C27.1824 9.57381 28.8033 10.2152 30.5291 10.8915Z" fill="#8507C0"/>
<path d="M21.2349 11.6028V11.6145C21.2932 10.9964 20.8967 10.4717 20.8501 9.78369C22.4827 10.1452 24.1035 10.5067 25.876 10.8915C24.4884 11.7311 23.2173 12.5007 21.9113 13.282C21.5614 12.7689 21.6314 12.0926 21.2349 11.6028Z" fill="#8507C0"/>
<path d="M24.2664 14.9729C23.0537 15.8475 21.9459 16.6404 20.8381 17.4334C20.6515 17.5733 20.5815 17.4917 20.5349 17.2818C20.3483 16.3139 20.1617 15.3461 19.9635 14.3782C19.9052 14.11 20.0451 14.075 20.255 14.1216C21.5494 14.4015 22.8438 14.6814 24.2664 14.9729Z" fill="#8507C0"/>
<path d="M22.6109 19.2175C21.678 19.8122 20.8734 20.337 20.0688 20.8501C19.7423 21.06 19.4041 21.2465 19.0893 21.4798C18.7744 21.713 18.6111 21.7247 18.5762 21.2699C18.5062 20.4653 18.4129 19.649 18.3313 18.8444C18.308 18.6461 18.238 18.3779 18.6111 18.4479C19.8939 18.6928 21.1766 18.9376 22.6109 19.2175Z" fill="#BB19DD"/>
<path d="M31.2635 26.2025V26.1792C31.6367 25.6544 31.4151 24.9781 31.695 24.3717C32.4646 24.9897 33.2226 25.5961 34.0039 26.2258C34.2371 25.7361 34.1555 25.1996 34.3654 24.6399C34.6569 25.188 34.9134 25.6777 35.1816 26.1559C35.2749 26.3308 35.2633 26.4824 35.1117 26.6223C34.8201 26.9138 34.5403 27.2054 34.2604 27.4969C34.1555 27.6018 34.0389 27.6951 33.8989 27.6135C33.7706 27.5319 33.8873 27.4036 33.8989 27.2986C33.9456 26.9955 33.9922 26.6923 34.0505 26.2841C33.071 26.8205 32.1614 27.3103 31.2169 27.8234C31.1236 27.2287 31.4734 26.7273 31.2635 26.2025Z" fill="#BB19DD"/>
<path d="M34.4235 11.3929C33.4556 11.941 32.3711 12.1509 31.3449 12.5474C31.1584 12.6174 31.0884 12.5241 31.0534 12.3841C30.7152 11.2763 30.3887 10.1685 30.0039 8.89746C31.5782 9.79537 33.0008 10.6 34.4351 11.4046L34.4235 11.3929Z" fill="#BB19DD"/>
<path d="M25.7827 32.9427C24.3717 33.5257 22.9724 34.1088 21.5148 34.7152C21.4215 34.2487 21.6081 33.8756 21.6897 33.5024C21.8063 32.931 21.9346 32.3713 22.0628 31.7999C22.1095 31.6133 22.1328 31.3918 22.4243 31.52C23.5321 32.0098 24.6982 32.383 25.7827 32.9543V32.9427Z" fill="#8507C0"/>
<path d="M33.2457 15.0195V14.9728C33.5023 14.5997 33.2108 14.2382 33.2341 13.865C33.2457 13.6551 33.1991 13.4452 33.1758 13.1304C33.8638 13.5852 34.4935 13.9933 35.1115 14.4014C35.7179 14.7979 36.3359 15.206 37.0589 15.6842C35.9045 16.069 34.8666 16.4305 33.8171 16.7686C33.5606 16.8503 33.6072 16.6404 33.5723 16.5004C33.409 16.0223 33.6189 15.4509 33.2457 15.0195Z" fill="#BB19DD"/>
<path d="M26.8321 36.2894C25.8176 36.4876 24.908 36.9541 23.9402 37.2689C23.4854 37.4205 23.0306 37.5954 22.5059 37.782C22.5525 37.129 22.7974 36.5926 22.9723 36.0329C23.1122 35.5664 23.0889 34.8551 23.4854 34.7035C23.8119 34.5869 24.3483 35.0067 24.7914 35.1933C25.4794 35.4964 26.1558 35.8113 26.8321 36.1261C26.8321 36.1961 26.8321 36.2428 26.8321 36.2894Z" fill="#8507C0"/>
<path d="M25.7828 32.9426V32.9543C26.0977 32.5345 26.086 32.0214 26.2376 31.5433C26.3076 31.3101 26.3775 31.2634 26.5874 31.3801C27.4387 31.8698 28.29 32.3479 29.2345 32.8843C27.9634 33.4557 26.7973 33.9805 25.5729 34.5169C25.4563 33.9455 25.8878 33.4674 25.7828 32.9426Z" fill="#BB19DD"/>
<path d="M34.4236 11.393V11.4046C34.4352 10.8216 34.1204 10.2968 34.0737 9.6438C35.1466 10.4601 36.1727 11.2414 37.1989 12.0227V12.011C36.6275 12.5824 35.8346 12.7573 35.1582 13.1421C34.925 13.2821 34.9367 13.0022 34.9017 12.8856C34.7268 12.3842 34.6918 11.8477 34.4236 11.393Z" fill="#8507C0"/>
<path d="M40.8839 26.5057C40.569 25.3979 40.2891 24.4651 40.0093 23.4855C40.9655 23.3689 41.8984 23.3223 42.9479 23.3223C42.2482 24.4067 41.5952 25.3979 40.8839 26.5057Z" fill="#BB19DD"/>
<path d="M15.9291 22.4477C15.8241 21.4565 15.7192 20.5352 15.6142 19.6257C15.5793 19.3458 15.7192 19.3575 15.9291 19.4158C16.7104 19.6373 17.4917 19.8589 18.2846 20.0805C17.5267 20.8501 16.7687 21.6081 15.9291 22.4477Z" fill="#8507C0"/>
<path d="M20.9898 23.1006C20.9898 23.1823 20.9898 23.2522 20.9898 23.3339C20.3485 23.5904 19.9287 24.1501 19.3922 24.535C19.1007 24.7449 18.8325 24.9897 18.436 25.3163C18.436 24.1501 18.436 23.124 18.436 22.0745C19.299 22.296 20.0569 22.949 20.9898 23.1006Z" fill="#BB19DD"/>
<path d="M31.03 29.7359C30.3187 30.1323 29.6074 30.5171 28.896 30.9136C28.7444 31.0069 28.5695 31.1002 28.4179 30.9953C28.2313 30.867 28.4412 30.7154 28.4646 30.5871C28.6278 29.7009 28.8144 28.8146 29.0243 27.8118C29.7356 28.4298 30.377 29.0012 31.0184 29.5609C31.03 29.6192 31.03 29.6775 31.03 29.7359Z" fill="#8507C0"/>
<path d="M22.7393 26.3659C22.7393 26.4242 22.7393 26.4825 22.7509 26.5408C22.0746 26.774 21.6081 27.3104 21.0251 27.6836C20.7335 27.8701 20.4653 28.08 20.2088 28.2666C20.2088 27.2404 20.1971 26.2609 20.2088 25.293C20.2088 24.9665 20.4187 25.0948 20.5586 25.1881C21.1184 25.5029 21.6664 25.8294 22.2145 26.1443C22.3778 26.2259 22.5294 26.3659 22.7393 26.3659Z" fill="#BB19DD"/>
<path d="M4.64082 26.7506C3.73125 27.2287 2.9383 27.6602 2.14534 28.0916C1.99375 28.1733 1.8888 28.1616 1.81883 27.9983C1.50398 27.2754 1.20079 26.564 0.827637 25.7128C2.14534 26.0626 3.32311 26.3891 4.64082 26.7506Z" fill="#8507C0"/>
<path d="M33.2459 22.7041C33.2226 22.6808 33.2226 22.6692 33.2342 22.6458C33.4091 22.1094 33.2925 21.5497 33.4091 20.885C34.0622 21.538 34.6569 22.1444 35.2516 22.7275C35.4032 22.8791 35.3216 22.949 35.1933 23.0423C34.5636 23.4738 33.9339 23.9169 33.2342 24.395C33.2459 23.7653 33.2459 23.2406 33.2459 22.7041Z" fill="#BB19DD"/>
<path d="M37.1987 12.0226C37.3853 11.5095 37.0005 11.0664 37.0471 10.5767C37.0005 10.6233 36.9422 10.6583 36.8955 10.7049C37.6302 11.358 38.3765 12.011 39.1111 12.664C39.2511 12.7923 39.2394 12.9322 39.0645 13.0488C39.0178 13.0838 38.9712 13.1188 38.9245 13.1538C37.7584 14.0283 37.7584 14.0284 37.4669 12.594C37.4203 12.3841 37.4552 12.1276 37.1987 12.0226C37.1987 12.011 37.1987 12.0226 37.1987 12.0226Z" fill="#BB19DD"/>
<path d="M31.03 29.7358C31.03 29.6775 31.03 29.6192 31.03 29.5608C31.2982 29.0827 31.2516 28.523 31.4848 27.8933C31.9279 28.4997 32.3128 29.0244 32.7092 29.5608C32.8142 29.7008 32.7092 29.7707 32.616 29.8407C32.0446 30.2955 31.4732 30.7386 30.7852 31.275C30.8901 30.6687 30.9601 30.2022 31.03 29.7358Z" fill="#BB19DD"/>
<path d="M23.7187 38.0035C25.188 39.2746 25.188 39.2746 23.6604 40.2308C23.3572 40.4174 23.054 40.6156 22.6226 40.8955C23.019 39.846 23.3572 38.9598 23.7187 38.0035Z" fill="#BB19DD"/>
<path d="M37.1992 7.19495C37.7706 7.87129 38.342 8.54764 38.9251 9.21232C39.135 9.44554 39.135 9.63212 38.8668 9.8187C38.5986 10.0053 38.3537 10.2268 38.0505 10.4717C37.724 9.36391 37.4208 8.29109 37.106 7.22993C37.1409 7.21827 37.1643 7.20661 37.1992 7.19495Z" fill="#BB19DD"/>
<path d="M21.3514 29.8758C21.3514 29.9457 21.3514 30.0274 21.3398 30.0973C20.8034 30.5871 20.2786 31.0885 19.6489 31.6832C19.7539 30.5638 19.8588 29.5726 19.9521 28.5231C20.5118 28.9429 20.815 29.5376 21.3514 29.8758Z" fill="#BB19DD"/>
<path d="M26.8324 36.2894C26.8324 36.2427 26.8324 36.1961 26.8324 36.1378C27.1473 35.6946 27.1823 35.1232 27.4505 34.6451C28.1035 35.9395 27.8003 36.8491 26.5176 37.3155C26.6342 36.9657 26.7391 36.6275 26.8324 36.2894Z" fill="#BB19DD"/>
<path d="M34.4119 6.19202C34.4002 6.18036 34.3886 6.18036 34.3652 6.1687C34.3886 6.18036 34.4002 6.19202 34.4119 6.19202C34.4119 6.20368 34.4119 6.19202 34.4119 6.19202Z" fill="#BB19DD"/>
</svg>
