<svg xmlns="http://www.w3.org/2000/svg" width="49" height="48" fill="none"><path fill="#8507C0" d="M18.961 8.314c-.233-.583-.466-1.177-.734-1.842 1.702.187 3.311.35 5.014.536-.257-.606-.478-1.154-.758-1.807 1.83.501 3.58.98 5.434 1.493-.257-.63-.478-1.19-.758-1.89 1.668.852 3.184 1.621 4.828 2.45-1.073.442-2.03.839-2.986 1.247-.256.105-.338-.047-.42-.245-.151-.396-.337-.781-.477-1.178-.094-.268-.187-.291-.444-.151-1.06.594-2.157 1.143-3.218 1.726-.292.163-.431.14-.548-.187-.163-.455-.385-.886-.595-1.364-1.108.874-2.204 1.714-3.277 2.577-.291.233-.454.291-.583-.14-.105-.385-.28-.758-.42-1.143 0-.047-.023-.07-.058-.082ZM33.246 22.704c-1.248.513-2.496 1.026-3.79 1.551 0-.443-.047-.84.012-1.224.07-.455-.082-.443-.432-.292-1.294.548-2.6 1.085-3.953 1.656V22.67c-1.4.77-2.705 1.481-4.093 2.24V23.1c.023-.537-.245-1.271.105-1.551.292-.233.956.21 1.458.35.71.198 1.422.396 2.11.63.303.104.432.07.408-.269v-.175c.012-1.26.012-1.26 1.225-.793.898.35 1.819.677 2.717 1.038.361.152.513.128.513-.326.012-.409-.198-.968.14-1.166.198-.117.711.28 1.061.466.84.443 1.668.898 2.507 1.34 0 .024 0 .036.012.06Z"/><path fill="#BB19DD" d="M21.235 11.603c-.63.7-1.423 1.2-2.123 1.807-.466.408-.967.77-1.445 1.178-.292.257-.467.327-.537-.163-.058-.373-.186-.735-.315-1.213-.828 1.003-1.586 1.924-2.402 2.915-.14-.524-.268-.967-.42-1.527-.641.956-1.213 1.819-1.83 2.74-.164-.875-.315-1.68-.479-2.472-.058-.315.047-.42.362-.396.536.058 1.084.081 1.62.128.269.023.339-.07.269-.338-.117-.409-.198-.828-.303-1.295.933.07 1.819.117 2.705.198.338.024.56 0 .362-.408-.012-.011-.012-.035-.012-.058-.315-1.353-.315-1.318 1.108-1.213 1.142.082 2.285.093 3.428.128.012.012.012-.011.012-.011Z"/><path fill="#8507C0" d="M31.602 18.693c-1.4.595-2.647 1.12-3.895 1.667-.373.163-.396.024-.42-.303-.081-1.353-.093-1.364-1.306-.735-.91.467-1.83.933-2.74 1.423-.338.175-.49.21-.513-.268-.047-1.015-.152-2.04-.233-3.114 1.597.455 3.125.875 4.652 1.306v-1.83c1.458.583 2.892 1.19 4.455 1.854ZM33.246 15.02c-1.213.466-2.426.92-3.627 1.387-.221.082-.315.035-.35-.21-.046-.326-.163-.641-.186-.967-.035-.479-.233-.42-.56-.257-1.143.56-2.297 1.108-3.452 1.667-.186.094-.361.199-.42-.116-.21-1.096-.42-2.192-.64-3.37 1.678.525 3.276 1.026 4.944 1.55-.105-.559-.199-1.084-.315-1.748 1.597.7 3.102 1.352 4.617 2.005-.011.012-.011.059-.011.059Z"/><path fill="#BB19DD" d="M18.96 8.314c.036.012.059.035.047.082-.245-.058-.338.163-.466.291-.991.957-1.994 1.901-2.962 2.88-.315.316-.431.28-.548-.14-.093-.302-.14-.64-.385-.944-.665 1.003-1.306 1.994-1.982 3.02-.315-.396-.257-.886-.56-1.329-.502.933-.98 1.808-1.516 2.787a166 166 0 0 0-.595-2.484c-.058-.245.07-.256.245-.256.502-.012 1.003-.047 1.516-.047.292 0 .431-.035.327-.396-.117-.385-.455-.852-.234-1.143.21-.292.758-.093 1.167-.14.536-.058 1.084-.082 1.655-.117-.14-.408-.256-.816-.408-1.212-.105-.292-.035-.432.28-.455 1.481-.14 2.95-.268 4.42-.397Z"/><path fill="#8507C0" d="M22.74 26.366c.023-.56-.152-1.353.198-1.61.338-.233 1.003.28 1.527.455.84.292 1.668.607 2.507.922.012.011.035 0 .07 0 .14-.467.129-.957.175-1.435.024-.186.012-.35.303-.221 1.236.583 2.543 1.038 3.744 1.702v.024c-1.423.548-2.834 1.084-4.28 1.644-.105-.583.105-1.073.058-1.645-1.2.502-2.379.992-3.545 1.481-.874.374-.874.374-.863-.594 0-.187-.07-.397.105-.548v-.175Z"/><path fill="#8507C0" d="M21.351 29.876c.315-.513.164-1.131.42-1.703.758.432 1.516.852 2.274 1.283.268.163.466.221.466-.21 0-.116.047-.221.07-.338.175-1.015.175-1.003 1.143-.583.921.396 1.843.793 2.916 1.26a903.163 903.163 0 0 0-4.455 1.772c.082-.548.14-1.003.233-1.575a458.596 458.596 0 0 1-3.148 1.656c-.047-.49.175-.897.081-1.329v-.233Z"/><path fill="#BB19DD" d="M31.508 16.85c1.166.688 2.204 1.306 3.265 1.913.175.105.362.338.56.21.175-.117.07-.397.082-.607.011-.291 0-.571 0-.99.653.71 1.248 1.352 1.83 1.993.175.187-.023.268-.14.35-.5.361-1.014.711-1.632 1.143 0-.408-.023-.723 0-1.026.047-.513-.093-.665-.606-.455-.886.35-1.784.63-2.67.968-.35.14-.467.081-.479-.315-.046-1.015-.128-2.04-.21-3.184ZM20.127 15.917c-1.038.922-1.982 1.773-2.997 2.67-.105-.57-.198-1.049-.303-1.643-.863.933-1.656 1.784-2.519 2.717-.14-.933-.268-1.773-.396-2.6-.059-.327.093-.409.396-.374.688.082 1.388.152 2.076.245.385.047.501-.082.408-.443a6.182 6.182 0 0 1-.082-.455c-.093-.735-.093-.735.607-.606.886.163 1.784.314 2.81.49ZM34.412 6.204c.991.688 1.761 1.609 2.67 2.39.129.117.152.222-.011.315-.047.023-.093.07-.14.093-1.143.828-1.178.828-1.633-.478-.186-.524-.396-.548-.816-.291-.326.21-.711.315-1.026.536-.502.35-.7.163-.886-.35-.362-.99-.793-1.959-1.108-3.008 1.143.804 2.286 1.62 3.428 2.425.035.024.059.047.094.07 0-.046-.012-.093-.012-.14-.14-.536-.478-1.014-.56-1.562Z"/><path fill="#8507C0" d="M15.964 4.385c-1.318.7-2.519 1.34-3.732 1.982-.233.128-.256-.058-.326-.198-.466-1.061-.921-2.123-1.434-3.3 1.854.513 3.603.99 5.492 1.516ZM30.53 10.892c-1.354.57-2.59 1.084-3.826 1.609-.163.07-.28.105-.338-.128-.291-1.132-.595-2.263-.91-3.499 1.726.7 3.347 1.341 5.073 2.018ZM21.235 11.603v.011c.058-.618-.338-1.142-.385-1.83 1.633.361 3.253.723 5.026 1.107-1.388.84-2.659 1.61-3.965 2.391-.35-.513-.28-1.19-.676-1.68ZM24.266 14.973c-1.212.874-2.32 1.667-3.428 2.46-.187.14-.257.059-.303-.151-.187-.968-.373-1.936-.572-2.904-.058-.268.082-.303.292-.256 1.294.28 2.589.56 4.011.85Z"/><path fill="#BB19DD" d="M22.61 19.218c-.932.594-1.737 1.119-2.541 1.632-.327.21-.665.396-.98.63-.315.233-.478.245-.513-.21-.07-.805-.163-1.621-.245-2.426-.023-.198-.093-.466.28-.396 1.283.245 2.566.49 4 .77ZM31.264 26.203v-.024c.373-.525.151-1.2.431-1.807.77.618 1.528 1.224 2.309 1.854.233-.49.152-1.026.361-1.586.292.548.548 1.038.817 1.516.093.175.081.326-.07.466-.292.292-.572.583-.852.875-.104.105-.221.198-.361.116-.128-.081-.012-.21 0-.314.047-.303.093-.607.151-1.015-.979.537-1.889 1.026-2.833 1.54-.093-.595.256-1.097.047-1.622ZM34.423 11.393c-.967.548-2.052.758-3.078 1.154-.187.07-.257-.023-.292-.163-.338-1.108-.664-2.216-1.05-3.487 1.575.898 2.998 1.703 4.432 2.508l-.012-.012Z"/><path fill="#8507C0" d="M25.783 32.943c-1.411.583-2.81 1.166-4.268 1.772-.093-.466.093-.84.175-1.213.116-.571.245-1.13.373-1.702.047-.187.07-.408.361-.28 1.108.49 2.274.863 3.359 1.434v-.011Z"/><path fill="#BB19DD" d="M33.246 15.02v-.047c.256-.373-.035-.735-.012-1.108.012-.21-.035-.42-.058-.735.688.455 1.317.863 1.935 1.271.607.397 1.225.805 1.948 1.283-1.154.385-2.192.746-3.242 1.085-.256.081-.21-.129-.245-.269-.163-.478.047-1.05-.326-1.48Z"/><path fill="#8507C0" d="M26.832 36.29c-1.014.198-1.924.664-2.892.979-.455.151-.91.326-1.434.513.046-.653.291-1.19.466-1.75.14-.466.117-1.177.513-1.328.327-.117.863.303 1.306.49.688.302 1.365.617 2.041.932v.163Z"/><path fill="#BB19DD" d="M25.783 32.943v.011c.315-.42.303-.933.455-1.41.07-.234.14-.28.35-.164.85.49 1.702.968 2.646 1.504-1.27.572-2.437 1.096-3.661 1.633-.117-.572.315-1.05.21-1.574Z"/><path fill="#8507C0" d="M34.424 11.393v.012c.011-.583-.304-1.108-.35-1.761l3.125 2.379v-.012c-.572.571-1.364.746-2.04 1.131-.234.14-.222-.14-.257-.256-.175-.502-.21-1.038-.478-1.493Z"/><path fill="#BB19DD" d="M40.884 26.506c-.315-1.108-.595-2.04-.875-3.02.956-.117 1.89-.164 2.939-.164-.7 1.085-1.353 2.076-2.064 3.184Z"/><path fill="#8507C0" d="M15.93 22.448c-.106-.992-.21-1.913-.316-2.822-.035-.28.105-.268.315-.21.781.221 1.563.443 2.356.665-.758.77-1.516 1.527-2.356 2.367Z"/><path fill="#BB19DD" d="M20.99 23.1v.234c-.641.256-1.061.816-1.598 1.201-.291.21-.56.455-.956.781v-3.241c.863.221 1.62.874 2.554 1.026Z"/><path fill="#8507C0" d="M31.03 29.736c-.711.396-1.423.781-2.134 1.178-.152.093-.326.186-.478.081-.187-.128.023-.28.047-.408.163-.886.35-1.772.56-2.775.71.618 1.352 1.19 1.993 1.749.012.058.012.116.012.175Z"/><path fill="#BB19DD" d="M22.74 26.366c0 .058 0 .117.01.175-.675.233-1.142.77-1.725 1.143-.291.186-.56.396-.816.583 0-1.027-.012-2.006 0-2.974 0-.326.21-.198.35-.105.56.315 1.107.641 1.655.956.164.082.315.222.525.222Z"/><path fill="#8507C0" d="M4.64 26.75c-.909.479-1.702.91-2.495 1.342-.151.081-.256.07-.326-.094-.315-.723-.618-1.434-.991-2.285 1.317.35 2.495.676 3.813 1.038Z"/><path fill="#BB19DD" d="M33.246 22.704c-.023-.023-.023-.035-.012-.058.175-.537.058-1.096.175-1.761.653.653 1.248 1.26 1.843 1.842.151.152.07.222-.059.315-.63.432-1.26.875-1.959 1.353.012-.63.012-1.154.012-1.69ZM37.199 12.023c.186-.514-.198-.957-.152-1.446-.046.046-.105.081-.151.128.734.653 1.48 1.306 2.215 1.959.14.128.128.268-.046.385l-.14.105c-1.167.874-1.167.874-1.458-.56-.047-.21-.012-.466-.268-.571 0-.012 0 0 0 0ZM31.03 29.736v-.175c.268-.478.222-1.038.455-1.668.443.607.828 1.131 1.224 1.668.105.14 0 .21-.093.28-.571.454-1.143.898-1.83 1.434a64 64 0 0 0 .244-1.54ZM23.719 38.004c1.469 1.27 1.469 1.27-.059 2.227-.303.186-.606.385-1.037.664.396-1.049.734-1.935 1.096-2.892ZM37.2 7.195c.57.676 1.142 1.353 1.725 2.017.21.234.21.42-.058.607-.268.186-.513.408-.816.653-.327-1.108-.63-2.18-.945-3.242.035-.012.058-.023.093-.035ZM21.351 29.876c0 .07 0 .151-.011.221-.537.49-1.061.991-1.691 1.586.105-1.12.21-2.11.303-3.16.56.42.863 1.015 1.4 1.353ZM26.832 36.29v-.152c.315-.443.35-1.015.619-1.493.652 1.294.35 2.204-.933 2.67.116-.35.221-.688.314-1.026ZM34.412 6.192c-.012-.012-.023-.012-.047-.023.024.011.035.023.047.023 0 .012 0 0 0 0Z"/></svg>