<svg xmlns="http://www.w3.org/2000/svg" width="114" height="43" fill="none"><path fill="#4C4E52" d="M47.234 18.9h-1.687v11.016h1.687V18.9ZM54.792 14.234H41.04v1.687h13.752v-1.687ZM50.281 18.9h-1.687v11.016h1.687V18.9ZM96.893 29.928h1.702v-6.635L96.893 21.4v8.527Z"/><path fill="#4C4E52" d="M105.857 14.234v12.3L93.814 13.151v16.777h1.7V17.623l12.049 13.388V14.234h-1.706ZM82.79 14.226c-4.327 0-7.846 3.519-7.846 7.847s3.519 7.847 7.847 7.847 7.847-3.519 7.847-7.847c0-4.324-3.519-7.847-7.847-7.847Zm0 14.003a6.162 6.162 0 0 1-6.155-6.156 6.16 6.16 0 0 1 6.156-6.156 6.162 6.162 0 0 1 6.156 6.156 6.164 6.164 0 0 1-6.156 6.156Z"/><path fill="#4C4E52" d="M82.79 20.945a1.129 1.129 0 1 0 .001 2.257 1.129 1.129 0 0 0 0-2.257ZM71.991 19.048c0-2.652-2.143-4.81-4.777-4.81H58.24v15.694h1.676V15.94h7.3c1.69 0 3.066 1.394 3.066 3.108 0 1.707-1.357 3.094-3.032 3.113l-5.955-.004v7.774h1.676V23.86h3.925l3.207 6.069h1.95l-3.348-6.308c1.934-.643 3.287-2.512 3.287-4.572Z"/><path fill="#EB0029" d="M29.439 11.125 6.57 6.92l12.035 30.278L35.37 16.768l-5.931-5.643Zm-.365 1.855 3.5 3.325-9.569 1.733 6.069-5.058Zm-8.147 4.712L10.842 9.328l16.48 3.032-6.395 5.332Zm-.722 1.482-1.642 13.592-8.865-22.313 10.507 8.72Zm1.52.718 10.594-1.919L20.17 32.778l1.555-12.886Z"/></svg>