<svg xmlns="http://www.w3.org/2000/svg" width="64" height="64" fill="none"><g clip-path="url(#a)"><path fill="#3178C6" d="M60.871 0H2.13C-1.808 0-5 2.798-5 6.25v51.5C-5 61.202-1.808 64 2.129 64H60.87C64.808 64 68 61.202 68 57.75V6.25C68 2.798 64.808 0 60.871 0Z"/><path fill="#fff" fill-rule="evenodd" d="M39.625 50.875v6.25c1.013.525 2.25.912 3.625 1.175 1.375.262 2.875.387 4.375.387s2.875-.137 4.25-.425c1.375-.287 2.5-.762 3.5-1.375 1.013-.662 1.875-1.5 2.375-2.625s.888-2.375.888-4c0-1.137-.175-2.125-.513-3-.337-.875-.825-1.625-1.5-2.25a9.928 9.928 0 0 0-2.25-1.75 27.913 27.913 0 0 0-3-1.5c-.825-.337-1.5-.662-2.25-.987-.65-.325-1.212-.65-1.625-.975-.462-.338-.813-.688-1.063-1.05a2.195 2.195 0 0 1-.374-1.25c0-.425.11-.813.337-1.163.226-.35.538-.637.938-.887.4-.25.9-.438 1.5-.575.587-.138 1.237-.2 2-.2.524 0 1.075.039 1.624.117a13.89 13.89 0 0 1 3.5.975c.55.25 1.063.538 1.5.863v-5.875c-.95-.363-2-.638-3.125-.813-1.125-.175-2.375-.262-3.875-.262s-2.875.162-4.25.475c-1.375.312-2.5.812-3.5 1.5-1.012.675-1.75 1.5-2.375 2.625-.587 1.05-.875 2.25-.875 3.75 0 1.875.538 3.5 1.625 4.75 1.075 1.375 2.75 2.375 4.875 3.375.863.35 1.625.7 2.375 1.037.75.338 1.375.688 1.875 1.05.538.363.963.763 1.25 1.188.313.425.475.925.475 1.5 0 .4-.097.775-.287 1.125-.19.35-.487.65-.887.9s-.888.45-1.5.6c-.588.137-1.25.212-2.125.212-1.375 0-2.75-.237-4-.712a11.88 11.88 0 0 1-3.75-2.125l.237-.055ZM29.125 35.5h8v-5.125H14.75V35.5h8v22.875h6.375V35.5Z" clip-rule="evenodd"/></g><defs><clipPath id="a"><path fill="#fff" d="M0 0h64v64H0z"/></clipPath></defs></svg>