<svg xmlns="http://www.w3.org/2000/svg" width="73" height="74" fill="none"><circle cx="33" cy="35" r="32" fill="#fff"/><path fill="#FF007A" d="M11.671 11.16C9.403 7.46 7.142 3.775 4.881.092c.042-.03.083-.062.123-.093.337.393.685.777 1.01 1.181 2.42 2.993 4.774 6.04 7.266 8.97 2.57 3.023 5.275 5.934 7.921 8.893 1.815 2.03 3.634 4.053 5.442 6.087.773.87.74 1.784-.059 2.66-.925 1.014-2.154 1.322-3.445 1.449-1.552.152-2.525 1.008-2.773 2.553a17.926 17.926 0 0 0-.182 1.825c-.079 1.398-.543 2.674-1.156 3.915-.347.7-.697 1.412-.931 2.155-.707 2.247.05 4.28 2.098 5.78.533.39 1.101.737 1.626 1.14 1.534 1.18 1.623 2.98.194 4.293-1.451 1.333-3.257 1.952-5.113 2.483-.616.175-.899.057-1.173-.528-.34-.727-.835-1.38-1.254-2.07-1.164-1.913-1.791-3.984-1.164-6.169.311-1.086 1.02-2.107 1.726-3.024 1.44-1.866 2.99-3.66 3.734-5.937.34-1.036.485-2.14.664-3.222.215-1.302.562-2.508 1.545-3.491.652-.652.706-1.487.254-2.307-1.753-3.174-3.465-6.37-5.293-9.497-.646-1.105-1.582-2.044-2.534-2.98.079.173.146.354.24.52 2.23 4.027 4.463 8.053 6.696 12.078.482.867.447 1.151-.23 1.878-1.04 1.116-1.443 2.512-1.542 3.964-.2 2.912-1.63 5.227-3.367 7.435-.845 1.075-1.779 2.137-2.357 3.354-1.202 2.53-.614 5.02.652 7.385.52.97 1.123 1.895 1.662 2.856.153.27.215.591.332.928 2.29.513 4.575.786 6.724-.615a.949.949 0 0 1 .556-.124c2.409.2 4.54.988 6.17 2.872.495.572 1.027 1.13 1.623 1.59 1.246.96 2.86.973 4.054.122 1.234-.883 1.461-2.727.367-3.778.098.356.19.613.237.88a2.048 2.048 0 0 1-2.523 2.364c-1.257-.302-2.086-1.394-2.047-2.696.032-1.145.85-2.023 2.146-2.244 1.43-.242 2.694.253 3.573 1.304.819.977 1.392 2.164 2.026 3.286.407.722.672 1.526 1.1 2.236 1.621 2.69 4.291 3.292 6.933 1.564 1.613-1.056 3.39-1.89 4.68-3.397.104-.123.285-.186.436-.264 4.396-2.309 6.353-7.39 4.613-12.026-.625-1.662-1.767-2.953-3.23-3.908-1.557-1.017-3.18-1.94-4.817-2.831-1.175-.639-2.229-1.338-2.573-2.742-.013.01.033-.043.052-.034 2.732 1.213 5.499 2.359 8.182 3.674 1.646.807 2.936 2.06 3.314 3.985.065.328.092.664.163 1.188.637-.764.932-1.52 1.116-2.308.824-3.517.199-6.674-2.483-9.24-1.606-1.535-3.611-2.354-5.763-2.778-2.093-.413-4.207-.716-6.31-1.087a8.778 8.778 0 0 1-1.345-.37c-1.58-.543-2.945-1.298-2.974-3.24.435.265.919.605 1.44.87 2.014 1.016 4.193 1.333 6.411 1.484 1.297.089 2.599.154 3.89.306 1.627.192 2.91.981 3.77 2.402.05.082.116.156.177.23.012.015.043.014.281.082-.23-.849-.333-1.637-.648-2.33-2.444-5.408-6.59-8.697-12.503-9.52-1.794-.25-3.665-.014-5.496.08-.568.03-.946-.038-1.325-.494-1.68-2.011-3.649-3.662-6.24-4.344-1.053-.276-2.178-.292-3.272-.404-.349-.036-.648.048-.581.523.013.097-.063.213-.116.312-.14.264-.405.517-.421.786-.148 2.436.546 4.64 1.944 6.632.124.176.243.356.44.644-.955-.318-1.754-.62-2.37-1.306A3662.05 3662.05 0 0 0 15.76 11.79c-.673-.743-1.36-1.473-2.043-2.21C24.75.175 44.708-2.285 59.502 10.126c15.312 12.845 17.364 35.51 4.669 50.733-12.925 15.503-35.57 17.43-50.772 5.025C4.895 58.945.367 49.875.02 38.912-.325 27.973 3.767 18.768 11.671 11.16Z"/><path fill="#FF007A" d="M57.411 41.3c-2.355-2.9-5.715-3.863-8.834-5.26-1.718-.769-3.413-1.615-5.03-2.575-1.27-.752-2.157-1.91-2.517-3.393.051-.031.102-.083.127-.073 2.33.927 4.817 1.113 7.257 1.52 1.994.33 3.935.817 5.644 1.982 2.548 1.736 3.726 4.373 3.353 7.8ZM36.661 20.893c4.612-2.104 14.375 2.029 16.003 6.673-2.787-.3-5.59-.538-8.373-.92-2.276-.311-4.137-1.464-5.594-3.24-.68-.827-1.348-1.662-2.036-2.513ZM53.384 54.703c-.093-.72-.132-1.4-.274-2.057-.506-2.33-1.874-4.23-3.176-6.16-1.054-1.563-2.18-3.092-2.682-4.947-.15-.553-.185-1.137-.274-1.706l.173-.13c1.335.754 2.685 1.48 3.999 2.269 1.708 1.026 3.25 2.248 3.924 4.217 1.03 3.01.494 5.78-1.435 8.296-.053.07-.138.12-.255.218ZM30.001 56.622c-1.543-1.842-3.273-3.023-5.693-3.436.506-.364.857-.64 1.23-.883 2.269-1.469 4.71-2.42 7.458-2.384 3.064.039 5.286 1.487 6.198 4.068.243.687.372 1.417.504 2.137.19 1.03.334 2.07.436 3.145-.342-.764-.703-1.52-1.026-2.292-.69-1.65-1.53-3.184-3.112-4.167-.852-.529-1.771-.813-2.791-.777-2.432.085-3.797 1.917-3.204 4.589ZM25.372 15.704c2.496-.046 4.658 1.709 5.381 4.33.175.636.346 1.275.49 1.918.3 1.348.996 2.486 1.851 3.544.116.143.217.3.344.477-3.856.345-8.796-4.97-8.066-10.27ZM30.934 47.166c1.406-.92 2.806-1.386 4.27-1.669 1.156-.223 2.325-.373 3.483-.583.48-.088.96-.212 1.42-.376 3.103-1.096 4.438-3.727 3.628-7.125-.032-.14-.07-.277-.118-.472 1.254 1.156 1.647 3.716.86 5.497-1.04 2.353-3.028 3.4-5.437 3.729-1.699.23-3.426.25-5.132.433-.939.1-1.863.349-2.974.566ZM28.999 34.537c-1.339.006-1.93-.708-1.675-2.02.235-1.215 1.14-2.086 2.257-2.174a2.635 2.635 0 0 1 2.688 1.74c.227.64.11 1.245-.46 1.541-.868.45-1.82.743-2.736 1.104l-.074-.19Zm.646-1.823c.436-.069 1.044-.045 1.146-.756.061-.424-.502-.909-.996-.87-.556.043-.899.365-.949.93-.043.496.228.712.8.696Z"/></svg>