<svg width="53" height="54" viewBox="0 0 53 54" fill="none" xmlns="http://www.w3.org/2000/svg">
<path d="M8.51697 8.14317C6.86175 5.4446 5.21193 2.75574 3.56212 0.0679496C3.59241 0.0452998 3.6227 0.0226499 3.65191 0C3.89749 0.286898 4.15172 0.567326 4.38865 0.861774C6.15422 3.04587 7.87219 5.26879 9.69078 7.40759C11.5667 9.61326 13.54 11.738 15.4711 13.8973C16.7953 15.3782 18.1227 16.8547 19.4425 18.3389C20.0062 18.973 19.9824 19.6407 19.3993 20.2803C18.7242 21.0202 17.8273 21.2445 16.8851 21.3373C15.7524 21.4484 15.0427 22.0728 14.862 23.1999C14.7917 23.64 14.7538 24.0865 14.7289 24.532C14.6716 25.5523 14.333 26.4831 13.8851 27.3891C13.6319 27.9003 13.3766 28.4191 13.2057 28.9616C12.6897 30.6011 13.2425 32.0852 14.7365 33.1788C15.126 33.4636 15.5403 33.717 15.9233 34.0115C17.043 34.8722 17.1079 36.1859 16.065 37.1436C15.0059 38.1165 13.6882 38.5684 12.3337 38.9556C11.8848 39.084 11.6781 38.9977 11.478 38.5706C11.2302 38.0399 10.8689 37.5632 10.5627 37.0595C9.71349 35.6639 9.25587 34.1528 9.71349 32.5587C9.94068 31.7659 10.4578 31.0206 10.9728 30.3519C12.0232 28.9897 13.1548 27.6803 13.6979 26.0193C13.9457 25.2632 14.0517 24.4576 14.1826 23.668C14.3395 22.7178 14.5926 21.8377 15.3099 21.1205C15.7859 20.6448 15.8248 20.0354 15.4949 19.4368C14.2161 17.1212 12.9666 14.7893 11.6327 12.507C11.161 11.7003 10.4784 11.0154 9.78381 10.3316C9.84115 10.4589 9.88984 10.5904 9.95799 10.7123C11.5862 13.6503 13.2154 16.5883 14.8447 19.5253C15.1963 20.1584 15.1714 20.3655 14.677 20.8961C13.9175 21.7104 13.6244 22.7286 13.5519 23.7888C13.4058 25.9136 12.3629 27.6027 11.095 29.214C10.4784 29.9981 9.7968 30.7736 9.37488 31.6613C8.4975 33.5078 8.92699 35.3252 9.85089 37.0509C10.2295 37.7584 10.6698 38.4336 11.0636 39.1347C11.1751 39.3321 11.2205 39.5661 11.306 39.812C12.9763 40.1863 14.6446 40.3858 16.2121 39.3633C16.3214 39.2921 16.4848 39.2619 16.6178 39.2727C18.3758 39.4183 19.9305 39.9932 21.1205 41.3684C21.4818 41.7858 21.8702 42.1935 22.3051 42.5289C23.2139 43.2289 24.392 43.2386 25.2629 42.6174C26.164 41.9735 26.3296 40.6274 25.5312 39.8605C25.6026 40.1205 25.6696 40.3082 25.7043 40.5023C25.8979 41.5895 24.9372 42.4869 23.863 42.228C22.9456 42.008 22.3408 41.2109 22.3689 40.2607C22.3927 39.4248 22.9888 38.7841 23.9354 38.6234C24.9783 38.4466 25.9012 38.8079 26.5427 39.5747C27.1399 40.2877 27.5585 41.1538 28.0205 41.9724C28.318 42.4998 28.5117 43.0865 28.8232 43.6043C30.0068 45.5672 31.9552 46.0062 33.883 44.7454C35.0601 43.9753 36.3572 43.3659 37.2973 42.2668C37.3741 42.1773 37.5061 42.1309 37.6165 42.0738C40.8241 40.389 42.2522 36.682 40.9821 33.2986C40.5266 32.0852 39.6925 31.1436 38.6258 30.4468C37.4888 29.7048 36.3042 29.0307 35.1098 28.3803C34.253 27.9144 33.4838 27.4042 33.2328 26.3796C33.2231 26.3871 33.2566 26.3483 33.2707 26.3548C35.2645 27.2403 37.2833 28.0761 39.2414 29.0361C40.4423 29.625 41.3835 30.5385 41.6593 31.9439C41.7069 32.1833 41.7264 32.4282 41.7783 32.811C42.2435 32.2534 42.4588 31.7023 42.593 31.1263C43.1945 28.5604 42.7379 26.2566 40.7809 24.3842C39.6092 23.2636 38.1455 22.6661 36.5757 22.3565C35.0482 22.0556 33.5055 21.8345 31.9714 21.5638C31.6382 21.5055 31.3104 21.4041 30.9891 21.293C29.8369 20.8972 28.8405 20.3461 28.8189 18.9288C29.137 19.123 29.4896 19.371 29.8705 19.5641C31.3396 20.3051 32.9299 20.537 34.5484 20.647C35.495 20.7117 36.4448 20.7592 37.3871 20.8702C38.5739 21.0105 39.5108 21.5864 40.1383 22.6229C40.175 22.6833 40.2226 22.7372 40.267 22.7912C40.2757 22.802 40.2984 22.8009 40.4725 22.8505C40.3049 22.2314 40.2291 21.6565 39.9998 21.1507C38.2158 17.2042 35.1899 14.8044 30.8755 14.2036C29.5665 14.0214 28.2012 14.1928 26.8651 14.2619C26.4507 14.2834 26.1749 14.2338 25.8979 13.9016C24.6722 12.4337 23.2355 11.2289 21.3444 10.7317C20.5763 10.53 19.7552 10.5182 18.9568 10.4362C18.7026 10.4103 18.484 10.4718 18.5327 10.818C18.5424 10.8892 18.4873 10.9733 18.4483 11.0456C18.3455 11.2387 18.153 11.4231 18.1411 11.6194C18.0329 13.3969 18.5392 15.005 19.5594 16.4589C19.6503 16.5873 19.7368 16.7188 19.8807 16.9292C19.184 16.6973 18.6009 16.4772 18.1508 15.9757C15.9406 13.5133 13.7207 11.0585 11.5007 8.60372C11.0095 8.0612 10.5076 7.52839 10.0099 6.99018C18.061 0.128349 32.6248 -1.66638 43.4206 7.39033C54.5939 16.7631 56.0912 33.3029 46.8273 44.411C37.3958 55.7241 20.8717 57.1305 9.77732 48.0781C3.57185 43.0143 0.267896 36.3951 0.0147444 28.3954C-0.237326 20.4129 2.74857 13.6956 8.51697 8.14317Z" fill="#FF007A"/>
<path d="M41.8948 30.1381C40.1758 28.0219 37.7243 27.3187 35.4481 26.2995C34.1942 25.7386 32.9577 25.1206 31.7774 24.4206C30.8503 23.8716 30.2033 23.0271 29.9404 21.9442C29.9783 21.9216 30.0151 21.8838 30.0335 21.8914C31.7341 22.5676 33.5484 22.7035 35.3291 23.0001C36.7842 23.2417 38.2003 23.5966 39.4477 24.4465C41.3074 25.7138 42.1664 27.638 41.8948 30.1381Z" fill="#FF007A"/>
<path d="M26.7529 15.246C30.1186 13.7112 37.2425 16.7269 38.4304 20.1157C36.3965 19.8968 34.3507 19.7231 32.3201 19.4449C30.6595 19.2173 29.3018 18.376 28.2383 17.0796C27.7417 16.4767 27.2549 15.8673 26.7529 15.246Z" fill="#FF007A"/>
<path d="M38.9559 39.9188C38.8878 39.3924 38.8596 38.8963 38.7558 38.4174C38.3869 36.7165 37.3883 35.3306 36.4385 33.922C35.6693 32.7819 34.8481 31.6656 34.4814 30.312C34.3721 29.9086 34.3462 29.4826 34.2812 29.0673C34.3234 29.036 34.3656 29.0037 34.4078 28.9724C35.3815 29.5225 36.3671 30.0521 37.3256 30.628C38.5719 31.3765 39.697 32.2685 40.1892 33.7052C40.9411 35.9022 40.5495 37.9234 39.142 39.7591C39.103 39.8109 39.0414 39.8465 38.9559 39.9188Z" fill="#FF007A"/>
<path d="M21.8926 41.3188C20.7664 39.9749 19.5039 39.1131 17.7383 38.8111C18.1072 38.5458 18.3636 38.3441 18.6362 38.1672C20.2914 37.0951 22.0722 36.4016 24.0779 36.4275C26.3141 36.4555 27.9358 37.5125 28.6011 39.3957C28.7785 39.8972 28.8726 40.43 28.9689 40.9553C29.1074 41.707 29.2123 42.4653 29.287 43.2505C29.0371 42.6928 28.7742 42.1406 28.5384 41.5776C28.0353 40.3739 27.4219 39.2544 26.2676 38.5371C25.6455 38.151 24.9747 37.9439 24.2304 37.9698C22.4562 38.0324 21.4598 39.3687 21.8926 41.3188Z" fill="#FF007A"/>
<path d="M18.5147 11.4596C20.3365 11.4262 21.9138 12.7064 22.4418 14.6198C22.5694 15.0836 22.6938 15.5495 22.7988 16.0187C23.0184 17.0024 23.5258 17.8329 24.15 18.6051C24.2344 18.7097 24.308 18.8241 24.401 18.9535C21.5871 19.2048 17.9824 15.3263 18.5147 11.4596Z" fill="#FF007A"/>
<path d="M22.5732 34.4185C23.5999 33.7477 24.6212 33.4069 25.69 33.2008C26.5328 33.038 27.3864 32.928 28.2313 32.7748C28.5818 32.7112 28.9323 32.6206 29.2677 32.5009C31.532 31.7006 32.5057 29.7807 31.915 27.3011C31.8912 27.1997 31.8641 27.0994 31.8284 26.957C32.7437 27.8005 33.0304 29.6685 32.4559 30.9682C31.6975 32.6853 30.2468 33.45 28.4888 33.6894C27.249 33.8577 25.9886 33.8717 24.7434 34.0055C24.0586 34.0788 23.3846 34.26 22.5732 34.4185Z" fill="#FF007A"/>
<path d="M21.1613 25.203C20.1844 25.2073 19.7527 24.6864 19.9388 23.7286C20.1108 22.842 20.7707 22.2068 21.5864 22.142C22.4562 22.073 23.259 22.6004 23.5478 23.4126C23.7133 23.8785 23.6279 24.3207 23.2124 24.5365C22.5785 24.8654 21.8839 25.079 21.2154 25.3421C21.197 25.2958 21.1786 25.2494 21.1613 25.203ZM21.6329 23.8721C21.951 23.8224 22.3946 23.8397 22.4692 23.3209C22.5136 23.0114 22.1025 22.6576 21.7422 22.6856C21.3365 22.7169 21.0866 22.952 21.0498 23.3641C21.0185 23.7265 21.2164 23.8839 21.6329 23.8721Z" fill="#FF007A"/>
</svg>
