<svg xmlns="http://www.w3.org/2000/svg" width="74" height="75" fill="none"><path fill="#121620" d="M73.984 35.454v3.18c-.093.038-.061.131-.07.201a33.208 33.208 0 0 1-.472 4.382c-.977 5.739-3.18 10.958-6.623 15.642-4.319 5.863-9.894 10.113-16.695 12.726-3.264 1.257-6.653 2.001-10.142 2.28-.481.04-.97-.023-1.435.132h-3.18c-.07-.124-.185-.062-.278-.062a34.448 34.448 0 0 1-6.165-.83 36.596 36.596 0 0 1-13.81-6.29 36.72 36.72 0 0 1-9.973-11.02C2.241 50.88.581 45.568.124 39.876c-.031-.412.031-.838-.116-1.242v-3.257c.155-.465.093-.953.132-1.434a35.608 35.608 0 0 1 1.535-7.91C3.745 19.446 7.367 13.863 12.53 9.28a36.215 36.215 0 0 1 10.833-6.662A36.683 36.683 0 0 1 34.166.13c.426-.031.86.039 1.28-.116h3.101c.039.093.132.062.202.07 2.148.07 4.264.364 6.35.837 5.018 1.125 9.608 3.203 13.741 6.25 5.87 4.328 10.112 9.904 12.725 16.705 1.264 3.289 2.008 6.7 2.295 10.214.04.458-.023.923.124 1.365ZM27.582 57.06c-.077.201.024.279.078.38 1.116 1.93 2.249 3.854 3.342 5.793.574 1.008 1.248 1.908 2.171 2.629 3.381 2.645 8.514 1.714 10.724-1.97 1.055-1.753 2.063-3.536 3.087-5.304 2.163-3.746 4.311-7.5 6.475-11.245 2.14-3.7 4.28-7.399 6.42-11.106 1.807-3.133 3.606-6.274 5.428-9.4 1.66-2.845 1.365-6.382-.961-8.863-1.427-1.52-3.218-2.28-5.304-2.296-2.443-.023-4.885-.008-7.328 0-.116 0-.256-.054-.372.07.077.132.21.14.325.17 3.436 1.017 5.289 5.026 3.808 8.283-.52 1.14-1.21 2.187-1.83 3.265-1.908 3.32-3.823 6.63-5.739 9.942-1.558 2.699-3.117 5.39-4.668 8.089-.93 1.62-1.822 3.265-2.776 4.87-.961 1.613-1.9 3.25-2.83 4.886-.605 1.062-1.303 2.032-2.373 2.668-2.132 1.272-4.28 1.295-6.436.07-.45-.24-.814-.605-1.24-.931Zm5.04-41.32c.086.117.179.14.272.186 2.047 1.032 2.792 3.296 1.535 5.475-.349.605-.736 1.203-1.093 1.808-1.644 2.807-3.264 5.63-4.893 8.453-1.559 2.698-3.11 5.397-4.668 8.088-.892 1.551-2.737 2.226-4.436 1.644-.488-.17-.9-.465-1.318-.767-.1.201.031.31.093.418 1.218 2.125 2.427 4.25 3.668 6.36 1.838 3.125 6.343 3.195 8.282.124.667-1.055 1.264-2.156 1.892-3.234l6.397-11.075c1.985-3.435 3.986-6.855 5.956-10.306 1.853-3.25-.489-7.251-4.234-7.251h-7.018c-.124.015-.272-.031-.434.077ZM14.4 15.678a6.387 6.387 0 0 0-6.405 6.383c0 3.552 2.869 6.429 6.413 6.413a6.394 6.394 0 0 0 6.382-6.413 6.37 6.37 0 0 0-6.39-6.383Z"/><path fill="#3487FE" d="M27.582 57.065c.427.326.791.683 1.241.939 2.163 1.217 4.312 1.202 6.436-.07 1.07-.644 1.768-1.605 2.373-2.668.93-1.636 1.869-3.265 2.83-4.886.954-1.605 1.846-3.249 2.776-4.87 1.551-2.699 3.118-5.39 4.669-8.088 1.915-3.312 3.83-6.623 5.738-9.943.62-1.085 1.31-2.132 1.83-3.264 1.48-3.258-.372-7.267-3.808-8.283-.116-.031-.248-.039-.325-.17.124-.125.256-.07.372-.07 2.443 0 4.885-.016 7.328 0 2.086.015 3.877.775 5.304 2.295 2.318 2.482 2.62 6.018.961 8.864-1.822 3.126-3.62 6.266-5.428 9.4-2.14 3.699-4.28 7.398-6.42 11.105-2.164 3.746-4.312 7.5-6.475 11.245-1.024 1.776-2.04 3.552-3.087 5.305-2.21 3.683-7.343 4.614-10.724 1.97-.922-.722-1.597-1.622-2.171-2.63-1.093-1.939-2.226-3.862-3.342-5.793-.054-.1-.155-.186-.078-.388ZM32.623 15.745c.163-.108.31-.062.442-.062h7.017c3.746 0 6.088 4.002 4.234 7.251-1.97 3.444-3.97 6.871-5.955 10.307l-6.397 11.074c-.629 1.078-1.226 2.18-1.892 3.234-1.94 3.071-6.444 3.002-8.282-.124-1.24-2.11-2.45-4.234-3.668-6.359-.062-.109-.194-.225-.093-.419.419.303.83.597 1.318.768 1.698.582 3.536-.093 4.436-1.644 1.558-2.699 3.11-5.398 4.668-8.089 1.628-2.823 3.249-5.646 4.893-8.453.356-.605.744-1.202 1.093-1.807 1.256-2.18.512-4.444-1.535-5.475-.101-.054-.194-.078-.28-.202ZM14.4 15.68a6.37 6.37 0 0 1 6.39 6.382 6.394 6.394 0 0 1-6.382 6.414 6.4 6.4 0 0 1-6.413-6.414A6.387 6.387 0 0 1 14.4 15.68Z"/></svg>