<svg xmlns="http://www.w3.org/2000/svg" width="30" height="30" fill="none"><path fill="#736AE4" d="M27.5 3.75h-25A1.25 1.25 0 0 0 1.25 5v16.25A1.25 1.25 0 0 0 2.5 22.5h5.838l-1.25 1.825A1.25 1.25 0 0 0 7 25.575a1.25 1.25 0 0 0 1.1.675h13.825a1.25 1.25 0 0 0 1.1-.675 1.25 1.25 0 0 0-.087-1.25L16.024 14.5a1.25 1.25 0 0 0-2.05 0L9.2 21.25H2.5V5h25v16.25h-3.125a.624.624 0 1 0 0 1.25H27.5a1.25 1.25 0 0 0 1.25-1.25V5a1.25 1.25 0 0 0-1.25-1.25ZM15 15.188l.512-.35-.512.35L21.925 25H8.075L15 15.187Z"/></svg>