<svg width="28" height="27" viewBox="0 0 28 27" fill="none" xmlns="http://www.w3.org/2000/svg">
<path d="M0.666748 19.4666V2.06663C0.666748 1.75551 0.811193 1.4444 1.10008 1.13329C1.38897 0.822181 1.68897 0.666626 2.00008 0.666626H19.3001C19.6334 0.666626 19.9445 0.816626 20.2334 1.11663C20.5223 1.41663 20.6667 1.73329 20.6667 2.06663V13.9333C20.6667 14.2444 20.5223 14.5555 20.2334 14.8666C19.9445 15.1777 19.6334 15.3333 19.3001 15.3333H6.00008L1.53341 19.8C1.37786 19.9555 1.19453 19.9944 0.983415 19.9166C0.772304 19.8388 0.666748 19.6888 0.666748 19.4666ZM7.36675 22C7.05564 22 6.75008 21.8444 6.45008 21.5333C6.15008 21.2222 6.00008 20.9111 6.00008 20.6V17.3333H22.6667V5.99996H26.0001C26.3112 5.99996 26.6112 6.15551 26.9001 6.46663C27.189 6.77774 27.3334 7.09996 27.3334 7.43329V26.1C27.3334 26.3222 27.2279 26.4722 27.0167 26.55C26.8056 26.6277 26.6223 26.5888 26.4667 26.4333L22.0334 22H7.36675ZM18.6667 2.66663H2.66675V13.3333H18.6667V2.66663Z" fill="#EBEBEB"/>
</svg>
