<svg width="162" height="31" viewBox="0 0 162 31" fill="none" xmlns="http://www.w3.org/2000/svg">
<path d="M24.7084 1.76465H9.7285L2 15.1226M24.7084 1.76465L17.457 15.1226M24.7084 1.76465L33.1048 15.1226L25.3763 28.5759M17.457 15.1226H2M17.457 15.1226L25.3763 28.5759M2 15.1226L9.7285 28.5759H25.3763" stroke="#F2F3ED" stroke-width="2.13497"/>
<path d="M31.8691 1.76489H46.8491L55.2455 15.1228M31.8691 1.76489L24.1406 15.1228L31.8691 28.5762M31.8691 1.76489L39.5976 15.1228M39.5976 15.1228L31.8691 28.5762M39.5976 15.1228H47.4215H55.2455M31.8691 28.5762H47.517L55.2455 15.1228" stroke="#F2F3ED" stroke-width="2.13497"/>
<path d="M79.8988 17.8731C79.8988 18.8195 79.6579 19.6454 79.1761 20.3509C78.6943 21.0564 78.0404 21.607 77.2145 22.0028C76.4057 22.3985 75.511 22.5964 74.5302 22.5964H65.832V4.2709H74.9431C75.8035 4.2709 76.5434 4.50319 77.1628 4.96778C77.7995 5.41517 78.2813 6.00021 78.6082 6.7229C78.9524 7.42839 79.1244 8.16829 79.1244 8.94261C79.1244 9.83738 78.8921 10.6805 78.4276 11.472C77.9802 12.2464 77.3349 12.8228 76.4918 13.2014C77.5414 13.5111 78.3673 14.0875 78.9696 14.9307C79.589 15.7566 79.8988 16.7374 79.8988 17.8731ZM77.55 17.4601C77.55 16.8923 77.4209 16.3674 77.1628 15.8857C76.9219 15.4039 76.5864 15.0167 76.1562 14.7242C75.7433 14.4317 75.2615 14.2854 74.7108 14.2854H68.155V20.5832H74.5302C75.098 20.5832 75.6056 20.4369 76.053 20.1444C76.5176 19.8519 76.8789 19.4733 77.137 19.0087C77.4123 18.5269 77.55 18.0107 77.55 17.4601ZM68.155 6.28412V12.4012H73.9881C74.5388 12.4012 75.0206 12.2636 75.4335 11.9883C75.8637 11.7129 76.1992 11.343 76.4401 10.8784C76.6983 10.4138 76.8273 9.9062 76.8273 9.35558C76.8273 8.77054 76.7069 8.25433 76.466 7.80695C76.2423 7.34236 75.9239 6.9724 75.511 6.69709C75.1152 6.42178 74.6592 6.28412 74.143 6.28412H68.155Z" fill="#F2F3ED"/>
<path d="M83.1483 22.6701V4.2709H85.4712V20.5316H95.6922V22.6701H83.1483Z" fill="#F2F3ED"/>
<path d="M105.1 22.7255C103.81 22.7255 102.639 22.4673 101.59 21.9511C100.54 21.4349 99.6283 20.738 98.8539 19.8605C98.0968 18.9657 97.5118 17.9677 97.0988 16.8665C96.6859 15.748 96.4794 14.6037 96.4794 13.4336C96.4794 12.2119 96.6945 11.0505 97.1246 9.94922C97.572 8.83077 98.1829 7.84136 98.9572 6.98101C99.7487 6.10345 100.669 5.41517 101.719 4.91616C102.769 4.39995 103.913 4.14185 105.152 4.14185C106.442 4.14185 107.612 4.40856 108.662 4.94197C109.712 5.47539 110.615 6.18948 111.372 7.08425C112.129 7.97902 112.714 8.97702 113.127 10.0783C113.54 11.1795 113.747 12.3066 113.747 13.4595C113.747 14.6812 113.532 15.8512 113.101 16.9697C112.671 18.0709 112.06 19.0604 111.269 19.9379C110.494 20.7983 109.583 21.4779 108.533 21.9769C107.483 22.476 106.339 22.7255 105.1 22.7255ZM98.8281 13.4336C98.8281 14.3628 98.9744 15.2662 99.2669 16.1438C99.5766 17.0041 100.007 17.7698 100.557 18.4409C101.108 19.112 101.771 19.6454 102.545 20.0412C103.319 20.4369 104.18 20.6348 105.126 20.6348C106.107 20.6348 106.984 20.4283 107.759 20.0153C108.533 19.6024 109.187 19.0517 109.72 18.3635C110.271 17.6752 110.684 16.9009 110.959 16.0405C111.252 15.1802 111.398 14.3112 111.398 13.4336C111.398 12.5045 111.243 11.6097 110.933 10.7493C110.641 9.889 110.211 9.12329 109.643 8.45221C109.092 7.76393 108.43 7.23051 107.655 6.85196C106.898 6.45619 106.055 6.25831 105.126 6.25831C104.145 6.25831 103.268 6.4648 102.493 6.87777C101.719 7.27353 101.056 7.81555 100.506 8.50383C99.9724 9.19211 99.5594 9.96643 99.2669 10.8268C98.9744 11.6699 98.8281 12.5389 98.8281 13.4336Z" fill="#F2F3ED"/>
<path d="M152.661 4.1416H154.6L162 22.6699H159.55L157.407 17.2419H149.804L147.686 22.6699H145.236L152.661 4.1416ZM156.897 15.4151L153.631 6.8556L150.263 15.4151H156.897Z" fill="#F2F3ED"/>
<path d="M118.248 4.14185L123.771 11.7302L129.295 4.14185H131.902L125.062 13.4337L132.004 22.6701H129.357L123.771 15.1372L118.328 22.6701H115.682L122.455 13.4337L115.615 4.14185H118.248Z" fill="#F2F3ED"/>
<path d="M145.752 4.1416H143.029L129.355 22.6699H132.002L145.752 4.1416Z" fill="#F2F3ED"/>
<path d="M129.355 4.1416H132.035L147.884 26.1991H144.354L129.355 4.1416Z" fill="#F2F3ED"/>
</svg>
