<svg width="383" height="364" viewBox="0 0 383 364" fill="none" xmlns="http://www.w3.org/2000/svg">
<g clip-path="url(#clip0_3868_2328)">
<path d="M0 136.543C0.00174734 135.8 0.230238 135.076 0.654887 134.467C1.07954 133.858 1.68008 133.394 2.37612 133.135C3.48107 132.668 4.6516 132.373 5.84633 132.263C30.3112 131.178 54.7858 130.306 79.2507 129.226C98.0187 128.397 116.772 127.299 135.54 126.421C142.466 126.094 145.156 128.908 144.953 135.916C144.953 136.639 144.886 137.362 144.886 138.08C144.736 171.886 144.216 205.691 144.582 239.492C144.842 263.408 146.283 287.313 147.247 311.219C147.729 322.931 148.341 334.638 148.848 346.35C149.021 350.423 147.402 353.146 144.51 354.11C141.03 355.252 137.28 353.84 135.208 350.543C134.851 350.031 134.609 349.447 134.499 348.832C134.186 346.287 133.844 343.738 133.733 341.179C133.251 330.093 132.899 319.056 132.436 307.995C132.166 301.667 131.776 295.348 131.472 289.024C131.15 282.87 130.802 276.72 130.508 270.565C130.152 262.805 129.761 255.045 129.545 247.276C129.159 234.374 128.894 221.466 128.581 208.564C128.431 202.718 128.022 196.866 128.099 191.025C128.234 177.467 128.619 163.909 128.788 150.356C128.807 148.684 128.408 147.034 127.626 145.556C126.445 143.401 124.522 142.037 121.79 142.182C111.369 142.707 100.949 143.17 90.524 143.666C89.001 143.734 87.4828 143.869 85.9598 143.922C73.5281 144.378 61.0996 144.828 48.6744 145.271C34.5622 145.777 20.4549 146.37 6.33793 146.717C4.99558 146.672 3.67205 146.388 2.42914 145.879C1.72292 145.627 1.11193 145.163 0.680348 144.551C0.248763 143.938 0.0178079 143.206 0.019283 142.457L0 136.543Z" fill="url(#paint0_linear_3868_2328)"/>
<path d="M382.204 143.145C381.963 145.579 380.377 146.288 378.213 146.23L344.769 145.305L344.287 145.276C320.558 144.264 296.829 143.242 273.1 142.21C270.305 142.085 267.895 142.755 266.473 145.102C265.555 146.663 265.057 148.435 265.027 150.245C265.027 159.157 265.509 168.078 265.408 176.98C265.065 203.97 264.834 230.961 263.962 257.898C263.229 280.681 261.663 303.435 260.472 326.203C260.092 333.496 259.783 340.797 259.349 348.09C259.166 351.184 257.06 353.04 254.399 353.941C253.194 354.386 251.893 354.509 250.625 354.298C249.357 354.087 248.166 353.548 247.17 352.736C244.996 351.015 244.885 348.639 244.977 346.22C246.77 297.377 249.927 248.567 249.946 199.652C249.946 178.132 249.348 156.612 248.982 135.097C248.905 130.484 250.221 127.992 253.672 126.84C254.661 126.516 255.702 126.374 256.742 126.421C274.228 127.25 291.704 128.156 309.19 128.966C328.035 129.837 346.883 130.664 365.735 131.448C369.422 131.607 373.128 131.564 376.82 131.853C379.163 132.036 381.761 132.234 382.204 135.444V143.145Z" fill="url(#paint1_linear_3868_2328)"/>
<path d="M298.823 0C300.149 1.70136 301.888 3.2244 302.713 5.14265C304.289 8.80564 301.334 13.1868 297.329 13.6013C296.206 13.6844 295.08 13.7069 293.955 13.6687C245.165 13.3314 196.375 12.8253 147.585 12.7385C128.504 12.7048 109.408 13.5964 90.3219 14.1218C85.8058 14.2423 82.9284 12.6132 81.6753 8.90685C80.7113 5.99092 82.2536 2.8581 85.8202 0.554268C85.9985 0.393555 86.1512 0.206661 86.2733 0H298.823Z" fill="url(#paint2_linear_3868_2328)"/>
<path d="M382.204 206.632C382.204 207.229 382.035 212.647 381.659 213.109C380.888 214.073 376.777 214.175 375.466 214.199C359.811 214.493 347.054 214.946 331.399 215.042C326.536 215.076 322.724 218.295 322.54 223.631C322.208 233.184 321.986 242.736 321.499 252.275C320.343 274.725 319.11 297.169 317.803 319.606C317.542 324.103 314.193 327.072 309.961 326.927C306.332 326.802 303.734 324.243 303.816 320.599C303.888 317.476 304.298 314.357 304.457 311.229C306.063 277.228 307.67 243.221 309.277 209.21C309.441 207.095 310.039 205.037 311.031 203.162C312.062 201.142 314.087 200.318 316.463 200.299C336.773 200.106 354.674 199.846 374.989 199.687C376.83 199.687 381.327 199.735 382.054 201.942" fill="url(#paint3_linear_3868_2328)"/>
<path d="M203.272 362.8C201.765 363.554 200.109 363.964 198.425 363.999C196.74 364.034 195.069 363.693 193.532 363.003L193.088 362.8C191.869 362.8 190.847 359.908 190.842 358.679C190.601 277.31 190.373 195.937 190.158 114.56C190.129 101.547 190.5 88.5339 190.664 75.5206C190.707 72.1806 190.476 71.8818 187.088 72.0167C159.321 73.1301 131.579 74.2241 103.798 75.4628C80.3741 76.5039 56.9502 77.7329 33.5264 78.8366C29.5404 79.0246 27.6945 77.4534 26.1859 74.0169C24.6773 70.5804 28.1427 65.0667 31.8105 64.9317C36.5387 64.7486 41.2668 64.3967 45.9998 64.2184C57.8708 63.775 69.7514 63.4713 81.6224 62.946C93.6476 62.4158 105.663 61.6157 117.684 61.0759C134.032 60.3385 150.376 59.5481 166.729 59.148C183.743 58.7191 200.771 58.56 217.789 58.5841C228.46 58.5841 239.131 59.1336 249.802 59.5095C256.549 59.7473 263.279 60.059 269.992 60.4446C290.234 61.5724 310.516 62.8014 330.788 63.8714C337.121 64.2039 343.473 64.1172 349.816 64.2955C355.2 64.4497 359.007 69.0719 357.677 73.7277C356.776 76.8846 354.24 78.745 350.529 78.586C338.812 78.104 327.105 77.4871 315.389 76.9328C280.895 75.307 246.401 73.7004 211.904 72.1131C205.672 71.8336 205.957 71.0335 205.991 77.8968C206.236 127.217 206.627 176.537 206.554 225.862C206.487 270.04 205.885 314.217 205.513 358.405C205.513 358.501 205.513 358.597 205.513 358.694C205.48 359.908 204.487 362.8 203.272 362.8Z" fill="url(#paint4_linear_3868_2328)"/>
<path d="M46.0782 200.596C58.6817 200.596 71.2901 200.567 83.8937 200.596C88.4917 200.596 91.4607 203.44 91.6583 208.173C91.986 215.956 91.9474 223.755 92.3571 231.534C93.9637 262.332 95.6361 293.128 97.3745 323.923C97.5287 326.728 97.5817 329.538 97.7263 332.348C97.8805 335.346 96.6226 337.65 93.8705 338.657C91.1185 339.664 88.1206 339.448 86.1349 337.023C84.9058 335.515 83.831 333.437 83.7009 331.548C82.8285 318.578 82.255 305.594 81.5272 292.614C80.9055 281.24 80.2018 269.87 79.5993 258.495C79.0017 246.875 78.4908 235.25 77.9751 223.625C77.7726 218.993 74.8615 215.855 70.1719 215.629C65.4824 215.402 60.6964 215.412 55.9586 215.32C39.6583 215.007 20.471 214.699 4.17066 214.39C-0.311686 214.303 -0.0610596 211.59 -0.196012 207.271C-0.316505 203.391 -0.0900127 200.533 4.46463 200.5C17.3959 200.398 33.1468 200.596 46.0782 200.596Z" fill="url(#paint5_linear_3868_2328)"/>
</g>
<defs>
<linearGradient id="paint0_linear_3868_2328" x1="74.4301" y1="126.396" x2="74.4301" y2="354.501" gradientUnits="userSpaceOnUse">
<stop/>
<stop offset="1" stop-opacity="0"/>
</linearGradient>
<linearGradient id="paint1_linear_3868_2328" x1="313.58" y1="126.412" x2="313.58" y2="354.399" gradientUnits="userSpaceOnUse">
<stop/>
<stop offset="1" stop-opacity="0"/>
</linearGradient>
<linearGradient id="paint2_linear_3868_2328" x1="192.269" y1="0" x2="192.269" y2="14.128" gradientUnits="userSpaceOnUse">
<stop/>
<stop offset="1" stop-opacity="0"/>
</linearGradient>
<linearGradient id="paint3_linear_3868_2328" x1="343.009" y1="199.687" x2="343.009" y2="326.932" gradientUnits="userSpaceOnUse">
<stop/>
<stop offset="1" stop-opacity="0"/>
</linearGradient>
<linearGradient id="paint4_linear_3868_2328" x1="191.884" y1="58.5818" x2="191.884" y2="364.001" gradientUnits="userSpaceOnUse">
<stop/>
<stop offset="1" stop-opacity="0"/>
</linearGradient>
<linearGradient id="paint5_linear_3868_2328" x1="48.7605" y1="200.471" x2="48.7605" y2="339.223" gradientUnits="userSpaceOnUse">
<stop/>
<stop offset="1" stop-opacity="0"/>
</linearGradient>
<clipPath id="clip0_3868_2328">
<rect width="382.204" height="364" fill="white"/>
</clipPath>
</defs>
</svg>
