<svg width="886" height="661" viewBox="0 0 886 661" fill="none" xmlns="http://www.w3.org/2000/svg">
<g style="mix-blend-mode:luminosity" opacity="0.56" clip-path="url(#clip0_44_155)">
<path opacity="0.5" d="M-10.345 -96.3492L-10.0678 -96.1782L59.1094 -53.9396L59.1094 30.8551L58.8321 31.0261L-10.345 73.2646L-10.6223 73.0937L-79.7994 30.8551L-79.7994 -53.9396L-79.5222 -54.1106L-10.345 -96.3492ZM58.0234 -53.28L-10.345 -95.0055L-78.7135 -53.28L-78.7135 30.1711L-10.345 71.8966L58.0234 30.1711L58.0234 -53.28Z" fill="#D0D9DD"/>
<path opacity="0.5" d="M-10.345 240.167L59.1094 282.577L59.1094 367.372L58.8321 367.543L-10.345 409.781L-79.7994 367.372L-79.7994 282.577L-79.5222 282.406L-10.345 240.167ZM58.0234 283.237L-10.345 241.511L-78.7135 283.237L-78.7135 366.688L-10.345 408.413L58.0234 366.688L58.0234 283.237Z" fill="#D0D9DD"/>
<path opacity="0.5" d="M-10.345 324.303L59.1094 366.713L59.1094 451.507L58.8321 451.678L-10.345 493.917L-79.7994 451.507L-79.7994 366.713L-79.5222 366.542L-10.345 324.303ZM58.0234 367.372L-10.345 325.647L-78.7135 367.372L-78.7135 450.823L-10.345 492.549L58.0234 450.823L58.0234 367.372Z" fill="#D0D9DD"/>
<path opacity="0.5" d="M58.5546 -54.2808L58.8318 -54.1098L128.009 -11.8712L128.009 72.9235L127.732 73.0945L58.5546 115.333L58.2773 115.162L-10.8998 72.9235L-10.8998 -11.8712L-10.6226 -12.0423L58.5546 -54.2808ZM126.923 -11.2117L58.5546 -52.9373L-9.81389 -11.2117L-9.8139 72.2394L58.5546 113.965L126.923 72.2394L126.923 -11.2117Z" fill="#D0D9DD"/>
<g opacity="0.5">
<path d="M58.5544 534.617L128.009 577.026L128.009 661.821L127.732 661.992L58.5544 704.23L-10.9 661.821L-10.9 577.026L-10.6228 576.855L58.5544 534.617ZM126.923 577.686L58.5544 535.96L-9.81408 577.686L-9.81408 661.137L58.5544 702.862L126.923 661.137L126.923 577.686Z" fill="#D0D9DD"/>
</g>
<path opacity="0.5" d="M127.455 -96.3482L127.732 -96.1772L196.909 -53.9386L196.909 30.8561L196.632 31.0271L127.455 73.2656L127.177 73.0947L58.0004 30.8561L58.0004 -53.9386L58.2776 -54.1096L127.455 -96.3482ZM195.823 -53.279L127.455 -95.0046L59.0863 -53.2791L59.0862 30.172L127.455 71.8976L195.823 30.1721L195.823 -53.279Z" fill="#D0D9DD"/>
<path opacity="0.5" d="M127.455 -12.2135L127.732 -12.0424L196.909 30.1962L196.909 114.991L196.632 115.162L127.455 157.4L58.0004 114.991L58.0004 30.1961L58.2776 30.0251L127.455 -12.2135ZM195.823 30.8557L127.455 -10.8699L59.0863 30.8557L59.0862 114.307L127.455 156.032L195.823 114.307L195.823 30.8557Z" fill="#D0D9DD"/>
<path opacity="0.5" d="M127.455 240.167L196.909 282.577L196.909 367.372L196.632 367.543L127.455 409.781L58.0003 367.372L58.0003 282.577L58.2776 282.406L127.455 240.167ZM195.823 283.237L127.455 241.511L59.0862 283.237L59.0862 366.688L127.455 408.413L195.823 366.688L195.823 283.237Z" fill="#D0D9DD"/>
<path opacity="0.5" d="M334.177 113.965L334.455 114.136L403.632 156.375L403.632 241.17L403.355 241.341L334.177 283.579L264.723 241.17L264.723 156.375L265 156.204L334.177 113.965ZM402.546 157.034L334.177 115.309L265.809 157.034L265.809 240.485L334.177 282.211L402.546 240.486L402.546 157.034Z" fill="#D0D9DD"/>
<path opacity="0.5" d="M403.1 -96.3482L403.378 -96.1772L472.555 -53.9386L472.555 30.8561L472.277 31.0271L403.1 73.2656L402.823 73.0947L333.646 30.8561L333.646 -53.9386L333.923 -54.1096L403.1 -96.3482ZM471.469 -53.279L403.1 -95.0046L334.732 -53.2791L334.732 30.172L403.1 71.8976L471.469 30.1721L471.469 -53.279Z" fill="#D0D9DD"/>
<path opacity="0.5" d="M403.1 156.033L472.555 198.442L472.555 283.237L472.277 283.408L403.1 325.646L333.646 283.237L333.646 198.442L333.923 198.271L403.1 156.033ZM471.469 199.102L403.1 157.376L334.732 199.102L334.732 282.553L403.1 324.278L471.469 282.553L471.469 199.102Z" fill="#D0D9DD"/>
<path opacity="0.5" d="M472 -54.2808L472.277 -54.1098L541.454 -11.8712L541.454 72.9235L541.177 73.0945L472 115.333L471.722 115.162L402.545 72.9235L402.545 -11.8712L402.823 -12.0423L472 -54.2808ZM540.368 -11.2117L472 -52.9373L403.631 -11.2117L403.631 72.2394L472 113.965L540.368 72.2394L540.368 -11.2117Z" fill="#D0D9DD"/>
<path opacity="0.5" d="M196.377 -54.2808L196.654 -54.1098L265.831 -11.8712L265.831 72.9235L265.554 73.0945L196.377 115.333L196.099 115.162L126.922 72.9235L126.922 -11.8712L127.2 -12.0423L196.377 -54.2808ZM264.745 -11.2117L196.377 -52.9373L128.008 -11.2117L128.008 72.2394L196.377 113.965L264.745 72.2394L264.745 -11.2117Z" fill="#D0D9DD"/>
<path opacity="0.5" d="M196.378 366.371L265.832 408.78L265.832 493.575L265.555 493.746L196.378 535.984L126.923 493.575L126.923 408.78L127.201 408.609L196.378 366.371ZM264.746 409.44L196.378 367.714L128.009 409.44L128.009 492.891L196.378 534.616L264.746 492.891L264.746 409.44Z" fill="#D0D9DD"/>
<path opacity="0.5" d="M196.377 198.1L265.831 240.51L265.831 325.304L265.554 325.475L196.377 367.714L126.922 325.304L126.922 240.51L127.199 240.339L196.377 198.1ZM264.745 241.169L196.377 199.444L128.008 241.169L128.008 324.62L196.377 366.346L264.745 324.62L264.745 241.169Z" fill="#D0D9DD"/>
<path opacity="0.5" d="M403.1 -12.2135L403.377 -12.0424L472.555 30.1962L472.555 114.991L472.277 115.162L403.1 157.4L333.646 114.991L333.646 30.1961L333.923 30.0251L403.1 -12.2135ZM471.469 30.8557L403.1 -10.8699L334.732 30.8557L334.732 114.307L403.1 156.032L471.469 114.307L471.469 30.8557Z" fill="#D0D9DD"/>
<path d="M609.823 -139.418L610.239 -139.174L679.555 -96.8618L679.555 -11.7251L679.139 -11.4808L609.823 30.831L609.407 30.5867L540.091 -11.7251L540.091 -96.8618L540.507 -97.1061L609.823 -139.418ZM677.914 -95.8358L609.823 -137.39L541.732 -95.8358L541.732 -12.7267L609.823 28.8278L677.914 -12.7267L677.914 -95.8358Z" fill="white"/>
<path d="M196.378 113.647L196.794 113.892L266.109 156.204L266.109 241.34L265.693 241.585L196.378 283.896L126.646 241.34L126.646 156.204L127.062 155.959L196.378 113.647ZM264.469 157.23L196.378 115.675L128.286 157.23L128.286 240.339L196.378 281.893L264.469 240.339L264.469 157.23Z" fill="white"/>
<path d="M196.378 -138.733L196.794 -138.489L266.109 -96.1772L266.109 -11.0405L265.694 -10.7962L196.378 31.5156L195.962 31.2713L126.646 -11.0405L126.646 -96.1772L127.062 -96.4216L196.378 -138.733ZM264.469 -95.1512L196.378 -136.706L128.287 -95.1512L128.287 -12.0421L196.378 29.5124L264.469 -12.0421L264.469 -95.1512Z" fill="white"/>
<path d="M334.177 -54.623L334.593 -54.3788L403.909 -12.0669L403.909 73.0699L403.493 73.3142L334.177 115.626L333.762 115.382L264.446 73.0699L264.446 -12.0669L264.862 -12.3112L334.177 -54.623ZM402.269 -11.0408L334.177 -52.5954L266.086 -11.0408L266.086 72.0682L334.177 113.623L402.269 72.0682L402.269 -11.0408Z" fill="white"/>
<path d="M-10.3449 71.58L-9.92905 71.8243L59.3867 114.136L59.3867 199.273L58.9708 199.517L-10.3449 241.829L-80.0766 199.273L-80.0766 114.136L-79.6607 113.892L-10.3449 71.58ZM57.7463 115.162L-10.3449 73.6077L-78.4361 115.162L-78.4361 198.271L-10.3449 239.826L57.7463 198.271L57.7463 115.162Z" fill="white"/>
<path d="M-10.3449 155.69L59.3867 198.247L59.3867 283.383L58.9708 283.628L-10.3449 325.939L-80.0766 283.383L-80.0766 198.247L-79.6607 198.002L-10.3449 155.69ZM57.7463 199.273L-10.3449 157.718L-78.4361 199.273L-78.4361 282.382L-10.3449 323.936L57.7463 282.382L57.7463 199.273Z" fill="white"/>
<path d="M58.5545 29.5126L58.9704 29.7569L128.286 72.0688L128.286 157.206L127.87 157.45L58.5545 199.762L-11.1772 157.206L-11.1772 72.0688L-10.7613 71.8245L58.5545 29.5126ZM126.646 73.0949L58.5545 31.5403L-9.53672 73.0949L-9.53672 156.204L58.5545 197.758L126.646 156.204L126.646 73.0949Z" fill="white"/>
<path d="M58.5545 450.163L128.286 492.719L128.286 577.856L127.87 578.1L58.5545 620.412L-11.1772 577.856L-11.1772 492.719L-10.7613 492.475L58.5545 450.163ZM126.646 493.745L58.5545 452.191L-9.53672 493.745L-9.53672 576.854L58.5545 618.409L126.646 576.854L126.646 493.745Z" fill="white"/>
<path d="M127.455 71.58L127.871 71.8243L197.187 114.136L197.187 199.273L196.771 199.517L127.455 241.829L57.7231 199.273L57.7231 114.136L58.1391 113.892L127.455 71.58ZM195.546 115.162L127.455 73.6077L59.3637 115.162L59.3637 198.271L127.455 239.826L195.546 198.271L195.546 115.162Z" fill="white"/>
<path d="M127.455 323.961L197.187 366.517L197.187 451.654L196.771 451.898L127.455 494.21L57.7232 451.654L57.7232 366.517L58.1391 366.273L127.455 323.961ZM195.546 367.543L127.455 325.989L59.3637 367.543L59.3637 450.652L127.455 492.207L195.546 450.652L195.546 367.543Z" fill="white"/>
<path d="M472 29.5117L472.416 29.756L541.731 72.0678L541.731 157.205L541.316 157.449L472 199.761L402.268 157.205L402.268 72.0678L402.684 71.8235L472 29.5117ZM540.091 73.0939L472 31.5393L403.909 73.0939L403.909 156.203L472 197.758L540.091 156.203L540.091 73.0939Z" fill="white"/>
<path d="M472 197.758L541.731 240.314L541.731 325.451L541.316 325.695L472 368.007L402.268 325.451L402.268 240.314L402.684 240.07L472 197.758ZM540.091 241.34L472 199.785L403.909 241.34L403.909 324.449L472 366.004L540.091 324.449L540.091 241.34Z" fill="white"/>
<path opacity="0.5" d="M129.396 239.044L129.396 241.389L127.455 242.562L125.537 241.389L125.537 239.044L127.455 237.847L129.396 239.044Z" fill="#D0D9DD"/>
<path opacity="0.5" d="M129.048 323.276L129.048 325.231L127.454 326.208L125.859 325.231L125.859 323.276L127.454 322.299L129.048 323.276Z" fill="#D0D9DD"/>
<path opacity="0.5" d="M132.168 405.433L132.168 411.198L127.455 414.081L122.741 411.198L122.741 405.433L127.455 402.55L132.168 405.433Z" fill="#D0D9DD"/>
<path opacity="0.5" d="M132.26 489.421L132.26 495.284L127.454 498.216L122.671 495.284L122.671 489.421L127.454 486.49L132.26 489.421Z" fill="#D0D9DD"/>
<path opacity="0.5" d="M62.1816 111.497L62.1816 115.919L58.5541 118.142L54.9266 115.919L54.9266 111.497L58.5541 109.274L62.1816 111.497Z" fill="#D0D9DD"/>
<path opacity="0.5" d="M60.4023 196.585L60.4023 198.832L58.554 199.956L56.7055 198.832L56.7055 196.585L58.554 195.461L60.4023 196.585Z" fill="#D0D9DD"/>
<path opacity="0.5" d="M62.1123 363.512L62.1123 367.86L58.5541 370.034L54.9958 367.86L54.9958 363.512L58.5541 361.362L62.1123 363.512Z" fill="#D0D9DD"/>
<path opacity="0.5" d="M341.709 25.921L341.709 35.1065L334.177 39.6992L326.667 35.1065L326.667 25.921L334.177 21.3283L341.709 25.921Z" fill="#D0D9DD"/>
<path opacity="0.5" d="M272.81 67.5245L272.81 76.71L265.277 81.3027L257.768 76.71L257.768 67.5245L265.277 62.9318L272.81 67.5245Z" fill="#D0D9DD"/>
<path opacity="0.5" d="M405.572 238.702L405.572 241.731L403.1 243.246L400.605 241.731L400.605 238.702L403.1 237.163L405.572 238.702Z" fill="#D0D9DD"/>
<path opacity="0.5" d="M199.335 27.8999L199.335 31.5154L196.377 33.3232L193.397 31.5154L193.397 27.8999L196.377 26.0921L199.335 27.8999Z" fill="#D0D9DD"/>
<path opacity="0.5" d="M200.374 111.278L200.374 116.139L196.377 118.582L192.38 116.139L192.38 111.278L196.377 108.835L200.374 111.278Z" fill="#D0D9DD"/>
<path opacity="0.5" d="M544.62 69.8453L544.62 74.3648L540.9 76.6367L537.203 74.3648L537.203 69.8453L540.9 67.5979L544.62 69.8453Z" fill="#D0D9DD"/>
<path opacity="0.5" d="M547.947 235.917L547.947 244.491L540.9 248.791L533.876 244.491L533.876 235.917L540.9 231.642L547.947 235.917Z" fill="#D0D9DD"/>
<path opacity="0.5" d="M473.732 112.645L473.732 114.771L472 115.821L470.267 114.771L470.267 112.645L472 111.595L473.732 112.645Z" fill="#D0D9DD"/>
<path opacity="0.5" d="M476.99 278.644L476.99 284.751L472 287.805L467.009 284.751L467.009 278.644L472 275.59L476.99 278.644Z" fill="#D0D9DD"/>
<path opacity="0.5" d="M613.45 27.5085L613.45 31.9302L609.823 34.1533L606.195 31.9302L606.195 27.5085L609.823 25.2854L613.45 27.5085Z" fill="#D0D9DD"/>
<path opacity="0.5" d="M272.07 404.944L272.07 413.226L265.277 417.379L258.484 413.226L258.484 404.944L265.277 400.815L272.07 404.944Z" fill="#D0D9DD"/>
<path d="M410.609 151.562L410.609 160.747L403.1 165.34L395.568 160.747L395.568 151.562L403.1 146.969L410.609 151.562Z" fill="white"/>
<path d="M407.074 321.835L407.074 326.696L403.1 329.115L399.126 326.696L399.126 321.835L403.1 319.392L407.074 321.835Z" fill="white"/>
<path d="M132.768 68.8679L132.768 75.3417L127.454 78.5908L122.163 75.3417L122.163 68.8679L127.454 65.6432L132.768 68.8679Z" fill="white"/>
<path d="M130.25 574.705L130.25 578.1L127.454 579.81L124.682 578.1L124.682 574.705L127.454 573.019L130.25 574.705Z" fill="white"/>
<path d="M133.3 656.885L133.3 664.018L127.454 667.585L121.632 664.018L121.632 656.885L127.454 653.343L133.3 656.885Z" fill="white"/>
<path d="M60.4717 28.5348L60.4717 30.9045L58.554 32.0771L56.6362 30.9045L56.6362 28.5348L58.554 27.3623L60.4717 28.5348Z" fill="white"/>
<path d="M63.6144 278.619L63.6144 284.775L58.5544 287.878L53.4943 284.775L53.4943 278.619L58.5544 275.517L63.6144 278.619Z" fill="white"/>
<path d="M62.8057 447.085L62.8057 452.288L58.5543 454.902L54.3029 452.288L54.3029 447.085L58.5543 444.495L62.8057 447.085Z" fill="white"/>
<path d="M60.749 532.344L60.749 535.031L58.5541 536.375L56.359 535.031L56.359 532.344L58.5541 531.001L60.749 532.344Z" fill="white"/>
<path d="M60.9805 617.944L60.9805 620.9L58.5544 622.366L56.1283 620.9L56.1284 617.944L58.5544 616.454L60.9805 617.944Z" fill="white"/>
<path d="M199.958 195.51L199.958 199.883L196.377 202.082L192.795 199.883L192.795 195.51L196.377 193.336L199.958 195.51Z" fill="white"/>
<path d="M198.757 280.256L198.757 283.163L196.377 284.604L193.997 283.163L193.997 280.256L196.377 278.79L198.757 280.256Z" fill="white"/>
<path d="M199.034 364.074L199.034 367.323L196.377 368.96L193.697 367.323L193.697 364.074L196.377 362.437L199.034 364.074Z" fill="white"/>
<path d="M200.975 446.865L200.975 452.508L196.377 455.317L191.756 452.508L191.756 446.865L196.377 444.055L200.975 446.865Z" fill="white"/>
<path d="M200.397 531.245L200.397 536.131L196.377 538.598L192.357 536.131L192.357 531.245L196.377 528.777L200.397 531.245Z" fill="white"/>
<path d="M545.937 153.101L545.937 159.232L540.9 162.286L535.886 159.232L535.886 153.101L540.9 150.023L545.937 153.101Z" fill="white"/>
<path d="M475.396 195.633L475.396 199.786L472 201.862L468.604 199.786L468.604 195.633L472 193.556L475.396 195.633Z" fill="white"/>
<path d="M475.858 363.34L475.858 368.055L472 370.425L468.141 368.055L468.141 363.34L472 360.971L475.858 363.34Z" fill="white"/>
</g>
<defs>
<clipPath id="clip0_44_155">
<rect width="886" height="661" fill="white" transform="translate(886 661) rotate(-180)"/>
</clipPath>
</defs>
</svg>
