<svg width="574" height="661" viewBox="0 0 574 661" fill="none" xmlns="http://www.w3.org/2000/svg">
<g style="mix-blend-mode:luminosity" opacity="0.56" clip-path="url(#clip0_44_348)">
<path opacity="0.5" d="M311.489 485.527L374.184 521.754L374.184 594.186L373.933 594.332L311.489 630.413L248.795 594.186L248.795 521.754L249.045 521.608L311.489 485.527ZM373.203 522.317L311.489 486.675L249.775 522.317L249.775 593.602L311.489 629.244L373.203 593.602L373.203 522.317Z" fill="#D0D9DD"/>
<path opacity="0.5" d="M498.091 449.593L560.785 485.819L560.785 558.252L560.535 558.398L498.091 594.479L435.397 558.252L435.397 485.819L435.647 485.673L498.091 449.593ZM559.805 486.383L498.091 450.74L436.377 486.383L436.377 557.667L498.091 593.31L559.805 557.668L559.805 486.383Z" fill="#D0D9DD"/>
<path opacity="0.5" d="M498.092 162.158L498.342 162.304L560.786 198.385L560.786 270.817L560.536 270.963L498.092 307.044L435.398 270.817L435.398 198.385L435.648 198.239L498.092 162.158ZM559.806 198.948L498.092 163.306L436.378 198.948L436.378 270.233L498.092 305.875L559.806 270.233L559.806 198.948Z" fill="#D0D9DD"/>
<path opacity="0.5" d="M435.898 557.396L498.592 593.623L498.592 666.056L498.342 666.202L435.898 702.282L373.203 666.056L373.203 593.623L373.454 593.477L435.898 557.396ZM497.612 594.186L435.898 558.544L374.184 594.186L374.184 665.471L435.898 701.114L497.612 665.471L497.612 594.186Z" fill="#D0D9DD"/>
<path opacity="0.5" d="M435.898 413.679L498.592 449.906L498.592 522.338L498.342 522.485L435.898 558.565L373.204 522.338L373.204 449.906L373.454 449.76L435.898 413.679ZM497.612 450.469L435.898 414.827L374.184 450.469L374.184 521.754L435.898 557.397L497.612 521.754L497.612 450.469Z" fill="#D0D9DD"/>
<path opacity="0.5" d="M435.898 341.81L498.592 378.037L498.592 450.469L498.342 450.615L435.898 486.696L373.204 450.469L373.204 378.037L373.454 377.891L435.898 341.81ZM497.612 378.6L435.898 342.958L374.184 378.6L374.184 449.885L435.898 485.527L497.612 449.885L497.612 378.6Z" fill="#D0D9DD"/>
<path opacity="0.5" d="M311.49 341.81L374.184 378.037L374.184 450.469L373.934 450.615L311.49 486.696L248.795 450.469L248.795 378.037L249.046 377.891L311.49 341.81ZM373.204 378.6L311.49 342.958L249.776 378.6L249.776 449.885L311.49 485.527L373.204 449.885L373.204 378.6Z" fill="#D0D9DD"/>
<path opacity="0.5" d="M435.898 126.223L436.148 126.369L498.592 162.45L498.592 234.883L498.342 235.029L435.898 271.109L373.203 234.883L373.203 162.45L373.454 162.304L435.898 126.223ZM497.612 163.014L435.898 127.371L374.184 163.014L374.184 234.298L435.898 269.941L497.612 234.298L497.612 163.014Z" fill="#D0D9DD"/>
<path opacity="0.5" d="M560.306 126.224L560.556 126.37L623 162.43L623 234.862L622.75 235.008L560.306 271.089L497.612 234.862L497.612 162.43L497.862 162.283L560.306 126.203L560.306 126.224ZM621.999 163.014L560.285 127.372L498.571 163.014L498.571 234.299L560.285 269.941L621.999 234.299L621.999 163.014Z" fill="#D0D9DD"/>
<path opacity="0.5" d="M373.704 305.876L436.398 342.102L436.398 414.535L436.148 414.681L373.704 450.761L311.01 414.535L311.01 342.102L311.26 341.956L373.704 305.876ZM435.418 342.666L373.704 307.023L311.99 342.666L311.99 413.95L373.704 449.593L435.418 413.95L435.418 342.666Z" fill="#D0D9DD"/>
<path opacity="0.5" d="M311.489 629.265L374.184 665.492L374.184 737.925L373.933 738.071L311.489 774.151L248.795 737.925L248.795 665.492L249.045 665.346L311.489 629.265ZM373.203 666.056L311.489 630.413L249.775 666.056L249.775 737.34L311.489 772.983L373.203 737.34L373.203 666.056Z" fill="#D0D9DD"/>
<path opacity="0.5" d="M249.296 521.462L311.99 557.688L311.99 630.121L311.74 630.267L249.296 666.348L186.602 630.121L186.602 557.688L186.852 557.542L249.296 521.462ZM311.01 558.252L249.296 522.609L187.582 558.252L187.582 629.537L249.296 665.179L311.01 629.537L311.01 558.252Z" fill="#D0D9DD"/>
<path opacity="0.5" d="M62.6945 629.265L125.389 665.492L125.389 737.925L125.138 738.071L62.6945 774.151L0.000300713 737.925L0.000307046 665.492L0.250574 665.346L62.6945 629.265ZM124.408 666.056L62.6945 630.413L0.980554 666.056L0.980548 737.34L62.6945 772.983L124.408 737.34L124.408 666.056Z" fill="#D0D9DD"/>
<path opacity="0.5" d="M498.092 -53.4494L498.342 -53.3034L560.786 -17.2227L560.786 55.2098L560.536 55.3559L498.092 91.4365L497.842 91.2904L435.398 55.2098L435.398 -17.2228L435.648 -17.3689L498.092 -53.4494ZM559.806 -16.6593L498.092 -52.3017L436.378 -16.6594L436.378 54.6255L498.092 90.2679L559.806 54.6255L559.806 -16.6593Z" fill="#D0D9DD"/>
<path opacity="0.5" d="M435.898 53.9578L436.148 54.1038L498.592 90.1845L498.592 162.617L498.342 162.763L435.898 198.844L435.647 198.698L373.203 162.617L373.203 90.1845L373.454 90.0384L435.898 53.9578ZM497.612 90.7479L435.898 55.1055L374.184 90.7479L374.184 162.033L435.898 197.675L497.612 162.033L497.612 90.7479Z" fill="#D0D9DD"/>
<path opacity="0.5" d="M435.898 269.941L498.592 306.168L498.592 378.6L498.342 378.746L435.898 414.827L373.204 378.6L373.204 306.168L373.454 306.022L435.898 269.941ZM497.612 306.731L435.898 271.089L374.184 306.731L374.184 378.016L435.898 413.659L497.612 378.016L497.612 306.731Z" fill="#D0D9DD"/>
<path d="M249.296 378.016L312.24 414.368L312.24 487.093L311.865 487.301L249.296 523.445L186.351 487.093L186.351 414.368L186.727 414.159L249.296 378.016ZM310.76 415.244L249.296 379.748L187.832 415.244L187.832 486.237L249.296 521.733L310.76 486.237L310.76 415.244Z" fill="white"/>
<path d="M498.092 305.583L561.036 341.935L561.036 414.66L560.661 414.868L498.092 451.012L435.147 414.66L435.147 341.935L435.523 341.726L498.092 305.583ZM559.555 342.812L498.092 307.315L436.628 342.812L436.628 413.804L498.092 449.301L559.555 413.804L559.555 342.812Z" fill="white"/>
<path d="M498.091 18.1066L498.466 18.3153L561.035 54.4586L561.035 127.183L560.66 127.392L498.091 163.535L497.715 163.326L435.146 127.183L435.146 54.4586L435.522 54.2499L498.091 18.1066ZM559.554 55.335L498.091 19.8387L436.627 55.335L436.627 126.328L498.091 161.824L559.554 126.328L559.554 55.335Z" fill="white"/>
<path d="M498.092 521.17L561.036 557.522L561.036 630.247L560.661 630.455L498.092 666.599L435.147 630.247L435.147 557.522L435.523 557.313L498.092 521.17ZM559.555 558.398L498.092 522.902L436.628 558.398L436.628 629.391L498.092 664.887L559.555 629.391L559.555 558.398Z" fill="white"/>
<path d="M435.897 628.974L498.842 665.326L498.842 738.05L498.466 738.259L435.897 774.402L372.953 738.05L372.953 665.326L373.328 665.117L435.897 628.974ZM497.361 666.202L435.897 630.706L374.434 666.202L374.434 737.195L435.897 772.691L497.361 737.195L497.361 666.202Z" fill="white"/>
<path d="M373.704 449.322L436.649 485.674L436.649 558.398L436.273 558.607L373.704 594.75L310.76 558.398L310.76 485.674L311.135 485.465L373.704 449.322ZM435.168 486.55L373.704 451.054L312.24 486.55L312.24 557.543L373.704 593.039L435.168 557.543L435.168 486.55Z" fill="white"/>
<path d="M373.704 233.736L374.079 233.944L436.648 270.087L436.648 342.812L436.273 343.021L373.704 379.164L310.759 342.812L310.759 270.087L311.135 269.879L373.704 233.736ZM435.168 270.964L373.704 235.468L312.24 270.964L312.24 341.957L373.704 377.453L435.168 341.957L435.168 270.964Z" fill="white"/>
<path d="M373.704 89.9963L374.079 90.205L436.648 126.348L436.648 199.073L436.273 199.282L373.704 235.425L373.329 235.216L310.759 199.073L310.759 126.348L311.135 126.14L373.704 89.9963ZM435.168 127.225L373.704 91.7283L312.24 127.225L312.24 198.217L373.704 233.714L435.168 198.217L435.168 127.225Z" fill="white"/>
<path d="M311.489 557.105L374.434 593.457L374.434 666.181L374.058 666.39L311.489 702.533L248.545 666.181L248.545 593.457L248.92 593.248L311.489 557.105ZM372.953 594.333L311.489 558.837L250.025 594.333L250.025 665.326L311.489 700.822L372.953 665.326L372.953 594.333Z" fill="white"/>
<path d="M187.102 628.974L250.047 665.325L250.047 738.05L249.671 738.259L187.102 774.402L124.158 738.05L124.158 665.325L124.533 665.117L187.102 628.974ZM248.566 666.202L187.102 630.706L125.639 666.202L125.639 737.195L187.102 772.691L248.566 737.195L248.566 666.202Z" fill="white"/>
<path opacity="0.5" d="M431.246 560.86L431.246 555.476L435.897 552.805L440.548 555.476L440.548 560.86L435.897 563.552L431.246 560.86Z" fill="#D0D9DD"/>
<path opacity="0.5" d="M431.1 489.137L431.1 483.607L435.897 480.852L440.694 483.607L440.694 489.137L435.897 491.912L431.1 489.137Z" fill="#D0D9DD"/>
<path opacity="0.5" d="M491.312 382.231L491.312 374.385L498.09 370.462L504.89 374.385L504.89 382.231L498.09 386.154L491.312 382.231Z" fill="#D0D9DD"/>
<path opacity="0.5" d="M553.507 346.714L553.507 338.867L560.306 334.944L567.084 338.867L567.084 346.714L560.306 350.637L553.507 346.714Z" fill="#D0D9DD"/>
<path opacity="0.5" d="M492.502 668.976L492.502 662.507L498.092 659.252L503.702 662.507L503.702 668.976L498.092 672.211L492.502 668.976Z" fill="#D0D9DD"/>
<path opacity="0.5" d="M307.757 416.747L307.757 412.427L311.49 410.257L315.244 412.427L315.244 416.747L311.49 418.917L307.757 416.747Z" fill="#D0D9DD"/>
<path opacity="0.5" d="M308.152 344.711L308.152 340.85L311.489 338.93L314.847 340.85L314.847 344.711L311.489 346.651L308.152 344.711Z" fill="#D0D9DD"/>
<path opacity="0.5" d="M305.149 202.85L305.149 195.525L311.489 191.873L317.851 195.525L317.851 202.85L311.489 206.522L305.149 202.85Z" fill="#D0D9DD"/>
<path opacity="0.5" d="M370.408 452.639L370.408 448.841L373.704 446.942L376.999 448.841L376.999 452.639L373.704 454.559L370.408 452.639Z" fill="#D0D9DD"/>
<path opacity="0.5" d="M372.139 308.149L372.139 306.334L373.703 305.436L375.268 306.334L375.268 308.149L373.703 309.067L372.139 308.149Z" fill="#D0D9DD"/>
<path opacity="0.5" d="M369.178 166.352L369.178 161.135L373.704 158.527L378.209 161.135L378.209 166.352L373.704 168.961L369.178 166.352Z" fill="#D0D9DD"/>
<path opacity="0.5" d="M182.847 632.437L182.847 627.512L187.102 625.05L191.356 627.512L191.356 632.437L187.102 634.899L182.847 632.437Z" fill="#D0D9DD"/>
<path opacity="0.5" d="M182.472 560.84L182.472 555.497L187.102 552.847L191.711 555.497L191.711 560.84L187.102 563.511L182.472 560.84Z" fill="#D0D9DD"/>
<path opacity="0.5" d="M244.876 668.56L244.876 663.426L249.297 660.88L253.719 663.426L253.719 668.56L249.297 671.105L244.876 668.56Z" fill="#D0D9DD"/>
<path opacity="0.5" d="M246.021 380.895L246.021 377.097L249.296 375.219L252.57 377.097L252.57 380.895L249.296 382.773L246.021 380.895Z" fill="#D0D9DD"/>
<path opacity="0.5" d="M57.0213 633.251L57.0213 626.699L62.6942 623.401L68.3672 626.699L68.3672 633.251L62.6942 636.527L57.0213 633.251Z" fill="#D0D9DD"/>
<path opacity="0.5" d="M118.548 669.665L118.548 662.32L124.889 658.647L131.25 662.32L131.25 669.665L124.889 673.338L118.548 669.665Z" fill="#D0D9DD"/>
<path opacity="0.5" d="M554.174 58.4651L554.174 51.3909L560.306 47.8642L566.438 51.3909L566.438 58.4651L560.306 62.0127L554.174 58.4651Z" fill="#D0D9DD"/>
<path d="M433.665 200.491L433.665 197.904L435.897 196.589L438.149 197.904L438.149 200.491L435.897 201.785L433.665 200.491Z" fill="white"/>
<path d="M431.434 417.163L431.434 412.009L435.897 409.421L440.36 412.009L440.36 417.163L435.897 419.751L431.434 417.163Z" fill="white"/>
<path d="M369.24 381.229L369.24 376.074L373.704 373.487L378.167 376.074L378.167 381.229L373.704 383.816L369.24 381.229Z" fill="white"/>
<path d="M555.842 489.012L555.842 483.858L560.305 481.27L564.769 483.858L564.769 489.012L560.305 491.6L555.842 489.012Z" fill="white"/>
<path d="M429.119 274.907L429.119 267.061L435.897 263.137L442.696 267.061L442.696 274.907L435.897 278.83L429.119 274.907Z" fill="white"/>
<path d="M432.31 129.479L432.31 125.326L435.897 123.239L439.484 125.326L439.484 129.479L435.897 131.545L432.31 129.479Z" fill="white"/>
<path d="M308.882 487.885L308.882 484.859L311.489 483.357L314.117 484.859L314.117 487.885L311.489 489.408L308.882 487.885Z" fill="white"/>
<path d="M494.879 237.365L494.879 233.63L498.091 231.773L501.323 233.63L501.323 237.365L498.091 239.223L494.879 237.365Z" fill="white"/>
<path d="M308.069 631.957L308.069 627.992L311.489 626.01L314.931 627.992L314.931 631.957L311.489 633.919L308.069 631.957Z" fill="white"/>
<path d="M306.964 273.613L306.964 268.375L311.489 265.746L316.036 268.375L316.036 273.613L311.489 276.222L306.964 273.613Z" fill="white"/>
<path d="M367.405 669.624L367.405 662.361L373.703 658.71L380.002 662.361L380.002 669.624L373.703 673.275L367.405 669.624Z" fill="white"/>
<path d="M369.011 596.94L369.011 591.536L373.704 588.823L378.376 591.536L378.376 596.941L373.704 599.653L369.011 596.94Z" fill="white"/>
<path d="M555.613 632.667L555.613 627.262L560.306 624.549L564.978 627.262L564.978 632.667L560.306 635.38L555.613 632.667Z" fill="white"/>
<path d="M368.614 525.427L368.614 519.563L373.703 516.621L378.771 519.563L378.771 525.427L373.703 528.369L368.614 525.427Z" fill="white"/>
<path d="M370.618 237.282L370.618 233.713L373.705 231.94L376.771 233.713L376.771 237.282L373.705 239.056L370.618 237.282Z" fill="white"/>
<path d="M370.2 94.024L370.2 89.9757L373.704 87.9724L377.187 89.9757L377.187 94.024L373.704 96.0273L370.2 94.024Z" fill="white"/>
<path d="M184.87 487.656L184.87 485.089L187.102 483.816L189.313 485.089L189.313 487.656L187.102 488.929L184.87 487.656Z" fill="white"/>
<path d="M244.102 597.254L244.102 591.244L249.295 588.239L254.488 591.244L254.488 597.254L249.295 600.238L244.102 597.254Z" fill="white"/>
<path d="M246.876 523.903L246.876 521.085L249.296 519.687L251.715 521.085L251.715 523.903L249.296 525.301L246.876 523.903Z" fill="white"/>
</g>
<defs>
<clipPath id="clip0_44_348">
<rect width="574" height="661" fill="white" transform="translate(574 661) rotate(-180)"/>
</clipPath>
</defs>
</svg>
