<svg width="62" height="34" viewBox="0 0 62 34" fill="none" xmlns="http://www.w3.org/2000/svg">
<path d="M3.42966 14.9273C3.42966 15.5268 3.53496 16.1006 3.74555 16.6487C3.97234 17.1968 4.28822 17.6849 4.69321 18.1131C5.09819 18.5413 5.55987 18.8753 6.07825 19.1151C6.59663 19.3378 7.13931 19.4491 7.70628 19.4491V22.4808C6.41034 22.4808 5.21159 22.1468 4.11003 21.4788C3.02468 20.7937 2.16611 19.8688 1.53434 18.7041C0.886365 17.5565 0.562378 16.2975 0.562378 14.9273V0H3.42966V7.34802H7.70628V10.4054H3.42966V14.9273Z" fill="white"/>
<path d="M21.0603 10.6499C21.6599 10.9032 22.0389 11.1946 22.3615 11.6379L19.2117 14.2939V16.1557C19.2117 16.6075 19.735 16.8505 20.0723 16.5552L26.2649 11.1334C25.582 10.0525 24.0581 8.89336 22.9589 8.26844C21.8598 7.64352 20.669 7.33105 19.3866 7.33105C18.0542 7.33105 16.8218 7.66041 15.6893 8.31911C14.5402 8.9947 13.6325 9.90675 12.9663 11.0553C12.3168 12.2038 11.9921 13.4536 11.9921 14.8048C11.9921 16.156 12.3252 17.4227 12.9913 18.605C13.6575 19.7873 14.5568 20.7331 15.6893 21.4425C16.8385 22.1349 18.0709 22.4812 19.3866 22.4812H26.7561V19.4664H19.3866C18.787 19.4664 18.2208 19.3566 17.6878 19.137C17.1549 18.9174 16.6803 18.5965 16.2639 18.1743C15.8642 17.7689 15.5478 17.2622 15.3146 16.6542C15.0814 16.0462 14.9649 15.4297 14.9649 14.8048C14.9649 14.1967 15.0731 13.6225 15.2896 13.082C15.5228 12.5416 15.8475 12.0602 16.2639 11.6379C16.6803 11.2157 17.1549 10.8948 17.6878 10.6752C18.2208 10.4388 18.787 10.3205 19.3866 10.3205C20.0028 10.3205 20.5607 10.4303 21.0603 10.6499Z" fill="white"/>
<path d="M44.3772 19.4664V22.4812H36.845C35.5605 22.4474 34.3593 22.0758 33.2416 21.3665C32.1239 20.6571 31.2397 19.7197 30.5891 18.5543C29.9385 17.3889 29.6132 16.1391 29.6132 14.8048C29.6132 13.4536 29.9385 12.2038 30.5891 11.0553C31.2564 9.90675 32.1572 8.9947 33.2917 8.31911C34.4261 7.66041 35.6606 7.33105 36.9952 7.33105C38.3298 7.33105 39.5643 7.66885 40.6987 8.34444C41.8331 9.00314 42.734 9.90675 43.4013 11.0553C44.0519 12.1869 44.3772 13.4367 44.3772 14.8048H41.4244C41.4244 14.2136 41.3076 13.6478 41.0741 13.1074C40.8572 12.55 40.5402 12.0602 40.1232 11.6379C39.7061 11.2157 39.2223 10.8948 38.6718 10.6752C38.1379 10.4388 37.5791 10.3205 36.9952 10.3205C35.8274 10.3205 34.7847 10.7597 33.8672 11.6379C33.4501 12.0602 33.1332 12.55 32.9163 13.1074C32.6994 13.6478 32.591 14.2136 32.591 14.8048C32.591 15.4128 32.6994 16.0293 32.9163 16.6542C33.1499 17.2622 33.4668 17.7689 33.8672 18.1743C34.7681 19.0357 35.8107 19.4664 36.9952 19.4664H44.3772Z" fill="white"/>
<path d="M61.9983 22.4551H59.0355V14.7217C59.0355 14.1222 58.9183 13.5485 58.6839 13.0003C58.4663 12.4522 58.1483 11.9641 57.7298 11.5359C57.3113 11.1077 56.8342 10.7822 56.2986 10.5596C55.7629 10.3198 55.2022 10.1999 54.6163 10.1999C54.0304 10.1999 53.4696 10.3198 52.934 10.5596C52.3983 10.7822 51.9213 11.1077 51.5028 11.5359C51.0843 11.9641 50.7579 12.4522 50.5235 13.0003C50.3059 13.5485 50.1971 14.1222 50.1971 14.7217V22.4808H47.2343V0H50.1971V8.65833C51.5363 7.6649 53.0093 7.16818 54.6163 7.16818C55.9554 7.16818 57.1858 7.50218 58.3073 8.17018C59.4456 8.83818 60.3495 9.75454 61.0191 10.9193C61.6719 12.0669 61.9983 13.3343 61.9983 14.7217V22.4551Z" fill="white"/>
<path d="M0.562378 29.8166C0.562378 29.0708 0.75855 28.4018 1.15089 27.8096C1.54324 27.2101 2.07632 26.7422 2.75012 26.4058C3.43246 26.0695 4.1873 25.9014 5.01463 25.9014C5.98696 25.9014 6.83562 26.1024 7.56061 26.5045C8.28559 26.9067 8.8144 27.4769 9.14704 28.2154H7.75251C7.50517 27.7548 7.14694 27.4002 6.67783 27.1516C6.21725 26.903 5.66285 26.7787 5.01463 26.7787C4.392 26.7787 3.83334 26.903 3.33864 27.1516C2.84395 27.4002 2.45587 27.7548 2.1744 28.2154C1.89294 28.6687 1.7522 29.2024 1.7522 29.8166C1.7522 30.4234 1.89294 30.9571 2.1744 31.4177C2.45587 31.871 2.84395 32.222 3.33864 32.4706C3.83334 32.7191 4.392 32.8434 5.01463 32.8434C5.66285 32.8434 6.21725 32.7228 6.67783 32.4815C7.14694 32.2329 7.50517 31.8783 7.75251 31.4177H9.14704C8.8144 32.1489 8.28559 32.7155 7.56061 33.1176C6.83562 33.5124 5.98696 33.7098 5.01463 33.7098C4.1873 33.7098 3.43246 33.5453 2.75012 33.2163C2.07632 32.88 1.54324 32.4157 1.15089 31.8235C0.75855 31.2313 0.562378 30.5623 0.562378 29.8166Z" fill="white"/>
<path d="M13.4901 26.0001V30.8365C13.4901 31.5164 13.682 32.0209 14.0658 32.3499C14.4581 32.6789 14.9997 32.8434 15.6906 32.8434C16.3729 32.8434 16.906 32.6789 17.2898 32.3499C17.6822 32.0209 17.8783 31.5164 17.8783 30.8365V26.0001H19.0426V30.8255C19.0426 31.4616 18.8933 31.999 18.5948 32.4377C18.2963 32.869 17.8911 33.1907 17.3794 33.4027C16.8762 33.6148 16.309 33.7208 15.6778 33.7208C15.0466 33.7208 14.4752 33.6148 13.9634 33.4027C13.4602 33.1907 13.0593 32.869 12.7608 32.4377C12.4708 31.999 12.3258 31.4616 12.3258 30.8255V26.0001H13.4901Z" fill="white"/>
<path d="M23.6203 32.8325H26.742V33.644H22.456V26.0001H23.6203V32.8325Z" fill="white"/>
<path d="M34.9382 26.0001V26.8116H32.5074V33.644H31.3431V26.8116H28.8995V26.0001H34.9382Z" fill="white"/>
<path d="M38.9813 26.0001V30.8365C38.9813 31.5164 39.1732 32.0209 39.557 32.3499C39.9493 32.6789 40.4909 32.8434 41.1818 32.8434C41.8641 32.8434 42.3972 32.6789 42.781 32.3499C43.1734 32.0209 43.3696 31.5164 43.3696 30.8365V26.0001H44.5338V30.8255C44.5338 31.4616 44.3845 31.999 44.086 32.4377C43.7875 32.869 43.3824 33.1907 42.8706 33.4027C42.3674 33.6148 41.8002 33.7208 41.169 33.7208C40.5379 33.7208 39.9664 33.6148 39.4546 33.4027C38.9514 33.1907 38.5505 32.869 38.252 32.4377C37.962 31.999 37.817 31.4616 37.817 30.8255V26.0001H38.9813Z" fill="white"/>
<path d="M52.6426 33.644L50.5188 30.5184H49.1115V33.644H47.9473V26.0001H50.8259C51.4997 26.0001 52.0669 26.0988 52.5274 26.2962C52.9966 26.4936 53.3462 26.7604 53.5765 27.0968C53.8068 27.4331 53.922 27.8169 53.922 28.2483C53.922 28.7747 53.7429 29.239 53.3846 29.6411C53.0349 30.0432 52.5061 30.3101 51.7982 30.4417L54.0371 33.644H52.6426ZM49.1115 29.7179H50.8259C51.457 29.7179 51.9304 29.5863 52.246 29.323C52.5616 29.0525 52.7193 28.6943 52.7193 28.2483C52.7193 27.795 52.5616 27.444 52.246 27.1955C51.9389 26.9469 51.4655 26.8226 50.8259 26.8226H49.1115V29.7179Z" fill="white"/>
<path d="M58.3665 26.8116V29.3669H61.6162V30.1894H58.3665V32.8215H62V33.644H57.2023V25.9891H62V26.8116H58.3665Z" fill="white"/>
</svg>
