<svg width="111" height="34" viewBox="0 0 111 34" fill="none" xmlns="http://www.w3.org/2000/svg">
<path d="M52.4297 14.9273C52.4297 15.5268 52.535 16.1006 52.7456 16.6487C52.9724 17.1968 53.2883 17.6849 53.6932 18.1131C54.0982 18.5413 54.5599 18.8753 55.0783 19.1151C55.5967 19.3378 56.1393 19.4491 56.7063 19.4491V22.4808C55.4104 22.4808 54.2116 22.1468 53.1101 21.4788C52.0247 20.7937 51.1661 19.8688 50.5344 18.7041C49.8864 17.5565 49.5624 16.2975 49.5624 14.9273V0H52.4297V7.34802H56.7063V10.4054H52.4297V14.9273Z" fill="white"/>
<path d="M70.0604 10.6499C70.6599 10.9032 71.0389 11.1946 71.3615 11.6379L68.2117 14.2939V16.1557C68.2117 16.6075 68.7351 16.8505 69.0723 16.5552L75.2649 11.1334C74.5821 10.0525 73.0582 8.89336 71.959 8.26844C70.8598 7.64352 69.669 7.33105 68.3866 7.33105C67.0543 7.33105 65.8218 7.66041 64.6894 8.31911C63.5402 8.9947 62.6325 9.90675 61.9664 11.0553C61.3169 12.2038 60.9921 13.4536 60.9921 14.8048C60.9921 16.156 61.3252 17.4227 61.9914 18.605C62.6575 19.7873 63.5569 20.7331 64.6894 21.4425C65.8385 22.1349 67.0709 22.4812 68.3866 22.4812H75.7562V19.4664H68.3866C67.7871 19.4664 67.2208 19.3566 66.6879 19.137C66.1549 18.9174 65.6803 18.5965 65.2639 18.1743C64.8642 17.7689 64.5478 17.2622 64.3146 16.6542C64.0815 16.0462 63.9649 15.4297 63.9649 14.8048C63.9649 14.1967 64.0731 13.6225 64.2897 13.082C64.5228 12.5416 64.8476 12.0602 65.2639 11.6379C65.6803 11.2157 66.1549 10.8948 66.6879 10.6752C67.2208 10.4388 67.7871 10.3205 68.3866 10.3205C69.0028 10.3205 69.5607 10.4303 70.0604 10.6499Z" fill="white"/>
<path d="M93.3772 19.4664V22.4812H85.8451C84.5605 22.4474 83.3594 22.0758 82.2416 21.3665C81.1239 20.6571 80.2397 19.7197 79.5891 18.5543C78.9385 17.3889 78.6132 16.1391 78.6132 14.8048C78.6132 13.4536 78.9385 12.2038 79.5891 11.0553C80.2564 9.90675 81.1573 8.9947 82.2917 8.31911C83.4261 7.66041 84.6606 7.33105 85.9952 7.33105C87.3298 7.33105 88.5643 7.66885 89.6987 8.34444C90.8332 9.00314 91.734 9.90675 92.4013 11.0553C93.0519 12.1869 93.3772 13.4367 93.3772 14.8048H90.4244C90.4244 14.2136 90.3077 13.6478 90.0741 13.1074C89.8572 12.55 89.5403 12.0602 89.1232 11.6379C88.7061 11.2157 88.2223 10.8948 87.6718 10.6752C87.138 10.4388 86.5791 10.3205 85.9952 10.3205C84.8274 10.3205 83.7848 10.7597 82.8672 11.6379C82.4502 12.0602 82.1332 12.55 81.9163 13.1074C81.6995 13.6478 81.591 14.2136 81.591 14.8048C81.591 15.4128 81.6995 16.0293 81.9163 16.6542C82.1499 17.2622 82.4669 17.7689 82.8672 18.1743C83.7681 19.0357 84.8108 19.4664 85.9952 19.4664H93.3772Z" fill="white"/>
<path d="M110.998 22.4551H108.035V14.7217C108.035 14.1222 107.918 13.5485 107.684 13.0003C107.466 12.4522 107.148 11.9641 106.73 11.5359C106.311 11.1077 105.834 10.7822 105.299 10.5596C104.763 10.3198 104.202 10.1999 103.616 10.1999C103.03 10.1999 102.47 10.3198 101.934 10.5596C101.398 10.7822 100.921 11.1077 100.503 11.5359C100.084 11.9641 99.7579 12.4522 99.5236 13.0003C99.3059 13.5485 99.1971 14.1222 99.1971 14.7217V22.4808H96.2343V0H99.1971V8.65833C100.536 7.6649 102.009 7.16818 103.616 7.16818C104.955 7.16818 106.186 7.50218 107.307 8.17018C108.446 8.83818 109.35 9.75454 110.019 10.9193C110.672 12.0669 110.998 13.3343 110.998 14.7217V22.4551Z" fill="white"/>
<path d="M49.5624 29.8166C49.5624 29.0708 49.7586 28.4018 50.1509 27.8096C50.5433 27.2101 51.0763 26.7422 51.7502 26.4058C52.4325 26.0695 53.1873 25.9014 54.0147 25.9014C54.987 25.9014 55.8357 26.1024 56.5606 26.5045C57.2856 26.9067 57.8144 27.4769 58.1471 28.2154H56.7525C56.5052 27.7548 56.147 27.4002 55.6779 27.1516C55.2173 26.903 54.6629 26.7787 54.0147 26.7787C53.392 26.7787 52.8334 26.903 52.3387 27.1516C51.844 27.4002 51.4559 27.7548 51.1744 28.2154C50.893 28.6687 50.7522 29.2024 50.7522 29.8166C50.7522 30.4234 50.893 30.9571 51.1744 31.4177C51.4559 31.871 51.844 32.222 52.3387 32.4706C52.8334 32.7191 53.392 32.8434 54.0147 32.8434C54.6629 32.8434 55.2173 32.7228 55.6779 32.4815C56.147 32.2329 56.5052 31.8783 56.7525 31.4177H58.1471C57.8144 32.1489 57.2856 32.7155 56.5606 33.1176C55.8357 33.5124 54.987 33.7098 54.0147 33.7098C53.1873 33.7098 52.4325 33.5453 51.7502 33.2163C51.0763 32.88 50.5433 32.4157 50.1509 31.8235C49.7586 31.2313 49.5624 30.5623 49.5624 29.8166Z" fill="white"/>
<path d="M62.4901 26.0001V30.8365C62.4901 31.5164 62.682 32.0209 63.0658 32.3499C63.4581 32.6789 63.9998 32.8434 64.6906 32.8434C65.373 32.8434 65.906 32.6789 66.2899 32.3499C66.6822 32.0209 66.8784 31.5164 66.8784 30.8365V26.0001H68.0426V30.8255C68.0426 31.4616 67.8933 31.999 67.5948 32.4377C67.2963 32.869 66.8912 33.1907 66.3794 33.4027C65.8762 33.6148 65.309 33.7208 64.6778 33.7208C64.0467 33.7208 63.4752 33.6148 62.9635 33.4027C62.4602 33.1907 62.0594 32.869 61.7608 32.4377C61.4708 31.999 61.3258 31.4616 61.3258 30.8255V26.0001H62.4901Z" fill="white"/>
<path d="M72.6203 32.8325H75.742V33.644H71.4561V26.0001H72.6203V32.8325Z" fill="white"/>
<path d="M83.9383 26.0001V26.8116H81.5074V33.644H80.3432V26.8116H77.8996V26.0001H83.9383Z" fill="white"/>
<path d="M87.9813 26.0001V30.8365C87.9813 31.5164 88.1732 32.0209 88.557 32.3499C88.9494 32.6789 89.491 32.8434 90.1818 32.8434C90.8642 32.8434 91.3973 32.6789 91.7811 32.3499C92.1734 32.0209 92.3696 31.5164 92.3696 30.8365V26.0001H93.5338V30.8255C93.5338 31.4616 93.3846 31.999 93.086 32.4377C92.7875 32.869 92.3824 33.1907 91.8706 33.4027C91.3674 33.6148 90.8002 33.7208 90.169 33.7208C89.5379 33.7208 88.9664 33.6148 88.4547 33.4027C87.9514 33.1907 87.5506 32.869 87.2521 32.4377C86.9621 31.999 86.8171 31.4616 86.8171 30.8255V26.0001H87.9813Z" fill="white"/>
<path d="M101.643 33.644L99.5188 30.5184H98.1115V33.644H96.9473V26.0001H99.8259C100.5 26.0001 101.067 26.0988 101.527 26.2962C101.997 26.4936 102.346 26.7604 102.577 27.0968C102.807 27.4331 102.922 27.8169 102.922 28.2483C102.922 28.7747 102.743 29.239 102.385 29.6411C102.035 30.0432 101.506 30.3101 100.798 30.4417L103.037 33.644H101.643ZM98.1115 29.7179H99.8259C100.457 29.7179 100.93 29.5863 101.246 29.323C101.562 29.0525 101.719 28.6943 101.719 28.2483C101.719 27.795 101.562 27.444 101.246 27.1955C100.939 26.9469 100.466 26.8226 99.8259 26.8226H98.1115V29.7179Z" fill="white"/>
<path d="M107.367 26.8116V29.3669H110.616V30.1894H107.367V32.8215H111V33.644H106.202V25.9891H111V26.8116H107.367Z" fill="white"/>
<g clip-path="url(#clip0_358_2308)">
<path d="M0 12.7544C0.000159054 12.6851 0.0209577 12.6174 0.059612 12.5606C0.0982663 12.5037 0.152931 12.4603 0.21629 12.4361C0.31687 12.3925 0.423418 12.365 0.53217 12.3547C2.75912 12.2534 4.98695 12.1719 7.21391 12.071C8.92229 11.9936 10.6294 11.891 12.3377 11.809C12.9682 11.7784 13.213 12.0413 13.1946 12.6959C13.1946 12.7634 13.1884 12.831 13.1884 12.898C13.1748 16.0557 13.1274 19.2134 13.1608 22.3706C13.1845 24.6044 13.3157 26.8374 13.4034 29.0704C13.4473 30.1643 13.503 31.2578 13.5491 32.3518C13.5648 32.7322 13.4174 32.9866 13.1542 33.0766C12.8374 33.1833 12.4961 33.0514 12.3075 32.7435C12.275 32.6956 12.253 32.6411 12.243 32.5837C12.2145 32.346 12.1833 32.1078 12.1732 31.8688C12.1293 30.8333 12.0973 29.8024 12.0552 28.7692C12.0306 28.1781 11.9951 27.5879 11.9675 26.9972C11.9381 26.4223 11.9065 25.8479 11.8797 25.273C11.8473 24.5482 11.8117 23.8233 11.792 23.0976C11.7569 21.8925 11.7327 20.6868 11.7042 19.4817C11.6906 18.9356 11.6533 18.3891 11.6604 17.8434C11.6726 16.577 11.7077 15.3106 11.7231 14.0447C11.7248 13.8885 11.6885 13.7344 11.6174 13.5963C11.5099 13.3951 11.3348 13.2677 11.0861 13.2812C10.1376 13.3302 9.18903 13.3734 8.24008 13.4198C8.10144 13.4261 7.96325 13.4387 7.82461 13.4437C6.693 13.4863 5.56168 13.5283 4.43065 13.5697C3.14608 13.617 1.86194 13.6724 0.576919 13.7048C0.45473 13.7005 0.334253 13.674 0.221116 13.6265C0.156831 13.603 0.101215 13.5597 0.0619296 13.5024C0.022644 13.4452 0.00162099 13.3768 0.00175526 13.3068L0 12.7544Z" fill="#F0B270"/>
<path d="M34.7901 13.3706C34.7682 13.598 34.6238 13.6641 34.4269 13.6587L31.3826 13.5723L31.3387 13.5696C29.1787 13.475 27.0187 13.3796 24.8588 13.2833C24.6043 13.2716 24.385 13.3341 24.2555 13.5534C24.172 13.6992 24.1266 13.8646 24.1239 14.0337C24.1239 14.8661 24.1678 15.6995 24.1586 16.531C24.1274 19.0521 24.1064 21.5731 24.027 24.0893C23.9603 26.2173 23.8177 28.3427 23.7093 30.4694C23.6747 31.1506 23.6466 31.8326 23.6071 32.5137C23.5904 32.8028 23.3987 32.9761 23.1565 33.0603C23.0468 33.1019 22.9283 33.1134 22.8129 33.0936C22.6975 33.0739 22.5891 33.0236 22.4984 32.9477C22.3006 32.787 22.2905 32.5651 22.2988 32.3391C22.462 27.7768 22.7494 23.2177 22.7512 18.6487C22.7512 16.6386 22.6967 14.6284 22.6634 12.6188C22.6564 12.1879 22.7762 11.9552 23.0903 11.8476C23.1804 11.8173 23.2751 11.8041 23.3697 11.8084C24.9614 11.8859 26.5522 11.9705 28.1439 12.0461C29.8593 12.1275 31.575 12.2048 33.291 12.278C33.6266 12.2928 33.964 12.2888 34.3001 12.3158C34.5133 12.3329 34.7498 12.3514 34.7901 12.6512V13.3706Z" fill="#F0B270"/>
<path d="M27.202 0C27.3226 0.158918 27.481 0.30118 27.556 0.480357C27.6995 0.822504 27.4306 1.23173 27.066 1.27045C26.9638 1.27821 26.8613 1.28032 26.7589 1.27675C22.3177 1.24524 17.8765 1.19797 13.4353 1.18986C11.6984 1.18671 9.9602 1.27 8.22286 1.31907C7.81177 1.33032 7.54986 1.17816 7.43579 0.831958C7.34804 0.559591 7.48844 0.266965 7.81309 0.0517723C7.82931 0.0367606 7.84322 0.0193035 7.85433 0H27.202Z" fill="#F0B270"/>
<path d="M34.7918 19.3011C34.7918 19.3569 34.7764 19.8629 34.7422 19.9061C34.672 19.9962 34.2978 20.0056 34.1785 20.0079C32.7535 20.0353 31.5922 20.0777 30.1672 20.0867C29.7246 20.0898 29.3775 20.3905 29.3609 20.8889C29.3306 21.7812 29.3104 22.6735 29.2661 23.5644C29.1608 25.6614 29.0486 27.7578 28.9296 29.8536C28.9059 30.2737 28.601 30.551 28.2158 30.5375C27.8854 30.5258 27.649 30.2867 27.6564 29.9464C27.663 29.6546 27.7003 29.3634 27.7148 29.0712C27.861 25.8952 28.0073 22.7188 28.1535 19.5419C28.1685 19.3444 28.2229 19.1521 28.3132 18.9769C28.4071 18.7883 28.5913 18.7113 28.8076 18.7095C30.6564 18.6915 32.2858 18.6672 34.135 18.6523C34.3026 18.6523 34.7119 18.6568 34.7782 18.863" fill="#F0B270"/>
<path d="M18.504 33.8877C18.3669 33.9581 18.2161 33.9964 18.0628 33.9996C17.9094 34.0029 17.7573 33.9711 17.6174 33.9066L17.577 33.8877C17.466 33.8877 17.373 33.6176 17.3726 33.5028C17.3506 25.9023 17.3299 18.3015 17.3103 10.7005C17.3076 9.48493 17.3414 8.2694 17.3563 7.05388C17.3603 6.7419 17.3392 6.71398 17.0308 6.72659C14.5033 6.83058 11.978 6.93278 9.44925 7.04848C7.31706 7.14572 5.18487 7.26052 3.05268 7.36361C2.68986 7.38117 2.52183 7.23441 2.38451 6.91342C2.24719 6.59243 2.56263 6.07741 2.8965 6.0648C3.32688 6.0477 3.75727 6.01483 4.1881 5.99818C5.26867 5.95676 6.35012 5.9284 7.43069 5.87933C8.5253 5.8298 9.61903 5.75507 10.7132 5.70465C12.2014 5.63577 13.6891 5.56194 15.1776 5.52457C16.7263 5.4845 18.2763 5.46965 19.8255 5.4719C20.7968 5.4719 21.7681 5.52322 22.7395 5.55834C23.3537 5.58055 23.9663 5.60966 24.5773 5.64567C26.4199 5.75102 28.266 5.86582 30.1113 5.96576C30.6878 5.99683 31.266 5.98872 31.8434 6.00538C32.3334 6.01979 32.68 6.45152 32.5589 6.88641C32.4769 7.18129 32.2461 7.35506 31.9083 7.3402C30.8418 7.29518 29.7761 7.23756 28.7096 7.18579C25.5698 7.03392 22.4299 6.88386 19.2898 6.73559C18.7225 6.70948 18.7484 6.63475 18.7515 7.27583C18.7739 11.8827 18.8094 16.4895 18.8028 21.0968C18.7967 25.2233 18.7418 29.3497 18.708 33.4771C18.708 33.4861 18.708 33.4951 18.708 33.5041C18.705 33.6176 18.6146 33.8877 18.504 33.8877Z" fill="#F0B270"/>
<path d="M4.19463 18.7373C5.34189 18.7373 6.48959 18.7346 7.63684 18.7373C8.05539 18.7373 8.32564 19.0029 8.34363 19.445C8.37346 20.172 8.36995 20.9005 8.40724 21.6271C8.55348 24.5038 8.70572 27.3804 8.86395 30.2569C8.87799 30.5189 8.88282 30.7813 8.89598 31.0438C8.91002 31.3238 8.79551 31.539 8.545 31.6331C8.29449 31.7272 8.0216 31.7069 7.84085 31.4805C7.72898 31.3396 7.63114 31.1455 7.6193 30.9691C7.53989 29.7576 7.48768 28.5448 7.42143 27.3324C7.36484 26.2699 7.30078 25.2079 7.24594 24.1455C7.19154 23.06 7.14504 21.9742 7.09809 20.8883C7.07967 20.4557 6.81468 20.1626 6.3878 20.1414C5.96093 20.1203 5.52528 20.1212 5.09401 20.1126C3.61025 20.0834 1.8637 20.0545 0.379943 20.0257C-0.0280687 20.0176 -0.00525504 19.7642 -0.0175393 19.3608C-0.0285073 18.9984 -0.00789054 18.7314 0.406702 18.7283C1.58379 18.7188 3.01754 18.7373 4.19463 18.7373Z" fill="#F0B270"/>
</g>
<defs>
<clipPath id="clip0_358_2308">
<rect width="34.7907" height="34" fill="white"/>
</clipPath>
</defs>
</svg>
