<svg width="31" height="30" viewBox="0 0 31 30" fill="none" xmlns="http://www.w3.org/2000/svg">
<g clip-path="url(#clip0_288_76806)">
<path d="M0 11.2538C0.000140876 11.1926 0.0185626 11.1329 0.0527992 11.0827C0.0870359 11.0325 0.135453 10.9942 0.191571 10.9729C0.280656 10.9344 0.375027 10.9101 0.471351 10.901C2.4438 10.8116 4.41702 10.7397 6.38946 10.6508C7.9026 10.5824 9.41457 10.4919 10.9277 10.4196C11.4861 10.3926 11.7029 10.6246 11.6866 11.2021C11.6866 11.2617 11.6812 11.3213 11.6812 11.3805C11.6691 14.1667 11.6272 16.9528 11.6567 19.7386C11.6777 21.7097 11.7939 23.6799 11.8716 25.6502C11.9104 26.6154 11.9598 27.5803 12.0006 28.5456C12.0146 28.8812 11.884 29.1057 11.6509 29.1851C11.3703 29.2793 11.068 29.1629 10.9009 28.8912C10.8722 28.8489 10.8527 28.8008 10.8438 28.7502C10.8185 28.5404 10.7909 28.3303 10.782 28.1194C10.7431 27.2057 10.7148 26.2961 10.6775 25.3844C10.6557 24.8629 10.6242 24.3421 10.5998 23.8209C10.5737 23.3137 10.5457 22.8068 10.522 22.2995C10.4933 21.66 10.4618 21.0205 10.4443 20.3801C10.4132 19.3167 10.3919 18.253 10.3666 17.1896C10.3546 16.7077 10.3215 16.2255 10.3277 15.7441C10.3386 14.6266 10.3697 13.5092 10.3833 12.3922C10.3849 12.2544 10.3527 12.1184 10.2897 11.9966C10.1945 11.819 10.0394 11.7066 9.81909 11.7185C8.97897 11.7618 8.13886 11.8 7.29836 11.8409C7.17556 11.8464 7.05316 11.8576 6.93037 11.8619C5.92808 11.8995 4.92606 11.9366 3.92429 11.9731C2.78652 12.0149 1.64914 12.0637 0.510986 12.0923C0.402761 12.0886 0.296053 12.0652 0.195846 12.0232C0.138907 12.0025 0.0896478 11.9643 0.0548519 11.9137C0.0200561 11.8632 0.00143573 11.8029 0.00155466 11.7412L0 11.2538Z" fill="#F0B270"/>
<path d="M30.8141 11.7976C30.7947 11.9982 30.6668 12.0566 30.4924 12.0518L27.796 11.9755L27.7571 11.9731C25.844 11.8897 23.9309 11.8055 22.0178 11.7205C21.7924 11.7102 21.5981 11.7654 21.4835 11.9588C21.4095 12.0875 21.3693 12.2335 21.3669 12.3827C21.3669 13.1172 21.4057 13.8524 21.3976 14.5861C21.37 16.8106 21.3513 19.0351 21.281 21.2552C21.2219 23.1329 21.0957 25.0082 20.9997 26.8848C20.969 27.4858 20.9441 28.0876 20.9091 28.6886C20.8944 28.9436 20.7246 29.0965 20.5101 29.1708C20.4129 29.2075 20.308 29.2177 20.2057 29.2002C20.1035 29.1828 20.0075 29.1385 19.9272 29.0715C19.7519 28.9297 19.743 28.7339 19.7504 28.5344C19.8949 24.5089 20.1495 20.4862 20.151 16.4547C20.151 14.6811 20.1028 12.9074 20.0733 11.1342C20.0671 10.754 20.1732 10.5487 20.4514 10.4537C20.5312 10.427 20.615 10.4153 20.6989 10.4192C22.1087 10.4875 23.5177 10.5622 24.9275 10.6289C26.4468 10.7007 27.9664 10.7689 29.4863 10.8335C29.7836 10.8466 30.0824 10.843 30.3801 10.8669C30.5689 10.8819 30.7784 10.8982 30.8141 11.1628V11.7976Z" fill="#F0B270"/>
<path d="M24.0931 0C24.2 0.140222 24.3403 0.265747 24.4067 0.423844C24.5338 0.725739 24.2956 1.08682 23.9727 1.12098C23.8822 1.12784 23.7914 1.12969 23.7007 1.12654C19.767 1.09874 15.8334 1.05703 11.8998 1.04988C10.3614 1.0471 8.82184 1.12059 7.28305 1.16388C6.91895 1.17381 6.68697 1.03955 6.58593 0.734081C6.50822 0.493757 6.63257 0.235557 6.92012 0.0456814C6.93449 0.0324358 6.9468 0.0170325 6.95664 0H24.0931Z" fill="#F0B270"/>
<path d="M30.8155 17.0304C30.8155 17.0797 30.8019 17.5262 30.7716 17.5643C30.7095 17.6437 30.378 17.6521 30.2723 17.6541C29.0102 17.6783 27.9816 17.7156 26.7195 17.7236C26.3274 17.7264 26.02 17.9917 26.0053 18.4314C25.9785 19.2188 25.9606 20.0061 25.9213 20.7922C25.8281 22.6425 25.7287 24.4923 25.6233 26.3415C25.6023 26.7121 25.3323 26.9568 24.9911 26.9449C24.6985 26.9346 24.489 26.7236 24.4956 26.4233C24.5015 26.1659 24.5345 25.9089 24.5473 25.6511C24.6768 22.8488 24.8064 20.0461 24.9359 17.2429C24.9492 17.0686 24.9973 16.8989 25.0773 16.7444C25.1605 16.578 25.3237 16.51 25.5153 16.5085C27.1528 16.4926 28.596 16.4711 30.2338 16.458C30.3823 16.458 30.7448 16.462 30.8035 16.6439" fill="#F0B270"/>
<path d="M16.3892 29.9011C16.2677 29.9632 16.1342 29.997 15.9984 29.9998C15.8626 30.0027 15.7278 29.9747 15.6039 29.9178L15.5682 29.9011C15.4699 29.9011 15.3875 29.6627 15.3871 29.5614C15.3677 22.8551 15.3493 16.1486 15.3319 9.44175C15.3296 8.36923 15.3595 7.29671 15.3727 6.22418C15.3762 5.9489 15.3576 5.92428 15.0844 5.9354C12.8458 6.02716 10.6091 6.11733 8.36929 6.21942C6.48078 6.30522 4.59227 6.40651 2.70376 6.49748C2.3824 6.51297 2.23357 6.38347 2.11194 6.10025C1.99032 5.81702 2.26971 5.36259 2.56542 5.35147C2.94662 5.33638 3.32782 5.30738 3.70941 5.29268C4.66649 5.25614 5.62434 5.23111 6.58142 5.18781C7.55093 5.14412 8.51967 5.07818 9.48879 5.03369C10.8069 4.97291 12.1245 4.90776 13.443 4.87479C14.8147 4.83944 16.1876 4.82633 17.5597 4.82832C18.42 4.82832 19.2803 4.8736 20.1406 4.90459C20.6846 4.92418 21.2272 4.94987 21.7684 4.98165C23.4004 5.0746 25.0356 5.1759 26.67 5.26408C27.1806 5.29149 27.6927 5.28434 28.2041 5.29904C28.6381 5.31175 28.9451 5.69269 28.8379 6.07642C28.7652 6.3366 28.5608 6.48993 28.2616 6.47682C27.317 6.4371 26.3731 6.38625 25.4284 6.34057C22.6475 6.20657 19.8664 6.07416 17.0852 5.94334C16.5828 5.9203 16.6057 5.85436 16.6084 6.42002C16.6282 10.4849 16.6597 14.5497 16.6539 18.615C16.6484 22.256 16.5999 25.897 16.5699 29.5388C16.5699 29.5467 16.5699 29.5547 16.5699 29.5626C16.5672 29.6627 16.4872 29.9011 16.3892 29.9011Z" fill="#F0B270"/>
<path d="M3.71521 16.5328C4.73135 16.5328 5.74788 16.5304 6.76403 16.5328C7.13474 16.5328 7.3741 16.7671 7.39003 17.1572C7.41646 17.7988 7.41335 18.4415 7.44638 19.0826C7.57591 21.6209 7.71074 24.1591 7.85089 26.6971C7.86333 26.9283 7.8676 27.1599 7.87926 27.3915C7.89169 27.6385 7.79027 27.8284 7.56839 27.9114C7.34651 27.9945 7.10481 27.9766 6.94472 27.7768C6.84563 27.6524 6.75898 27.4812 6.74848 27.3255C6.67815 26.2566 6.63191 25.1864 6.57323 24.1167C6.52311 23.1792 6.46637 22.2422 6.4178 21.3047C6.36962 20.347 6.32843 19.3889 6.28685 18.4307C6.27053 18.049 6.03582 17.7904 5.65773 17.7717C5.27964 17.7531 4.89378 17.7539 4.5118 17.7463C3.19762 17.7205 1.65067 17.6951 0.336486 17.6697C-0.0248957 17.6625 -0.00468934 17.4389 -0.0155696 17.0829C-0.0252842 16.7632 -0.00702364 16.5276 0.360187 16.5248C1.40275 16.5165 2.67264 16.5328 3.71521 16.5328Z" fill="#F0B270"/>
</g>
<defs>
<clipPath id="clip0_288_76806">
<rect width="30.8146" height="30" fill="white"/>
</clipPath>
</defs>
</svg>
