<svg width="57" height="74" viewBox="0 0 57 74" fill="none" xmlns="http://www.w3.org/2000/svg">
<path d="M10.6938 34.4419V16.6116L13.8804 18.1934L13.8667 30.2673L27.0743 36.9811V42.4844L10.6938 34.4419Z" fill="#F0B270" fill-opacity="0.17"/>
<path d="M32.4623 14.6392L15.438 6.0144L15.1823 6.17486L32.2254 14.736L32.4623 14.6392Z" fill="#787878" fill-opacity="0.67"/>
<path d="M19.3723 20.6928L26.9738 17.0571L27.1941 17.1672L19.5916 20.8028L19.3723 20.6928Z" fill="#787878"/>
<path d="M9.12992 15.5203L27.1365 24.6133L26.8507 24.7656L8.80152 15.6304L9.12992 15.5203Z" fill="url(#paint0_linear_4_3083)"/>
<path d="M27.0838 24.6541H27.2936V44.2455H27.0735L27.0838 24.6541Z" fill="url(#paint1_linear_4_3083)"/>
<path d="M13.8044 18.1609L14.0483 18.2524V30.378L13.8044 30.251V18.1609Z" fill="url(#paint2_linear_4_3083)"/>
<path d="M38.6842 16.7811V12.0373L44.7933 9.13525L46.7341 10.2148V27.9171L41.6009 25.3146L41.6012 18.2705L38.6842 16.7811Z" fill="#736AE4" fill-opacity="0.21"/>
<path d="M41.6045 30.3779V25.5857L46.6676 28.0665L41.6045 30.3779Z" fill="url(#paint3_linear_4_3083)"/>
<path d="M41.5946 18.2368L38.6384 16.749L38.5287 16.9669L41.4849 18.4547L41.5946 18.2368Z" fill="#787878"/>
<path d="M39.8317 38.419L32.2103 34.5835L32.1007 34.8014L39.722 38.6369L39.8317 38.419Z" fill="#F0B270"/>
<path d="M41.6045 25.3191L46.8287 27.9559L46.7708 28.1756L41.6045 25.5974V25.3191Z" fill="#736AE4"/>
<path d="M40.627 30.9238L48.2085 34.7393L48.0991 34.9574L40.3953 31.0373L40.627 30.9238Z" fill="#F0B270"/>
<path d="M38.6838 11.8982H38.4398V19.4601H38.6838V11.8982Z" fill="#787878"/>
<path d="M41.6111 18.24H41.3671V30.4367H41.6111V18.24Z" fill="#787878"/>
<path d="M14.0869 5.61304L15.4077 5.83319V12.8772L14.0869 13.3873V5.61304Z" fill="#736AE4"/>
<path d="M8.79805 15.6299L10.6885 16.3607V34.4623L8.79805 35.3162V15.6299Z" fill="#F0B270"/>
<path d="M10.6885 34.4614L27.0686 42.4845V44.4655L8.79805 35.3153L10.6885 34.4614Z" fill="#F0B270"/>
<path d="M32.2256 22.5083L32.4715 22.3425L32.4695 34.705H32.2256V22.5083Z" fill="#787878"/>
<path d="M38.7392 11.7765L21.8401 3.23755L21.5701 3.30157L38.409 11.8865L38.7392 11.7765Z" fill="#787878"/>
<path d="M18.6456 12.5933L35.2452 20.9473L35.1356 21.1652L18.5359 12.8112L18.6456 12.5933Z" fill="url(#paint4_linear_4_3083)"/>
<path d="M26.9742 24.6391L41.3083 18.1858L41.4085 18.4082L27.1823 24.7645L26.9742 24.6391Z" fill="#787878"/>
<path d="M27.0709 44.0264L48.2002 34.728L48.3 34.9502L27.0707 44.467L27.0709 44.0264Z" fill="#F0B270"/>
<path d="M15.8529 29.4976L28.18 24.1045V24.3246L16.0803 29.6681L15.8529 29.4976Z" fill="url(#paint5_linear_4_3083)"/>
<path d="M22.6717 9.68579L35.2978 4.29541L35.3932 4.51992L22.8919 9.90591L22.6717 9.68579Z" fill="url(#paint6_linear_4_3083)"/>
<path d="M38.7154 11.7522L44.6109 9.0437L44.7935 9.24532L38.8172 11.9739L38.7154 11.7522Z" fill="url(#paint7_linear_4_3083)"/>
<path d="M14.0869 5.61322L26.8539 0L27.8825 0.532383L15.2065 6.35596L14.0869 5.61322Z" fill="#736AE4"/>
<path d="M8.79805 15.63L22.666 9.68652L23.9868 10.3469L10.3389 16.1803L8.79805 15.63Z" fill="#F1AE66"/>
<path d="M16.0674 29.6071L27.0737 24.7014V35.0001L16.0674 29.6071Z" fill="#F0B270" fill-opacity="0.16"/>
<path d="M15.8475 29.4966L27.074 34.9997V36.9808L13.9266 30.3141L15.8475 29.4966Z" fill="#F0B270"/>
<path d="M26.8562 0L46.8882 10.0158V10.346L27.5909 0.587085L26.8562 0Z" fill="#736AE4"/>
<path d="M27.2977 36.7618L46.5587 28.0667L46.8889 28.1767L27.2977 37.0919V36.7618Z" fill="#787878"/>
<path d="M46.6643 10.2046L46.8845 10.1265V28.1768L46.6643 28.1071V10.2046Z" fill="#736AE4"/>
<path d="M32.7914 14.5291H33.0115V20.0322L32.7914 19.9176V14.5291Z" fill="url(#paint8_linear_4_3083)"/>
<path d="M38.7157 11.7525L27.3414 16.978L27.4433 17.1997L38.8175 11.9742L38.7157 11.7525Z" fill="url(#paint9_linear_4_3083)"/>
<path d="M8.80961 54.8651V73.7376H6.08013V54.8651H0.0665283V52.7632H14.867L14.5167 54.8651H8.80961Z" fill="white"/>
<path d="M21.5963 60.5132C21.1389 60.5132 20.6962 60.5863 20.268 60.7323C19.8496 60.8683 19.4701 61.102 19.1295 61.4327C18.7889 61.7637 18.5019 62.2014 18.2683 62.7465C18.0446 63.2816 17.9034 63.987 17.8451 64.8628H24.749C24.749 64.7071 24.7539 64.5854 24.7636 64.498C24.7734 64.42 24.7782 64.3424 24.7782 64.2644C24.7782 64.1867 24.7782 64.1137 24.7782 64.0453C24.7588 63.4226 24.6663 62.8922 24.5009 62.4545C24.3355 62.0068 24.1117 61.642 23.8295 61.3597C23.5473 61.068 23.2164 60.8536 22.8369 60.7176C22.4574 60.5813 22.0439 60.5132 21.5963 60.5132ZM26.2086 73.2994C25.8583 73.4257 25.4691 73.5427 25.041 73.6498C24.6712 73.7371 24.2382 73.8151 23.7419 73.8831C23.2456 73.9611 22.7007 74.0001 22.1071 74.0001C19.7523 74.0001 17.9813 73.3674 16.7941 72.1026C15.607 70.8374 15.0134 68.9449 15.0134 66.4246C15.0134 65.0138 15.1789 63.8216 15.5097 62.8485C15.8405 61.8657 16.2979 61.0533 16.8817 60.4109C17.4656 59.7688 18.1564 59.2921 18.9544 58.9807C19.7523 58.6694 20.6135 58.5137 21.5379 58.5137C22.4526 58.5137 23.2554 58.6594 23.9462 58.9514C24.6371 59.2434 25.2112 59.6325 25.6686 60.1192C26.1259 60.5959 26.4714 61.1457 26.7049 61.7684C26.9482 62.3911 27.0795 63.0382 27.099 63.7096C27.099 63.914 27.0893 64.172 27.0698 64.4834C27.0601 64.7851 27.0406 65.0671 27.0114 65.3298C26.992 65.5828 26.9676 65.8165 26.9384 66.0305C26.919 66.2446 26.8946 66.4003 26.8655 66.4976H17.8013V67.023C17.8013 67.9184 17.9083 68.6919 18.1224 69.3439C18.3365 69.9957 18.6381 70.5164 19.0273 70.9058C19.4263 71.2852 19.9031 71.5575 20.4578 71.7229C21.0124 71.8786 21.6255 71.9566 22.2969 71.9566C22.8515 71.9566 23.377 71.9272 23.8733 71.8689C24.3793 71.8009 24.8269 71.7279 25.2161 71.6499C25.6734 71.5625 26.0967 71.4602 26.486 71.3435L26.2086 73.2994Z" fill="white"/>
<path d="M30.0616 66.3516C30.0616 65.3591 30.1443 64.4737 30.3097 63.6953C30.485 62.9069 30.7184 62.2208 31.0104 61.637C31.3121 61.0533 31.6625 60.5666 32.0612 60.1775C32.4699 59.7785 32.908 59.4575 33.375 59.2141C33.8517 58.9611 34.3481 58.7811 34.8638 58.674C35.3892 58.567 35.9146 58.5137 36.44 58.5137C37.0824 58.5137 37.6662 58.5574 38.1916 58.645C38.7173 58.7227 39.1697 58.8151 39.5491 58.9221C39.9968 59.0391 40.3958 59.1751 40.7459 59.3308L40.9649 61.3013C40.5855 61.165 40.1718 61.0436 39.7244 60.9366C39.3447 60.849 38.907 60.7663 38.4106 60.6883C37.9142 60.6106 37.3888 60.5716 36.8344 60.5716C36.1823 60.5716 35.6033 60.6786 35.0972 60.8926C34.6011 61.1067 34.1828 61.4474 33.8421 61.9144C33.5114 62.3718 33.2583 62.9652 33.083 63.6953C32.908 64.425 32.8203 65.2958 32.8203 66.3079C32.8203 67.271 32.908 68.1178 33.083 68.8475C33.2583 69.5773 33.5114 70.1757 33.8421 70.6428C34.1828 71.1001 34.6011 71.4359 35.0972 71.6499C35.6033 71.8542 36.1823 71.9566 36.8344 71.9566C37.3888 71.9566 37.9142 71.9226 38.4106 71.8542C38.9167 71.7765 39.3594 71.6939 39.7388 71.6062C40.1865 71.4992 40.6002 71.3825 40.9796 71.2558L40.7459 73.1971C40.3958 73.3527 40.0018 73.4891 39.5637 73.6058C39.194 73.7128 38.7463 73.8054 38.2209 73.8831C37.7052 73.9611 37.1358 74.0001 36.513 74.0001C35.7056 74.0001 34.9172 73.8785 34.1484 73.6351C33.3797 73.3821 32.6889 72.9587 32.0759 72.3653C31.4725 71.7619 30.9861 70.9641 30.6164 69.9714C30.2466 68.9692 30.0616 67.7627 30.0616 66.3516Z" fill="white"/>
<path d="M44.483 53.0259L47.1833 52.7632V60.2364C47.5824 59.925 47.9764 59.6623 48.3655 59.4483C48.7548 59.2243 49.1539 59.0443 49.5626 58.9082C49.971 58.7719 50.3897 58.6745 50.8178 58.6162C51.2555 58.5482 51.7225 58.5142 52.2189 58.5142C53.0657 58.5142 53.7858 58.6405 54.3792 58.8936C54.9826 59.1369 55.474 59.5356 55.8533 60.0904C56.233 60.6354 56.5054 61.3408 56.6708 62.2069C56.8458 63.0631 56.9335 64.1045 56.9335 65.3303V73.7376H54.2332V65.5347C54.2332 64.5422 54.1748 63.7248 54.0581 63.0827C53.9414 62.4403 53.7661 61.9343 53.5327 61.5645C53.3087 61.1948 53.0267 60.9371 52.686 60.7911C52.3553 60.6451 51.9709 60.5721 51.5328 60.5721C51.0854 60.5721 50.6377 60.6451 50.19 60.7911C49.7426 60.9271 49.3239 61.0878 48.9349 61.2728C48.5555 61.4479 48.2098 61.6229 47.8984 61.7982C47.5967 61.9636 47.3584 62.0756 47.1833 62.1339V73.7376H44.483V53.0259Z" fill="white"/>
<defs>
<linearGradient id="paint0_linear_4_3083" x1="31.3565" y1="27.297" x2="10.0042" y2="16.1805" gradientUnits="userSpaceOnUse">
<stop stop-color="#787878"/>
<stop offset="0.953125" stop-color="#EFB97F"/>
</linearGradient>
<linearGradient id="paint1_linear_4_3083" x1="27.1835" y1="24.6541" x2="27.29" y2="47.3673" gradientUnits="userSpaceOnUse">
<stop stop-color="#787878"/>
<stop offset="1" stop-color="#F0B270"/>
</linearGradient>
<linearGradient id="paint2_linear_4_3083" x1="13.9764" y1="18.1609" x2="13.9264" y2="30.378" gradientUnits="userSpaceOnUse">
<stop stop-color="#E0AF7C"/>
<stop offset="0.0571334" stop-color="#787878"/>
<stop offset="0.785457" stop-color="#8A8177"/>
<stop offset="1" stop-color="#F0B270"/>
</linearGradient>
<linearGradient id="paint3_linear_4_3083" x1="44.5765" y1="26.1954" x2="41.2745" y2="30.598" gradientUnits="userSpaceOnUse">
<stop stop-color="#736AE4" stop-opacity="0.21"/>
<stop offset="1" stop-color="#F0B270" stop-opacity="0.15"/>
</linearGradient>
<linearGradient id="paint4_linear_4_3083" x1="35.8781" y1="22.1234" x2="16.9472" y2="12.7679" gradientUnits="userSpaceOnUse">
<stop stop-color="#F0B270"/>
<stop offset="1" stop-color="#F0B270" stop-opacity="0.09"/>
</linearGradient>
<linearGradient id="paint5_linear_4_3083" x1="14.6624" y1="29.9911" x2="28.1266" y2="24.1201" gradientUnits="userSpaceOnUse">
<stop stop-color="#F0B270"/>
<stop offset="0.922557" stop-color="#787878"/>
</linearGradient>
<linearGradient id="paint6_linear_4_3083" x1="22.8297" y1="9.98803" x2="36.612" y2="3.8287" gradientUnits="userSpaceOnUse">
<stop stop-color="#F0B270"/>
<stop offset="1" stop-color="#141414"/>
</linearGradient>
<linearGradient id="paint7_linear_4_3083" x1="38.2992" y1="12.1069" x2="45.123" y2="8.91507" gradientUnits="userSpaceOnUse">
<stop stop-color="#7A7671"/>
<stop offset="1" stop-color="#736AE4"/>
</linearGradient>
<linearGradient id="paint8_linear_4_3083" x1="32.9014" y1="14.5291" x2="32.9014" y2="20.0322" gradientUnits="userSpaceOnUse">
<stop stop-color="#83705C"/>
<stop offset="1" stop-color="#C7955F"/>
</linearGradient>
<linearGradient id="paint9_linear_4_3083" x1="27.0731" y1="17.3905" x2="39.1801" y2="11.7772" gradientUnits="userSpaceOnUse">
<stop stop-color="#8D6942"/>
<stop offset="1" stop-color="#787878"/>
</linearGradient>
</defs>
</svg>
