<svg width="100" height="87" viewBox="0 0 100 87" fill="none" xmlns="http://www.w3.org/2000/svg">
<path d="M7.99204 43.8118V59.7847H5.68196V43.8118H0.592369V42.0329H13.1187L12.8222 43.8118H7.99204Z" fill="white"/>
<path d="M18.8136 48.5926C18.4265 48.5926 18.0518 48.6543 17.6894 48.7779C17.3353 48.8932 17.0141 49.0908 16.7259 49.3708C16.4376 49.6508 16.1947 50.0214 15.997 50.4826C15.8076 50.9356 15.6882 51.5327 15.6388 52.2739H21.4819C21.4819 52.1421 21.486 52.0392 21.4943 51.965C21.5025 51.8992 21.5066 51.8333 21.5066 51.7674C21.5066 51.7015 21.5066 51.6397 21.5066 51.5821C21.4902 51.055 21.4119 50.6062 21.2719 50.2356C21.1319 49.8567 20.9425 49.5479 20.7037 49.3091C20.4648 49.062 20.1848 48.8808 19.8636 48.7655C19.5424 48.6502 19.1924 48.5926 18.8136 48.5926ZM22.7173 59.4141C22.4208 59.5212 22.0914 59.62 21.729 59.7106C21.416 59.7847 21.0496 59.8506 20.6295 59.9083C20.2095 59.9741 19.7483 60.0071 19.246 60.0071C17.253 60.0071 15.7541 59.4718 14.7493 58.4011C13.7446 57.3305 13.2422 55.7287 13.2422 53.5957C13.2422 52.4015 13.3822 51.3927 13.6622 50.5691C13.9423 49.7373 14.3293 49.0496 14.8235 48.5061C15.3176 47.9625 15.9023 47.559 16.5776 47.2955C17.253 47.0319 17.9818 46.9002 18.7642 46.9002C19.5383 46.9002 20.2178 47.0237 20.8025 47.2708C21.3872 47.5178 21.8731 47.8472 22.2602 48.259C22.6473 48.6626 22.9396 49.1279 23.1373 49.655C23.3432 50.182 23.4544 50.7297 23.4708 51.298C23.4708 51.4709 23.4626 51.6891 23.4461 51.9527C23.4379 52.208 23.4214 52.4468 23.3967 52.6692C23.3802 52.8833 23.3596 53.081 23.3349 53.2621C23.3185 53.4433 23.2979 53.5751 23.2732 53.6574H15.6017V54.1022C15.6017 54.8598 15.6923 55.5146 15.8735 56.0664C16.0547 56.6181 16.31 57.0587 16.6394 57.3882C16.9771 57.7094 17.3806 57.94 17.85 58.08C18.3195 58.2117 18.8383 58.2776 19.4066 58.2776C19.876 58.2776 20.3207 58.2529 20.7407 58.2035C21.169 58.1458 21.5478 58.0841 21.8772 58.0182C22.2643 57.9441 22.6226 57.8576 22.952 57.7588L22.7173 59.4141Z" fill="white"/>
<path d="M25.9786 53.5339C25.9786 52.6939 26.0486 51.9444 26.1886 51.2856C26.3368 50.6185 26.5345 50.0379 26.7815 49.5438C27.0368 49.0496 27.3333 48.6379 27.671 48.3084C28.0169 47.9708 28.3875 47.699 28.7828 47.4931C29.1863 47.279 29.6063 47.1266 30.0428 47.036C30.4875 46.9454 30.9323 46.9002 31.377 46.9002C31.9205 46.9002 32.4147 46.9372 32.8594 47.0113C33.3041 47.0772 33.6871 47.1555 34.0083 47.246C34.3871 47.3449 34.7248 47.4602 35.0212 47.5919L35.2065 49.2596C34.8853 49.1443 34.5353 49.0414 34.1565 48.9508C33.8353 48.8767 33.4647 48.8067 33.0447 48.7408C32.6247 48.6749 32.18 48.642 31.7105 48.642C31.1587 48.642 30.6687 48.7326 30.2405 48.9138C29.8205 49.0949 29.4663 49.3832 29.1781 49.7785C28.8981 50.1656 28.6839 50.6679 28.5357 51.2856C28.3875 51.9033 28.3133 52.6404 28.3133 53.4969C28.3133 54.3122 28.3875 55.0287 28.5357 55.6463C28.6839 56.264 28.8981 56.7705 29.1781 57.1658C29.4663 57.5529 29.8205 57.837 30.2405 58.0182C30.6687 58.1911 31.1587 58.2776 31.7105 58.2776C32.18 58.2776 32.6247 58.2488 33.0447 58.1911C33.4729 58.1253 33.8477 58.0553 34.1688 57.9811C34.5477 57.8905 34.8977 57.7917 35.2189 57.6847L35.0212 59.3276C34.7248 59.4594 34.3912 59.5747 34.0206 59.6735C33.7077 59.7641 33.3288 59.8424 32.8841 59.9083C32.4476 59.9741 31.9658 60.0071 31.4388 60.0071C30.7552 60.0071 30.0881 59.9041 29.4375 59.6982C28.7869 59.4841 28.2022 59.1259 27.6833 58.6235C27.1727 58.1129 26.7609 57.4376 26.448 56.5976C26.135 55.7493 25.9786 54.7281 25.9786 53.5339Z" fill="white"/>
<path d="M38.1837 42.2553L40.4691 42.0329V48.3578C40.8067 48.0943 41.1403 47.872 41.4697 47.6908C41.7991 47.5014 42.1368 47.349 42.4827 47.2337C42.8286 47.1184 43.1827 47.036 43.5451 46.9866C43.9157 46.929 44.311 46.9002 44.731 46.9002C45.4475 46.9002 46.0569 47.0072 46.5593 47.2213C47.0699 47.4272 47.4858 47.7649 47.807 48.2343C48.1282 48.6955 48.3588 49.2926 48.4988 50.0256C48.647 50.7503 48.7211 51.6315 48.7211 52.6692V59.7847H46.4358V52.8421C46.4358 52.0021 46.3863 51.3103 46.2875 50.7668C46.1887 50.2232 46.0404 49.795 45.8428 49.482C45.6534 49.1691 45.4145 48.9508 45.1263 48.8273C44.8463 48.7037 44.521 48.642 44.1504 48.642C43.7715 48.642 43.3927 48.7037 43.0139 48.8273C42.635 48.9426 42.2809 49.0785 41.9515 49.2349C41.6303 49.3832 41.3379 49.5314 41.0744 49.6797C40.8191 49.8197 40.6173 49.9144 40.4691 49.9638V59.7847H38.1837V42.2553Z" fill="white"/>
<path d="M7.57697 81.3428C6.37945 81.3428 5.30843 81.0982 4.3639 80.6091C3.43625 80.1199 2.70256 79.3609 2.16283 78.3321C1.63997 77.3032 1.37854 75.9876 1.37854 74.3853C1.37854 72.7155 1.65683 71.3578 2.21343 70.3121C2.77002 69.2663 3.52058 68.4989 4.4651 68.0098C5.42649 67.5207 6.51438 67.2761 7.72877 67.2761C8.42029 67.2761 9.08652 67.352 9.72745 67.5038C10.3684 67.6387 10.8912 67.8074 11.296 68.0098L10.6129 69.8567C10.2081 69.7049 9.73588 69.5615 9.19615 69.4266C8.65642 69.2916 8.15043 69.2242 7.67817 69.2242C6.76738 69.2242 6.01682 69.4181 5.42649 69.8061C4.83617 70.194 4.39764 70.7675 4.11091 71.5265C3.82418 72.2854 3.68081 73.23 3.68081 74.36C3.68081 75.4395 3.82418 76.3587 4.11091 77.1177C4.39764 77.8767 4.82773 78.4501 5.40119 78.8381C5.97465 79.226 6.69148 79.42 7.55167 79.42C8.29379 79.42 8.94315 79.3441 9.49975 79.1923C10.0732 79.0405 10.5961 78.8549 11.0683 78.6357V80.6091C10.6129 80.8452 10.1069 81.0223 9.55035 81.1404C9.01062 81.2753 8.35283 81.3428 7.57697 81.3428Z" fill="white"/>
<path d="M19.0607 68.2052C20.0078 68.2052 20.8313 68.3617 21.5313 68.6746C22.2396 68.9876 22.8243 69.4323 23.2855 70.0088C23.7467 70.577 24.0885 71.2647 24.3109 72.0718C24.5414 72.8789 24.6567 73.7848 24.6567 74.7895C24.6567 75.7449 24.5414 76.6261 24.3109 77.4332C24.0885 78.2402 23.7467 78.932 23.2855 79.5085C22.8243 80.0768 22.2396 80.5215 21.5313 80.8427C20.8313 81.1556 20.0078 81.3121 19.0607 81.3121C18.1053 81.3121 17.2735 81.1556 16.5653 80.8427C15.8653 80.5215 15.2847 80.0768 14.8235 79.5085C14.3623 78.932 14.0164 78.2402 13.7858 77.4332C13.5634 76.6261 13.4522 75.7449 13.4522 74.7895C13.4522 73.7848 13.5634 72.8789 13.7858 72.0718C14.0164 71.2647 14.3623 70.577 14.8235 70.0088C15.2847 69.4323 15.8653 68.9876 16.5653 68.6746C17.2735 68.3617 18.1053 68.2052 19.0607 68.2052ZM19.0607 79.5826C19.6783 79.5826 20.1972 79.4673 20.6172 79.2367C21.0372 79.0061 21.3749 78.6767 21.6302 78.2485C21.8937 77.8202 22.079 77.3096 22.1861 76.7167C22.3014 76.1155 22.359 75.4648 22.359 74.7648C22.359 73.9907 22.3014 73.3071 22.1861 72.7142C22.0708 72.1212 21.8814 71.6229 21.6178 71.2194C21.3625 70.8076 21.0249 70.4947 20.6048 70.2805C20.1848 70.0664 19.6701 69.9594 19.0607 69.9594C18.443 69.9594 17.9242 70.0664 17.5041 70.2805C17.0841 70.4947 16.7424 70.8076 16.4788 71.2194C16.2235 71.6229 16.0382 72.1212 15.9229 72.7142C15.8158 73.3071 15.7623 73.9907 15.7623 74.7648C15.7623 75.4648 15.8158 76.1155 15.9229 76.7167C16.0382 77.3096 16.2235 77.8202 16.4788 78.2485C16.7424 78.6767 17.0841 79.0061 17.5041 79.2367C17.9242 79.4673 18.443 79.5826 19.0607 79.5826Z" fill="white"/>
<path d="M41.6179 68.2052C42.7874 68.2052 43.648 68.617 44.1998 69.4405C44.7516 70.2558 45.0275 71.4953 45.0275 73.1589V81.0898H42.7297V74.1471C42.7297 73.3895 42.7009 72.7471 42.6433 72.22C42.5856 71.6847 42.4868 71.2523 42.3468 70.9229C42.215 70.5853 42.0338 70.3423 41.8032 70.1941C41.5726 70.0376 41.2844 69.9594 40.9385 69.9594C40.6503 69.9594 40.3291 70.0005 39.9749 70.0829C39.6208 70.1652 39.279 70.2641 38.9496 70.3794C38.6202 70.4947 38.3237 70.6223 38.0602 70.7623C37.8049 70.8941 37.6278 71.0094 37.529 71.1082C37.5537 71.2812 37.5825 71.5035 37.6154 71.7753C37.6401 72.0141 37.6607 72.3189 37.6772 72.6895C37.7019 73.0518 37.7143 73.4924 37.7143 74.0113V81.0898H35.4165V73.7148C35.4165 72.9653 35.3877 72.3477 35.3301 71.8618C35.2807 71.3759 35.1942 70.9929 35.0706 70.7129C34.9471 70.4247 34.7783 70.227 34.5642 70.1199C34.3583 70.0129 34.0988 69.9594 33.7859 69.9594C33.4235 69.9594 33.0694 70.0005 32.7235 70.0829C32.3776 70.157 32.0482 70.2517 31.7352 70.367C31.4305 70.4823 31.1464 70.61 30.8828 70.75C30.6275 70.8817 30.4052 71.0012 30.2158 71.1082V81.0898H27.9304V68.3534L29.524 68.2052L29.8575 69.6999C30.5164 69.214 31.204 68.8434 31.9205 68.5881C32.6453 68.3328 33.4194 68.2052 34.243 68.2052C35.0665 68.2052 35.713 68.3411 36.1824 68.6128C36.6601 68.8764 36.9937 69.2511 37.1831 69.737C37.4384 69.5229 37.7143 69.3211 38.0107 69.1317C38.3155 68.9423 38.649 68.7817 39.0114 68.6499C39.3737 68.5099 39.769 68.4028 40.1973 68.3287C40.6255 68.2464 41.0991 68.2052 41.6179 68.2052Z" fill="white"/>
<path d="M50.3147 68.2052L50.7224 69.6382C50.9941 69.4405 51.2783 69.2552 51.5748 69.0823C51.8795 68.9011 52.2089 68.7487 52.563 68.6252C52.9172 68.4934 53.3001 68.3905 53.7119 68.3164C54.1319 68.2422 54.5972 68.2052 55.1078 68.2052C55.8161 68.2052 56.4461 68.3369 56.9979 68.6005C57.5579 68.8558 58.0315 69.2511 58.4185 69.7864C58.8056 70.3135 59.098 70.9888 59.2956 71.8124C59.5015 72.6359 59.6045 73.6118 59.6045 74.7401C59.6045 75.8931 59.485 76.8896 59.2462 77.7296C59.0074 78.5614 58.6779 79.245 58.2579 79.7803C57.8462 80.3074 57.3561 80.6944 56.7879 80.9415C56.2279 81.1886 55.6225 81.3121 54.9719 81.3121C54.4037 81.3121 53.8848 81.2545 53.4154 81.1392C52.946 81.0321 52.5383 80.9086 52.1924 80.7686C51.7971 80.6121 51.4389 80.4268 51.1177 80.2127V86.0188L48.8323 86.2164V68.3411L50.3147 68.2052ZM51.1177 78.6438C51.4059 78.8167 51.7189 78.9732 52.0565 79.1132C52.3448 79.2285 52.6866 79.3356 53.0819 79.4344C53.4772 79.5332 53.9054 79.5826 54.3666 79.5826C54.8525 79.5826 55.2767 79.4962 55.639 79.3232C56.0096 79.142 56.3185 78.8538 56.5655 78.4585C56.8126 78.0549 56.9979 77.5361 57.1214 76.902C57.245 76.2678 57.3067 75.506 57.3067 74.6166C57.3067 72.9859 57.0844 71.8041 56.6396 71.0712C56.2032 70.33 55.5484 69.9594 54.6755 69.9594C54.1813 69.9594 53.7201 70.017 53.2919 70.1323C52.8636 70.2394 52.4889 70.3588 52.1677 70.4906C51.7889 70.6388 51.4389 70.8117 51.1177 71.0094V78.6438Z" fill="white"/>
<path d="M68.0295 75.4937C67.7906 75.4937 67.523 75.5019 67.2265 75.5184C66.9382 75.5266 66.6459 75.5554 66.3494 75.6049C66.0611 75.6543 65.7811 75.7284 65.5094 75.8272C65.2376 75.926 64.9946 76.0578 64.7805 76.2225C64.5746 76.3872 64.4058 76.6014 64.274 76.8649C64.1505 77.1202 64.0887 77.4249 64.0887 77.779C64.0887 78.4132 64.2905 78.8826 64.694 79.1873C65.1058 79.492 65.6864 79.6444 66.4359 79.6444C66.9547 79.6444 67.4241 79.5909 67.8442 79.4838C68.2724 79.3767 68.6389 79.2532 68.9436 79.1132C69.2977 78.9567 69.6189 78.7756 69.9072 78.5697V75.5678C69.7178 75.5513 69.516 75.539 69.3019 75.5307C69.1207 75.5225 68.9189 75.5184 68.6965 75.5184C68.4742 75.5101 68.2518 75.5019 68.0295 75.4937ZM72.1802 78.545C72.1802 78.8414 72.1967 79.072 72.2296 79.2367C72.2708 79.3932 72.3449 79.492 72.452 79.5332C72.5673 79.5826 72.7237 79.6032 72.9214 79.595C73.1273 79.5868 73.3167 79.5826 73.4896 79.5826L73.3291 81.0898C73.2138 81.1309 73.082 81.168 72.9337 81.2009C72.8102 81.2339 72.662 81.2586 72.489 81.275C72.3243 81.2998 72.1431 81.3121 71.9455 81.3121C71.6078 81.3121 71.3196 81.2503 71.0807 81.1268C70.8501 81.0115 70.6607 80.8715 70.5125 80.7068C70.3642 80.5421 70.2531 80.3485 70.1789 80.1262C70.1131 79.9038 70.0801 79.7432 70.0801 79.6444C69.8578 79.9574 69.5489 80.2374 69.1536 80.4844C68.816 80.6986 68.3712 80.8921 67.8195 81.065C67.2759 81.2298 66.5923 81.3121 65.7688 81.3121C65.2088 81.3121 64.694 81.2339 64.2246 81.0774C63.7634 80.9127 63.3681 80.6739 63.0387 80.3609C62.7093 80.048 62.454 79.6609 62.2728 79.1997C62.0916 78.7385 62.001 78.2361 62.001 77.6926C62.001 76.9514 62.1616 76.3461 62.4828 75.8766C62.804 75.4072 63.2281 75.0407 63.7552 74.7772C64.2823 74.5136 64.8835 74.3325 65.5588 74.2336C66.2423 74.1266 66.9424 74.073 67.6589 74.073C67.9471 74.073 68.2271 74.0854 68.4989 74.1101C68.7707 74.1266 69.0136 74.143 69.2277 74.1595C69.4748 74.2007 69.7013 74.2336 69.9072 74.2583V72.8624C69.9072 72.2118 69.8578 71.6847 69.7589 71.2812C69.6601 70.8776 69.4954 70.5688 69.2648 70.3547C69.0424 70.1405 68.7501 70.0005 68.3877 69.9346C68.0253 69.8605 67.5806 69.8235 67.0535 69.8235C66.5429 69.8235 66.0488 69.8646 65.5711 69.947C65.0935 70.0211 64.6611 70.1035 64.274 70.1941C63.8211 70.3011 63.3969 70.4288 63.0016 70.577L63.2487 68.8599C63.5616 68.7199 63.9199 68.5922 64.3234 68.477C64.6693 68.3781 65.0852 68.2875 65.5711 68.2052C66.057 68.1228 66.6088 68.0816 67.2265 68.0816C68.223 68.0816 69.0424 68.1805 69.6848 68.3781C70.3272 68.5675 70.8337 68.8805 71.2043 69.317C71.5749 69.7452 71.8302 70.3094 71.9702 71.0094C72.1102 71.7012 72.1802 72.5453 72.1802 73.5418V78.545Z" fill="white"/>
<path d="M76.2815 68.3534L77.8751 68.2052L78.2086 69.6999C78.4063 69.5517 78.6492 69.3911 78.9375 69.2182C79.234 69.037 79.5675 68.8723 79.9381 68.724C80.3169 68.5758 80.7328 68.4522 81.1858 68.3534C81.647 68.2546 82.137 68.2052 82.6559 68.2052C83.3065 68.2052 83.883 68.2999 84.3853 68.4893C84.8959 68.6705 85.3283 68.967 85.6824 69.3787C86.0366 69.7823 86.3042 70.3135 86.4854 70.9723C86.6748 71.6312 86.7695 72.4342 86.7695 73.3812V81.0898H84.4842V73.8754C84.4842 73.2001 84.4471 72.6153 84.373 72.1212C84.2989 71.6271 84.1753 71.2194 84.0024 70.8982C83.8294 70.577 83.5947 70.3423 83.2982 70.1941C83.01 70.0376 82.6476 69.9594 82.2111 69.9594C81.7499 69.9594 81.3011 70.0211 80.8646 70.1447C80.4364 70.2682 80.0493 70.4 79.7034 70.54C79.3081 70.7047 78.9293 70.8941 78.5669 71.1082V81.0898H76.2815V68.3534Z" fill="white"/>
<path d="M94.5275 79.4097L97.5787 68.3534H100L95.6393 81.831C95.4004 82.5639 95.1781 83.2145 94.9722 83.7828C94.7745 84.351 94.5522 84.8287 94.3051 85.2158C94.0663 85.6029 93.7863 85.8952 93.4651 86.0929C93.1521 86.2905 92.765 86.3894 92.3038 86.3894C91.7932 86.3894 91.3279 86.3399 90.9079 86.2411C90.4879 86.1423 90.1255 86.0311 89.8208 85.9076C89.4667 85.7676 89.1455 85.607 88.8573 85.4258L89.0179 83.8693C89.3473 84.001 89.6767 84.1122 90.0061 84.2028C90.2944 84.2852 90.6032 84.3593 90.9326 84.4252C91.2703 84.491 91.5956 84.524 91.9085 84.524C92.0897 84.524 92.2421 84.4869 92.3656 84.4128C92.4892 84.3469 92.5921 84.2481 92.6744 84.1163C92.765 83.9928 92.8392 83.8363 92.8968 83.6469C92.9627 83.4575 93.0286 83.2392 93.0945 82.9922L93.3909 81.6704L88.9931 68.3534H91.4515L94.5275 79.4097Z" fill="white"/>
<path d="M1.46901 26.6911V12.8734L3.93847 14.0992L3.92786 23.4559L14.1631 28.6588V32.9235L1.46901 26.6911Z" fill="#F0B270" fill-opacity="0.17"/>
<path d="M18.3389 11.3441L5.14587 4.66039L4.94775 4.78472L18.1553 11.4192L18.3389 11.3441Z" fill="#787878" fill-opacity="0.67"/>
<path d="M8.19476 16.0356L14.0856 13.2181L14.2563 13.3033L8.36467 16.1208L8.19476 16.0356Z" fill="#787878"/>
<path d="M0.257645 12.0269L14.2119 19.0735L13.9904 19.1916L0.00314675 12.1122L0.257645 12.0269Z" fill="url(#paint0_linear_2086_22538)"/>
<path d="M14.1709 19.1063H14.3335V34.2886H14.1629L14.1709 19.1063Z" fill="url(#paint1_linear_2086_22538)"/>
<path d="M3.87983 14.0736L4.06887 14.1445V23.5413L3.87983 23.4429V14.0736Z" fill="url(#paint2_linear_2086_22538)"/>
<path d="M23.1605 13.0047V9.32847L27.8947 7.07956L29.3987 7.91616V21.6345L25.4208 19.6177L25.4211 14.1589L23.1605 13.0047Z" fill="#736AE4" fill-opacity="0.21"/>
<path d="M25.4233 23.5415V19.8278L29.3468 21.7504L25.4233 23.5415Z" fill="url(#paint3_linear_2086_22538)"/>
<path d="M23.125 12.9796L25.4159 14.1326L25.3309 14.3015L23.04 13.1485L23.125 12.9796Z" fill="#787878"/>
<path d="M18.1434 26.8004L24.0496 29.7728L23.9646 29.9417L18.0584 26.9693L18.1434 26.8004Z" fill="#F0B270"/>
<path d="M25.4233 19.6216L29.4716 21.665L29.4267 21.8353L25.4233 19.8373L25.4233 19.6216Z" fill="#736AE4"/>
<path d="M24.6664 23.9653L30.5418 26.9221L30.4568 27.091L24.4868 24.0532L24.6664 23.9653Z" fill="#F0B270"/>
<path d="M22.971 9.2205H23.16V15.0806H22.971V9.2205Z" fill="#787878"/>
<path d="M25.2396 14.1351H25.4287V23.5869H25.2396V14.1351Z" fill="#787878"/>
<path d="M4.099 4.34998L5.12252 4.52057V9.97937L4.099 10.3746V4.34998Z" fill="#736AE4"/>
<path d="M0 12.1119L1.46503 12.6782V26.7061L0 27.3677V12.1119Z" fill="#F0B270"/>
<path d="M1.46503 26.7061L14.1588 32.9235V34.4588L0 27.3677L1.46503 26.7061Z" fill="#F0B270"/>
<path d="M18.1552 17.4433L18.3458 17.3148L18.3443 26.8951H18.1552V17.4433Z" fill="#787878"/>
<path d="M23.2032 9.12652L10.1072 2.50928L9.89799 2.55889L22.9473 9.21181L23.2032 9.12652Z" fill="#787878"/>
<path d="M20.495 16.2327L7.63107 9.75878L7.54609 9.92764L20.41 16.4016L20.495 16.2327Z" fill="url(#paint4_linear_2086_22538)"/>
<path d="M14.0859 19.0945L25.1941 14.0934L25.2717 14.2658L14.2471 19.1916L14.0859 19.0945Z" fill="#787878"/>
<path d="M14.1604 34.1179L30.5345 26.912L30.6121 27.0843L14.1603 34.4592L14.1604 34.1179Z" fill="#F0B270"/>
<path d="M5.46731 22.8591L15.0202 18.6798V18.8503L5.64353 22.9913L5.46731 22.8591Z" fill="url(#paint5_linear_2086_22538)"/>
<path d="M10.7517 7.50609L20.5363 3.32882L20.6102 3.50279L10.9223 7.67666L10.7517 7.50609Z" fill="url(#paint6_linear_2086_22538)"/>
<path d="M23.1842 9.10759L27.753 7.00861L27.8944 7.16487L23.2631 9.27937L23.1842 9.10759Z" fill="url(#paint7_linear_2086_22538)"/>
<path d="M4.099 4.34998L13.9927 0L14.7899 0.412569L4.96663 4.92555L4.099 4.34998Z" fill="#736AE4"/>
<path d="M0 12.1119L10.747 7.50601L11.7705 8.01777L1.19411 12.5383L0 12.1119Z" fill="#F1AE66"/>
<path d="M5.63316 22.9443L14.1625 19.1426V27.1237L5.63316 22.9443Z" fill="#F0B270" fill-opacity="0.16"/>
<path d="M5.46325 22.8591L14.1625 27.1237L14.1631 28.6588L3.97461 23.4927L5.46325 22.8591Z" fill="#F0B270"/>
<path d="M13.9944 0.000204921L29.5182 7.76194L29.5183 8.0178L14.5637 0.455168L13.9944 0.000204921Z" fill="#736AE4"/>
<path d="M14.3366 28.4884L29.263 21.7502L29.5188 21.8355L14.3366 28.7443V28.4884Z" fill="#787878"/>
<path d="M29.3446 7.90798L29.5152 7.84738V21.8356L29.3446 21.7815V7.90798Z" fill="#736AE4"/>
<path d="M18.5936 11.2589H18.7642V15.5236L18.5936 15.4347V11.2589Z" fill="url(#paint8_linear_2086_22538)"/>
<path d="M14.3702 13.157L23.1842 9.10759L23.2631 9.27937L14.4491 13.3288L14.3702 13.157Z" fill="url(#paint9_linear_2086_22538)"/>
<defs>
<linearGradient id="paint0_linear_2086_22538" x1="124.373" y1="156.053" x2="6.45116" y2="156.026" gradientUnits="userSpaceOnUse">
<stop stop-color="#787878"/>
<stop offset="0.953125" stop-color="#EFB97F"/>
</linearGradient>
<linearGradient id="paint1_linear_2086_22538" x1="50" y1="0" x2="50.0046" y2="100.158" gradientUnits="userSpaceOnUse">
<stop stop-color="#787878"/>
<stop offset="1" stop-color="#F0B270"/>
</linearGradient>
<linearGradient id="paint2_linear_2086_22538" x1="70.5003" y1="0" x2="70.4942" y2="86.3908" gradientUnits="userSpaceOnUse">
<stop stop-color="#E0AF7C"/>
<stop offset="0.0571334" stop-color="#787878"/>
<stop offset="0.785457" stop-color="#8A8177"/>
<stop offset="1" stop-color="#F0B270"/>
</linearGradient>
<linearGradient id="paint3_linear_2086_22538" x1="58.6956" y1="10.9922" x2="0.893604" y2="95.4333" gradientUnits="userSpaceOnUse">
<stop stop-color="#736AE4" stop-opacity="0.21"/>
<stop offset="1" stop-color="#F0B270" stop-opacity="0.15"/>
</linearGradient>
<linearGradient id="paint4_linear_2086_22538" x1="-5.88709" y1="271.298" x2="107.747" y2="271.31" gradientUnits="userSpaceOnUse">
<stop stop-color="#F0B270"/>
<stop offset="1" stop-color="#F0B270" stop-opacity="0.09"/>
</linearGradient>
<linearGradient id="paint5_linear_2086_22538" x1="-9.57458" y1="-9.73782" x2="99.6058" y2="-9.69961" gradientUnits="userSpaceOnUse">
<stop stop-color="#F0B270"/>
<stop offset="0.922557" stop-color="#787878"/>
</linearGradient>
<linearGradient id="paint6_linear_2086_22538" x1="0.198106" y1="100.652" x2="110.177" y2="100.599" gradientUnits="userSpaceOnUse">
<stop stop-color="#F0B270"/>
<stop offset="1" stop-color="#141414"/>
</linearGradient>
<linearGradient id="paint7_linear_2086_22538" x1="-8.01043" y1="49.4848" x2="106.665" y2="49.4489" gradientUnits="userSpaceOnUse">
<stop stop-color="#7A7671"/>
<stop offset="1" stop-color="#736AE4"/>
</linearGradient>
<linearGradient id="paint8_linear_2086_22538" x1="50" y1="0" x2="50" y2="86.3894" gradientUnits="userSpaceOnUse">
<stop stop-color="#83705C"/>
<stop offset="1" stop-color="#C7955F"/>
</linearGradient>
<linearGradient id="paint9_linear_2086_22538" x1="14.1688" y1="13.4766" x2="23.5511" y2="9.12662" gradientUnits="userSpaceOnUse">
<stop stop-color="#8D6942"/>
<stop offset="1" stop-color="#787878"/>
</linearGradient>
</defs>
</svg>
