<svg width="100" height="100" viewBox="0 0 100 100" fill="none" xmlns="http://www.w3.org/2000/svg">
<rect width="100" height="100" fill="black"/>
<path d="M7.99204 50.8118V66.7847H5.68196V50.8118H0.592369V49.0329H13.1187L12.8222 50.8118H7.99204Z" fill="white"/>
<path d="M18.8136 55.5926C18.4265 55.5926 18.0518 55.6543 17.6894 55.7779C17.3353 55.8932 17.0141 56.0908 16.7259 56.3708C16.4376 56.6508 16.1947 57.0214 15.997 57.4826C15.8076 57.9356 15.6882 58.5327 15.6388 59.2739H21.4819C21.4819 59.1421 21.486 59.0392 21.4943 58.965C21.5025 58.8992 21.5066 58.8333 21.5066 58.7674C21.5066 58.7015 21.5066 58.6397 21.5066 58.5821C21.4902 58.055 21.4119 57.6062 21.2719 57.2356C21.1319 56.8567 20.9425 56.5479 20.7037 56.3091C20.4648 56.062 20.1848 55.8808 19.8636 55.7655C19.5425 55.6502 19.1924 55.5926 18.8136 55.5926ZM22.7173 66.4141C22.4208 66.5212 22.0914 66.62 21.729 66.7106C21.416 66.7847 21.0496 66.8506 20.6295 66.9083C20.2095 66.9741 19.7483 67.0071 19.246 67.0071C17.253 67.0071 15.7541 66.4718 14.7493 65.4011C13.7446 64.3305 13.2422 62.7287 13.2422 60.5957C13.2422 59.4015 13.3822 58.3927 13.6622 57.5691C13.9423 56.7373 14.3293 56.0496 14.8235 55.5061C15.3176 54.9625 15.9023 54.559 16.5776 54.2955C17.253 54.0319 17.9818 53.9002 18.7642 53.9002C19.5383 53.9002 20.2178 54.0237 20.8025 54.2708C21.3872 54.5178 21.8731 54.8472 22.2602 55.259C22.6473 55.6626 22.9396 56.1279 23.1373 56.655C23.3432 57.182 23.4544 57.7297 23.4708 58.298C23.4708 58.4709 23.4626 58.6891 23.4461 58.9527C23.4379 59.208 23.4214 59.4468 23.3967 59.6692C23.3802 59.8833 23.3596 60.081 23.3349 60.2621C23.3185 60.4433 23.2979 60.5751 23.2732 60.6574H15.6017V61.1022C15.6017 61.8598 15.6923 62.5146 15.8735 63.0664C16.0547 63.6181 16.31 64.0587 16.6394 64.3882C16.9771 64.7094 17.3806 64.94 17.85 65.08C18.3195 65.2117 18.8383 65.2776 19.4066 65.2776C19.876 65.2776 20.3207 65.2529 20.7407 65.2035C21.169 65.1458 21.5478 65.0841 21.8772 65.0182C22.2643 64.9441 22.6226 64.8576 22.952 64.7588L22.7173 66.4141Z" fill="white"/>
<path d="M25.9786 60.5339C25.9786 59.6939 26.0486 58.9444 26.1886 58.2856C26.3368 57.6185 26.5345 57.0379 26.7815 56.5438C27.0368 56.0496 27.3333 55.6379 27.671 55.3084C28.0169 54.9708 28.3875 54.699 28.7828 54.4931C29.1863 54.279 29.6063 54.1266 30.0428 54.036C30.4875 53.9454 30.9323 53.9002 31.377 53.9002C31.9205 53.9002 32.4147 53.9372 32.8594 54.0113C33.3041 54.0772 33.6871 54.1555 34.0083 54.246C34.3871 54.3449 34.7248 54.4602 35.0212 54.5919L35.2065 56.2596C34.8853 56.1443 34.5353 56.0414 34.1565 55.9508C33.8353 55.8767 33.4647 55.8067 33.0447 55.7408C32.6247 55.6749 32.18 55.642 31.7105 55.642C31.1587 55.642 30.6687 55.7326 30.2405 55.9138C29.8205 56.0949 29.4663 56.3832 29.1781 56.7785C28.8981 57.1656 28.6839 57.6679 28.5357 58.2856C28.3875 58.9033 28.3133 59.6404 28.3133 60.4969C28.3133 61.3122 28.3875 62.0287 28.5357 62.6463C28.6839 63.264 28.8981 63.7705 29.1781 64.1658C29.4663 64.5529 29.8205 64.837 30.2405 65.0182C30.6687 65.1911 31.1587 65.2776 31.7105 65.2776C32.18 65.2776 32.6247 65.2488 33.0447 65.1911C33.4729 65.1253 33.8477 65.0553 34.1688 64.9811C34.5477 64.8905 34.8977 64.7917 35.2189 64.6847L35.0212 66.3276C34.7248 66.4594 34.3912 66.5747 34.0206 66.6735C33.7077 66.7641 33.3288 66.8424 32.8841 66.9083C32.4476 66.9741 31.9658 67.0071 31.4388 67.0071C30.7552 67.0071 30.0881 66.9041 29.4375 66.6983C28.7869 66.4841 28.2022 66.1259 27.6833 65.6235C27.1727 65.1129 26.7609 64.4376 26.448 63.5976C26.135 62.7493 25.9786 61.7281 25.9786 60.5339Z" fill="white"/>
<path d="M38.1837 49.2553L40.4691 49.0329V55.3579C40.8067 55.0943 41.1403 54.872 41.4697 54.6908C41.7991 54.5013 42.1368 54.349 42.4827 54.2337C42.8286 54.1184 43.1827 54.036 43.5451 53.9866C43.9157 53.929 44.311 53.9002 44.731 53.9002C45.4475 53.9002 46.0569 54.0072 46.5593 54.2213C47.0699 54.4272 47.4858 54.7649 47.807 55.2343C48.1282 55.6955 48.3588 56.2926 48.4988 57.0256C48.647 57.7503 48.7211 58.6315 48.7211 59.6692V66.7847H46.4358V59.8421C46.4358 59.0021 46.3863 58.3103 46.2875 57.7668C46.1887 57.2232 46.0404 56.795 45.8428 56.482C45.6534 56.1691 45.4145 55.9508 45.1263 55.8273C44.8463 55.7037 44.521 55.642 44.1504 55.642C43.7715 55.642 43.3927 55.7037 43.0139 55.8273C42.635 55.9426 42.2809 56.0785 41.9515 56.2349C41.6303 56.3832 41.3379 56.5314 41.0744 56.6797C40.8191 56.8197 40.6173 56.9144 40.4691 56.9638V66.7847H38.1837V49.2553Z" fill="white"/>
<path d="M7.57697 88.3428C6.37945 88.3428 5.30843 88.0982 4.3639 87.6091C3.43625 87.1199 2.70256 86.3609 2.16283 85.3321C1.63997 84.3032 1.37854 82.9876 1.37854 81.3853C1.37854 79.7155 1.65683 78.3578 2.21343 77.3121C2.77002 76.2664 3.52058 75.4989 4.4651 75.0098C5.42649 74.5207 6.51438 74.2761 7.72877 74.2761C8.42029 74.2761 9.08652 74.352 9.72745 74.5038C10.3684 74.6387 10.8912 74.8074 11.296 75.0098L10.6129 76.8567C10.2081 76.7049 9.73588 76.5615 9.19615 76.4266C8.65642 76.2916 8.15043 76.2242 7.67817 76.2242C6.76738 76.2242 6.01682 76.4181 5.42649 76.8061C4.83617 77.194 4.39764 77.7675 4.11091 78.5265C3.82418 79.2854 3.68081 80.23 3.68081 81.36C3.68081 82.4395 3.82418 83.3587 4.11091 84.1177C4.39764 84.8767 4.82773 85.4501 5.40119 85.8381C5.97465 86.226 6.69148 86.42 7.55167 86.42C8.29379 86.42 8.94315 86.3441 9.49975 86.1923C10.0732 86.0405 10.5961 85.8549 11.0683 85.6357V87.6091C10.6129 87.8452 10.1069 88.0223 9.55035 88.1404C9.01062 88.2753 8.35283 88.3428 7.57697 88.3428Z" fill="white"/>
<path d="M19.0607 75.2052C20.0078 75.2052 20.8313 75.3617 21.5313 75.6746C22.2396 75.9876 22.8243 76.4323 23.2855 77.0088C23.7467 77.577 24.0885 78.2647 24.3109 79.0718C24.5414 79.8789 24.6567 80.7848 24.6567 81.7895C24.6567 82.7449 24.5414 83.6261 24.3109 84.4331C24.0885 85.2402 23.7467 85.932 23.2855 86.5085C22.8243 87.0768 22.2396 87.5215 21.5313 87.8427C20.8313 88.1556 20.0078 88.3121 19.0607 88.3121C18.1053 88.3121 17.2735 88.1556 16.5653 87.8427C15.8653 87.5215 15.2847 87.0768 14.8235 86.5085C14.3623 85.932 14.0164 85.2402 13.7858 84.4331C13.5634 83.6261 13.4522 82.7449 13.4522 81.7895C13.4522 80.7848 13.5634 79.8789 13.7858 79.0718C14.0164 78.2647 14.3623 77.577 14.8235 77.0088C15.2847 76.4323 15.8653 75.9876 16.5653 75.6746C17.2735 75.3617 18.1053 75.2052 19.0607 75.2052ZM19.0607 86.5826C19.6783 86.5826 20.1972 86.4673 20.6172 86.2367C21.0372 86.0061 21.3749 85.6767 21.6302 85.2485C21.8937 84.8202 22.079 84.3096 22.1861 83.7167C22.3014 83.1155 22.359 82.4648 22.359 81.7648C22.359 80.9907 22.3014 80.3071 22.1861 79.7142C22.0708 79.1212 21.8814 78.6229 21.6178 78.2194C21.3625 77.8076 21.0249 77.4947 20.6048 77.2805C20.1848 77.0664 19.6701 76.9594 19.0607 76.9594C18.443 76.9594 17.9242 77.0664 17.5041 77.2805C17.0841 77.4947 16.7424 77.8076 16.4788 78.2194C16.2235 78.6229 16.0382 79.1212 15.9229 79.7142C15.8158 80.3071 15.7623 80.9907 15.7623 81.7648C15.7623 82.4648 15.8158 83.1155 15.9229 83.7167C16.0382 84.3096 16.2235 84.8202 16.4788 85.2485C16.7424 85.6767 17.0841 86.0061 17.5041 86.2367C17.9242 86.4673 18.443 86.5826 19.0607 86.5826Z" fill="white"/>
<path d="M41.6179 75.2052C42.7874 75.2052 43.648 75.617 44.1998 76.4405C44.7516 77.2558 45.0275 78.4953 45.0275 80.1589V88.0897H42.7297V81.1472C42.7297 80.3895 42.7009 79.7471 42.6433 79.22C42.5856 78.6847 42.4868 78.2523 42.3468 77.9229C42.215 77.5853 42.0338 77.3423 41.8032 77.1941C41.5726 77.0376 41.2844 76.9594 40.9385 76.9594C40.6503 76.9594 40.3291 77.0005 39.9749 77.0829C39.6208 77.1652 39.279 77.2641 38.9496 77.3794C38.6202 77.4947 38.3237 77.6223 38.0602 77.7623C37.8049 77.8941 37.6278 78.0094 37.529 78.1082C37.5537 78.2812 37.5825 78.5035 37.6154 78.7753C37.6401 79.0141 37.6607 79.3189 37.6772 79.6895C37.7019 80.0518 37.7143 80.4924 37.7143 81.0113V88.0897H35.4165V80.7148C35.4165 79.9653 35.3877 79.3477 35.3301 78.8618C35.2807 78.3759 35.1942 77.9929 35.0706 77.7129C34.9471 77.4247 34.7783 77.227 34.5642 77.12C34.3583 77.0129 34.0988 76.9594 33.7859 76.9594C33.4235 76.9594 33.0694 77.0005 32.7235 77.0829C32.3776 77.157 32.0482 77.2517 31.7352 77.367C31.4305 77.4823 31.1464 77.61 30.8828 77.75C30.6275 77.8817 30.4052 78.0012 30.2158 78.1082V88.0897H27.9304V75.3534L29.524 75.2052L29.8575 76.6999C30.5164 76.214 31.204 75.8434 31.9205 75.5881C32.6453 75.3328 33.4194 75.2052 34.243 75.2052C35.0665 75.2052 35.713 75.3411 36.1824 75.6128C36.6601 75.8764 36.9937 76.2511 37.1831 76.737C37.4384 76.5229 37.7143 76.3211 38.0107 76.1317C38.3155 75.9423 38.649 75.7817 39.0114 75.6499C39.3737 75.5099 39.769 75.4028 40.1973 75.3287C40.6255 75.2464 41.0991 75.2052 41.6179 75.2052Z" fill="white"/>
<path d="M50.3147 75.2052L50.7224 76.6382C50.9941 76.4405 51.2783 76.2552 51.5748 76.0823C51.8795 75.9011 52.2089 75.7487 52.563 75.6252C52.9172 75.4934 53.3001 75.3905 53.7119 75.3164C54.1319 75.2422 54.5972 75.2052 55.1078 75.2052C55.8161 75.2052 56.4461 75.3369 56.9979 75.6005C57.5579 75.8558 58.0315 76.2511 58.4185 76.7864C58.8056 77.3135 59.098 77.9888 59.2956 78.8124C59.5015 79.6359 59.6045 80.6118 59.6045 81.7401C59.6045 82.8931 59.485 83.8896 59.2462 84.7296C59.0074 85.5614 58.6779 86.245 58.2579 86.7803C57.8462 87.3074 57.3561 87.6944 56.7879 87.9415C56.2279 88.1886 55.6225 88.3121 54.9719 88.3121C54.4037 88.3121 53.8848 88.2545 53.4154 88.1392C52.946 88.0321 52.5383 87.9086 52.1924 87.7686C51.7971 87.6121 51.4389 87.4268 51.1177 87.2127V93.0188L48.8323 93.2164V75.3411L50.3147 75.2052ZM51.1177 85.6438C51.4059 85.8167 51.7189 85.9732 52.0565 86.1132C52.3448 86.2285 52.6866 86.3356 53.0819 86.4344C53.4772 86.5332 53.9054 86.5826 54.3666 86.5826C54.8525 86.5826 55.2767 86.4962 55.639 86.3232C56.0096 86.142 56.3185 85.8538 56.5655 85.4585C56.8126 85.0549 56.9979 84.5361 57.1214 83.902C57.245 83.2678 57.3067 82.506 57.3067 81.6166C57.3067 79.9859 57.0844 78.8041 56.6396 78.0712C56.2032 77.33 55.5484 76.9594 54.6755 76.9594C54.1813 76.9594 53.7201 77.017 53.2919 77.1323C52.8636 77.2394 52.4889 77.3588 52.1677 77.4906C51.7889 77.6388 51.4389 77.8117 51.1177 78.0094V85.6438Z" fill="white"/>
<path d="M68.0295 82.4937C67.7906 82.4937 67.523 82.5019 67.2265 82.5184C66.9382 82.5266 66.6459 82.5554 66.3494 82.6048C66.0612 82.6543 65.7811 82.7284 65.5094 82.8272C65.2376 82.926 64.9946 83.0578 64.7805 83.2225C64.5746 83.3872 64.4058 83.6014 64.274 83.8649C64.1505 84.1202 64.0887 84.4249 64.0887 84.779C64.0887 85.4132 64.2905 85.8826 64.694 86.1873C65.1058 86.492 65.6864 86.6444 66.4359 86.6444C66.9547 86.6444 67.4241 86.5909 67.8442 86.4838C68.2724 86.3767 68.6389 86.2532 68.9436 86.1132C69.2977 85.9567 69.6189 85.7756 69.9072 85.5697V82.5678C69.7178 82.5513 69.516 82.539 69.3019 82.5307C69.1207 82.5225 68.9189 82.5184 68.6965 82.5184C68.4742 82.5101 68.2518 82.5019 68.0295 82.4937ZM72.1802 85.545C72.1802 85.8414 72.1967 86.072 72.2296 86.2367C72.2708 86.3932 72.3449 86.492 72.452 86.5332C72.5673 86.5826 72.7237 86.6032 72.9214 86.595C73.1273 86.5868 73.3167 86.5826 73.4896 86.5826L73.3291 88.0897C73.2138 88.1309 73.082 88.168 72.9337 88.2009C72.8102 88.2339 72.662 88.2586 72.489 88.2751C72.3243 88.2998 72.1431 88.3121 71.9455 88.3121C71.6078 88.3121 71.3196 88.2503 71.0807 88.1268C70.8501 88.0115 70.6607 87.8715 70.5125 87.7068C70.3642 87.5421 70.2531 87.3485 70.1789 87.1262C70.1131 86.9038 70.0801 86.7432 70.0801 86.6444C69.8578 86.9574 69.5489 87.2374 69.1536 87.4844C68.816 87.6986 68.3712 87.8921 67.8194 88.065C67.2759 88.2298 66.5923 88.3121 65.7688 88.3121C65.2088 88.3121 64.694 88.2339 64.2246 88.0774C63.7634 87.9127 63.3681 87.6739 63.0387 87.3609C62.7093 87.0479 62.454 86.6609 62.2728 86.1997C62.0916 85.7385 62.001 85.2361 62.001 84.6926C62.001 83.9514 62.1616 83.3461 62.4828 82.8766C62.804 82.4072 63.2281 82.0407 63.7552 81.7772C64.2823 81.5136 64.8835 81.3325 65.5588 81.2336C66.2423 81.1266 66.9424 81.073 67.6589 81.073C67.9471 81.073 68.2271 81.0854 68.4989 81.1101C68.7707 81.1266 69.0136 81.143 69.2277 81.1595C69.4748 81.2007 69.7013 81.2336 69.9072 81.2583V79.8624C69.9072 79.2118 69.8578 78.6847 69.7589 78.2812C69.6601 77.8776 69.4954 77.5688 69.2648 77.3547C69.0424 77.1405 68.7501 77.0005 68.3877 76.9346C68.0253 76.8605 67.5806 76.8235 67.0535 76.8235C66.5429 76.8235 66.0488 76.8646 65.5711 76.947C65.0935 77.0211 64.6611 77.1035 64.274 77.1941C63.8211 77.3011 63.3969 77.4288 63.0016 77.577L63.2487 75.8599C63.5617 75.7199 63.9199 75.5922 64.3234 75.477C64.6693 75.3781 65.0852 75.2875 65.5711 75.2052C66.057 75.1228 66.6088 75.0816 67.2265 75.0816C68.223 75.0816 69.0424 75.1805 69.6848 75.3781C70.3272 75.5675 70.8337 75.8805 71.2043 76.317C71.5749 76.7452 71.8302 77.3094 71.9702 78.0094C72.1102 78.7012 72.1802 79.5453 72.1802 80.5418V85.545Z" fill="white"/>
<path d="M76.2815 75.3534L77.8751 75.2052L78.2086 76.6999C78.4063 76.5517 78.6492 76.3911 78.9375 76.2182C79.234 76.037 79.5675 75.8723 79.9381 75.724C80.3169 75.5758 80.7328 75.4522 81.1858 75.3534C81.647 75.2546 82.137 75.2052 82.6559 75.2052C83.3065 75.2052 83.883 75.2999 84.3853 75.4893C84.8959 75.6705 85.3283 75.967 85.6824 76.3787C86.0366 76.7823 86.3042 77.3135 86.4854 77.9723C86.6748 78.6312 86.7695 79.4341 86.7695 80.3812V88.0897H84.4842V80.8754C84.4842 80.2001 84.4471 79.6153 84.373 79.1212C84.2989 78.6271 84.1753 78.2194 84.0024 77.8982C83.8294 77.577 83.5947 77.3423 83.2982 77.1941C83.01 77.0376 82.6476 76.9594 82.2111 76.9594C81.7499 76.9594 81.3011 77.0211 80.8646 77.1447C80.4364 77.2682 80.0493 77.4 79.7034 77.54C79.3081 77.7047 78.9293 77.8941 78.5669 78.1082V88.0897H76.2815V75.3534Z" fill="white"/>
<path d="M94.5275 86.4097L97.5787 75.3534H100L95.6393 88.831C95.4004 89.5639 95.1781 90.2145 94.9722 90.7828C94.7745 91.351 94.5522 91.8287 94.3051 92.2158C94.0663 92.6029 93.7863 92.8952 93.4651 93.0929C93.1521 93.2905 92.765 93.3894 92.3038 93.3894C91.7932 93.3894 91.3279 93.3399 90.9079 93.2411C90.4879 93.1423 90.1255 93.0311 89.8208 92.9076C89.4667 92.7676 89.1455 92.607 88.8573 92.4258L89.0178 90.8693C89.3473 91.001 89.6767 91.1122 90.0061 91.2028C90.2944 91.2852 90.6032 91.3593 90.9326 91.4252C91.2703 91.491 91.5956 91.524 91.9085 91.524C92.0897 91.524 92.2421 91.4869 92.3656 91.4128C92.4891 91.3469 92.5921 91.2481 92.6744 91.1163C92.765 90.9928 92.8392 90.8363 92.8968 90.6469C92.9627 90.4575 93.0286 90.2392 93.0945 89.9922L93.3909 88.6704L88.9931 75.3534H91.4515L94.5275 86.4097Z" fill="white"/>
<path d="M1.46901 33.6911V19.8734L3.93847 21.0992L3.92786 30.4559L14.1631 35.6588V39.9235L1.46901 33.6911Z" fill="#F0B270" fill-opacity="0.17"/>
<path d="M18.3389 18.3441L5.14587 11.6604L4.94775 11.7847L18.1553 18.4192L18.3389 18.3441Z" fill="#787878" fill-opacity="0.67"/>
<path d="M8.19476 23.0356L14.0856 20.2181L14.2563 20.3033L8.36467 23.1208L8.19476 23.0356Z" fill="#787878"/>
<path d="M0.257645 19.0269L14.2119 26.0735L13.9904 26.1916L0.00314675 19.1122L0.257645 19.0269Z" fill="url(#paint0_linear_2086_22499)"/>
<path d="M14.1709 26.1063H14.3335V41.2886H14.1629L14.1709 26.1063Z" fill="url(#paint1_linear_2086_22499)"/>
<path d="M3.87983 21.0736L4.06887 21.1445V30.5413L3.87983 30.4429V21.0736Z" fill="url(#paint2_linear_2086_22499)"/>
<path d="M23.1605 20.0047V16.3285L27.8947 14.0796L29.3987 14.9162V28.6345L25.4208 26.6177L25.4211 21.1589L23.1605 20.0047Z" fill="#736AE4" fill-opacity="0.21"/>
<path d="M25.4233 30.5416V26.8278L29.3468 28.7504L25.4233 30.5416Z" fill="url(#paint3_linear_2086_22499)"/>
<path d="M23.125 19.9796L25.4159 21.1326L25.3309 21.3015L23.04 20.1485L23.125 19.9796Z" fill="#787878"/>
<path d="M18.1434 33.8004L24.0496 36.7728L23.9646 36.9417L18.0584 33.9693L18.1434 33.8004Z" fill="#F0B270"/>
<path d="M25.4233 26.6216L29.4716 28.665L29.4267 28.8353L25.4233 26.8373L25.4233 26.6216Z" fill="#736AE4"/>
<path d="M24.6664 30.9653L30.5418 33.9221L30.4568 34.091L24.4868 31.0532L24.6664 30.9653Z" fill="#F0B270"/>
<path d="M22.971 16.2205H23.16V22.0806H22.971V16.2205Z" fill="#787878"/>
<path d="M25.2396 21.1351H25.4287V30.5869H25.2396V21.1351Z" fill="#787878"/>
<path d="M4.099 11.35L5.12252 11.5206V16.9794L4.099 17.3746V11.35Z" fill="#736AE4"/>
<path d="M0 19.1119L1.46503 19.6782V33.7061L0 34.3677V19.1119Z" fill="#F0B270"/>
<path d="M1.46503 33.7061L14.1588 39.9235V41.4588L0 34.3677L1.46503 33.7061Z" fill="#F0B270"/>
<path d="M18.1552 24.4433L18.3458 24.3148L18.3443 33.8951H18.1552V24.4433Z" fill="#787878"/>
<path d="M23.2032 16.1265L10.1072 9.50928L9.89799 9.55889L22.9473 16.2118L23.2032 16.1265Z" fill="#787878"/>
<path d="M20.495 23.2327L7.63107 16.7588L7.54609 16.9276L20.41 23.4016L20.495 23.2327Z" fill="url(#paint4_linear_2086_22499)"/>
<path d="M14.0859 26.0945L25.1941 21.0934L25.2717 21.2658L14.2471 26.1916L14.0859 26.0945Z" fill="#787878"/>
<path d="M14.1604 41.1179L30.5345 33.912L30.6121 34.0843L14.1603 41.4592L14.1604 41.1179Z" fill="#F0B270"/>
<path d="M5.46731 29.8592L15.0202 25.6798V25.8503L5.64353 29.9913L5.46731 29.8592Z" fill="url(#paint5_linear_2086_22499)"/>
<path d="M10.7517 14.5061L20.5363 10.3288L20.6102 10.5028L10.9223 14.6767L10.7517 14.5061Z" fill="url(#paint6_linear_2086_22499)"/>
<path d="M23.1842 16.1076L27.753 14.0086L27.8944 14.1649L23.2631 16.2794L23.1842 16.1076Z" fill="url(#paint7_linear_2086_22499)"/>
<path d="M4.099 11.35L13.9927 7L14.7899 7.41257L4.96663 11.9256L4.099 11.35Z" fill="#736AE4"/>
<path d="M0 19.1119L10.747 14.506L11.7705 15.0178L1.19411 19.5383L0 19.1119Z" fill="#F1AE66"/>
<path d="M5.63316 29.9443L14.1625 26.1426V34.1237L5.63316 29.9443Z" fill="#F0B270" fill-opacity="0.16"/>
<path d="M5.46325 29.8592L14.1625 34.1237L14.1631 35.6588L3.97461 30.4927L5.46325 29.8592Z" fill="#F0B270"/>
<path d="M13.9944 7.0002L29.5182 14.7619L29.5183 15.0178L14.5637 7.45517L13.9944 7.0002Z" fill="#736AE4"/>
<path d="M14.3366 35.4884L29.263 28.7502L29.5188 28.8355L14.3366 35.7443V35.4884Z" fill="#787878"/>
<path d="M29.3446 14.908L29.5151 14.8474V28.8356L29.3446 28.7815V14.908Z" fill="#736AE4"/>
<path d="M18.5936 18.2589H18.7642V22.5236L18.5936 22.4347V18.2589Z" fill="url(#paint8_linear_2086_22499)"/>
<path d="M14.3702 20.157L23.1842 16.1076L23.2631 16.2794L14.4491 20.3288L14.3702 20.157Z" fill="url(#paint9_linear_2086_22499)"/>
<defs>
<linearGradient id="paint0_linear_2086_22499" x1="124.373" y1="163.053" x2="6.45116" y2="163.026" gradientUnits="userSpaceOnUse">
<stop stop-color="#787878"/>
<stop offset="0.953125" stop-color="#EFB97F"/>
</linearGradient>
<linearGradient id="paint1_linear_2086_22499" x1="50" y1="7" x2="50.0046" y2="107.158" gradientUnits="userSpaceOnUse">
<stop stop-color="#787878"/>
<stop offset="1" stop-color="#F0B270"/>
</linearGradient>
<linearGradient id="paint2_linear_2086_22499" x1="70.5003" y1="7" x2="70.4942" y2="93.3908" gradientUnits="userSpaceOnUse">
<stop stop-color="#E0AF7C"/>
<stop offset="0.0571334" stop-color="#787878"/>
<stop offset="0.785457" stop-color="#8A8177"/>
<stop offset="1" stop-color="#F0B270"/>
</linearGradient>
<linearGradient id="paint3_linear_2086_22499" x1="58.6956" y1="17.9922" x2="0.893604" y2="102.433" gradientUnits="userSpaceOnUse">
<stop stop-color="#736AE4" stop-opacity="0.21"/>
<stop offset="1" stop-color="#F0B270" stop-opacity="0.15"/>
</linearGradient>
<linearGradient id="paint4_linear_2086_22499" x1="-5.88709" y1="278.298" x2="107.747" y2="278.31" gradientUnits="userSpaceOnUse">
<stop stop-color="#F0B270"/>
<stop offset="1" stop-color="#F0B270" stop-opacity="0.09"/>
</linearGradient>
<linearGradient id="paint5_linear_2086_22499" x1="-9.57458" y1="-2.73782" x2="99.6058" y2="-2.69961" gradientUnits="userSpaceOnUse">
<stop stop-color="#F0B270"/>
<stop offset="0.922557" stop-color="#787878"/>
</linearGradient>
<linearGradient id="paint6_linear_2086_22499" x1="0.198106" y1="107.652" x2="110.177" y2="107.599" gradientUnits="userSpaceOnUse">
<stop stop-color="#F0B270"/>
<stop offset="1" stop-color="#141414"/>
</linearGradient>
<linearGradient id="paint7_linear_2086_22499" x1="-8.01043" y1="56.4848" x2="106.665" y2="56.4489" gradientUnits="userSpaceOnUse">
<stop stop-color="#7A7671"/>
<stop offset="1" stop-color="#736AE4"/>
</linearGradient>
<linearGradient id="paint8_linear_2086_22499" x1="50" y1="7" x2="50" y2="93.3894" gradientUnits="userSpaceOnUse">
<stop stop-color="#83705C"/>
<stop offset="1" stop-color="#C7955F"/>
</linearGradient>
<linearGradient id="paint9_linear_2086_22499" x1="14.1688" y1="20.4766" x2="23.5511" y2="16.1266" gradientUnits="userSpaceOnUse">
<stop stop-color="#8D6942"/>
<stop offset="1" stop-color="#787878"/>
</linearGradient>
</defs>
</svg>
