<svg width="65" height="65" viewBox="0 0 65 65" fill="none" xmlns="http://www.w3.org/2000/svg">
<path fill-rule="evenodd" clip-rule="evenodd" d="M18.8053 16.1186C18.8053 14.6349 20.0081 13.4321 21.4917 13.4321L48.3564 13.4321C49.0689 13.4321 49.7522 13.7152 50.2561 14.219C50.7599 14.7228 51.0429 15.4061 51.0429 16.1186V42.9833C51.0429 44.467 49.8401 45.6698 48.3564 45.6698C46.8727 45.6698 45.67 44.467 45.67 42.9833V22.6043L18.0184 50.2558C16.9693 51.305 15.2683 51.305 14.2192 50.2558C13.1701 49.2067 13.1701 47.5057 14.2192 46.4566L41.8707 18.8051L21.4917 18.8051C20.0081 18.8051 18.8053 17.6023 18.8053 16.1186Z" fill="white"/>
</svg>
