<svg width="132" height="41" viewBox="0 0 132 41" fill="none" xmlns="http://www.w3.org/2000/svg">
<path d="M21.9131 19.3528C21.4649 19.3646 21.0522 19.3764 20.6394 19.4117C18.9294 19.5886 17.3727 20.1311 16.0519 21.2633C14.7428 22.3954 13.9763 23.8342 13.6579 25.5206C13.2215 27.7967 13.6225 29.9667 14.6249 32.0305C15.5919 34.0353 17.0307 35.6038 19.012 36.6416C20.4861 37.4199 22.0782 37.7502 23.741 37.6204C26.6539 37.3846 28.9654 36.0284 30.6872 33.6815C31.725 32.2545 32.3265 30.6624 32.5152 28.9053C32.6449 27.7613 32.5859 26.641 32.1967 25.556C31.5717 23.8106 30.3452 22.7256 28.5644 22.2775C27.3379 21.9591 26.0761 21.8883 24.8496 22.2539C22.6089 22.9379 21.1937 24.4239 20.6512 26.7117C20.4625 27.5373 20.5215 28.3628 20.7927 29.1647C21.1819 30.3322 22.2551 31.0752 23.4816 31.0044C24.142 30.9691 24.7081 30.7096 25.1444 30.2025C25.5336 29.7426 25.6515 29.2237 25.451 28.6458C25.2741 28.1151 24.8024 27.7849 24.2481 27.7849C23.6703 27.7849 23.1985 28.1151 23.0216 28.6576C23.0098 28.693 22.9981 28.7284 22.9863 28.7873C22.8094 28.5868 22.7504 28.351 22.715 28.1151C22.6089 27.2896 22.9273 26.641 23.5287 26.1103C24.0005 25.7093 24.5548 25.5324 25.1562 25.4617C25.6161 25.4145 26.0761 25.4145 26.536 25.5442C27.8451 25.9098 28.6116 26.8179 28.93 28.0915C29.4489 30.1318 28.647 32.0187 26.8073 33.1626C24.4014 34.6603 21.1701 34.283 19.236 32.2899C18.3515 31.3818 17.8208 30.2969 17.5732 29.0704C17.0661 26.6174 17.6793 24.4356 19.2478 22.5134C20.5451 20.9213 22.2079 19.8481 24.1066 19.1169C25.4039 18.6216 26.7483 18.3504 28.1399 18.3857C31.5481 18.4683 34.119 20.367 35.3455 23.3978C35.9234 24.8248 36.1357 26.3226 36.1003 27.8557C36.0177 31.7946 33.7416 36.3821 29.6376 38.9059C28.0927 39.8611 26.4181 40.4626 24.6255 40.6867C21.7952 41.0405 19.1771 40.4036 16.783 38.9295C13.2923 36.7831 11.1695 33.6697 10.3793 29.6482C10.1081 28.2448 10.0491 26.8297 10.2968 25.4263C10.91 22.0062 12.8913 19.7302 16.1934 18.6688C18.0685 18.0673 19.92 18.2206 21.6772 19.1523C21.7244 19.2113 21.8187 19.2466 21.9131 19.3528Z" fill="#ED1D25"/>
<path d="M108.121 7.71281C108.003 7.79536 107.992 7.8897 107.956 7.97225C107.555 8.96288 107.013 9.87096 106.4 10.7554C104.902 12.9254 103.439 15.1071 101.965 17.2889C101.906 17.3714 101.871 17.4776 101.765 17.5365C101.706 17.454 101.635 17.3832 101.576 17.3007C99.701 14.7298 97.8141 12.147 95.939 9.57613C95.8564 9.46999 95.7975 9.35206 95.7385 9.23413C95.5144 8.79778 95.2904 8.36143 95.0663 7.92508C95.0309 7.84253 94.9955 7.74818 94.8894 7.66563C94.8894 7.79536 94.8894 7.87791 94.8894 7.97225C94.8894 10.7083 94.8894 13.4443 94.8894 16.1803C94.8894 16.77 94.9484 17.3478 95.0309 17.9257C95.0781 18.3031 95.1253 18.6687 95.1724 19.0461C95.2078 19.3291 95.196 19.3291 94.9248 19.3291C94.3351 19.3291 93.7337 19.3291 93.144 19.3291C92.7076 19.3291 92.2713 19.3291 91.8467 19.3291C91.6227 19.3291 91.6227 19.3291 91.6227 19.1168C91.6227 19.0461 91.6227 18.9871 91.6227 18.9163C91.6227 13.9514 91.6227 8.98647 91.6227 4.03333C91.6227 3.3965 91.5519 2.77146 91.4694 2.14642C91.3986 1.61573 91.3278 1.08503 91.2453 0.554339C91.2217 0.401028 91.2689 0.377441 91.4104 0.377441C92.2713 0.377441 93.1322 0.377441 93.9813 0.377441C94.1228 0.377441 94.2054 0.436407 94.2761 0.554339C94.854 1.37986 95.4319 2.20539 96.0215 3.03091C97.991 5.82589 99.9605 8.60909 101.918 11.4041C101.977 11.4748 102.012 11.5692 102.095 11.6164C102.178 11.5574 102.225 11.4512 102.272 11.3687C104.572 7.79536 106.883 4.22202 109.171 0.648685C109.289 0.459994 109.419 0.377441 109.643 0.389234C110.279 0.401028 110.928 0.389234 111.565 0.401028C111.801 0.401028 111.801 0.401028 111.813 0.648685C111.813 0.707651 111.813 0.766617 111.813 0.813789C111.813 5.86127 111.813 10.9088 111.801 15.9562C111.801 16.7464 111.883 17.5129 111.99 18.2913C112.025 18.5861 112.06 18.8927 112.107 19.1876C112.131 19.3291 112.072 19.3527 111.954 19.3527C111.907 19.3527 111.86 19.3527 111.813 19.3527C110.68 19.3527 109.548 19.3527 108.416 19.3527C108.393 19.3527 108.357 19.3527 108.334 19.3527C108.11 19.3527 108.11 19.3527 108.11 19.1404C108.11 19.0696 108.11 19.0107 108.11 18.9399C108.11 15.3194 108.11 11.6989 108.11 8.0666C108.121 7.94867 108.121 7.84253 108.121 7.71281Z" fill="#ED1D25"/>
<path d="M22.3023 17.5718C22.2197 17.6072 22.1844 17.5718 22.1372 17.5482C19.696 16.4043 17.2312 16.4279 14.7664 17.4303C13.6815 17.8666 12.7026 18.4799 11.8299 19.27C11.6884 19.388 11.5941 19.4351 11.4172 19.3408C11.1106 19.1875 10.7804 19.0578 10.4619 18.928C10.3322 18.8809 10.2615 18.8101 10.2732 18.6568C10.285 18.5978 10.2732 18.5271 10.2732 18.4563C10.2732 12.4418 10.2732 6.41546 10.2732 0.400934C10.2732 -0.0118274 10.2732 -0.0118273 10.6742 0.070725C13.1036 0.589625 15.4033 1.47411 17.5968 2.64164C19.2007 3.49075 20.7102 4.49317 22.0782 5.68428C22.2551 5.83759 22.3141 5.97911 22.3141 6.21498C22.3023 9.89445 22.3141 13.5739 22.3141 17.2534C22.3023 17.3595 22.3023 17.4657 22.3023 17.5718Z" fill="#014383"/>
<path d="M131.389 19.2821C131.295 19.3528 131.212 19.3292 131.13 19.3292C129.927 19.3292 128.736 19.3292 127.533 19.3292C127.273 19.3292 127.297 19.3528 127.191 19.0934C126.707 17.7961 126.236 16.4989 125.752 15.2016C125.634 14.8832 125.658 14.9422 125.398 14.9422C123.476 14.9422 121.554 14.9422 119.62 14.9422C119.36 14.9422 119.36 14.9422 119.266 15.1898C118.771 16.4871 118.275 17.7725 117.78 19.0698C117.674 19.341 117.733 19.3292 117.403 19.3292C116.459 19.3292 115.516 19.3292 114.572 19.3292C114.49 19.3292 114.407 19.341 114.313 19.3056C114.277 19.2113 114.348 19.1287 114.372 19.0462C115.94 15.0365 117.497 11.0268 119.065 7.01714C119.867 4.96513 120.669 2.91311 121.471 0.861095C121.542 0.672404 121.636 0.578059 121.837 0.530886C122.474 0.389368 123.099 0.224263 123.735 0.070952C123.995 0.000192873 124.007 0.011986 124.101 0.283229C124.608 1.65124 125.115 3.01925 125.611 4.39905C126.99 8.16108 128.358 11.9231 129.762 15.6733C130.08 16.5224 130.493 17.3244 130.859 18.1499C131.035 18.5155 131.212 18.8929 131.389 19.2821ZM122.592 5.51941C122.462 5.93217 122.403 6.35672 122.25 6.75769C121.624 8.40874 121.011 10.048 120.398 11.699C120.363 11.7934 120.304 11.8759 120.315 11.9821C121.825 11.9821 123.311 11.9821 124.82 11.9821C124.785 11.8877 124.761 11.817 124.738 11.7462C124.325 10.6023 123.924 9.45833 123.523 8.31439C123.205 7.41811 122.827 6.54541 122.662 5.60196C122.65 5.56658 122.639 5.5312 122.592 5.51941Z" fill="#ED1D25"/>
<path d="M75.3833 19.2935C75.2772 19.3407 75.1828 19.3171 75.0767 19.3171C73.9445 19.3171 72.8124 19.3171 71.6802 19.3171C71.2203 19.3171 71.3264 19.3879 71.1731 18.9633C70.7014 17.7015 70.2415 16.4396 69.7697 15.1777C69.6636 14.8711 69.6872 14.9301 69.4159 14.9301C67.5054 14.9301 65.5832 14.9301 63.6727 14.9301C63.3896 14.9301 63.3896 14.9301 63.2953 15.1895C62.8 16.4868 62.3046 17.7722 61.8093 19.0695C61.7032 19.3289 61.7622 19.3289 61.4555 19.3289C60.5003 19.3289 59.545 19.3289 58.6016 19.3289C58.519 19.3289 58.4365 19.3407 58.3539 19.3053C58.3185 19.211 58.3775 19.1402 58.4129 19.0695C60.7597 12.9842 63.1302 6.89889 65.5006 0.813606C65.5714 0.648501 65.6657 0.565949 65.8308 0.530569C66.4794 0.377258 67.1281 0.212153 67.7767 0.0588417C68.0125 -0.000124257 68.0125 -0.000124298 68.0951 0.223946C68.6848 1.81603 69.2626 3.40811 69.8523 5.00019C71.1613 8.54994 72.4468 12.1115 73.7794 15.6612C74.086 16.4985 74.4988 17.3005 74.8644 18.1142C75.0059 18.4444 75.1592 18.7628 75.3007 19.093C75.3479 19.152 75.3951 19.211 75.3833 19.2935ZM66.5974 5.51909C66.5856 5.55447 66.5856 5.58985 66.5738 5.61343C66.4676 5.99082 66.3969 6.37999 66.2554 6.75737C65.6421 8.40842 65.0171 10.0477 64.4038 11.6987C64.3685 11.7931 64.3095 11.8756 64.3213 11.9818C65.819 11.9818 67.3168 11.9818 68.8263 11.9818C68.7909 11.8874 68.7673 11.8167 68.7437 11.7459C68.331 10.5902 67.9182 9.44622 67.5172 8.29049C67.2106 7.406 66.8332 6.5333 66.6681 5.60164C66.6681 5.56626 66.6563 5.53088 66.5974 5.51909Z" fill="#ED1D25"/>
<path d="M29.6726 16.8171C29.6962 16.8053 29.7315 16.7935 29.7551 16.7699C31.2175 15.5552 32.0784 13.9985 32.5029 12.1706C32.6798 11.4394 32.7388 10.6846 32.8332 9.92986C32.8449 9.8591 32.8449 9.80014 32.8567 9.72938C32.9157 9.23407 32.9629 9.31662 32.5147 9.29303C31.701 9.24586 30.8755 9.15151 30.0618 9.16331C28.8824 9.1751 27.7385 9.3402 26.6299 9.78835C25.6393 10.1893 24.7902 10.779 24.1062 11.6045C24.0708 11.6517 24.0472 11.6988 23.9529 11.7224C23.9529 11.6517 23.9529 11.5809 23.9529 11.5102C23.9529 9.72938 23.9529 7.94861 23.9529 6.15604C23.9529 5.96735 24.0118 5.84942 24.1534 5.7197C25.6275 4.42245 27.2668 3.36106 29.0004 2.46478C31.0878 1.3916 33.2577 0.55428 35.5692 0.0707592C35.6989 0.0471728 35.8286 0.0235864 35.9466 0C36.0173 0.0707591 35.9937 0.153311 35.9937 0.224071C35.9937 6.34473 35.9937 12.4654 35.9937 18.5861C35.9937 18.763 35.9466 18.8573 35.7815 18.9163C35.4748 19.0224 35.18 19.1521 34.897 19.2937C34.7319 19.3762 34.6375 19.3526 34.5078 19.2229C33.6941 18.4445 32.7506 17.8549 31.7128 17.4303C31.1113 17.1827 30.4863 17.0058 29.8377 16.8878C29.7787 16.9114 29.7197 16.9114 29.6726 16.8171Z" fill="#024383"/>
<path d="M89.1102 16.4635C89.1102 16.6758 89.0512 16.8409 89.0041 17.006C88.839 17.69 88.6621 18.374 88.497 19.058C88.438 19.3175 88.438 19.3175 88.1668 19.3175C86.0794 19.3175 83.992 19.3175 81.9164 19.3175C80.796 19.3175 79.6757 19.3175 78.5435 19.3175C78.4727 19.3175 78.4138 19.3175 78.343 19.3175C78.2133 19.3293 78.1779 19.2585 78.1897 19.1524C78.1897 19.0816 78.1897 18.999 78.1897 18.9283C78.1897 13.8572 78.1897 8.77435 78.1897 3.70328C78.1897 3.09004 78.06 2.48859 77.9892 1.87534C77.9421 1.41541 77.8595 0.955472 77.8005 0.50733C77.8005 0.471951 77.8005 0.436571 77.8005 0.401192C77.8831 0.354019 77.9774 0.365812 78.06 0.365812C79.2393 0.365812 80.4186 0.365812 81.5979 0.365812C81.6451 0.365812 81.6923 0.365812 81.7395 0.365812C81.8338 0.365812 81.881 0.401192 81.881 0.495537C81.881 0.57809 81.881 0.660642 81.881 0.754987C81.881 5.87323 81.881 10.9797 81.881 16.0979C81.881 16.5343 81.8338 16.4635 82.2584 16.4753C84.4401 16.4753 86.6218 16.4753 88.7918 16.4753C88.8979 16.4635 89.0041 16.4635 89.1102 16.4635Z" fill="#ED1D25"/>
<path d="M46.2541 15.8856C46.2541 18.9872 46.2541 22.0888 46.2541 25.1904C46.2541 25.2612 46.2541 25.3437 46.2541 25.4145C46.2541 25.5206 46.2187 25.5796 46.1126 25.5678C46.0536 25.5678 45.9946 25.5678 45.9475 25.5678C43.2822 25.5678 40.6052 25.5678 37.9399 25.5678C37.8809 25.5678 37.822 25.5678 37.7748 25.5678C37.6687 25.5796 37.6215 25.5206 37.6097 25.4263C37.5743 25.1314 37.5153 24.8248 37.4446 24.5418C37.4092 24.3885 37.5035 24.3767 37.6097 24.3413C38.3173 24.1172 39.0367 23.9167 39.756 23.728C40.6995 23.4804 41.643 23.2681 42.5864 23.0558C42.7515 23.0204 42.8223 22.9615 42.7987 22.7964C42.7869 22.7256 42.7987 22.6667 42.7987 22.5959C42.7987 17.2772 42.7987 11.9584 42.7987 6.63971C42.7987 6.29771 42.7987 6.3095 43.1407 6.27412C44.0959 6.19157 45.0394 6.15619 45.9946 6.16798C46.3131 6.16798 46.2777 6.1444 46.2777 6.46281C46.2659 9.5998 46.2541 12.7368 46.2541 15.8856Z" fill="#014383"/>
<path d="M0.00103973 15.8736C0.00103973 12.7366 0.00103973 9.6114 0.00103973 6.47441C0.00103973 6.10883 -0.0343399 6.156 0.307663 6.156C1.29829 6.1442 2.28892 6.17958 3.27955 6.27393C3.46824 6.28572 3.46824 6.28572 3.48003 6.48621C3.48003 6.55697 3.48003 6.61593 3.48003 6.68669C3.48003 12.0054 3.48003 17.3241 3.48003 22.6429C3.48003 22.9967 3.48003 22.9967 3.82203 23.0674C5.40232 23.4094 6.95902 23.7868 8.50393 24.2703C8.52751 24.2821 8.56289 24.2939 8.58648 24.2939C8.728 24.3175 8.78696 24.3765 8.73979 24.5416C8.66903 24.8246 8.63365 25.1194 8.58648 25.4025C8.56289 25.5204 8.51572 25.5676 8.39779 25.5558C8.35062 25.5558 8.30344 25.5558 8.25627 25.5558C5.6028 25.5558 2.96113 25.5558 0.307663 25.5558C-0.0225467 25.5558 0.00103973 25.603 0.00103973 25.261C0.00103973 22.1358 0.00103973 19.0106 0.00103973 15.8736Z" fill="#014383"/>
<path d="M35.8054 20.7323C36.2889 20.5436 36.7725 20.3431 37.2678 20.1426C37.6569 19.9893 37.657 19.9893 37.657 19.5765C37.657 14.2932 37.657 9.00983 37.657 3.72648C37.657 3.65572 37.6687 3.59676 37.657 3.526C37.6452 3.38448 37.7041 3.33731 37.8456 3.31372C38.8363 3.1722 39.8269 3.07786 40.8293 3.04248C41.1359 3.03068 41.1006 3.03068 41.1006 3.31372C41.1006 3.71469 41.1006 4.10386 41.1006 4.50483C41.1006 10.1066 41.1006 15.7084 41.1006 21.3101C41.1006 21.7111 41.1595 21.6168 40.7704 21.7111C39.5557 21.9941 38.3645 22.3125 37.1734 22.6899C37.1498 22.7017 37.1263 22.7135 37.0909 22.7135C36.9022 22.7725 36.9022 22.7725 36.8196 22.5956C36.7725 22.4894 36.7253 22.3715 36.6663 22.2654C36.454 21.8172 36.2064 21.3809 35.9351 20.9563C35.888 20.9092 35.8172 20.8502 35.8054 20.7323Z" fill="#024383"/>
<path d="M10.4263 20.7207C10.4263 20.8033 10.3909 20.8386 10.3673 20.8858C9.97812 21.4283 9.64792 21.9944 9.37667 22.5958C9.31771 22.7374 9.25874 22.7727 9.10543 22.7138C7.87894 22.3246 6.65245 21.9944 5.40237 21.7113C5.1665 21.6524 5.1665 21.6524 5.1665 21.3575C5.1665 16.2393 5.1665 11.1211 5.1665 5.99102C5.1665 5.08295 5.1665 4.17487 5.1665 3.27859C5.1665 3.04272 5.1665 3.04272 5.39057 3.04272C6.40479 3.0781 7.419 3.17245 8.43322 3.31397C8.56294 3.33755 8.62191 3.38473 8.59832 3.51445C8.58653 3.58521 8.59832 3.64418 8.59832 3.71494C8.59832 9.02187 8.59832 14.3288 8.59832 19.6475C8.59832 20.0721 8.55115 19.966 8.92853 20.1193C9.42384 20.3197 9.91916 20.5202 10.4263 20.7207Z" fill="#024383"/>
<path d="M75.7724 40.8044C75.4186 40.8044 75.0766 40.8044 74.7346 40.8044C74.6284 40.8044 74.5813 40.71 74.5223 40.6392C73.8265 39.8609 73.1307 39.0825 72.4349 38.2924C71.7981 37.573 71.1612 36.8536 70.5126 36.146C70.2532 35.863 70.0173 35.5564 69.8168 35.2144C69.7696 35.12 69.7107 35.0375 69.6399 34.9431C69.5574 35.0139 69.5927 35.0965 69.5927 35.1554C69.5927 36.5824 69.5927 37.9976 69.5927 39.4245C69.5927 39.8137 69.6753 40.1911 69.7225 40.5803C69.7343 40.6392 69.7578 40.71 69.7225 40.769C69.6399 40.8161 69.5574 40.7926 69.4748 40.7926C69.0738 40.7926 68.6847 40.7926 68.2837 40.7926C68.0478 40.7926 68.0478 40.7926 68.0478 40.5449C68.0478 39.625 68.0478 38.717 68.0478 37.7971C68.0478 36.4998 68.036 35.1908 68.0478 33.8935C68.0596 33.3157 67.9889 32.7496 67.9063 32.1835C67.9063 32.1599 67.8945 32.1246 67.8945 32.101C67.8591 31.8062 67.8591 31.8062 68.154 31.8062C68.437 31.8062 68.7201 31.8062 69.0031 31.8062C69.1328 31.8062 69.2272 31.8415 69.3215 31.9477C70.7367 33.6105 72.1401 35.2616 73.5553 36.9244C73.7086 37.1013 73.8147 37.3254 73.9444 37.5141C73.9916 37.5848 74.0388 37.6556 74.1449 37.7145C74.1449 37.6202 74.1449 37.5376 74.1449 37.4433C74.1449 36.3701 74.1331 35.2969 74.1449 34.2238C74.1567 33.469 74.0742 32.7142 73.968 31.9713C73.9562 31.9241 73.9444 31.8769 73.9916 31.8062C74.2393 31.8062 74.5105 31.8062 74.7817 31.8062C75.0294 31.8062 75.2771 31.8062 75.5129 31.8062C75.6309 31.8062 75.6898 31.8533 75.678 31.9713C75.678 32.042 75.678 32.101 75.678 32.1717C75.678 34.5068 75.678 36.8536 75.678 39.1887C75.6898 39.7312 75.7606 40.2501 75.7724 40.8044Z" fill="#ED1D25"/>
<path d="M101.989 37.2784C102.897 38.4459 103.805 39.6017 104.713 40.7574C104.654 40.8399 104.572 40.8046 104.501 40.8046C103.935 40.8046 103.369 40.8046 102.803 40.8164C102.626 40.8164 102.52 40.7692 102.413 40.6159C101.777 39.696 101.116 38.7879 100.479 37.8563C100.361 37.6912 100.244 37.6204 100.043 37.6322C99.6303 37.644 99.6303 37.6322 99.6303 38.0567C99.6303 38.3162 99.6303 38.5874 99.6303 38.8469C99.6185 39.4012 99.6421 39.9555 99.7364 40.5097C99.7482 40.6041 99.7718 40.6984 99.7364 40.7928C99.6303 40.8399 99.5124 40.8164 99.4062 40.8164C98.9581 40.8164 98.5217 40.8164 98.0736 40.8164C97.8731 40.8164 97.8731 40.8164 97.8731 40.6159C97.8731 40.5451 97.8731 40.4861 97.8731 40.4154C97.8731 38.2926 97.8613 36.1698 97.8731 34.0471C97.8731 33.4338 97.8141 32.8206 97.7316 32.2191C97.6608 31.7356 97.6726 31.8299 98.05 31.8299C98.8519 31.8299 99.6539 31.8299 100.456 31.8299C101.01 31.8299 101.541 31.9243 102.048 32.1484C103.605 32.8206 103.947 34.4952 103.428 35.6627C103.156 36.2642 102.755 36.7477 102.201 37.1133C102.142 37.1487 102.071 37.1958 102.013 37.2312C102.001 37.2312 102.001 37.243 101.989 37.2784ZM99.6303 34.7311C99.6303 35.2146 99.6303 35.6863 99.6303 36.1698C99.6303 36.2524 99.5949 36.3585 99.7364 36.3467C100.031 36.3349 100.314 36.3821 100.609 36.2996C101.293 36.1109 101.777 35.474 101.836 34.7311C101.895 33.9055 101.399 33.2569 100.597 33.0918C100.361 33.0446 100.126 33.0564 99.8897 33.0564C99.6303 33.0564 99.6303 33.0564 99.6303 33.3159C99.6303 33.7876 99.6303 34.2593 99.6303 34.7311Z" fill="#ED1D25"/>
<path d="M60.2287 34.8724C60.2287 35.7333 60.2287 36.5942 60.2287 37.4434C60.2287 37.7146 60.2641 37.9858 60.3466 38.2571C60.5825 38.9765 61.0542 39.46 61.7972 39.6133C62.5756 39.7784 63.2596 39.5543 63.7785 38.9529C64.0969 38.5991 64.2502 38.1627 64.3092 37.691C64.3327 37.5259 64.3327 37.349 64.3327 37.1839C64.3327 36.1579 64.3209 35.1319 64.3327 34.0941C64.3445 33.3983 64.2738 32.7261 64.1794 32.0421C64.1441 31.8298 64.1558 31.8298 64.3681 31.8298C64.8045 31.8298 65.2408 31.8298 65.6654 31.8298C65.8776 31.8298 65.8894 31.8298 65.8894 32.0539C65.8894 32.9266 65.8894 33.8111 65.8894 34.6837C65.8894 35.5446 65.8894 36.4056 65.8894 37.2547C65.8894 37.7028 65.8187 38.1392 65.6772 38.5637C65.3352 39.5897 64.6747 40.2973 63.6723 40.6865C62.7525 41.0403 61.7972 41.0992 60.842 40.8398C59.6037 40.5096 58.9079 39.6605 58.6013 38.4576C58.5187 38.1274 58.4715 37.7971 58.4833 37.4551C58.4833 36.2994 58.4715 35.1319 58.4951 33.9762C58.5069 33.3865 58.4362 32.8086 58.3536 32.2308C58.2946 31.8298 58.2946 31.8298 58.6956 31.8298C59.1202 31.8298 59.5447 31.8298 59.9693 31.8298C60.2641 31.8298 60.2523 31.8062 60.2523 32.101C60.2287 33.0209 60.2287 33.9408 60.2287 34.8724Z" fill="#ED1D25"/>
<path d="M81.3269 31.8179C82.0109 31.8179 82.6595 31.8179 83.3082 31.8179C83.4497 31.8179 83.4733 31.9004 83.5086 32.0066C83.7209 32.6316 83.945 33.2566 84.1691 33.8699C84.5582 34.9667 84.9356 36.0752 85.3248 37.172C85.4663 37.5612 85.5017 37.9857 85.6078 38.3867C85.6668 38.3867 85.6786 38.3277 85.6786 38.2923C85.9498 37.1484 86.4334 36.087 86.8225 34.9784C87.1763 33.9996 87.5419 33.0208 87.9075 32.0419C87.9901 31.8179 87.9901 31.8179 88.2259 31.8179C88.6976 31.8179 89.1694 31.8179 89.6293 31.8179C89.6411 31.9358 89.5939 32.0184 89.5585 32.1009C88.4382 34.9667 87.306 37.8324 86.1857 40.6981C86.0796 40.9694 86.0796 40.9694 85.7847 40.9104C85.5607 40.8632 85.3484 40.7925 85.1243 40.7689C84.9238 40.7453 84.8177 40.651 84.7469 40.4505C84.3578 39.3655 83.945 38.2923 83.5558 37.2192C83.1195 36.0398 82.6831 34.8487 82.235 33.6694C82.0345 33.1387 81.7279 32.667 81.4684 32.1599C81.4212 32.0655 81.3623 31.983 81.3269 31.8179Z" fill="#ED1D25"/>
<path d="M95.5496 35.5563C95.585 35.6389 95.5496 35.7096 95.526 35.7804C95.4553 36.0516 95.3845 36.3229 95.3137 36.6059C95.243 36.8654 95.243 36.8654 94.9835 36.8654C94.3467 36.8654 93.7217 36.8654 93.0848 36.8654C93.0259 36.8654 92.9669 36.8654 92.9197 36.8654C92.7664 36.8536 92.731 36.9243 92.731 37.0658C92.731 37.797 92.731 38.54 92.731 39.2712C92.731 39.4599 92.7428 39.4717 92.9433 39.4717C93.8986 39.4717 94.8538 39.4717 95.7973 39.4717C96.1275 39.4717 96.1275 39.4717 96.0449 39.7783C95.9742 40.0613 95.8916 40.3443 95.8326 40.6274C95.8091 40.7689 95.7383 40.8279 95.6086 40.8043C95.5732 40.8043 95.5378 40.8043 95.4906 40.8043C94.0873 40.8043 92.6839 40.8043 91.2687 40.8043C90.9385 40.8043 90.9621 40.8397 90.9621 40.5095C90.9621 38.3631 90.9503 36.2285 90.9621 34.0822C90.9621 33.3982 90.9031 32.7259 90.8087 32.0537C90.7734 31.8179 90.7734 31.8179 91.0092 31.8179C92.5777 31.8179 94.1462 31.8179 95.7029 31.8179C95.927 31.8179 95.9388 31.8179 95.9388 32.0537C95.9388 32.3604 95.9388 32.6552 95.9388 32.9618C95.9388 33.1623 95.9388 33.1623 95.7383 33.1623C94.8656 33.1623 93.9811 33.1623 93.1084 33.1623C93.0377 33.1623 92.9787 33.1741 92.9079 33.1623C92.7546 33.1505 92.7192 33.2095 92.7192 33.351C92.731 34.0114 92.7192 34.6718 92.7192 35.3322C92.7192 35.5327 92.731 35.5327 92.9315 35.5327C93.6981 35.5327 94.4646 35.5327 95.2194 35.5327C95.3491 35.5445 95.4553 35.5209 95.5496 35.5563Z" fill="#ED1D25"/>
<path d="M24.071 16.5105C24.1182 15.8737 24.2126 15.2369 24.3895 14.6118C24.9319 12.7367 26.1584 11.5692 28.0454 11.0856C28.9652 10.8498 29.9087 10.8144 30.8521 10.8616C30.9583 10.8616 31.029 10.8734 31.0054 11.0149C30.8168 12.2768 30.4158 13.4679 29.6256 14.4939C28.7058 15.685 27.4911 16.4044 26.0641 16.8053C25.4744 16.9705 24.873 17.0648 24.2597 17.1238C24.1182 17.1356 24.071 17.1002 24.0828 16.9587C24.0828 16.8171 24.071 16.6638 24.071 16.5105Z" fill="#0C7A43"/>
<path d="M105.444 38.5754C105.716 38.7995 105.94 38.9764 106.187 39.1297C106.742 39.4717 107.343 39.684 108.003 39.684C108.31 39.684 108.581 39.5896 108.817 39.4009C109.242 39.0707 109.43 38.3985 108.935 37.8914C108.746 37.7027 108.534 37.5494 108.31 37.4197C107.956 37.2074 107.591 37.0069 107.225 36.8064C106.895 36.6177 106.576 36.4173 106.293 36.1696C105.515 35.4974 105.244 34.6365 105.491 33.6458C105.739 32.6552 106.376 32.0066 107.378 31.7707C108.475 31.5231 109.513 31.7354 110.492 32.2425C110.61 32.3014 110.645 32.384 110.61 32.5137C110.515 32.8911 110.421 33.2567 110.327 33.6341C110.209 33.6459 110.15 33.5633 110.067 33.5161C109.466 33.1505 108.817 32.9501 108.11 32.9501C107.591 32.9501 107.154 33.2921 107.036 33.752C106.954 34.0704 107.048 34.3416 107.26 34.5893C107.437 34.7898 107.65 34.9431 107.874 35.0728C108.192 35.2615 108.522 35.4266 108.841 35.6035C109.218 35.804 109.584 36.0281 109.902 36.2875C110.798 37.0187 111.07 37.9622 110.763 39.0589C110.468 40.1203 109.725 40.7453 108.64 40.9222C107.532 41.0991 106.506 40.8515 105.562 40.2618C105.374 40.1439 105.291 40.026 105.326 39.7783C105.397 39.4009 105.409 39.0118 105.444 38.5754Z" fill="#ED1D25"/>
<path d="M128.724 40.8045C128.11 40.8045 127.521 40.8045 126.943 40.8045C126.86 40.8045 126.825 40.7691 126.825 40.6865C126.825 40.6158 126.825 40.5568 126.825 40.486C126.825 39.3775 126.825 38.2571 126.825 37.1486C126.825 36.9835 126.79 36.8419 126.719 36.6886C126.094 35.4975 125.469 34.3064 124.844 33.1153C124.655 32.7615 124.384 32.4667 124.172 32.1365C124.113 32.0421 124.018 31.9714 123.995 31.8534C124.042 31.7709 124.113 31.8063 124.172 31.8063C124.738 31.8063 125.304 31.8063 125.87 31.7945C126.035 31.7945 126.117 31.8534 126.188 31.9949C126.66 32.9148 127.132 33.8229 127.603 34.731C127.698 34.9079 127.757 35.1083 127.839 35.3088C128.323 34.1767 128.936 33.1271 129.467 32.0421C129.561 31.8534 129.667 31.7827 129.879 31.7945C130.351 31.8063 130.823 31.7945 131.306 31.7945C131.33 31.9124 131.247 31.9949 131.2 32.0775C130.375 33.5634 129.549 35.0376 128.724 36.5235C128.629 36.6886 128.582 36.8655 128.582 37.0542C128.594 37.6675 128.594 38.2807 128.582 38.894C128.57 39.46 128.629 40.0261 128.712 40.5804C128.712 40.6629 128.712 40.7219 128.724 40.8045Z" fill="#ED1D25"/>
<path d="M120.469 40.7808C120.374 40.8398 120.28 40.8044 120.186 40.8044C119.773 40.8044 119.36 40.8044 118.936 40.8044C118.535 40.8044 118.582 40.8634 118.582 40.4624C118.582 39.059 118.582 37.6557 118.582 36.2405C118.582 35.3088 118.582 34.3771 118.582 33.4337C118.582 33.1389 118.594 33.1625 118.299 33.1625C117.52 33.1625 116.754 33.1625 115.976 33.1625C115.751 33.1625 115.751 33.1625 115.751 32.9266C115.751 32.6082 115.751 32.2898 115.751 31.9595C115.751 31.8416 115.787 31.7826 115.917 31.7944C115.964 31.7944 116.011 31.7944 116.058 31.7944C118.346 31.7944 120.646 31.7944 122.934 31.7944C123.252 31.7944 123.24 31.7473 123.24 32.0893C123.24 32.3369 123.24 32.5846 123.24 32.8204C123.24 33.186 123.287 33.1389 122.934 33.1389C122.191 33.1389 121.448 33.1389 120.693 33.1389C120.646 33.1389 120.598 33.1389 120.551 33.1389C120.339 33.1389 120.339 33.1389 120.339 33.3629C120.339 35.4267 120.339 37.4906 120.339 39.5662C120.339 39.8256 120.398 40.0851 120.433 40.3563C120.457 40.5214 120.481 40.6511 120.469 40.7808Z" fill="#ED1D25"/>
<path d="M80.0771 40.8043C79.4638 40.8043 78.886 40.8043 78.2963 40.8043C78.2138 40.8043 78.1784 40.7689 78.1784 40.6863C78.1784 40.6156 78.1784 40.533 78.1784 40.4623C78.1784 38.2923 78.1666 36.1224 78.1784 33.9524C78.1784 33.3392 78.1194 32.7259 78.0251 32.1245C78.0133 32.0301 77.9897 31.9358 78.0133 31.8533C78.0604 31.8179 78.1076 31.8179 78.1548 31.8179C78.6855 31.8179 79.2162 31.8179 79.7351 31.8179C79.8766 31.8179 79.9473 31.8533 79.9356 32.0066C79.9238 32.1245 79.9356 32.2306 79.9356 32.3486C79.9356 34.5775 79.9473 36.7946 79.9356 39.0235C79.9238 39.6132 80.0181 40.191 80.0771 40.8043Z" fill="#ED1D25"/>
<path d="M114.407 35.8632C114.407 37.0189 114.407 38.1865 114.407 39.3422C114.407 39.7078 114.454 40.0498 114.501 40.4154C114.513 40.4979 114.513 40.5805 114.525 40.663C114.537 40.7692 114.513 40.8164 114.395 40.8164C113.853 40.8164 113.322 40.8164 112.779 40.8164C112.662 40.8164 112.638 40.7574 112.638 40.663C112.638 40.5923 112.638 40.5333 112.638 40.4626C112.638 38.1629 112.638 35.8632 112.638 33.5635C112.638 33.1036 112.544 32.6673 112.496 32.2191C112.437 31.7356 112.449 31.8299 112.815 31.8299C113.263 31.8181 113.699 31.8299 114.147 31.8299C114.395 31.8299 114.395 31.8299 114.395 32.0776C114.407 33.3277 114.407 34.5896 114.407 35.8632Z" fill="#ED1D25"/>
<path d="M71.3732 27.7966C71.0666 27.7966 70.7953 27.7966 70.5241 27.7966C70.4298 27.7966 70.3944 27.7612 70.3944 27.6669C70.3944 27.4546 70.3944 27.2305 70.3944 27.0182C70.3944 26.4757 70.3944 25.945 70.3944 25.4026C70.3944 25.32 70.4062 25.2257 70.359 25.1077C69.8991 25.8979 69.3684 26.5937 68.8613 27.3838C68.5664 26.9829 68.2834 26.6055 68.0239 26.2281C67.7527 25.8507 67.4579 25.5087 67.2574 25.0959C67.1748 25.1195 67.1984 25.1785 67.1984 25.2139C67.1984 25.8507 67.1984 26.4993 67.1984 27.1362C67.1984 27.3013 67.2338 27.4782 67.2574 27.6433C67.2692 27.7376 67.2692 27.8084 67.1395 27.8084C66.939 27.7966 66.7385 27.8084 66.5498 27.8084C66.4319 27.8084 66.3965 27.7612 66.4083 27.6551C66.4083 27.5961 66.4083 27.5371 66.4083 27.49C66.4083 26.5583 66.4083 25.6266 66.4083 24.6832C66.4083 24.2468 66.4201 23.8105 66.3257 23.3859C66.3021 23.2562 66.3257 23.1972 66.479 23.1972C67.0097 23.1854 67.0097 23.1737 67.3046 23.5982C67.7881 24.294 68.2834 24.9898 68.7669 25.6738C68.8259 25.7446 68.8731 25.8271 68.932 25.8979C69.0264 25.8389 69.0617 25.7446 69.1089 25.6738C69.5688 24.9544 70.0406 24.235 70.5005 23.5157C70.7128 23.1972 70.7128 23.1972 71.0784 23.1972C71.3024 23.1972 71.3025 23.1972 71.3025 23.4331C71.3025 24.4591 71.3025 25.4851 71.3025 26.5229C71.2907 26.9357 71.2907 27.3484 71.3732 27.7966Z" fill="white"/>
<path d="M90.7497 27.7965C90.4313 27.7965 90.1482 27.7965 89.8652 27.7965C89.7944 27.7965 89.7591 27.7611 89.7591 27.6903C89.7591 27.6196 89.7591 27.5606 89.7591 27.4899C89.7591 26.7941 89.7591 26.0983 89.7591 25.4025C89.7591 25.3199 89.7826 25.2256 89.7355 25.1312C89.2402 25.8742 88.7448 26.6054 88.2495 27.3366C88.0373 27.1715 87.1528 25.9803 86.5985 25.0958C86.5159 25.1312 86.5513 25.2138 86.5513 25.261C86.5513 25.8742 86.5513 26.4874 86.5513 27.1007C86.5513 27.2894 86.5867 27.4781 86.6103 27.6668C86.6221 27.7611 86.5985 27.8083 86.4924 27.8083C86.4806 27.8083 86.4688 27.8083 86.4688 27.8083C86.2447 27.7965 86.0206 27.8319 85.7965 27.7965C85.7258 27.5842 85.7612 27.3719 85.7612 27.1597C85.7494 26.4285 85.7612 25.7091 85.7612 24.9779C85.7612 24.4001 85.7848 23.8222 85.655 23.2443C85.8909 23.1736 86.115 23.2089 86.3272 23.2207C86.4216 23.2207 86.457 23.3269 86.5041 23.3976C87.0348 24.1524 87.5655 24.9072 88.0962 25.6619C88.1552 25.7445 88.2142 25.827 88.2731 25.9096C88.3911 25.8624 88.4146 25.7563 88.4736 25.6619C88.9335 24.9543 89.3935 24.2349 89.8534 23.5274C90.0539 23.2089 90.0539 23.2089 90.4313 23.2089C90.6553 23.2089 90.6671 23.2089 90.6671 23.4448C90.6671 24.5534 90.6671 25.6501 90.6671 26.7587C90.6671 27.0889 90.6789 27.4191 90.7497 27.7965Z" fill="white"/>
<path d="M118.322 27.8083C118.016 27.8083 117.756 27.8083 117.497 27.8083C117.367 27.8083 117.343 27.7612 117.343 27.6432C117.343 27.1479 117.343 26.6408 117.343 26.1455C117.343 25.8035 117.343 25.4615 117.343 25.0723C116.848 25.886 116.317 26.6172 115.798 27.3956C115.244 26.6054 114.666 25.886 114.147 25.1077C114.147 26.004 114.077 26.8885 114.195 27.7847C113.935 27.8319 113.676 27.7965 113.428 27.8083C113.357 27.8083 113.334 27.7612 113.334 27.7022C113.334 27.6314 113.334 27.5725 113.334 27.5017C113.334 26.5583 113.334 25.6148 113.334 24.6713C113.334 24.1878 113.322 23.7161 113.228 23.209C113.463 23.209 113.664 23.209 113.876 23.209C113.994 23.209 114.029 23.3151 114.077 23.3859C114.454 23.9166 114.831 24.4473 115.197 24.978C115.409 25.2846 115.633 25.5912 115.846 25.8978C115.952 25.8625 115.975 25.7799 116.023 25.7091C116.494 24.978 116.966 24.2468 117.426 23.5274C117.626 23.209 117.626 23.209 118.004 23.209C118.24 23.209 118.24 23.209 118.24 23.4448C118.24 24.5652 118.24 25.6856 118.24 26.8177C118.24 27.1243 118.251 27.4427 118.322 27.8083Z" fill="white"/>
<path d="M123.865 24.9071C123.865 25.8623 123.782 26.8176 123.9 27.8082C123.653 27.8082 123.393 27.8082 123.146 27.8082C123.063 27.8082 123.028 27.7728 123.028 27.6903C123.028 27.6195 123.028 27.5606 123.028 27.4898C123.028 26.6761 123.028 25.8623 123.028 25.0604C123.028 24.5061 123.075 23.9518 122.957 23.3976C122.933 23.2796 122.957 23.2089 123.11 23.2089C123.617 23.1971 123.617 23.1853 123.947 23.5745C124.549 24.2821 125.15 25.0014 125.764 25.709C125.893 25.8506 125.988 26.0275 126.106 26.1808C126.188 26.11 126.165 26.0392 126.165 25.9803C126.165 25.3434 126.176 24.6948 126.165 24.058C126.165 23.8339 126.117 23.6098 126.082 23.3858C126.07 23.2678 126.094 23.2089 126.224 23.2207C126.424 23.2325 126.625 23.2207 126.813 23.2207C126.919 23.2207 126.967 23.2678 126.955 23.374C126.955 23.4329 126.955 23.4919 126.955 23.5391C126.955 24.3174 126.955 25.084 126.955 25.8623C126.955 26.4638 126.931 27.0653 126.978 27.6667C126.99 27.7728 126.967 27.8318 126.849 27.82C126.79 27.82 126.731 27.8082 126.683 27.82C126.507 27.8436 126.377 27.7846 126.247 27.6313C125.575 26.853 124.879 26.0982 124.195 25.3317C124.089 25.1901 124.018 25.025 123.865 24.9071Z" fill="white"/>
<path d="M99.1109 26.1812C99.1817 26.0515 99.1581 25.9571 99.1581 25.8746C99.1581 25.3675 99.1581 24.8603 99.1581 24.3414C99.1581 24.0348 99.1463 23.74 99.0873 23.4452C99.0402 23.2093 99.052 23.1975 99.3114 23.1975C99.4765 23.1975 99.6534 23.1975 99.8185 23.1975C99.9129 23.1975 99.96 23.2329 99.96 23.3272C99.96 23.398 99.96 23.457 99.96 23.5277C99.96 24.6009 99.96 25.6741 99.96 26.7473C99.96 27.0539 99.9718 27.3487 99.9954 27.6553C100.007 27.7733 99.96 27.8086 99.8539 27.7969C99.7713 27.7969 99.6888 27.7851 99.5944 27.7969C99.4647 27.8086 99.3822 27.7615 99.2996 27.6671C98.592 26.8652 97.8726 26.0633 97.1532 25.2613C97.0471 25.1434 96.9646 25.0137 96.8702 24.8721C96.7877 25.1906 96.7995 26.9477 96.882 27.7733C96.6343 27.8204 96.3749 27.7851 96.1272 27.7969C96.0447 27.7969 96.0093 27.7497 96.0211 27.6671C96.0211 27.5964 96.0211 27.5374 96.0211 27.4666C96.0211 26.535 96.0211 25.6033 96.0211 24.6717C96.0211 24.1881 96.0329 23.7164 95.9268 23.2329C96.1508 23.1739 96.3631 23.2093 96.5636 23.1975C96.6343 23.1975 96.6815 23.2565 96.7169 23.3036C97.4363 24.141 98.1439 24.9783 98.8633 25.8274C98.9458 25.9335 99.0166 26.0397 99.1109 26.1812Z" fill="white"/>
<path d="M108.392 24.3293C108.263 24.235 108.157 24.1406 108.027 24.0581C107.26 23.5746 106.423 23.7986 106.034 24.6124C105.763 25.1667 105.739 25.7327 105.975 26.3106C106.234 26.9592 106.824 27.3012 107.508 27.2069C108.05 27.1243 107.944 27.2305 107.968 26.688C107.98 26.3224 107.944 25.9568 107.838 25.5676C108.157 25.5676 108.451 25.5676 108.734 25.5676C108.829 25.5676 108.841 25.6266 108.841 25.6973C108.841 26.287 108.841 26.8885 108.852 27.4781C108.852 27.5489 108.829 27.5961 108.746 27.6196C108.003 27.8319 107.26 28.0088 106.494 27.8083C105.574 27.5607 105.055 26.9356 104.913 26.0158C104.819 25.3553 104.913 24.7185 105.291 24.1406C106.093 22.8788 107.732 22.8906 108.605 23.551C108.77 23.6807 108.782 23.6807 108.675 23.8694C108.581 24.0227 108.51 24.1878 108.392 24.3293Z" fill="white"/>
<path d="M62.4229 27.8085C62.1163 27.8085 61.845 27.8085 61.5738 27.8085C61.4676 27.8085 61.4205 27.7732 61.3851 27.6788C61.2907 27.4194 61.1964 27.1717 61.102 26.9123C61.0549 26.7825 60.9959 26.7354 60.8544 26.7354C60.4652 26.7472 60.076 26.7472 59.6987 26.7354C59.5571 26.7354 59.4982 26.7825 59.451 26.9123C59.3684 27.1599 59.2623 27.4076 59.1798 27.6552C59.1444 27.7732 59.0854 27.8203 58.9557 27.8203C58.7552 27.8085 58.5429 27.8203 58.3424 27.8203C58.2835 27.7378 58.3306 27.6788 58.3542 27.6199C58.8967 26.2283 59.4392 24.8485 59.9699 23.4569C60.0289 23.3036 60.1114 23.221 60.2647 23.2092C60.3237 23.1974 60.3945 23.1856 60.4534 23.162C60.5831 23.1149 60.6539 23.1502 60.7011 23.2918C60.8898 23.8342 61.0903 24.3767 61.2907 24.9074C61.6445 25.8391 61.9394 26.7943 62.3757 27.6906C62.4111 27.7142 62.4111 27.7378 62.4229 27.8085ZM60.8426 26.016C60.6539 25.4971 60.4888 25.0136 60.3119 24.5065C60.135 25.0372 59.9227 25.5089 59.7694 26.016C60.135 26.016 60.4652 26.016 60.8426 26.016Z" fill="white"/>
<path d="M100.491 27.8087C100.609 27.5021 100.715 27.2308 100.821 26.9596C101.27 25.8039 101.729 24.6481 102.178 23.4924C102.213 23.4098 102.213 23.2919 102.319 23.2565C102.484 23.2093 102.649 23.1622 102.814 23.1386C102.873 23.1268 102.897 23.2093 102.909 23.2565C102.968 23.4098 103.015 23.5514 103.074 23.7047C103.44 24.7071 103.805 25.6977 104.171 26.7001C104.277 26.9714 104.395 27.2426 104.513 27.5021C104.548 27.5846 104.583 27.6672 104.631 27.7851C104.324 27.8205 104.029 27.7969 103.746 27.8087C103.652 27.8087 103.616 27.7497 103.593 27.679C103.498 27.4195 103.404 27.1719 103.31 26.9124C103.263 26.7827 103.192 26.7355 103.062 26.7473C102.673 26.7591 102.284 26.7591 101.906 26.7473C101.765 26.7473 101.706 26.7945 101.659 26.9242C101.576 27.1719 101.47 27.4195 101.376 27.6672C101.34 27.7851 101.281 27.8323 101.152 27.8323C100.951 27.7969 100.751 27.8087 100.491 27.8087ZM102.508 24.5066C102.319 25.0255 102.142 25.509 101.954 26.0043C102.331 26.0043 102.673 26.0043 103.039 26.0043C102.862 25.4972 102.697 25.0137 102.508 24.5066Z" fill="white"/>
<path d="M76.0202 27.8084C75.7372 27.8084 75.4777 27.8084 75.2183 27.8084C75.1003 27.8084 75.0296 27.7731 74.9942 27.6551C74.9116 27.4075 74.8055 27.1598 74.7229 26.9122C74.6758 26.7824 74.6168 26.7353 74.4753 26.7353C74.0743 26.7471 73.6851 26.7471 73.2842 26.7353C73.178 26.7353 73.1073 26.7706 73.0719 26.8768C72.9893 27.1127 72.895 27.3485 72.8006 27.5844C72.7063 27.8202 72.7535 27.7967 72.4822 27.7967C72.2935 27.7967 72.1049 27.7967 71.8926 27.7967C71.9751 27.5844 72.0459 27.3957 72.1166 27.2188C72.6002 25.9805 73.0837 24.7422 73.5672 23.5039C73.6026 23.4096 73.6026 23.2799 73.7205 23.2445C73.8856 23.1855 74.0507 23.1501 74.2158 23.1266C74.3102 23.1148 74.3102 23.2327 74.3338 23.2917C74.5107 23.7752 74.6876 24.2705 74.8763 24.754C75.2536 25.7446 75.5603 26.7471 76.0202 27.7023C76.0202 27.7259 76.0084 27.7495 76.0202 27.8084ZM74.4517 26.0159C74.2748 25.5088 74.0979 25.0135 73.921 24.5064C73.7323 25.0253 73.5554 25.5088 73.3667 26.0159C73.7441 26.0159 74.0743 26.0159 74.4517 26.0159Z" fill="white"/>
<path d="M95.3849 27.8086C95.09 27.8086 94.8188 27.8086 94.5475 27.8086C94.4414 27.8086 94.3942 27.7732 94.3589 27.6788C94.2645 27.4194 94.1702 27.1717 94.0758 26.9123C94.0286 26.7826 93.9697 26.7354 93.8282 26.7354C93.439 26.7472 93.0498 26.7472 92.6724 26.7354C92.5427 26.7354 92.4719 26.7708 92.4248 26.9005C92.3422 27.1481 92.2361 27.3958 92.1417 27.6435C92.1064 27.7496 92.0474 27.8204 91.9177 27.8086C91.7054 27.7968 91.4931 27.8086 91.269 27.8086C91.2808 27.6435 91.3516 27.5255 91.3988 27.4076C91.9059 26.0985 92.413 24.7895 92.9319 23.4923C92.9673 23.4097 92.9673 23.2918 93.0734 23.2564C93.2385 23.2092 93.4036 23.162 93.5687 23.1385C93.6513 23.1267 93.6513 23.221 93.6748 23.28C93.7928 23.5866 93.8989 23.8932 94.0169 24.2116C94.3117 25.0018 94.6065 25.8037 94.8896 26.5939C95.0075 26.9005 95.1372 27.2071 95.2669 27.5019C95.3259 27.5845 95.3849 27.667 95.3849 27.8086ZM92.7196 26.0278C93.1088 26.016 93.4508 26.0396 93.8164 26.016C93.6277 25.4853 93.4626 25.0136 93.2739 24.5065C93.097 25.0254 92.9201 25.5089 92.7196 26.0278Z" fill="white"/>
<path d="M112.19 25.1194C112.19 25.3081 112.107 25.485 112.072 25.6737C112.048 25.7798 111.966 25.7916 111.883 25.7916C111.576 25.7916 111.282 25.7916 110.975 25.7916C110.774 25.7916 110.763 25.7916 110.763 25.9921C110.763 26.3105 110.763 26.629 110.763 26.9592C110.763 27.1007 110.81 27.1361 110.94 27.1361C111.352 27.1243 111.765 27.1361 112.19 27.1361C112.284 27.1361 112.378 27.1243 112.473 27.1596C112.473 27.1832 112.484 27.2186 112.484 27.2422C112.426 27.4309 112.449 27.6785 112.308 27.7965C112.166 27.9026 111.942 27.8319 111.753 27.8319C111.223 27.8319 110.692 27.8319 110.173 27.8319C110.079 27.8319 109.984 27.8319 109.89 27.8319C109.819 26.2987 109.961 24.7774 109.796 23.2679C109.843 23.2207 109.902 23.2325 109.949 23.2325C110.704 23.2325 111.458 23.2325 112.213 23.2325C112.426 23.2325 112.426 23.2325 112.437 23.4448C112.437 23.5391 112.426 23.6335 112.437 23.7278C112.449 23.8811 112.378 23.9165 112.237 23.9165C111.824 23.9047 111.411 23.9165 110.987 23.9165C110.774 23.9165 110.774 23.9165 110.774 24.1406C110.774 24.4 110.774 24.6477 110.774 24.9071C110.774 25.1312 110.774 25.1312 111.01 25.1312C111.317 25.1312 111.635 25.1312 111.942 25.1312C112.025 25.0958 112.107 25.084 112.19 25.1194Z" fill="white"/>
<path d="M121.907 25.1313C121.895 25.3082 121.824 25.4733 121.801 25.6384C121.777 25.7564 121.707 25.78 121.6 25.78C121.294 25.78 120.999 25.78 120.692 25.78C120.48 25.78 120.48 25.78 120.468 26.004C120.468 26.3107 120.468 26.6291 120.468 26.9357C120.468 27.0654 120.504 27.1126 120.645 27.1126C121.152 27.1008 121.659 27.1126 122.166 27.1126C122.178 27.1362 122.202 27.1598 122.202 27.1716C122.166 27.372 122.166 27.6315 122.037 27.7612C121.907 27.8791 121.659 27.7966 121.459 27.7966C120.928 27.7966 120.398 27.7966 119.879 27.7966C119.537 27.7966 119.584 27.8202 119.584 27.49C119.584 26.3814 119.572 25.2611 119.584 24.1525C119.584 23.8459 119.513 23.5393 119.501 23.2444C119.56 23.1855 119.619 23.1973 119.678 23.1973C120.421 23.1973 121.164 23.1973 121.919 23.1973C122.131 23.1973 122.131 23.1973 122.131 23.4213C122.143 23.8813 122.143 23.8813 121.683 23.8813C121.341 23.8813 120.999 23.8813 120.669 23.8813C120.539 23.8813 120.48 23.9048 120.48 24.0582C120.492 24.3412 120.492 24.6242 120.48 24.9073C120.48 25.0606 120.527 25.1077 120.669 25.1077C121.023 25.096 121.365 25.1077 121.718 25.1077C121.766 25.096 121.836 25.0842 121.907 25.1313Z" fill="white"/>
<path d="M81.9759 24.9545C82.259 24.412 82.5184 23.8931 82.7779 23.3742C82.8368 23.2445 82.9194 23.1973 83.0609 23.1973C83.2732 23.2091 83.4973 23.1973 83.7095 23.1973C83.7567 23.3153 83.6742 23.386 83.627 23.4568C83.2496 24.129 82.884 24.813 82.4948 25.4852C82.4005 25.6503 82.3415 25.8154 82.3533 26.0159C82.3769 26.5702 82.3179 27.1245 82.4123 27.6788C82.4241 27.7141 82.4123 27.7495 82.4005 27.8085C82.1292 27.8085 81.8698 27.8085 81.6103 27.8085C81.4806 27.8085 81.4452 27.7613 81.4452 27.6434C81.4452 27.1127 81.4452 26.582 81.4452 26.0631C81.4452 25.898 81.4099 25.7565 81.3273 25.6032C81.1032 25.1904 80.891 24.7776 80.6669 24.3531C80.49 24.0111 80.3131 23.6691 80.0654 23.3624C80.0301 23.3153 80.0065 23.2681 79.9475 23.1855C80.3131 23.1855 80.6197 23.1855 80.9381 23.1855C81.0679 23.1855 81.0914 23.2799 81.1268 23.3624C81.4335 23.8931 81.6929 24.412 81.9759 24.9545Z" fill="white"/>
<path d="M77.2228 25.851C77.2228 25.2613 77.2228 24.6835 77.2228 24.0938C77.2228 23.8933 77.2229 23.8933 77.0224 23.8933C76.6686 23.8933 76.3266 23.8933 75.9728 23.8933C75.7605 23.8933 75.7605 23.8933 75.7605 23.6692C75.7605 23.5513 75.7605 23.4452 75.7605 23.3272C75.7605 23.2329 75.8077 23.1975 75.902 23.1975C75.9374 23.1975 75.9728 23.1975 76.0199 23.1975C77.1403 23.1975 78.2607 23.1975 79.381 23.1975C79.6287 23.1975 79.6287 23.1975 79.6287 23.4452C79.6405 23.8933 79.6405 23.8933 79.1923 23.8933C78.8975 23.8933 78.6027 23.8933 78.3196 23.8933C78.1899 23.8933 78.1309 23.9169 78.1309 24.0702C78.1309 25.1198 78.1309 26.1812 78.1427 27.2308C78.1427 27.3723 78.1781 27.5138 78.1899 27.6553C78.2135 27.7733 78.1781 27.8322 78.0484 27.8322C77.8361 27.8204 77.612 27.8204 77.3997 27.8322C77.2582 27.8322 77.2229 27.7733 77.2346 27.6435C77.2229 27.0421 77.2228 26.4406 77.2228 25.851Z" fill="white"/>
<path d="M129.007 25.8274C129.007 25.2731 129.007 24.7188 129.007 24.1646C129.007 23.8933 129.03 23.8933 128.747 23.8933C128.417 23.8933 128.087 23.8933 127.757 23.8933C127.544 23.8933 127.544 23.8933 127.544 23.6692C127.544 23.5513 127.544 23.4452 127.544 23.3272C127.544 23.2329 127.592 23.1975 127.686 23.1975C127.721 23.1975 127.757 23.1975 127.804 23.1975C128.924 23.1975 130.045 23.1975 131.165 23.1975C131.389 23.1975 131.389 23.1975 131.401 23.4216C131.413 23.8815 131.413 23.8815 130.953 23.8815C130.658 23.8815 130.363 23.8815 130.08 23.8815C129.95 23.8815 129.915 23.9287 129.915 24.0466C129.915 25.108 129.915 26.1812 129.927 27.2426C129.927 27.3015 129.938 27.3605 129.938 27.4077C129.997 27.7851 129.997 27.7851 129.62 27.7851C129.479 27.7851 129.337 27.7733 129.195 27.7851C129.042 27.7969 129.007 27.7379 129.007 27.5964C129.019 27.0185 129.007 26.4288 129.007 25.8274Z" fill="white"/>
<path d="M65.7839 27.1128C65.7367 27.3251 65.6895 27.4902 65.6541 27.6553C65.6305 27.7615 65.5834 27.8086 65.4654 27.8086C64.7343 27.8086 64.0149 27.7969 63.2837 27.8086C63.1304 27.8086 63.1186 27.7497 63.1186 27.62C63.1186 27.1128 63.1186 26.6057 63.1186 26.0868C63.1186 25.6623 63.1186 25.2377 63.1186 24.8132C63.1186 24.2825 63.1304 23.7636 63.0125 23.1975C63.3309 23.1975 63.6257 23.1975 63.9205 23.1975C63.9913 23.1975 64.0149 23.2447 64.0149 23.3154C64.0149 23.3862 64.0149 23.4452 64.0149 23.5159C64.0149 24.6009 64.0149 25.6859 64.0149 26.7708C64.0149 26.8298 64.0149 26.8888 64.0149 26.936C64.0031 27.0775 64.062 27.1128 64.1918 27.1128C64.6045 27.1011 65.0173 27.1128 65.4419 27.1128C65.548 27.1128 65.6541 27.1128 65.7839 27.1128Z" fill="white"/>
</svg>
