<svg width="152" height="41" viewBox="0 0 152 41" fill="none" xmlns="http://www.w3.org/2000/svg">
<path d="M0 0.320312C0 0.14342 0.14342 0 0.320312 0H17.6973C18.4933 0 19.1387 0.64535 19.1387 1.44141V17.8574C19.1387 18.6535 18.4933 19.2988 17.6973 19.2988H0.320312C0.14342 19.2988 0 19.1554 0 18.9785V0.320312Z" fill="#8CD812"/>
<path d="M0 22.0215C0 21.8446 0.14342 21.7012 0.320312 21.7012H17.6973C18.4933 21.7012 19.1387 22.3465 19.1387 23.1426V39.5586C19.1387 40.3547 18.4933 41 17.6973 41H0.320312C0.14342 41 0 40.8566 0 40.6797V22.0215Z" fill="white"/>
<path d="M21.6211 1.44141C21.6211 0.64535 22.2664 0 23.0625 0H40.6797C40.8566 0 41 0.14342 41 0.320312V40.6797C41 40.8566 40.8566 41 40.6797 41H23.0625C22.2664 41 21.6211 40.3546 21.6211 39.5586V1.44141Z" fill="white"/>
<path d="M48.2173 17.8574V15.3564H51.6203C52.249 15.3564 52.741 15.1719 53.0963 14.8029C53.4516 14.4339 53.6293 13.9829 53.6293 13.4499C53.6293 13.0809 53.5473 12.7529 53.3833 12.4659C53.2193 12.1789 52.987 11.9534 52.6863 11.7894C52.3993 11.6254 52.044 11.5434 51.6203 11.5434H48.2173V9.10387H51.3538C51.8868 9.10387 52.3173 8.97406 52.6453 8.71437C52.9733 8.44106 53.1373 8.03106 53.1373 7.48437C53.1373 6.95137 52.9733 6.55506 52.6453 6.29536C52.3173 6.02206 51.8868 5.88537 51.3538 5.88537H48.2173V3.38437H51.9688C52.8981 3.38437 53.684 3.55517 54.3263 3.89687C54.9823 4.23856 55.4811 4.69636 55.8228 5.27036C56.1645 5.84436 56.3353 6.47986 56.3353 7.17686C56.3353 8.06517 56.0483 8.81686 55.4743 9.43186C54.9003 10.0469 54.053 10.4706 52.9323 10.7029L53.0143 9.61636C54.2306 9.84867 55.1668 10.3202 55.8228 11.0309C56.4925 11.7416 56.8273 12.6162 56.8273 13.6549C56.8273 14.4476 56.6291 15.1651 56.2328 15.8074C55.8501 16.4361 55.2898 16.9349 54.5518 17.3039C53.8275 17.6729 52.9528 17.8574 51.9278 17.8574H48.2173ZM45.7573 17.8574V3.38437H48.9348V17.8574H45.7573ZM59.2181 17.8574V2.97437H62.3546V17.8574H59.2181ZM69.9753 18.0829C68.9503 18.0829 68.021 17.8574 67.1873 17.4064C66.3673 16.9417 65.7181 16.3131 65.2398 15.5204C64.7615 14.7277 64.5223 13.8394 64.5223 12.8554C64.5223 11.8714 64.7615 10.9899 65.2398 10.2109C65.7181 9.43186 66.3673 8.81686 67.1873 8.36586C68.0073 7.90117 68.9366 7.66887 69.9753 7.66887C71.014 7.66887 71.943 7.89437 72.763 8.34537C73.583 8.79637 74.2324 9.41817 74.7105 10.2109C75.1894 10.9899 75.428 11.8714 75.428 12.8554C75.428 13.8394 75.1894 14.7277 74.7105 15.5204C74.2324 16.3131 73.583 16.9417 72.763 17.4064C71.943 17.8574 71.014 18.0829 69.9753 18.0829ZM69.9753 15.2334C70.4263 15.2334 70.8226 15.1377 71.1643 14.9464C71.5058 14.7414 71.766 14.4612 71.943 14.1059C72.1344 13.7369 72.2305 13.3201 72.2305 12.8554C72.2305 12.3907 72.1344 11.9876 71.943 11.6459C71.7516 11.2906 71.4857 11.0172 71.1438 10.8259C70.8158 10.6209 70.4263 10.5184 69.9753 10.5184C69.538 10.5184 69.1485 10.6209 68.8068 10.8259C68.4651 11.0172 68.1986 11.2906 68.0073 11.6459C67.816 12.0012 67.7203 12.4112 67.7203 12.8759C67.7203 13.3269 67.816 13.7369 68.0073 14.1059C68.1986 14.4612 68.4651 14.7414 68.8068 14.9464C69.1485 15.1377 69.538 15.2334 69.9753 15.2334ZM82.422 18.0829C81.397 18.0829 80.4681 17.8574 79.6345 17.4064C78.8009 16.9554 78.145 16.3336 77.6662 15.5409C77.1881 14.7482 76.9487 13.8599 76.9487 12.8759C76.9487 11.8782 77.1881 10.9899 77.6662 10.2109C78.1587 9.41817 78.8209 8.79637 79.6545 8.34537C80.4881 7.89437 81.425 7.66887 82.4637 7.66887C83.242 7.66887 83.9531 7.80556 84.5953 8.07887C85.2512 8.33856 85.8325 8.73486 86.3378 9.26786L84.3287 11.2769C84.0964 11.0172 83.8234 10.8259 83.5087 10.7029C83.2084 10.5799 82.86 10.5184 82.4637 10.5184C82.012 10.5184 81.6092 10.6209 81.2537 10.8259C80.9125 11.0172 80.6387 11.2906 80.4337 11.6459C80.2423 11.9876 80.147 12.3907 80.147 12.8554C80.147 13.3201 80.2423 13.7301 80.4337 14.0854C80.6387 14.4407 80.9189 14.7209 81.2745 14.9259C81.63 15.1309 82.0256 15.2334 82.4637 15.2334C82.8737 15.2334 83.2356 15.1651 83.5495 15.0284C83.8778 14.8781 84.1581 14.6731 84.3903 14.4134L86.3787 16.4224C85.8598 16.9691 85.272 17.3859 84.6162 17.6729C83.9595 17.9462 83.2284 18.0829 82.422 18.0829ZM94.7653 17.8574L91.2803 12.6914L94.7444 7.89436H98.2503L94.0686 13.2859L94.1711 11.9944L98.4553 17.8574H94.7653ZM88.3894 17.8574V2.97437H91.5261V17.8574H88.3894ZM104.572 18.0829C103.547 18.0829 102.619 17.8574 101.785 17.4064C100.951 16.9554 100.295 16.3336 99.8166 15.5409C99.3385 14.7482 99.0991 13.8599 99.0991 12.8759C99.0991 11.8782 99.3385 10.9899 99.8166 10.2109C100.309 9.41817 100.971 8.79637 101.805 8.34537C102.639 7.89437 103.575 7.66887 104.614 7.66887C105.392 7.66887 106.104 7.80556 106.746 8.07887C107.402 8.33856 107.983 8.73486 108.488 9.26786L106.479 11.2769C106.247 11.0172 105.974 10.8259 105.659 10.7029C105.359 10.5799 105.01 10.5184 104.614 10.5184C104.162 10.5184 103.76 10.6209 103.404 10.8259C103.063 11.0172 102.789 11.2906 102.584 11.6459C102.393 11.9876 102.297 12.3907 102.297 12.8554C102.297 13.3201 102.393 13.7301 102.584 14.0854C102.789 14.4407 103.069 14.7209 103.425 14.9259C103.78 15.1309 104.176 15.2334 104.614 15.2334C105.024 15.2334 105.386 15.1651 105.7 15.0284C106.028 14.8781 106.309 14.6731 106.541 14.4134L108.529 16.4224C108.01 16.9691 107.422 17.3859 106.767 17.6729C106.11 17.9462 105.379 18.0829 104.572 18.0829ZM117.121 17.8574V12.1789C117.121 11.6596 116.957 11.2427 116.629 10.9284C116.314 10.6004 115.911 10.4364 115.419 10.4364C115.078 10.4364 114.777 10.5116 114.517 10.6619C114.258 10.7986 114.053 11.0036 113.902 11.2769C113.752 11.5366 113.677 11.8372 113.677 12.1789L112.467 11.5844C112.467 10.8054 112.631 10.1221 112.959 9.53436C113.287 8.94667 113.745 8.49567 114.332 8.18137C114.92 7.85336 115.597 7.68937 116.362 7.68937C117.141 7.68937 117.825 7.85336 118.412 8.18137C119 8.49567 119.451 8.93986 119.765 9.51386C120.093 10.0742 120.257 10.7302 120.257 11.4819V17.8574H117.121ZM110.54 17.8574V2.97437H113.677V17.8574H110.54ZM127.048 18.0624C126.133 18.0624 125.313 17.8369 124.588 17.3859C123.878 16.9349 123.31 16.3199 122.886 15.5409C122.476 14.7619 122.271 13.8736 122.271 12.8759C122.271 11.8782 122.476 10.9899 122.886 10.2109C123.31 9.43186 123.878 8.81686 124.588 8.36586C125.313 7.91487 126.133 7.68937 127.048 7.68937C127.717 7.68937 128.319 7.81917 128.852 8.07887C129.399 8.33856 129.843 8.70067 130.185 9.16536C130.527 9.61636 130.718 10.1357 130.759 10.7234V15.0284C130.718 15.6161 130.527 16.1422 130.185 16.6069C129.856 17.0579 129.419 17.4132 128.873 17.6729C128.326 17.9326 127.717 18.0624 127.048 18.0624ZM127.684 15.2334C128.353 15.2334 128.893 15.0147 129.303 14.5774C129.713 14.1264 129.918 13.5592 129.918 12.8759C129.918 12.4112 129.823 12.0012 129.631 11.6459C129.454 11.2906 129.194 11.0172 128.852 10.8259C128.524 10.6209 128.142 10.5184 127.704 10.5184C127.267 10.5184 126.877 10.6209 126.535 10.8259C126.208 11.0172 125.941 11.2906 125.736 11.6459C125.545 12.0012 125.449 12.4112 125.449 12.8759C125.449 13.3269 125.545 13.7301 125.736 14.0854C125.928 14.4407 126.194 14.7209 126.535 14.9259C126.877 15.1309 127.26 15.2334 127.684 15.2334ZM129.795 17.8574V15.1719L130.266 12.7529L129.795 10.3339V7.89436H132.87V17.8574H129.795ZM135.693 17.8574V7.89436H138.83V17.8574H135.693ZM137.272 6.52087C136.78 6.52087 136.37 6.35686 136.042 6.02886C135.728 5.68717 135.571 5.27717 135.571 4.79886C135.571 4.30686 135.728 3.89686 136.042 3.56886C136.37 3.24086 136.78 3.07687 137.272 3.07687C137.764 3.07687 138.167 3.24086 138.482 3.56886C138.796 3.89686 138.953 4.30686 138.953 4.79886C138.953 5.27717 138.796 5.68717 138.482 6.02886C138.167 6.35686 137.764 6.52087 137.272 6.52087ZM148.234 17.8574V12.1789C148.234 11.6596 148.07 11.2427 147.743 10.9284C147.428 10.6004 147.025 10.4364 146.533 10.4364C146.191 10.4364 145.89 10.5116 145.631 10.6619C145.371 10.7986 145.166 11.0036 145.016 11.2769C144.865 11.5366 144.79 11.8372 144.79 12.1789L143.581 11.5844C143.581 10.8054 143.751 10.1221 144.093 9.53436C144.435 8.94667 144.906 8.49567 145.508 8.18137C146.123 7.85336 146.813 7.68937 147.578 7.68937C148.316 7.68937 148.965 7.86706 149.526 8.22236C150.1 8.56406 150.551 9.02186 150.878 9.59586C151.207 10.1699 151.371 10.7986 151.371 11.4819V17.8574H148.234ZM141.653 17.8574V7.89436H144.79V17.8574H141.653ZM52.6248 38.5829C51.5451 38.5829 50.5406 38.3984 49.6113 38.0294C48.6956 37.6467 47.8893 37.1137 47.1923 36.4304C46.509 35.7471 45.976 34.9544 45.5933 34.0524C45.2106 33.1367 45.0193 32.1527 45.0193 31.1004C45.0193 30.0481 45.2106 29.0709 45.5933 28.1689C45.976 27.2532 46.509 26.4606 47.1923 25.7909C47.8756 25.1212 48.6751 24.6019 49.5908 24.2329C50.5201 23.8502 51.5246 23.6589 52.6043 23.6589C53.7523 23.6589 54.7705 23.8434 55.6588 24.2124C56.5608 24.5814 57.3466 25.0871 58.0163 25.7294L55.8638 27.9024C55.4811 27.4924 55.0165 27.1712 54.4698 26.9389C53.9368 26.7066 53.315 26.5904 52.6043 26.5904C51.9756 26.5904 51.3948 26.6997 50.8618 26.9184C50.3425 27.1234 49.8915 27.4241 49.5088 27.8204C49.1398 28.2167 48.846 28.6951 48.6273 29.2554C48.4223 29.8157 48.3198 30.4307 48.3198 31.1004C48.3198 31.7837 48.4223 32.4056 48.6273 32.9659C48.846 33.5262 49.1398 34.0046 49.5088 34.4009C49.8915 34.7972 50.3425 35.1047 50.8618 35.3234C51.3948 35.5421 51.9756 35.6514 52.6043 35.6514C53.3423 35.6514 53.9846 35.5352 54.5313 35.3029C55.078 35.0706 55.5495 34.7494 55.9458 34.3394L58.1188 36.5124C57.4218 37.1547 56.6223 37.6604 55.7203 38.0294C54.832 38.3984 53.8001 38.5829 52.6248 38.5829ZM64.8988 38.5829C63.8191 38.5829 62.8556 38.3642 62.0083 37.9269C61.1746 37.4759 60.5186 36.8541 60.0403 36.0614C59.562 35.2687 59.3228 34.3736 59.3228 33.3759C59.3228 32.3782 59.5551 31.4899 60.0198 30.7109C60.4981 29.9182 61.1405 29.2964 61.9468 28.8454C62.7531 28.3944 63.662 28.1689 64.6733 28.1689C65.6573 28.1689 66.5251 28.3807 67.2768 28.8044C68.0285 29.2281 68.6161 29.8157 69.0398 30.5674C69.4771 31.3191 69.6958 32.1801 69.6958 33.1504C69.6958 33.3281 69.6821 33.5194 69.6548 33.7244C69.6411 33.9157 69.607 34.1412 69.5523 34.4009L60.9628 34.4214V32.2689L68.2198 32.2484L66.8668 33.1504C66.8531 32.5764 66.7643 32.1049 66.6003 31.7359C66.4363 31.3532 66.1903 31.0662 65.8623 30.8749C65.548 30.6699 65.1585 30.5674 64.6938 30.5674C64.2018 30.5674 63.7713 30.6836 63.4023 30.9159C63.047 31.1346 62.7668 31.4489 62.5618 31.8589C62.3705 32.2689 62.2748 32.7677 62.2748 33.3554C62.2748 33.9431 62.3773 34.4487 62.5823 34.8724C62.801 35.2824 63.1017 35.6036 63.4843 35.8359C63.8806 36.0546 64.3453 36.1639 64.8783 36.1639C65.3703 36.1639 65.8145 36.0819 66.2108 35.9179C66.6071 35.7402 66.9556 35.4806 67.2563 35.1389L68.9783 36.8609C68.4863 37.4349 67.8918 37.8654 67.1948 38.1524C66.4978 38.4394 65.7325 38.5829 64.8988 38.5829ZM78.4053 38.3574V32.6789C78.4053 32.1596 78.2411 31.7427 77.9136 31.4284C77.5989 31.1004 77.1961 30.9364 76.7036 30.9364C76.3625 30.9364 76.0614 31.0116 75.802 31.1619C75.5425 31.2986 75.3375 31.5036 75.187 31.7769C75.0364 32.0366 74.9611 32.3372 74.9611 32.6789L73.752 32.0844C73.752 31.3054 73.9225 30.6221 74.2645 30.0344C74.6056 29.4467 75.0773 28.9957 75.6786 28.6814C76.2936 28.3534 76.9839 28.1894 77.7495 28.1894C78.487 28.1894 79.1364 28.3671 79.697 28.7224C80.2711 29.0641 80.722 29.5219 81.0495 30.0959C81.3778 30.6699 81.542 31.2986 81.542 31.9819V38.3574H78.4053ZM71.8245 38.3574V28.3944H74.9611V38.3574H71.8245ZM85.4658 38.3574V24.2739H88.6024V38.3574H85.4658ZM83.2108 31.0594V28.3944H90.8574V31.0594H83.2108ZM97.5736 38.5829C96.4941 38.5829 95.5308 38.3642 94.6836 37.9269C93.85 37.4759 93.1941 36.8541 92.7153 36.0614C92.2372 35.2687 91.9978 34.3736 91.9978 33.3759C91.9978 32.3782 92.23 31.4899 92.6952 30.7109C93.1733 29.9182 93.8155 29.2964 94.6219 28.8454C95.4283 28.3944 96.3372 28.1689 97.3486 28.1689C98.3327 28.1689 99.2 28.3807 99.9519 28.8044C100.704 29.2281 101.292 29.8157 101.715 30.5674C102.152 31.3191 102.371 32.1801 102.371 33.1504C102.371 33.3281 102.357 33.5194 102.33 33.7244C102.317 33.9157 102.282 34.1412 102.228 34.4009L93.6378 34.4214V32.2689L100.895 32.2484L99.5419 33.1504C99.5283 32.5764 99.4394 32.1049 99.2753 31.7359C99.1111 31.3532 98.8653 31.0662 98.5377 30.8749C98.223 30.6699 97.8339 30.5674 97.3686 30.5674C96.8769 30.5674 96.4461 30.6836 96.0777 30.9159C95.7222 31.1346 95.4419 31.4489 95.2369 31.8589C95.0455 32.2689 94.9502 32.7677 94.9502 33.3554C94.9502 33.9431 95.0527 34.4487 95.2577 34.8724C95.4764 35.2824 95.7766 35.6036 96.1594 35.8359C96.5558 36.0546 97.0203 36.1639 97.5536 36.1639C98.0453 36.1639 98.4897 36.0819 98.8861 35.9179C99.2825 35.7402 99.6308 35.4806 99.9311 35.1389L101.654 36.8609C101.161 37.4349 100.567 37.8654 99.8702 38.1524C99.1728 38.4394 98.4072 38.5829 97.5736 38.5829ZM104.5 38.3574V28.3944H107.636V38.3574H104.5ZM107.636 32.8839L106.325 31.8589C106.584 30.6972 107.021 29.7952 107.636 29.1529C108.251 28.5106 109.106 28.1894 110.199 28.1894C110.678 28.1894 111.094 28.2646 111.45 28.4149C111.819 28.5516 112.14 28.7702 112.413 29.0709L110.547 31.4284C110.411 31.2781 110.24 31.1619 110.035 31.0799C109.83 30.9979 109.597 30.9569 109.338 30.9569C108.818 30.9569 108.402 31.1209 108.087 31.4489C107.787 31.7632 107.636 32.2416 107.636 32.8839Z" fill="white"/>
</svg>
