<svg width="213" height="20" viewBox="0 0 213 20" fill="none" xmlns="http://www.w3.org/2000/svg">
<path d="M7.99071 16.2301C6.62698 16.2301 5.39071 15.9369 4.28188 15.3507C3.1858 14.7516 2.31914 13.9296 1.68188 12.8845C1.05737 11.8266 0.745117 10.635 0.745117 9.30949C0.745117 7.984 1.05737 6.79871 1.68188 5.75361C2.31914 4.69577 3.1858 3.87371 4.28188 3.28743C5.39071 2.68841 6.63335 2.3889 8.00982 2.3889C9.16963 2.3889 10.2147 2.59282 11.1451 3.00067C12.0883 3.40851 12.8785 3.99479 13.5157 4.75949L11.5275 6.59478C10.6226 5.54969 9.501 5.02714 8.16276 5.02714C7.33433 5.02714 6.59512 5.21194 5.94512 5.58155C5.29512 5.93841 4.78531 6.44184 4.41571 7.09184C4.05884 7.74184 3.88041 8.48106 3.88041 9.30949C3.88041 10.1379 4.05884 10.8771 4.41571 11.5271C4.78531 12.1771 5.29512 12.6869 5.94512 13.0565C6.59512 13.4134 7.33433 13.5918 8.16276 13.5918C9.501 13.5918 10.6226 13.0629 11.5275 12.0051L13.5157 13.8404C12.8785 14.6178 12.0883 15.2105 11.1451 15.6183C10.202 16.0262 9.15051 16.2301 7.99071 16.2301Z" fill="white"/>
<path d="M19.5836 7.07273C19.9405 6.57567 20.4184 6.19969 21.0174 5.94479C21.6292 5.68988 22.3302 5.56243 23.1204 5.56243V8.31537C22.789 8.28988 22.566 8.27714 22.4513 8.27714C21.5973 8.27714 20.9282 8.51929 20.4439 9.00361C19.9596 9.47518 19.7174 10.1889 19.7174 11.1448V16.0007H16.7351V5.71537H19.5836V7.07273Z" fill="white"/>
<path d="M36.7955 5.71537L32.1499 16.6315C31.6783 17.8168 31.092 18.6516 30.3911 19.136C29.7028 19.6203 28.868 19.8624 27.8866 19.8624C27.3514 19.8624 26.8224 19.7796 26.2999 19.6139C25.7773 19.4482 25.3504 19.2188 25.019 18.9257L26.1087 16.8036C26.3381 17.0075 26.5994 17.1668 26.8925 17.2815C27.1984 17.3963 27.4979 17.4536 27.7911 17.4536C28.1989 17.4536 28.5303 17.3516 28.7852 17.1477C29.0401 16.9565 29.2695 16.6315 29.4734 16.1727L29.5117 16.0771L25.0572 5.71537H28.1352L31.0219 12.6933L33.9278 5.71537H36.7955Z" fill="white"/>
<path d="M45.4301 5.56243C46.386 5.56243 47.2526 5.78547 48.0301 6.23155C48.8203 6.66488 49.4384 7.28302 49.8845 8.08596C50.3306 8.87616 50.5536 9.80018 50.5536 10.858C50.5536 11.9159 50.3306 12.8463 49.8845 13.6492C49.4384 14.4394 48.8203 15.0575 48.0301 15.5036C47.2526 15.9369 46.386 16.1536 45.4301 16.1536C44.1173 16.1536 43.085 15.7394 42.333 14.911V19.7095H39.3507V5.71537H42.1992V6.90067C42.9384 6.00851 44.0154 5.56243 45.4301 5.56243ZM44.9139 13.7066C45.6786 13.7066 46.3031 13.4516 46.7874 12.9418C47.2845 12.4193 47.533 11.7247 47.533 10.858C47.533 9.99135 47.2845 9.30312 46.7874 8.79331C46.3031 8.27077 45.6786 8.00949 44.9139 8.00949C44.1492 8.00949 43.5183 8.27077 43.0213 8.79331C42.5369 9.30312 42.2948 9.99135 42.2948 10.858C42.2948 11.7247 42.5369 12.4193 43.0213 12.9418C43.5183 13.4516 44.1492 13.7066 44.9139 13.7066Z" fill="white"/>
<path d="M60.5221 15.5036C60.229 15.7203 59.8657 15.886 59.4324 16.0007C59.0118 16.1026 58.5657 16.1536 58.0942 16.1536C56.8706 16.1536 55.9211 15.8414 55.2456 15.2168C54.5829 14.5923 54.2515 13.6747 54.2515 12.4639V8.2389H52.6648V5.94479H54.2515V3.44037H57.2339V5.94479H59.7957V8.2389H57.2339V12.4257C57.2339 12.859 57.3422 13.1967 57.5589 13.4389C57.7883 13.6683 58.1069 13.783 58.5148 13.783C58.9863 13.783 59.3878 13.6556 59.7192 13.4007L60.5221 15.5036Z" fill="white"/>
<path d="M68.1112 16.1536C67.0279 16.1536 66.0529 15.9306 65.1862 15.4845C64.3323 15.0257 63.6632 14.3948 63.1789 13.5918C62.6946 12.7889 62.4524 11.8776 62.4524 10.858C62.4524 9.83841 62.6946 8.92714 63.1789 8.1242C63.6632 7.32125 64.3323 6.69675 65.1862 6.25067C66.0529 5.79184 67.0279 5.56243 68.1112 5.56243C69.1946 5.56243 70.1632 5.79184 71.0171 6.25067C71.871 6.69675 72.5401 7.32125 73.0245 8.1242C73.5088 8.92714 73.7509 9.83841 73.7509 10.858C73.7509 11.8776 73.5088 12.7889 73.0245 13.5918C72.5401 14.3948 71.871 15.0257 71.0171 15.4845C70.1632 15.9306 69.1946 16.1536 68.1112 16.1536ZM68.1112 13.7066C68.8759 13.7066 69.5004 13.4516 69.9847 12.9418C70.4818 12.4193 70.7303 11.7247 70.7303 10.858C70.7303 9.99135 70.4818 9.30312 69.9847 8.79331C69.5004 8.27077 68.8759 8.00949 68.1112 8.00949C67.3465 8.00949 66.7156 8.27077 66.2186 8.79331C65.7215 9.30312 65.473 9.99135 65.473 10.858C65.473 11.7247 65.7215 12.4193 66.2186 12.9418C66.7156 13.4516 67.3465 13.7066 68.1112 13.7066Z" fill="white"/>
<path d="M83.3341 5.56243C84.6086 5.56243 85.6346 5.94479 86.412 6.70949C87.2022 7.4742 87.5973 8.60851 87.5973 10.1124V16.0007H84.615V10.5713C84.615 9.75557 84.4365 9.15018 84.0797 8.75508C83.7228 8.34724 83.2066 8.14331 82.5312 8.14331C81.7792 8.14331 81.1802 8.3791 80.7341 8.85067C80.288 9.30949 80.065 9.99773 80.065 10.9154V16.0007H77.0826V5.71537H79.9312V6.91978C80.3262 6.48645 80.8169 6.15508 81.4032 5.92567C81.9895 5.68351 82.6331 5.56243 83.3341 5.56243Z" fill="white"/>
<path d="M100.8 19.7095C100.035 18.5497 99.4428 17.2051 99.0222 15.6757C98.6144 14.1463 98.4105 12.5085 98.4105 10.7624C98.4105 9.01635 98.6144 7.37861 99.0222 5.8492C99.4428 4.30704 100.035 2.96243 100.8 1.81537H103.649C102.846 3.23008 102.259 4.67027 101.89 6.13596C101.52 7.5889 101.335 9.13106 101.335 10.7624C101.335 12.3938 101.52 13.9423 101.89 15.408C102.259 16.861 102.846 18.2948 103.649 19.7095H100.8Z" fill="white"/>
<path d="M123.811 16.2301L122.205 14.7389C120.93 15.733 119.439 16.2301 117.731 16.2301C116.763 16.2301 115.89 16.0771 115.112 15.7713C114.335 15.4526 113.723 15.0129 113.277 14.4521C112.843 13.8914 112.627 13.2605 112.627 12.5595C112.627 11.7311 112.856 11.0046 113.315 10.3801C113.787 9.74282 114.539 9.13743 115.571 8.5639C115.087 8.06684 114.736 7.59527 114.519 7.1492C114.303 6.69037 114.194 6.2188 114.194 5.73449C114.194 5.08449 114.367 4.51096 114.711 4.0139C115.055 3.51684 115.539 3.13449 116.164 2.86684C116.801 2.58645 117.534 2.44625 118.362 2.44625C119.522 2.44625 120.452 2.72665 121.153 3.28743C121.854 3.83547 122.205 4.58106 122.205 5.5242C122.205 6.21243 121.994 6.8242 121.574 7.35949C121.166 7.89478 120.503 8.41096 119.586 8.90802L122.033 11.183C122.326 10.5713 122.549 9.87665 122.702 9.0992L125.092 9.84478C124.837 11.0301 124.429 12.0433 123.868 12.8845L125.436 14.3374L123.811 16.2301ZM118.362 4.47273C117.916 4.47273 117.559 4.58743 117.292 4.81684C117.037 5.04626 116.909 5.33939 116.909 5.69625C116.909 5.9639 116.979 6.2188 117.119 6.46096C117.26 6.69037 117.534 7.00263 117.942 7.39773C118.592 7.05361 119.044 6.74773 119.299 6.48008C119.554 6.19969 119.681 5.90018 119.681 5.58155C119.681 5.25018 119.567 4.98253 119.337 4.77861C119.108 4.57469 118.783 4.47273 118.362 4.47273ZM117.942 13.8977C118.872 13.8977 119.707 13.6365 120.446 13.1139L117.215 10.0933C116.616 10.4374 116.189 10.7752 115.934 11.1065C115.679 11.4379 115.552 11.8139 115.552 12.2345C115.552 12.7316 115.768 13.133 116.202 13.4389C116.635 13.7448 117.215 13.8977 117.942 13.8977Z" fill="#11C3CB"/>
<path d="M133.169 16.2301C132.112 16.2301 131.086 16.0899 130.092 15.8095C129.11 15.5164 128.32 15.1404 127.721 14.6815L128.772 12.3492C129.346 12.7698 130.028 13.1075 130.818 13.3624C131.608 13.6173 132.398 13.7448 133.189 13.7448C134.068 13.7448 134.718 13.6173 135.139 13.3624C135.559 13.0948 135.769 12.7443 135.769 12.311C135.769 11.9923 135.642 11.7311 135.387 11.5271C135.145 11.3105 134.826 11.1384 134.431 11.011C134.049 10.8835 133.526 10.7433 132.864 10.5904C131.844 10.3482 131.009 10.1061 130.359 9.8639C129.709 9.62175 129.148 9.23302 128.677 8.69773C128.218 8.16243 127.989 7.44871 127.989 6.55655C127.989 5.7791 128.199 5.07812 128.619 4.45361C129.04 3.81635 129.671 3.31292 130.512 2.94331C131.366 2.57371 132.405 2.3889 133.628 2.3889C134.482 2.3889 135.317 2.49086 136.133 2.69478C136.948 2.89871 137.662 3.19184 138.274 3.5742L137.318 5.92567C136.082 5.22469 134.845 4.8742 133.609 4.8742C132.743 4.8742 132.099 5.01439 131.678 5.29479C131.27 5.57518 131.067 5.94478 131.067 6.40361C131.067 6.86243 131.302 7.20655 131.774 7.43596C132.258 7.65263 132.991 7.86929 133.972 8.08596C134.992 8.32812 135.827 8.57028 136.477 8.81243C137.127 9.05459 137.681 9.43694 138.14 9.95949C138.612 10.482 138.847 11.1894 138.847 12.0816C138.847 12.8463 138.631 13.5472 138.197 14.1845C137.777 14.809 137.14 15.3061 136.286 15.6757C135.432 16.0453 134.393 16.2301 133.169 16.2301Z" fill="#11C3CB"/>
<path d="M148.725 15.5036C148.432 15.7203 148.069 15.886 147.636 16.0007C147.215 16.1026 146.769 16.1536 146.297 16.1536C145.074 16.1536 144.124 15.8414 143.449 15.2168C142.786 14.5923 142.455 13.6747 142.455 12.4639V8.2389H140.868V5.94479H142.455V3.44037H145.437V5.94479H147.999V8.2389H145.437V12.4257C145.437 12.859 145.546 13.1967 145.762 13.4389C145.992 13.6683 146.31 13.783 146.718 13.783C147.19 13.783 147.591 13.6556 147.922 13.4007L148.725 15.5036Z" fill="#11C3CB"/>
<path d="M162.1 5.71537V16.0007H159.27V14.7771C158.875 15.2232 158.403 15.5673 157.855 15.8095C157.307 16.0389 156.715 16.1536 156.077 16.1536C154.727 16.1536 153.656 15.7649 152.866 14.9874C152.076 14.21 151.68 13.0565 151.68 11.5271V5.71537H154.663V11.0874C154.663 12.7443 155.357 13.5727 156.747 13.5727C157.46 13.5727 158.034 13.3433 158.467 12.8845C158.901 12.4129 159.117 11.7183 159.117 10.8007V5.71537H162.1Z" fill="#11C3CB"/>
<path d="M176.677 1.81537V16.0007H173.829V14.8154C173.089 15.7075 172.019 16.1536 170.617 16.1536C169.648 16.1536 168.769 15.9369 167.979 15.5036C167.201 15.0703 166.589 14.4521 166.143 13.6492C165.697 12.8463 165.474 11.9159 165.474 10.858C165.474 9.80018 165.697 8.86979 166.143 8.06684C166.589 7.2639 167.201 6.64577 167.979 6.21243C168.769 5.7791 169.648 5.56243 170.617 5.56243C171.93 5.56243 172.956 5.97665 173.695 6.80508V1.81537H176.677ZM171.133 13.7066C171.885 13.7066 172.51 13.4516 173.007 12.9418C173.504 12.4193 173.752 11.7247 173.752 10.858C173.752 9.99135 173.504 9.30312 173.007 8.79331C172.51 8.27077 171.885 8.00949 171.133 8.00949C170.368 8.00949 169.738 8.27077 169.24 8.79331C168.743 9.30312 168.495 9.99135 168.495 10.858C168.495 11.7247 168.743 12.4193 169.24 12.9418C169.738 13.4516 170.368 13.7066 171.133 13.7066Z" fill="#11C3CB"/>
<path d="M180.776 5.71537H183.758V16.0007H180.776V5.71537ZM182.267 4.28155C181.719 4.28155 181.273 4.12224 180.929 3.80361C180.585 3.48498 180.412 3.08988 180.412 2.61831C180.412 2.14675 180.585 1.75165 180.929 1.43302C181.273 1.11439 181.719 0.955078 182.267 0.955078C182.815 0.955078 183.261 1.10802 183.605 1.4139C183.949 1.71978 184.121 2.10214 184.121 2.56096C184.121 3.05802 183.949 3.47224 183.605 3.80361C183.261 4.12224 182.815 4.28155 182.267 4.28155Z" fill="#11C3CB"/>
<path d="M192.758 16.1536C191.675 16.1536 190.7 15.9306 189.833 15.4845C188.979 15.0257 188.31 14.3948 187.826 13.5918C187.342 12.7889 187.099 11.8776 187.099 10.858C187.099 9.83841 187.342 8.92714 187.826 8.1242C188.31 7.32125 188.979 6.69675 189.833 6.25067C190.7 5.79184 191.675 5.56243 192.758 5.56243C193.842 5.56243 194.81 5.79184 195.664 6.25067C196.518 6.69675 197.187 7.32125 197.672 8.1242C198.156 8.92714 198.398 9.83841 198.398 10.858C198.398 11.8776 198.156 12.7889 197.672 13.5918C197.187 14.3948 196.518 15.0257 195.664 15.4845C194.81 15.9306 193.842 16.1536 192.758 16.1536ZM192.758 13.7066C193.523 13.7066 194.147 13.4516 194.632 12.9418C195.129 12.4193 195.377 11.7247 195.377 10.858C195.377 9.99135 195.129 9.30312 194.632 8.79331C194.147 8.27077 193.523 8.00949 192.758 8.00949C191.994 8.00949 191.363 8.27077 190.866 8.79331C190.369 9.30312 190.12 9.99135 190.12 10.858C190.12 11.7247 190.369 12.4193 190.866 12.9418C191.363 13.4516 191.994 13.7066 192.758 13.7066Z" fill="#11C3CB"/>
<path d="M207.297 19.7095C208.1 18.2948 208.686 16.861 209.056 15.408C209.438 13.9423 209.629 12.3938 209.629 10.7624C209.629 9.13106 209.438 7.5889 209.056 6.13596C208.686 4.67027 208.1 3.23008 207.297 1.81537H210.145C210.923 2.94969 211.515 4.28792 211.923 5.83008C212.344 7.35949 212.554 9.00361 212.554 10.7624C212.554 12.5213 212.35 14.1654 211.942 15.6948C211.535 17.2115 210.936 18.5497 210.145 19.7095H207.297Z" fill="white"/>
</svg>
