<svg width="120" height="34" viewBox="0 0 120 34" fill="none" xmlns="http://www.w3.org/2000/svg">
<g clip-path="url(#clip0_2092_22542)">
<path d="M109.613 3.75691H120V0H108.066L103.131 4.93555V11.2339H116.243V14.9908H103.131V18.7477H120V7.47698H106.888V6.4825L109.613 3.75691Z" fill="white"/>
<path d="M82.5046 4.93555V18.7477H86.2614V6.4825L88.987 3.75691H95.6168V18.7477H99.3738V0H87.44L82.5046 4.93555Z" fill="white"/>
<path d="M20.626 19.9263V33.7385H37.4951V29.9815H24.383V26.2245H37.4951V14.9907H25.5616L20.626 19.9263ZM33.7384 18.7476V22.5045H24.346V21.5101L27.0717 18.7845H33.7384V18.7476Z" fill="white"/>
<path d="M61.8784 4.93555V18.7477H78.7478V14.9908H65.6354V11.2339H78.7478V0H66.814L61.8784 4.93555ZM74.9908 3.75691V7.5138H65.5984V6.51934L68.3241 3.79373H74.9908V3.75691Z" fill="white"/>
<path d="M3.75691 16.1696V3.75708H0V33.7386H3.75691V21.4735L6.4825 18.7479H13.1123V33.7386H16.8692V14.991H4.93555L3.75691 16.1696Z" fill="white"/>
<path d="M45.0094 0H39.374L33.7388 5.63534V11.2339H37.4955V7.18231L40.921 3.75691H45.0094V0Z" fill="#00F3A7"/>
<path d="M61.8784 26.5563L58.4529 29.9816H54.3647V33.7386H59.9999L65.6354 28.1031V22.5046H61.8784V26.5563Z" fill="#00F3A7"/>
<path d="M54.3648 26.2614H58.1218V21.1785L52.7074 16.8691L58.1218 12.5597V7.47681H54.3648V10.7549L49.6872 14.475L45.0094 10.7549V7.47681H41.2524V12.5597L46.6668 16.8691L41.2524 21.1785V26.2614H45.0094V22.9833L49.6872 19.2632L54.3648 22.9833V26.2614Z" fill="white"/>
</g>
<defs>
<clipPath id="clip0_2092_22542">
<rect width="120" height="33.84" fill="white"/>
</clipPath>
</defs>
</svg>
