<svg width="155" height="40" viewBox="0 0 155 40" fill="none" xmlns="http://www.w3.org/2000/svg">
<path d="M15.7756 26.5105C19.3695 26.5105 22.283 23.597 22.283 20.0031C22.283 16.4091 19.3695 13.4956 15.7756 13.4956C12.1816 13.4956 9.26807 16.4091 9.26807 20.0031C9.26807 23.597 12.1816 26.5105 15.7756 26.5105Z" fill="#FEFEFE"/>
<path d="M2.99466 22.955C4.64876 22.955 5.98956 21.6141 5.98956 19.96C5.98956 18.306 4.64876 16.9651 2.99466 16.9651C1.34066 16.9651 -0.000244141 18.306 -0.000244141 19.96C-0.000244141 21.6141 1.34066 22.955 2.99466 22.955Z" fill="#FEFEFE"/>
<path d="M25.7954 20.003C25.7954 27.1144 31.0457 32.9871 37.8798 33.9854V6.02051C31.0457 7.01271 25.7954 12.8916 25.7954 20.003Z" fill="#FEFEFE"/>
<path d="M14.0376 0V9.527H17.8952V3.8576H37.6456V5.3921V6.2671V34.2258V36.1423H24.0453H17.8952V30.3127H14.0376V40H41.5094V0H14.0376Z" fill="#FEFEFE"/>
<path d="M56.4224 5.1333H59.0969V16.9651H56.4224V5.1333Z" fill="#FEFEFE"/>
<path d="M61.0134 7.95545H63.1887L63.3798 9.09545H63.4476C64.2055 8.36825 65.1114 7.73975 66.3439 7.73975C68.3035 7.73975 69.1354 9.12005 69.1354 11.3755V16.9709H66.4671V11.7144C66.4671 10.4203 66.122 10.0136 65.3456 10.0136C64.6739 10.0136 64.2672 10.3279 63.6756 10.8887V16.9647H61.0073V7.95545H61.0134Z" fill="#FEFEFE"/>
<path d="M70.0659 8.06023L71.4154 7.95553H75.5566V10.0507H70.0659V8.06023ZM71.2614 7.48712C71.2614 5.58292 72.1426 4.02393 74.5767 4.02393C75.3286 4.02393 75.9756 4.19023 76.3762 4.34433L75.8955 6.31013C75.5935 6.18693 75.2608 6.11293 74.9588 6.11293C74.3056 6.11293 73.9297 6.47033 73.9297 7.40703V16.9587H71.2614V7.48712Z" fill="#FEFEFE"/>
<path d="M76.5117 5.24426C76.5117 4.42466 77.1587 3.85156 78.0584 3.85156C78.952 3.85156 79.6052 4.43086 79.6052 5.24426C79.6052 6.05766 78.9581 6.63696 78.0584 6.63696C77.1649 6.63696 76.5117 6.05766 76.5117 5.24426ZM76.7212 7.95576H79.3895V16.9652H76.7212V7.95576Z" fill="#FEFEFE"/>
<path d="M81.0597 7.95545H83.2347L83.4257 9.09545H83.4937C84.2517 8.36825 85.1577 7.73975 86.3897 7.73975C88.3497 7.73975 89.1817 9.12005 89.1817 11.3755V16.9709H86.5137V11.7144C86.5137 10.4203 86.1677 10.0136 85.3917 10.0136C84.7197 10.0136 84.3137 10.3279 83.7217 10.8887V16.9647H81.0537V7.95545H81.0597Z" fill="#FEFEFE"/>
<path d="M90.6047 5.24426C90.6047 4.42466 91.2527 3.85156 92.1517 3.85156C93.0457 3.85156 93.6987 4.43086 93.6987 5.24426C93.6987 6.05766 93.0517 6.63696 92.1517 6.63696C91.2587 6.63696 90.6047 6.05766 90.6047 5.24426ZM90.8147 7.95576H93.4827V16.9652H90.8147V7.95576Z" fill="#FEFEFE"/>
<path d="M95.7076 13.6928V10.057H94.4746V8.0666L95.8556 7.9618L96.1696 5.5708H98.3756V7.9618H100.533V10.057H98.3756V13.662C98.3756 14.685 98.8376 15.0917 99.5406 15.0917C99.8366 15.0917 100.157 15.0054 100.398 14.9191L100.817 16.8603C100.336 17.0143 99.6886 17.1869 98.8136 17.1869C96.5886 17.1807 95.7076 15.7757 95.7076 13.6928Z" fill="#FEFEFE"/>
<path d="M102.382 20.3052L102.856 18.2716C103.023 18.3147 103.269 18.3887 103.46 18.3887C104.341 18.3887 104.804 17.9018 105.038 17.2055L105.173 16.7371L101.698 7.96191H104.378L105.666 11.8381C105.925 12.6515 106.141 13.5081 106.375 14.3893H106.449C106.652 13.5389 106.849 12.6823 107.078 11.8381L108.168 7.96191H110.726L107.601 17.0699C106.745 19.3253 105.783 20.4962 103.67 20.4962C103.109 20.49 102.752 20.4161 102.382 20.3052Z" fill="#FEFEFE"/>
<path d="M58.7396 24.058H55.4797V21.8149H64.6678V24.058H61.4079V33.6467H58.7334V24.058H58.7396Z" fill="#FEFEFE"/>
<path d="M63.8606 29.148C63.8606 26.227 65.9435 24.4214 68.1127 24.4214C70.6762 24.4214 71.9518 26.2886 71.9518 28.7474C71.9518 29.2281 71.8902 29.7087 71.8409 29.9244H66.4488C66.6892 31.2308 67.5827 31.8286 68.7844 31.8286C69.4684 31.8286 70.0785 31.6191 70.7317 31.237L71.6129 32.8454C70.6885 33.4863 69.4869 33.8622 68.4146 33.8622C65.8511 33.8683 63.8606 32.1305 63.8606 29.148ZM69.6656 28.162C69.6656 27.1698 69.2342 26.4612 68.1681 26.4612C67.3239 26.4612 66.5967 27.0281 66.418 28.162H69.6656Z" fill="#FEFEFE"/>
<path d="M73.1165 29.148C73.1165 26.153 75.3226 24.4214 77.8122 24.4214C78.9214 24.4214 79.7718 24.8158 80.4435 25.3889L79.1803 27.102C78.7489 26.7385 78.3853 26.5721 77.9601 26.5721C76.6783 26.5721 75.8526 27.5827 75.8526 29.1418C75.8526 30.7009 76.7091 31.7053 77.8677 31.7053C78.4593 31.7053 79.0262 31.4157 79.4945 31.0398L80.5421 32.7838C79.6671 33.5602 78.5517 33.856 77.5719 33.856C75.0576 33.8683 73.1165 32.1367 73.1165 29.148Z" fill="#FEFEFE"/>
<path d="M81.6947 20.9272H84.3627V24.0331L84.2457 25.6661C84.9237 25.0499 85.7987 24.4214 87.0247 24.4214C88.9847 24.4214 89.8167 25.8017 89.8167 28.0571V33.6526H87.1477V28.4022C87.1477 27.1081 86.8027 26.7014 86.0267 26.7014C85.3547 26.7014 84.9477 27.0157 84.3567 27.5766V33.6526H81.6877V20.9272H81.6947Z" fill="#FEFEFE"/>
<path d="M91.5106 24.6434H93.6866L93.8776 25.7834H93.9446C94.7026 25.0562 95.6086 24.4277 96.8416 24.4277C98.8006 24.4277 99.6326 25.808 99.6326 28.0635V33.6589H96.9646V28.4086C96.9646 27.1145 96.6196 26.7078 95.8426 26.7078C95.1716 26.7078 94.7646 27.022 94.1726 27.5828V33.6589H91.5046V24.6434H91.5106Z" fill="#FEFEFE"/>
<path d="M100.94 29.148C100.94 26.153 103.047 24.4214 105.327 24.4214C107.607 24.4214 109.715 26.153 109.715 29.148C109.715 32.1367 107.607 33.8683 105.327 33.8683C103.047 33.8683 100.94 32.1367 100.94 29.148ZM106.979 29.148C106.979 27.5889 106.43 26.5782 105.327 26.5782C104.224 26.5782 103.676 27.5889 103.676 29.148C103.676 30.707 104.224 31.7115 105.327 31.7115C106.43 31.7115 106.979 30.707 106.979 29.148Z" fill="#FEFEFE"/>
<path d="M111.058 30.8487V20.9272H113.727V30.9597C113.727 31.5328 113.992 31.7115 114.207 31.7115C114.312 31.7115 114.38 31.7114 114.534 31.6744L114.854 33.6402C114.559 33.7635 114.121 33.8621 113.517 33.8621C111.681 33.8682 111.058 32.6727 111.058 30.8487Z" fill="#FEFEFE"/>
<path d="M115.089 29.148C115.089 26.153 117.196 24.4214 119.476 24.4214C121.756 24.4214 123.864 26.153 123.864 29.148C123.864 32.1367 121.756 33.8683 119.476 33.8683C117.196 33.8683 115.089 32.1367 115.089 29.148ZM121.128 29.148C121.128 27.5889 120.579 26.5782 119.476 26.5782C118.373 26.5782 117.825 27.5889 117.825 29.148C117.825 30.707 118.373 31.7115 119.476 31.7115C120.579 31.7115 121.128 30.707 121.128 29.148Z" fill="#FEFEFE"/>
<path d="M124.628 35.1932C124.628 34.4476 125.078 33.8437 125.904 33.3815V33.3076C125.435 32.9933 125.084 32.5188 125.084 31.7793C125.084 31.1322 125.515 30.4975 126.088 30.0908V30.0168C125.454 29.5732 124.881 28.7351 124.881 27.6813C124.881 25.5183 126.668 24.4214 128.609 24.4214C129.108 24.4214 129.601 24.5015 130.002 24.6371H133.298V26.5844H131.85C132.017 26.8555 132.158 27.2992 132.158 27.7737C132.158 29.8443 130.581 30.7995 128.615 30.7995C128.288 30.7995 127.912 30.744 127.518 30.6269C127.296 30.818 127.204 30.9782 127.204 31.2986C127.204 31.7423 127.567 31.958 128.553 31.958H130.014C132.22 31.958 133.452 32.6359 133.452 34.2504C133.452 36.1238 131.499 37.4857 128.412 37.4857C126.298 37.4795 124.628 36.7955 124.628 35.1932ZM130.883 34.7003C130.883 34.1333 130.396 34.0039 129.509 34.0039H128.572C127.956 34.0039 127.604 33.9669 127.309 33.8868C126.976 34.1703 126.822 34.4476 126.822 34.768C126.822 35.4521 127.611 35.8033 128.818 35.8033C130.02 35.8033 130.883 35.3227 130.883 34.7003ZM129.829 27.6813C129.829 26.72 129.305 26.2147 128.596 26.2147C127.888 26.2147 127.364 26.7138 127.364 27.6813C127.364 28.6673 127.894 29.1849 128.596 29.1849C129.299 29.1849 129.829 28.6673 129.829 27.6813Z" fill="#FEFEFE"/>
<path d="M134.328 21.9256C134.328 21.1061 134.975 20.533 135.874 20.533C136.768 20.533 137.421 21.1122 137.421 21.9256C137.421 22.7391 136.774 23.3183 135.874 23.3183C134.975 23.3245 134.328 22.7391 134.328 21.9256ZM134.531 24.6433H137.199V33.6527H134.531V24.6433Z" fill="#FEFEFE"/>
<path d="M138.469 29.148C138.469 26.227 140.552 24.4214 142.721 24.4214C145.284 24.4214 146.56 26.2886 146.56 28.7474C146.56 29.2281 146.498 29.7087 146.449 29.9244H141.057C141.297 31.2308 142.191 31.8286 143.392 31.8286C144.076 31.8286 144.686 31.6191 145.34 31.237L146.221 32.8454C145.297 33.4863 144.095 33.8622 143.023 33.8622C140.459 33.8683 138.469 32.1305 138.469 29.148ZM144.274 28.162C144.274 27.1698 143.842 26.4612 142.776 26.4612C141.932 26.4612 141.205 27.0281 141.026 28.162H144.274Z" fill="#FEFEFE"/>
<path d="M147.41 32.6112L148.612 30.9474C149.425 31.5636 150.183 31.8964 150.935 31.8964C151.73 31.8964 152.075 31.5944 152.075 31.1199C152.075 30.5283 151.182 30.2572 150.257 29.8936C149.154 29.4684 147.872 28.7351 147.872 27.2438C147.872 25.5676 149.234 24.4214 151.311 24.4214C152.691 24.4214 153.72 24.976 154.485 25.5614L153.289 27.1637C152.648 26.6953 152.013 26.3934 151.391 26.3934C150.701 26.3934 150.362 26.6645 150.362 27.1144C150.362 27.6875 151.206 27.9093 152.137 28.2482C153.277 28.6673 154.565 29.3143 154.565 30.9597C154.565 32.5927 153.277 33.8622 150.861 33.8622C149.684 33.8683 148.322 33.3507 147.41 32.6112Z" fill="#FEFEFE"/>
</svg>
