<svg width="158" height="34" viewBox="0 0 158 34" fill="none" xmlns="http://www.w3.org/2000/svg">
<g clip-path="url(#clip0_2009_9251)">
<mask id="mask0_2009_9251" style="mask-type:luminance" maskUnits="userSpaceOnUse" x="0" y="0" width="158" height="34">
<path d="M157.527 0H0V33.8909H157.527V0Z" fill="white"/>
</mask>
<g mask="url(#mask0_2009_9251)">
<path d="M50.0363 24.1272C49.3818 25.2 48.6363 26.2 47.7999 27.1272C44.1818 31.1454 38.9999 33.7272 33.2181 33.8727L29.8545 20.8545L40.5454 14.8L50.0363 24.1272Z" fill="url(#paint0_linear_2009_9251)"/>
<path d="M77.0185 0.036377H73.2185V20.4727H87.6912V17.2546H77.0185V0.036377Z" fill="#FCFCFC"/>
<path d="M101.8 6.78196C100.546 5.38196 98.8002 4.70923 96.8002 4.70923C92.2548 4.70923 88.9275 7.8365 88.9275 12.6729C88.9275 17.5274 92.2548 20.6728 96.8002 20.6728C98.9275 20.6728 100.746 19.9455 101.964 18.4546V20.4728H105.437V4.89105H101.782V6.78196H101.8ZM97.2184 17.5456C94.582 17.5456 92.6002 15.6547 92.6002 12.6729C92.6002 9.69105 94.582 7.80014 97.2184 7.80014C99.8729 7.80014 101.855 9.69105 101.855 12.6729C101.855 15.6547 99.8729 17.5456 97.2184 17.5456Z" fill="#FCFCFC"/>
<path d="M129.909 4.70923C127.437 4.70923 125.327 5.70923 124.073 7.30923C123 5.56377 121.091 4.70923 118.818 4.70923C116.691 4.70923 114.873 5.47286 113.709 6.87286V4.89105H110.237V20.4728H113.891V12.5638C113.891 9.47287 115.527 7.89105 117.946 7.89105C120.164 7.89105 121.455 9.2365 121.455 12.0001V20.4728H125.091V12.5638C125.091 9.47287 126.764 7.89105 129.146 7.89105C131.364 7.89105 132.655 9.2365 132.655 12.0001V20.4728H136.309V11.5456C136.291 6.8365 133.673 4.70923 129.909 4.70923Z" fill="#FCFCFC"/>
<path d="M149.618 4.70923C147.491 4.70923 145.673 5.4365 144.455 6.92741V4.89105H140.982V26.1455H144.636V18.5819C145.891 20.0182 147.636 20.691 149.636 20.691C154.182 20.691 157.546 17.5456 157.546 12.691C157.527 7.85468 154.164 4.70923 149.618 4.70923ZM149.2 17.5456C146.582 17.5456 144.564 15.6547 144.564 12.6729C144.564 9.69105 146.582 7.80014 149.2 7.80014C151.818 7.80014 153.818 9.69105 153.818 12.6729C153.818 15.6547 151.836 17.5456 149.2 17.5456Z" fill="#FCFCFC"/>
<path d="M19.2 0L11.2364 13.5455L3.12727 0H0V20.4364H3.61818V7.07273L10.3273 18.0909H12.0182L18.7455 6.89091L18.7636 20.4364H22.3636L22.3273 0H19.2Z" fill="#FCFCFC"/>
<path d="M66.3093 6.74558C65.0547 5.34558 63.3093 4.67285 61.3093 4.67285C56.7638 4.67285 53.4365 7.80012 53.4365 12.6365C53.4365 17.491 56.7638 20.6365 61.3093 20.6365C63.4365 20.6365 65.2547 19.9092 66.4729 18.4183V20.4365H69.9456V4.85467H66.2911V6.74558H66.3093ZM61.7274 17.5092C59.1093 17.5092 57.1093 15.6183 57.1093 12.6365C57.1093 9.65467 59.0911 7.76376 61.7274 7.76376C64.382 7.76376 66.3638 9.65467 66.3638 12.6365C66.3638 15.6183 64.382 17.5092 61.7274 17.5092Z" fill="#FCFCFC"/>
<path d="M29.3637 6.30905L30.4364 8.1636C30.8001 8.19996 31.1273 8.38178 31.3455 8.69087C33.0728 8.19996 34.7819 8.79996 35.9092 10.2727L37.7092 12.0363L40.091 10.6727C39.9455 10.3636 39.7455 9.9636 39.6001 9.70905C37.291 5.67269 33.1455 4.49087 29.3637 6.30905ZM25.7455 17.5636C26.7637 19.3273 28.2182 20.5636 29.9273 21.1455L28.2546 14.6545C27.5819 12.9091 27.9273 11.1636 29.1637 9.92724C29.0001 9.58178 29.0001 9.19996 29.1637 8.85451L28.1092 7.01815C24.6001 9.45451 23.5455 13.7636 25.7455 17.5636Z" fill="#FCFCFC"/>
<path d="M41.2183 15.4545C40.691 17.3454 39.291 18.9636 37.2001 20.1818C34.6546 21.6545 32.1092 21.9091 29.9274 21.1455L28.2546 14.6545L35.9092 10.2363L37.7092 12L29.491 16.7454C31.0183 18.4909 33.3819 18.8182 35.7274 17.4545C37.2365 16.5818 38.1637 15.4181 38.5455 13.8727C38.6365 13.5636 38.6728 13.2363 38.691 12.9636L41.2183 15.4545Z" fill="#FFA300"/>
<path d="M49.182 17.6365C47.8183 17.6365 47.0183 16.8183 47.0183 15.3092V7.87287H51.2001V4.96378H47.0183V1.40015H43.3638V15.382C43.3638 18.8183 45.3274 20.6365 48.7274 20.6365C50.0365 20.6365 51.3638 20.291 52.2365 19.5819L51.2183 16.982C50.6729 17.4183 49.9456 17.6365 49.182 17.6365Z" fill="#FCFCFC"/>
</g>
</g>
<defs>
<linearGradient id="paint0_linear_2009_9251" x1="35.6852" y1="18.3531" x2="41.2852" y2="28.3878" gradientUnits="userSpaceOnUse">
<stop stop-color="#FFA300" stop-opacity="0.8"/>
<stop offset="1" stop-color="#FFA300" stop-opacity="0"/>
</linearGradient>
<clipPath id="clip0_2009_9251">
<rect width="157.636" height="34" fill="white"/>
</clipPath>
</defs>
</svg>
