<svg width="108" height="39" viewBox="0 0 108 39" fill="none" xmlns="http://www.w3.org/2000/svg">
<g clip-path="url(#clip0_2009_9232)">
<path d="M2.7571 33.5465C2.89218 33.5127 3.09762 33.4958 3.37341 33.4958C3.64921 33.4958 3.85465 33.5127 3.98973 33.5465C4.10793 33.569 4.25146 33.6196 4.42031 33.6984C4.53288 33.7491 4.66515 33.8419 4.81711 33.977C4.96908 34.1121 5.07321 34.2247 5.1295 34.3148C5.16327 34.3654 5.19985 34.4836 5.23925 34.6694C5.28428 34.8495 5.30679 34.9817 5.30679 35.0661C5.30679 35.0718 5.30398 35.0803 5.29835 35.0915V35.1083C5.28146 35.1365 5.20267 35.1506 5.06196 35.1506C4.92124 35.1506 4.8143 35.1365 4.74114 35.1083C4.58917 35.0465 4.47378 34.9339 4.39498 34.7707C4.34996 34.675 4.26553 34.5793 4.1417 34.4836C4.0235 34.3823 3.90812 34.3148 3.79555 34.281C3.68298 34.2472 3.55071 34.2303 3.39874 34.2303C3.26366 34.2303 3.13139 34.2444 3.00194 34.2726C2.8162 34.312 2.66704 34.3964 2.55448 34.5258C2.44191 34.6496 2.38562 34.7903 2.38562 34.948C2.38562 35.0099 2.39969 35.0831 2.42783 35.1675C2.48412 35.3082 2.58543 35.4207 2.73177 35.5052C2.88374 35.5896 3.16235 35.6965 3.56759 35.826C4.05165 35.978 4.4175 36.1356 4.66515 36.2988C4.9128 36.462 5.09572 36.6647 5.21392 36.9066C5.27021 37.0193 5.30398 37.1093 5.31524 37.1768C5.32649 37.2388 5.33213 37.3541 5.33213 37.523C5.33213 37.7706 5.30117 37.9592 5.23925 38.0886C5.04225 38.4939 4.66233 38.7725 4.09948 38.9245C3.94752 38.9639 3.73364 38.9835 3.45784 38.9835C3.16516 38.9835 2.92877 38.9611 2.74866 38.916C2.48974 38.8428 2.24772 38.7359 2.02259 38.5952C1.79745 38.4488 1.63985 38.2997 1.54979 38.1478C1.50477 38.0746 1.45974 37.9507 1.41471 37.7763C1.36968 37.5962 1.34717 37.4582 1.34717 37.3625C1.34717 37.3345 1.34717 37.3175 1.34717 37.3119C1.3528 37.3007 1.36124 37.2922 1.37249 37.2866C1.38938 37.281 1.41471 37.2781 1.44848 37.2781C1.45974 37.2781 1.48506 37.281 1.52446 37.2866C1.56386 37.2866 1.60045 37.2866 1.63422 37.2866C1.8087 37.2922 1.93534 37.3232 2.01414 37.3795C2.09857 37.4301 2.18018 37.5286 2.25898 37.6749C2.45035 38.0464 2.82464 38.2322 3.38186 38.2322H3.49161C3.89123 38.2153 4.16422 38.1112 4.31055 37.9198C4.39498 37.8072 4.43719 37.6721 4.43719 37.5146C4.43719 37.4076 4.41468 37.3091 4.36965 37.219C4.29648 37.0839 4.18391 36.9742 4.03194 36.8898C3.88561 36.8054 3.62388 36.7097 3.24677 36.6027C2.63327 36.4226 2.18299 36.2031 1.89594 35.9442C1.60889 35.6797 1.46536 35.3645 1.46536 34.9986C1.46536 34.9254 1.46818 34.872 1.47381 34.8382C1.50195 34.5399 1.63422 34.2726 1.87062 34.0362C2.10701 33.7941 2.40251 33.6309 2.7571 33.5465Z" fill="#CFAB6D"/>
<path d="M12.5733 34.3061C12.4214 34.2386 12.2328 34.2048 12.0077 34.2048C11.9176 34.2048 11.8388 34.2132 11.7712 34.2301C11.6081 34.2639 11.4504 34.3427 11.2985 34.4665C11.1521 34.5904 11.0368 34.7367 10.9523 34.9056C10.8623 35.0857 10.8172 35.505 10.8172 36.1635C10.8172 36.8446 10.8651 37.2864 10.9607 37.489C11.0171 37.6072 11.0958 37.7226 11.1972 37.8352C11.3041 37.9421 11.4166 38.0237 11.5349 38.08C11.67 38.1476 11.8501 38.1813 12.0752 38.1813C12.2947 38.1813 12.4748 38.1476 12.6155 38.08C12.7281 38.0237 12.8379 37.9449 12.9448 37.8436C13.0518 37.7367 13.1333 37.6269 13.1897 37.5144C13.2966 37.3005 13.35 36.8614 13.35 36.1973C13.35 35.8652 13.336 35.5978 13.3078 35.3952C13.2797 35.1363 13.2178 34.9308 13.1221 34.7789C12.9758 34.5594 12.7928 34.4018 12.5733 34.3061ZM11.7628 33.4534C11.8754 33.4421 11.9683 33.4365 12.0414 33.4365C12.4129 33.4365 12.7562 33.5125 13.0714 33.6644C13.5555 33.8952 13.8904 34.2639 14.0761 34.7705C14.1999 35.0969 14.2619 35.5838 14.2619 36.231C14.2619 36.5068 14.245 36.7657 14.2112 37.0078C14.1718 37.3286 14.1071 37.5875 14.017 37.7845C13.927 37.9759 13.7891 38.1644 13.6033 38.3501C13.2037 38.7498 12.6944 38.9496 12.0752 38.9496C11.4617 38.9496 10.9579 38.7554 10.564 38.3671C10.3388 38.1419 10.1784 37.8914 10.0827 37.6157C9.99268 37.3343 9.93355 36.9346 9.9054 36.4168C9.9054 36.3943 9.90259 36.3605 9.89697 36.3155C9.89697 36.2704 9.89697 36.2366 9.89697 36.2142C9.89697 35.595 9.96171 35.111 10.0912 34.7621C10.3782 34.0022 10.9355 33.566 11.7628 33.4534Z" fill="#CFAB6D"/>
<path d="M19.0034 33.6221C19.0709 33.5545 19.1498 33.5208 19.2398 33.5208C19.3355 33.5208 19.4284 33.5658 19.5184 33.6558C19.5972 33.7403 19.6507 33.8388 19.6788 33.9513C19.707 34.0752 19.721 34.7224 19.721 35.8932C19.721 36.7825 19.7238 37.3059 19.7295 37.4635C19.7351 37.6211 19.7604 37.7365 19.8054 37.8097C19.8617 37.9054 19.9377 37.9813 20.0334 38.0377C20.1066 38.077 20.1854 38.1023 20.2698 38.1136C20.3542 38.1192 20.5541 38.1221 20.8693 38.1221C21.2463 38.1221 21.5137 38.1361 21.6713 38.1642C21.8345 38.1868 21.9583 38.2318 22.0428 38.2993C22.1103 38.3557 22.1413 38.4316 22.1356 38.5273C22.1187 38.6905 21.9724 38.8003 21.6966 38.8566C21.5671 38.8847 21.1816 38.8988 20.5399 38.8988C19.8252 38.8988 19.4114 38.8847 19.2989 38.8566C19.1244 38.8059 18.9865 38.6989 18.8852 38.5358L18.8008 38.4007V35.6906C18.8008 34.7506 18.8092 34.1933 18.8261 34.0189C18.843 33.8444 18.9021 33.7122 19.0034 33.6221Z" fill="#CFAB6D"/>
<path d="M26.9102 33.6221C26.9833 33.5602 27.065 33.5293 27.155 33.5293C27.2394 33.5293 27.3155 33.5546 27.383 33.6053C27.4842 33.684 27.5434 33.8078 27.5603 33.9767C27.5828 34.1456 27.5969 34.6268 27.6025 35.4204C27.6137 36.3604 27.6335 36.9908 27.6615 37.3116L27.7122 37.7253L27.9064 37.9026C28.1203 38.0996 28.3848 38.1981 28.7 38.1981C28.7169 38.1981 28.7422 38.1981 28.776 38.1981C28.8098 38.1924 28.8379 38.1896 28.8605 38.1896C29.2263 38.1727 29.5133 38.0574 29.7216 37.8435C29.7835 37.7759 29.8229 37.7168 29.8398 37.6662C29.8567 37.6099 29.8763 37.4861 29.8989 37.2947C29.927 37.0414 29.9411 36.4335 29.9411 35.4711C29.9411 34.5255 29.9608 33.9964 30.0002 33.8839C30.079 33.6475 30.2141 33.5293 30.4054 33.5293C30.5067 33.5293 30.594 33.5687 30.6672 33.6475C30.7347 33.7262 30.7854 33.8078 30.8191 33.8923C30.8473 33.988 30.8613 34.5086 30.8613 35.4542C30.8613 36.5293 30.8333 37.2356 30.7769 37.5733C30.7206 37.911 30.5855 38.1868 30.3716 38.4007C29.9946 38.7778 29.4655 38.9664 28.7844 38.9664C28.1428 38.9664 27.625 38.7919 27.231 38.4429C27.0003 38.2346 26.8539 37.9588 26.792 37.6156C26.7357 37.2722 26.7075 36.5517 26.7075 35.4542C26.7075 34.6437 26.716 34.1596 26.7329 34.0021C26.7498 33.8388 26.8088 33.7122 26.9102 33.6221Z" fill="#CFAB6D"/>
<path d="M35.7021 33.6303C35.7865 33.5909 36.3831 33.5713 37.4919 33.5713H38.1842C38.6514 33.5713 38.9385 33.5769 39.0454 33.5881C39.1523 33.5938 39.2395 33.6135 39.3071 33.6473C39.4703 33.726 39.5519 33.8189 39.5519 33.9259C39.5519 33.9596 39.5435 33.9934 39.5266 34.0272C39.4478 34.1904 39.1973 34.2833 38.7752 34.3058C38.505 34.317 38.3446 34.3367 38.2939 34.3649C38.2433 34.393 38.1842 34.4465 38.1166 34.5253C38.0548 34.5985 38.0125 34.6632 37.9901 34.7194C37.9619 34.7926 37.9479 35.4174 37.9479 36.5938C37.9479 37.7701 37.9337 38.4061 37.9056 38.5018C37.8831 38.5862 37.8352 38.6735 37.7621 38.7635C37.6889 38.8536 37.6213 38.9042 37.5595 38.9155C37.5426 38.9212 37.52 38.924 37.4919 38.924C37.3343 38.924 37.2105 38.8311 37.1204 38.6453L37.0275 38.4596V36.6275C37.0275 35.6369 37.0163 35.0516 36.9938 34.8715C36.9769 34.6857 36.9066 34.545 36.7828 34.4493C36.7771 34.4493 36.7715 34.4493 36.7658 34.4493C36.7658 34.4436 36.763 34.438 36.7574 34.4324C36.6899 34.3818 36.6279 34.3508 36.5717 34.3396C36.521 34.3227 36.4 34.3114 36.2086 34.3058C35.9272 34.2889 35.7443 34.2579 35.6599 34.2129C35.4966 34.1341 35.415 34.0412 35.415 33.9343C35.415 33.8161 35.5107 33.7148 35.7021 33.6303Z" fill="#CFAB6D"/>
<path d="M44.3154 33.5887C44.3773 33.5267 44.4533 33.4958 44.5434 33.4958C44.7009 33.4958 44.8304 33.5859 44.9317 33.766C44.9767 33.8447 45.0021 33.9798 45.0077 34.1713C45.0133 34.357 45.0189 34.9817 45.0246 36.0455V36.7378C45.0246 37.6891 45.0133 38.2322 44.9908 38.3673C44.9627 38.5024 44.9148 38.6093 44.8472 38.6881C44.7741 38.7782 44.6841 38.8232 44.5771 38.8232C44.4026 38.8232 44.2732 38.7387 44.1888 38.5699C44.155 38.4967 44.1324 38.3447 44.1212 38.114C44.1156 37.8832 44.1128 37.2388 44.1128 36.1806C44.1128 34.9874 44.1212 34.2838 44.1381 34.0699C44.155 33.8504 44.2112 33.6928 44.3069 33.5971L44.3154 33.5887Z" fill="#CFAB6D"/>
<path d="M52.231 34.3061C52.0791 34.2386 51.8905 34.2048 51.6654 34.2048C51.5753 34.2048 51.4965 34.2132 51.429 34.2301C51.2658 34.2639 51.1081 34.3427 50.9562 34.4665C50.8099 34.5904 50.6944 34.7367 50.61 34.9056C50.5199 35.0857 50.4749 35.505 50.4749 36.1635C50.4749 36.8446 50.5228 37.2864 50.6185 37.489C50.6748 37.6072 50.7535 37.7226 50.8549 37.8352C50.9618 37.9421 51.0744 38.0237 51.1926 38.08C51.3276 38.1476 51.5078 38.1813 51.7329 38.1813C51.9524 38.1813 52.1325 38.1476 52.2732 38.08C52.3858 38.0237 52.4956 37.9449 52.6025 37.8436C52.7095 37.7367 52.7911 37.6269 52.8474 37.5144C52.9543 37.3005 53.0077 36.8614 53.0077 36.1973C53.0077 35.8652 52.9937 35.5978 52.9656 35.3952C52.9374 35.1363 52.8755 34.9308 52.7798 34.7789C52.6334 34.5594 52.4505 34.4018 52.231 34.3061ZM51.4205 33.4534C51.5331 33.4421 51.626 33.4365 51.6991 33.4365C52.0706 33.4365 52.4139 33.5125 52.7291 33.6644C53.2132 33.8952 53.548 34.2639 53.7338 34.7705C53.8576 35.0969 53.9196 35.5838 53.9196 36.231C53.9196 36.5068 53.9027 36.7657 53.8689 37.0078C53.8295 37.3286 53.7648 37.5875 53.6747 37.7845C53.5847 37.9759 53.4468 38.1644 53.261 38.3501C52.8614 38.7498 52.3521 38.9496 51.7329 38.9496C51.1194 38.9496 50.6156 38.7554 50.2217 38.3671C49.9966 38.1419 49.8361 37.8914 49.7404 37.6157C49.6504 37.3343 49.5913 36.9346 49.5631 36.4168C49.5631 36.3943 49.5603 36.3605 49.5547 36.3155C49.5547 36.2704 49.5547 36.2366 49.5547 36.2142C49.5547 35.595 49.6194 35.111 49.7489 34.7621C50.0359 34.0022 50.5932 33.566 51.4205 33.4534Z" fill="#CFAB6D"/>
<path d="M58.5179 33.8163C58.6024 33.6249 58.7346 33.5293 58.9148 33.5293C59.1005 33.5293 59.2918 33.6277 59.4889 33.8248C59.5846 33.9205 59.9701 34.5255 60.6455 35.6399C61.304 36.7375 61.6502 37.2862 61.6839 37.2862C61.7065 37.2862 61.7177 37.0132 61.7177 36.4673C61.7233 35.9157 61.7318 35.3472 61.7431 34.7619C61.7543 34.1709 61.7796 33.8388 61.819 33.7656C61.9034 33.6081 62.0245 33.5293 62.182 33.5293C62.3565 33.5293 62.486 33.639 62.5704 33.8585C62.5986 33.9429 62.6155 34.1062 62.6211 34.3482C62.6323 34.5903 62.6379 35.2065 62.6379 36.1971C62.6379 37.1877 62.6323 37.8041 62.6211 38.0461C62.6155 38.2882 62.5986 38.4513 62.5704 38.5358C62.486 38.7497 62.3565 38.8566 62.182 38.8566C62.092 38.8566 62.0047 38.8341 61.9203 38.7891C61.7177 38.6821 61.4982 38.4429 61.2618 38.0714C61.0648 37.7563 60.9382 37.5592 60.8819 37.4805C60.8368 37.4185 60.5892 37.0161 60.1389 36.2731C59.6887 35.5302 59.4607 35.1559 59.4551 35.1503L59.3875 35.0574L59.3791 35.1503C59.3791 35.685 59.3819 36.2422 59.3875 36.8219V37.4635C59.3875 37.9926 59.3763 38.3219 59.3538 38.4513C59.3312 38.5752 59.275 38.6821 59.1849 38.7721C59.123 38.8341 59.047 38.865 58.957 38.865C58.7825 38.865 58.6558 38.7891 58.577 38.6371C58.532 38.5583 58.5039 38.3641 58.4926 38.0545C58.4813 37.7393 58.4729 37.0752 58.4673 36.062V34.8126C58.4673 34.2272 58.4841 33.8951 58.5179 33.8163Z" fill="#CFAB6D"/>
<path d="M68.6004 33.5465C68.7354 33.5127 68.9408 33.4958 69.2166 33.4958C69.4924 33.4958 69.6979 33.5127 69.833 33.5465C69.9512 33.569 70.0947 33.6196 70.2636 33.6984C70.3761 33.7491 70.5084 33.8419 70.6603 33.977C70.8123 34.1121 70.9164 34.2247 70.9727 34.3148C71.0065 34.3654 71.0431 34.4836 71.0825 34.6694C71.1275 34.8495 71.15 34.9817 71.15 35.0661C71.15 35.0718 71.1472 35.0803 71.1416 35.0915V35.1083C71.1247 35.1365 71.0459 35.1506 70.9052 35.1506C70.7645 35.1506 70.6575 35.1365 70.5844 35.1083C70.4324 35.0465 70.317 34.9339 70.2382 34.7707C70.1932 34.675 70.1087 34.5793 69.9849 34.4836C69.8668 34.3823 69.7513 34.3148 69.6388 34.281C69.5262 34.2472 69.3939 34.2303 69.242 34.2303C69.1069 34.2303 68.9746 34.2444 68.8452 34.2726C68.6594 34.312 68.5103 34.3964 68.3977 34.5258C68.2852 34.6496 68.2288 34.7903 68.2288 34.948C68.2288 35.0099 68.2429 35.0831 68.271 35.1675C68.3274 35.3082 68.4287 35.4207 68.575 35.5052C68.727 35.5896 69.0056 35.6965 69.4109 35.826C69.8948 35.978 70.2607 36.1356 70.5084 36.2988C70.756 36.462 70.939 36.6647 71.0571 36.9066C71.1134 37.0193 71.1472 37.1093 71.1584 37.1768C71.1698 37.2388 71.1754 37.3541 71.1754 37.523C71.1754 37.7706 71.1444 37.9592 71.0825 38.0886C70.8855 38.4939 70.5056 38.7725 69.9427 38.9245C69.7907 38.9639 69.5768 38.9835 69.301 38.9835C69.0084 38.9835 68.772 38.9611 68.5919 38.916C68.333 38.8428 68.0909 38.7359 67.8658 38.5952C67.6406 38.4488 67.4831 38.2997 67.393 38.1478C67.348 38.0746 67.303 37.9507 67.2579 37.7763C67.2129 37.5962 67.1904 37.4582 67.1904 37.3625C67.1904 37.3345 67.1904 37.3175 67.1904 37.3119C67.196 37.3007 67.2045 37.2922 67.2157 37.2866C67.2326 37.281 67.2579 37.2781 67.2917 37.2781C67.303 37.2781 67.3283 37.281 67.3677 37.2866C67.4071 37.2866 67.4437 37.2866 67.4775 37.2866C67.652 37.2922 67.7786 37.3232 67.8573 37.3795C67.9418 37.4301 68.0234 37.5286 68.1022 37.6749C68.2936 38.0464 68.6679 38.2322 69.2251 38.2322H69.3348C69.7345 38.2153 70.0075 38.1112 70.1538 37.9198C70.2382 37.8072 70.2804 37.6721 70.2804 37.5146C70.2804 37.4076 70.2579 37.3091 70.2129 37.219C70.1397 37.0839 70.0271 36.9742 69.8752 36.8898C69.7289 36.8054 69.4671 36.7097 69.09 36.6027C68.4765 36.4226 68.0262 36.2031 67.7392 35.9442C67.4521 35.6797 67.3086 35.3645 67.3086 34.9986C67.3086 34.9254 67.3114 34.872 67.317 34.8382C67.3452 34.5399 67.4775 34.2726 67.7138 34.0362C67.9502 33.7941 68.2458 33.6309 68.6004 33.5465Z" fill="#CFAB6D"/>
<path d="M81.2526 33.6221C81.3197 33.5545 81.3985 33.5208 81.4889 33.5208C81.5841 33.5208 81.6769 33.5658 81.7674 33.6558C81.8462 33.7403 81.8992 33.8388 81.9273 33.9513C81.9562 34.0752 81.9702 34.7224 81.9702 35.8932C81.9702 36.7825 81.9725 37.3059 81.978 37.4635C81.9842 37.6211 82.0092 37.7365 82.0544 37.8097C82.1106 37.9054 82.1863 37.9813 82.2822 38.0377C82.3555 38.077 82.4343 38.1023 82.5185 38.1136C82.6028 38.1192 82.8032 38.1221 83.1184 38.1221C83.4951 38.1221 83.7626 38.1361 83.9202 38.1642C84.0832 38.1868 84.2072 38.2318 84.2915 38.2993C84.3593 38.3557 84.3898 38.4316 84.3843 38.5273C84.3679 38.6905 84.2213 38.8003 83.9452 38.8566C83.8157 38.8847 83.4304 38.8988 82.7884 38.8988C82.0739 38.8988 81.6605 38.8847 81.5474 38.8566C81.3735 38.8059 81.2354 38.6989 81.134 38.5358L81.0498 38.4007V35.6906C81.0498 34.7506 81.0584 34.1933 81.0748 34.0189C81.0919 33.8444 81.1512 33.7122 81.2526 33.6221Z" fill="#CFAB6D"/>
<path d="M89.2607 33.6303C89.3449 33.5909 89.9416 33.5713 91.05 33.5713H91.7426C92.2099 33.5713 92.4969 33.5769 92.6038 33.5881C92.7106 33.5938 92.798 33.6135 92.8651 33.6473C93.0289 33.726 93.11 33.8189 93.11 33.9259C93.11 33.9596 93.1014 33.9934 93.085 34.0272C93.0062 34.1904 92.7559 34.2833 92.3331 34.3058C92.0632 34.317 91.9025 34.3367 91.8526 34.3649C91.8019 34.393 91.7426 34.4465 91.6748 34.5253C91.6132 34.5985 91.571 34.6632 91.5484 34.7194C91.5203 34.7926 91.5063 35.4174 91.5063 36.5938C91.5063 37.7701 91.4923 38.4061 91.4642 38.5018C91.4416 38.5862 91.3932 38.6735 91.3207 38.7635C91.2473 38.8536 91.1795 38.9042 91.1179 38.9155C91.1007 38.9212 91.0781 38.924 91.05 38.924C90.8924 38.924 90.7684 38.8311 90.6787 38.6453L90.5859 38.4596V36.6275C90.5859 35.6369 90.575 35.0516 90.5524 34.8715C90.5352 34.6857 90.465 34.545 90.341 34.4493C90.3355 34.4493 90.3301 34.4493 90.3238 34.4493C90.3238 34.4436 90.3215 34.438 90.316 34.4324C90.2482 34.3818 90.1865 34.3508 90.1296 34.3396C90.0789 34.3227 89.958 34.3114 89.7669 34.3058C89.4853 34.2889 89.3028 34.2579 89.2178 34.2129C89.0548 34.1341 88.9736 34.0412 88.9736 33.9343C88.9736 33.8161 89.0688 33.7148 89.2607 33.6303Z" fill="#CFAB6D"/>
<path d="M99.7476 34.3059C99.3708 34.2552 99.1345 34.2299 99.0385 34.2299C98.9933 34.2299 98.9629 34.2327 98.9457 34.2384C98.895 34.2496 98.8388 34.2806 98.7764 34.3312C98.6867 34.4157 98.6329 34.5395 98.6165 34.7027C98.5994 34.8603 98.5908 35.35 98.5908 36.1718C98.5908 36.926 98.5939 37.3763 98.5994 37.5226C98.6111 37.6633 98.6361 37.773 98.6758 37.8518C98.7203 37.9475 98.7686 38.0123 98.8193 38.046C98.8693 38.0798 98.9481 38.0967 99.0557 38.0967C99.0947 38.0967 99.2382 38.0854 99.4862 38.0629C99.8123 38.0235 100.015 37.9869 100.094 37.9531C100.162 37.9194 100.248 37.8462 100.355 37.7336C100.468 37.6211 100.549 37.5198 100.6 37.4297C100.662 37.3227 100.713 37.0864 100.752 36.7205C100.78 36.501 100.794 36.3153 100.794 36.1633C100.794 36.0169 100.78 35.8368 100.752 35.623C100.724 35.3415 100.693 35.1502 100.659 35.0489C100.626 34.942 100.556 34.8237 100.449 34.6943C100.341 34.5592 100.243 34.4691 100.153 34.4241C100.068 34.3734 99.9332 34.334 99.7476 34.3059ZM98.1439 33.5039C98.2109 33.4869 98.349 33.4785 98.5573 33.4785C99.1711 33.4785 99.6742 33.5179 100.068 33.5967C100.418 33.6699 100.722 33.8219 100.98 34.0526C101.245 34.2778 101.431 34.5536 101.538 34.88C101.588 35.0263 101.633 35.274 101.673 35.623C101.695 35.8087 101.706 36.0141 101.706 36.2392C101.706 36.5658 101.676 36.8838 101.613 37.1933C101.585 37.3509 101.518 37.531 101.411 37.7336C101.31 37.9306 101.202 38.0854 101.09 38.198C100.989 38.2937 100.85 38.3922 100.677 38.4934C100.507 38.5892 100.358 38.6567 100.229 38.6961C99.8856 38.7974 99.3537 38.8481 98.6329 38.8481C98.335 38.8481 98.1462 38.8312 98.0674 38.7974C97.8927 38.7242 97.7749 38.6033 97.7133 38.4344C97.6845 38.3612 97.6704 37.6014 97.6704 36.1549C97.6704 35.1361 97.6735 34.5141 97.679 34.289C97.6907 34.0639 97.7133 33.9147 97.7468 33.8415C97.8311 33.6727 97.9637 33.5601 98.1439 33.5039Z" fill="#CFAB6D"/>
<path d="M106.448 38.1812C106.51 38.1417 106.588 38.1221 106.684 38.1221C106.875 38.1221 107.013 38.1952 107.098 38.3416C107.132 38.4091 107.148 38.4767 107.148 38.5442C107.148 38.7468 107.048 38.8876 106.845 38.9663C106.794 38.9889 106.747 39.0001 106.701 39.0001C106.667 39.0001 106.62 38.9889 106.558 38.9663C106.462 38.9326 106.386 38.8734 106.33 38.789C106.273 38.7103 106.245 38.623 106.245 38.5273C106.245 38.3697 106.313 38.2544 106.448 38.1812Z" fill="#CFAB6D"/>
<path d="M5.79859 4.76466H5.6139C5.49078 6.38988 5.24454 9.44335 4.87517 13.925C4.53043 18.3821 4.35806 20.8076 4.35806 21.2015C4.35806 21.9649 4.73974 22.3466 5.5031 22.3466L7.01751 22.3097L7.09138 22.4574L6.75895 24.1195C6.48808 24.0949 5.99559 24.058 5.28148 24.0088C4.59199 23.9841 3.89019 23.9718 3.17608 23.9718C2.56046 23.9718 1.92022 24.0088 1.25537 24.0826C0.615125 24.1811 0.196508 24.2427 -0.000488281 24.2673L0.184195 22.5682C0.972179 22.4697 1.53855 22.2235 1.88329 21.8294C2.22803 21.4109 2.44966 20.709 2.54815 19.7241C3.63163 9.82501 4.17337 4.50611 4.17337 3.76737C4.17337 3.12713 3.91482 2.64695 3.3977 2.32683C2.90521 2.00671 2.09259 1.80972 0.959871 1.73584L0.849056 1.55116L1.14455 0.258372C1.46467 0.282996 2.09259 0.319932 3.02833 0.369181C3.96406 0.418431 4.67818 0.443056 5.17066 0.443056C5.6139 0.443056 6.09409 0.430744 6.61121 0.40612C7.15294 0.35687 7.51 0.319932 7.68237 0.295309C8.66734 3.47187 9.61543 6.42682 10.5265 9.16013C11.4622 11.8688 12.2256 14.0235 12.8165 15.6241C13.4076 17.2247 13.777 18.2219 13.9247 18.616H14.1094C14.4541 17.7049 15.2421 15.5379 16.4733 12.1151C17.7046 8.69229 19.0466 4.77698 20.4995 0.369181C20.4995 0.344557 20.8319 0.35687 21.4967 0.40612L22.9373 0.443056C23.4051 0.443056 24.107 0.418431 25.0427 0.369181C25.9784 0.295309 26.6063 0.24606 26.9264 0.221436L27.0003 0.369181L26.8157 1.73584C25.7567 1.85897 25.0058 2.08059 24.5625 2.40071C24.1192 2.6962 23.8976 3.15175 23.8976 3.76737C23.8976 4.30911 24.0085 6.32832 24.2301 9.82501C24.4517 13.2971 24.661 16.3013 24.858 18.8376C24.9811 19.8472 25.1042 20.5982 25.2274 21.0907C25.3504 21.5586 25.5228 21.8911 25.7445 22.088C25.9661 22.2604 26.2739 22.3466 26.6679 22.3466C26.8895 22.3466 27.0988 22.3343 27.2958 22.3097C27.4928 22.285 27.6283 22.2727 27.7021 22.2727L27.776 22.4204L27.4436 24.0826C27.1973 24.058 26.7295 24.0334 26.04 24.0088C25.3751 23.9841 24.6733 23.9718 23.9346 23.9718C23.2697 23.9718 22.5187 24.0088 21.6814 24.0826C20.8688 24.1811 20.3394 24.2427 20.0932 24.2673L20.2409 22.5682C21.0042 22.4697 21.5583 22.2727 21.9031 21.9772C22.2478 21.6817 22.4201 21.2631 22.4201 20.7214C22.4201 20.2042 22.2354 17.8034 21.8661 13.5187C21.5213 9.234 21.2874 6.31601 21.1643 4.76466H20.9796L13.8508 24.4151L12.9644 24.6736L5.79859 4.76466Z" fill="#CFAB6D"/>
<path d="M37.9588 3.87839C37.811 6.75947 37.6879 9.776 37.5894 12.9279C37.4909 16.0552 37.4416 18.3576 37.4416 19.8351C37.4416 20.8447 37.5525 21.5219 37.7741 21.8666C37.9957 22.1867 38.4266 22.3468 39.0669 22.3468C39.5101 22.3468 39.9164 22.3345 40.2858 22.3099C40.6552 22.2853 40.9014 22.2606 41.0245 22.236L41.0984 22.3838L40.7659 24.0828C40.4212 24.0582 39.7686 24.0336 38.8083 24.009C37.8726 23.9843 36.9122 23.972 35.9272 23.972C35.1392 23.972 34.2897 24.0336 33.3786 24.1567C32.4921 24.2798 31.9134 24.366 31.6426 24.4153L31.8642 22.7162C33.0215 22.4945 33.7972 22.1744 34.1912 21.7558C34.6098 21.3126 34.8191 20.5739 34.8191 19.5396L34.856 4.02614C34.856 3.23816 34.7576 2.70873 34.5606 2.43786C34.3882 2.16699 34.0312 2.03155 33.4894 2.03155C33.1693 2.03155 32.8492 2.04386 32.529 2.06849C32.2335 2.09311 32.0366 2.10543 31.938 2.10543L31.8642 1.95768L32.1227 0.33246C32.4429 0.357084 33.0339 0.381709 33.8957 0.406335C34.7576 0.430959 35.6317 0.443271 36.5182 0.443271C37.2323 0.443271 38.0449 0.406334 38.956 0.33246C39.8918 0.233961 40.4951 0.160088 40.7659 0.11084L40.6182 1.773C39.584 1.89612 38.8945 2.10543 38.5497 2.40092C38.205 2.67179 38.008 3.16429 37.9588 3.87839Z" fill="#CFAB6D"/>
<path d="M54.6302 24.4154C54.2608 24.3661 53.4728 24.2799 52.2662 24.1568C51.0842 24.0338 50.0992 23.9721 49.3112 23.9721C48.5479 23.9721 47.7106 24.0338 46.7995 24.1568C45.9131 24.2799 45.3344 24.3661 45.0635 24.4154L45.2852 22.7163C46.4179 22.4947 47.1812 22.1745 47.5752 21.7559C47.9692 21.3127 48.1662 20.574 48.1662 19.5397L48.2031 4.02627C48.2031 3.23829 48.1046 2.70886 47.9077 2.43799C47.7353 2.16712 47.3782 2.03168 46.8365 2.03168C46.5902 2.03168 46.344 2.04399 46.0978 2.06862C45.8515 2.09324 45.6791 2.10556 45.5806 2.10556L45.5067 1.95781L45.7653 0.33259C46.0361 0.357215 46.5533 0.38184 47.3167 0.406466C48.08 0.43109 48.8557 0.443402 49.6436 0.443402C50.7026 0.443402 51.7983 0.43109 52.931 0.406466C54.0637 0.357216 54.8394 0.320278 55.2581 0.295654C57.622 0.295654 59.7274 0.76352 61.5743 1.69926C63.4211 2.61036 64.8493 3.90315 65.8589 5.57762C66.8932 7.25209 67.4102 9.1728 67.4102 11.3398C67.4102 13.753 66.8439 15.9569 65.7112 17.9515C64.5784 19.946 63.0394 21.522 61.0941 22.6794C59.1487 23.8367 56.9941 24.4154 54.6302 24.4154ZM52.7094 2.10556C52.1923 2.10556 51.8475 2.16712 51.6752 2.29024C51.5028 2.38874 51.4043 2.59805 51.3797 2.91817C51.0104 12.3986 50.8256 17.8037 50.8256 19.1334C50.8256 20.0692 50.9488 20.7709 51.195 21.2389C51.4659 21.7067 51.9215 22.0391 52.5617 22.2361C53.2266 22.4331 54.1992 22.5316 55.4797 22.5316C58.1392 22.5316 60.2322 21.6205 61.7589 19.7983C63.2857 17.9515 64.049 15.4275 64.049 12.2263C64.049 8.97578 63.0641 6.47641 61.0941 4.72807C59.1487 2.97973 56.3538 2.10556 52.7094 2.10556Z" fill="#CFAB6D"/>
<path d="M86.6685 19.7981C86.9642 20.7092 87.3581 21.3495 87.851 21.7189C88.3432 22.0882 89.131 22.3221 90.2144 22.4206L90.2885 22.5684L90.0296 24.0828C89.7347 24.0828 89.1926 24.0582 88.4048 24.0089C87.6412 23.9843 86.8784 23.972 86.1147 23.972C84.933 23.972 83.7872 24.0213 82.6796 24.1197C81.5962 24.2182 80.9067 24.2921 80.6111 24.3414L80.5003 24.0828L80.6477 22.6422C81.9035 22.5438 82.7654 22.3961 83.2334 22.199C83.7014 22.002 83.9354 21.6819 83.9354 21.2387C83.9354 20.7462 83.8247 20.1552 83.6031 19.4657L82.384 15.4396C81.7928 15.415 80.5128 15.4027 78.5425 15.4027C77.3606 15.4027 76.0186 15.5012 74.5165 15.6981L73.1498 19.5395C72.9282 20.2044 72.8174 20.6846 72.8174 20.9801C72.8174 21.5218 72.9898 21.9158 73.3345 22.1621C73.6792 22.3837 74.2456 22.4945 75.0336 22.4945H77.139L77.2128 22.6422L76.9912 24.2305C76.6958 24.2059 76.0186 24.1567 74.9597 24.0828C73.9009 24.0089 72.8666 23.972 71.857 23.972C70.9459 23.972 70.0963 23.9843 69.3084 24.0089C68.545 24.0336 68.0402 24.0582 67.7939 24.0828L68.0895 22.3468C68.7789 22.2729 69.333 22.039 69.7516 21.645C70.1702 21.2264 70.5765 20.5123 70.9705 19.5027L78.1736 0.627926L80.5003 0H80.7959C80.9433 0.59099 81.3131 1.95765 81.9035 4.09998C82.5197 6.24232 83.2584 8.77867 84.1203 11.709C85.0064 14.6393 85.8558 17.3357 86.6685 19.7981ZM78.4317 13.8882C79.2936 13.8882 80.4387 13.8267 81.8669 13.7036L78.9489 4.02611H78.6907L75.1813 13.8882H78.4317Z" fill="#CFAB6D"/>
<path d="M97.9021 24.4152C96.8678 24.4152 95.9201 24.3167 95.0582 24.1197C94.1963 23.9474 93.4819 23.7504 92.9156 23.5288C92.3743 23.3071 92.1028 23.184 92.1028 23.1594L91.918 22.79C91.9429 22.6422 91.9921 22.2729 92.0662 21.6819C92.1403 21.0909 92.2019 20.3276 92.251 19.3918C92.3244 18.4315 92.3618 17.4218 92.3618 16.363L94.024 16.1783C94.024 18.0252 94.1472 19.3918 94.3929 20.2783C94.6394 21.1648 95.0949 21.7804 95.7595 22.1252C96.4248 22.4453 97.4466 22.6053 98.8256 22.6053C100.377 22.6053 101.62 22.2483 102.556 21.5342C103.492 20.7954 103.96 19.7981 103.96 18.5423C103.96 17.8036 103.701 17.1387 103.184 16.5477C102.691 15.9567 102.101 15.4519 101.411 15.0333C100.722 14.6147 99.7 14.0483 98.3452 13.3342C97.0652 12.6693 96.0184 12.0661 95.2057 11.5243C94.3929 10.9579 93.7034 10.293 93.1371 9.52973C92.5958 8.76634 92.3243 7.87987 92.3243 6.87025C92.3243 5.58977 92.6941 4.43242 93.4327 3.39819C94.1963 2.33933 95.2181 1.51441 96.4981 0.923419C97.8038 0.307807 99.2445 0 100.82 0C101.805 0 102.716 0.0738741 103.553 0.221622C104.391 0.344745 105.056 0.48018 105.548 0.627926C106.041 0.775673 106.348 0.874169 106.471 0.923419L106.582 1.14504C106.558 1.29279 106.496 1.63753 106.398 2.17927C106.299 2.72101 106.188 3.47206 106.065 4.43242C105.942 5.39278 105.843 6.37776 105.77 7.38736L104.329 7.53511L104.108 7.35042C104.132 7.25192 104.157 7.03031 104.181 6.68557C104.206 6.3162 104.219 5.89758 104.219 5.42971C104.219 4.12461 103.898 3.22581 103.258 2.73332C102.618 2.24083 101.473 1.99458 99.8225 1.99458C98.4684 1.99458 97.3483 2.33933 96.4615 3.02882C95.5996 3.69368 95.169 4.53092 95.169 5.54053C95.169 6.5255 95.5871 7.38736 96.4248 8.12612C97.2867 8.84021 98.5425 9.62816 100.192 10.4901C101.793 11.3027 103.012 11.9799 103.849 12.5216C104.687 13.0387 105.425 13.6913 106.065 14.4792C106.705 15.2673 107.026 16.1783 107.026 17.2126C107.026 18.5915 106.632 19.8351 105.843 20.9432C105.08 22.0267 104.009 22.8762 102.63 23.4918C101.251 24.1075 99.6751 24.4152 97.9021 24.4152Z" fill="#CFAB6D"/>
</g>
<defs>
<clipPath id="clip0_2009_9232">
<rect width="107.64" height="39" fill="white"/>
</clipPath>
</defs>
</svg>
