<svg width="180" height="41" viewBox="0 0 180 41" fill="none" xmlns="http://www.w3.org/2000/svg">
<g clip-path="url(#clip0_2009_9188)">
<path d="M27.8175 0.168502C26.4126 5.33866 23.8275 9.89064 20.1747 13.8245C16.1285 18.1516 11.2393 21.1863 5.5072 22.816C3.76509 23.3218 2.02297 23.7714 0.168457 23.7714C0.168457 16.0723 0.168457 8.37331 0.168457 0.674278C0.168457 0.224699 0.280852 0.112305 0.73043 0.112305C9.722 0.168502 18.7698 0.168502 27.8175 0.168502Z" fill="#2979F3"/>
<path d="M14.7794 40.6305C14.0488 40.2933 13.2621 40.2933 12.4753 40.1247C7.41756 38.7198 3.82093 35.629 1.57303 30.8522C1.40444 30.4588 1.34825 30.2902 1.91022 30.1778C6.79939 29.5034 11.3514 27.9861 15.6224 25.5134C16.0157 25.2886 16.2967 25.2325 16.5777 25.7382C19.1628 29.7844 21.7479 33.8306 24.3329 37.8769C24.6139 38.3264 24.5015 38.4388 24.1082 38.6636C22.3098 39.619 20.3991 40.2371 18.376 40.4619C18.2074 40.4619 18.0388 40.4057 17.9265 40.6305C16.9149 40.6305 15.8472 40.6305 14.7794 40.6305Z" fill="#2979F3"/>
<path d="M180 16.859C179.157 16.859 178.37 16.8028 177.527 16.8028C177.078 16.8028 176.797 16.6342 176.572 16.2408C174.83 13.15 173.088 10.1153 171.346 7.02445C171.233 6.85585 171.121 6.63107 171.008 6.46247C170.84 6.68726 170.896 6.91205 170.896 7.13684C170.896 10.1153 170.896 13.15 170.896 16.1284C170.896 16.6342 170.784 16.9152 170.222 16.859C169.491 16.7466 168.536 17.14 168.142 16.6904C167.805 16.297 168.03 15.3417 168.03 14.6673C168.03 10.6211 168.03 6.63107 168.03 2.58486C168.03 2.02288 168.199 1.85429 168.76 1.91049C169.154 1.96669 169.603 1.96669 169.997 1.91049C171.008 1.7419 171.458 2.19148 171.908 3.03444C173.425 5.9005 175.055 8.65417 176.628 11.464C176.741 11.6326 176.853 11.8012 176.965 11.9698C177.246 11.8574 177.134 11.6888 177.134 11.5202C177.134 8.54177 177.134 5.50712 177.134 2.52866C177.134 1.96669 177.246 1.7981 177.808 1.85429C178.539 1.91049 179.269 1.85429 180 1.7981C180 6.85585 180 11.8574 180 16.859Z" fill="white"/>
<path d="M32.7629 5.90063C32.7629 7.19317 32.7629 8.31712 32.7629 9.38487C32.7629 14.6112 32.8191 19.8938 32.7067 25.1201C32.6505 28.211 31.5265 30.9646 29.8406 33.4935C29.391 34.1679 29.2787 34.1117 28.8853 33.4373C26.4688 29.6721 24.0523 25.8507 21.6358 22.0855C21.3548 21.6359 21.4672 21.4111 21.8044 21.1301C26.5812 17.0277 30.1216 12.0261 32.5381 6.23782C32.5381 6.18162 32.5943 6.18162 32.7629 5.90063Z" fill="#2979F3"/>
<path d="M87.2745 5.28253C86.4878 8.93535 85.6448 12.6444 84.858 16.2972C84.7457 16.6906 84.5771 16.803 84.1837 16.803C83.5655 16.7468 82.8911 16.7468 82.273 16.803C81.8234 16.803 81.711 16.6344 81.5986 16.241C80.8118 12.6444 80.0251 9.04775 79.2383 5.45112C79.1821 5.22633 79.1259 5.05774 79.0135 4.83295C79.0135 5.9569 79.0135 7.08084 79.0135 8.20479C79.0135 10.8461 79.0135 13.4873 79.0135 16.1286C79.0135 16.6906 78.8449 16.8592 78.283 16.803C77.7772 16.7468 77.2714 16.7468 76.7656 16.803C76.2599 16.8592 76.1475 16.6344 76.1475 16.1848C76.1475 11.6328 76.1475 7.08084 76.1475 2.47266C76.1475 1.96689 76.2599 1.85449 76.7656 1.85449C77.8334 1.91069 78.9011 1.91069 79.9127 1.85449C80.4747 1.85449 80.6432 2.02308 80.7556 2.58506C81.5424 6.12549 82.3292 9.60972 83.1159 13.094C83.1159 13.1502 83.1721 13.2064 83.2283 13.5435C83.5093 12.3634 83.7341 11.3518 83.9589 10.3965C84.5771 7.75521 85.1952 5.11394 85.7572 2.47266C85.8696 2.02308 85.982 1.91069 86.4316 1.91069C87.5555 1.96689 88.6795 1.91069 89.8034 1.91069C90.1968 1.91069 90.3092 2.02308 90.3092 2.41647C90.3092 7.02465 90.3092 11.689 90.3092 16.2972C90.3092 16.7468 90.1406 16.8592 89.7472 16.803C89.1852 16.803 88.6233 16.7468 88.0613 16.803C87.5555 16.8592 87.4431 16.6344 87.4431 16.1848C87.4431 12.532 87.4431 8.93535 87.4993 5.28253C87.4993 5.05774 87.4993 4.77675 87.4993 4.55196H87.4431C87.3869 4.83295 87.3307 5.05774 87.2745 5.28253Z" fill="white"/>
<path d="M59.0634 9.16008C59.0072 11.127 58.7263 12.8129 57.6585 14.3302C57.4899 14.555 57.5461 14.6674 57.7147 14.836C58.0519 15.1732 58.3891 15.5104 58.7263 15.7914C59.0634 16.0724 59.1196 16.2409 58.7825 16.5781C58.3329 16.9715 57.9957 17.7021 57.5461 17.7583C57.0965 17.8145 56.647 17.0839 56.2536 16.6905C55.9164 16.2971 55.6354 16.2971 55.1296 16.5219C50.8586 18.826 45.6323 15.96 45.0703 11.0146C44.8455 9.04769 44.9017 7.08078 45.8009 5.22627C47.0372 2.5288 49.9033 1.06766 52.9379 1.46105C56.0288 1.91062 58.3329 4.04612 58.8949 6.96838C59.0072 7.75515 59.0634 8.48571 59.0634 9.16008ZM55.1858 12.7005C56.1412 10.7336 56.2536 8.26092 55.523 6.46261C54.9048 4.88908 53.7247 4.04612 52.0388 4.04612C50.3529 4.04612 49.0603 4.94528 48.4983 6.51881C48.3298 7.02458 48.1612 7.53036 48.105 8.09233C47.9926 9.77825 47.8802 11.5204 48.9479 13.0377C50.0157 14.555 52.1512 15.0608 53.6123 14.1616C53.5561 14.1054 53.4999 13.993 53.4437 13.9369C52.2074 12.6443 52.2074 12.7005 53.4999 11.408C53.8371 11.127 54.0057 11.1832 54.2305 11.408C54.5115 11.8014 54.7924 12.1947 55.1858 12.7005Z" fill="white"/>
<path d="M62.8285 26.9184C62.8285 27.1432 62.8285 27.3679 62.8285 27.5927C62.8285 30.5712 62.8285 33.6058 62.8285 36.5843C62.8285 37.0901 62.7723 37.3149 62.2103 37.2587C61.6483 37.2025 61.0302 37.2025 60.4682 37.2587C60.131 37.2587 59.9624 37.2025 59.9624 36.8091C59.9624 32.1447 59.9624 27.4241 59.9624 22.7598C59.9624 22.3664 60.131 22.3102 60.412 22.3102C61.1987 22.3102 61.9855 22.3102 62.7723 22.3102C63.1656 22.3102 63.278 22.535 63.4466 22.816C65.1326 25.8506 66.8185 28.8291 68.5606 31.8637C68.673 32.0323 68.7292 32.3133 69.0102 32.4819C69.0102 32.2009 69.0102 32.0323 69.0102 31.8075C69.0102 28.8853 69.0102 25.9068 69.0102 22.9846C69.0102 22.4788 69.1226 22.254 69.6845 22.3102C70.2465 22.3664 70.8085 22.3664 71.3705 22.3102C71.82 22.3102 71.9324 22.4226 71.9324 22.8722C71.9324 27.4803 71.9324 32.1447 71.9324 36.7529C71.9324 37.0901 71.82 37.2587 71.4829 37.2025H71.4267C70.5837 37.2025 69.5721 37.4273 68.954 37.0901C68.3358 36.7529 68.0548 35.7413 67.6614 35.067C66.2565 32.5381 64.8516 30.0654 63.3904 27.5365C63.278 27.3117 63.1095 27.087 62.9971 26.8622C62.8847 26.9184 62.8285 26.9184 62.8285 26.9184Z" fill="white"/>
<path d="M117.565 30.1217C118.857 30.6837 119.307 31.7515 119.307 33.044C119.307 33.7746 119.307 34.5613 119.363 35.2919C119.363 35.8539 119.419 36.3596 119.869 36.8092C120.093 37.034 120.093 37.2588 119.644 37.2588C118.745 37.2588 117.845 37.2588 117.003 37.2588C116.665 37.2588 116.609 37.0902 116.497 36.8092C116.272 35.9663 116.272 35.1233 116.272 34.2803C116.272 31.7515 115.879 31.3581 113.294 31.3581C112.675 31.3581 112.057 31.4143 111.495 31.3581C110.821 31.3019 110.708 31.5829 110.708 32.201C110.765 33.7184 110.708 35.1795 110.708 36.6968C110.708 37.1464 110.596 37.315 110.146 37.2588C109.528 37.2026 108.854 37.2026 108.236 37.2588C107.786 37.315 107.73 37.0902 107.73 36.6968C107.73 32.0886 107.73 27.4805 107.73 22.8723C107.73 22.5351 107.73 22.3103 108.18 22.3103C110.708 22.3665 113.181 22.2541 115.71 22.3665C118.913 22.4789 120.712 25.6821 119.307 28.5482C118.913 29.2788 118.351 29.7283 117.565 30.1217ZM112.956 24.8954C112.282 24.8954 111.72 24.8954 111.102 24.8954C110.821 24.8954 110.652 24.9516 110.708 25.2888C110.708 26.3565 110.708 27.4243 110.708 28.492C110.708 28.7168 110.708 28.9416 111.046 28.8854C112.451 28.8292 113.855 28.9978 115.26 28.773C116.216 28.6044 116.665 28.0424 116.665 26.9747C116.665 25.8507 116.216 25.1764 115.26 24.9516C114.474 24.783 113.687 24.9516 112.956 24.8954Z" fill="white"/>
<path d="M147.63 9.32863C147.63 7.02454 147.63 4.72045 147.63 2.47255C147.63 2.19157 147.518 1.85438 148.023 1.85438C150.159 1.85438 152.35 1.79818 154.486 1.91058C157.352 2.07917 159.038 3.5403 159.712 6.40636C160.274 8.71046 160.162 11.0145 159.263 13.2062C158.307 15.5103 156.565 16.8029 153.98 16.8029C152.013 16.8029 150.103 16.8029 148.136 16.8029C147.686 16.8029 147.574 16.6343 147.574 16.1847C147.686 13.9368 147.686 11.6327 147.63 9.32863ZM150.608 9.32863C150.608 10.7336 150.608 12.0823 150.608 13.4872C150.608 14.0492 150.721 14.274 151.339 14.2178C152.013 14.1616 152.688 14.2178 153.362 14.2178C154.936 14.2178 155.947 13.5434 156.453 12.0823C157.127 10.284 157.127 8.42947 156.622 6.57496C156.228 5.22622 155.385 4.60805 153.924 4.55185C152.969 4.49566 152.07 4.55185 151.114 4.55185C150.665 4.55185 150.608 4.72045 150.608 5.11383C150.665 6.46256 150.608 7.92369 150.608 9.32863Z" fill="white"/>
<path d="M131.782 26.7498C131.614 26.7498 131.445 26.7498 131.277 26.7498C130.658 26.806 130.209 26.7498 130.153 25.963C130.096 25.5134 129.703 25.1201 129.31 24.8953C128.186 24.3333 127.006 24.2771 125.882 24.7829C125.207 25.0639 124.814 25.6258 124.814 26.3564C124.814 27.087 125.32 27.4804 125.994 27.7051C127.399 28.0985 128.804 28.4357 130.209 28.8291C130.434 28.8853 130.658 28.9415 130.883 28.9977C132.513 29.5597 133.637 30.5712 133.805 32.3695C133.974 34.224 133.243 35.7414 131.67 36.6967C130.265 37.5959 128.748 37.7083 127.118 37.5959C125.882 37.5397 124.701 37.2025 123.69 36.5281C122.51 35.6852 121.892 34.505 121.779 33.1001C121.723 32.7629 121.779 32.5943 122.173 32.6505C122.566 32.6505 122.903 32.7067 123.297 32.6505C124.196 32.5381 124.87 32.5943 124.982 33.7183C124.982 33.9992 125.263 34.224 125.432 34.3926C126.444 35.2918 129.253 35.348 130.265 34.4488C131.164 33.6621 130.996 32.3695 129.928 31.8637C128.748 31.3018 127.511 31.1894 126.275 30.8522C125.769 30.6836 125.263 30.5712 124.701 30.4026C123.072 29.8968 122.116 28.8291 121.948 27.1432C121.779 25.2325 122.397 23.6027 124.083 22.7598C126.5 21.5234 128.972 21.5796 131.277 23.0408C132.457 23.7713 133.019 24.9515 133.187 26.3002C133.243 26.7498 133.075 26.8622 132.681 26.806C132.457 26.7498 132.12 26.7498 131.782 26.7498Z" fill="white"/>
<path d="M94.1302 29.7845C94.1302 27.4804 94.1302 25.1763 94.1302 22.9284C94.1302 22.4788 94.2426 22.3665 94.6922 22.3665C97.8954 22.3665 101.099 22.3665 104.302 22.3665C104.751 22.3665 104.92 22.4788 104.92 22.9284C104.864 23.4342 104.864 23.94 104.92 24.3896C104.976 24.8953 104.751 25.0077 104.302 25.0077C102.11 25.0077 99.9747 25.0077 97.783 25.0077C97.3334 25.0077 97.1086 25.1201 97.1648 25.6259C97.221 26.3003 97.221 26.9184 97.1648 27.5928C97.1648 28.0424 97.2772 28.211 97.7268 28.211C99.6937 28.211 101.661 28.211 103.628 28.211C104.133 28.211 104.358 28.2672 104.302 28.8291C104.189 29.4473 104.583 30.3465 104.133 30.6837C103.74 31.0208 102.953 30.7961 102.279 30.7961C100.761 30.7961 99.2441 30.7961 97.7268 30.7961C97.2772 30.7961 97.1086 30.9084 97.1086 31.358C97.1648 32.201 97.1648 33.0439 97.1086 33.8869C97.0524 34.5613 97.3334 34.6175 97.8954 34.6175C100.143 34.5613 102.391 34.6175 104.639 34.6175C105.145 34.6175 105.313 34.7299 105.257 35.2356C105.201 35.7976 105.257 36.3596 105.257 36.9216C105.257 37.2587 105.145 37.3149 104.864 37.3149C101.436 37.3149 98.0078 37.3149 94.5236 37.3149C94.074 37.3149 94.1302 37.0902 94.1302 36.8092C94.1302 34.3927 94.1302 32.0886 94.1302 29.7845Z" fill="white"/>
<path d="M57.0401 27.9862C56.9839 29.5036 57.1525 31.4143 56.9277 33.2688C56.5905 35.7415 55.017 37.2588 52.5443 37.5398C51.4766 37.6522 50.465 37.6522 49.4535 37.4836C46.756 36.9778 45.3511 35.3481 45.2949 32.3696C45.1825 29.1664 45.2387 25.9631 45.2387 22.7599C45.2387 22.3665 45.4073 22.3103 45.7444 22.3103C46.4188 22.3103 47.1494 22.3665 47.8237 22.3103C48.2733 22.3103 48.3295 22.4789 48.3295 22.8723C48.3295 25.6821 48.3295 28.5482 48.3295 31.3581C48.3295 31.8638 48.3857 32.3134 48.4419 32.8192C48.6105 34.2241 49.4535 34.9547 50.9146 34.9547C52.6005 35.0109 53.4997 34.3927 53.7806 32.9316C53.893 32.4258 53.893 31.9762 53.893 31.4705C53.893 28.6606 53.893 25.7945 53.893 22.9847C53.893 22.4789 53.9492 22.2541 54.5112 22.3103C55.298 22.4227 56.3657 21.9731 56.8715 22.4789C57.3211 22.9285 56.9839 23.9962 56.9839 24.783C57.0401 25.7383 57.0401 26.6937 57.0401 27.9862Z" fill="white"/>
<path d="M144.09 16.8029C142.46 16.8029 142.46 16.8029 142.01 15.2856C141.561 13.7683 141.561 13.7683 139.931 13.7683C138.807 13.7683 137.739 13.7683 136.615 13.7683C136.222 13.7683 136.053 13.8807 135.941 14.2741C135.716 14.9484 135.491 15.6228 135.267 16.3534C135.154 16.6905 134.986 16.9153 134.592 16.8591C133.918 16.8029 133.187 16.8029 132.513 16.8591C132.007 16.9153 131.951 16.7467 132.12 16.2972C133.637 12.0824 135.098 7.86756 136.559 3.65276C137.177 1.91064 137.177 1.91064 139.032 1.91064C140.605 1.91064 140.605 1.91064 141.167 3.42797C142.685 7.69897 144.146 11.97 145.663 16.241C145.888 16.8029 145.719 16.9153 145.214 16.8591C144.764 16.8029 144.427 16.8029 144.09 16.8029ZM138.863 5.50727C138.807 5.50727 138.751 5.50727 138.695 5.50727C138.133 7.24939 137.571 8.99151 137.009 10.7336C136.896 11.127 137.065 11.127 137.346 11.127C138.301 11.127 139.2 11.127 140.156 11.127C140.493 11.127 140.605 11.0708 140.493 10.6774C139.931 8.99151 139.425 7.24939 138.863 5.50727Z" fill="white"/>
<path d="M104.358 16.8028C102.785 16.8028 102.785 16.8028 102.279 15.2293C101.829 13.7119 101.829 13.7119 100.2 13.7119C99.1882 13.7119 98.1767 13.7681 97.1651 13.7119C96.4907 13.6557 96.266 13.9367 96.0974 14.4987C95.9288 15.1169 95.704 15.735 95.4792 16.3532C95.3668 16.6904 95.1982 16.8028 94.861 16.8028C94.1305 16.8028 93.3999 16.7466 92.6693 16.8028C92.1074 16.859 92.1074 16.6342 92.2759 16.1846C93.5685 12.588 94.8048 8.93515 96.0974 5.33853C96.4345 4.32697 96.8279 3.37162 97.1089 2.36007C97.2213 1.96669 97.3899 1.7981 97.8395 1.7981C98.6262 1.85429 99.413 1.85429 100.2 1.7981C100.593 1.7981 100.762 1.91049 100.93 2.30387C102.56 6.91205 104.134 11.5764 105.763 16.1846C105.932 16.6342 105.819 16.8028 105.314 16.7466C105.089 16.8028 104.696 16.8028 104.358 16.8028ZM99.0758 5.28233C98.4577 7.24923 97.8395 9.04755 97.2775 10.8459C97.1651 11.1268 97.3899 11.1268 97.5585 11.1268C98.5139 11.1268 99.5254 11.1268 100.481 11.1268C100.762 11.1268 100.874 11.0145 100.762 10.7335C100.256 9.04755 99.694 7.24923 99.0758 5.28233Z" fill="white"/>
<path d="M67.3805 1.85449C69.1226 1.85449 69.1226 1.85449 69.6846 3.54041C71.1457 7.75521 72.6069 11.9138 74.068 16.1286C74.2928 16.803 74.1242 16.8592 73.5622 16.8592C72.8879 16.803 72.1573 16.803 71.4829 16.8592C71.0896 16.8592 70.9772 16.7468 70.8648 16.4096C70.64 15.679 70.4152 14.9485 70.1904 14.2179C70.1342 13.9369 69.9656 13.8245 69.6284 13.8245C68.1111 13.8245 66.5938 13.8245 65.0764 13.8245C64.7393 13.8245 64.5707 13.9369 64.5145 14.2741C64.2897 15.0047 64.0087 15.679 63.8401 16.4096C63.7277 16.8592 63.5029 16.9154 63.0533 16.9154C62.379 16.8592 61.7608 16.8592 61.0864 16.9154C60.4683 16.9716 60.4683 16.7468 60.6369 16.241C61.8732 12.7568 63.0533 9.32874 64.2897 5.8445C64.6831 4.77675 65.0764 3.709 65.4136 2.58506C65.5822 2.07928 65.807 1.85449 66.369 1.91069C66.65 1.91069 67.0433 1.85449 67.3805 1.85449ZM67.3805 5.50732C67.3243 5.50732 67.2681 5.50732 67.2681 5.50732C66.7062 7.24944 66.1442 8.99155 65.5822 10.7337C65.4698 11.1271 65.6384 11.1271 65.9194 11.1271C66.8748 11.1271 67.7739 11.1271 68.7293 11.1271C69.1226 11.1271 69.1788 11.0147 69.0664 10.6775C68.5045 8.99155 67.9425 7.24944 67.3805 5.50732Z" fill="white"/>
<path d="M85.8694 33.3812C86.2628 31.9763 86.7124 30.5152 87.1057 29.1102C87.7239 27.0309 88.3421 24.9516 88.9041 22.8161C89.0164 22.3666 89.185 22.2542 89.6346 22.3104C90.309 22.3104 90.9834 22.3666 91.6577 22.3104C92.1635 22.2542 92.2197 22.4228 92.0511 22.8723C90.871 26.3566 89.6908 29.897 88.5107 33.3812C88.1173 34.5052 87.7239 35.6291 87.3867 36.7531C87.2743 37.0903 87.1057 37.2588 86.7686 37.2027C85.9818 37.1465 85.0264 37.4274 84.4083 37.0903C83.8463 36.7531 83.8463 35.7415 83.5653 35.011C82.2166 30.9647 80.8678 26.9185 79.5191 22.9285C79.3505 22.3666 79.4629 22.2542 80.0249 22.3104C80.8678 22.3666 81.9356 21.9732 82.5538 22.479C83.1157 22.9285 83.1157 23.9963 83.3405 24.8392C84.1273 27.7053 84.9702 30.5714 85.757 33.3812C85.757 33.3812 85.8132 33.3812 85.8694 33.3812Z" fill="white"/>
<path d="M153.137 22.3103C154.149 22.3103 155.217 22.3103 156.284 22.3103C156.622 22.3103 156.678 22.5913 156.79 22.8161C157.633 24.5582 158.42 26.3003 159.263 28.0986C159.375 28.3234 159.431 28.5482 159.656 28.7168C160.499 26.8061 161.342 24.9516 162.185 23.0971C162.41 22.5351 162.747 22.2541 163.365 22.3103C164.04 22.3665 164.714 22.3665 165.388 22.3103C166.007 22.2541 165.95 22.4789 165.726 22.8723C164.321 25.5136 162.972 28.0986 161.567 30.7399C161.23 31.3019 161.117 31.8638 161.117 32.5382C161.174 33.9431 161.117 35.2919 161.117 36.6968C161.117 37.0902 161.061 37.2588 160.612 37.2588C159.937 37.2026 159.207 37.2026 158.532 37.2588C158.139 37.2588 158.083 37.1464 158.083 36.753C158.083 35.2357 158.083 33.7184 158.083 32.201C158.083 31.8076 157.97 31.4143 157.802 31.0771C156.284 28.3234 154.767 25.5697 153.25 22.7599C153.194 22.6475 153.081 22.5351 153.137 22.3103Z" fill="white"/>
<path d="M144.877 31.0207C144.877 29.1662 144.877 27.3117 144.877 25.4572C144.877 25.0638 144.764 24.8952 144.315 24.8952C143.191 24.9514 142.067 24.8952 140.943 24.8952C140.549 24.8952 140.437 24.7828 140.437 24.3894C140.493 23.8274 140.493 23.2655 140.437 22.7035C140.437 22.3101 140.549 22.2539 140.943 22.2539C144.596 22.2539 148.192 22.2539 151.845 22.2539C152.295 22.2539 152.407 22.3663 152.407 22.8159C152.351 23.3217 152.351 23.8274 152.407 24.277C152.463 24.7266 152.295 24.9514 151.789 24.8952C150.721 24.839 149.653 24.8952 148.642 24.8952C148.136 24.8952 147.967 25.0076 147.967 25.5695C147.967 29.2224 147.967 32.8752 147.967 36.528C147.967 37.09 147.799 37.2586 147.293 37.2024C146.506 37.1462 145.439 37.5396 144.989 37.0338C144.596 36.5842 144.877 35.5727 144.877 34.7859C144.877 33.5496 144.877 32.3132 144.877 31.0207Z" fill="white"/>
<path d="M120.431 9.27237C120.431 7.02448 120.431 4.72038 120.431 2.47249C120.431 1.96672 120.543 1.79812 121.049 1.85432C121.667 1.91052 122.285 1.91052 122.847 1.85432C123.409 1.79812 123.522 2.02291 123.522 2.52869C123.522 6.12532 123.522 9.72195 123.465 13.3186C123.465 13.9929 123.69 14.1053 124.252 14.1053C126.219 14.0491 128.186 14.1053 130.153 14.1053C130.602 14.1053 130.771 14.2177 130.771 14.6673C130.715 15.3417 131.052 16.1846 130.659 16.6342C130.265 17.0838 129.366 16.7466 128.692 16.8028C126.163 16.8028 123.578 16.8028 121.049 16.8028C120.543 16.8028 120.375 16.6904 120.375 16.1284C120.431 13.8805 120.431 11.5765 120.431 9.27237Z" fill="white"/>
<path d="M107.955 9.27248C107.955 7.02459 107.955 4.7205 107.955 2.4726C107.955 2.02303 108.067 1.85443 108.517 1.85443C109.135 1.91063 109.809 1.91063 110.427 1.85443C110.933 1.79824 111.045 2.02303 111.045 2.4726C111.045 6.12543 111.045 9.77826 111.045 13.4311C111.045 13.9931 111.214 14.1054 111.776 14.1054C113.743 14.0493 115.71 14.1054 117.677 14.1054C118.182 14.1054 118.463 14.1616 118.407 14.7798C118.351 15.2856 118.351 15.7914 118.407 16.2971C118.407 16.6343 118.295 16.8029 117.958 16.8029C114.811 16.8029 111.664 16.8029 108.573 16.8029C108.067 16.8029 108.067 16.5781 108.067 16.1848C107.955 13.8807 107.955 11.5766 107.955 9.27248Z" fill="white"/>
<path d="M165.22 9.32874C165.22 11.5766 165.22 13.8245 165.22 16.0724C165.22 16.6906 165.052 16.8592 164.433 16.803C163.815 16.7468 163.197 16.7468 162.635 16.803C162.242 16.803 162.129 16.6906 162.129 16.2972C162.129 11.6328 162.129 6.96845 162.129 2.36027C162.129 1.96689 162.298 1.85449 162.691 1.85449C163.366 1.91069 163.984 1.91069 164.658 1.85449C165.108 1.85449 165.22 1.96689 165.22 2.47266C165.22 4.77675 165.22 7.02465 165.22 9.32874Z" fill="white"/>
<path d="M74.5176 29.7284C74.5176 27.4805 74.5176 25.1764 74.5176 22.9285C74.5176 22.4789 74.63 22.3103 75.0796 22.3103C75.7539 22.3665 76.3721 22.3665 77.0465 22.3103C77.496 22.3103 77.6084 22.4789 77.6084 22.8723C77.6084 27.4805 77.6084 32.0886 77.6084 36.6968C77.6084 37.0902 77.5522 37.2588 77.1026 37.2588C76.4283 37.2026 75.8101 37.2026 75.1357 37.2588C74.6862 37.315 74.5738 37.1464 74.5738 36.6968C74.5176 34.3365 74.5176 32.0324 74.5176 29.7284Z" fill="white"/>
<path d="M138.807 29.7845C138.807 32.0886 138.807 34.3927 138.807 36.6406C138.807 37.0902 138.751 37.2588 138.245 37.2588C137.627 37.2026 137.009 37.2026 136.334 37.2588C135.829 37.315 135.716 37.0902 135.716 36.6406C135.716 32.0886 135.716 27.5366 135.716 22.9846C135.716 22.4227 135.885 22.3103 136.391 22.3665C136.953 22.4227 137.515 22.4227 138.077 22.3665C138.582 22.3103 138.807 22.4789 138.807 23.0408C138.807 25.2325 138.807 27.5366 138.807 29.7845Z" fill="white"/>
</g>
<defs>
<clipPath id="clip0_2009_9188">
<rect width="180" height="40.6307" fill="white"/>
</clipPath>
</defs>
</svg>
