<svg width="122" height="29" viewBox="0 0 122 29" fill="none" xmlns="http://www.w3.org/2000/svg">
<path d="M26.2321 23.9058H25.3207C25.2353 23.9058 25.0928 23.9058 24.922 23.9058C24.4093 23.9058 24.0105 23.9058 23.7827 23.9058C23.1224 23.9058 22.4589 23.8248 21.827 23.6333C21.8133 23.6292 21.8005 23.6251 21.7888 23.6213C21.6179 23.5643 21.3616 23.479 21.1908 23.3935C21.156 23.3761 21.1188 23.3575 21.0799 23.3377C20.7456 23.1676 20.4664 22.9098 20.2223 22.6252C20.0799 22.426 19.9548 22.087 19.9375 21.9136C19.909 21.6291 19.9091 21.4583 19.9091 21.0883C19.9375 20.633 19.9376 20.3199 20.023 19.8361C20.1085 19.3808 20.2224 18.84 20.3648 18.2709L20.792 16.5918C21.0199 15.6811 21.3047 14.8842 21.6465 14.2581C21.9883 13.632 22.3301 13.1482 22.7003 12.7782C23.0706 12.4367 23.5833 12.1521 24.2099 11.9814C24.8365 11.8106 25.4346 11.6968 26.0043 11.6398C26.5739 11.5829 27.3429 11.5829 28.3113 11.5829H29.7069C30.1112 11.5829 30.385 11.6114 30.7038 11.6114C31.0283 11.6114 31.2639 11.6114 31.5868 11.6114C31.9096 11.6114 31.9 11.6114 32.2418 11.6114C32.612 11.6114 32.612 11.6114 32.9824 11.6114C33.3936 11.6114 33.6089 11.6114 33.7513 11.6114C33.9384 11.2564 34.0912 10.871 34.1094 10.4702C34.13 10.015 34.0487 9.68048 33.8653 9.47694C33.609 9.19235 33.0678 9.05005 32.2418 9.05005L24.5517 9.10697L25.4915 5.12269C28.1973 5.12267 31.3303 5.12267 34.7482 5.12267C37.0552 5.12267 38.5649 5.32188 39.3909 6.11874C40.2168 6.9156 40.3592 8.42395 39.7896 10.6438L36.5995 23.9058H30.9317M32.9539 15.1688C31.5868 15.1688 30.4475 15.1688 29.593 15.1688H28.4822C27.7986 15.1688 27.3145 15.2542 27.0011 15.4534C26.7163 15.6526 26.4885 16.0795 26.3176 16.7625L25.9188 18.3562C25.7764 18.9254 25.8049 19.3523 26.0328 19.6084C26.2606 19.8646 26.6878 19.9784 27.3144 19.9784H28.0835C28.3968 19.9784 28.7669 19.9784 29.1373 19.9784C29.479 19.9784 29.9971 19.9784 30.6469 19.9784C31.3303 19.9784 31.7204 19.9784 32.0425 19.9784L32.9539 15.1688Z" fill="#EAEAEA"/>
<path d="M43.1504 9.47691L44.2612 5.09418H60.3536L59.3567 9.19232L47.8499 19.3807H56.7933L55.6825 23.9058H39.0205L40.0173 19.6653L51.7805 9.47691H43.1504Z" fill="#EAEAEA"/>
<path d="M95.6996 19.5515L94.6458 23.9058C91.5699 23.9058 88.2375 23.9058 84.7342 23.9058C82.4557 23.9058 80.9744 23.5927 80.1769 22.7674C79.3509 21.9421 79.2085 20.4337 79.7497 18.1854L81.5155 11.0137C81.9428 9.27769 82.8827 7.85473 84.3353 6.74482C85.7878 5.63491 87.5537 5.09418 89.6329 5.09418H93.8768C95.9845 5.09418 97.4655 5.63491 98.32 6.74482C99.1744 7.85473 99.3738 9.27769 98.9466 11.0137L97.6364 16.3071C97.6079 16.4494 97.5795 16.5348 97.5795 16.5917C97.551 16.6486 97.5225 16.6771 97.4655 16.734C97.4086 16.7625 97.3231 16.7909 97.2092 16.7909H85.8163L85.5315 17.9009C85.3321 18.6408 85.3322 19.0961 85.503 19.2954C85.6739 19.4946 86.1296 19.6084 86.8702 19.6084H95.6996V19.5515ZM93.1362 13.0059L93.478 11.5544C93.7059 10.6437 93.7059 10.0176 93.4495 9.70458C93.1932 9.39153 92.6805 9.24923 91.9115 9.24923H89.9178C89.1203 9.24923 88.4937 9.39153 88.0664 9.70458C87.6392 10.0176 87.2974 10.6437 87.0696 11.5829L86.6708 13.1197L93.1362 13.0059Z" fill="#EAEAEA"/>
<path d="M121.619 5.09418L112.305 23.1943C112.077 23.6781 111.735 23.9058 111.308 23.9058H102.593C102.336 23.9058 102.165 23.8488 102.08 23.7635C101.995 23.6781 101.938 23.4789 101.909 23.1943L101.51 5.09418H107.947L107.634 19.0961H108.602L115.182 5.09418H121.619Z" fill="#EAEAEA"/>
<path d="M65.2725 23.9058H64.4465C62.2249 23.9058 60.7154 23.6212 59.9463 22.7959C59.1488 21.9706 59.0349 20.4622 59.5761 18.2709L61.4559 10.6153C61.9971 8.42395 62.8515 6.9156 64.0478 6.11874C65.244 5.32188 66.9245 5.12267 69.1461 5.12267H69.972C71.1398 5.12267 72.4869 5.12267 74.7655 5.12267L75.9596 0H81.4788L75.62 23.9058H70.0005M67.8395 19.4092C68.1528 19.4092 68.1596 19.4092 68.5493 19.4092C68.939 19.4092 69.2115 19.4092 69.9151 19.4092C70.5674 19.4092 71.0058 19.4092 71.2822 19.4092L73.6262 9.61924C73.3784 9.61924 72.667 9.61924 72.0797 9.61924C71.4685 9.61924 71.0628 9.61924 70.7126 9.61924C70.3331 9.61924 70.029 9.61924 69.6872 9.61924H69.0606C68.434 9.61924 67.9498 9.73307 67.6365 9.98921C67.2947 10.2453 67.0669 10.6722 66.896 11.2699L65.2725 17.787C65.1301 18.3562 65.1586 18.7831 65.3579 19.0393C65.5858 19.2954 65.9845 19.4092 66.6112 19.4092H67.8395Z" fill="#EAEAEA"/>
<path d="M15.3434 5.12267H20.9828L15.1155 29H9.73363L10.8232 23.9341C7.88954 23.9341 7.16901 23.9341 6.02972 23.9341H5.20374C2.98214 23.9341 1.47259 23.6212 0.703571 22.7959C-0.0939281 21.9706 -0.207857 20.4622 0.333303 18.2709L2.21312 10.6153C2.75428 8.42395 3.60874 6.91561 4.80499 6.11875C6.00124 5.32189 7.68168 5.12267 9.90329 5.12267H10.7293M12.011 19.3523L14.241 9.59078C13.9647 9.59078 13.4836 9.59078 12.8654 9.59078C12.2473 9.59078 11.8201 9.59078 11.4983 9.59078C11.108 9.59078 10.8147 9.59078 10.4729 9.59078H9.84632C9.21972 9.59078 8.73552 9.70461 8.42222 9.96075C8.08043 10.2169 7.85258 10.6438 7.68168 11.2414L6.05821 17.7586C5.91579 18.3562 5.94428 18.7831 6.14365 19.0108C6.37151 19.2385 6.77026 19.3523 7.39686 19.3523H8.02347C8.33677 19.3523 8.68704 19.3523 9.10579 19.3523C9.52454 19.3523 9.96873 19.3523 10.5869 19.3523C11.2504 19.3523 11.6777 19.3523 12.011 19.3523Z" fill="#EAEAEA"/>
</svg>
