<svg width="89" height="59" viewBox="0 0 89 59" fill="none" xmlns="http://www.w3.org/2000/svg">
<g clip-path="url(#clip0_2010_9403)">
<path fill-rule="evenodd" clip-rule="evenodd" d="M67.8314 17.1148C67.8314 19.0051 69.3651 20.5381 71.2547 20.5381C73.1457 20.5381 74.6786 19.0051 74.6786 17.1148V3.42325C74.6786 2.49944 74.3126 1.66243 73.7187 1.0468C72.9193 3.71697 70.6398 5.74762 67.8314 6.1853V17.1148ZM49.4926 11.8056C49.4065 11.6081 48.495 11.3274 48.3474 11.2855C47.4974 11.0446 46.5815 11.0192 45.7134 11.2059C45.5238 11.2464 44.8879 11.4142 44.7693 11.5039C44.804 11.5929 45.1491 12.0118 45.2294 12.1131L45.4739 12.4111C45.6729 12.6484 46.151 13.2467 46.3254 13.421L46.6972 13.8384C46.7558 13.8153 46.8188 13.7531 46.8745 13.7097C46.9331 13.6655 46.9895 13.6207 47.0488 13.5758C47.1147 13.5266 47.1588 13.4847 47.2203 13.4398C47.2818 13.3935 47.3273 13.3573 47.3845 13.3118L47.7209 13.0477C48.0775 12.7793 48.3763 12.5413 48.759 12.2686C48.8856 12.1782 49.3717 11.8425 49.4926 11.8056ZM48.7308 16.764C48.6874 16.646 48.4103 16.3921 48.3228 16.2916L47.8981 15.8445L47.3707 16.3386C47.3317 16.3748 47.2991 16.3972 47.2586 16.4319C47.2181 16.4666 47.1993 16.4999 47.1581 16.5361C47.1125 16.5759 47.0705 16.5954 47.0438 16.6468C47.1487 16.8334 47.7578 17.431 47.8706 17.5062L48.5687 16.9115C48.597 16.8862 48.5941 16.8833 48.6216 16.8616C48.6657 16.8262 48.6896 16.8023 48.7308 16.764ZM47.4995 17.8534C47.4756 17.7739 47.1834 17.4809 47.1147 17.4035C47.0373 17.3174 46.7812 17.0164 46.698 16.981C46.5808 17.0519 46.2965 17.355 46.1959 17.4642C46.1547 17.5091 46.125 17.5416 46.0838 17.5872L45.8371 17.8375C45.7908 17.8874 45.7582 17.8925 45.7069 17.954C45.7647 18.1037 46.1416 18.4517 46.2899 18.5993C46.3688 18.6767 46.3833 18.7122 46.5077 18.7924C46.5634 18.7722 46.5829 18.7266 46.6278 18.6774C46.8195 18.472 47.344 18.0466 47.4995 17.8534ZM47.6189 15.5334C47.6044 15.4936 47.5364 15.4206 47.5082 15.3909C47.4735 15.3533 47.4764 15.3555 47.4482 15.3193C47.4243 15.2874 47.4105 15.2802 47.3859 15.2498L46.6719 14.4186C46.5366 14.5322 46.0064 15.0053 45.9297 15.095C45.8754 15.158 45.8053 15.1898 45.7756 15.2802L46.3551 15.9472C46.3985 15.9993 46.682 16.2858 46.745 16.3082L47.6189 15.5334ZM46.3869 16.6026C46.1981 16.3494 46.023 16.1809 45.8342 15.9421C45.7676 15.8582 45.5535 15.5935 45.4848 15.5515C45.4211 15.5826 45.2706 15.728 45.2164 15.7888L44.6955 16.3082C44.6007 16.4095 44.5248 16.4659 44.4401 16.5874C44.4756 16.6547 44.6 16.8023 44.6514 16.8522C44.7273 16.926 44.8048 17.0381 44.8771 17.1105C44.9719 17.2053 45.2815 17.559 45.3531 17.5887L45.887 17.109C45.9463 17.041 46.3485 16.6894 46.3869 16.6026ZM46.1438 19.1592C46.1076 19.0731 46.0237 19.0073 45.9695 18.9364L45.6808 18.6094C45.636 18.5537 45.4074 18.3244 45.3647 18.3049C45.3386 18.3504 45.2786 18.4163 45.2381 18.4553C45.0833 18.6065 44.8511 18.8785 44.7527 18.9661L44.6167 19.1231C44.5892 19.152 44.5675 19.1643 44.5407 19.194L44.0025 19.7987C43.9714 19.8298 43.9641 19.8291 43.9366 19.8646C43.9091 19.8993 43.9012 19.9152 43.8694 19.9449C43.7377 20.0707 43.2783 20.6386 43.2349 20.7457C43.2494 20.7689 43.2349 20.75 43.2544 20.7696C43.3442 20.8564 43.9612 21.3288 44.0546 21.3252C44.1023 21.323 44.2029 21.1928 44.2311 21.1602L44.5639 20.7898C44.6442 20.7124 44.6716 20.664 44.7382 20.5974L46.1438 19.1592ZM51.5138 19.4971L50.2637 18.2911C50.004 18.056 49.4672 17.4679 49.345 17.3644C49.2343 17.2725 49.1251 17.1069 49.0361 17.0497C48.9905 17.07 48.9731 17.0975 48.9312 17.1286C48.7916 17.2349 48.309 17.6979 48.2034 17.8368C48.2454 17.9359 48.5702 18.2311 48.678 18.328C48.7395 18.3823 48.7778 18.4365 48.8393 18.4901C49.0462 18.6695 49.4969 19.1231 49.6749 19.2656C49.8101 19.3741 50.1162 19.683 50.2688 19.8002L50.8917 20.3203C51.0212 20.2523 51.4748 19.6504 51.5138 19.4971ZM45.0363 17.9453C45.0167 17.8744 44.7925 17.6046 44.7252 17.5279C44.6109 17.3999 44.2369 16.9253 44.1349 16.8775C44.0972 16.9441 43.9388 17.0758 43.873 17.1561L43.2132 17.8889C43.0157 18.0857 42.8168 18.3266 42.628 18.5349C42.6012 18.5646 42.5795 18.5761 42.5542 18.6065C42.5129 18.6528 42.4724 18.7085 42.4283 18.7599C42.28 18.9379 42.2207 19.0348 42.0405 19.2034C42.0753 19.3835 42.2764 19.6533 42.3639 19.7698C42.4478 19.8812 42.6981 20.1887 42.7459 20.2776C42.8356 20.2415 43.0642 20.0049 43.1184 19.9391L43.253 19.7799C43.3673 19.6323 43.5337 19.4681 43.669 19.3307C43.695 19.3039 43.7124 19.2815 43.737 19.2525C43.7818 19.2005 43.8281 19.1448 43.8759 19.0985C43.9359 19.0413 43.9641 19.0189 44.0169 18.961L44.7346 18.2282C44.8286 18.1356 44.9263 18.0054 45.0363 17.9453ZM46.4187 14.1075C46.3768 14.0142 44.9834 12.0928 44.7389 11.7405C44.6962 11.679 44.6579 11.6334 44.6246 11.5799C44.328 11.6247 43.3507 12.3033 43.355 12.3858L43.6031 12.7055C44.0358 13.2192 44.4575 13.774 44.9082 14.3029L45.4551 14.925C45.5716 14.8765 46.2212 14.245 46.4187 14.1075ZM50.4489 20.7754C50.4178 20.703 50.3477 20.664 50.2977 20.6075L49.7863 20.138C49.7284 20.0809 49.6857 20.0411 49.6293 19.9731L49.3797 19.7394C49.2343 19.6172 49.1974 19.5622 49.1229 19.4971C48.882 19.288 48.4667 18.8033 48.2432 18.5899C48.1586 18.5089 48.0848 18.4575 47.9886 18.3461C47.9271 18.2738 47.8923 18.2282 47.8041 18.1877C47.6768 18.3309 46.9251 19.0464 46.8694 19.1592C46.9656 19.3191 47.3216 19.6352 47.4807 19.7828C47.5198 19.8183 47.5408 19.853 47.5791 19.8884L48.1202 20.3876C48.1651 20.4245 48.1817 20.4534 48.2229 20.4903L49.3291 21.4503C49.3884 21.4937 49.3956 21.5002 49.468 21.4604C49.7465 21.3064 49.9736 21.1537 50.216 20.9635L50.4489 20.7754ZM51.8574 14.3542C51.8422 14.1473 51.2932 13.2872 51.0964 13.1107C51.0089 13.1425 50.8034 13.3176 50.7267 13.3805L49.8376 14.1321C49.6242 14.3195 49.1243 14.7102 48.9406 14.891L48.589 15.1985C48.5007 15.2838 48.3032 15.4495 48.2562 15.5298C48.3307 15.6644 48.4501 15.7584 48.5557 15.8647L48.8726 16.1939C48.9355 16.2576 49.0411 16.3386 49.0744 16.4167C49.2227 16.3791 50.2435 15.524 50.4489 15.3641C50.5625 15.2752 50.6819 15.1992 50.7991 15.1138L51.4986 14.6125C51.5543 14.5734 51.6187 14.5257 51.6788 14.4844C51.7446 14.4389 51.7974 14.4049 51.8574 14.3542ZM45.1766 15.1782C45.1513 15.0965 45.1158 15.0639 45.0637 14.9981L44.4365 14.1748C44.0907 13.7104 43.5265 12.9233 43.2979 12.4292C43.0439 12.516 42.0876 13.7154 42.1368 13.842C42.1664 13.9187 42.8392 14.7391 42.8985 14.81C43.0309 14.9684 43.996 16.1454 44.0965 16.1932L44.3815 15.9487C44.4271 15.8973 44.4749 15.8734 44.5226 15.8257L45.1766 15.1782ZM48.7691 21.7592L48.4935 21.4821C48.3958 21.3874 48.3069 21.3042 48.2078 21.2109L47.5776 20.5808C47.5531 20.5533 47.5306 20.5352 47.5031 20.5091C47.31 20.3225 47.1081 20.1554 46.936 19.9485C46.9128 19.921 46.8991 19.9022 46.8752 19.8761C46.8484 19.8465 46.8282 19.8356 46.7985 19.8067C46.7377 19.7466 46.5808 19.5513 46.4882 19.5369C46.418 19.6273 46.3391 19.709 46.2509 19.7821C46.1583 19.8588 46.104 19.9586 46.01 20.0396C45.9159 20.1214 45.4204 20.7059 45.3032 20.8282C45.2533 20.8803 45.2258 20.9186 45.1853 20.9584C45.131 21.0126 45.1216 21.0343 45.0681 21.0908C44.9798 21.1812 44.6499 21.5892 44.629 21.642C44.7433 21.7274 45.3683 21.9111 45.5521 21.9582C46.2871 22.1448 47.0459 22.1774 47.7976 22.0421C47.99 22.0081 48.6729 21.8692 48.7691 21.7592ZM48.8111 12.571C48.3741 12.9327 47.9054 13.3508 47.4749 13.6959L46.9801 14.1191C47.0105 14.2052 47.1479 14.3513 47.2022 14.4201L47.9575 15.231C48.0775 15.184 48.2345 15.0205 48.3351 14.9431L48.7142 14.6631C48.8422 14.572 48.9659 14.4758 49.0947 14.3839L50.9018 13.0571C50.9459 13.0224 50.9495 13.0159 50.9987 12.9942C50.9372 12.8748 50.6001 12.5659 50.4619 12.4364C50.433 12.4097 50.4113 12.4003 50.3802 12.3706C50.2637 12.2621 49.8434 11.9112 49.6495 11.8685L48.8111 12.571ZM43.8281 16.4703C43.7854 16.3798 43.682 16.259 43.6154 16.1606C43.2639 15.6412 42.8616 15.1059 42.5086 14.585C42.4334 14.475 42.3596 14.3745 42.2843 14.2674C42.2496 14.2189 42.2091 14.1589 42.1758 14.1112C42.1556 14.0815 42.1404 14.0641 42.1208 14.0352C42.1151 14.0265 42.0919 13.9918 42.0912 13.9911L42.0427 13.9498C41.9523 14.1481 41.8901 14.2218 41.7772 14.5069C41.7013 14.6964 41.626 14.9156 41.5718 15.1203C41.4466 15.5855 41.3685 16.0651 41.3699 16.573C41.3706 17.0179 41.5204 18.3497 41.7584 18.6036L42.0138 18.3432C42.1187 18.2549 42.1816 18.1667 42.2691 18.0705L42.7842 17.5308C42.8732 17.4324 42.9434 17.3644 43.0432 17.2624C43.0743 17.2306 43.0794 17.2298 43.1134 17.2009C43.143 17.1756 43.1445 17.1655 43.1778 17.1329L43.7023 16.6034C43.7341 16.5701 43.8115 16.4992 43.8281 16.4703ZM51.9298 14.5467C51.8256 14.5951 51.1311 15.1948 50.9669 15.3265C50.9322 15.354 50.9235 15.3677 50.8888 15.3945L49.4144 16.7054C49.4557 16.7842 49.9975 17.3101 50.1299 17.4273L51.1101 18.3374C51.1384 18.3635 51.163 18.3758 51.1912 18.4025L51.4161 18.6029C51.4856 18.6564 51.7359 18.9089 51.8271 18.9248C52.1143 18.5349 52.3335 17.3731 52.3465 16.7936C52.3559 16.3711 52.3277 15.9602 52.2517 15.5609C52.2032 15.3084 52.0665 14.6877 51.9298 14.5467ZM54.7208 1.80567C55.2988 0.730661 56.4331 0 57.7382 0C59.6299 0 61.1622 1.53222 61.1622 3.42325V9.66425C59.7761 6.48696 57.532 3.76905 54.7208 1.80567ZM44.0452 0C53.4989 0 61.1622 7.66326 61.1622 17.1148C61.1622 17.2407 61.16 17.3651 61.1571 17.4903L61.1622 17.4953C61.1622 22.9565 65.5902 27.3839 71.0521 27.3839C76.5147 27.3839 80.9428 22.9565 80.9428 17.4953V3.99476V3.42325C80.9428 1.53222 82.4757 0 84.3661 0C86.2571 0 87.7893 1.53222 87.7893 3.42325V17.4946C87.7893 26.7364 80.2961 34.2304 71.0521 34.2304C65.5649 34.2304 60.6948 31.5899 57.6427 27.5105C54.5139 31.5949 49.5873 34.2304 44.0452 34.2304H31.7382C34.2623 32.7018 36.1764 30.2703 37.0344 27.3839H44.0452C49.6741 27.3839 54.2455 22.8552 54.3135 17.2429C54.3127 17.0837 54.3106 16.9108 54.307 16.7285C54.1037 11.2363 49.5873 6.84578 44.0452 6.84578H30.35H21.9821C20.0911 6.84578 18.5581 5.31357 18.5581 3.42325C18.5581 1.53222 20.0911 0 21.9821 0H44.0452ZM10.5382 20.5381C4.8803 20.5207 0.299561 15.9299 0.299561 10.269C0.299561 4.59737 4.89766 0 10.57 0H10.5867H18.3433C17.4346 0.858707 16.8675 2.07406 16.8675 3.42325C16.8675 4.77172 17.4346 5.9878 18.344 6.84578H10.57C8.67901 6.84578 7.14607 8.37873 7.14607 10.269C7.14607 12.1594 8.67901 13.6923 10.57 13.6923H25.4994H25.5327C31.2043 13.6923 35.8032 18.2897 35.8032 23.9613C35.8032 29.6323 31.2043 34.2304 25.5327 34.2304L25.516 34.2296H3.72281C1.8325 34.2296 0.299561 32.6974 0.299561 30.8064C0.299561 28.9211 1.8231 27.3933 3.7069 27.3839H25.5327C27.423 27.3839 28.9559 25.8516 28.9559 23.9613C28.9559 22.0703 27.423 20.5381 25.5327 20.5381H10.5382Z" fill="white"/>
<path fill-rule="evenodd" clip-rule="evenodd" d="M2.0555 47.7378C1.84643 47.7957 1.62723 47.821 1.40803 47.821C1.2279 47.821 1.04849 47.808 0.87342 47.7747C0.69618 47.7414 0.524728 47.6886 0.364128 47.6098C0.285998 47.5707 0.243315 47.5374 0.215825 47.4658C0.194846 47.4108 0.191952 47.3436 0.191952 47.2307C0.191952 46.9298 0.211485 46.6744 0.223059 46.5239L0.230294 46.432C0.234634 46.3785 0.243315 46.3373 0.258507 46.3054C0.288168 46.2447 0.331573 46.215 0.395958 46.215C0.461067 46.215 0.503025 46.2374 0.531963 46.2881C0.550772 46.3206 0.555112 46.3568 0.555112 46.4038C0.555112 46.4378 0.555836 46.482 0.558006 46.5217C0.560176 46.5644 0.56524 46.6107 0.575368 46.6578V46.6592C0.620944 46.882 0.736692 47.0419 0.891505 47.1482C1.07743 47.2763 1.32267 47.3313 1.57225 47.3313C1.87102 47.3313 2.09746 47.2343 2.25444 47.0889C2.43819 46.9175 2.52862 46.6787 2.52862 46.4494C2.52862 46.2143 2.48015 46.0291 2.35861 45.8439C2.23129 45.6486 2.02439 45.4489 1.71259 45.1914L1.37765 44.9165C0.971806 44.5837 0.7215 44.2958 0.571751 44.0245C0.418385 43.7467 0.370638 43.4884 0.370638 43.2186C0.370638 42.7852 0.53558 42.4199 0.830014 42.1638C1.11649 41.915 1.52378 41.7717 2.0186 41.7717C2.16691 41.7717 2.29785 41.7797 2.41576 41.7934C2.53151 41.8065 2.63569 41.8253 2.73263 41.8484C2.80135 41.8629 2.84982 41.873 2.88599 41.8766C2.91927 41.8817 2.94459 41.8831 2.97136 41.8831C3.02489 41.8831 3.06396 41.894 3.09506 41.9171C3.13847 41.9497 3.15294 41.9902 3.15294 42.043L3.14932 42.1038C3.14136 42.2036 3.12328 42.4366 3.12328 42.8323C3.12328 42.901 3.11821 42.9545 3.10664 42.9921C3.08204 43.0732 3.03574 43.1108 2.96412 43.1108C2.89395 43.1108 2.85199 43.0804 2.8245 43.0247C2.80859 42.9922 2.8028 42.9596 2.79773 42.9191L2.79701 42.9155C2.79412 42.8706 2.77965 42.7954 2.76156 42.7238C2.74637 42.6666 2.72901 42.6138 2.71382 42.5856C2.69573 42.5523 2.64509 42.472 2.52573 42.3975C2.3984 42.3179 2.19584 42.247 1.87754 42.247C1.64098 42.247 1.43191 42.3215 1.2865 42.4583C1.15122 42.5863 1.06947 42.7708 1.06947 43.003C1.06947 43.1918 1.11215 43.3466 1.23441 43.5152C1.36607 43.696 1.58744 43.8964 1.93541 44.1684L2.14448 44.3327C2.59445 44.6871 2.87442 44.9852 3.04298 45.2738C3.21587 45.5697 3.2723 45.8511 3.2723 46.1658C3.2723 46.3561 3.2289 46.6389 3.08493 46.9204C2.98148 47.1229 2.8245 47.3255 2.59445 47.489C2.43023 47.6025 2.24721 47.6843 2.0555 47.7378ZM0.973976 57.0201C0.835078 56.6497 0.750437 56.1715 0.750437 55.5291V54.2696C0.750437 53.5657 0.750437 53.1491 0.748267 52.9385C0.74682 52.6817 0.74248 52.553 0.733799 52.4148C0.725841 52.2867 0.709202 52.1956 0.667967 52.1363C0.629625 52.082 0.561623 52.0458 0.447322 52.0212L0.444428 52.0205C0.418385 52.014 0.378596 52.0089 0.335914 52.0046C0.278763 52.001 0.217272 51.9981 0.17676 51.9981C0.136972 51.9981 0.095013 51.9858 0.0624588 51.9619C0.0248406 51.9344 0.000244141 51.8932 0.000244141 51.8389C0.000244141 51.7673 0.030628 51.7196 0.095013 51.6892C0.133355 51.6704 0.183271 51.6631 0.245486 51.6631C0.505196 51.6631 0.847376 51.6754 1.05789 51.6834L1.2373 51.6885C1.2713 51.6885 1.34871 51.6856 1.44927 51.6812C1.64893 51.674 1.93035 51.6631 2.09022 51.6631C2.15316 51.6631 2.20235 51.6704 2.2407 51.6885C2.30508 51.7196 2.33546 51.7673 2.33546 51.8389C2.33546 51.8932 2.31159 51.9344 2.27397 51.9619C2.24142 51.9858 2.19946 51.9981 2.15967 51.9981C2.10686 51.9981 2.05839 52.006 1.96507 52.022L1.95928 52.0227C1.87754 52.0343 1.82617 52.0654 1.79507 52.1174C1.75672 52.1811 1.73936 52.2802 1.7314 52.4141C1.71476 52.6832 1.71476 52.9248 1.71476 54.2696V55.477C1.71476 56.0862 1.78132 56.5188 1.89273 56.84C2.00124 57.1539 2.15388 57.363 2.32751 57.5287C2.52645 57.7153 2.71599 57.826 2.91276 57.8904C3.11025 57.9555 3.32077 57.9729 3.55588 57.9729C3.8004 57.9729 4.04275 57.9157 4.25978 57.8166C4.48259 57.7146 4.68009 57.5677 4.82767 57.3912C5.01359 57.1605 5.13151 56.8696 5.20385 56.5303C5.27692 56.1838 5.30224 55.7852 5.30224 55.3483V54.2696C5.30224 53.5657 5.30224 53.1491 5.30079 52.9385C5.29862 52.6817 5.29428 52.553 5.2856 52.4148C5.27836 52.2867 5.261 52.1956 5.21977 52.1363C5.18142 52.082 5.11342 52.0458 4.99912 52.0212L4.99623 52.0205C4.97018 52.014 4.9304 52.0089 4.88771 52.0046C4.83056 52.001 4.76907 51.9981 4.72856 51.9981C4.68877 51.9981 4.64681 51.9858 4.61498 51.9619C4.57664 51.9344 4.55204 51.8932 4.55204 51.8389C4.55204 51.7673 4.58243 51.7196 4.64681 51.6892C4.68588 51.6704 4.73507 51.6631 4.79728 51.6631C5.0758 51.6631 5.41292 51.6769 5.59305 51.6848L5.71097 51.6885L5.85783 51.6827C6.01915 51.6747 6.26512 51.6631 6.43585 51.6631C6.49806 51.6631 6.54725 51.6704 6.58559 51.6885C6.64998 51.7196 6.68109 51.7673 6.68109 51.8389C6.68109 51.8932 6.65649 51.9344 6.61887 51.9619C6.58632 51.9858 6.54436 51.9981 6.50457 51.9981C6.45176 51.9981 6.40401 52.006 6.30997 52.022H6.3078C6.22388 52.0415 6.17107 52.0733 6.13996 52.1247C6.10162 52.1862 6.08426 52.2809 6.07703 52.4141C6.06039 52.6839 6.06039 52.9255 6.06039 54.2696V55.1927C6.06039 55.6651 6.03362 56.1643 5.9186 56.6266C5.80212 57.0975 5.59378 57.528 5.23062 57.8506C4.90725 58.1378 4.57592 58.3042 4.25978 58.399C3.94509 58.493 3.64631 58.5154 3.38371 58.5154C3.23251 58.5154 2.93301 58.5068 2.59011 58.4236C2.24431 58.3382 1.85583 58.1783 1.53391 57.8745C1.31182 57.6618 1.11504 57.397 0.973976 57.0201ZM13.0465 54.3217C12.6537 53.8898 12.3209 53.5187 12.1032 53.2749L12.2073 57.1127C12.2153 57.4549 12.2399 57.677 12.2891 57.8202C12.3282 57.9331 12.3839 57.9873 12.4642 58.0119C12.5249 58.0278 12.59 58.0387 12.6508 58.0459C12.7412 58.0568 12.8223 58.0597 12.8664 58.0597C12.9112 58.0597 12.951 58.0712 12.9821 58.0944C13.0212 58.1233 13.0429 58.1653 13.0429 58.2188C13.0429 58.2941 13.0075 58.3425 12.9373 58.3715C12.8975 58.3881 12.8454 58.3946 12.7803 58.3946C12.4338 58.3946 12.1516 58.3816 11.991 58.3736L11.8673 58.3686C11.8391 58.3686 11.7906 58.3715 11.7248 58.3744C11.5628 58.3823 11.3023 58.3946 11.0383 58.3946C10.9833 58.3946 10.9363 58.3917 10.8972 58.3751C10.8292 58.3476 10.7938 58.3006 10.7938 58.2188C10.7938 58.166 10.8147 58.1241 10.8545 58.0944C10.8849 58.0712 10.9247 58.0597 10.9696 58.0597C11.0072 58.0597 11.073 58.0568 11.1439 58.0466C11.1931 58.0394 11.2437 58.0293 11.2893 58.0134L11.2944 58.0119C11.3602 57.9938 11.4007 57.9389 11.4289 57.8159C11.4644 57.6582 11.4745 57.4057 11.4745 57.0201L11.4832 52.0806C11.4832 51.9055 11.4904 51.7897 11.5071 51.7152C11.5367 51.5879 11.5953 51.5423 11.685 51.5423C11.7834 51.5423 11.8963 51.6668 11.991 51.7717L12.0692 51.8541C12.1451 51.9409 12.5474 52.3779 13.1029 52.9783C13.5529 53.4637 14.149 54.1054 14.8052 54.8093C15.2551 55.2918 15.7254 55.8084 16.1102 56.2316C16.3367 56.4804 16.5342 56.6975 16.6803 56.8559L16.5913 52.7555C16.587 52.4871 16.5718 52.3106 16.5276 52.1985C16.4922 52.1095 16.4336 52.0632 16.3359 52.0371C16.2795 52.0256 16.2158 52.0162 16.1551 52.0097C16.0654 52.0017 15.9815 51.9981 15.9409 51.9981C15.8758 51.9981 15.8332 51.9778 15.8035 51.9446C15.7724 51.9098 15.7652 51.8715 15.7652 51.8303C15.7652 51.7471 15.81 51.7015 15.8903 51.6783C15.9323 51.666 15.9844 51.6631 16.0444 51.6631C16.2969 51.6631 16.5739 51.6747 16.757 51.6827C16.8402 51.6863 16.9031 51.6885 16.9393 51.6885C16.9747 51.6885 17.0268 51.6856 17.0948 51.6819C17.2359 51.674 17.4435 51.6631 17.6735 51.6631C17.73 51.6631 17.7784 51.6668 17.8197 51.6791C17.8949 51.7029 17.9369 51.7492 17.9369 51.8303C17.9369 51.886 17.9094 51.9337 17.8602 51.9655C17.8269 51.9858 17.7842 51.9981 17.7343 51.9981C17.7133 51.9981 17.688 51.9981 17.6634 52.001C17.6352 52.0031 17.5998 52.0089 17.5527 52.0205L17.5498 52.0212C17.4478 52.0429 17.3914 52.0863 17.3618 52.1659C17.3234 52.2708 17.3155 52.4372 17.3155 52.6839L17.2981 57.7356C17.2981 58.0249 17.2938 58.1827 17.2807 58.2709C17.2576 58.4337 17.2019 58.4554 17.1136 58.4554C17.0514 58.4554 16.9885 58.425 16.8727 58.3237C16.7787 58.2413 16.6383 58.1024 16.4104 57.8759C16.3533 57.8224 15.878 57.3399 15.3101 56.7495C14.9347 56.3596 14.5194 55.9227 14.1577 55.5327C13.767 55.1124 13.3844 54.6936 13.0465 54.3217ZM24.2285 52.4141C24.2119 52.6832 24.2119 52.9248 24.2119 54.2696V55.7874C24.2119 56.2135 24.2119 56.6027 24.2169 56.8957C24.2227 57.2096 24.2329 57.4665 24.2546 57.6459V57.6473C24.2661 57.7595 24.2821 57.8557 24.3204 57.9222C24.3529 57.9765 24.4065 58.0148 24.4976 58.0264H24.4991C24.5562 58.0344 24.6329 58.043 24.706 58.0495C24.7711 58.0561 24.8333 58.0597 24.8724 58.0597C24.9201 58.0597 24.9577 58.0734 24.9867 58.0944C25.0308 58.1277 25.0482 58.174 25.0482 58.2188C25.0482 58.2832 25.0178 58.3331 24.9534 58.3657C24.9158 58.3845 24.8659 58.3946 24.8029 58.3946C24.4463 58.3946 24.0332 58.3794 23.8422 58.3722L23.7431 58.3686L23.602 58.3736C23.4089 58.3816 23.0754 58.3946 22.8981 58.3946C22.8352 58.3946 22.7867 58.3874 22.7477 58.3686C22.6833 58.3389 22.6529 58.2904 22.6529 58.2188C22.6529 58.174 22.6695 58.1277 22.7137 58.0944C22.7426 58.0734 22.7802 58.0597 22.8287 58.0597C22.8605 58.0597 22.896 58.0568 22.9307 58.0524C22.9777 58.0459 23.0247 58.0365 23.0645 58.0286L23.0667 58.0278C23.1123 58.0184 23.1434 57.9844 23.1658 57.9331C23.1976 57.8622 23.2157 57.7609 23.2309 57.6459C23.2736 57.2907 23.2736 56.6128 23.2736 55.7874V54.2696C23.2736 53.5657 23.2729 53.1491 23.2714 52.9385C23.2693 52.6817 23.2649 52.553 23.2562 52.4148C23.249 52.2853 23.228 52.1912 23.1897 52.1283C23.1586 52.0762 23.1115 52.0444 23.0464 52.0299L23.0421 52.0285C23.0059 52.0183 22.9661 52.0111 22.9292 52.0068C22.8815 52.001 22.8352 51.9981 22.8026 51.9981C22.7636 51.9981 22.7209 51.9858 22.6883 51.9619C22.6514 51.9344 22.6269 51.8932 22.6269 51.8389C22.6269 51.7673 22.6572 51.7196 22.7209 51.6892C22.76 51.6704 22.8092 51.6631 22.8721 51.6631C23.0696 51.6631 23.4154 51.6762 23.6093 51.6841L23.7431 51.6885L23.8827 51.6841C24.0766 51.6762 24.4101 51.6631 24.5873 51.6631C24.6503 51.6631 24.6995 51.6704 24.7378 51.6885C24.8022 51.7196 24.8326 51.7673 24.8326 51.8389C24.8326 51.8932 24.808 51.9344 24.7704 51.9619C24.7385 51.9858 24.6966 51.9981 24.6568 51.9981C24.6033 51.9981 24.5555 52.006 24.4615 52.022L24.4586 52.0227C24.3761 52.0372 24.3233 52.069 24.2922 52.1218C24.2538 52.184 24.2365 52.2802 24.2285 52.4141ZM30.8356 52.7707C31.3825 54.1387 31.8838 55.5646 32.4025 56.9478C32.6463 56.3669 32.9899 55.5009 33.309 54.6733C33.6938 53.6743 34.0425 52.7338 34.1387 52.4206L34.1395 52.4177C34.1597 52.3562 34.1785 52.2969 34.1915 52.2426C34.2038 52.1941 34.2111 52.1536 34.2111 52.1232C34.2111 52.1008 34.2075 52.0755 34.1959 52.056C34.1887 52.0437 34.1785 52.0328 34.1648 52.0249C34.0801 51.9988 33.9644 51.9981 33.879 51.9981C33.8407 51.9981 33.8031 51.9937 33.7698 51.9793C33.7126 51.954 33.6765 51.9113 33.6765 51.8389C33.6765 51.7622 33.7112 51.7131 33.7915 51.6841C33.8342 51.6696 33.8935 51.6631 33.9738 51.6631C34.1915 51.6631 34.4419 51.674 34.6191 51.6812C34.7081 51.6856 34.7768 51.6885 34.8188 51.6885L34.9417 51.6827C35.0879 51.6754 35.3223 51.6631 35.4915 51.6631C35.5509 51.6631 35.6008 51.6696 35.6384 51.6841C35.7086 51.7116 35.7447 51.7594 35.7447 51.8303C35.7447 51.8946 35.718 51.9402 35.6637 51.9706C35.6297 51.9894 35.5863 51.9981 35.5342 51.9981C35.5067 51.9981 35.4496 51.9988 35.3845 52.0089C35.3201 52.0205 35.2456 52.0415 35.1783 52.0849C35.1334 52.1167 35.0835 52.1637 35.0191 52.2658C34.9468 52.3808 34.8593 52.558 34.7457 52.8438C34.6726 53.0304 34.4013 53.6844 34.0801 54.4585L33.7076 55.3548C33.2193 56.5238 32.8583 57.3876 32.6658 57.7985C32.6094 57.9186 32.5617 58.0235 32.524 58.1089C32.3837 58.4221 32.341 58.5154 32.2065 58.5154C32.0343 58.5154 31.9844 58.3896 31.8165 57.9642L29.6846 52.6289C29.5949 52.401 29.5218 52.2672 29.4394 52.184C29.3627 52.1059 29.2679 52.0668 29.1348 52.0292C29.019 51.9988 28.8838 51.9981 28.836 51.9981C28.7832 51.9981 28.7434 51.9822 28.7138 51.9568C28.6747 51.9228 28.6595 51.8787 28.6595 51.8303C28.6595 51.7434 28.7109 51.6979 28.8042 51.6762C28.8527 51.666 28.9156 51.6631 28.9908 51.6631C29.2592 51.6631 29.5761 51.6747 29.7873 51.6827C29.8843 51.6863 29.9566 51.6885 29.9993 51.6885C30.034 51.6885 30.0933 51.6856 30.1729 51.6819C30.3415 51.674 30.5889 51.6631 30.8016 51.6631C30.8869 51.6631 30.9535 51.6689 31.0012 51.6798C31.0946 51.7037 31.1416 51.7521 31.1416 51.8303C31.1416 51.8896 31.1199 51.9337 31.0743 51.9648C31.041 51.988 30.9998 51.9981 30.9477 51.9981C30.8956 51.9981 30.8254 52.001 30.7647 52.0089C30.7234 52.014 30.6873 52.0212 30.6641 52.0321C30.6417 52.0415 30.6294 52.0538 30.6229 52.0639C30.6171 52.0755 30.6157 52.0914 30.6157 52.1066C30.6157 52.1985 30.7126 52.4517 30.8356 52.7707ZM40.1244 57.6459C40.1663 57.2907 40.1663 56.6128 40.1663 55.7874V54.2696C40.1663 53.5657 40.1663 53.1491 40.1649 52.9385C40.1627 52.6817 40.1584 52.553 40.1497 52.4148C40.1425 52.2867 40.1251 52.1956 40.0839 52.1363C40.0455 52.082 39.9775 52.0458 39.8639 52.0212L39.8603 52.0205C39.8343 52.014 39.7945 52.0089 39.7518 52.0046C39.6946 52.001 39.6339 51.9981 39.5926 51.9981C39.5529 51.9981 39.5109 51.9858 39.4783 51.9619C39.4407 51.9344 39.4169 51.8932 39.4169 51.8389C39.4169 51.7673 39.4472 51.7196 39.5109 51.6892C39.55 51.6704 39.5992 51.6631 39.6621 51.6631L39.9761 51.6646C40.0853 51.666 40.1931 51.6682 40.2871 51.6711L40.6358 51.6892L41.5712 51.6877C42.0284 51.687 42.5037 51.6848 42.605 51.6805C42.6802 51.6762 42.7511 51.6704 42.8126 51.6631C42.8741 51.6559 42.924 51.6479 42.9551 51.6407L42.9862 51.6277C43.0195 51.611 43.0521 51.5937 43.1013 51.5937C43.162 51.5937 43.2018 51.6255 43.225 51.6769C43.238 51.7065 43.2438 51.742 43.2438 51.7789C43.2438 51.8143 43.2351 51.852 43.2228 51.904C43.2091 51.9677 43.1881 52.0589 43.1736 52.1949L43.162 52.3678C43.1534 52.5139 43.1418 52.6976 43.1295 52.77L43.1288 52.7743C43.123 52.804 43.1136 52.838 43.0984 52.8669C43.0702 52.9183 43.0282 52.9552 42.9638 52.9552C42.8944 52.9552 42.8466 52.9241 42.8155 52.8691C42.7953 52.8322 42.7873 52.7873 42.7873 52.7353C42.7873 52.7027 42.7844 52.6419 42.7743 52.5804C42.7678 52.5407 42.7584 52.5001 42.7439 52.4661C42.7222 52.4169 42.6961 52.3735 42.6361 52.3395C42.5609 52.2976 42.4357 52.2629 42.2194 52.239C42.1673 52.2325 42.0168 52.2274 41.8403 52.2238C41.5792 52.218 41.2435 52.2144 41.1053 52.2137V54.5511L41.7022 54.5489C42.0009 54.5467 42.3113 54.5424 42.4111 54.5344C42.5102 54.5257 42.5876 54.5178 42.6441 54.5033C42.6889 54.4917 42.7215 54.4751 42.7446 54.4498L42.7584 54.4346C42.83 54.3521 42.8748 54.3008 42.9551 54.3008C43.0456 54.3008 43.1056 54.3449 43.1056 54.4765C43.1056 54.504 43.0984 54.5409 43.0882 54.5966C43.0738 54.6755 43.0513 54.797 43.0354 54.9699C43.0289 55.0423 43.021 55.1443 43.0152 55.2427C43.0072 55.3642 43.0022 55.477 43.0022 55.5118C43.0022 55.5516 43.0022 55.5986 42.9913 55.6434C42.9725 55.7237 42.9291 55.7831 42.8343 55.7831C42.7779 55.7831 42.7352 55.7592 42.7048 55.7208C42.6781 55.6861 42.6665 55.6427 42.6665 55.5979C42.6665 55.5552 42.6665 55.5118 42.6629 55.4749C42.66 55.4358 42.652 55.3931 42.6376 55.3454L42.6361 55.3432C42.6238 55.2984 42.6035 55.2499 42.5587 55.2115C42.5081 55.1681 42.4234 55.1334 42.2809 55.1182C42.1912 55.1081 42.0132 55.1001 41.8194 55.0929C41.5495 55.0835 41.2413 55.0777 41.1053 55.0763V55.7874L41.1039 56.1672C41.1017 56.5752 41.0988 57.1272 41.1053 57.2567C41.1162 57.52 41.1466 57.6734 41.2536 57.7515C41.373 57.8376 41.5987 57.8615 41.998 57.8615C42.1087 57.8615 42.2585 57.8615 42.4032 57.8506C42.5449 57.839 42.6853 57.8173 42.7844 57.7754C42.8748 57.737 42.9414 57.6828 42.9899 57.6046C43.0434 57.5178 43.0803 57.3985 43.1085 57.235C43.1194 57.1749 43.1316 57.1315 43.1505 57.099C43.1837 57.0411 43.2279 57.0165 43.2915 57.0165C43.4507 57.0165 43.4507 57.1424 43.4507 57.2531C43.4507 57.295 43.4268 57.5157 43.3979 57.7283C43.3776 57.8839 43.3537 58.0365 43.3357 58.1139L43.3342 58.1175C43.2532 58.4214 43.17 58.4214 42.7656 58.4214C42.2469 58.4214 41.8237 58.4091 41.4989 58.3997C41.2956 58.3939 41.0945 58.3852 40.8912 58.3751C40.7885 58.3707 40.7053 58.3686 40.6358 58.3686L40.5266 58.3693C40.468 58.3707 40.3884 58.3729 40.2958 58.3773L40.2915 58.378C40.1953 58.378 40.099 58.3823 40.0115 58.3874C39.9269 58.391 39.8473 58.3946 39.7909 58.3946C39.7294 58.3946 39.6795 58.3874 39.6411 58.3686C39.5767 58.3389 39.5456 58.2904 39.5456 58.2188C39.5456 58.174 39.563 58.1277 39.6071 58.0944C39.6361 58.0734 39.6737 58.0597 39.7221 58.0597C39.754 58.0597 39.7894 58.0568 39.8241 58.0524C39.8712 58.0459 39.9182 58.0365 39.958 58.0286L39.9601 58.0278C40.0057 58.0184 40.0368 57.9844 40.0593 57.9331C40.0911 57.8622 40.1085 57.7609 40.1244 57.6459ZM48.7346 57.6459C48.7765 57.2907 48.7765 56.6128 48.7765 55.7874V54.2696C48.7765 53.5657 48.7765 53.1491 48.7751 52.9385C48.7729 52.6817 48.7686 52.553 48.7606 52.4148C48.7527 52.2867 48.736 52.1956 48.6948 52.1363C48.6565 52.082 48.5877 52.0458 48.4742 52.0212L48.4705 52.0205C48.4452 52.014 48.4047 52.0089 48.3627 52.0046C48.3056 52.001 48.2441 51.9981 48.2036 51.9981C48.1631 51.9981 48.1211 51.9858 48.0893 51.9619C48.0517 51.9344 48.0271 51.8932 48.0271 51.8389C48.0271 51.7673 48.0575 51.7196 48.1218 51.6892C48.1602 51.6704 48.2094 51.6631 48.2723 51.6631C48.5552 51.6631 48.9415 51.6776 49.1346 51.6848L49.246 51.6885C49.2923 51.6885 49.3994 51.6848 49.534 51.6812C49.7785 51.6733 50.1069 51.6631 50.2639 51.6631C50.541 51.6631 50.8282 51.6762 51.106 51.7319C51.3888 51.789 51.6616 51.8888 51.9039 52.0625C52.0399 52.1609 52.2367 52.3576 52.3756 52.6304C52.4733 52.8235 52.5434 53.0572 52.5434 53.322C52.5434 53.6569 52.4733 53.9918 52.3018 54.3362C52.1426 54.656 51.8967 54.9822 51.5371 55.3244L51.7303 55.5718C52.3242 56.3343 52.8285 56.981 53.264 57.4469C53.4875 57.6828 53.6857 57.8217 53.8536 57.907C54.0192 57.9895 54.1552 58.0199 54.2551 58.0351C54.407 58.0597 54.5242 58.0597 54.5741 58.0597C54.6175 58.0597 54.6573 58.0734 54.6877 58.093C54.7318 58.1226 54.7593 58.1689 54.7593 58.2188C54.7593 58.2962 54.7253 58.3462 54.6399 58.3744C54.5951 58.3896 54.5336 58.3946 54.4446 58.3946H53.8326C53.5866 58.3946 53.4058 58.3838 53.2553 58.3563C53.1005 58.3281 52.9811 58.2832 52.8596 58.2181C52.4964 58.0235 52.207 57.6415 51.7708 57.0657L51.6616 56.921C51.4482 56.6425 51.2268 56.3372 51.0438 56.084C50.9099 55.8995 50.7956 55.7418 50.7276 55.6536L50.7095 55.6384C50.4209 55.6051 49.9868 55.6239 49.6808 55.6196V55.7874C49.6808 56.2135 49.6808 56.6027 49.6859 56.8957C49.6917 57.2096 49.7025 57.4665 49.7235 57.6459V57.6473C49.7351 57.7595 49.7517 57.8564 49.7901 57.9222C49.8226 57.9765 49.8762 58.0148 49.9673 58.0264H49.9688C50.0252 58.0344 50.1026 58.043 50.1757 58.0495C50.2408 58.0561 50.303 58.0597 50.3413 58.0597C50.3898 58.0597 50.4274 58.0734 50.4556 58.0944C50.5005 58.1277 50.5178 58.174 50.5178 58.2188C50.5178 58.2832 50.4867 58.3331 50.4231 58.3657C50.3854 58.3845 50.3348 58.3946 50.2726 58.3946C49.9159 58.3946 49.5021 58.3794 49.3112 58.3722L49.212 58.3686L49.1773 58.37C49.0442 58.3758 48.6145 58.3946 48.4018 58.3946C48.3396 58.3946 48.2904 58.3874 48.2513 58.3686C48.187 58.3389 48.1566 58.2904 48.1566 58.2188C48.1566 58.174 48.1739 58.1277 48.2173 58.0944C48.247 58.0734 48.2839 58.0597 48.3324 58.0597C48.3642 58.0597 48.3996 58.0568 48.4344 58.0524C48.4814 58.0459 48.5284 58.0365 48.5682 58.0286L48.5711 58.0278C48.6167 58.0184 48.6478 57.9844 48.6702 57.9331C48.7013 57.8622 48.7187 57.7609 48.7346 57.6459ZM49.6808 52.1985C49.7373 52.9552 49.7119 54.2487 49.6808 55.0256L49.6895 55.0321C49.7416 55.0632 49.8595 55.0929 50.0093 55.1153C50.1662 55.1392 50.3551 55.1544 50.5395 55.1544C50.6372 55.1544 50.7421 55.1479 50.8441 55.1269C50.9418 55.1059 51.0387 55.0698 51.1255 55.0104C51.2651 54.9135 51.3874 54.7522 51.4742 54.5351C51.556 54.3275 51.6044 54.07 51.6044 53.7705C51.6044 53.259 51.4728 52.8525 51.2333 52.5761C50.9967 52.3034 50.6502 52.1536 50.2205 52.1536C50.099 52.1536 49.9868 52.1587 49.895 52.1674C49.7995 52.1753 49.7235 52.1869 49.6808 52.1985ZM59.9983 58.4192C59.7582 58.4858 59.5057 58.5154 59.2532 58.5154C59.0456 58.5154 58.8387 58.5002 58.6368 58.4619C58.4336 58.4236 58.2361 58.3628 58.0509 58.2724C57.9648 58.2282 57.9178 58.1921 57.8881 58.1147C57.8649 58.0532 57.8613 57.9772 57.8613 57.8484C57.8613 57.4997 57.8845 57.2053 57.8975 57.031L57.9055 56.9246C57.9105 56.8653 57.9207 56.8197 57.9373 56.7843C57.967 56.7199 58.0133 56.6888 58.0813 56.6888C58.15 56.6888 58.1934 56.7119 58.2238 56.7655C58.2433 56.8002 58.2484 56.8393 58.2484 56.8906C58.2484 56.9304 58.2491 56.981 58.2513 57.0288C58.2542 57.078 58.2599 57.133 58.2715 57.1879C58.325 57.4527 58.4625 57.6408 58.6448 57.7667C58.864 57.9172 59.1512 57.9823 59.4435 57.9823C59.7936 57.9823 60.0606 57.868 60.245 57.6965C60.4613 57.4947 60.5684 57.2133 60.5684 56.9434C60.5684 56.6671 60.5112 56.4501 60.3687 56.2323C60.2197 56.0051 59.9788 55.7722 59.6164 55.4734L59.2286 55.1544C58.7606 54.7703 58.4719 54.4389 58.2997 54.1264C58.1232 53.8081 58.0682 53.5108 58.0682 53.2011C58.0682 52.7041 58.257 52.2853 58.5942 51.9923C58.9226 51.7065 59.3907 51.5423 59.96 51.5423C60.1314 51.5423 60.2826 51.551 60.4186 51.5669C60.5518 51.5814 60.6718 51.6045 60.784 51.6306C60.8643 51.6472 60.92 51.6581 60.9634 51.6646C61.0024 51.6696 61.0328 51.6711 61.0639 51.6711C61.1218 51.6711 61.1638 51.6827 61.1963 51.7065C61.2419 51.7405 61.2571 51.7832 61.2571 51.8389L61.2528 51.9084C61.2441 52.0234 61.2231 52.2947 61.2231 52.7533C61.2231 52.8322 61.2173 52.8922 61.2043 52.9349C61.179 53.0188 61.1305 53.0586 61.0553 53.0586C60.9815 53.0586 60.9381 53.0268 60.9091 52.9682C60.8918 52.9349 60.8853 52.8966 60.8795 52.8517V52.8474C60.8751 52.796 60.8585 52.707 60.8368 52.6238C60.8194 52.5566 60.7992 52.4936 60.7804 52.4589C60.7587 52.4198 60.6986 52.3236 60.5568 52.2354C60.4071 52.1413 60.1698 52.0589 59.7965 52.0589C59.518 52.0589 59.272 52.1471 59.1006 52.3077C58.9407 52.4589 58.8437 52.6774 58.8437 52.9516C58.8437 53.1737 58.8944 53.356 59.0383 53.5542C59.1917 53.7654 59.4485 53.9984 59.8536 54.3152L60.0953 54.5048C60.6147 54.9142 60.9381 55.2586 61.1327 55.5899C61.3316 55.9292 61.3953 56.2533 61.3953 56.615C61.3953 56.8327 61.3461 57.1583 61.1804 57.4817C61.0611 57.7146 60.8816 57.9454 60.6169 58.1335C60.4288 58.2651 60.219 58.3584 59.9983 58.4192ZM67.7643 52.4141C67.747 52.6832 67.747 52.9248 67.747 54.2696V55.7874C67.747 56.2135 67.747 56.6027 67.752 56.8957C67.7571 57.2096 67.7679 57.4665 67.7896 57.6459V57.6473C67.8005 57.7595 67.8171 57.8564 67.8562 57.9222C67.888 57.9765 67.9416 58.0148 68.0327 58.0264H68.0342C68.0913 58.0344 68.168 58.043 68.2411 58.0495C68.3062 58.0561 68.3684 58.0597 68.4067 58.0597C68.4559 58.0597 68.4928 58.0734 68.521 58.0944C68.5659 58.1277 68.5832 58.174 68.5832 58.2188C68.5832 58.2832 68.5521 58.3331 68.4885 58.3657C68.4509 58.3845 68.4009 58.3946 68.338 58.3946C67.9813 58.3946 67.5683 58.3794 67.3773 58.3722L67.2775 58.3686L67.1371 58.3736C66.944 58.3816 66.6097 58.3946 66.4332 58.3946C66.3703 58.3946 66.3211 58.3874 66.2827 58.3686C66.2184 58.3389 66.1872 58.2904 66.1872 58.2188C66.1872 58.174 66.2046 58.1277 66.2487 58.0944C66.2777 58.0734 66.3153 58.0597 66.3638 58.0597C66.3956 58.0597 66.431 58.0568 66.4658 58.0524C66.5128 58.0459 66.5598 58.0365 66.5996 58.0286L66.6018 58.0278C66.6481 58.0184 66.6785 57.9844 66.7009 57.9331C66.7327 57.8622 66.7501 57.7609 66.766 57.6459C66.808 57.2907 66.8079 56.6128 66.8079 55.7874V54.2696C66.8079 53.5657 66.8079 53.1491 66.8065 52.9385C66.8043 52.6817 66.8 52.553 66.7913 52.4148C66.7841 52.2853 66.7631 52.1912 66.7248 52.1283C66.6936 52.0762 66.6466 52.0444 66.5815 52.0299L66.5765 52.0285C66.541 52.0183 66.5012 52.0111 66.4636 52.0068C66.4166 52.001 66.3703 51.9981 66.3377 51.9981C66.2979 51.9981 66.256 51.9858 66.2234 51.9619C66.1858 51.9344 66.1619 51.8932 66.1619 51.8389C66.1619 51.7673 66.1923 51.7196 66.2567 51.6892C66.295 51.6704 66.3442 51.6631 66.4072 51.6631C66.6054 51.6631 66.9512 51.6762 67.1443 51.6841L67.2775 51.6885L67.4178 51.6841C67.6117 51.6762 67.9452 51.6631 68.1224 51.6631C68.1854 51.6631 68.2345 51.6704 68.2729 51.6885C68.3373 51.7196 68.3677 51.7673 68.3677 51.8389C68.3677 51.8932 68.3431 51.9344 68.3054 51.9619C68.2736 51.9858 68.2317 51.9981 68.1911 51.9981C68.1383 51.9981 68.0906 52.006 67.9965 52.022L67.9936 52.0227C67.9112 52.0372 67.8584 52.069 67.8273 52.1218C67.7889 52.184 67.7716 52.2802 67.7643 52.4141ZM76.9793 52.265L76.0041 52.2491V55.7874C76.0041 56.2135 76.0041 56.6027 76.0092 56.8957C76.0143 57.2096 76.0251 57.4665 76.0461 57.6459V57.6473C76.0577 57.7595 76.0743 57.8557 76.1134 57.9222C76.1452 57.9765 76.198 58.0148 76.2885 58.0264H76.2899C76.3471 58.0344 76.4237 58.043 76.4968 58.0495C76.5619 58.0561 76.6241 58.0597 76.6625 58.0597C76.7109 58.0597 76.7486 58.0734 76.7768 58.0944C76.8216 58.1277 76.839 58.174 76.839 58.2188C76.839 58.2832 76.8086 58.3331 76.7442 58.3657C76.7066 58.3845 76.6567 58.3946 76.5937 58.3946C76.2371 58.3946 75.8247 58.3794 75.6338 58.3722L75.5346 58.3686L75.3943 58.3736C75.2004 58.3816 74.8669 58.3946 74.6897 58.3946C74.6275 58.3946 74.5783 58.3874 74.5399 58.3686C74.4748 58.3389 74.4444 58.2904 74.4444 58.2188C74.4444 58.174 74.4618 58.1277 74.5052 58.0944C74.5349 58.0734 74.5725 58.0597 74.621 58.0597C74.6528 58.0597 74.6875 58.0568 74.723 58.0524C74.7693 58.0459 74.817 58.0365 74.8561 58.0286L74.859 58.0278C74.9053 58.0184 74.9356 57.9844 74.9581 57.9331C74.9892 57.8622 75.0073 57.7609 75.0232 57.6459C75.0651 57.2907 75.0651 56.6128 75.0651 55.7874V52.2491L73.8983 52.265C73.6422 52.2694 73.4649 52.2853 73.3398 52.3244C73.2305 52.3576 73.1618 52.4112 73.1068 52.4922C73.0178 52.6311 72.9932 52.6875 72.9694 52.7432C72.9506 52.7917 72.9289 52.825 72.9043 52.8481C72.8659 52.8828 72.8276 52.8951 72.7849 52.8951C72.7328 52.8951 72.6894 52.8713 72.6612 52.8221C72.6438 52.7931 72.6344 52.7555 72.6344 52.7099C72.6344 52.6716 72.6576 52.5486 72.688 52.4047C72.74 52.1558 72.816 51.8324 72.8269 51.7883L72.8334 51.7688C72.8601 51.687 72.9079 51.5423 73.0171 51.5423C73.0605 51.5423 73.0945 51.5575 73.1408 51.5778C73.1944 51.6009 73.2739 51.6371 73.4042 51.6458L73.4078 51.6465C73.517 51.6581 73.6436 51.6675 73.7601 51.6747C73.8983 51.6834 74.0205 51.6885 74.0777 51.6885H77.3092C77.4394 51.6885 77.5501 51.6848 77.6442 51.6783C77.7476 51.6711 77.833 51.6602 77.9002 51.6479L77.906 51.6465C77.969 51.6385 78.0239 51.6262 78.0645 51.6176C78.1057 51.6089 78.1361 51.6024 78.1628 51.6024C78.3133 51.6024 78.3133 51.708 78.3133 51.8136C78.3133 51.9648 78.3025 52.2643 78.2952 52.4893C78.2909 52.6152 78.2873 52.7172 78.2873 52.7613C78.2873 52.817 78.2764 52.8626 78.2576 52.8959C78.2258 52.9537 78.1766 52.9812 78.118 52.9812C78.0543 52.9812 78.008 52.961 77.9748 52.8937C77.9574 52.8582 77.9473 52.809 77.9422 52.7345L77.9342 52.6427C77.9248 52.5472 77.8807 52.4625 77.7606 52.3989C77.6167 52.3229 77.3736 52.2737 76.9793 52.265ZM84.3829 57.6509C84.4082 57.295 84.4082 56.934 84.4082 56.7958V56.0543C84.4082 55.6145 84.3272 55.4336 84.2223 55.1978L84.2194 55.1927C84.1904 55.1262 83.8671 54.5865 83.5205 54.0193C83.1972 53.4898 82.855 52.9393 82.7118 52.7266C82.6134 52.5812 82.5157 52.4589 82.4246 52.3605C82.324 52.2498 82.2307 52.1688 82.1547 52.1182C82.1019 52.0827 82.0411 52.0538 81.9854 52.0328C81.9261 52.0104 81.8733 51.9981 81.8436 51.9981C81.8002 51.9981 81.7547 51.9872 81.7192 51.9619C81.6773 51.933 81.6498 51.8896 81.6498 51.8303C81.6498 51.7724 81.6773 51.7232 81.7359 51.6921C81.7691 51.6733 81.8133 51.6631 81.869 51.6631C81.9695 51.6631 82.2958 51.674 82.5172 51.6819L82.7226 51.6885L82.8347 51.6834C82.9758 51.6754 83.2124 51.6631 83.4468 51.6631C83.5169 51.6631 83.5647 51.6762 83.598 51.6986C83.6522 51.7333 83.6667 51.7803 83.6667 51.8303C83.6667 51.9294 83.611 51.9511 83.522 51.9858L83.4728 52.006C83.4554 52.0154 83.4417 52.0263 83.433 52.0364C83.4279 52.0444 83.4251 52.0538 83.4251 52.0632C83.4251 52.1023 83.4337 52.1435 83.4489 52.1862C83.4663 52.2354 83.4916 52.2889 83.5234 52.3482C83.5965 52.4813 83.9915 53.1628 84.3699 53.8132C84.623 54.2487 84.869 54.669 85.0072 54.9012C85.1034 54.7189 85.2532 54.4483 85.4195 54.1546C85.7935 53.4912 86.25 52.7078 86.3557 52.5334C86.407 52.4517 86.4396 52.3772 86.4598 52.3121C86.4786 52.2506 86.4859 52.1963 86.4859 52.15C86.4859 52.1051 86.4808 52.0668 86.4685 52.0422C86.4605 52.0277 86.4482 52.0169 86.4294 52.0118L86.4222 52.0097C86.3774 51.9952 86.3397 51.9822 86.3094 51.9648C86.2522 51.9315 86.2189 51.8888 86.2189 51.8223C86.2189 51.755 86.2565 51.7087 86.3238 51.6834C86.3607 51.6696 86.4085 51.6631 86.4642 51.6631C86.6081 51.6631 86.7781 51.6733 86.8989 51.6812C86.9604 51.6856 87.0089 51.6885 87.0328 51.6885L87.2585 51.6812C87.4733 51.6733 87.7728 51.6631 87.8698 51.6631C87.9154 51.6631 87.9609 51.6711 87.9957 51.687C88.0528 51.7138 88.089 51.7586 88.089 51.8223C88.089 51.8831 88.0593 51.9323 88.008 51.9641C87.9711 51.9858 87.924 51.9981 87.8698 51.9981C87.8257 51.9981 87.7634 52.0068 87.6969 52.0277C87.6419 52.0437 87.5833 52.0683 87.5291 52.1023L87.5276 52.103C87.4495 52.1507 87.3887 52.1977 87.3258 52.2592C87.2599 52.3236 87.1912 52.4054 87.0986 52.5182C86.9648 52.6817 86.6154 53.2359 86.2725 53.8074C85.905 54.4179 85.5469 55.0466 85.468 55.2332C85.3472 55.5241 85.3472 55.7809 85.3472 56.0543V56.7958C85.3472 56.8718 85.3472 57.0085 85.3501 57.1409C85.353 57.2899 85.3595 57.4679 85.3725 57.6509C85.3805 57.7595 85.4 57.8521 85.442 57.9179C85.4789 57.975 85.5389 58.0141 85.6329 58.0264H85.6344C85.6916 58.0344 85.7682 58.043 85.8413 58.0495C85.9064 58.0561 85.9686 58.0597 86.007 58.0597C86.0562 58.0597 86.0938 58.0734 86.122 58.0944C86.1661 58.1277 86.1835 58.174 86.1835 58.2188C86.1835 58.2839 86.1531 58.3331 86.0894 58.3657C86.0511 58.3845 86.0012 58.3946 85.9382 58.3946C85.5816 58.3946 85.1685 58.3794 84.9775 58.3722L84.8777 58.3686L84.7373 58.3736C84.5442 58.3816 84.21 58.3946 84.0327 58.3946C83.9705 58.3946 83.9213 58.3874 83.8823 58.3686C83.8186 58.3389 83.7875 58.2912 83.7875 58.2188C83.7875 58.174 83.8048 58.1277 83.8497 58.0944C83.8779 58.0734 83.9155 58.0597 83.964 58.0597C83.9966 58.0597 84.0313 58.0568 84.066 58.0524C84.113 58.0459 84.1601 58.0365 84.1998 58.0286L84.202 58.0278C84.2498 58.0177 84.2867 57.9852 84.3149 57.9374C84.3532 57.868 84.3749 57.7674 84.3829 57.6509ZM5.10474 46.521C4.98465 46.1991 4.91086 45.7853 4.91086 45.2283V44.1417C4.91086 43.5282 4.91086 43.1665 4.90942 42.9921C4.90725 42.7708 4.90435 42.6594 4.89639 42.54C4.88988 42.4329 4.87614 42.357 4.84214 42.3078C4.81175 42.2644 4.75533 42.2347 4.66128 42.2145L4.65766 42.2137C4.63813 42.2087 4.60341 42.2051 4.56651 42.2014C4.52094 42.1971 4.4674 42.1949 4.43051 42.1949C4.39506 42.1949 4.35961 42.1848 4.32995 42.166C4.28944 42.1392 4.2634 42.098 4.2634 42.043C4.2634 41.975 4.29233 41.9294 4.3531 41.9005C4.38927 41.8831 4.4334 41.8759 4.48983 41.8759C4.71337 41.8759 5.00925 41.8868 5.19155 41.894L5.34564 41.8983L5.52867 41.8925C5.70157 41.8853 5.94536 41.8759 6.08209 41.8759C6.13852 41.8759 6.18337 41.8831 6.21809 41.8998C6.27959 41.9294 6.30852 41.975 6.30852 42.043C6.30852 42.1443 6.22533 42.1949 6.14213 42.1949C6.11898 42.1949 6.09873 42.1964 6.07703 42.1993L5.97141 42.2159C5.90557 42.226 5.86434 42.2499 5.83974 42.2904C5.80864 42.3432 5.79344 42.4264 5.78766 42.54C5.77319 42.7722 5.77319 42.9806 5.77319 44.1417V45.1841C5.77319 45.7072 5.83034 46.0797 5.92583 46.3554C6.01843 46.623 6.14865 46.8024 6.29695 46.9435C6.46695 47.1034 6.629 47.1989 6.79684 47.2531C6.96539 47.3081 7.14553 47.324 7.34736 47.324C7.55643 47.324 7.76333 47.2748 7.94853 47.1902C8.13951 47.1027 8.30807 46.9768 8.43395 46.8263C8.5931 46.6295 8.69438 46.38 8.75587 46.0899C8.81881 45.7918 8.84052 45.4489 8.84052 45.072V44.1417C8.84052 43.5282 8.84052 43.1665 8.83907 42.9921C8.83762 42.7708 8.834 42.6594 8.82605 42.54C8.82026 42.4329 8.80579 42.357 8.77179 42.3078C8.74141 42.2644 8.68498 42.2347 8.59093 42.2145L8.58732 42.2137C8.56778 42.2087 8.53378 42.2051 8.49616 42.2014C8.45059 42.1971 8.39778 42.1949 8.36016 42.1949C8.32543 42.1949 8.28926 42.1848 8.2596 42.166C8.21982 42.1385 8.19305 42.098 8.19305 42.043C8.19305 41.975 8.22199 41.9294 8.28275 41.9005C8.31892 41.8831 8.36305 41.8759 8.41948 41.8759C8.65821 41.8759 8.9512 41.8882 9.10674 41.8947L9.20874 41.8983L9.33461 41.8933C9.47279 41.8868 9.68692 41.8759 9.83306 41.8759C9.88948 41.8759 9.93434 41.8831 9.96906 41.8998C10.0306 41.9294 10.0602 41.975 10.0602 42.043C10.0602 42.1443 9.97629 42.1949 9.8931 42.1949C9.86995 42.1949 9.84969 42.1964 9.82799 42.1993L9.72671 42.2152C9.65871 42.2311 9.6153 42.2564 9.59071 42.2969C9.5596 42.3476 9.54513 42.4272 9.53862 42.54C9.52415 42.7715 9.52415 42.9806 9.52415 44.1417V44.9382C9.52415 45.3462 9.501 45.7788 9.40189 46.1796C9.30061 46.5883 9.11903 46.963 8.8029 47.243C8.52221 47.4933 8.23501 47.638 7.9601 47.7205C7.68593 47.8022 7.42622 47.821 7.19834 47.821C7.06812 47.821 6.80841 47.8131 6.51036 47.7414C6.20941 47.6677 5.87157 47.528 5.59233 47.264L5.59161 47.2633C5.39845 47.0781 5.22772 46.848 5.10474 46.521ZM12.6942 42.54C12.6805 42.7722 12.6797 42.9806 12.6797 44.1417V45.4663C12.6797 46.0139 12.687 46.4046 12.7108 46.6693C12.7325 46.9153 12.7644 47.0477 12.8121 47.0947C12.857 47.1403 12.9192 47.1736 13.0306 47.196C13.1586 47.2227 13.3453 47.235 13.6296 47.235C13.822 47.235 13.9978 47.2329 14.1411 47.2068C14.2706 47.1815 14.3762 47.1367 14.4471 47.0506C14.4876 47.0007 14.5238 46.9377 14.5527 46.8704C14.5845 46.7974 14.6077 46.7221 14.6178 46.6578C14.6229 46.6143 14.633 46.5775 14.6518 46.5463C14.6822 46.4957 14.7256 46.4682 14.7907 46.4682C14.8601 46.4682 14.9021 46.4964 14.9274 46.5637C14.939 46.5955 14.9426 46.6346 14.9426 46.6874C14.9426 46.7381 14.9238 46.9189 14.8963 47.1027C14.8775 47.2322 14.8529 47.3645 14.8269 47.46L14.8254 47.4622C14.7907 47.5765 14.7647 47.6452 14.6627 47.693C14.5838 47.7299 14.4673 47.74 14.2546 47.74C13.851 47.74 13.5153 47.7299 13.2375 47.7226L13.014 47.7168C12.8555 47.7096 12.7195 47.7038 12.6002 47.7002C12.4859 47.6966 12.3759 47.6944 12.2601 47.6944L12.211 47.6959C12.1495 47.698 12.0496 47.7024 11.9549 47.7024L11.732 47.7125C11.6525 47.7154 11.5809 47.7176 11.5309 47.7176C11.4745 47.7176 11.4297 47.7103 11.3949 47.6937C11.3334 47.664 11.3045 47.6185 11.3045 47.5505C11.3045 47.5078 11.3211 47.4636 11.3631 47.4318C11.3899 47.4116 11.426 47.3985 11.4709 47.3985C11.4977 47.3985 11.528 47.3956 11.557 47.392C11.596 47.387 11.6373 47.379 11.6713 47.3718L11.6735 47.3703C11.7075 47.3638 11.7313 47.3371 11.7487 47.298C11.7755 47.2387 11.7906 47.1526 11.8037 47.0542C11.8398 46.7489 11.8398 46.1629 11.8398 45.4518V44.1417C11.8398 43.5282 11.8398 43.1665 11.8384 42.9921C11.8369 42.7708 11.8333 42.6594 11.8254 42.54C11.8196 42.4329 11.8058 42.357 11.7711 42.3078C11.7407 42.2644 11.685 42.2347 11.5903 42.2145L11.5866 42.2137C11.5671 42.2087 11.5331 42.2051 11.4962 42.2014C11.4499 42.1971 11.3971 42.1949 11.3595 42.1949C11.3248 42.1949 11.2886 42.1848 11.2597 42.166C11.2191 42.1385 11.1924 42.098 11.1924 42.043C11.1924 41.975 11.2213 41.9294 11.2821 41.9005C11.3183 41.8831 11.3624 41.8759 11.4188 41.8759C11.6626 41.8759 11.9968 41.8889 12.1639 41.8954L12.2601 41.8991L12.3962 41.8947C12.5857 41.8875 12.9134 41.8759 13.0639 41.8759C13.1196 41.8759 13.1644 41.8831 13.1999 41.8998C13.2606 41.9294 13.2903 41.975 13.2903 42.043C13.2903 42.1443 13.2071 42.1949 13.1232 42.1949C13.095 42.1949 13.0545 42.1971 13.0125 42.2007C12.9756 42.2043 12.9344 42.2087 12.8953 42.2152C12.8201 42.2282 12.7738 42.2543 12.7477 42.2962C12.7152 42.3469 12.7007 42.4272 12.6942 42.54ZM16.5298 47.0542C16.566 46.7489 16.566 46.1629 16.566 45.4518V44.1417C16.566 43.5282 16.566 43.1665 16.5645 42.9921C16.5631 42.7708 16.5588 42.6594 16.5515 42.54C16.545 42.4329 16.5313 42.357 16.4973 42.3078C16.4669 42.2644 16.4104 42.2347 16.3164 42.2145L16.3128 42.2137C16.2933 42.2087 16.2593 42.2051 16.2224 42.2014C16.1761 42.1971 16.1225 42.1949 16.0856 42.1949C16.0509 42.1949 16.0147 42.1848 15.9851 42.166C15.9453 42.1385 15.9192 42.098 15.9192 42.043C15.9192 41.975 15.9475 41.9294 16.0089 41.9005C16.0444 41.8831 16.0885 41.8759 16.145 41.8759L16.4162 41.8773C16.511 41.8781 16.6043 41.8802 16.6854 41.8839L16.9863 41.8991L17.7936 41.8983C18.1879 41.8976 18.5974 41.8954 18.6849 41.8911C18.7493 41.8882 18.8108 41.8824 18.8636 41.8766C18.9164 41.8708 18.9584 41.8636 18.9851 41.8571L19.0068 41.847C19.0387 41.8318 19.0683 41.8166 19.1146 41.8166C19.1732 41.8166 19.2123 41.847 19.2347 41.8976C19.247 41.9251 19.2521 41.9577 19.2521 41.9909C19.2521 42.0235 19.2441 42.056 19.234 42.1023C19.2217 42.1566 19.2036 42.2347 19.1913 42.3519L19.1812 42.4995C19.1739 42.6261 19.1638 42.786 19.153 42.8496L19.1522 42.8525C19.1464 42.88 19.1385 42.9104 19.1247 42.9364C19.0987 42.9864 19.0575 43.0204 18.996 43.0204C18.9301 43.0204 18.8846 42.9914 18.8556 42.9393C18.8361 42.9053 18.8289 42.8641 18.8289 42.8171C18.8289 42.7889 18.8267 42.7375 18.818 42.6854C18.8122 42.6521 18.8043 42.6181 18.7927 42.5899C18.7746 42.5501 18.7536 42.5147 18.7059 42.4872C18.6422 42.4518 18.5366 42.4228 18.3514 42.4026C18.3065 42.3975 18.1771 42.3924 18.0251 42.3895C17.8096 42.3852 17.5339 42.3823 17.4059 42.3816V44.3696L17.9065 44.3681C18.164 44.3659 18.4317 44.3623 18.5171 44.3544C18.6024 44.3478 18.6683 44.3413 18.716 44.3283C18.7522 44.3182 18.7789 44.3059 18.797 44.2864L18.8086 44.2726C18.873 44.1988 18.9121 44.1532 18.988 44.1532C19.0336 44.1532 19.0727 44.1706 19.1023 44.2126C19.1211 44.2393 19.1327 44.2748 19.1327 44.3204C19.1327 44.345 19.1262 44.3775 19.1175 44.4267C19.1052 44.494 19.0857 44.5982 19.0719 44.7465C19.0661 44.8094 19.0596 44.8977 19.0546 44.9816C19.0481 45.0865 19.043 45.1841 19.043 45.2138C19.043 45.2492 19.043 45.2905 19.0343 45.331C19.0162 45.4062 18.9743 45.4619 18.8838 45.4619C18.8296 45.4619 18.7898 45.4402 18.7616 45.4033C18.7355 45.3715 18.7247 45.3303 18.7247 45.2876C18.7247 45.2507 18.7247 45.2138 18.7218 45.1834C18.7189 45.1501 18.7124 45.114 18.7001 45.0727L18.6986 45.0713C18.6885 45.0358 18.6726 44.9953 18.6372 44.9657C18.5952 44.9295 18.5243 44.9005 18.4042 44.8882C18.3275 44.8803 18.1742 44.8723 18.0078 44.8665C17.785 44.8593 17.5296 44.8535 17.4059 44.8528V45.4518L17.4044 45.7795C17.4023 46.1311 17.4001 46.6078 17.4052 46.7192C17.4153 46.9421 17.4406 47.0715 17.5281 47.1352C17.6273 47.2076 17.8204 47.2271 18.1619 47.2271C18.2574 47.2271 18.3861 47.2271 18.5106 47.2177C18.6321 47.2083 18.7515 47.1895 18.8347 47.154C18.9106 47.1222 18.9656 47.0781 19.0061 47.0122C19.051 46.9392 19.0821 46.8379 19.1059 46.6983C19.1161 46.6447 19.1269 46.6071 19.1443 46.5775C19.1761 46.521 19.2181 46.4979 19.2788 46.4979C19.4308 46.4979 19.4308 46.6143 19.4308 46.7171C19.4308 46.754 19.4098 46.9442 19.3852 47.1287C19.3671 47.2647 19.3468 47.3964 19.3302 47.4636L19.3295 47.4665C19.2564 47.7393 19.1826 47.74 18.8245 47.74C18.3789 47.74 18.0121 47.7291 17.7314 47.7219C17.5549 47.7168 17.3813 47.7082 17.2048 47.7002C17.118 47.6966 17.0463 47.6944 16.9863 47.6944L16.8923 47.6951C16.8409 47.6959 16.7722 47.698 16.6926 47.7017L16.6882 47.7024C16.605 47.7024 16.5233 47.7067 16.4481 47.7103C16.3736 47.714 16.3048 47.7176 16.2564 47.7176C16.2007 47.7176 16.1558 47.7103 16.1204 47.6937C16.0596 47.664 16.0299 47.6185 16.0299 47.5505C16.0299 47.5078 16.0466 47.4636 16.0885 47.4318C16.1167 47.4116 16.1522 47.3985 16.197 47.3985C16.2238 47.3985 16.2535 47.3956 16.2831 47.392C16.3229 47.387 16.3634 47.379 16.3974 47.3718L16.3996 47.3703C16.4336 47.3638 16.4575 47.3371 16.4748 47.298C16.5009 47.2387 16.5161 47.1526 16.5298 47.0542ZM22.4163 47.06C22.438 46.7532 22.438 46.4414 22.438 46.3228V45.6818C22.438 45.3049 22.3693 45.1501 22.2789 44.9483L22.2767 44.944C22.2514 44.8875 21.9736 44.4231 21.6755 43.9341C21.3956 43.4768 21.0997 43.0008 20.976 42.8171C20.8921 42.6927 20.8074 42.5878 20.7293 42.5031C20.6432 42.4091 20.5636 42.3389 20.4993 42.2962C20.4544 42.2666 20.4038 42.2412 20.3567 42.2239C20.3061 42.2058 20.2627 42.1949 20.2388 42.1949C20.199 42.1949 20.1564 42.1841 20.1231 42.1609C20.0826 42.1334 20.0565 42.0922 20.0565 42.0351C20.0565 41.9801 20.0833 41.9338 20.139 41.9034C20.1701 41.886 20.2106 41.8759 20.2612 41.8759C20.3452 41.8759 20.628 41.886 20.8197 41.8933L20.9977 41.8983L21.0939 41.894C21.2154 41.8875 21.4216 41.8759 21.6227 41.8759C21.6864 41.8759 21.7298 41.8882 21.7609 41.9092C21.813 41.9432 21.8267 41.9873 21.8267 42.0351C21.8267 42.1313 21.7761 42.1508 21.6936 42.1834L21.6509 42.2007C21.6379 42.2072 21.6285 42.2152 21.6227 42.2231C21.6198 42.2268 21.6184 42.2318 21.6184 42.2369C21.6184 42.268 21.6256 42.3013 21.6379 42.3374C21.6531 42.3794 21.6748 42.425 21.7016 42.4756C21.7653 42.5899 22.1045 43.1759 22.4308 43.7366L22.969 44.6568C23.0522 44.4998 23.1767 44.277 23.3134 44.0346C23.6368 43.4617 24.0303 42.7852 24.1215 42.6348C24.1649 42.5646 24.1931 42.5024 24.2104 42.4474C24.2256 42.3953 24.2321 42.3505 24.2321 42.3107C24.2321 42.2745 24.2278 42.2441 24.2184 42.2253C24.2133 42.2159 24.2061 42.2087 24.1945 42.2065L24.1858 42.2043C24.0752 42.1667 24.0014 42.1421 24.0014 42.0278C24.0014 41.9642 24.0368 41.9186 24.1019 41.8947C24.1352 41.8824 24.1779 41.8759 24.2278 41.8759C24.3522 41.8759 24.4991 41.8853 24.604 41.8925C24.6568 41.8962 24.698 41.8983 24.719 41.8983L24.9129 41.8925C25.0995 41.8853 25.3578 41.8759 25.441 41.8759C25.4829 41.8759 25.5242 41.8839 25.5567 41.8991C25.611 41.9244 25.645 41.9663 25.645 42.0278C25.645 42.0864 25.6175 42.132 25.5683 42.1631C25.535 42.1834 25.4909 42.1949 25.441 42.1949C25.4041 42.1949 25.352 42.2029 25.2963 42.2195C25.25 42.2333 25.2008 42.2543 25.1552 42.2825L25.1538 42.2839C25.0872 42.3237 25.0351 42.3635 24.9816 42.4163C24.9259 42.4713 24.8666 42.5415 24.787 42.6391C24.672 42.7795 24.371 43.2562 24.0752 43.7481C23.7583 44.2755 23.4494 44.8181 23.3814 44.9794C23.2779 45.2268 23.2779 45.4475 23.2779 45.6818V46.3228C23.2779 46.3886 23.2779 46.5087 23.2808 46.6201C23.283 46.7475 23.2888 46.9015 23.3004 47.06C23.3061 47.1504 23.3221 47.2293 23.3575 47.2828C23.3872 47.3291 23.4356 47.3602 23.5123 47.3696C23.5615 47.3768 23.6281 47.3848 23.6925 47.3899C23.7503 47.3949 23.8031 47.3985 23.8335 47.3985C23.8791 47.3985 23.9138 47.4116 23.9413 47.4318C23.984 47.4636 23.9999 47.5078 23.9999 47.5505C23.9999 47.6127 23.971 47.6611 23.9102 47.6915C23.8755 47.7074 23.8306 47.7176 23.7735 47.7176C23.4667 47.7176 23.1094 47.7038 22.9444 47.6973L22.8583 47.6944L22.7375 47.6988C22.5704 47.7053 22.2811 47.7176 22.1291 47.7176C22.0727 47.7176 22.0279 47.7103 21.9931 47.6937C21.9316 47.664 21.9027 47.6185 21.9027 47.5505C21.9027 47.5078 21.9193 47.4636 21.9613 47.4318C21.9888 47.4116 22.0242 47.3985 22.0698 47.3985C22.0966 47.3985 22.1262 47.3956 22.1552 47.392C22.195 47.387 22.2355 47.379 22.2695 47.3718L22.2716 47.371C22.3085 47.3638 22.3375 47.3378 22.3592 47.3002C22.3917 47.2416 22.4098 47.1576 22.4163 47.06ZM31.9547 41.8846C31.9728 41.928 31.9844 41.988 31.9931 42.0691L32.4915 46.6455C32.5052 46.7735 32.5255 46.937 32.5769 47.0759C32.6239 47.1989 32.6977 47.3045 32.8199 47.3443C33.0189 47.4058 33.2005 47.4058 33.2706 47.4058C33.3061 47.4058 33.3372 47.4116 33.3654 47.426C33.4124 47.4521 33.4377 47.4911 33.4377 47.5505C33.4377 47.6662 33.3249 47.7241 33.1744 47.7241C33.0767 47.7241 32.7317 47.7219 32.4025 47.714C32.2065 47.7089 32.0242 47.7024 31.9229 47.6944C31.8252 47.6865 31.763 47.6742 31.7232 47.659C31.6407 47.6264 31.6154 47.5772 31.6154 47.5128C31.6154 47.4687 31.6284 47.4325 31.6588 47.4029C31.6726 47.3899 31.6878 47.379 31.7066 47.3703H31.7015C31.7066 47.3284 31.7051 47.2676 31.6979 47.2054L31.3731 43.691L29.6463 47.3559C29.5124 47.6394 29.482 47.7024 29.3562 47.7024C29.2411 47.7024 29.1985 47.6214 29.0465 47.3327L29.0306 47.3023C28.8548 46.9717 28.3311 45.9206 28.1914 45.6406L28.1582 45.5741C28.1169 45.4916 27.8116 44.8383 27.5519 44.2777L27.3183 43.7706L27.0513 46.8675C27.0441 46.979 27.0441 47.1121 27.0441 47.2379C27.0441 47.2676 27.0557 47.2958 27.0738 47.3175C27.0926 47.3407 27.1201 47.3573 27.1512 47.3631L27.1548 47.3638C27.2054 47.3761 27.2517 47.3841 27.2901 47.3891C27.3443 47.3956 27.3892 47.3985 27.413 47.3985C27.4478 47.3985 27.4847 47.4087 27.5129 47.426C27.5534 47.4521 27.5802 47.4926 27.5802 47.5425C27.5802 47.6163 27.5476 47.664 27.4839 47.693C27.4456 47.7111 27.3979 47.7176 27.3393 47.7176C27.1562 47.7176 26.924 47.7067 26.7764 47.6995L26.6469 47.6944C26.618 47.6944 26.5587 47.6973 26.4834 47.7009C26.3402 47.7082 26.1449 47.7176 26.0212 47.7176C25.9713 47.7176 25.925 47.7111 25.8866 47.693C25.8237 47.6655 25.7875 47.6177 25.7875 47.5425C25.7875 47.4868 25.8201 47.4463 25.8685 47.4217C25.8982 47.4065 25.9351 47.3985 25.9698 47.3985C25.9973 47.3985 26.0241 47.3978 26.053 47.3956C26.0834 47.3935 26.121 47.3884 26.1716 47.3783H26.1738C26.3322 47.3493 26.3568 47.1157 26.3807 46.8813L26.9204 42.0011C26.9254 41.9446 26.9399 41.8962 26.9623 41.8593C26.9963 41.8036 27.0455 41.7717 27.1078 41.7717C27.1598 41.7717 27.2032 41.7884 27.2423 41.8282C27.2691 41.8556 27.2922 41.8933 27.3161 41.9439L29.4958 46.4241L31.5879 41.9548C31.606 41.9135 31.6248 41.8759 31.6501 41.8455C31.6878 41.7999 31.7348 41.7717 31.797 41.7717C31.8708 41.7717 31.9214 41.8079 31.9547 41.8846ZM34.1952 47.1974C34.2834 47.086 34.35 46.9312 34.4129 46.7554L36.1021 42.1327C36.1491 42.0047 36.181 41.9273 36.2092 41.8788C36.2577 41.7942 36.3047 41.7717 36.3669 41.7717C36.4262 41.7717 36.4725 41.7913 36.5224 41.8694C36.5506 41.9135 36.5832 41.9866 36.6302 42.1081L36.9427 42.9198C37.3515 43.9876 38.0438 45.7969 38.3643 46.5955C38.493 46.9131 38.6066 47.0983 38.7057 47.2083C38.7947 47.3059 38.8707 47.3399 38.9343 47.358L38.9387 47.3602C38.9871 47.3761 39.0363 47.3862 39.0805 47.3913C39.1246 47.3964 39.1673 47.3985 39.2027 47.3985C39.2396 47.3985 39.2736 47.4029 39.304 47.4188C39.3554 47.4441 39.3843 47.4846 39.3843 47.5505C39.3843 47.6221 39.3438 47.6677 39.2794 47.6937C39.2374 47.7103 39.1839 47.7176 39.1282 47.7176L38.6942 47.7154C38.4786 47.7132 38.2123 47.7096 37.9563 47.7017L37.9201 47.7002C37.7349 47.6915 37.6293 47.6865 37.6293 47.5425C37.6293 47.4948 37.6481 47.4579 37.6792 47.4289C37.6987 47.4123 37.7204 47.4 37.7436 47.392C37.7465 47.3812 37.745 47.3631 37.7371 47.3378L37.0505 45.522H35.4966L35.0531 46.827C35.022 46.9146 34.9974 47.0007 34.9808 47.0817C34.9642 47.1584 34.9562 47.2293 34.9562 47.29C34.9562 47.319 34.9707 47.3414 34.9909 47.3573C35.0278 47.3855 35.0821 47.3985 35.1313 47.3985H35.2058C35.2521 47.3985 35.289 47.4079 35.3179 47.4253C35.3657 47.455 35.3881 47.4969 35.3881 47.5505C35.3881 47.6199 35.3541 47.6655 35.2962 47.693C35.26 47.7103 35.2166 47.7176 35.1689 47.7176C35.0647 47.7176 34.9034 47.7089 34.7732 47.7024C34.6929 47.698 34.6249 47.6944 34.588 47.6944L34.4209 47.7002C34.2451 47.7067 33.9752 47.7176 33.7474 47.7176C33.6859 47.7176 33.6381 47.7111 33.6005 47.6959C33.5318 47.6684 33.4985 47.6221 33.4985 47.5505C33.4985 47.4969 33.5231 47.4564 33.5643 47.4289C33.594 47.4087 33.6323 47.3985 33.6728 47.3985L33.7691 47.3942L33.8747 47.3848C34.0143 47.3667 34.1149 47.2994 34.1952 47.1974ZM36.2461 43.254L35.6644 45.0394H36.874L36.2461 43.254ZM41.6739 44.1988C41.3491 43.8415 41.0713 43.5333 40.8825 43.322L40.9715 46.5955C40.9787 46.8892 40.9997 47.081 41.0409 47.201C41.0728 47.2936 41.1184 47.3378 41.1827 47.358C41.2341 47.3711 41.2891 47.3805 41.3419 47.387C41.4193 47.3956 41.4888 47.3985 41.5264 47.3985C41.5683 47.3985 41.6052 47.4094 41.6342 47.4311C41.6725 47.46 41.6928 47.5005 41.6928 47.5505C41.6928 47.6214 41.6595 47.6684 41.5929 47.6959C41.556 47.7111 41.5097 47.7176 41.4519 47.7176C41.1531 47.7176 40.9086 47.7053 40.7697 47.6988L40.664 47.6944L40.5411 47.6995C40.4007 47.706 40.175 47.7176 39.9478 47.7176C39.8994 47.7176 39.8574 47.714 39.8205 47.6988C39.7569 47.6727 39.7214 47.6279 39.7214 47.5505C39.7214 47.4998 39.7424 47.46 39.78 47.4318C39.8097 47.4094 39.8466 47.3985 39.8885 47.3985C39.9204 47.3985 39.9768 47.3956 40.0368 47.3877C40.0788 47.3812 40.1222 47.3718 40.1598 47.3602L40.1649 47.358C40.2162 47.3436 40.2481 47.2994 40.2705 47.1996C40.3009 47.0643 40.3096 46.848 40.3096 46.516L40.3175 42.2514C40.3168 42.0987 40.3233 41.9974 40.3385 41.9331C40.366 41.8144 40.421 41.7717 40.5063 41.7717C40.5975 41.7717 40.6973 41.8817 40.782 41.975L40.8485 42.0466C40.9158 42.1219 41.2638 42.5009 41.7434 43.0189C42.1275 43.4334 42.6412 43.9854 43.2105 44.5974C43.5997 45.0141 44.0048 45.4598 44.3369 45.8244L44.8028 46.3358L44.7275 42.8344C44.7239 42.6044 44.7102 42.4532 44.6733 42.3577C44.6451 42.2868 44.5966 42.2492 44.5177 42.2289C44.47 42.2181 44.4157 42.2101 44.3644 42.2058C44.2877 42.1978 44.2153 42.1949 44.1806 42.1949C44.1206 42.1949 44.0801 42.1761 44.0518 42.1443C44.0207 42.1096 44.0142 42.0734 44.0142 42.0351C44.0142 41.9555 44.0576 41.9106 44.1329 41.8896C44.1712 41.8788 44.2175 41.8759 44.2703 41.8759C44.4874 41.8759 44.7268 41.886 44.886 41.8933C44.9569 41.8962 45.0089 41.8983 45.0422 41.8983C45.0726 41.8983 45.1175 41.8962 45.1753 41.8925C45.2983 41.886 45.4784 41.8759 45.6767 41.8759C45.7273 41.8759 45.77 41.8788 45.8069 41.8911C45.8778 41.9135 45.9176 41.9577 45.9176 42.0351C45.9176 42.0886 45.8922 42.1342 45.8452 42.1638C45.8148 42.1834 45.775 42.1949 45.7287 42.1949C45.7107 42.1949 45.689 42.1949 45.6687 42.1971C45.6456 42.1993 45.6159 42.2043 45.5761 42.2137L45.5718 42.2145C45.49 42.2326 45.4444 42.2666 45.4206 42.3295C45.388 42.4177 45.3822 42.561 45.3822 42.7722L45.367 47.1338C45.367 47.3833 45.3627 47.5201 45.3518 47.5975C45.3301 47.7494 45.2773 47.7697 45.1927 47.7697C45.1363 47.7697 45.0784 47.7429 44.9757 47.6525C44.8903 47.5772 44.768 47.4579 44.572 47.2618C44.5076 47.2003 44.1039 46.7894 43.625 46.2924C43.3009 45.9553 42.9421 45.5784 42.6296 45.242C42.2946 44.8796 41.9648 44.5193 41.6739 44.1988ZM50.3051 47.0542C50.3413 46.7489 50.3413 46.1629 50.3413 45.4518V44.1417C50.3413 43.5282 50.3413 43.1665 50.3399 42.9921C50.3384 42.7715 50.3341 42.6601 50.3269 42.5407C50.3203 42.4329 50.3066 42.357 50.2726 42.3078C50.2422 42.2644 50.1858 42.2347 50.0917 42.2145L50.0881 42.2137C50.0686 42.2087 50.0346 42.2051 49.9977 42.2014C49.9514 42.1971 49.8979 42.1949 49.861 42.1949C49.8262 42.1949 49.7893 42.1848 49.7604 42.166C49.7206 42.1385 49.6939 42.098 49.6939 42.043C49.6939 41.975 49.7235 41.9294 49.7836 41.9005C49.8197 41.8831 49.8639 41.8759 49.9203 41.8759C50.1641 41.8759 50.4983 41.8889 50.6654 41.8954L50.7616 41.8991L50.9374 41.894C51.14 41.8868 51.467 41.8759 51.7657 41.8759H51.9075C52.6838 41.8723 53.9635 41.865 54.8273 42.7578C55.0407 42.9791 55.2469 43.2736 55.3894 43.6461C55.5059 43.9514 55.5797 44.3088 55.5797 44.7219C55.5797 45.1632 55.4965 45.5589 55.3655 45.9018C55.2085 46.3112 54.9821 46.6469 54.7463 46.895C54.5792 47.0694 54.3216 47.2929 53.9411 47.4716C53.5627 47.6496 53.0636 47.7841 52.4132 47.7841C52.2569 47.7841 52.0754 47.7791 51.8916 47.7697C51.7071 47.761 51.5292 47.7508 51.3715 47.7393L50.9533 47.7089C50.8477 47.7002 50.7775 47.6944 50.7616 47.6944L50.6669 47.6951C50.6162 47.6959 50.5475 47.698 50.4679 47.7017L50.4636 47.7024C50.3804 47.7024 50.2986 47.7067 50.2227 47.7103C50.1489 47.714 50.0802 47.7176 50.0317 47.7176C49.976 47.7176 49.9311 47.7103 49.8957 47.6937C49.8342 47.664 49.8053 47.6185 49.8053 47.5505C49.8053 47.5078 49.8219 47.4636 49.8639 47.4318C49.8913 47.4116 49.9275 47.3985 49.9724 47.3985C49.9991 47.3985 50.0288 47.3956 50.0577 47.392C50.0975 47.387 50.138 47.379 50.1728 47.3718L50.1749 47.3703C50.2089 47.3638 50.2328 47.3371 50.2502 47.298C50.2769 47.2379 50.2914 47.1518 50.3051 47.0542ZM51.1884 42.4409C51.1812 42.6789 51.1812 43.4443 51.1812 44.0223V44.9454C51.1812 45.3563 51.1827 45.7064 51.1848 45.9604C51.1877 46.262 51.1913 46.4812 51.1957 46.555V46.5565C51.1993 46.6469 51.2051 46.7641 51.2167 46.8712C51.2268 46.9623 51.2398 47.0397 51.2572 47.0629L51.2593 47.0658C51.2955 47.1193 51.3744 47.1772 51.54 47.2256C51.7252 47.2792 52.0074 47.3168 52.4356 47.3168C52.7677 47.3168 53.0874 47.256 53.3746 47.1439C53.6633 47.0303 53.9216 46.8654 54.1313 46.6563C54.3071 46.4841 54.4439 46.236 54.5386 45.9517C54.6414 45.645 54.6956 45.2955 54.6956 44.9526C54.6956 44.5663 54.6247 44.2379 54.5205 43.9652C54.3802 43.5962 54.1784 43.3271 54.0105 43.1513C53.6749 42.7983 53.3045 42.5972 52.9117 42.4836C52.5138 42.3693 52.0891 42.344 51.6543 42.344C51.5755 42.344 51.4605 42.3505 51.365 42.3599C51.2919 42.3678 51.2326 42.3772 51.2181 42.3845L51.2145 42.3866C51.2015 42.3917 51.1942 42.396 51.1928 42.3989C51.1899 42.4033 51.1884 42.417 51.1884 42.4373V42.4409ZM57.3759 47.0542C57.4121 46.7489 57.4121 46.1629 57.4121 45.4518V44.1417C57.4121 43.5282 57.4121 43.1665 57.4106 42.9921C57.4085 42.7715 57.4049 42.6601 57.3976 42.5407C57.3911 42.4329 57.3774 42.357 57.3434 42.3078C57.313 42.2644 57.2565 42.2347 57.1625 42.2145L57.1589 42.2137C57.1394 42.2087 57.1054 42.2051 57.0677 42.2014C57.0222 42.1971 56.9686 42.1949 56.931 42.1949C56.897 42.1949 56.8601 42.1848 56.8312 42.166C56.7914 42.1385 56.7646 42.098 56.7646 42.043C56.7646 41.975 56.7936 41.9294 56.8543 41.9005C56.8898 41.8831 56.9346 41.8759 56.9911 41.8759L57.2623 41.8773C57.3571 41.8781 57.4504 41.8802 57.5315 41.8839L57.8317 41.8991L58.6397 41.8983C59.034 41.8976 59.4435 41.8954 59.531 41.8911C59.5954 41.8882 59.6569 41.8824 59.7097 41.8766C59.7625 41.8708 59.8045 41.8636 59.8305 41.8571L59.8529 41.847C59.8848 41.8318 59.9144 41.8166 59.9607 41.8166C60.02 41.8166 60.0577 41.847 60.0801 41.8976C60.0931 41.9251 60.0974 41.9577 60.0974 41.9909C60.0974 42.0235 60.0902 42.056 60.0801 42.1023C60.0671 42.1566 60.0497 42.2347 60.0367 42.3519L60.0273 42.4995C60.02 42.6261 60.0092 42.786 59.9991 42.8496V42.8525C59.9933 42.8793 59.9846 42.9097 59.9708 42.9364C59.9448 42.9864 59.9036 43.0204 59.8414 43.0204C59.7755 43.0204 59.7299 42.9914 59.701 42.9393C59.6822 42.9046 59.6742 42.8641 59.6742 42.8171C59.6742 42.7889 59.6721 42.7375 59.6634 42.6854C59.6583 42.6521 59.6496 42.6181 59.6381 42.5899C59.6207 42.5501 59.599 42.5147 59.5513 42.4872C59.4883 42.4518 59.382 42.4228 59.1968 42.4026C59.1527 42.3975 59.0232 42.3924 58.8712 42.3895C58.6557 42.3852 58.3793 42.3823 58.252 42.3816V44.3696L58.7526 44.3681C59.0101 44.3659 59.2771 44.3623 59.3632 44.3544C59.4478 44.3478 59.5144 44.3413 59.5621 44.3283C59.5983 44.3189 59.625 44.3059 59.6431 44.2864L59.6547 44.2726C59.7184 44.1988 59.7582 44.1532 59.8341 44.1532C59.8797 44.1532 59.9188 44.1706 59.9477 44.2118C59.9672 44.2393 59.9781 44.2748 59.9781 44.3204C59.9781 44.345 59.9723 44.3775 59.9636 44.4267C59.9506 44.494 59.9311 44.5982 59.918 44.7465C59.9122 44.8094 59.905 44.8977 59.8999 44.9816C59.8934 45.0865 59.8891 45.1841 59.8891 45.2138C59.8891 45.2492 59.8891 45.2905 59.8797 45.331C59.8623 45.4062 59.8204 45.4619 59.7299 45.4619C59.6757 45.4619 59.6359 45.4402 59.607 45.4033C59.5816 45.3715 59.5701 45.3303 59.5701 45.2876C59.5701 45.2507 59.5701 45.2138 59.5679 45.1834C59.5643 45.1501 59.5578 45.1147 59.5455 45.0734L59.5447 45.0713C59.5346 45.0358 59.518 44.9953 59.4825 44.9657C59.4406 44.9295 59.3704 44.9005 59.2503 44.8882C59.1736 44.8803 59.0203 44.8723 58.8531 44.8665C58.6303 44.8593 58.3757 44.8535 58.252 44.8528V45.4518L58.2498 45.7795C58.2484 46.1311 58.2462 46.6078 58.2513 46.7192C58.2607 46.9421 58.2867 47.0715 58.3742 47.1352C58.4734 47.2076 58.6665 47.2271 59.008 47.2271C59.1035 47.2271 59.2322 47.2271 59.3567 47.2177C59.4775 47.2083 59.5968 47.1895 59.6808 47.154C59.756 47.1222 59.8117 47.0781 59.8522 47.0122C59.8971 46.9392 59.9282 46.8379 59.9513 46.699L59.952 46.6983C59.9614 46.6447 59.973 46.6071 59.9897 46.5775C60.0215 46.521 60.0642 46.4979 60.1242 46.4979C60.2761 46.4979 60.2761 46.6143 60.2761 46.7171C60.2761 46.754 60.2551 46.9442 60.2313 47.1287C60.2132 47.2647 60.1922 47.3964 60.1763 47.4636L60.1756 47.4665C60.1018 47.74 60.0287 47.74 59.6706 47.74C59.225 47.74 58.8575 47.7291 58.5768 47.7219C58.401 47.7168 58.2267 47.7082 58.0509 47.7002C57.9633 47.6966 57.8924 47.6944 57.8317 47.6944L57.7376 47.6951C57.687 47.6959 57.6183 47.698 57.5387 47.7017L57.5343 47.7024C57.4504 47.7024 57.3687 47.7067 57.2934 47.7103C57.2197 47.714 57.1502 47.7176 57.1025 47.7176C57.046 47.7176 57.0019 47.7103 56.9665 47.6937C56.905 47.664 56.876 47.6185 56.876 47.5505C56.876 47.5078 56.8927 47.4636 56.9346 47.4318C56.9621 47.4116 56.9983 47.3985 57.0431 47.3985C57.0699 47.3985 57.0996 47.3956 57.1285 47.392C57.1683 47.387 57.2088 47.379 57.2435 47.3718L57.2457 47.3703C57.2797 47.3638 57.3036 47.3371 57.3209 47.298C57.3477 47.2379 57.3622 47.1518 57.3759 47.0542ZM67.4858 41.8846C67.5046 41.928 67.5162 41.988 67.5249 42.0691L68.0233 46.6455C68.0378 46.7735 68.0566 46.937 68.1094 47.0759C68.1557 47.1989 68.2295 47.3045 68.3517 47.3443C68.5507 47.4058 68.7323 47.4058 68.8024 47.4058C68.8372 47.4058 68.869 47.4116 68.8972 47.426C68.9435 47.4521 68.9695 47.4911 68.9695 47.5505C68.9695 47.6662 68.856 47.7241 68.7055 47.7241C68.6086 47.7241 68.2635 47.7219 67.9343 47.714C67.7383 47.7089 67.556 47.7024 67.4547 47.6944C67.357 47.6865 67.2955 47.6742 67.255 47.659C67.1726 47.6264 67.1472 47.5772 67.1472 47.5128C67.1472 47.4687 67.161 47.4325 67.1906 47.4029C67.2044 47.3899 67.2203 47.379 67.2384 47.3703H67.2333C67.2384 47.3284 67.2369 47.2676 67.2297 47.2054L66.9049 43.691L65.1781 47.3559C65.0435 47.6394 65.0139 47.7024 64.888 47.7024C64.7729 47.7024 64.7303 47.6214 64.5783 47.3327L64.5624 47.3023C64.3866 46.9717 63.8629 45.9206 63.7233 45.6406L63.69 45.5741C63.6495 45.4916 63.3435 44.8383 63.0837 44.2777L62.8501 43.7706L62.5831 46.8675C62.5759 46.979 62.5759 47.1121 62.5759 47.2379C62.5759 47.2676 62.5875 47.2958 62.6056 47.3175C62.6251 47.3407 62.6519 47.3573 62.683 47.3631L62.6866 47.3638C62.7372 47.3761 62.7828 47.3841 62.8219 47.3891C62.8761 47.3956 62.921 47.3985 62.9449 47.3985C62.9796 47.3985 63.0165 47.4087 63.0447 47.426C63.0852 47.4521 63.112 47.4926 63.112 47.5425C63.112 47.6163 63.0794 47.664 63.0158 47.693C62.9774 47.7111 62.9297 47.7176 62.8703 47.7176C62.688 47.7176 62.4558 47.7067 62.3082 47.6995L62.1787 47.6944C62.1491 47.6944 62.0898 47.6973 62.0152 47.7009C61.872 47.7082 61.6767 47.7176 61.5537 47.7176C61.5023 47.7176 61.456 47.7111 61.4177 47.693C61.3562 47.6648 61.3193 47.6177 61.3193 47.5425C61.3193 47.4868 61.3511 47.4463 61.4003 47.4217C61.4293 47.4065 61.4669 47.3985 61.5009 47.3985C61.5291 47.3985 61.5559 47.3978 61.5848 47.3956C61.6152 47.3935 61.6521 47.3884 61.7035 47.3783H61.7056C61.8641 47.3493 61.8886 47.1157 61.9132 46.8813L62.4515 42.0011C62.4573 41.9446 62.4717 41.8962 62.4942 41.8593C62.5282 41.8036 62.5774 41.7717 62.6403 41.7717C62.6917 41.7717 62.7343 41.7884 62.7748 41.8282C62.8016 41.8556 62.8248 41.894 62.8494 41.9468L65.0269 46.4241L67.119 41.9548C67.1378 41.9128 67.1574 41.8752 67.182 41.8448C67.2203 41.7999 67.2666 41.7717 67.3288 41.7717C67.4033 41.7717 67.4525 41.8079 67.4858 41.8846ZM71.2614 42.54C71.2469 42.7722 71.2469 42.9806 71.2469 44.1417V45.4518C71.2469 45.8215 71.2469 46.1579 71.2512 46.4082C71.2556 46.678 71.265 46.9001 71.2831 47.0542V47.0564C71.2932 47.1504 71.3069 47.2329 71.3388 47.2871C71.3641 47.3305 71.4075 47.3609 71.4806 47.3696C71.5305 47.3768 71.597 47.3848 71.6607 47.3899C71.7186 47.3949 71.7721 47.3985 71.8018 47.3985C71.8473 47.3985 71.8828 47.4116 71.9096 47.4318C71.9522 47.4636 71.9689 47.5078 71.9689 47.5505C71.9689 47.6127 71.9399 47.6611 71.8792 47.6915C71.8444 47.7074 71.7989 47.7176 71.7424 47.7176C71.4357 47.7176 71.0783 47.7038 70.9127 47.6973L70.8266 47.6944L70.7065 47.6988C70.5394 47.7053 70.2493 47.7176 70.0974 47.7176C70.0417 47.7176 69.9968 47.7103 69.9614 47.6937C69.9006 47.664 69.8709 47.6185 69.8709 47.5505C69.8709 47.5078 69.8876 47.4636 69.9295 47.4318C69.957 47.4116 69.9932 47.3985 70.038 47.3985C70.0648 47.3985 70.0945 47.3956 70.1234 47.392C70.1632 47.387 70.2044 47.379 70.2384 47.3718L70.2399 47.3703C70.2746 47.3638 70.2985 47.3371 70.3158 47.298C70.3426 47.2379 70.3578 47.1518 70.3708 47.0542C70.407 46.7489 70.407 46.1629 70.407 45.4518V44.1417C70.407 43.5282 70.407 43.1665 70.4055 42.9921C70.4041 42.7715 70.4005 42.6601 70.3925 42.5407C70.3867 42.4315 70.3687 42.3526 70.3368 42.2998C70.3122 42.2593 70.2746 42.234 70.2232 42.2217L70.2189 42.221C70.1864 42.2116 70.1531 42.2058 70.1227 42.2022C70.0829 42.1971 70.0431 42.1949 70.0156 42.1949C69.9816 42.1949 69.9447 42.1848 69.9158 42.166C69.876 42.1385 69.8485 42.098 69.8485 42.043C69.8485 41.975 69.8774 41.9294 69.9389 41.9005C69.9744 41.8831 70.0192 41.8759 70.0749 41.8759C70.2449 41.8759 70.5452 41.8882 70.713 41.8947L70.8266 41.8983L70.9474 41.8947C71.1145 41.8875 71.4039 41.8759 71.5558 41.8759C71.6122 41.8759 71.6571 41.8831 71.6918 41.8998C71.7533 41.9294 71.783 41.975 71.783 42.043C71.783 42.1443 71.6998 42.1949 71.6158 42.1949C71.5927 42.1949 71.5724 42.1964 71.5507 42.1993L71.4466 42.2152C71.38 42.2282 71.3388 42.2535 71.3134 42.294C71.2823 42.3454 71.2679 42.4272 71.2614 42.54ZM73.9655 47.0542C74.0024 46.7489 74.0024 46.1629 74.0024 45.4518V44.1417C74.0024 43.5282 74.0017 43.1665 74.0003 42.9921C73.9988 42.7715 73.9952 42.6601 73.9872 42.5407C73.9814 42.4329 73.967 42.357 73.933 42.3078C73.9026 42.2644 73.8462 42.2347 73.7521 42.2145L73.7492 42.2137C73.729 42.2087 73.695 42.2051 73.6581 42.2014C73.6118 42.1971 73.559 42.1949 73.5213 42.1949C73.4866 42.1949 73.4504 42.1848 73.4215 42.166C73.381 42.1385 73.3542 42.098 73.3542 42.043C73.3542 41.975 73.3839 41.9294 73.4447 41.9005C73.4801 41.8831 73.5242 41.8759 73.5807 41.8759C73.8252 41.8759 74.1587 41.8889 74.3258 41.8954L74.422 41.8991L74.6694 41.8918C74.8814 41.8853 75.1657 41.8759 75.3002 41.8759C75.5404 41.8759 75.7886 41.8875 76.0295 41.9359C76.2762 41.9851 76.5142 42.0727 76.7247 42.2239C76.8433 42.31 77.0155 42.4807 77.1363 42.7194C77.2217 42.8887 77.2832 43.092 77.2832 43.3228C77.2832 43.6143 77.2217 43.9058 77.0726 44.2053C76.9359 44.4788 76.7254 44.7602 76.4194 45.0532L76.5764 45.2543C77.0893 45.9133 77.5248 46.4726 77.9002 46.8741C78.0927 47.0759 78.2627 47.196 78.4059 47.2683C78.547 47.3385 78.6635 47.3645 78.7481 47.3776C78.8776 47.3978 78.9789 47.3985 79.0216 47.3985C79.0613 47.3985 79.099 47.4108 79.1272 47.4296C79.1699 47.4579 79.1959 47.502 79.1959 47.5505C79.1959 47.6242 79.1634 47.6713 79.083 47.698C79.0433 47.7118 78.9883 47.7176 78.9101 47.7176H78.3813C78.1679 47.7176 78.0117 47.7074 77.8807 47.6836C77.7447 47.659 77.6405 47.6199 77.5342 47.5628C77.2173 47.3928 76.9678 47.0629 76.5894 46.5644L76.4954 46.4393C76.3102 46.1977 76.1192 45.9343 75.9615 45.7158C75.8464 45.5574 75.7488 45.4236 75.6895 45.3455L75.6793 45.3361C75.3965 45.3404 75.0962 45.3259 74.8119 45.3216V45.4518C74.8119 45.8215 74.8119 46.1579 74.8163 46.4082C74.8206 46.678 74.83 46.9001 74.8488 47.0542V47.0564C74.8582 47.1504 74.872 47.2329 74.9038 47.2871C74.9291 47.3305 74.9718 47.3609 75.0463 47.3696C75.0948 47.3768 75.1621 47.3848 75.2257 47.3899C75.2843 47.3949 75.3371 47.3985 75.3668 47.3985C75.4124 47.3985 75.4478 47.4116 75.4746 47.4318C75.5173 47.4636 75.5339 47.5078 75.5339 47.5505C75.5339 47.6127 75.505 47.6611 75.4442 47.6915C75.4095 47.7074 75.3639 47.7176 75.3075 47.7176C75.0008 47.7176 74.6427 47.7038 74.4777 47.6973L74.3931 47.6944L74.3627 47.6959C74.2484 47.7009 73.8758 47.7176 73.6921 47.7176C73.6364 47.7176 73.5922 47.7103 73.5568 47.6937C73.4953 47.664 73.4664 47.6185 73.4664 47.5505C73.4664 47.5078 73.483 47.4636 73.5242 47.4318C73.5525 47.4116 73.5879 47.3985 73.6328 47.3985C73.6595 47.3985 73.6899 47.3956 73.7188 47.392C73.7586 47.387 73.7984 47.379 73.8331 47.3718L73.8353 47.3703C73.87 47.3638 73.8932 47.3371 73.9106 47.298C73.9373 47.2379 73.9518 47.1518 73.9655 47.0542ZM74.9827 42.3403C74.9096 42.3469 74.8496 42.3563 74.8119 42.3642V44.787C74.8553 44.813 74.9552 44.8376 75.0825 44.8571C75.2171 44.8781 75.3791 44.8897 75.5383 44.8897C75.6215 44.8897 75.7112 44.8854 75.798 44.8665C75.8804 44.8492 75.9629 44.8188 76.0352 44.7689C76.1539 44.6871 76.2581 44.5504 76.3311 44.3645C76.402 44.1887 76.4433 43.9681 76.4433 43.7105C76.4433 43.2721 76.3304 42.9249 76.1264 42.689C75.9246 42.4561 75.6301 42.3288 75.2626 42.3288C75.1577 42.3288 75.0615 42.3331 74.9827 42.3403ZM79.8976 47.0542C79.9338 46.7489 79.9338 46.1629 79.9338 45.4518V44.1417C79.9338 43.5282 79.9338 43.1665 79.9324 42.9921C79.9309 42.7715 79.9273 42.6601 79.9193 42.5407C79.9135 42.4329 79.8991 42.357 79.8651 42.3078C79.8347 42.2644 79.7783 42.2347 79.6842 42.2145L79.6806 42.2137C79.6611 42.2087 79.6271 42.2051 79.5894 42.2014C79.5439 42.1971 79.4911 42.1949 79.4527 42.1949C79.4187 42.1949 79.3825 42.1848 79.3536 42.166C79.3131 42.1385 79.2863 42.098 79.2863 42.043C79.2863 41.975 79.3153 41.9294 79.376 41.9005C79.4122 41.8831 79.4563 41.8759 79.5128 41.8759L79.784 41.8773C79.8795 41.8781 79.9721 41.8802 80.0532 41.8839L80.3534 41.8991L81.1615 41.8983C81.5557 41.8976 81.9652 41.8954 82.0527 41.8911C82.1171 41.8882 82.1786 41.8824 82.2314 41.8766C82.2842 41.8708 82.3262 41.8636 82.3529 41.8571L82.3746 41.847C82.4057 41.8318 82.4361 41.8166 82.4824 41.8166C82.5417 41.8166 82.5801 41.847 82.6025 41.8976C82.6148 41.9251 82.6199 41.9577 82.6199 41.9909C82.6199 42.0235 82.6119 42.056 82.6011 42.1023C82.5895 42.1566 82.5714 42.2347 82.5591 42.3519L82.549 42.4995C82.541 42.6261 82.5316 42.786 82.5208 42.8496V42.8525C82.5157 42.8793 82.5063 42.9097 82.4926 42.9364C82.4665 42.9864 82.426 43.0204 82.3631 43.0204C82.2972 43.0204 82.2517 42.9914 82.2227 42.9393C82.2039 42.9046 82.1967 42.8641 82.1967 42.8171C82.1967 42.7889 82.1938 42.7375 82.1858 42.6854C82.18 42.6521 82.1721 42.6181 82.1598 42.5899C82.1424 42.5501 82.1214 42.5147 82.073 42.4872C82.01 42.4518 81.9037 42.4228 81.7192 42.4026C81.6744 42.3975 81.5441 42.3924 81.393 42.3895C81.1781 42.3852 80.901 42.3823 80.7737 42.3816V44.3696L81.2743 44.3681C81.5318 44.3659 81.7988 44.3623 81.8856 44.3544C81.9695 44.3478 82.0361 44.3413 82.0838 44.3283C82.12 44.3189 82.146 44.3059 82.1641 44.2864L82.1764 44.2726C82.2401 44.1988 82.2806 44.1532 82.3558 44.1532C82.4014 44.1532 82.4412 44.1706 82.4701 44.2118C82.4897 44.2393 82.5005 44.2748 82.5005 44.3204C82.5005 44.345 82.494 44.3775 82.4853 44.4267C82.473 44.494 82.4535 44.5982 82.4398 44.7465C82.434 44.8094 82.4274 44.8977 82.4217 44.9816C82.4159 45.0865 82.4108 45.1841 82.4108 45.2138C82.4108 45.2492 82.4108 45.2905 82.4014 45.331C82.384 45.4062 82.3421 45.4619 82.2517 45.4619C82.1981 45.4619 82.1576 45.4402 82.1294 45.4033C82.1034 45.3715 82.0918 45.3303 82.0918 45.2876C82.0918 45.2507 82.0918 45.2138 82.0889 45.1834C82.086 45.1501 82.0802 45.1147 82.0679 45.0734L82.0665 45.0713C82.0563 45.0358 82.0397 44.9953 82.005 44.9657C81.963 44.9295 81.8921 44.9005 81.7713 44.8882C81.6953 44.8803 81.542 44.8723 81.3756 44.8665C81.152 44.8593 80.8974 44.8535 80.7737 44.8528V45.4518L80.7722 45.7795C80.7708 46.1311 80.7679 46.6078 80.7737 46.7192C80.7831 46.9421 80.8077 47.0715 80.896 47.1352C80.9958 47.2076 81.1882 47.2271 81.5297 47.2271C81.6252 47.2271 81.7539 47.2271 81.8784 47.2177C81.9992 47.2083 82.1185 47.1895 82.2025 47.154C82.2784 47.1222 82.3334 47.0781 82.3732 47.0122C82.4188 46.9392 82.4499 46.8379 82.4737 46.699C82.4832 46.6455 82.4947 46.6071 82.5114 46.5775C82.5439 46.521 82.5859 46.4979 82.6459 46.4979C82.7978 46.4979 82.7978 46.6143 82.7978 46.7171C82.7978 46.754 82.7776 46.9442 82.753 47.1287C82.7349 47.2647 82.7147 47.3964 82.6987 47.4636L82.698 47.4665C82.6242 47.74 82.5504 47.74 82.1923 47.74C81.7467 47.74 81.3792 47.7291 81.0992 47.7219C80.9234 47.7168 80.7491 47.7082 80.5733 47.7002C80.4858 47.6966 80.4142 47.6944 80.3534 47.6944L80.2601 47.6951C80.2094 47.6959 80.14 47.698 80.0611 47.7017L80.0561 47.7024C79.9729 47.7024 79.8911 47.7067 79.8152 47.7103C79.7414 47.714 79.6726 47.7176 79.6242 47.7176C79.5685 47.7176 79.5236 47.7103 79.4889 47.6937C79.4274 47.664 79.3977 47.6185 79.3977 47.5505C79.3977 47.5078 79.4151 47.4636 79.4563 47.4318C79.4838 47.4116 79.52 47.3985 79.5648 47.3985C79.5916 47.3985 79.6213 47.3956 79.6509 47.392C79.69 47.387 79.7305 47.379 79.7645 47.3718L79.7674 47.3703C79.8014 47.3638 79.8246 47.3371 79.8426 47.298C79.8694 47.2379 79.8839 47.1518 79.8976 47.0542ZM85.6481 42.54C85.6337 42.7722 85.6337 42.9806 85.6337 44.1417V45.4663C85.6337 46.0139 85.6416 46.4046 85.6648 46.6693C85.6865 46.9153 85.7183 47.047 85.7661 47.0947C85.8116 47.1403 85.8739 47.1736 85.9853 47.196C86.1126 47.2227 86.2999 47.235 86.5835 47.235C86.776 47.235 86.9525 47.2329 87.095 47.2068C87.2245 47.1815 87.3301 47.1367 87.401 47.0506C87.4415 47.0007 87.4777 46.9377 87.5066 46.8704C87.5385 46.7974 87.5616 46.7221 87.571 46.6578C87.5768 46.6143 87.5862 46.5775 87.6057 46.5463C87.6361 46.4957 87.6795 46.4682 87.7446 46.4682C87.8148 46.4682 87.8568 46.4964 87.8814 46.5637C87.8929 46.5955 87.8966 46.6346 87.8966 46.6874C87.8966 46.7381 87.8777 46.9189 87.8503 47.1027C87.8307 47.2322 87.8068 47.3645 87.7808 47.46L87.7801 47.4622C87.7446 47.5765 87.7186 47.6452 87.6166 47.693C87.5377 47.7299 87.4213 47.74 87.2086 47.74C86.8049 47.74 86.47 47.7299 86.1914 47.7226L85.9679 47.7168C85.8095 47.7096 85.6735 47.7038 85.5541 47.7002C85.4405 47.6966 85.3291 47.6944 85.2141 47.6944L85.1642 47.6959C85.1034 47.698 85.0036 47.7024 84.9088 47.7024L84.6867 47.7125C84.6064 47.7154 84.5348 47.7176 84.4841 47.7176C84.4284 47.7176 84.3836 47.7103 84.3481 47.6937C84.2874 47.664 84.2577 47.6185 84.2577 47.5505C84.2577 47.5078 84.2751 47.4636 84.317 47.4318C84.3445 47.4116 84.38 47.3985 84.4248 47.3985C84.4516 47.3985 84.4813 47.3956 84.5109 47.392C84.5507 47.387 84.5912 47.379 84.6252 47.3718L84.6274 47.3703C84.6621 47.3638 84.6853 47.3371 84.7026 47.298C84.7294 47.2379 84.7446 47.1518 84.7576 47.0542C84.7938 46.7489 84.7938 46.1629 84.7938 45.4518V44.1417C84.7938 43.5282 84.7938 43.1665 84.7923 42.9921C84.7909 42.7715 84.7873 42.6601 84.78 42.5407C84.7735 42.4329 84.759 42.357 84.7251 42.3078C84.6947 42.2644 84.639 42.2347 84.5442 42.2145L84.5413 42.2137C84.521 42.2087 84.487 42.2051 84.4501 42.2014C84.4038 42.1971 84.3503 42.1949 84.3134 42.1949C84.2794 42.1949 84.2425 42.1848 84.2129 42.166C84.1731 42.1385 84.147 42.098 84.147 42.043C84.147 41.975 84.176 41.9294 84.2367 41.9005C84.2722 41.8831 84.317 41.8759 84.3735 41.8759C84.6165 41.8759 84.9508 41.8889 85.1179 41.8954L85.2141 41.8991L85.3501 41.8947C85.5396 41.8875 85.8673 41.8759 86.0178 41.8759C86.0742 41.8759 86.1184 41.8831 86.1538 41.8998C86.2146 41.9294 86.2442 41.975 86.2442 42.043C86.2442 42.1443 86.161 42.1949 86.0771 42.1949C86.0489 42.1949 86.0084 42.1971 85.9665 42.2007C85.9288 42.2043 85.8883 42.2087 85.85 42.2152C85.7747 42.2282 85.7284 42.2543 85.7017 42.2962C85.6691 42.3469 85.6547 42.4272 85.6481 42.54Z" fill="white"/>
</g>
<defs>
<clipPath id="clip0_2010_9403">
<rect width="88.9814" height="58.5975" fill="white"/>
</clipPath>
</defs>
</svg>
