<svg width="87" height="87" viewBox="0 0 87 87" fill="none" xmlns="http://www.w3.org/2000/svg">
<path d="M43.79 86.3729C67.6412 86.3729 86.9764 67.0377 86.9764 43.1865C86.9764 19.3352 67.6412 0 43.79 0C19.9387 0 0.603516 19.3352 0.603516 43.1865C0.603516 67.0377 19.9387 86.3729 43.79 86.3729Z" fill="#627EEA"/>
<path d="M45.1362 10.7891V34.7317L65.3718 43.7751L45.1362 10.7891Z" fill="white" fill-opacity="0.602"/>
<path d="M45.1344 10.7891L24.8989 43.7751L45.1344 34.7317V10.7891Z" fill="white"/>
<path d="M45.1362 59.2861V75.5548L65.3835 47.5391L45.1362 59.2861Z" fill="white" fill-opacity="0.602"/>
<path d="M45.1344 75.5548V59.2861L24.8989 47.5391L45.1344 75.5548Z" fill="white"/>
<path d="M45.1362 55.5248L65.3718 43.7778L45.1362 34.7344V55.5248Z" fill="white" fill-opacity="0.2"/>
<path d="M24.8989 43.7739L45.1344 55.5209V34.7305L24.8989 43.7739Z" fill="white" fill-opacity="0.602"/>
</svg>
