<svg width="82" height="86" viewBox="0 0 82 86" fill="none" xmlns="http://www.w3.org/2000/svg">
<g clip-path="url(#clip0_344_2549)">
<path d="M40.6386 0.108398L0.270508 14.315L6.64975 67.2037L40.6813 85.908L74.8887 66.9502L81.2654 14.0634L40.6386 0.108398Z" fill="#B3B3B3"/>
<path d="M77.239 17.1202L40.5444 4.60693V81.4394L71.2961 64.4201L77.2387 17.1202H77.239Z" fill="#A6120D"/>
<path d="M4.80029 17.3455L10.2668 64.6461L40.5436 81.4392V4.60547L4.80061 17.3452L4.80029 17.3455Z" fill="#DD1B16"/>
<path d="M50.645 45.5084L40.5442 50.232H29.8981L24.8937 62.7494L15.5854 62.9214L40.5442 7.39697L50.645 45.5088V45.5084ZM49.6686 43.1304L40.6114 25.1997L33.1818 42.8218H40.5438L49.6686 43.1308V43.1304Z" fill="#F2F2F2"/>
<path d="M40.5439 7.39697L40.6108 25.2L49.0407 42.8359H40.5631L40.5439 50.2208L52.2668 50.232L57.7457 62.9236L66.6523 63.0886L40.5439 7.39697Z" fill="#B3B3B3"/>
</g>
<defs>
<clipPath id="clip0_344_2549">
<rect width="81.528" height="86" fill="white"/>
</clipPath>
</defs>
</svg>
