<svg width="134" height="66" viewBox="0 0 134 66" fill="none" xmlns="http://www.w3.org/2000/svg">
<path d="M23.5179 42.3295C27.5611 42.3295 30.5796 41.5851 32.4895 40.1178C34.3789 38.6654 35.6839 36.1492 36.3679 32.6393C37.0056 29.3586 36.7626 27.0678 35.646 25.8316C34.5042 24.569 32.0357 23.9286 28.3091 23.9286H21.8476L18.2655 42.3295H23.5179ZM2.38397 64.9961C2.08404 64.9961 1.79918 64.8623 1.6085 64.6308C1.41748 64.3996 1.34006 64.0951 1.39737 63.801L10.8907 15.0383C10.9826 14.5669 11.3965 14.2264 11.8777 14.2264H32.3383C38.7687 14.2264 43.5549 15.9694 46.5633 19.4077C49.5878 22.8641 50.5218 27.6955 49.3391 33.7674C48.8579 36.2412 48.0302 38.5386 46.879 40.5955C45.7265 42.6547 44.2034 44.5601 42.3512 46.2596C40.134 48.3312 37.6246 49.8334 34.8993 50.7173C32.2173 51.5895 28.7729 52.0318 24.662 52.0318H16.3771L14.0111 64.1838C13.9193 64.6555 13.5057 64.9961 13.0245 64.9961H2.38397Z" fill="black"/>
<path d="M22.676 24.9325H28.3087C32.8064 24.9325 34.3688 25.9178 34.8996 26.505C35.7803 27.4799 35.9465 29.5354 35.3805 32.4491C34.7445 35.7111 33.5655 38.0239 31.8758 39.3227C30.1459 40.6523 27.3335 41.3261 23.5175 41.3261H19.4846L22.676 24.9325ZM32.3379 13.2229H11.877C10.9145 13.2229 10.0871 13.904 9.90341 14.8472L0.410032 63.6099C0.295419 64.1984 0.450247 64.807 0.831953 65.2697C1.21399 65.7324 1.78303 66 2.38358 66H13.0238C13.9866 66 14.814 65.3188 14.9976 64.3757L17.2054 53.0357H24.6616C28.8781 53.0357 32.4277 52.5767 35.2109 51.6717C38.0732 50.7433 40.7066 49.1692 43.0374 46.9932C44.9651 45.2227 46.5529 43.2354 47.756 41.0858C48.9594 38.9356 49.824 36.5378 50.3257 33.959C51.5707 27.5675 50.5593 22.4494 47.32 18.7478C44.1122 15.0817 39.0712 13.2229 32.3379 13.2229ZM17.0452 43.3334H23.5175C27.8074 43.3334 31.0028 42.5268 33.1023 40.9132C35.2022 39.2993 36.6185 36.6057 37.3544 32.8312C38.0585 29.2072 37.7378 26.6498 36.3923 25.16C35.0451 23.6702 32.351 22.9252 28.3087 22.9252H21.0185L17.0452 43.3334ZM32.3379 15.2302C38.4931 15.2302 42.9835 16.8428 45.8059 20.0683C48.628 23.2938 49.4778 27.7961 48.3518 33.5763C47.8883 35.9574 47.1045 38.1343 46.0009 40.1066C44.896 42.0802 43.4533 43.8848 41.6705 45.5211C39.5458 47.5061 37.1855 48.9206 34.5883 49.763C31.9911 50.6078 28.6831 51.0284 24.6616 51.0284H15.5476L13.0238 63.9926H2.38358L11.877 15.2302H32.3379Z" fill="white"/>
<path d="M73.7354 52.0352C73.4351 52.0352 73.1506 51.9013 72.9599 51.6698C72.7685 51.4386 72.6911 51.1345 72.7484 50.8401L76.9478 29.2645C77.3473 27.2127 77.2488 25.7399 76.6707 25.1176C76.3168 24.7373 75.2538 24.0992 72.1107 24.0992H64.5027L59.2228 51.2228C59.131 51.6946 58.7171 52.0352 58.2359 52.0352H47.6795C47.3792 52.0352 47.0947 51.9013 46.9037 51.6698C46.7126 51.4386 46.6352 51.1342 46.6925 50.8401L56.1859 2.07738C56.2777 1.60598 56.6916 1.2654 57.1729 1.2654H67.7293C68.0295 1.2654 68.3141 1.39922 68.5051 1.63041C68.6961 1.86192 68.7735 2.16604 68.7162 2.46046L66.4253 14.2297H74.6097C80.8447 14.2297 85.0726 15.327 87.5351 17.5847C90.0452 19.8878 90.8284 23.5703 89.8632 28.5312L85.4463 51.2228C85.3544 51.6946 84.9409 52.0352 84.4593 52.0352H73.7354Z" fill="black"/>
<path d="M67.7288 0.258049H57.1725C56.2096 0.258049 55.3822 0.939213 55.1986 1.88234L45.7052 50.645C45.5906 51.2335 45.7454 51.8421 46.1275 52.3048C46.5095 52.7675 47.0785 53.0352 47.6791 53.0352H58.2355C59.1979 53.0352 60.0257 52.354 60.2093 51.4109L65.331 25.0993H72.1103C75.248 25.0993 75.9065 25.7684 75.933 25.7971C76.1234 26.0016 76.3737 26.9484 75.9605 29.0695L71.7611 50.645C71.6464 51.2335 71.8013 51.8421 72.1833 52.3048C72.5654 52.7675 73.1344 53.0352 73.7349 53.0352H84.4589C85.4214 53.0352 86.2491 52.354 86.4328 51.4109L90.8494 28.7192C91.8859 23.3927 90.9992 19.397 88.215 16.8423C85.5581 14.4063 81.1077 13.2223 74.6093 13.2223H67.6441L69.7027 2.64849C69.817 2.06 69.6625 1.4511 69.2805 0.988731C68.8984 0.526031 68.3294 0.258049 67.7288 0.258049ZM67.7288 2.26542L65.205 15.2297H74.6093C80.5266 15.2297 84.608 16.2608 86.8544 18.3204C89.1007 20.3813 89.7736 23.7205 88.8758 28.3365L84.4589 51.0278H73.7349L77.9344 29.4526C78.4123 26.9982 78.2366 25.3241 77.4069 24.4315C76.5768 23.5389 74.811 23.0919 72.1103 23.0919H63.6732L58.2355 51.0278H47.6791L57.1725 2.26542H67.7288Z" fill="white"/>
<path d="M106.566 42.3295C110.609 42.3295 113.628 41.5851 115.538 40.1178C117.427 38.6658 118.732 36.1495 119.416 32.6393C120.054 29.3586 119.811 27.0678 118.694 25.8316C117.552 24.569 115.084 23.9286 111.357 23.9286H104.896L101.314 42.3295H106.566ZM85.4326 64.9961C85.1326 64.9961 84.8478 64.8623 84.6571 64.6308C84.4661 64.3996 84.3883 64.0951 84.4456 63.801L93.939 15.0383C94.0312 14.5669 94.4447 14.2264 94.9263 14.2264H115.387C121.817 14.2264 126.603 15.9694 129.612 19.4077C132.636 22.8637 133.57 27.6951 132.388 33.7674C131.906 36.2412 131.078 38.5386 129.927 40.5955C128.775 42.6547 127.252 44.5601 125.399 46.2596C123.182 48.3312 120.673 49.8334 117.948 50.7173C115.266 51.5895 111.821 52.0318 107.71 52.0318H99.425L97.06 64.1838C96.9679 64.6555 96.5543 64.9961 96.0727 64.9961H85.4326Z" fill="black"/>
<path d="M105.725 24.9325H111.358C115.856 24.9325 117.418 25.9178 117.949 26.505C118.83 27.4799 118.996 29.5354 118.43 32.4488C117.794 35.7111 116.615 38.0239 114.925 39.3227C113.195 40.6523 110.383 41.3261 106.567 41.3261H102.534L105.725 24.9325ZM115.387 13.2229H94.9268C93.9643 13.2229 93.1369 13.904 92.9533 14.8472L83.4599 63.6099C83.3453 64.1984 83.5001 64.807 83.8818 65.2697C84.2639 65.7324 84.8329 66 85.4334 66H96.0736C97.0361 66 97.8638 65.3188 98.0475 64.3757L100.255 53.0357H107.711C111.928 53.0357 115.477 52.5767 118.26 51.6717C121.123 50.7433 123.757 49.1689 126.088 46.9925C128.015 45.2224 129.602 43.2354 130.805 41.0858C132.009 38.9356 132.874 36.5378 133.375 33.959C134.62 27.5672 133.609 22.4491 130.369 18.7475C127.162 15.0817 122.121 13.2229 115.387 13.2229ZM100.095 43.3334H106.567C110.857 43.3334 114.052 42.5268 116.152 40.9132C118.252 39.2993 119.668 36.6057 120.404 32.8312C121.108 29.2072 120.788 26.6498 119.442 25.16C118.095 23.6702 115.401 22.9252 111.358 22.9252H104.068L100.095 43.3334ZM115.387 15.2302C121.543 15.2302 126.033 16.8428 128.855 20.0683C131.678 23.2938 132.527 27.7961 131.401 33.5763C130.938 35.9574 130.154 38.1343 129.05 40.1066C127.946 42.0802 126.503 43.8848 124.72 45.5211C122.595 47.5061 120.235 48.9206 117.638 49.763C115.041 50.6078 111.733 51.0284 107.711 51.0284H98.5971L96.0736 63.9926H85.4334L94.9268 15.2302H115.387Z" fill="white"/>
</svg>
