<svg width="80" height="80" viewBox="0 0 80 80" fill="none" xmlns="http://www.w3.org/2000/svg">
<ellipse cx="40.011" cy="40.8272" rx="39.0355" ry="38.9171" fill="white"/>
<path d="M13.5703 12.042C11.1226 8.05137 8.6829 4.07513 6.24318 0.100483C6.28797 0.0669884 6.33277 0.0334942 6.37596 0C6.73912 0.42426 7.11508 0.838951 7.46544 1.27438C10.0763 4.50418 12.6168 7.79139 15.3061 10.9542C18.0802 14.2159 20.9983 17.358 23.8539 20.5511C25.8121 22.741 27.7751 24.9245 29.7268 27.1192C30.5604 28.057 30.5252 29.0443 29.6629 29.9901C28.6646 31.0842 27.3383 31.416 25.9449 31.5532C24.2699 31.7174 23.2204 32.6409 22.9532 34.3077C22.8492 34.9584 22.7933 35.6187 22.7565 36.2774C22.6717 37.7863 22.1709 39.1627 21.5086 40.5025C21.1342 41.2585 20.7567 42.0257 20.5039 42.8279C19.7408 45.2523 20.5583 47.447 22.7677 49.0642C23.3436 49.4853 23.9563 49.8601 24.5227 50.2956C26.1785 51.5683 26.2744 53.511 24.7322 54.9273C23.166 56.366 21.2174 57.0343 19.2145 57.6069C18.5505 57.7967 18.245 57.6691 17.949 57.0375C17.5827 56.2527 17.0483 55.5478 16.5956 54.8029C15.3397 52.739 14.663 50.5045 15.3397 48.1471C15.6757 46.9748 16.4404 45.8727 17.2019 44.8838C18.7553 42.8694 20.4287 40.9331 21.2318 38.4769C21.5982 37.3588 21.755 36.1674 21.9486 34.9999C22.1805 33.5947 22.5549 32.2932 23.6156 31.2326C24.3195 30.5292 24.3771 29.628 23.8891 28.7428C21.9981 25.3184 20.1504 21.8701 18.1778 18.4952C17.4803 17.3022 16.4708 16.2894 15.4437 15.2781C15.5285 15.4664 15.6005 15.6609 15.7013 15.8412C18.109 20.1859 20.5183 24.5305 22.9276 28.8736C23.4476 29.8099 23.4108 30.1161 22.6797 30.9008C21.5566 32.105 21.123 33.6107 21.0159 35.1785C20.7999 38.3206 19.2577 40.8183 17.3827 43.2012C16.4708 44.3607 15.4629 45.5075 14.839 46.8201C13.5415 49.5507 14.1767 52.2382 15.5429 54.7902C16.1028 55.8365 16.754 56.8349 17.3363 57.8716C17.5011 58.1635 17.5683 58.5096 17.6946 58.8733C20.1648 59.4267 22.6317 59.7218 24.9498 58.2098C25.1114 58.1045 25.353 58.0598 25.5497 58.0758C28.1494 58.2911 30.4484 59.1412 32.2082 61.1748C32.7425 61.7921 33.3168 62.395 33.96 62.891C35.3038 63.9261 37.046 63.9405 38.3338 63.0218C39.6665 62.0696 39.9113 60.0791 38.7306 58.945C38.8362 59.3294 38.9354 59.607 38.9866 59.894C39.2729 61.5018 37.8523 62.8288 36.2637 62.446C34.907 62.1206 34.0127 60.9419 34.0543 59.5368C34.0895 58.3007 34.971 57.3533 36.3709 57.1156C37.9131 56.854 39.2777 57.3884 40.2264 58.5224C41.1095 59.5766 41.7286 60.8574 42.4118 62.068C42.8517 62.8479 43.1381 63.7156 43.5988 64.4812C45.349 67.384 48.2303 68.0331 51.0812 66.1686C52.8218 65.0298 54.7399 64.1287 56.1302 62.5034C56.2438 62.371 56.4389 62.3024 56.6021 62.2179C61.3456 59.7266 63.4573 54.2447 61.5791 49.2413C60.9056 47.447 59.6722 46.0546 58.0947 45.0242C56.4133 43.9269 54.6615 42.93 52.8954 41.9683C51.6283 41.2792 50.4908 40.5248 50.1197 39.0096C50.1053 39.0208 50.1549 38.9633 50.1757 38.9729C53.1241 40.2824 56.1094 41.5185 59.005 42.938C60.7808 43.8088 62.1727 45.1598 62.5806 47.238C62.651 47.5921 62.6798 47.9542 62.7566 48.5204C63.4445 47.6958 63.7629 46.8807 63.9613 46.029C64.8508 42.2346 64.1756 38.8278 61.2816 36.0589C59.549 34.4018 57.3844 33.5181 55.0631 33.0604C52.8042 32.6154 50.5228 32.2884 48.2543 31.8881C47.7615 31.802 47.2768 31.652 46.8017 31.4878C45.0979 30.9024 43.6244 30.0874 43.5924 27.9916C44.0628 28.2787 44.5843 28.6455 45.1475 28.931C47.32 30.0268 49.6717 30.3697 52.065 30.5324C53.4649 30.6281 54.8695 30.6983 56.263 30.8625C58.018 31.0699 59.4034 31.9216 60.3313 33.4543C60.3857 33.5437 60.4561 33.6234 60.5217 33.7032C60.5345 33.7191 60.5681 33.7175 60.8256 33.7909C60.5777 32.8754 60.4657 32.0253 60.1265 31.2772C57.4884 25.4413 53.0137 21.8925 46.6337 21.0041C44.6979 20.7345 42.6789 20.9881 40.7032 21.0902C40.0904 21.1221 39.6825 21.0487 39.2729 20.5575C37.4603 18.3867 35.3358 16.6052 32.5393 15.8699C31.4035 15.5716 30.1892 15.5541 29.0085 15.4329C28.6326 15.3946 28.3094 15.4855 28.3814 15.9975C28.3958 16.1027 28.3142 16.2272 28.2566 16.334C28.1046 16.6195 27.8199 16.8923 27.8023 17.1825C27.6423 19.811 28.391 22.1891 29.8996 24.3391C30.034 24.5289 30.162 24.7235 30.3748 25.0345C29.3445 24.6916 28.4822 24.3662 27.8167 23.6246C24.5483 19.9833 21.2654 16.3532 17.9826 12.723C17.2563 11.9208 16.514 11.1328 15.7781 10.337C27.6839 0.1898 49.2206 -2.46422 65.1851 10.9287C81.708 24.7889 83.9221 49.2477 70.2229 65.6742C56.2758 82.4038 31.8402 84.4836 15.4341 71.0971C6.25758 63.6087 1.37175 53.8204 0.99739 41.9906C0.624633 30.1863 5.04012 20.2528 13.5703 12.042Z" fill="#FF007A"/>
<path d="M62.9301 44.5676C60.388 41.4383 56.7629 40.3984 53.3969 38.8912C51.5427 38.0618 49.7141 37.1479 47.9687 36.1127C46.5976 35.3009 45.641 34.052 45.2522 32.4507C45.3082 32.4172 45.3626 32.3614 45.3898 32.3725C47.9047 33.3726 50.5876 33.5736 53.2209 34.0122C55.3726 34.3694 57.4668 34.8942 59.3114 36.151C62.0614 38.0251 63.3317 40.8705 62.9301 44.5676Z" fill="#FF007A"/>
<path d="M40.5381 22.5454C45.5151 20.2757 56.0499 24.7352 57.8065 29.7466C54.7988 29.4228 51.7736 29.166 48.7707 28.7545C46.315 28.418 44.3072 27.1739 42.7346 25.2568C42.0003 24.3652 41.2804 23.4641 40.5381 22.5454Z" fill="#FF007A"/>
<path d="M58.5817 59.031C58.481 58.2527 58.4394 57.519 58.2858 56.8108C57.7402 54.2956 56.2636 52.2461 54.859 50.163C53.7215 48.4772 52.5072 46.8264 51.9649 44.8247C51.8033 44.2282 51.7649 43.5982 51.6689 42.9841C51.7313 42.9379 51.7937 42.89 51.8561 42.8438C53.296 43.6572 54.7534 44.4403 56.1708 45.292C58.0138 46.3989 59.6776 47.718 60.4055 49.8424C61.5174 53.0914 60.9383 56.0803 58.8569 58.795C58.7993 58.8715 58.7081 58.9242 58.5817 59.031Z" fill="#FF007A"/>
<path d="M33.3498 61.1014C31.6844 59.1141 29.8174 57.8397 27.2065 57.3931C27.7521 57.0007 28.1312 56.7025 28.5344 56.4409C30.9821 54.8555 33.6154 53.8299 36.5815 53.8682C39.8883 53.9097 42.2864 55.4728 43.2703 58.2576C43.5326 58.9992 43.6718 59.7871 43.8142 60.5639C44.019 61.6756 44.1742 62.7968 44.2846 63.958C43.915 63.1334 43.5262 62.3167 43.1775 61.4842C42.4336 59.7042 41.5265 58.0486 39.8195 56.988C38.8996 56.417 37.9077 56.1107 36.807 56.149C34.1833 56.2415 32.7099 58.2177 33.3498 61.1014Z" fill="#FF007A"/>
<path d="M28.3539 16.9463C31.048 16.8968 33.3805 18.79 34.1612 21.6195C34.35 22.3053 34.534 22.9944 34.6892 23.6882C35.0139 25.1428 35.7642 26.3709 36.6873 27.5129C36.8121 27.6676 36.9209 27.8367 37.0585 28.0281C32.8974 28.3997 27.5668 22.6642 28.3539 16.9463Z" fill="#FF007A"/>
<path d="M34.3569 50.8972C35.8752 49.9052 37.3854 49.4012 38.966 49.0965C40.2123 48.8557 41.4745 48.693 42.724 48.4665C43.2423 48.3724 43.7606 48.2384 44.2566 48.0614C47.605 46.8779 49.0448 44.0389 48.1713 40.3721C48.1361 40.2221 48.0961 40.0738 48.0433 39.8633C49.3968 41.1105 49.8207 43.873 48.9712 45.7949C47.8498 48.3341 45.7044 49.465 43.1047 49.819C41.2713 50.0679 39.4075 50.0886 37.5662 50.2864C36.5535 50.3948 35.5568 50.6628 34.3569 50.8972Z" fill="#FF007A"/>
<path d="M32.2693 37.2698C30.8246 37.2762 30.1863 36.5058 30.4615 35.0895C30.7158 33.7785 31.6917 32.839 32.898 32.7433C34.1842 32.6412 35.3713 33.4212 35.7984 34.6222C36.0432 35.3112 35.9168 35.9652 35.3025 36.2841C34.365 36.7706 33.3379 37.0864 32.3492 37.4756C32.322 37.407 32.2949 37.3384 32.2693 37.2698ZM32.9668 35.3016C33.4371 35.2283 34.093 35.2538 34.2034 34.4866C34.269 34.0289 33.6611 33.5057 33.1284 33.5472C32.5284 33.5934 32.1589 33.9411 32.1045 34.5504C32.0581 35.0863 32.3508 35.3192 32.9668 35.3016Z" fill="#FF007A"/>
</svg>
