<svg width="111" height="110" viewBox="0 0 111 110" fill="none" xmlns="http://www.w3.org/2000/svg">
<path d="M110.083 51.5961C110.083 53.5971 110.083 55.6003 110.083 57.6013C109.968 57.6687 109.979 57.7812 109.973 57.8913C109.955 58.2713 109.946 58.6535 109.91 59.0334C109.757 60.6904 109.555 62.3384 109.274 63.9797C108.46 68.7438 107.014 73.3101 104.973 77.683C103.702 80.4057 102.216 83.0115 100.501 85.4846C98.41 88.5041 96.0696 91.3122 93.4099 93.8505C92.5758 94.6487 91.7305 95.4311 90.8537 96.182C89.3473 97.4725 87.7713 98.6754 86.1278 99.786C83.8504 101.326 81.4762 102.7 78.9897 103.885C77.0494 104.809 75.0642 105.62 73.0295 106.313C70.5385 107.16 67.9935 107.819 65.4035 108.291C64.0613 108.536 62.7123 108.732 61.3567 108.871C60.4798 108.961 59.6053 109.053 58.724 109.08C58.6295 109.083 58.5418 109.096 58.4879 109.188C56.4869 109.188 54.4838 109.188 52.4828 109.188C52.4289 109.096 52.3412 109.08 52.2467 109.08C51.9747 109.085 51.7027 109.049 51.4306 109.033C49.7872 108.932 48.1549 108.73 46.534 108.458C43.5325 107.956 40.5896 107.221 37.7096 106.225C34.9442 105.267 32.2756 104.096 29.6968 102.716C27.6981 101.645 25.7736 100.456 23.9278 99.143C21.1647 97.178 18.595 94.9927 16.2523 92.5398C15.4677 91.7191 14.6988 90.885 13.9568 90.0239C12.5944 88.4456 11.3399 86.7841 10.1753 85.0574C8.78588 82.9958 7.55159 80.8464 6.4522 78.6138C5.39103 76.4555 4.47824 74.2364 3.70934 71.9611C2.96742 69.7601 2.37613 67.5185 1.93322 65.2387C1.62521 63.6582 1.37566 62.0709 1.21378 60.4679C1.1261 59.591 1.02493 58.7164 1.00245 57.8351C1.0002 57.7407 0.986709 57.653 0.894531 57.599C0.894531 55.5981 0.894531 53.5948 0.894531 51.5938C0.986709 51.5399 1.00245 51.4522 1.00245 51.3578C1.0047 50.8474 1.06989 50.3438 1.10587 49.8357C1.20254 48.5204 1.37116 47.2142 1.58025 45.9124C2.0951 42.7266 2.87074 39.6059 3.94315 36.5595C4.73229 34.318 5.66306 32.1371 6.73098 30.0147C7.8686 27.7507 9.17033 25.5878 10.607 23.5037C12.3966 20.9069 14.4267 18.5102 16.6165 16.2462C17.2618 15.5807 17.952 14.9624 18.631 14.3306C19.8023 13.2402 21.0321 12.2172 22.3023 11.2437C24.7327 9.38213 27.2979 7.72738 30.0071 6.29972C32.6038 4.93276 35.2882 3.76814 38.0693 2.83285C40.2793 2.09091 42.5276 1.49062 44.8163 1.04546C46.4058 0.735192 48.0021 0.483383 49.6141 0.319258C50.4909 0.231574 51.3654 0.130401 52.2467 0.107918C52.3412 0.10567 52.4289 0.09218 52.4828 0C54.4838 0 56.4869 0 58.4879 0C58.5486 0.103422 58.6475 0.10567 58.7509 0.107918C59.7244 0.130401 60.6912 0.231574 61.6557 0.341741C63.7173 0.577812 65.7587 0.928545 67.7821 1.38945C71.9257 2.33598 75.8983 3.76139 79.7023 5.64546C82.0855 6.82582 84.3652 8.18154 86.5528 9.69689C89.1742 11.5135 91.6136 13.5505 93.8865 15.783C94.9747 16.851 96.0021 17.9841 96.9959 19.142C98.3583 20.7315 99.6218 22.3953 100.795 24.1287C102.455 26.5838 103.884 29.1649 105.128 31.8538C105.969 33.6727 106.699 35.5343 107.329 37.4341C108.028 39.543 108.595 41.6879 109.022 43.8687C109.334 45.4762 109.595 47.0905 109.759 48.7205C109.847 49.5974 109.946 50.4719 109.971 51.3533C109.977 51.4567 109.991 51.5444 110.083 51.5961ZM75.1699 77.1097C75.2778 77.058 75.334 77.031 75.3902 77.0018C76.9168 76.1767 78.4388 75.3403 79.9744 74.5309C80.777 74.1083 81.1412 73.472 81.1412 72.5704C81.1345 61.8078 81.1367 51.043 81.139 40.2804C81.139 38.3671 80.3229 36.9372 78.6592 35.9772C74.6865 33.6794 70.7206 31.3682 66.7524 29.0614C62.8068 26.7704 58.8633 24.4749 54.9154 22.1862C53.2023 21.1924 51.343 22.2626 51.343 24.2389C51.343 28.5331 51.3452 32.8273 51.3362 37.1216C51.3362 37.3531 51.4127 37.4701 51.606 37.587C58.679 41.8228 65.7497 46.063 72.8205 50.3056C73.1487 50.5034 73.4635 50.7193 73.7377 50.989C74.7315 51.9558 75.1744 53.1407 75.1721 54.5211C75.1654 61.918 75.1676 69.3149 75.1699 76.7118C75.1699 76.8264 75.1699 76.9434 75.1699 77.1097ZM70.5947 67.6219C70.5947 64.0292 70.5969 60.4341 70.5925 56.8414C70.5925 56.5333 70.5812 56.2208 70.5295 55.9173C70.2732 54.3907 69.4256 53.2958 68.0924 52.5201C62.4268 49.2286 56.7702 45.9214 51.1114 42.6187C48.8496 41.2989 46.5879 39.9837 44.3307 38.6617C43.7956 38.3491 43.229 38.2345 42.6265 38.3626C41.5271 38.5942 40.8077 39.5093 40.8054 40.6671C40.8032 45.1974 40.8077 49.7278 40.7964 54.2581C40.7964 54.5683 40.9043 54.7212 41.1539 54.8696C48.029 58.975 54.8997 63.0871 61.7726 67.1948C63.3778 68.1548 64.1782 69.5555 64.176 71.4305C64.1692 75.3875 64.1737 79.3445 64.1737 83.3015C64.1737 83.3735 64.176 83.4477 64.1737 83.5196C64.167 83.6613 64.2367 83.6725 64.3423 83.6208C64.4165 83.5848 64.4885 83.5443 64.5582 83.5061C66.1814 82.5933 67.7979 81.6648 69.4324 80.7722C70.2395 80.3315 70.6037 79.6998 70.6014 78.7847C70.5857 75.0638 70.5947 71.3429 70.5947 67.6219ZM59.5963 79.0185C59.5963 77.2266 59.603 75.4348 59.594 73.6429C59.585 71.8352 58.7846 70.466 57.2266 69.5577C49.2768 64.9172 41.3225 60.2812 33.3705 55.643C31.6955 54.6673 29.816 55.7172 29.807 57.6552C29.7935 61.1491 29.7935 64.6407 29.807 68.1345C29.816 70.2524 30.7535 71.8712 32.5543 72.9751C38.1098 76.3813 43.6719 79.7785 49.2296 83.1801C51.2598 84.4234 53.2922 85.6645 55.3224 86.9123C55.9451 87.2945 56.6106 87.4586 57.33 87.326C58.6925 87.0764 59.5873 85.9882 59.5918 84.5583C59.603 82.7125 59.5963 80.8666 59.5963 79.0185Z" fill="#070A0E"/>
<path d="M75.1687 77.1087C75.1687 76.9424 75.1687 76.8254 75.1687 76.7108C75.1687 69.3139 75.1642 61.917 75.1709 54.5201C75.1732 53.1397 74.7303 51.9548 73.7365 50.9881C73.46 50.7205 73.1475 50.5024 72.8193 50.3046C65.7485 46.0643 58.6778 41.8218 51.6048 37.586C51.4092 37.4691 51.3328 37.3522 51.335 37.1206C51.3418 32.8263 51.3395 28.5321 51.3418 24.2379C51.3418 22.2639 53.1988 21.1914 54.9142 22.1852C58.8621 24.4739 62.8056 26.7672 66.7512 29.0604C70.7194 31.3672 74.6853 33.6784 78.658 35.9762C80.3217 36.9385 81.1378 38.3661 81.1378 40.2794C81.1355 51.042 81.1355 61.8068 81.14 72.5694C81.14 73.471 80.7758 74.1073 79.9732 74.5299C78.4376 75.3393 76.9156 76.1757 75.389 77.0008C75.335 77.03 75.2766 77.057 75.1687 77.1087Z" fill="#00D294"/>
<path d="M70.5944 67.6195C70.5944 71.3404 70.5854 75.0613 70.6012 78.7822C70.6057 79.6951 70.2392 80.3291 69.4321 80.7697C67.7976 81.6623 66.1811 82.5909 64.5579 83.5037C64.4859 83.5441 64.414 83.5824 64.342 83.6183C64.2364 83.67 64.1667 83.6588 64.1734 83.5172C64.1779 83.4452 64.1734 83.371 64.1734 83.2991C64.1734 79.3421 64.1689 75.3851 64.1757 71.4281C64.1779 69.553 63.3775 68.1523 61.7723 67.1923C54.8994 63.0847 48.0288 58.9725 41.1536 54.8672C40.9041 54.7188 40.7961 54.5659 40.7961 54.2556C40.8096 49.7253 40.8029 45.195 40.8051 40.6647C40.8051 39.5068 41.5246 38.5918 42.6262 38.3602C43.2287 38.232 43.7953 38.3467 44.3304 38.6592C46.5899 39.9812 48.8516 41.2987 51.1111 42.6162C56.7699 45.9189 62.4265 49.2262 68.0921 52.5177C69.4253 53.2911 70.2707 54.3883 70.5292 55.9149C70.5809 56.2184 70.5899 56.5309 70.5922 56.8389C70.5967 60.4317 70.5944 64.0267 70.5944 67.6195Z" fill="#00D294"/>
<path d="M59.5971 79.0163C59.5971 80.8621 59.6038 82.7102 59.5948 84.5561C59.5881 85.9837 58.6955 87.0742 57.3331 87.3237C56.6136 87.4541 55.9482 87.2922 55.3254 86.91C53.2975 85.6622 51.2651 84.4212 49.2327 83.1779C43.6727 79.7762 38.1128 76.379 32.5574 72.9729C30.7566 71.8689 29.819 70.2502 29.81 68.1323C29.7943 64.6384 29.7966 61.1468 29.81 57.653C29.8168 55.715 31.6986 54.6628 33.3735 55.6408C41.3256 60.279 49.2799 64.9127 57.2297 69.5555C58.7877 70.4638 59.5881 71.833 59.5971 73.6406C59.6061 75.4325 59.5971 77.2244 59.5971 79.0163Z" fill="#00D294"/>
</svg>
