<svg width="97" height="96" viewBox="0 0 97 96" fill="none" xmlns="http://www.w3.org/2000/svg">
<path d="M22.3978 70.23V57.0391C22.4624 53.4827 25.036 46.2923 34.8128 45.9819C44.5896 45.6715 56.2158 45.8526 60.8068 45.9819C63.3061 46.1604 67.9542 43.8352 70.4079 38.2225V10.0947C68.8887 7.24957 63.6002 1.48175 54.5993 1.17137C45.5984 0.860999 38.6925 1.04205 36.3647 1.17137C32.9376 2.27062 25.9671 5.59423 25.5015 10.0947C25.036 14.5951 25.3075 19.9879 25.5015 22.1218H48.0038V24.8375H15.2203C10.694 25.3548 1.56378 29.4544 1.25341 41.7142C0.94303 53.9741 1.12408 55.6165 1.25341 54.9052C1.70603 59.3669 4.58994 68.6782 12.5045 70.23H22.3978Z" fill="#3970A2" stroke="#F9F9F9" stroke-width="0.834541"/>
<path d="M74.2875 25.6176V38.8086C74.2229 42.365 71.6493 49.5554 61.8725 49.8658C52.0957 50.1761 40.4695 49.9951 35.8785 49.8658C33.3792 49.6872 28.7311 52.0124 26.2774 57.6251V85.753C27.7966 88.5981 33.0851 94.3659 42.086 94.6763C51.0869 94.9867 57.9928 94.8056 60.3206 94.6763C63.7477 93.577 70.7182 90.2534 71.1838 85.753C71.6493 81.2525 71.3778 75.8597 71.1838 73.7259H48.6815V71.0101H81.465C85.9913 70.4928 95.1215 66.3933 95.4319 54.1334C95.7423 41.8736 95.5612 40.2312 95.4319 40.9424C94.9793 36.4808 92.0954 27.1695 84.1808 25.6176H74.2875Z" fill="#F3BA2F" stroke="#F9F9F9" stroke-width="0.834541"/>
<circle cx="35.3952" cy="12.2273" r="4.46165" fill="white" stroke="#3970A2" stroke-width="1.66908"/>
<circle cx="60.6138" cy="82.8406" r="4.46165" fill="white" stroke="#F3BA2F" stroke-width="1.66908"/>
</svg>
