<svg width="79" height="79" viewBox="0 0 79 79" fill="none" xmlns="http://www.w3.org/2000/svg">
<path d="M39.372 78.2245C60.9731 78.2245 78.4843 60.7134 78.4843 39.1123C78.4843 17.5112 60.9731 0 39.372 0C17.7709 0 0.259766 17.5112 0.259766 39.1123C0.259766 60.7134 17.7709 78.2245 39.372 78.2245Z" fill="#F3BA2F"/>
<path d="M54.2122 29.7028C53.9629 30.0023 53.7653 30.2798 53.5285 30.5182C52.2223 31.8354 50.8674 33.1087 49.6082 34.4715C48.959 35.174 48.5717 35.0673 47.9554 34.4354C45.4041 31.8213 42.7743 29.2809 40.2339 26.6543C39.5016 25.8969 39.0767 25.875 38.3302 26.6481C35.8353 29.237 33.2354 31.7241 30.7358 34.3084C30.0207 35.0485 29.5879 35.2006 28.8321 34.3507C27.6403 33.0084 26.3419 31.7555 25.0262 30.5323C24.3472 29.9004 24.4037 29.4942 25.0403 28.8638C29.5315 24.415 33.9928 19.9349 38.4541 15.4579C38.9481 14.9624 39.3087 14.6409 39.9862 15.3262C44.5086 19.9067 49.075 24.4448 53.6242 29.0002C53.8249 29.201 53.9911 29.4362 54.2122 29.7028Z" fill="#FEFDFB"/>
<path d="M54.2165 48.5634C53.9343 48.8958 53.6975 49.2173 53.4184 49.498C48.9947 53.9327 44.5506 58.3469 40.1551 62.8098C39.4291 63.5468 39.0214 63.4167 38.3675 62.7534C33.9626 58.2999 29.5311 53.8731 25.0854 49.4603C24.5021 48.8817 24.2449 48.4756 24.9835 47.7919C26.387 46.4934 27.745 45.1386 29.0481 43.7398C29.6816 43.0592 30.0407 43.2929 30.5692 43.8292C33.0499 46.3507 35.6264 48.7829 38.0366 51.3703C39.0669 52.4759 39.6235 52.3238 40.5754 51.3154C42.9637 48.7861 45.5009 46.3978 47.9158 43.8935C48.6168 43.1674 49.0307 43.1847 49.6956 43.906C50.9125 45.228 52.2266 46.4589 53.4936 47.7354C53.7336 47.9785 53.9453 48.2513 54.2165 48.5634Z" fill="#FEFDFB"/>
<path d="M44.6824 38.9922C44.6996 39.4846 44.375 39.6775 44.143 39.9127C42.8022 41.2722 41.4176 42.5895 40.1097 43.9804C39.4825 44.6484 39.056 44.6186 38.4428 43.9678C37.1319 42.5801 35.7786 41.2299 34.3939 39.9158C33.7839 39.3372 33.8121 38.942 34.4049 38.3759C35.8287 37.0179 37.2181 35.6254 38.5808 34.2063C39.1093 33.6558 39.4746 33.6825 39.9906 34.2172C41.3548 35.6332 42.7661 37.0054 44.1555 38.3994C44.3578 38.6033 44.5366 38.8275 44.6824 38.9922Z" fill="#FEFDFB"/>
<path d="M20.3606 44.5819C20.0752 44.3451 19.7992 44.1507 19.5624 43.917C18.2076 42.5747 16.8888 41.1948 15.5025 39.887C14.8659 39.2864 14.9929 38.8959 15.5543 38.358C16.8903 37.08 18.2044 35.7769 19.4777 34.4361C20.0642 33.8183 20.4782 33.6678 21.1368 34.3797C22.4321 35.7769 23.8058 37.1051 25.1748 38.4317C25.6593 38.9022 25.8522 39.2346 25.2485 39.8038C23.8183 41.1509 22.4588 42.5716 21.0678 43.9578C20.8671 44.157 20.6429 44.3326 20.3606 44.5819Z" fill="#FEFDFB"/>
<path d="M63.648 39.1398C63.4505 39.386 63.2905 39.6244 63.0914 39.8251C61.7083 41.2207 60.2985 42.5913 58.9358 44.0057C58.4183 44.542 58.0561 44.5562 57.5308 44.0073C56.1712 42.5882 54.7803 41.1988 53.3611 39.8408C52.8295 39.3327 52.784 39.0018 53.3439 38.4702C54.7677 37.117 56.1524 35.7213 57.5151 34.3053C58.02 33.7815 58.3791 33.7063 58.9186 34.2708C60.2766 35.69 61.6894 37.0574 63.0757 38.4514C63.2764 38.6506 63.441 38.8874 63.648 39.1398Z" fill="#FEFDFB"/>
</svg>
