<svg width="87" height="87" viewBox="0 0 87 87" fill="none" xmlns="http://www.w3.org/2000/svg">
<path d="M43.1865 86.3729C67.0377 86.3729 86.3729 67.0377 86.3729 43.1865C86.3729 19.3352 67.0377 0 43.1865 0C19.3352 0 0 19.3352 0 43.1865C0 67.0377 19.3352 86.3729 43.1865 86.3729Z" fill="black"/>
<path fill-rule="evenodd" clip-rule="evenodd" d="M72.025 23.36C71.8714 22.8375 71.5748 22.6133 71.0329 22.6133C66.0724 22.6133 61.112 22.6135 56.1515 22.6137C46.2303 22.6141 36.3088 22.6145 26.3865 22.6133C25.8181 22.6133 25.3397 22.811 24.939 23.2117C22.0244 26.1298 19.1099 29.0478 16.1919 31.9623C16.0295 32.1248 15.9394 32.3154 15.867 32.5219V32.7744C15.8703 32.7804 15.8742 32.7865 15.878 32.7926L15.878 32.7926L15.878 32.7926C15.8865 32.8061 15.8952 32.8198 15.8988 32.8344C16.0259 33.3146 16.3419 33.5546 16.8486 33.5546C21.734 33.5546 26.6195 33.5551 31.505 33.5555C36.3905 33.556 41.276 33.5564 46.1615 33.5564L49.2393 33.5563C53.3398 33.556 57.4403 33.5557 61.5408 33.5599C62.1128 33.5599 62.5841 33.3622 62.9848 32.9597C65.8729 30.0682 68.7627 27.1766 71.656 24.2903C71.8361 24.1103 71.972 23.9143 72.0479 23.6742V23.3935L72.0433 23.3881C72.0357 23.3793 72.0279 23.3703 72.025 23.36ZM71.4924 48.1721L70.6473 47.3275C68.1043 44.7863 65.5607 42.2444 63.0242 39.6969C62.5829 39.2538 62.0763 39.0508 61.4549 39.0508C51.5704 39.0543 41.6851 39.0547 31.8001 39.0551H31.8C26.8575 39.0553 21.915 39.0555 16.9727 39.0561C16.323 39.0561 16.0847 39.2255 15.88 39.8363C15.8776 39.8423 15.8736 39.8467 15.8691 39.8516L15.869 39.8516L15.869 39.8516C15.8669 39.854 15.8646 39.8564 15.8623 39.8593V40.0835C15.93 40.4014 16.1464 40.6141 16.3627 40.8267L16.363 40.827C16.3892 40.8527 16.4154 40.8784 16.4413 40.9044C19.2658 43.7271 22.0903 46.5498 24.9095 49.3778C25.3261 49.7962 25.8098 49.9957 26.4029 49.9957C41.2515 49.9922 56.1018 49.9939 70.9503 49.9957H70.9646C70.9867 49.9957 71.0091 49.996 71.0316 49.9962C71.1219 49.9974 71.2138 49.9985 71.3 49.9816C71.6689 49.9057 71.8984 49.6726 72.0061 49.316C72.0136 49.2912 72.0228 49.2672 72.0319 49.2435L72.0432 49.2137V48.9612C71.9774 48.6517 71.7674 48.4441 71.5561 48.2353L71.5557 48.2349C71.5345 48.214 71.5134 48.1931 71.4924 48.1721ZM57.0783 55.7041C61.7453 55.7036 66.4124 55.7032 71.079 55.7032C71.5715 55.7032 71.891 55.9503 72.0163 56.4234C72.02 56.438 72.0287 56.4518 72.0372 56.4652C72.041 56.4713 72.0448 56.4774 72.0481 56.4834V56.7359C71.974 56.9936 71.8239 57.1966 71.635 57.3855C68.7593 60.2559 65.8854 63.1263 63.0168 66.0055C62.5825 66.4415 62.0812 66.6445 61.4722 66.6445C46.7707 66.641 32.0692 66.641 17.3677 66.641H17.3201C17.2701 66.641 17.2201 66.6408 17.17 66.6406C17.07 66.6402 16.97 66.6398 16.8699 66.641C16.2856 66.6445 15.9537 66.2756 15.8973 65.8713C15.895 65.8576 15.8867 65.8445 15.8783 65.8313C15.8737 65.8241 15.8692 65.817 15.8655 65.8096V65.6419C15.9326 65.3718 16.0826 65.1599 16.2803 64.9622C19.1719 62.0759 22.0599 59.1844 24.9462 56.291C25.3363 55.8991 25.7971 55.7049 26.3532 55.7049C30.0697 55.7061 33.7863 55.7057 37.5028 55.7053C39.3611 55.7051 41.2194 55.7049 43.0777 55.7049C47.7443 55.7049 52.4113 55.7045 57.0783 55.7041Z" fill="url(#paint0_linear_344_2478)"/>
<defs>
<linearGradient id="paint0_linear_344_2478" x1="64.7856" y1="22.5992" x2="21.7146" y2="66.7315" gradientUnits="userSpaceOnUse">
<stop stop-color="#0BF3A8"/>
<stop offset="1" stop-color="#D724FD"/>
</linearGradient>
</defs>
</svg>
