<svg width="89" height="89" viewBox="0 0 89 89" fill="none" xmlns="http://www.w3.org/2000/svg">
<path d="M88.887 24.375C88.8818 23.4899 88.872 22.6053 88.8476 21.7192C88.796 19.7917 88.6821 17.8468 88.3395 15.9399C87.9919 14.0034 87.4236 12.2028 86.528 10.4437C85.6489 8.7161 84.4997 7.13522 83.1287 5.76431C81.7581 4.39339 80.1773 3.24429 78.4489 2.36473C76.6913 1.47019 74.8904 0.90209 72.9556 0.554471C71.0477 0.210853 69.1028 0.0976474 67.1739 0.0454898C66.2882 0.0214854 65.4035 0.0114095 64.5181 0.005927C63.4672 0 62.4156 0 61.3651 0H38.0696H28.4188C27.3672 0 26.3168 0 25.2662 0.00607518C24.3806 0.0115577 23.4948 0.0216336 22.6105 0.0456379C22.1283 0.0586773 21.6451 0.0755693 21.1616 0.0988328C19.7113 0.168771 18.2587 0.296943 16.8285 0.554619C15.3775 0.815408 14.0015 1.20007 12.6629 1.7535C12.2167 1.93783 11.7746 2.14113 11.3351 2.36473C10.0389 3.0244 8.82531 3.83566 7.72155 4.77835C7.35363 5.09263 6.99787 5.42143 6.65529 5.76416C5.28407 7.13508 4.13483 8.71596 3.2557 10.4435C2.36013 12.2027 1.79262 14.0033 1.44471 15.9398C1.10242 17.8467 0.988625 19.7916 0.936764 21.7191C0.912463 22.6052 0.902239 23.4898 0.89646 24.3748C0.889792 25.426 0.890681 26.4773 0.890681 27.5281V41.8743V60.474C0.890681 61.5259 0.889644 62.5761 0.89646 63.628C0.902239 64.5131 0.912463 65.3977 0.936764 66.2823C0.988625 68.2108 1.10228 70.1562 1.44471 72.0621C1.79262 73.9981 2.36013 75.8003 3.2557 77.559C4.13483 79.287 5.28407 80.8675 6.65529 82.2378C8.02546 83.6093 9.60678 84.7582 11.3352 85.6384C13.093 86.5331 14.8938 87.1004 16.829 87.4481C18.7357 87.7912 20.6821 87.9053 22.6106 87.9569C23.4949 87.9805 24.3807 87.991 25.2664 87.996C26.3169 88.0036 27.3673 88.0025 28.4189 88.0025H61.3651C62.4156 88.0025 63.4673 88.0036 64.518 87.996C65.4033 87.991 66.2881 87.9805 67.1737 87.9569C69.1026 87.9053 71.0476 87.7911 72.9555 87.4481C74.8902 87.1004 76.6911 86.5329 78.4488 85.6384C80.1771 84.7584 81.758 83.6093 83.1286 82.2378C84.4995 80.8673 85.6489 79.287 86.5279 77.559C87.4235 75.8003 87.9917 73.9982 88.3393 72.0621C88.6819 70.1562 88.7959 68.2108 88.8474 66.2823C88.8717 65.3977 88.8815 64.5132 88.8868 63.628C88.8937 62.5761 88.8931 61.5259 88.8931 60.474V27.5281C88.8932 26.4773 88.8936 25.426 88.887 24.375Z" fill="#F05138"/>
<path d="M70.622 54.3266C70.62 54.324 70.618 54.322 70.6158 54.3195C70.7132 53.9882 70.8136 53.6589 70.8988 53.3193C74.5513 38.7672 65.637 21.5626 50.552 12.5039C57.1625 21.4654 60.0854 32.3198 57.4885 41.8122C57.2569 42.6589 56.9785 43.4715 56.6707 44.2612C56.3368 44.0418 55.9159 43.7927 55.3508 43.4811C55.3508 43.4811 40.3453 34.2162 24.0817 17.8287C23.655 17.3986 32.7541 30.8341 43.0806 41.744C38.2154 39.0136 24.6568 29.1486 16.0733 21.2925C17.1278 23.0512 18.3822 24.7447 19.7609 26.375C26.9289 35.4654 36.2768 46.6815 47.476 55.2942C39.6073 60.1096 28.4887 60.484 17.4184 55.2992C14.6803 54.0161 12.1062 52.4678 9.72339 50.7086C14.4094 58.2041 21.6266 64.671 30.4106 68.4464C40.8858 72.9481 51.3027 72.6428 59.0611 68.5202L59.055 68.5291C59.0905 68.5067 59.1355 68.4822 59.1722 68.4596C59.4908 68.2883 59.807 68.1139 60.1163 67.9297C63.8439 65.9948 71.2067 64.0318 75.1587 71.7212C76.1266 73.603 78.1833 63.6302 70.622 54.3266Z" fill="white"/>
</svg>
