<svg width="87" height="87" viewBox="0 0 87 87" fill="none" xmlns="http://www.w3.org/2000/svg">
<path d="M43.3866 86.3729C67.2379 86.3729 86.5731 67.0377 86.5731 43.1865C86.5731 19.3352 67.2379 0 43.3866 0C19.5354 0 0.200195 19.3352 0.200195 43.1865C0.200195 67.0377 19.5354 86.3729 43.3866 86.3729Z" fill="#F3BA2F"/>
<path d="M59.7738 32.7959C59.4985 33.1266 59.2804 33.4331 59.0189 33.6963C57.5766 35.1507 56.0806 36.5567 54.6902 38.0613C53.9734 38.837 53.5457 38.7193 52.8652 38.0215C50.0481 35.1351 47.1445 32.3301 44.3395 29.4299C43.5309 28.5936 43.0616 28.5694 42.2375 29.423C39.4827 32.2817 36.6119 35.0278 33.8519 37.8813C33.0624 38.6985 32.5845 38.8665 31.7499 37.928C30.434 36.4459 29.0003 35.0624 27.5476 33.7119C26.7979 33.0141 26.8602 32.5656 27.5632 31.8696C32.5221 26.9574 37.4482 22.0106 42.3742 17.0672C42.9197 16.52 43.3179 16.1651 44.0659 16.9217C49.0595 21.9794 54.1015 26.9903 59.1245 32.0202C59.3462 32.2418 59.5297 32.5016 59.7738 32.7959Z" fill="#FEFDFB"/>
<path d="M59.7767 53.6212C59.465 53.9883 59.2036 54.3433 58.8954 54.6532C54.0109 59.5498 49.1039 64.4239 44.2506 69.3517C43.4489 70.1655 42.9987 70.0218 42.2767 69.2894C37.413 64.372 32.5198 59.484 27.6111 54.6117C26.967 53.9727 26.683 53.5243 27.4985 52.7694C29.0482 51.3357 30.5477 49.8397 31.9865 48.2952C32.686 47.5438 33.0825 47.8018 33.666 48.3939C36.4052 51.1781 39.25 53.8637 41.9113 56.7206C43.0489 57.9413 43.6636 57.7733 44.7146 56.66C47.3516 53.8671 50.1531 51.2301 52.8196 48.4649C53.5936 47.6632 54.0507 47.6823 54.7848 48.4788C56.1285 49.9384 57.5794 51.2976 58.9785 52.707C59.2434 52.9754 59.4771 53.2767 59.7767 53.6212Z" fill="#FEFDFB"/>
<path d="M49.2502 43.0443C49.2693 43.5879 48.9109 43.8009 48.6546 44.0606C47.1742 45.5618 45.6453 47.0163 44.2013 48.5521C43.5087 49.2897 43.0377 49.2568 42.3607 48.5382C40.9132 47.0059 39.4189 45.5151 37.89 44.0641C37.2165 43.4252 37.2477 42.9889 37.9022 42.3638C39.4743 40.8643 41.0084 39.3268 42.5131 37.7598C43.0966 37.1521 43.5 37.1815 44.0697 37.7719C45.5761 39.3354 47.1344 40.8505 48.6685 42.3898C48.8918 42.6149 49.0892 42.8625 49.2502 43.0443Z" fill="#FEFDFB"/>
<path d="M22.3949 49.2213C22.0798 48.9599 21.775 48.7452 21.5136 48.4872C20.0176 47.005 18.5614 45.4813 17.0308 44.0373C16.3278 43.3741 16.4681 42.943 17.0879 42.3491C18.5631 40.9379 20.0141 39.4991 21.4201 38.0187C22.0676 37.3365 22.5248 37.1703 23.252 37.9563C24.6822 39.4991 26.1989 40.9656 27.7105 42.4305C28.2456 42.9499 28.4585 43.317 27.7919 43.9455C26.2128 45.4329 24.7116 47.0016 23.1758 48.5322C22.9542 48.7521 22.7066 48.946 22.3949 49.2213Z" fill="#FEFDFB"/>
<path d="M70.1907 43.2152C69.9725 43.487 69.7959 43.7502 69.576 43.9718C68.0488 45.5129 66.4922 47.0262 64.9876 48.588C64.4162 49.1801 64.0162 49.1957 63.4362 48.5897C61.935 47.0227 60.3992 45.4886 58.8322 43.9892C58.2452 43.4282 58.195 43.0628 58.8131 42.4759C60.3853 40.9816 61.9142 39.4406 63.4188 37.8771C63.9764 37.2987 64.3729 37.2156 64.9685 37.839C66.468 39.4059 68.028 40.9158 69.5587 42.4551C69.7803 42.675 69.9621 42.9364 70.1907 43.2152Z" fill="#FEFDFB"/>
</svg>
