<svg width="53" height="61" viewBox="0 0 53 61" fill="none" xmlns="http://www.w3.org/2000/svg">
<path d="M49.5524 22.6294V43.658L26.4079 57.1622L3.254 43.658V16.6495L26.4172 3.1265L44.2041 13.5136L46.8923 11.9504L26.4172 0L0.575195 15.0769V45.2212L26.4172 60.2981L52.2593 45.2212V21.0662L49.5524 22.6294Z" fill="url(#paint0_linear_344_2441)"/>
<path d="M19.073 43.0686H14.9321V30.2442H28.7486C30.052 30.235 31.3053 29.7474 32.2277 28.8826C33.1502 28.027 33.6615 26.8679 33.6715 25.6627C33.6816 25.0647 33.5512 24.4759 33.3006 23.924C33.0499 23.372 32.6789 22.8752 32.2177 22.4612C31.7665 22.038 31.2251 21.6976 30.6335 21.4676C30.042 21.2376 29.4003 21.118 28.7486 21.1272H14.9321V17.2266H28.7586C31.1749 17.2358 33.5011 18.1373 35.2056 19.7105C36.9201 21.2928 37.8826 23.4272 37.9027 25.6627C37.9127 27.3739 37.3512 29.039 36.2884 30.4374C35.3058 31.7713 33.9222 32.8201 32.3079 33.4457C30.7037 33.9149 29.0393 34.1449 27.3649 34.1357H19.073V43.0686Z" fill="url(#paint1_linear_344_2441)"/>
<path d="M37.9026 43.0671H33.0408L29.2886 35.4877C30.7713 35.3831 32.2339 35.0344 33.6359 34.4531L37.9026 43.0671Z" fill="url(#paint2_linear_344_2441)"/>
<path d="M46.5166 18.0295L49.3879 20.0984L52.2593 18.0295V13.6444L49.3879 11.4844L46.5166 13.6444V18.0295Z" fill="url(#paint3_linear_344_2441)"/>
<defs>
<linearGradient id="paint0_linear_344_2441" x1="53.8262" y1="19.1908" x2="-1.12634" y2="40.9315" gradientUnits="userSpaceOnUse">
<stop stop-color="#C200FB"/>
<stop offset="0.4897" stop-color="#3772FF"/>
<stop offset="0.4898" stop-color="#3773FE"/>
<stop offset="1" stop-color="#5AC4BE"/>
</linearGradient>
<linearGradient id="paint1_linear_344_2441" x1="54.2307" y1="16.5624" x2="-3.03828" y2="41.3895" gradientUnits="userSpaceOnUse">
<stop stop-color="#C200FB"/>
<stop offset="0.4897" stop-color="#3772FF"/>
<stop offset="0.4898" stop-color="#3773FE"/>
<stop offset="1" stop-color="#5AC4BE"/>
</linearGradient>
<linearGradient id="paint2_linear_344_2441" x1="60.3137" y1="27.0299" x2="-0.841934" y2="48.137" gradientUnits="userSpaceOnUse">
<stop stop-color="#C200FB"/>
<stop offset="0.4897" stop-color="#3772FF"/>
<stop offset="0.4898" stop-color="#3773FE"/>
<stop offset="1" stop-color="#5AC4BE"/>
</linearGradient>
<linearGradient id="paint3_linear_344_2441" x1="52.4444" y1="14.2305" x2="-9.99349" y2="33.4602" gradientUnits="userSpaceOnUse">
<stop stop-color="#C200FB"/>
<stop offset="0.4897" stop-color="#3772FF"/>
<stop offset="0.4898" stop-color="#3773FE"/>
<stop offset="1" stop-color="#5AC4BE"/>
</linearGradient>
</defs>
</svg>
