<svg width="86" height="84" viewBox="0 0 86 84" fill="none" xmlns="http://www.w3.org/2000/svg">
<path d="M74.0221 9.35938L47.4763 28.8434L52.3853 17.3481L74.0221 9.35938Z" fill="#E2761B" stroke="#E2761B" stroke-linecap="round" stroke-linejoin="round"/>
<path d="M12.7407 9.35938L39.0731 29.0279L34.4042 17.3481L12.7407 9.35938Z" fill="#E4761B" stroke="#E4761B" stroke-linecap="round" stroke-linejoin="round"/>
<path d="M64.4705 54.5239L57.4005 65.2283L72.5276 69.3412L76.8763 54.7612L64.4705 54.5239Z" fill="#E4761B" stroke="#E4761B" stroke-linecap="round" stroke-linejoin="round"/>
<path d="M9.93921 54.7612L14.2612 69.3412L29.3884 65.2283L22.3184 54.5239L9.93921 54.7612Z" fill="#E4761B" stroke="#E4761B" stroke-linecap="round" stroke-linejoin="round"/>
<path d="M28.534 36.4364L24.3187 42.7377L39.3391 43.3968L38.8055 27.4458L28.534 36.4364Z" fill="#E4761B" stroke="#E4761B" stroke-linecap="round" stroke-linejoin="round"/>
<path d="M58.2296 36.4364L47.8247 27.2612L47.4779 43.3968L62.4716 42.7377L58.2296 36.4364Z" fill="#E4761B" stroke="#E4761B" stroke-linecap="round" stroke-linejoin="round"/>
<path d="M29.3885 65.2278L38.4061 60.8775L30.6158 54.8662L29.3885 65.2278Z" fill="#E4761B" stroke="#E4761B" stroke-linecap="round" stroke-linejoin="round"/>
<path d="M48.3574 60.8775L57.4017 65.2278L56.1478 54.8662L48.3574 60.8775Z" fill="#E4761B" stroke="#E4761B" stroke-linecap="round" stroke-linejoin="round"/>
<path d="M57.4017 65.2287L48.3574 60.8784L49.0778 66.7052L48.9977 69.1571L57.4017 65.2287Z" fill="#D7C1B3" stroke="#D7C1B3" stroke-linecap="round" stroke-linejoin="round"/>
<path d="M29.3885 65.2287L37.7925 69.1571L37.7391 66.7052L38.4061 60.8784L29.3885 65.2287Z" fill="#D7C1B3" stroke="#D7C1B3" stroke-linecap="round" stroke-linejoin="round"/>
<path d="M37.9242 51.0172L30.4006 48.8289L35.7098 46.4297L37.9242 51.0172Z" fill="#233447" stroke="#233447" stroke-linecap="round" stroke-linejoin="round"/>
<path d="M48.8363 51.0172L51.0507 46.4297L56.3865 48.8289L48.8363 51.0172Z" fill="#233447" stroke="#233447" stroke-linecap="round" stroke-linejoin="round"/>
<path d="M29.3869 65.2282L30.6675 54.5239L22.3169 54.7612L29.3869 65.2282Z" fill="#CD6116" stroke="#CD6116" stroke-linecap="round" stroke-linejoin="round"/>
<path d="M56.1202 54.5239L57.4008 65.2282L64.4709 54.7612L56.1202 54.5239Z" fill="#CD6116" stroke="#CD6116" stroke-linecap="round" stroke-linejoin="round"/>
<path d="M62.4683 42.7383L47.4746 43.3974L48.8619 51.017L51.0763 46.4294L56.4121 48.8287L62.4683 42.7383Z" fill="#CD6116" stroke="#CD6116" stroke-linecap="round" stroke-linejoin="round"/>
<path d="M30.3999 48.8287L35.7357 46.4294L37.9234 51.017L39.3374 43.3974L24.317 42.7383L30.3999 48.8287Z" fill="#CD6116" stroke="#CD6116" stroke-linecap="round" stroke-linejoin="round"/>
<path d="M24.3187 42.7383L30.615 54.8663L30.4016 48.8287L24.3187 42.7383Z" fill="#E4751F" stroke="#E4751F" stroke-linecap="round" stroke-linejoin="round"/>
<path d="M56.4143 48.8287L56.1475 54.8663L62.4704 42.7383L56.4143 48.8287Z" fill="#E4751F" stroke="#E4751F" stroke-linecap="round" stroke-linejoin="round"/>
<path d="M39.3397 43.3975L37.9257 51.017L39.6865 60.0076L40.0867 48.1696L39.3397 43.3975Z" fill="#E4751F" stroke="#E4751F" stroke-linecap="round" stroke-linejoin="round"/>
<path d="M47.4767 43.3975L46.7563 48.1432L47.0765 60.0076L48.864 51.017L47.4767 43.3975Z" fill="#E4751F" stroke="#E4751F" stroke-linecap="round" stroke-linejoin="round"/>
<path d="M48.8631 51.0174L47.0756 60.008L48.3562 60.8781L56.1465 54.8668L56.4133 48.8291L48.8631 51.0174Z" fill="#F6851B" stroke="#F6851B" stroke-linecap="round" stroke-linejoin="round"/>
<path d="M30.4006 48.8291L30.6141 54.8668L38.4044 60.8781L39.685 60.008L37.9242 51.0174L30.4006 48.8291Z" fill="#F6851B" stroke="#F6851B" stroke-linecap="round" stroke-linejoin="round"/>
<path d="M48.9978 69.156L49.0778 66.704L48.4108 66.124H38.3528L37.7391 66.704L37.7925 69.156L29.3885 65.2275L32.3233 67.6004L38.2727 71.6871H48.4909L54.467 67.6004L57.4017 65.2275L48.9978 69.156Z" fill="#C0AD9E" stroke="#C0AD9E" stroke-linecap="round" stroke-linejoin="round"/>
<path d="M48.3571 60.8774L47.0765 60.0073H39.6863L38.4058 60.8774L37.7388 66.7041L38.3524 66.1241H48.4105L49.0774 66.7041L48.3571 60.8774Z" fill="#161616" stroke="#161616" stroke-linecap="round" stroke-linejoin="round"/>
<path d="M75.1434 30.1089L77.4111 19.3518L74.0228 9.35938L48.3574 28.1842L58.2287 36.4366L72.182 40.4705L75.2768 36.9112L73.9428 35.962L76.0771 34.0373L74.423 32.7718L76.5574 31.1635L75.1434 30.1089Z" fill="#763D16" stroke="#763D16" stroke-linecap="round" stroke-linejoin="round"/>
<path d="M9.37891 19.3518L11.6466 30.1089L10.206 31.1635L12.3403 32.7718L10.7129 34.0373L12.8472 35.962L11.5132 36.9112L14.5814 40.4705L28.5346 36.4366L38.4059 28.1842L12.7405 9.35938L9.37891 19.3518Z" fill="#763D16" stroke="#763D16" stroke-linecap="round" stroke-linejoin="round"/>
<path d="M72.1817 40.4714L58.2284 36.4375L62.4704 42.7388L56.1475 54.8669L64.4714 54.7614H76.8772L72.1817 40.4714Z" fill="#F6851B" stroke="#F6851B" stroke-linecap="round" stroke-linejoin="round"/>
<path d="M28.5346 36.4375L14.5814 40.4714L9.93921 54.7614H22.3184L30.6156 54.8669L24.3193 42.7388L28.5346 36.4375Z" fill="#F6851B" stroke="#F6851B" stroke-linecap="round" stroke-linejoin="round"/>
<path d="M47.477 43.3971L48.3574 28.1843L52.4126 17.3481H34.4042L38.4061 28.1843L39.3398 43.3971L39.66 48.1956L39.6867 60.0073H47.0768L47.1302 48.1956L47.477 43.3971Z" fill="#F6851B" stroke="#F6851B" stroke-linecap="round" stroke-linejoin="round"/>
</svg>
