<svg width="76" height="86" viewBox="0 0 76 86" fill="none" xmlns="http://www.w3.org/2000/svg">
<g clip-path="url(#clip0_344_2559)">
<path d="M75.4736 43.0075C75.4736 38.0077 69.2123 33.2694 59.6128 30.3311C61.8281 20.5469 60.8435 12.7626 56.5052 10.2704C55.5053 9.68585 54.3361 9.40894 53.0592 9.40894V12.8396C53.7669 12.8396 54.3361 12.978 54.813 13.2395C56.9052 14.4395 57.8128 19.0085 57.1052 24.8852C56.936 26.3313 56.659 27.8543 56.3206 29.4081C53.3053 28.6696 50.0132 28.1004 46.5518 27.7312C44.475 24.8852 42.3212 22.3007 40.1521 20.0392C45.1672 15.3779 49.8747 12.8242 53.0746 12.8242V9.39355C48.844 9.39355 43.3058 12.4088 37.706 17.6393C32.1063 12.4396 26.5681 9.45509 22.3375 9.45509V12.8857C25.522 12.8857 30.2448 15.4241 35.26 20.0546C33.1062 22.3161 30.9525 24.8852 28.9064 27.7312C25.4297 28.1004 22.1375 28.6696 19.1222 29.4234C18.7684 27.885 18.5069 26.3928 18.3223 24.9621C17.5992 19.0854 18.4915 14.5164 20.5683 13.3011C21.0298 13.0242 21.6298 12.9011 22.3375 12.9011V9.47047C21.0452 9.47047 19.876 9.74738 18.8607 10.332C14.5378 12.8242 13.5686 20.5931 15.7993 30.3465C6.23049 33.3002 0 38.0231 0 43.0075C0 48.0072 6.26126 52.7455 15.8608 55.6838C13.6456 65.468 14.6301 73.2523 18.9684 75.7445C19.9684 76.3291 21.1375 76.606 22.4298 76.606C26.6604 76.606 32.1986 73.5907 37.7983 68.3602C43.3981 73.56 48.9363 76.5444 53.1669 76.5444C54.4591 76.5444 55.6283 76.2675 56.6437 75.6829C60.9666 73.1907 61.9357 65.4218 59.7051 55.6684C69.2431 52.7301 75.4736 47.9919 75.4736 43.0075ZM55.4437 32.7464C54.8745 34.7309 54.1668 36.777 53.3669 38.823C52.7361 37.5923 52.0746 36.3616 51.3516 35.1309C50.6439 33.9002 49.8901 32.7002 49.1363 31.531C51.3208 31.8541 53.4284 32.2541 55.4437 32.7464ZM48.3979 49.1303C47.1979 51.2071 45.9672 53.1762 44.6903 55.0069C42.3981 55.2069 40.0752 55.3146 37.7368 55.3146C35.4138 55.3146 33.0909 55.2069 30.814 55.0223C29.5372 53.1916 28.2911 51.2379 27.0911 49.1764C25.9219 47.1611 24.8604 45.1151 23.8913 43.0536C24.8451 40.9922 25.9219 38.9307 27.0757 36.9154C28.2757 34.8386 29.5064 32.8694 30.7833 31.0388C33.0755 30.8388 35.3984 30.7311 37.7368 30.7311C40.0598 30.7311 42.3828 30.8388 44.6596 31.0234C45.9364 32.8541 47.1825 34.8078 48.3825 36.8693C49.5517 38.8846 50.6132 40.9306 51.5823 42.9921C50.6132 45.0535 49.5517 47.115 48.3979 49.1303ZM53.3669 47.1303C54.1976 49.1918 54.9053 51.2532 55.4899 53.2532C53.4746 53.7454 51.3516 54.1608 49.1517 54.4839C49.9055 53.2993 50.6593 52.084 51.367 50.8379C52.0746 49.6072 52.7361 48.3611 53.3669 47.1303ZM37.7676 63.545C36.3369 62.0682 34.9062 60.4221 33.4908 58.6222C34.8754 58.6837 36.2907 58.7298 37.7214 58.7298C39.1675 58.7298 40.5982 58.6991 41.9982 58.6222C40.6136 60.4221 39.1829 62.0682 37.7676 63.545ZM26.3219 54.4839C24.1374 54.1608 22.0298 53.7608 20.0145 53.2685C20.5837 51.284 21.2914 49.238 22.0913 47.1919C22.7221 48.4226 23.3836 49.6533 24.1066 50.884C24.8297 52.1147 25.5681 53.3147 26.3219 54.4839ZM37.6907 22.4699C39.1214 23.9468 40.5521 25.5928 41.9674 27.3928C40.5828 27.3312 39.1675 27.2851 37.7368 27.2851C36.2907 27.2851 34.86 27.3158 33.4601 27.3928C34.8446 25.5928 36.2753 23.9468 37.6907 22.4699ZM26.3065 31.531C25.5527 32.7156 24.7989 33.9309 24.0912 35.177C23.3836 36.4077 22.7221 37.6385 22.0913 38.8692C21.2606 36.8077 20.5529 34.7463 19.9684 32.7464C21.9837 32.2695 24.1066 31.8541 26.3065 31.531ZM12.3841 50.7917C6.93816 48.4688 3.41523 45.4227 3.41523 43.0075C3.41523 40.5922 6.93816 37.5308 12.3841 35.2232C13.7071 34.654 15.1532 34.1463 16.6454 33.6694C17.5223 36.6847 18.6761 39.823 20.1068 43.0382C18.6915 46.2381 17.5531 49.361 16.6916 52.3609C15.1686 51.884 13.7225 51.3609 12.3841 50.7917ZM20.6606 72.7754C18.5684 71.5754 17.6608 67.0064 18.3684 61.1297C18.5376 59.6836 18.8146 58.1606 19.153 56.6069C22.1683 57.3453 25.4604 57.9145 28.9218 58.2837C30.9986 61.1297 33.1524 63.7142 35.3215 65.9757C30.3064 70.637 25.5989 73.1907 22.399 73.1907C21.7067 73.1754 21.1221 73.0369 20.6606 72.7754ZM57.1513 61.0528C57.8744 66.9295 56.9821 71.4985 54.9053 72.7138C54.4438 72.9907 53.8438 73.1138 53.1361 73.1138C49.9516 73.1138 45.2288 70.5755 40.2136 65.9449C42.3674 63.6835 44.5211 61.1143 46.5672 58.2683C50.044 57.8991 53.3361 57.3299 56.3514 56.5761C56.7052 58.1299 56.9821 59.6221 57.1513 61.0528ZM63.0742 50.7917C61.7511 51.3609 60.305 51.8686 58.8128 52.3455C57.9359 49.3303 56.7821 46.1919 55.3514 42.9767C56.7667 39.7768 57.9051 36.6539 58.7666 33.654C60.2897 34.1309 61.7357 34.654 63.0895 35.2232C68.5354 37.5462 72.0584 40.5922 72.0584 43.0075C72.043 45.4227 68.5201 48.4841 63.0742 50.7917Z" fill="#61DAFB"/>
<path d="M37.7214 50.038C41.6042 50.038 44.7518 46.8903 44.7518 43.0075C44.7518 39.1247 41.6042 35.9771 37.7214 35.9771C33.8386 35.9771 30.6909 39.1247 30.6909 43.0075C30.6909 46.8903 33.8386 50.038 37.7214 50.038Z" fill="#61DAFB"/>
</g>
<defs>
<clipPath id="clip0_344_2559">
<rect width="75.4736" height="86" fill="white"/>
</clipPath>
</defs>
</svg>
