<svg width="106" height="104" viewBox="0 0 106 104" fill="none" xmlns="http://www.w3.org/2000/svg">
<g clip-path="url(#clip0_344_2502)">
<path d="M104.985 50.7245L100.636 48.0558C100.599 47.6359 100.558 47.2169 100.512 46.7999L104.257 43.3464C104.637 42.9951 104.807 42.4751 104.704 41.9728C104.604 41.4675 104.247 41.0515 103.76 40.8739L98.9759 39.1079C98.856 38.6978 98.7303 38.2906 98.6015 37.8815L101.583 33.7803C101.887 33.3633 101.95 32.8208 101.751 32.3479C101.553 31.874 101.12 31.5345 100.612 31.4511L95.5704 30.6387C95.3742 30.26 95.1702 29.8872 94.9641 29.5202L97.0839 24.9089C97.3009 24.4399 97.2563 23.8984 96.967 23.4667C96.6788 23.0389 96.1904 22.7887 95.6694 22.8083L90.5482 22.9849C90.2837 22.6572 90.0143 22.3325 89.7399 22.0136L90.9187 17.0785C91.0375 16.5771 90.8879 16.0483 90.5195 15.6853C90.1539 15.3223 89.623 15.1722 89.1128 15.2899L84.1303 16.4574C83.8074 16.1867 83.4795 15.9188 83.1477 15.6568L83.327 10.5844C83.3468 10.0713 83.0942 9.58364 82.6623 9.29911C82.2294 9.01262 81.6816 8.96945 81.2061 9.18235L76.5604 11.282C76.185 11.0779 75.8085 10.8758 75.4311 10.6805L74.609 5.68658C74.5258 5.18031 74.183 4.75058 73.7036 4.55828C73.2252 4.36107 72.6734 4.42484 72.2574 4.72507L68.1168 7.67828C67.7087 7.54975 67.2986 7.42613 66.8885 7.30839L65.1055 2.56952C64.9242 2.0868 64.5042 1.73261 63.9961 1.63254C63.4869 1.53345 62.9659 1.70122 62.6093 2.07601L59.1225 5.78469C58.7015 5.73858 58.2775 5.69639 57.8545 5.66205L55.1602 1.34507C54.8878 0.908465 54.4054 0.642578 53.8824 0.642578C53.3594 0.642578 52.8819 0.908465 52.6144 1.34507L49.9201 5.66205C49.4962 5.69639 49.0722 5.73858 48.6522 5.78469L45.1654 2.07601C44.8118 1.70122 44.2868 1.53345 43.7786 1.63254C43.2685 1.7336 42.8485 2.0868 42.6692 2.56952L40.8861 7.30839C40.4721 7.42613 40.062 7.55073 39.6578 7.67828L35.5173 4.72507C35.0963 4.42386 34.5475 4.36009 34.0711 4.55828C33.5926 4.7545 33.2489 5.18424 33.1657 5.68658L32.3435 10.6805C31.9631 10.8758 31.5867 11.0769 31.2143 11.282L26.5685 9.18235C26.096 8.96846 25.5482 9.01262 25.1124 9.29911C24.6805 9.58364 24.4279 10.0713 24.4477 10.5844L24.626 15.6568C24.2952 15.9188 23.9673 16.1867 23.6434 16.4574L18.6608 15.2899C18.1546 15.1731 17.6207 15.3223 17.2542 15.6853C16.8857 16.0493 16.7361 16.5742 16.855 17.0785L18.0239 22.0136C17.7515 22.3335 17.482 22.6572 17.2176 22.9849L12.0963 22.8083C11.5802 22.7936 11.086 23.0389 10.7987 23.4667C10.5094 23.8925 10.4659 24.438 10.6808 24.9089L12.8006 29.5202C12.5946 29.8901 12.3905 30.263 12.1934 30.6387L7.15143 31.4511C6.63931 31.5335 6.20742 31.873 6.01228 32.3479C5.81416 32.8237 5.87855 33.3682 6.18067 33.7803L9.16228 37.8815C9.03251 38.2867 8.90671 38.6938 8.78784 39.1079L4.00341 40.8739C3.51803 41.0535 3.16044 41.4695 3.0594 41.9728C2.95836 42.4771 3.12775 42.9932 3.50714 43.3464L7.25148 46.7999C7.20492 47.2169 7.16332 47.6369 7.12766 48.0558L2.77907 50.7245C2.33827 50.9943 2.06982 51.4711 2.06982 51.9901C2.06982 52.5092 2.33827 52.9811 2.77907 53.246L7.12766 55.9147C7.16332 56.3346 7.20492 56.7535 7.25148 57.1705L3.50714 60.6241C3.12775 60.9744 2.95836 61.4944 3.0594 61.9977C3.16044 62.503 3.51803 62.918 4.00341 63.0965L8.78784 64.8626C8.90671 65.2727 9.03251 65.6799 9.16228 66.089L6.18067 70.1901C5.87756 70.6081 5.81317 71.1507 6.01228 71.6226C6.21138 72.0984 6.64426 72.4379 7.16133 72.5193L12.2033 73.3317C12.4004 73.7104 12.6025 74.0833 12.8105 74.4502L10.6907 79.0517C10.4748 79.5197 10.5194 80.0623 10.8086 80.494C11.0978 80.9227 11.5902 81.1729 12.1062 81.1523L17.2176 80.9747C17.484 81.3044 17.7525 81.6272 18.0259 81.948L16.857 86.8831C16.7381 87.3835 16.8877 87.9035 17.2562 88.2665C17.6217 88.6325 18.1536 88.7787 18.6628 88.6609L23.6453 87.5032C23.9693 87.776 24.2971 88.0409 24.628 88.3018L24.4497 93.3743C24.4299 93.8874 24.6825 94.3751 25.1144 94.6596C25.5443 94.9451 26.095 94.9883 26.5705 94.7744L31.2162 92.6748C31.5907 92.8808 31.9671 93.0809 32.3455 93.2762L33.1677 98.2701C33.2509 98.7784 33.5936 99.2081 34.073 99.4083C34.5515 99.6055 35.1032 99.5417 35.5193 99.2424L39.6598 96.2892C40.0689 96.4178 40.48 96.5434 40.898 96.6611L42.6811 101.4C42.8623 101.881 43.2823 102.237 43.7905 102.335C44.2996 102.437 44.8207 102.268 45.1773 101.892L48.6641 98.1828C49.0851 98.2309 49.509 98.2711 49.932 98.3084L52.6263 102.616C52.8977 103.05 53.3802 103.318 53.8943 103.318C54.4084 103.318 54.8947 103.051 55.1721 102.616L57.8664 98.3084C58.2904 98.2711 58.7134 98.2309 59.1344 98.1828L62.6212 101.892C62.9748 102.268 63.4998 102.437 64.0079 102.335C64.5181 102.236 64.9381 101.881 65.1174 101.4L66.9004 96.6611C67.3144 96.5434 67.7255 96.4178 68.1386 96.2892L72.2792 99.2424C72.7002 99.5417 73.2489 99.6055 73.7254 99.4083C74.2048 99.213 74.5476 98.7823 74.6308 98.2701L75.4529 93.2762C75.8333 93.0809 76.2097 92.8778 76.5822 92.6748L81.2279 94.7744C81.7004 94.9883 82.2482 94.9451 82.6841 94.6596C83.116 94.3731 83.3676 93.8874 83.3487 93.3743L83.1704 88.3018C83.5013 88.0399 83.8292 87.776 84.1521 87.5032L89.1346 88.6609C89.6408 88.7787 90.1747 88.6325 90.5412 88.2665C90.9097 87.9025 91.0593 87.3796 90.9404 86.8831L89.7716 81.948C90.045 81.6272 90.3144 81.3044 90.5779 80.9747L95.6991 81.1523C96.2152 81.1729 96.7095 80.9227 96.9968 80.494C97.286 80.0662 97.3306 79.5217 97.1137 79.0517L94.9938 74.4502C95.2009 74.0784 95.4039 73.7055 95.6001 73.3317L100.642 72.5193C101.155 72.4379 101.587 72.0984 101.781 71.6226C101.979 71.1487 101.917 70.6022 101.613 70.1901L98.6312 66.089C98.76 65.6838 98.8858 65.2766 99.0056 64.8626L103.79 63.0965C104.276 62.916 104.635 62.501 104.734 61.9977C104.837 61.4934 104.667 60.9773 104.286 60.6241L100.542 57.1705C100.588 56.7535 100.629 56.3336 100.666 55.9147L105.014 53.246C105.455 52.9772 105.724 52.4993 105.724 51.9901C105.724 51.4809 105.456 50.9992 105.015 50.7245H104.985ZM75.862 86.5358C74.1979 86.1806 73.1479 84.5539 73.5045 82.9056C73.8601 81.2573 75.4955 80.2075 77.1597 80.5607C78.8238 80.9129 79.8838 82.5426 79.5271 84.1909C79.1705 85.8392 77.5361 86.889 75.872 86.5358H75.862ZM74.3861 76.6264C72.8705 76.3046 71.3748 77.2602 71.0578 78.7652L69.5125 85.9079C64.7479 88.0467 59.4087 89.2437 53.8616 89.2437C48.1559 89.2437 42.7672 87.9977 37.9135 85.7607L36.3682 78.6181C36.0433 77.1169 34.5554 76.1554 33.0399 76.4792L26.6705 77.8332C25.4918 76.6264 24.3922 75.3411 23.3819 73.9871H54.3866C54.7372 73.9871 54.971 73.9243 54.971 73.6084V62.7178C54.971 62.4019 54.7372 62.3391 54.3866 62.3391H45.3229V55.4614H55.1196C56.0141 55.4614 59.904 55.7145 61.1422 60.6418C61.5315 62.1527 62.3903 67.078 62.9748 68.6576C63.5572 70.4236 65.9267 73.9557 68.4526 73.9557H83.9054C84.0808 73.9557 84.268 73.9361 84.4651 73.9008C83.3953 75.343 82.2165 76.7068 80.9585 77.9823L74.4406 76.5989L74.3861 76.6264ZM31.4946 86.3886C29.8304 86.7438 28.196 85.694 27.8394 84.0437C27.4838 82.3954 28.5407 80.7667 30.2069 80.4135C31.871 80.0613 33.5054 81.1111 33.862 82.7584C34.2177 84.4067 33.1597 86.0354 31.4946 86.3886ZM19.7069 39.1962C20.3963 40.7365 19.695 42.5418 18.1418 43.2286C16.5866 43.9125 14.7738 43.2168 14.0804 41.6784C13.387 40.14 14.0923 38.3328 15.6455 37.646C17.2007 36.9631 19.0135 37.6578 19.7069 39.1962ZM16.0913 47.6732L22.7281 44.7494C24.1446 44.1264 24.7885 42.483 24.1545 41.0799L22.7875 38.0188H28.1564V61.9584H17.3592C16.4192 58.6815 15.913 55.2279 15.913 51.6566C15.913 50.2928 15.9873 48.9486 16.1299 47.6241L16.0913 47.6732ZM45.2139 45.3479V38.2837H57.9922C58.6529 38.2837 62.6578 39.0402 62.6578 42.0022C62.6578 44.4649 59.587 45.3479 57.0611 45.3479H45.1743H45.2139ZM91.6715 51.7056C91.6715 52.6436 91.6368 53.5698 91.5675 54.492H87.6745C87.2852 54.492 87.1287 54.7452 87.1287 55.1229V56.8889C87.1287 61.0489 84.7613 61.9614 82.6811 62.187C80.7 62.4078 78.5108 61.3668 78.2434 60.1659C77.0745 53.661 75.133 52.2776 72.0622 49.864C75.8759 47.4701 79.8382 43.9282 79.8382 39.1697C79.8382 34.058 76.3019 30.8399 73.8948 29.2602C70.507 27.0527 66.7627 26.6112 65.7523 26.6112H25.5353C30.9934 20.587 38.4127 16.3093 46.7335 14.7395L51.4783 19.6648C52.5481 20.7734 54.3212 20.8225 55.4504 19.755L60.7599 14.7316C71.8542 16.7822 81.2646 23.6305 86.7127 33.0788L83.0773 41.2026C82.4503 42.6056 83.0902 44.2539 84.5037 44.872L91.4971 47.9528C91.618 49.1792 91.6814 50.4252 91.6814 51.6811L91.6715 51.7056ZM51.4545 10.5962C52.6828 9.42862 54.6342 9.47767 55.8031 10.6953C56.9719 11.9119 56.9323 13.8447 55.7011 15.0122C54.4728 16.1798 52.5213 16.1307 51.3525 14.9122C50.1836 13.6956 50.2232 11.7627 51.4545 10.5952V10.5962ZM87.5111 39.3433C88.1995 37.803 90.0172 37.1064 91.5724 37.7931C93.1276 38.476 93.8309 40.2852 93.1375 41.8256C92.4491 43.366 90.6314 44.0626 89.0762 43.3758C87.521 42.6929 86.8177 40.8837 87.5111 39.3433Z" fill="white"/>
</g>
<defs>
<clipPath id="clip0_344_2502">
<rect width="105" height="104" fill="white" transform="translate(0.975586)"/>
</clipPath>
</defs>
</svg>
